<svg xmlns="http://www.w3.org/2000/svg" viewBox="0 0 756.67 576.94"><defs><style>.cls-1{fill:#6fd8d8;}.cls-2{fill:#ffc74a;}.cls-3{isolation:isolate;}.cls-4{fill:#d268cc;}.cls-5{fill:none;stroke:#acacac;stroke-miterlimit:10;stroke-width:1.07px;}.cls-6{fill:#00223d;}</style></defs><g id="Capa_2" data-name="Capa 2"><g id="Capa_1-2" data-name="Capa 1"><ellipse id="Elipse_521" data-name="Elipse 521" class="cls-1" cx="374.06" cy="180.6" rx="78.68" ry="34.79"/><rect id="Rectángulo_25354" data-name="Rectángulo 25354" class="cls-2" x="16.79" y="20.11" width="51.37" height="326.59"/><rect id="Rectángulo_25354-2" data-name="Rectángulo 25354-2" class="cls-2" x="690.46" y="20.11" width="51.37" height="326.59"/><g id="_Qué" data-name=" Qué" class="cls-3"><g class="cls-3"><path d="M154.34,79.18v1.58A3.51,3.51,0,0,1,154,82.4a3.3,3.3,0,0,1-.93,1.12,9.69,9.69,0,0,1-1.57.93,3.16,3.16,0,0,0-1.81,3.08,2.82,2.82,0,0,0,3,3.1,3,3,0,0,0,2.21-.83,2.9,2.9,0,0,0,.84-2.17,5.66,5.66,0,0,0-.18-1.29l3.78.48a9.39,9.39,0,0,1,.07,1.1,5.84,5.84,0,0,1-1.84,4.47,6.78,6.78,0,0,1-4.82,1.73,7,7,0,0,1-4.91-1.77,6.11,6.11,0,0,1-1.92-4.72,6.79,6.79,0,0,1,.33-2.18,4.79,4.79,0,0,1,.87-1.65,6.32,6.32,0,0,1,1.18-1.1,6.06,6.06,0,0,1,1.36-.71,2.35,2.35,0,0,0,1-.65,1.63,1.63,0,0,0,.3-1V79.18Zm-3.45-6.13a2.3,2.3,0,0,1,1.69-.7,2.4,2.4,0,0,1,1.71,4.11,2.35,2.35,0,0,1-1.71.69,2.32,2.32,0,0,1-1.68-.69,2.29,2.29,0,0,1-.7-1.71A2.35,2.35,0,0,1,150.89,73.05Z"/><path d="M184.31,88.58,180.65,90l-2.71-3a11.89,11.89,0,0,1-5.1,1.07,11.73,11.73,0,0,1-5.61-1.32,9.73,9.73,0,0,1-3.92-3.82,12.33,12.33,0,0,1,0-11.49,9.79,9.79,0,0,1,3.91-3.8,12.65,12.65,0,0,1,11.25,0,9.7,9.7,0,0,1,3.9,3.8,11.36,11.36,0,0,1,1.43,5.75A10.66,10.66,0,0,1,181,84.74Zm-18-11.47a7.08,7.08,0,0,0,1.84,5.18,6.89,6.89,0,0,0,9.46,0,7.09,7.09,0,0,0,1.85-5.18,6.7,6.7,0,0,0-1.86-5,6.93,6.93,0,0,0-9.43,0A6.7,6.7,0,0,0,166.27,77.11Z"/><path d="M197.48,72.64h4.22V87.7h-4l-.1-1.82A5.75,5.75,0,0,1,192.81,88a5.87,5.87,0,0,1-4.16-1.35,5,5,0,0,1-1.45-3.86V72.64h4.23v9.23a2.59,2.59,0,0,0,.76,2.07,2.84,2.84,0,0,0,1.95.66,3.41,3.41,0,0,0,2.4-.86,3.68,3.68,0,0,0,.94-2.79Z"/><path d="M220.23,80l0,1H209a3.91,3.91,0,0,0,1.21,2.76,3.84,3.84,0,0,0,2.65,1,3.66,3.66,0,0,0,2-.52,3.19,3.19,0,0,0,1.27-1.52l3.87.57a6.56,6.56,0,0,1-2.64,3.53A7.85,7.85,0,0,1,212.91,88,8.15,8.15,0,0,1,207,85.92a7.57,7.57,0,0,1-2.18-5.75,7.6,7.6,0,0,1,2.19-5.75,7.89,7.89,0,0,1,5.72-2.1A6.89,6.89,0,0,1,220.23,80Zm-7.43-4.64a3.33,3.33,0,0,0-3.66,2.9h6.92a3.18,3.18,0,0,0-1-2.15A3.31,3.31,0,0,0,212.8,75.31Zm4.72-8.7-3.33,3.92H211.6l3.84-5.39Z"/></g></g><g id="necesita_el_cliente_" data-name="necesita el cliente " class="cls-3"><g class="cls-3"><path d="M126.18,103.88a2.37,2.37,0,0,1,1.73.61,2.28,2.28,0,0,1,.64,1.73v4.56h-1.32v-4.26a1.54,1.54,0,0,0-.4-1.17,1.44,1.44,0,0,0-1-.38,1.63,1.63,0,0,0-1.18.46,1.85,1.85,0,0,0-.46,1.36v4h-1.32V104h1.32v.83a2.2,2.2,0,0,1,.85-.72A2.64,2.64,0,0,1,126.18,103.88Z"/><path d="M136.78,107.27l0,.35h-5.25a2.32,2.32,0,0,0,.63,1.65,2.06,2.06,0,0,0,1.48.57,1.88,1.88,0,0,0,1.08-.31,2,2,0,0,0,.74-.86l1.19.23a3,3,0,0,1-1.16,1.48,3.17,3.17,0,0,1-1.83.53,3.32,3.32,0,0,1-2.47-.94,4,4,0,0,1,0-5.14,3.29,3.29,0,0,1,2.43-1,3.11,3.11,0,0,1,2.3.87A3.46,3.46,0,0,1,136.78,107.27Zm-3.18-2.39a2,2,0,0,0-1.34.44,2.06,2.06,0,0,0-.69,1.3h3.89a2,2,0,0,0-.58-1.3A1.89,1.89,0,0,0,133.6,104.88Z"/><path d="M141.42,110.91a3.31,3.31,0,0,1-2.46-1,3.81,3.81,0,0,1,0-5.08,3.3,3.3,0,0,1,2.46-1,3.36,3.36,0,0,1,2,.6,3,3,0,0,1,1.14,1.68l-1.23.19a2,2,0,0,0-.73-1,2,2,0,0,0-1.2-.36,1.89,1.89,0,0,0-1.5.67,2.92,2.92,0,0,0,0,3.52,1.9,1.9,0,0,0,1.5.68,2,2,0,0,0,1.2-.36,2,2,0,0,0,.73-1l1.23.18a3,3,0,0,1-1.15,1.68A3.29,3.29,0,0,1,141.42,110.91Z"/><path d="M152.25,107.27l0,.35H147a2.32,2.32,0,0,0,.63,1.65,2.06,2.06,0,0,0,1.48.57,1.88,1.88,0,0,0,1.08-.31,2,2,0,0,0,.74-.86l1.19.23a3,3,0,0,1-1.16,1.48,3.17,3.17,0,0,1-1.83.53,3.32,3.32,0,0,1-2.47-.94,4,4,0,0,1,0-5.14,3.29,3.29,0,0,1,2.43-1,3.11,3.11,0,0,1,2.3.87A3.46,3.46,0,0,1,152.25,107.27Zm-3.18-2.39a2,2,0,0,0-1.34.44,2.06,2.06,0,0,0-.69,1.3h3.89a2,2,0,0,0-.58-1.3A1.89,1.89,0,0,0,149.07,104.88Z"/><path d="M156.22,110.91a3.38,3.38,0,0,1-1.86-.48,2,2,0,0,1-.89-1.4l1.13-.32a1.45,1.45,0,0,0,.55.92,2,2,0,0,0,2,.08.8.8,0,0,0,.37-.75,1.33,1.33,0,0,0-.06-.3.56.56,0,0,0-.17-.24,1.77,1.77,0,0,0-.23-.19,1.3,1.3,0,0,0-.33-.15l-.36-.13-.43-.13-.45-.13a5.75,5.75,0,0,1-.68-.24,3.11,3.11,0,0,1-.56-.34,1.3,1.3,0,0,1-.43-.53,1.73,1.73,0,0,1-.15-.75,1.67,1.67,0,0,1,.69-1.45,3.35,3.35,0,0,1,3.42,0,1.9,1.9,0,0,1,.84,1.32l-1.06.26a1.27,1.27,0,0,0-.51-.82,1.62,1.62,0,0,0-.94-.27,1.6,1.6,0,0,0-.86.22.75.75,0,0,0-.36.68.75.75,0,0,0,.47.71,2.11,2.11,0,0,0,.47.19l.58.17.15,0,.65.18a4.59,4.59,0,0,1,.58.26,2,2,0,0,1,.53.37,1.6,1.6,0,0,1,.33.53,1.86,1.86,0,0,1,.14.73,2.07,2.07,0,0,1-.14.77,1.52,1.52,0,0,1-.37.57,2.1,2.1,0,0,1-.57.38,2.67,2.67,0,0,1-.69.23A4.75,4.75,0,0,1,156.22,110.91Z"/><path d="M161.22,102.52a.82.82,0,0,1-.6-.25.83.83,0,0,1-.26-.6.79.79,0,0,1,.26-.6.84.84,0,0,1,1.2,0,.79.79,0,0,1,.25.6.86.86,0,0,1-.25.6A.82.82,0,0,1,161.22,102.52Zm-.67,8.26V104h1.32v6.76Z"/><path d="M166.44,110.78a1.82,1.82,0,0,1-1.35-.49,1.89,1.89,0,0,1-.49-1.39v-3.85h-1.38v-1h.5a1,1,0,0,0,.76-.25,1.21,1.21,0,0,0,.23-.83v-1.17h1.21V104h1.53v1h-1.53v3.71a1,1,0,0,0,.25.73.83.83,0,0,0,.66.26h.62v1Z"/><path d="M170.63,110.91a2.8,2.8,0,0,1-1-.18,1.62,1.62,0,0,1-.74-.61,1.81,1.81,0,0,1-.29-1.06,2,2,0,0,1,.18-.89,1.59,1.59,0,0,1,.57-.61,3.63,3.63,0,0,1,.79-.39,8.35,8.35,0,0,1,1-.24l1.06-.19c.41-.07.62-.28.62-.62a1.11,1.11,0,0,0-.41-1,1.72,1.72,0,0,0-1-.31,1.67,1.67,0,0,0-1,.31,1.28,1.28,0,0,0-.48.93l-1.18-.24a2.09,2.09,0,0,1,.87-1.47,3.23,3.23,0,0,1,1.89-.5,4.86,4.86,0,0,1,.8.07,3,3,0,0,1,.72.24,2.17,2.17,0,0,1,.59.44,2,2,0,0,1,.39.67,3,3,0,0,1,.14.94V109a1.06,1.06,0,0,0,.16.69.64.64,0,0,0,.52.18h.1v.92h-.63c-.75,0-1.18-.3-1.32-.9h-.06a2.28,2.28,0,0,1-1,.78A3.1,3.1,0,0,1,170.63,110.91Zm.3-1a1.79,1.79,0,0,0,1.42-.63,2.43,2.43,0,0,0,.55-1.68l-1.77.36a2.22,2.22,0,0,0-1,.35.89.89,0,0,0,0,1.37A1.28,1.28,0,0,0,170.93,109.87Z"/><path d="M186.12,107.27l0,.35h-5.25a2.36,2.36,0,0,0,.63,1.65,2.07,2.07,0,0,0,1.49.57,1.94,1.94,0,0,0,1.81-1.17l1.19.23a3,3,0,0,1-1.15,1.48,3.23,3.23,0,0,1-1.84.53,3.33,3.33,0,0,1-2.47-.94,4,4,0,0,1,0-5.14,3.29,3.29,0,0,1,2.43-1,3.1,3.1,0,0,1,2.3.87A3.46,3.46,0,0,1,186.12,107.27ZM183,104.88a2,2,0,0,0-1.35.44,2.06,2.06,0,0,0-.69,1.3h3.89a2,2,0,0,0-.58-1.3A1.87,1.87,0,0,0,183,104.88Z"/><path d="M187.91,110.78v-10.5h1.32v10.5Z"/><path d="M198.07,110.91a3.31,3.31,0,0,1-2.46-1,3.81,3.81,0,0,1,0-5.08,3.3,3.3,0,0,1,2.46-1,3.36,3.36,0,0,1,2,.6,3,3,0,0,1,1.13,1.68l-1.22.19a2,2,0,0,0-.73-1,2,2,0,0,0-1.2-.36,1.89,1.89,0,0,0-1.5.67,2.88,2.88,0,0,0,0,3.52,1.9,1.9,0,0,0,1.5.68,2,2,0,0,0,1.2-.36,2,2,0,0,0,.73-1l1.22.18a3,3,0,0,1-1.14,1.68A3.29,3.29,0,0,1,198.07,110.91Z"/><path d="M202.89,110.78v-10.5h1.32v10.5Z"/><path d="M207.23,102.52a.82.82,0,0,1-.6-.25.83.83,0,0,1-.26-.6.79.79,0,0,1,.26-.6.82.82,0,0,1,.6-.25.85.85,0,0,1,.85.85.85.85,0,0,1-.85.85Zm-.67,8.26V104h1.32v6.76Z"/><path d="M216.24,107.27l0,.35H211a2.36,2.36,0,0,0,.63,1.65,2.07,2.07,0,0,0,1.49.57,1.92,1.92,0,0,0,1.08-.31,2,2,0,0,0,.73-.86l1.19.23a3,3,0,0,1-1.16,1.48,3.17,3.17,0,0,1-1.83.53,3.32,3.32,0,0,1-2.47-.94,4,4,0,0,1,0-5.14,3.29,3.29,0,0,1,2.43-1,3.1,3.1,0,0,1,2.3.87A3.46,3.46,0,0,1,216.24,107.27Zm-3.18-2.39a2,2,0,0,0-1.34.44,2.06,2.06,0,0,0-.69,1.3h3.89a2,2,0,0,0-.58-1.3A1.89,1.89,0,0,0,213.06,104.88Z"/><path d="M221.36,103.88a2.41,2.41,0,0,1,1.74.61,2.32,2.32,0,0,1,.64,1.73v4.56h-1.32v-4.26a1.58,1.58,0,0,0-.4-1.17,1.45,1.45,0,0,0-1-.38,1.61,1.61,0,0,0-1.18.46,1.85,1.85,0,0,0-.47,1.36v4H218V104h1.31v.83a2.2,2.2,0,0,1,.85-.72A2.64,2.64,0,0,1,221.36,103.88Z"/><path d="M228.18,110.78a1.79,1.79,0,0,1-1.35-.49,1.89,1.89,0,0,1-.5-1.39v-3.85H225v-1h.5a1,1,0,0,0,.76-.25,1.16,1.16,0,0,0,.23-.83v-1.17h1.21V104h1.53v1h-1.53v3.71a1,1,0,0,0,.25.73.86.86,0,0,0,.66.26h.62v1Z"/><path d="M236.79,107.27l0,.35h-5.24a2.28,2.28,0,0,0,.63,1.65,2,2,0,0,0,1.48.57,1.92,1.92,0,0,0,1.08-.31,2,2,0,0,0,.74-.86l1.19.23a3,3,0,0,1-1.16,1.48,3.23,3.23,0,0,1-1.84.53,3.33,3.33,0,0,1-2.47-.94,4,4,0,0,1,0-5.14,3.29,3.29,0,0,1,2.42-1,3.12,3.12,0,0,1,2.31.87A3.41,3.41,0,0,1,236.79,107.27Zm-3.17-2.39a2,2,0,0,0-1.35.44,2.06,2.06,0,0,0-.69,1.3h3.89a1.74,1.74,0,0,0-1.85-1.74Z"/><path d="M240.37,108v-.84a1.8,1.8,0,0,1,.09-.6,1.18,1.18,0,0,1,.28-.45,2.55,2.55,0,0,1,.41-.34c.15-.09.34-.2.58-.32a1.62,1.62,0,0,0,.89-1.62,1.81,1.81,0,0,0-.48-1.31,1.65,1.65,0,0,0-1.23-.48,1.61,1.61,0,0,0-1.22.51,1.86,1.86,0,0,0-.48,1.31,3.45,3.45,0,0,0,.06.57l-1.15-.13a3.45,3.45,0,0,1-.05-.57,2.69,2.69,0,0,1,.79-2,2.79,2.79,0,0,1,2-.78,2.87,2.87,0,0,1,2.07.79,2.78,2.78,0,0,1,.81,2.08,2.75,2.75,0,0,1-.44,1.62,2.44,2.44,0,0,1-1.11.88,1.56,1.56,0,0,0-.56.37.89.89,0,0,0-.18.58V108Zm.6,2.88a.82.82,0,0,1-.6-.25.8.8,0,0,1-.25-.6.85.85,0,0,1,.85-.84.79.79,0,0,1,.59.25.81.81,0,0,1,.24.59.83.83,0,0,1-.24.6A.79.79,0,0,1,241,110.92Z"/></g></g><g id="Entradas:" class="cls-3"><g class="cls-3"><path d="M129.33,259.52h-8.11v5h7.19v3.95h-7.19v4.95h8.11v4H116.65V255.52h12.68Z"/><path d="M142.62,261.53a6.08,6.08,0,0,1,4.3,1.4,5.2,5.2,0,0,1,1.5,4V277.4H144v-9.54a2.7,2.7,0,0,0-.78-2.15,2.94,2.94,0,0,0-2-.68,3.82,3.82,0,0,0-1.3.2,3.18,3.18,0,0,0-1.09.61,2.62,2.62,0,0,0-.78,1.17,5.38,5.38,0,0,0-.3,1.8v8.59h-4.36V261.83h4.36v1.73A6,6,0,0,1,142.62,261.53Z"/><path d="M158.44,277.4a4.69,4.69,0,0,1-3.51-1.27,4.89,4.89,0,0,1-1.24-3.59v-7.36h-3.06v-3.35h1a2.54,2.54,0,0,0,1.94-.65,3.35,3.35,0,0,0,.62-2.31v-2.06h3.94v5h3.2v3.35h-3.2v6.89q0,2,1.8,2h1.4v3.32Z"/><path d="M168.87,264.3a5,5,0,0,1,2-1.87,6.23,6.23,0,0,1,3-.78v3.89a5.94,5.94,0,0,0-3.72.94,4.1,4.1,0,0,0-1.15,3.33v7.59h-4.39V261.83h4.18Z"/><path d="M189.18,273.17a14.64,14.64,0,0,0,.38,3.8v.43h-4.07l-.35-1.7a5,5,0,0,1-2.18,1.5,8.13,8.13,0,0,1-2.82.5,7.51,7.51,0,0,1-1.45-.14,4.87,4.87,0,0,1-1.31-.46,4,4,0,0,1-1.08-.81,3.52,3.52,0,0,1-.73-1.23,5,5,0,0,1-.27-1.69,4.71,4.71,0,0,1,.29-1.69,3.75,3.75,0,0,1,.76-1.26,4.61,4.61,0,0,1,1.22-.93,9.49,9.49,0,0,1,1.55-.66,18.34,18.34,0,0,1,1.84-.49l2.56-.57a3,3,0,0,0,1.16-.49,1,1,0,0,0,.34-.78,1.6,1.6,0,0,0-.77-1.5,3.57,3.57,0,0,0-1.85-.46c-1.79,0-2.8.8-3,2.38l-3.86-.7a5.24,5.24,0,0,1,2.25-3.55,9,9,0,0,1,4.89-1.14q6.54,0,6.54,5.62Zm-7.67,1.58a3.51,3.51,0,0,0,2.69-1.13,4.74,4.74,0,0,0,1.05-3.34l-3.7,1A4.63,4.63,0,0,0,180,272a1.31,1.31,0,0,0-.54,1.12,1.41,1.41,0,0,0,.58,1.23A2.36,2.36,0,0,0,181.51,274.75Z"/><path d="M204.11,254.15h4.36V277.4h-4.14l-.1-2a4.55,4.55,0,0,1-2,1.76,6.61,6.61,0,0,1-2.91.63,7.65,7.65,0,0,1-2.91-.56,7.28,7.28,0,0,1-2.38-1.58,7.18,7.18,0,0,1-1.61-2.57,9.3,9.3,0,0,1-.59-3.4,8.92,8.92,0,0,1,1-4.34,7.14,7.14,0,0,1,2.72-2.83,7.57,7.57,0,0,1,3.75-1,6.77,6.77,0,0,1,2.82.57,4.52,4.52,0,0,1,2,1.61Zm-3.77,20a3.86,3.86,0,0,0,2.94-1.24,5.11,5.11,0,0,0,0-6.52,3.86,3.86,0,0,0-2.93-1.25,3.92,3.92,0,0,0-3,1.23,4.57,4.57,0,0,0-1.18,3.29,4.51,4.51,0,0,0,1.18,3.26A3.92,3.92,0,0,0,200.34,274.14Z"/><path d="M225.74,273.17a14.71,14.71,0,0,0,.37,3.8v.43H222l-.35-1.7a5,5,0,0,1-2.17,1.5,8.13,8.13,0,0,1-2.82.5,7.36,7.36,0,0,1-1.45-.14,4.75,4.75,0,0,1-1.31-.46,4.24,4.24,0,0,1-1.09-.81,3.51,3.51,0,0,1-.72-1.23,5,5,0,0,1-.27-1.69,4.72,4.72,0,0,1,.28-1.69,3.92,3.92,0,0,1,.76-1.26,4.51,4.51,0,0,1,1.23-.93,9.39,9.39,0,0,1,1.54-.66,17.88,17.88,0,0,1,1.85-.49l2.56-.57a2.84,2.84,0,0,0,1.15-.49,1,1,0,0,0,.34-.78,1.6,1.6,0,0,0-.76-1.5,3.6,3.6,0,0,0-1.85-.46c-1.79,0-2.81.8-3.05,2.38l-3.86-.7a5.29,5.29,0,0,1,2.26-3.55,9,9,0,0,1,4.89-1.14q6.54,0,6.54,5.62Zm-7.68,1.58a3.53,3.53,0,0,0,2.7-1.13,4.79,4.79,0,0,0,1-3.34l-3.69,1a4.46,4.46,0,0,0-1.55.64,1.31,1.31,0,0,0-.54,1.12,1.43,1.43,0,0,0,.57,1.23A2.4,2.4,0,0,0,218.06,274.75Z"/><path d="M235.45,277.7a8.77,8.77,0,0,1-4.54-1.09,4.61,4.61,0,0,1-2.22-3.24l3.65-1a2.92,2.92,0,0,0,3.11,2.31,3.17,3.17,0,0,0,1.59-.35,1.23,1.23,0,0,0,.62-1.2,1.3,1.3,0,0,0-.25-.81,2.11,2.11,0,0,0-.8-.57,10,10,0,0,0-1.06-.41l-1.38-.4q-.87-.24-1.44-.45a9,9,0,0,1-1.37-.58,5.91,5.91,0,0,1-1.14-.8,3.29,3.29,0,0,1-.84-1.22,4.36,4.36,0,0,1-.3-1.67,4,4,0,0,1,1.69-3.48,7.59,7.59,0,0,1,4.41-1.18,7.68,7.68,0,0,1,4.07,1,4.53,4.53,0,0,1,2.09,3.12l-3.37.76a2.64,2.64,0,0,0-2.77-2,2.94,2.94,0,0,0-1.53.35,1.1,1.1,0,0,0-.61,1,1.16,1.16,0,0,0,.09.47.89.89,0,0,0,.32.38,4.73,4.73,0,0,0,.44.29,3.72,3.72,0,0,0,.62.25c.27.09.5.15.68.2l.8.2.81.21c.55.16,1,.31,1.46.46a8.79,8.79,0,0,1,1.34.63,5.07,5.07,0,0,1,1.17.92,4,4,0,0,1,.76,1.29,4.56,4.56,0,0,1,.31,1.73,4.62,4.62,0,0,1-.53,2.25,3.84,3.84,0,0,1-1.43,1.53,6.84,6.84,0,0,1-2,.81A10.27,10.27,0,0,1,235.45,277.7Z"/><path d="M247.53,267.78a2.37,2.37,0,0,1-1.75-.74,2.45,2.45,0,0,1-.73-1.77,2.49,2.49,0,0,1,4.25-1.75,2.36,2.36,0,0,1,.75,1.75,2.54,2.54,0,0,1-2.52,2.51Zm0,9.92a2.51,2.51,0,0,1-2.48-2.48,2.49,2.49,0,0,1,.73-1.78,2.51,2.51,0,0,1,4.27,1.78,2.36,2.36,0,0,1-.75,1.74A2.42,2.42,0,0,1,247.53,277.7Z"/></g></g><g id="Proceso" class="cls-3"><g class="cls-3"><path d="M326,169.12A6.11,6.11,0,0,1,330.7,171a6.65,6.65,0,0,1,1.78,4.72,6.55,6.55,0,0,1-1.77,4.7,6.15,6.15,0,0,1-4.67,1.87H320.8v8.21h-3V169.12Zm-.46,10.6a3.81,3.81,0,0,0,2.89-1.09,4.61,4.61,0,0,0,0-5.81,3.78,3.78,0,0,0-2.89-1.11H320.8v8Z"/><path d="M339.24,178.14a4.41,4.41,0,0,1,1.86-2,5.78,5.78,0,0,1,2.9-.79v2.7a5,5,0,0,0-3.49,1.07,4.54,4.54,0,0,0-1.18,3.5v7.89h-2.91v-15h2.82Z"/><path d="M353.27,190.81a7.79,7.79,0,1,1,5.51-13.45,8.54,8.54,0,0,1,0,11.33A7.5,7.5,0,0,1,353.27,190.81Zm0-2.39a4.45,4.45,0,0,0,3.45-1.49,6.3,6.3,0,0,0,0-7.82,4.48,4.48,0,0,0-3.45-1.48,4.4,4.4,0,0,0-3.41,1.48,6.34,6.34,0,0,0,0,7.82A4.37,4.37,0,0,0,353.24,188.42Z"/><path d="M371.2,190.8a7.34,7.34,0,0,1-5.44-2.16,8.45,8.45,0,0,1,0-11.24,8,8,0,0,1,9.87-.83,6.57,6.57,0,0,1,2.52,3.72l-2.71.41a4.35,4.35,0,0,0-1.63-2.28,4.45,4.45,0,0,0-2.64-.79,4.23,4.23,0,0,0-3.33,1.48,6.48,6.48,0,0,0,0,7.81,4.24,4.24,0,0,0,3.33,1.49,4.46,4.46,0,0,0,2.64-.8,4.37,4.37,0,0,0,1.63-2.27l2.71.4a6.59,6.59,0,0,1-2.53,3.72A7.42,7.42,0,0,1,371.2,190.8Z"/><path d="M395.18,182.75l0,.77H383.53a5.08,5.08,0,0,0,1.39,3.65,4.57,4.57,0,0,0,3.28,1.27,4.33,4.33,0,0,0,2.39-.68,4.45,4.45,0,0,0,1.64-1.91l2.63.51a6.67,6.67,0,0,1-2.56,3.27,7.17,7.17,0,0,1-4.07,1.18,7.39,7.39,0,0,1-5.47-2.08,8.82,8.82,0,0,1,0-11.39,7.24,7.24,0,0,1,5.37-2.1,6.89,6.89,0,0,1,5.1,1.92A7.62,7.62,0,0,1,395.18,182.75Zm-7-5.3a4.54,4.54,0,0,0-3,1,4.6,4.6,0,0,0-1.53,2.89h8.61a4.23,4.23,0,0,0-1.29-2.88A4.08,4.08,0,0,0,388.16,177.45Z"/><path d="M404,190.81a7.31,7.31,0,0,1-4.11-1.07,4.44,4.44,0,0,1-2-3.09l2.5-.71a3.22,3.22,0,0,0,1.22,2,3.82,3.82,0,0,0,2.35.71,3.73,3.73,0,0,0,2-.53,1.74,1.74,0,0,0,.81-1.65,2,2,0,0,0-.13-.67,1.28,1.28,0,0,0-.37-.54c-.19-.15-.36-.29-.52-.4a3.38,3.38,0,0,0-.73-.34l-.79-.28c-.21-.07-.52-.17-.95-.29l-1-.29a12.87,12.87,0,0,1-1.52-.54,6.86,6.86,0,0,1-1.24-.74,3,3,0,0,1-.95-1.18,4,4,0,0,1-.32-1.67,3.68,3.68,0,0,1,1.51-3.2,6.52,6.52,0,0,1,3.88-1.08,6.61,6.61,0,0,1,3.7,1,4.19,4.19,0,0,1,1.85,2.94l-2.34.57a2.81,2.81,0,0,0-1.13-1.82,3.56,3.56,0,0,0-2.07-.6,3.64,3.64,0,0,0-1.91.49,1.8,1.8,0,0,0-.54,2.43,1.94,1.94,0,0,0,.77.66,7.18,7.18,0,0,0,1.05.42c.35.11.78.23,1.3.36l.32.08c.57.14,1.05.27,1.43.4a8,8,0,0,1,1.3.56,4.66,4.66,0,0,1,1.16.82,3.62,3.62,0,0,1,.74,1.17,4.23,4.23,0,0,1,.3,1.63,4.6,4.6,0,0,1-.3,1.7,3.51,3.51,0,0,1-.83,1.26,4.37,4.37,0,0,1-1.25.85,6.08,6.08,0,0,1-1.53.49A9.52,9.52,0,0,1,404,190.81Z"/><path d="M420,190.81a7.79,7.79,0,1,1,5.51-13.45,8.57,8.57,0,0,1,0,11.33A7.5,7.5,0,0,1,420,190.81Zm0-2.39a4.45,4.45,0,0,0,3.45-1.49,6.3,6.3,0,0,0,0-7.82,4.48,4.48,0,0,0-3.45-1.48,4.4,4.4,0,0,0-3.41,1.48,6.34,6.34,0,0,0,0,7.82A4.37,4.37,0,0,0,420,188.42Z"/></g></g><g id="_qué_debemos_recibir_" data-name=" qué debemos recibir " class="cls-3"><g class="cls-3"><path d="M114.25,295.46v.84a1.7,1.7,0,0,1-.09.59,1.3,1.3,0,0,1-.28.46,2.47,2.47,0,0,1-.41.33,5.58,5.58,0,0,1-.58.32,1.64,1.64,0,0,0-.89,1.62,1.78,1.78,0,0,0,.48,1.31,1.6,1.6,0,0,0,1.23.49,1.58,1.58,0,0,0,1.22-.52,1.84,1.84,0,0,0,.48-1.31,3.25,3.25,0,0,0-.06-.56l1.15.12a3.66,3.66,0,0,1,0,.57,2.69,2.69,0,0,1-.79,2,2.87,2.87,0,0,1-4.92-2.09,2.75,2.75,0,0,1,.44-1.62,2.51,2.51,0,0,1,1.11-.88,1.44,1.44,0,0,0,.56-.37.86.86,0,0,0,.18-.58v-.73Zm-.6-2.89a.85.85,0,0,1,.6,1.45.82.82,0,0,1-.6.25.79.79,0,0,1-.59-.25.87.87,0,0,1,0-1.2A.83.83,0,0,1,113.65,292.57Z"/><path d="M123.49,292.71h1.26v10.16h-1.32v-4.56a2.41,2.41,0,0,1-.94,1,2.79,2.79,0,0,1-1.37.35,3.08,3.08,0,0,1-2.94-2.06,4,4,0,0,1-.25-1.47,3.58,3.58,0,0,1,.92-2.55,3,3,0,0,1,2.27-1,2.75,2.75,0,0,1,1.39.37,2.3,2.3,0,0,1,.94,1Zm-2.12,5.79a2,2,0,0,0,1.55-.68,2.5,2.5,0,0,0,.62-1.73,2.4,2.4,0,0,0-.63-1.7,2.06,2.06,0,0,0-3,0,2.75,2.75,0,0,0,0,3.48A2,2,0,0,0,121.37,298.5Z"/><path d="M131.36,292.71h1.31v6.77h-1.25l0-.88a2.23,2.23,0,0,1-.86.75,2.7,2.7,0,0,1-1.19.26,2.43,2.43,0,0,1-1.73-.61,2.29,2.29,0,0,1-.64-1.74v-4.55h1.32V297a1.49,1.49,0,0,0,.4,1.15,1.43,1.43,0,0,0,1,.38,1.59,1.59,0,0,0,1.18-.45,1.85,1.85,0,0,0,.47-1.36Z"/><path d="M141,296l0,.35h-5.24a2.26,2.26,0,0,0,.63,1.65,2,2,0,0,0,1.48.57,2,2,0,0,0,1.08-.3,2.07,2.07,0,0,0,.74-.86l1.19.23a3.08,3.08,0,0,1-1.16,1.47,3.23,3.23,0,0,1-1.84.54,3.37,3.37,0,0,1-2.47-.94,3.52,3.52,0,0,1-.94-2.58,3.48,3.48,0,0,1,.95-2.57,3.25,3.25,0,0,1,2.42-.95,3.12,3.12,0,0,1,2.31.87A3.41,3.41,0,0,1,141,296Zm-3.17-2.39a1.93,1.93,0,0,0-2,1.74h3.89a1.88,1.88,0,0,0-.58-1.29A1.83,1.83,0,0,0,137.85,293.57Zm2-3.79-1.53,1.78h-.88l1.72-2.28Z"/><path d="M151.41,289h1.31v10.5h-1.26l0-1.23a2.35,2.35,0,0,1-1,1,2.66,2.66,0,0,1-1.4.37,3,3,0,0,1-1.23-.25,2.87,2.87,0,0,1-1-.7,3.22,3.22,0,0,1-.69-1.12,4,4,0,0,1-.25-1.46,3.86,3.86,0,0,1,.43-1.85,3.16,3.16,0,0,1,1.16-1.24,3.11,3.11,0,0,1,1.59-.43,2.74,2.74,0,0,1,1.39.36,2.39,2.39,0,0,1,.94,1Zm-2,9.52a2,2,0,0,0,1.53-.69,2.7,2.7,0,0,0,0-3.43,2,2,0,0,0-1.52-.69,2,2,0,0,0-1.53.67,2.74,2.74,0,0,0,0,3.47A2,2,0,0,0,149.36,298.5Z"/><path d="M161.08,296l0,.35h-5.25a2.34,2.34,0,0,0,.63,1.65,2.07,2.07,0,0,0,1.49.57,2,2,0,0,0,1.08-.3,2.14,2.14,0,0,0,.74-.86l1.18.23a3,3,0,0,1-1.15,1.47,3.23,3.23,0,0,1-1.84.54,3.37,3.37,0,0,1-2.47-.94,4,4,0,0,1,0-5.15,3.29,3.29,0,0,1,2.43-.95,3.1,3.1,0,0,1,2.3.87A3.46,3.46,0,0,1,161.08,296Zm-3.17-2.39a1.93,1.93,0,0,0-2,1.74h3.89a1.93,1.93,0,0,0-.58-1.29A1.83,1.83,0,0,0,157.91,293.57Z"/><path d="M166.52,292.57a3.11,3.11,0,0,1,1.59.43,3.14,3.14,0,0,1,1.15,1.24,3.86,3.86,0,0,1,.43,1.85,3.58,3.58,0,0,1-.91,2.56,3,3,0,0,1-2.26,1,2.68,2.68,0,0,1-1.41-.37,2.32,2.32,0,0,1-.94-1l0,1.23h-1.26V289h1.3v4.93a2.46,2.46,0,0,1,.94-1A2.75,2.75,0,0,1,166.52,292.57Zm-1.82,5.24a2.06,2.06,0,0,0,3.06,0,2.74,2.74,0,0,0,0-3.47,2,2,0,0,0-1.53-.67,2,2,0,0,0-1.52.69,2.43,2.43,0,0,0-.62,1.71A2.46,2.46,0,0,0,164.7,297.81Z"/><path d="M177.5,296l0,.35h-5.25a2.34,2.34,0,0,0,.63,1.65,2.07,2.07,0,0,0,1.49.57,2,2,0,0,0,1.08-.3,2,2,0,0,0,.73-.86l1.19.23a3,3,0,0,1-1.15,1.47,3.23,3.23,0,0,1-1.84.54,3.37,3.37,0,0,1-2.47-.94,4,4,0,0,1,0-5.15,3.29,3.29,0,0,1,2.43-.95,3.1,3.1,0,0,1,2.3.87A3.46,3.46,0,0,1,177.5,296Zm-3.17-2.39a1.93,1.93,0,0,0-2,1.74h3.89a1.93,1.93,0,0,0-.58-1.29A1.83,1.83,0,0,0,174.33,293.57Z"/><path d="M186.4,292.57a2.24,2.24,0,0,1,1.6.57,2.12,2.12,0,0,1,.61,1.61v4.73h-1.32V295.1a1.46,1.46,0,0,0-.36-1.07,1.21,1.21,0,0,0-.9-.36,1.33,1.33,0,0,0-1,.42,1.8,1.8,0,0,0-.39,1.27v4.12h-1.33v-4.33a1.54,1.54,0,0,0-.36-1.11,1.24,1.24,0,0,0-.93-.37,1.29,1.29,0,0,0-1,.43,1.89,1.89,0,0,0-.4,1.3v4.08h-1.3v-6.77h1.3v.86a2.11,2.11,0,0,1,1.88-1,2.44,2.44,0,0,1,1.17.28,1.78,1.78,0,0,1,.76.82,2.18,2.18,0,0,1,.83-.82A2.47,2.47,0,0,1,186.4,292.57Z"/><path d="M193.75,299.61a3.4,3.4,0,0,1-2.49-1,3.83,3.83,0,0,1,0-5.12,3.71,3.71,0,0,1,5,0,3.86,3.86,0,0,1,0,5.12A3.4,3.4,0,0,1,193.75,299.61Zm0-1.08a2,2,0,0,0,1.56-.67,2.84,2.84,0,0,0,0-3.54,2,2,0,0,0-1.56-.67,2,2,0,0,0-1.53.67,2.87,2.87,0,0,0,0,3.54A2,2,0,0,0,193.73,298.53Z"/><path d="M201.18,299.61a3.23,3.23,0,0,1-1.85-.49,2,2,0,0,1-.9-1.39l1.13-.32a1.43,1.43,0,0,0,.55.91,1.73,1.73,0,0,0,1.06.32,1.66,1.66,0,0,0,.92-.24.8.8,0,0,0,.37-.75,1.33,1.33,0,0,0-.06-.3.56.56,0,0,0-.17-.24l-.23-.18a1.69,1.69,0,0,0-.33-.16l-.36-.12-.43-.13-.45-.13a5.6,5.6,0,0,1-.68-.25,3,3,0,0,1-.56-.33,1.26,1.26,0,0,1-.43-.54,1.73,1.73,0,0,1-.15-.75,1.64,1.64,0,0,1,.69-1.44,2.9,2.9,0,0,1,1.75-.49,3,3,0,0,1,1.67.44,1.92,1.92,0,0,1,.84,1.33l-1.06.26a1.3,1.3,0,0,0-.51-.83,1.62,1.62,0,0,0-.94-.27,1.6,1.6,0,0,0-.86.23.73.73,0,0,0-.36.68.69.69,0,0,0,.12.41.81.81,0,0,0,.35.3,3.85,3.85,0,0,0,.47.19l.59.16.14,0a6.26,6.26,0,0,1,.65.18,4.41,4.41,0,0,1,.58.25,2.24,2.24,0,0,1,.53.37,1.6,1.6,0,0,1,.33.53,1.91,1.91,0,0,1,.14.74,2,2,0,0,1-.14.76,1.65,1.65,0,0,1-.37.58,2.36,2.36,0,0,1-.57.38,3.09,3.09,0,0,1-.69.22A3.84,3.84,0,0,1,201.18,299.61Z"/><path d="M210.42,293.89a1.91,1.91,0,0,1,.84-.9,2.57,2.57,0,0,1,1.31-.35v1.21a2.27,2.27,0,0,0-1.58.49,2.06,2.06,0,0,0-.53,1.58v3.56h-1.31v-6.77h1.27Z"/><path d="M219.85,296l0,.35h-5.24a2.26,2.26,0,0,0,.63,1.65,2.06,2.06,0,0,0,1.48.57,2,2,0,0,0,1.08-.3,2.07,2.07,0,0,0,.74-.86l1.19.23a3,3,0,0,1-1.16,1.47,3.2,3.2,0,0,1-1.83.54,3.38,3.38,0,0,1-2.48-.94,3.52,3.52,0,0,1-.94-2.58,3.48,3.48,0,0,1,.95-2.57,3.29,3.29,0,0,1,2.42-.95,3.12,3.12,0,0,1,2.31.87A3.41,3.41,0,0,1,219.85,296Zm-3.17-2.39a2.09,2.09,0,0,0-1.35.44,2.14,2.14,0,0,0-.69,1.3h3.89A1.84,1.84,0,0,0,218,294,1.81,1.81,0,0,0,216.68,293.57Z"/><path d="M224.5,299.6a3.3,3.3,0,0,1-2.46-1,3.81,3.81,0,0,1,0-5.08,3.31,3.31,0,0,1,2.46-1,3.25,3.25,0,0,1,2,.61,3,3,0,0,1,1.14,1.68l-1.22.18a2,2,0,0,0-.74-1,2,2,0,0,0-1.19-.36,2,2,0,0,0-1.51.67,2.94,2.94,0,0,0,0,3.53,1.93,1.93,0,0,0,1.51.67,2,2,0,0,0,1.93-1.39l1.22.19a3,3,0,0,1-1.14,1.68A3.37,3.37,0,0,1,224.5,299.6Z"/><path d="M230,291.21a.82.82,0,0,1-.6-.25.82.82,0,0,1,0-1.2.85.85,0,1,1,.6,1.45Zm-.67,8.27v-6.77h1.32v6.77Z"/><path d="M236.64,292.57a3.11,3.11,0,0,1,1.59.43,3.07,3.07,0,0,1,1.15,1.24,3.86,3.86,0,0,1,.43,1.85,3.58,3.58,0,0,1-.91,2.56,3,3,0,0,1-2.26,1,2.7,2.7,0,0,1-1.41-.37,2.32,2.32,0,0,1-.94-1l0,1.23H233V289h1.31v4.93a2.42,2.42,0,0,1,.95-1A2.72,2.72,0,0,1,236.64,292.57Zm-1.81,5.24a2.05,2.05,0,0,0,3,0,2.74,2.74,0,0,0,0-3.47,2,2,0,0,0-1.52-.67,2,2,0,0,0-1.53.69,2.48,2.48,0,0,0-.62,1.71A2.43,2.43,0,0,0,234.83,297.81Z"/><path d="M242.29,291.21a.84.84,0,0,1-.61-.25.84.84,0,0,1,0-1.2.84.84,0,0,1,.61-.25.82.82,0,0,1,.6.25.86.86,0,0,1,.25.6.79.79,0,0,1-.26.6A.78.78,0,0,1,242.29,291.21Zm-.67,8.27v-6.77h1.32v6.77Z"/><path d="M246.56,293.89a2,2,0,0,1,.84-.9,2.6,2.6,0,0,1,1.31-.35v1.21a2.22,2.22,0,0,0-1.57.49,2,2,0,0,0-.54,1.58v3.56h-1.31v-6.77h1.27Z"/><path d="M251.87,296.73v-.84a1.82,1.82,0,0,1,.08-.6,1.35,1.35,0,0,1,.28-.45,2.18,2.18,0,0,1,.42-.33,4.47,4.47,0,0,1,.57-.32,1.64,1.64,0,0,0,.89-1.62,1.78,1.78,0,0,0-.48-1.31,1.6,1.6,0,0,0-1.22-.49,1.61,1.61,0,0,0-1.23.51,1.87,1.87,0,0,0-.48,1.31,2.73,2.73,0,0,0,.07.57l-1.16-.12a3.68,3.68,0,0,1-.05-.58,2.73,2.73,0,0,1,.79-2,2.87,2.87,0,0,1,4.92,2.1,2.69,2.69,0,0,1-.44,1.61,2.49,2.49,0,0,1-1.1.89,1.41,1.41,0,0,0-.57.37.86.86,0,0,0-.18.58v.73Zm.59,2.88a.83.83,0,0,1-.59-1.44.78.78,0,0,1,.59-.25.79.79,0,0,1,.59.25.83.83,0,0,1,.24.6.81.81,0,0,1-.24.59A.79.79,0,0,1,252.46,299.61Z"/></g></g><g id="_Cómo_medir_" data-name=" Cómo medir " class="cls-3"><g class="cls-3"><path d="M68.29,420.56v1.9a4.18,4.18,0,0,1-.43,2,4,4,0,0,1-1.11,1.34,12.22,12.22,0,0,1-1.89,1.12,3.8,3.8,0,0,0-2.18,3.69,3.41,3.41,0,0,0,3.64,3.73,3.6,3.6,0,0,0,2.66-1,3.5,3.5,0,0,0,1-2.61,6.85,6.85,0,0,0-.21-1.54l4.53.58a11.22,11.22,0,0,1,.09,1.31,7,7,0,0,1-2.21,5.37,8.15,8.15,0,0,1-5.79,2.07,8.38,8.38,0,0,1-5.89-2.12,7.34,7.34,0,0,1-2.3-5.67,8.33,8.33,0,0,1,.39-2.62,6,6,0,0,1,1-2,7,7,0,0,1,1.42-1.32,7.35,7.35,0,0,1,1.62-.85,2.78,2.78,0,0,0,1.16-.79,1.87,1.87,0,0,0,.37-1.22v-1.37Zm-4.14-7.35a2.77,2.77,0,0,1,2-.84,2.82,2.82,0,0,1,2,.84,2.89,2.89,0,0,1,0,4.09,2.81,2.81,0,0,1-2,.83,2.76,2.76,0,0,1-2-.83,2.92,2.92,0,0,1,0-4.09Z"/><path d="M90.37,431.14a14.23,14.23,0,0,1-5.18-.93,12.21,12.21,0,0,1-4.12-2.6,11.74,11.74,0,0,1-2.71-4.13,14.53,14.53,0,0,1-1-5.4,13.73,13.73,0,0,1,1.69-6.9,11.54,11.54,0,0,1,4.63-4.56A13.92,13.92,0,0,1,90.37,405a13.38,13.38,0,0,1,7.45,2.06,11.24,11.24,0,0,1,4.56,5.66l-4.93,1.79a6.94,6.94,0,0,0-2.72-3.43,7.78,7.78,0,0,0-4.36-1.23,7.44,7.44,0,0,0-5.55,2.22,8.09,8.09,0,0,0-2.18,6,8.21,8.21,0,0,0,2.18,6,7.47,7.47,0,0,0,5.55,2.22,7.72,7.72,0,0,0,4.35-1.24,6.93,6.93,0,0,0,2.73-3.44l4.93,1.8a11.34,11.34,0,0,1-4.56,5.67A13.46,13.46,0,0,1,90.37,431.14Z"/><path d="M114.45,431.14a11.33,11.33,0,0,1-5.11-1.11,8.22,8.22,0,0,1-3.51-3.25,9.68,9.68,0,0,1-1.27-5,8.84,8.84,0,0,1,2.74-6.86,11.47,11.47,0,0,1,14.32,0,10,10,0,0,1,0,13.74A10.15,10.15,0,0,1,114.45,431.14Zm0-4a4.66,4.66,0,0,0,3.58-1.48,6.27,6.27,0,0,0,0-7.8,4.63,4.63,0,0,0-3.58-1.48,4.45,4.45,0,0,0-3.47,1.48,6.29,6.29,0,0,0,0,7.79A4.46,4.46,0,0,0,114.4,427.12Zm-1.51-16.86,4.6-6.47,2.5,1.76-4,4.71Z"/><path d="M149.54,412.37a6.91,6.91,0,0,1,4.66,1.47,5.26,5.26,0,0,1,1.7,4.21v12.74h-5.06v-11.3a3,3,0,0,0-.81-2.29,2.86,2.86,0,0,0-2-.77,3.28,3.28,0,0,0-2.46,1,4.5,4.5,0,0,0-.95,3.19v10.19h-5.11V419.54a3.1,3.1,0,0,0-.81-2.33,2.89,2.89,0,0,0-2.09-.78,3.14,3.14,0,0,0-2.45,1,5,5,0,0,0-1,3.39v9.93h-5V412.72h5v2.13a6.13,6.13,0,0,1,5.24-2.48,7.75,7.75,0,0,1,3.4.69,4.67,4.67,0,0,1,2.14,2A6.37,6.37,0,0,1,149.54,412.37Z"/><path d="M169.24,431.14a11.33,11.33,0,0,1-5.11-1.11,8.22,8.22,0,0,1-3.51-3.25,9.68,9.68,0,0,1-1.27-5,8.84,8.84,0,0,1,2.74-6.86,11.47,11.47,0,0,1,14.32,0,10,10,0,0,1,0,13.74A10.15,10.15,0,0,1,169.24,431.14Zm-.05-4a4.66,4.66,0,0,0,3.58-1.48,6.27,6.27,0,0,0,0-7.8,4.63,4.63,0,0,0-3.58-1.48,4.46,4.46,0,0,0-3.47,1.48,6.29,6.29,0,0,0,0,7.79A4.47,4.47,0,0,0,169.19,427.12Z"/><path d="M213.68,412.37a6.91,6.91,0,0,1,4.66,1.47,5.22,5.22,0,0,1,1.7,4.21v12.74H215v-11.3a3,3,0,0,0-.81-2.29,2.86,2.86,0,0,0-2-.77,3.31,3.31,0,0,0-2.46,1,4.5,4.5,0,0,0-.95,3.19v10.19h-5.11V419.54a3.1,3.1,0,0,0-.81-2.33,2.89,2.89,0,0,0-2.09-.78,3.15,3.15,0,0,0-2.45,1,5,5,0,0,0-.94,3.39v9.93h-5V412.72h5v2.13a6.11,6.11,0,0,1,5.23-2.48,7.8,7.8,0,0,1,3.41.69,4.69,4.69,0,0,1,2.13,2A6.39,6.39,0,0,1,213.68,412.37Z"/><path d="M242,421.49l-.05,1.21H228.52a4.4,4.4,0,0,0,4.62,4.45,4.49,4.49,0,0,0,2.38-.62,3.81,3.81,0,0,0,1.52-1.82l4.64.68a7.91,7.91,0,0,1-3.16,4.24,9.39,9.39,0,0,1-5.35,1.51,9.78,9.78,0,0,1-7-2.49,9,9,0,0,1-2.61-6.89,9.15,9.15,0,0,1,2.62-6.9,9.48,9.48,0,0,1,6.88-2.53,9,9,0,0,1,6.48,2.31C241.13,416.17,242,418.46,242,421.49Zm-8.91-5.57a4,4,0,0,0-4.39,3.48H237a3.74,3.74,0,0,0-1.24-2.58A4,4,0,0,0,233.05,415.92Z"/><path d="M258.63,403.79h5.06v27h-4.8l-.12-2.35a5.17,5.17,0,0,1-2.3,2,7.65,7.65,0,0,1-3.38.73,8.65,8.65,0,0,1-3.37-.65,8.26,8.26,0,0,1-2.77-1.83,8.41,8.41,0,0,1-1.87-3,11,11,0,0,1-.69-4,10.37,10.37,0,0,1,1.19-5,8.17,8.17,0,0,1,3.16-3.27,8.69,8.69,0,0,1,4.35-1.11,7.91,7.91,0,0,1,3.28.66,5.12,5.12,0,0,1,2.26,1.87ZM254.25,427a4.52,4.52,0,0,0,3.42-1.44,5.93,5.93,0,0,0,0-7.57,4.52,4.52,0,0,0-3.41-1.45,4.57,4.57,0,0,0-3.44,1.43,6,6,0,0,0,0,7.61A4.56,4.56,0,0,0,254.25,427Z"/><path d="M271.51,410a2.81,2.81,0,0,1-2.07-.85,2.87,2.87,0,0,1,0-4.11,2.85,2.85,0,0,1,2.06-.86,2.79,2.79,0,0,1,2,.86,2.91,2.91,0,0,1-2,5Zm-2.58,20.78V412.72H274v18.07Z"/><path d="M284.12,415.59a5.88,5.88,0,0,1,2.37-2.18,7.27,7.27,0,0,1,3.53-.9V417a6.81,6.81,0,0,0-4.32,1.09c-.89.72-1.34,2-1.34,3.86v8.81h-5.1V412.72h4.86Z"/><path d="M297.65,423v-1.9a4.18,4.18,0,0,1,.43-2,3.88,3.88,0,0,1,1.12-1.34,12.06,12.06,0,0,1,1.88-1.12,3.79,3.79,0,0,0,2.18-3.69,3.39,3.39,0,0,0-3.64-3.73,3.6,3.6,0,0,0-2.65,1,3.5,3.5,0,0,0-1,2.61,7,7,0,0,0,.21,1.55l-4.53-.59a11.22,11.22,0,0,1-.09-1.31,7,7,0,0,1,2.22-5.36,8.07,8.07,0,0,1,5.78-2.08,8.38,8.38,0,0,1,5.89,2.12,7.34,7.34,0,0,1,2.3,5.67,8.33,8.33,0,0,1-.39,2.62,5.69,5.69,0,0,1-1.05,2,7,7,0,0,1-1.42,1.32,7.59,7.59,0,0,1-1.62.86,2.68,2.68,0,0,0-1.16.78,1.89,1.89,0,0,0-.37,1.22V423Zm4.14,7.35a2.76,2.76,0,0,1-2,.84,2.82,2.82,0,0,1-2.05-.84,2.89,2.89,0,0,1,0-4.09,2.81,2.81,0,0,1,2.05-.83,2.74,2.74,0,0,1,2,.83,2.9,2.9,0,0,1,0,4.09Z"/></g></g><g id="Indicadores_de_desempeño" data-name="Indicadores de desempeño" class="cls-3"><g class="cls-3"><path d="M97.69,453.87v-9.66h1.36v9.66Z"/><path d="M105,447a2.39,2.39,0,0,1,1.73.61,2.28,2.28,0,0,1,.64,1.73v4.56h-1.32v-4.26a1.54,1.54,0,0,0-.4-1.17,1.45,1.45,0,0,0-1-.38,1.57,1.57,0,0,0-1.18.46,1.84,1.84,0,0,0-.47,1.35v4H101.7v-6.76H103v.83a2.28,2.28,0,0,1,.85-.72A2.65,2.65,0,0,1,105,447Z"/><path d="M114.59,443.37h1.32v10.5h-1.27l0-1.23a2.37,2.37,0,0,1-1,1,2.76,2.76,0,0,1-1.4.37,3.22,3.22,0,0,1-1.23-.25,3.1,3.1,0,0,1-1-.7,3.31,3.31,0,0,1-.69-1.12,4.07,4.07,0,0,1-.25-1.46,3.87,3.87,0,0,1,.43-1.86,3.07,3.07,0,0,1,1.16-1.23,3,3,0,0,1,1.59-.43,2.72,2.72,0,0,1,1.39.36,2.34,2.34,0,0,1,.94,1Zm-2,9.53a2,2,0,0,0,1.53-.69,2.48,2.48,0,0,0,.61-1.72,2.44,2.44,0,0,0-.62-1.72,2,2,0,0,0-1.52-.68,2,2,0,0,0-1.53.66,2.75,2.75,0,0,0,0,3.48A2,2,0,0,0,112.54,452.9Z"/><path d="M118.93,445.61a.88.88,0,0,1-.61-.25.82.82,0,0,1-.25-.61.78.78,0,0,1,.25-.59.84.84,0,0,1,.61-.25.85.85,0,0,1,.85.84.83.83,0,0,1-.26.61A.79.79,0,0,1,118.93,445.61Zm-.67,8.26v-6.76h1.32v6.76Z"/><path d="M124.78,454a3.34,3.34,0,0,1-2.46-1,3.81,3.81,0,0,1,0-5.08,3.62,3.62,0,0,1,4.46-.37,3,3,0,0,1,1.14,1.68l-1.23.19a2,2,0,0,0-.73-1,2,2,0,0,0-1.19-.36,1.9,1.9,0,0,0-1.51.67,2.92,2.92,0,0,0,0,3.52,1.91,1.91,0,0,0,1.51.68,2,2,0,0,0,1.19-.36,2,2,0,0,0,.73-1l1.23.18a3,3,0,0,1-1.15,1.68A3.29,3.29,0,0,1,124.78,454Z"/><path d="M131.18,454a2.84,2.84,0,0,1-1-.18,1.62,1.62,0,0,1-.74-.61,1.81,1.81,0,0,1-.29-1.06,2,2,0,0,1,.18-.89,1.64,1.64,0,0,1,.56-.61,4,4,0,0,1,.8-.39,8.35,8.35,0,0,1,1-.24l1.06-.19c.41-.07.62-.28.62-.62a1.11,1.11,0,0,0-.41-.95,1.91,1.91,0,0,0-2.07,0,1.3,1.3,0,0,0-.48.94l-1.18-.24a2.12,2.12,0,0,1,.87-1.47A3.23,3.23,0,0,1,132,447a4.86,4.86,0,0,1,.8.07,3,3,0,0,1,.72.24,1.89,1.89,0,0,1,1,1.11,3,3,0,0,1,.14.94v2.74a1.06,1.06,0,0,0,.16.69.64.64,0,0,0,.52.18h.1v.92h-.63a1.17,1.17,0,0,1-1.32-.91h-.06a2.29,2.29,0,0,1-1,.79A3.1,3.1,0,0,1,131.18,454Zm.3-1a1.79,1.79,0,0,0,1.42-.63,2.45,2.45,0,0,0,.55-1.68l-1.77.36a2.22,2.22,0,0,0-1,.35.89.89,0,0,0,0,1.37A1.28,1.28,0,0,0,131.48,453Z"/><path d="M141.86,443.37h1.31v10.5H141.9l0-1.23a2.35,2.35,0,0,1-.94,1,2.8,2.8,0,0,1-1.41.37,3.08,3.08,0,0,1-2.24-.95,3.31,3.31,0,0,1-.69-1.12,4.07,4.07,0,0,1-.25-1.46,3.87,3.87,0,0,1,.43-1.86,3.07,3.07,0,0,1,2.75-1.66,2.72,2.72,0,0,1,1.39.36,2.36,2.36,0,0,1,1,1Zm-2.06,9.53a2,2,0,0,0,1.53-.69,2.73,2.73,0,0,0,0-3.44,2.08,2.08,0,0,0-3.06,0,2.75,2.75,0,0,0,0,3.48A2,2,0,0,0,139.8,452.9Z"/><path d="M148.42,454a3.31,3.31,0,1,1,2.49-1A3.39,3.39,0,0,1,148.42,454Zm0-1.08a2,2,0,0,0,1.56-.67,2.52,2.52,0,0,0,.61-1.77,2.5,2.5,0,0,0-.61-1.76,2,2,0,0,0-1.56-.67,2,2,0,0,0-1.54.67,2.54,2.54,0,0,0-.61,1.76,2.57,2.57,0,0,0,.61,1.77A2,2,0,0,0,148.41,452.92Z"/><path d="M155,448.28a1.94,1.94,0,0,1,.84-.89,2.55,2.55,0,0,1,1.31-.36v1.22a2.3,2.3,0,0,0-1.58.48,2,2,0,0,0-.53,1.58v3.56h-1.32v-6.76H155Z"/><path d="M164.38,450.36l0,.35h-5.24a2.29,2.29,0,0,0,.63,1.65,2,2,0,0,0,1.48.57,1.92,1.92,0,0,0,1.08-.31,2,2,0,0,0,.74-.86l1.19.23a3.06,3.06,0,0,1-1.16,1.48,3.61,3.61,0,0,1-4.31-.41,3.44,3.44,0,0,1-.94-2.57,3.5,3.5,0,0,1,.94-2.57,3.25,3.25,0,0,1,2.43-.95,3.08,3.08,0,0,1,2.3.87A3.42,3.42,0,0,1,164.38,450.36ZM161.21,448a2,2,0,0,0-1.35.44,2.06,2.06,0,0,0-.69,1.3h3.89a1.91,1.91,0,0,0-.58-1.3A1.87,1.87,0,0,0,161.21,448Z"/><path d="M168.35,454a3.33,3.33,0,0,1-1.85-.48,2,2,0,0,1-.9-1.4l1.13-.32a1.5,1.5,0,0,0,.55.92,1.75,1.75,0,0,0,1.06.31,1.78,1.78,0,0,0,.93-.23.8.8,0,0,0,.36-.75.94.94,0,0,0,0-.3.69.69,0,0,0-.18-.25l-.23-.18a1.3,1.3,0,0,0-.33-.15l-.36-.13-.43-.13a4.32,4.32,0,0,1-.44-.13,5.37,5.37,0,0,1-.69-.24,3.11,3.11,0,0,1-.56-.34,1.38,1.38,0,0,1-.43-.53,1.93,1.93,0,0,1-.14-.75,1.68,1.68,0,0,1,.68-1.45,3,3,0,0,1,1.75-.49,3,3,0,0,1,1.67.44,1.88,1.88,0,0,1,.84,1.33l-1.06.26a1.27,1.27,0,0,0-.51-.82,1.78,1.78,0,0,0-1.8-.05.75.75,0,0,0-.36.68.74.74,0,0,0,.12.42.78.78,0,0,0,.35.29,2.72,2.72,0,0,0,.47.19l.59.17.14,0,.65.18a3.56,3.56,0,0,1,.59.26,1.92,1.92,0,0,1,.52.37,1.6,1.6,0,0,1,.33.53,1.7,1.7,0,0,1,.14.73,1.89,1.89,0,0,1-.14.77,1.52,1.52,0,0,1-.37.57,2,2,0,0,1-.56.38,3.19,3.19,0,0,1-.7.23A4.75,4.75,0,0,1,168.35,454Z"/><path d="M181.29,443.37h1.31v10.5h-1.27l0-1.23a2.41,2.41,0,0,1-.94,1A2.8,2.8,0,0,1,179,454a3.08,3.08,0,0,1-2.24-.95A3.31,3.31,0,0,1,176,452a4.07,4.07,0,0,1-.25-1.46,3.87,3.87,0,0,1,.43-1.86A3.07,3.07,0,0,1,179,447a2.72,2.72,0,0,1,1.39.36,2.36,2.36,0,0,1,.95,1Zm-2.06,9.53a2,2,0,0,0,1.53-.69,2.73,2.73,0,0,0,0-3.44,2.08,2.08,0,0,0-3.06,0,2.75,2.75,0,0,0,0,3.48A2,2,0,0,0,179.23,452.9Z"/><path d="M191,450.36l0,.35h-5.24a2.29,2.29,0,0,0,.63,1.65,2,2,0,0,0,1.48.57,1.92,1.92,0,0,0,1.08-.31,2,2,0,0,0,.74-.86l1.19.23a3.06,3.06,0,0,1-1.16,1.48,3.61,3.61,0,0,1-4.31-.41,4,4,0,0,1,0-5.14,3.22,3.22,0,0,1,2.42-.95,3.12,3.12,0,0,1,2.31.87A3.45,3.45,0,0,1,191,450.36ZM187.78,448a2,2,0,0,0-1.35.44,2.06,2.06,0,0,0-.69,1.3h3.89a1.91,1.91,0,0,0-.58-1.3A1.87,1.87,0,0,0,187.78,448Z"/><path d="M201.34,443.37h1.31v10.5h-1.26l0-1.23a2.37,2.37,0,0,1-1,1,2.76,2.76,0,0,1-1.4.37,3.22,3.22,0,0,1-1.23-.25,3,3,0,0,1-1-.7,3.31,3.31,0,0,1-.69-1.12,4.07,4.07,0,0,1-.25-1.46,3.87,3.87,0,0,1,.43-1.86A3.07,3.07,0,0,1,199,447a2.74,2.74,0,0,1,1.39.36,2.34,2.34,0,0,1,.94,1Zm-2.05,9.53a2,2,0,0,0,1.53-.69,2.71,2.71,0,0,0,0-3.44,2,2,0,0,0-1.52-.68,2,2,0,0,0-1.53.66,2.75,2.75,0,0,0,0,3.48A2,2,0,0,0,199.29,452.9Z"/><path d="M211,450.36l0,.35h-5.25a2.38,2.38,0,0,0,.63,1.65,2.07,2.07,0,0,0,1.49.57,1.94,1.94,0,0,0,1.81-1.17l1.19.23a3,3,0,0,1-1.15,1.48,3.61,3.61,0,0,1-4.31-.41,4,4,0,0,1,0-5.14,3.25,3.25,0,0,1,2.43-.95,3.1,3.1,0,0,1,2.3.87A3.46,3.46,0,0,1,211,450.36ZM207.84,448a2,2,0,0,0-1.35.44,2.06,2.06,0,0,0-.69,1.3h3.89a2,2,0,0,0-.58-1.3A1.89,1.89,0,0,0,207.84,448Z"/><path d="M215,454a3.33,3.33,0,0,1-1.85-.48,2,2,0,0,1-.9-1.4l1.13-.32a1.45,1.45,0,0,0,.55.92A1.73,1.73,0,0,0,215,453a1.81,1.81,0,0,0,.93-.23.8.8,0,0,0,.36-.75,1.33,1.33,0,0,0-.06-.3.66.66,0,0,0-.17-.25l-.23-.18a1.3,1.3,0,0,0-.33-.15l-.36-.13-.43-.13-.45-.13a5.75,5.75,0,0,1-.68-.24,3.11,3.11,0,0,1-.56-.34,1.38,1.38,0,0,1-.43-.53,1.76,1.76,0,0,1-.14-.75,1.66,1.66,0,0,1,.68-1.45,3,3,0,0,1,1.75-.49,3,3,0,0,1,1.67.44,2,2,0,0,1,.84,1.33l-1.06.26a1.27,1.27,0,0,0-.51-.82,1.78,1.78,0,0,0-1.8-.05.75.75,0,0,0-.36.68.74.74,0,0,0,.12.42.78.78,0,0,0,.35.29,2.72,2.72,0,0,0,.47.19l.59.17.14,0,.65.18a3.5,3.5,0,0,1,.58.26,1.84,1.84,0,0,1,.53.37,1.6,1.6,0,0,1,.33.53,1.86,1.86,0,0,1,.14.73,2.07,2.07,0,0,1-.14.77,1.52,1.52,0,0,1-.37.57,2.21,2.21,0,0,1-.56.38,3.19,3.19,0,0,1-.7.23A4.75,4.75,0,0,1,215,454Z"/><path d="M225.32,450.36l0,.35h-5.24a2.29,2.29,0,0,0,.63,1.65,2.06,2.06,0,0,0,1.48.57,1.9,1.9,0,0,0,1.08-.31,2,2,0,0,0,.74-.86l1.19.23a3,3,0,0,1-1.16,1.48,3.25,3.25,0,0,1-1.83.53,3.32,3.32,0,0,1-2.47-.94,4,4,0,0,1,0-5.14,3.25,3.25,0,0,1,2.43-.95,3.11,3.11,0,0,1,2.3.87A3.46,3.46,0,0,1,225.32,450.36ZM222.14,448a2,2,0,0,0-1.34.44,2.06,2.06,0,0,0-.69,1.3H224a1.91,1.91,0,0,0-.59-1.3A1.85,1.85,0,0,0,222.14,448Z"/><path d="M234.22,447a2.24,2.24,0,0,1,1.6.57,2.12,2.12,0,0,1,.6,1.61v4.72h-1.31V449.5a1.44,1.44,0,0,0-.36-1.07,1.19,1.19,0,0,0-.9-.37,1.33,1.33,0,0,0-1,.42,1.82,1.82,0,0,0-.39,1.27v4.12h-1.33v-4.32a1.55,1.55,0,0,0-.37-1.11,1.23,1.23,0,0,0-.92-.38,1.33,1.33,0,0,0-1,.43,1.87,1.87,0,0,0-.4,1.31v4.07h-1.3v-6.76h1.3V448a2.09,2.09,0,0,1,1.88-1,2.36,2.36,0,0,1,1.17.28,1.81,1.81,0,0,1,.76.81,2.22,2.22,0,0,1,.83-.81A2.36,2.36,0,0,1,234.22,447Z"/><path d="M242.3,447a3,3,0,0,1,2.26,1,3.54,3.54,0,0,1,.91,2.55,4.36,4.36,0,0,1-.24,1.47,3.22,3.22,0,0,1-.69,1.12,2.89,2.89,0,0,1-1,.69,3.05,3.05,0,0,1-1.24.25,2.74,2.74,0,0,1-1.39-.36,2.46,2.46,0,0,1-.94-1v4.58h-1.31V447.11h1.26l0,1.23a2.32,2.32,0,0,1,.94-1A2.69,2.69,0,0,1,242.3,447ZM242,452.9a2,2,0,0,0,1.52-.66,2.8,2.8,0,0,0,0-3.49,2,2,0,0,0-1.52-.65,2,2,0,0,0-1.54.68,2.68,2.68,0,0,0,0,3.43A2,2,0,0,0,242,452.9Z"/><path d="M253.29,450.36l0,.35H248a2.38,2.38,0,0,0,.63,1.65,2.07,2.07,0,0,0,1.49.57,1.92,1.92,0,0,0,1.08-.31,2,2,0,0,0,.74-.86l1.18.23a3,3,0,0,1-1.15,1.48,3.61,3.61,0,0,1-4.31-.41,4,4,0,0,1,0-5.14,3.25,3.25,0,0,1,2.43-.95,3.1,3.1,0,0,1,2.3.87A3.46,3.46,0,0,1,253.29,450.36ZM250.12,448a2,2,0,0,0-1.35.44,2.06,2.06,0,0,0-.69,1.3H252a2,2,0,0,0-.58-1.3A1.87,1.87,0,0,0,250.12,448Z"/><path d="M258.41,447a2.41,2.41,0,0,1,1.74.61,2.32,2.32,0,0,1,.64,1.73v4.56h-1.32v-4.26a1.58,1.58,0,0,0-.4-1.17,1.45,1.45,0,0,0-1-.38,1.57,1.57,0,0,0-1.18.46,1.84,1.84,0,0,0-.47,1.35v4h-1.31v-6.76h1.31v.83a2.2,2.2,0,0,1,.85-.72A2.64,2.64,0,0,1,258.41,447ZM257.09,445a.48.48,0,0,0-.43.25,1.29,1.29,0,0,0-.15.66h-.71a1.81,1.81,0,0,1,.34-1.15,1.11,1.11,0,0,1,.92-.45,1.27,1.27,0,0,1,1.13.67.6.6,0,0,0,.53.33.48.48,0,0,0,.42-.25,1.23,1.23,0,0,0,.15-.65H260a1.8,1.8,0,0,1-.34,1.14,1.08,1.08,0,0,1-.92.45,1.28,1.28,0,0,1-1.13-.66A.63.63,0,0,0,257.09,445Z"/><path d="M265.91,454a3.31,3.31,0,1,1,2.49-1A3.39,3.39,0,0,1,265.91,454Zm0-1.08a2,2,0,0,0,1.56-.67,2.52,2.52,0,0,0,.61-1.77,2.5,2.5,0,0,0-.61-1.76,2,2,0,0,0-1.56-.67,2,2,0,0,0-1.54.67,2.54,2.54,0,0,0-.61,1.76,2.57,2.57,0,0,0,.61,1.77A2,2,0,0,0,265.9,452.92Z"/></g></g><g id="_Qué-2" data-name=" Qué-2" class="cls-3"><g class="cls-3"><path d="M543.9,79.18v1.58a3.51,3.51,0,0,1-.36,1.64,3.3,3.3,0,0,1-.93,1.12,9.69,9.69,0,0,1-1.57.93,3.16,3.16,0,0,0-1.81,3.08,2.82,2.82,0,0,0,3,3.1,3,3,0,0,0,2.21-.83,2.9,2.9,0,0,0,.84-2.17,5.66,5.66,0,0,0-.18-1.29l3.78.48a9.39,9.39,0,0,1,.07,1.1,5.84,5.84,0,0,1-1.84,4.47,6.78,6.78,0,0,1-4.82,1.73,7,7,0,0,1-4.91-1.77,6.11,6.11,0,0,1-1.92-4.72,7.08,7.08,0,0,1,.32-2.18,5,5,0,0,1,.88-1.65A5.86,5.86,0,0,1,539.23,82a2.25,2.25,0,0,0,1-.65,1.57,1.57,0,0,0,.31-1V79.18Zm-3.45-6.13a2.3,2.3,0,0,1,1.69-.7,2.4,2.4,0,0,1,1.71,4.11,2.35,2.35,0,0,1-1.71.69,2.32,2.32,0,0,1-1.68-.69,2.29,2.29,0,0,1-.7-1.71A2.35,2.35,0,0,1,540.45,73.05Z"/><path d="M573.87,88.58,570.21,90l-2.71-3a12.65,12.65,0,0,1-10.72-.25,9.77,9.77,0,0,1-3.91-3.82,12.26,12.26,0,0,1,0-11.49,9.79,9.79,0,0,1,3.91-3.8,12.65,12.65,0,0,1,11.25,0,9.7,9.7,0,0,1,3.9,3.8,11.36,11.36,0,0,1,1.43,5.75,10.66,10.66,0,0,1-2.81,7.63Zm-18-11.47a7.09,7.09,0,0,0,1.85,5.18,6.89,6.89,0,0,0,9.46,0A7.09,7.09,0,0,0,569,77.11a6.7,6.7,0,0,0-1.86-5,6.95,6.95,0,0,0-9.44,0A6.7,6.7,0,0,0,555.82,77.11Z"/><path d="M587,72.64h4.22V87.7h-4l-.1-1.82A5.75,5.75,0,0,1,582.37,88a5.87,5.87,0,0,1-4.16-1.35,5,5,0,0,1-1.45-3.86V72.64H581v9.23a2.59,2.59,0,0,0,.76,2.07,2.84,2.84,0,0,0,2,.66,3.41,3.41,0,0,0,2.4-.86A3.68,3.68,0,0,0,587,81Z"/><path d="M609.79,80l0,1H598.58a4,4,0,0,0,1.2,2.76,3.89,3.89,0,0,0,2.66,1,3.66,3.66,0,0,0,2-.52,3.25,3.25,0,0,0,1.27-1.52l3.87.57a6.56,6.56,0,0,1-2.64,3.53A7.85,7.85,0,0,1,602.47,88a8.15,8.15,0,0,1-5.87-2.07,7.57,7.57,0,0,1-2.18-5.75,7.6,7.6,0,0,1,2.19-5.75,7.89,7.89,0,0,1,5.72-2.1A6.89,6.89,0,0,1,609.79,80Zm-7.43-4.64a3.33,3.33,0,0,0-3.66,2.9h6.91a3.09,3.09,0,0,0-1-2.15A3.27,3.27,0,0,0,602.36,75.31Zm4.72-8.7-3.33,3.92h-2.59L605,65.14Z"/></g></g><g id="le_entregamos_al_cliente_" data-name="le entregamos al cliente " class="cls-3"><g class="cls-3"><path d="M494.23,110.78v-10.5h1.32v10.5Z"/><path d="M503.91,107.27l0,.35h-5.25a2.36,2.36,0,0,0,.63,1.65,2.07,2.07,0,0,0,1.49.57,1.92,1.92,0,0,0,1.08-.31,2,2,0,0,0,.73-.86l1.19.23a3,3,0,0,1-1.16,1.48,3.17,3.17,0,0,1-1.83.53,3.32,3.32,0,0,1-2.47-.94,4,4,0,0,1,0-5.14,3.29,3.29,0,0,1,2.43-1,3.1,3.1,0,0,1,2.3.87A3.46,3.46,0,0,1,503.91,107.27Zm-3.18-2.39a2,2,0,0,0-1.34.44,2.06,2.06,0,0,0-.69,1.3h3.89a2,2,0,0,0-.58-1.3A1.89,1.89,0,0,0,500.73,104.88Z"/><path d="M515.34,107.27l0,.35h-5.25a2.36,2.36,0,0,0,.63,1.65,2.07,2.07,0,0,0,1.49.57,1.92,1.92,0,0,0,1.08-.31,2,2,0,0,0,.73-.86l1.19.23a3,3,0,0,1-1.16,1.48,3.17,3.17,0,0,1-1.83.53,3.32,3.32,0,0,1-2.47-.94,4,4,0,0,1,0-5.14,3.29,3.29,0,0,1,2.43-1,3.1,3.1,0,0,1,2.3.87A3.46,3.46,0,0,1,515.34,107.27Zm-3.18-2.39a2,2,0,0,0-1.34.44,2.06,2.06,0,0,0-.69,1.3H514a2,2,0,0,0-.58-1.3A1.89,1.89,0,0,0,512.16,104.88Z"/><path d="M520.46,103.88a2.41,2.41,0,0,1,1.74.61,2.32,2.32,0,0,1,.64,1.73v4.56h-1.32v-4.26a1.58,1.58,0,0,0-.4-1.17,1.45,1.45,0,0,0-1-.38,1.64,1.64,0,0,0-1.19.46,1.85,1.85,0,0,0-.46,1.36v4h-1.31V104h1.31v.83a2.2,2.2,0,0,1,.85-.72A2.64,2.64,0,0,1,520.46,103.88Z"/><path d="M527.28,110.78a1.81,1.81,0,0,1-1.35-.49,1.89,1.89,0,0,1-.5-1.39v-3.85h-1.38v-1h.5a1,1,0,0,0,.76-.25,1.16,1.16,0,0,0,.23-.83v-1.17h1.21V104h1.53v1h-1.53v3.71a1,1,0,0,0,.25.73.86.86,0,0,0,.66.26h.62v1Z"/><path d="M531.23,105.19a1.94,1.94,0,0,1,.84-.89,2.58,2.58,0,0,1,1.31-.36v1.22a2.27,2.27,0,0,0-1.57.48,2,2,0,0,0-.54,1.58v3.56H530V104h1.27Z"/><path d="M540.66,107.27l0,.35H535.4a2.28,2.28,0,0,0,.63,1.65,2.06,2.06,0,0,0,1.48.57,1.92,1.92,0,0,0,1.08-.31,2,2,0,0,0,.74-.86l1.19.23a3,3,0,0,1-1.16,1.48,3.19,3.19,0,0,1-1.83.53,3.32,3.32,0,0,1-2.47-.94,4,4,0,0,1,0-5.14,3.29,3.29,0,0,1,2.42-1,3.12,3.12,0,0,1,2.31.87A3.41,3.41,0,0,1,540.66,107.27Zm-3.17-2.39a2,2,0,0,0-1.35.44,2.1,2.1,0,0,0-.68,1.3h3.88a1.74,1.74,0,0,0-1.85-1.74Z"/><path d="M547.31,104h1.27v6.39a3.67,3.67,0,0,1-.89,2.67,3.71,3.71,0,0,1-5.78-1.16l1.09-.52a2.16,2.16,0,0,0,2.19,1.52,1.88,1.88,0,0,0,1.55-.64,2.73,2.73,0,0,0,.53-1.79v-1.18a2.34,2.34,0,0,1-.95.92,2.73,2.73,0,0,1-1.38.36,3,3,0,0,1-1.19-.25,3,3,0,0,1-1.65-1.76,3.78,3.78,0,0,1-.25-1.36,3.31,3.31,0,0,1,.91-2.4,2.93,2.93,0,0,1,2.2-.94,2.74,2.74,0,0,1,1.39.36,2.31,2.31,0,0,1,.94,1Zm-2.07,5.46a2,2,0,0,0,1.51-.67,2.35,2.35,0,0,0,0-3.18,2.07,2.07,0,0,0-3,0,2.29,2.29,0,0,0-.61,1.61,2.25,2.25,0,0,0,.62,1.61A2,2,0,0,0,545.24,109.48Z"/><path d="M552.5,110.91a2.78,2.78,0,0,1-1-.18,1.65,1.65,0,0,1-.75-.61,1.89,1.89,0,0,1-.29-1.06,1.91,1.91,0,0,1,.19-.89,1.56,1.56,0,0,1,.56-.61,4,4,0,0,1,.8-.39,8.61,8.61,0,0,1,1-.24l1.07-.19c.41-.07.61-.28.61-.62a1.09,1.09,0,0,0-.41-1,1.67,1.67,0,0,0-1-.31,1.65,1.65,0,0,0-1,.31,1.25,1.25,0,0,0-.48.93l-1.19-.24a2.12,2.12,0,0,1,.87-1.47,3.29,3.29,0,0,1,1.9-.5,5,5,0,0,1,.8.07,3,3,0,0,1,.71.24,1.9,1.9,0,0,1,.59.44,2,2,0,0,1,.39.67,2.77,2.77,0,0,1,.15.94V109a1.13,1.13,0,0,0,.15.69.68.68,0,0,0,.53.18h.1v.92h-.64c-.74,0-1.18-.3-1.31-.9h-.06a2.37,2.37,0,0,1-1,.78A3.07,3.07,0,0,1,552.5,110.91Zm.31-1a1.8,1.8,0,0,0,1.42-.63,2.43,2.43,0,0,0,.55-1.68l-1.77.36a2.27,2.27,0,0,0-1,.35.82.82,0,0,0-.32.69.78.78,0,0,0,.31.68A1.28,1.28,0,0,0,552.81,109.87Z"/><path d="M565.47,103.88a2.25,2.25,0,0,1,1.6.57,2.12,2.12,0,0,1,.6,1.61v4.72h-1.31v-4.37a1.46,1.46,0,0,0-.36-1.07,1.19,1.19,0,0,0-.9-.37,1.33,1.33,0,0,0-1,.42,1.82,1.82,0,0,0-.39,1.27v4.12h-1.34v-4.32a1.54,1.54,0,0,0-.36-1.11,1.23,1.23,0,0,0-.92-.38,1.35,1.35,0,0,0-1,.43,1.92,1.92,0,0,0-.39,1.31v4.07h-1.3V104h1.3v.86a2.07,2.07,0,0,1,1.87-1,2.37,2.37,0,0,1,1.18.28,1.81,1.81,0,0,1,.76.81,2.15,2.15,0,0,1,.83-.81A2.36,2.36,0,0,1,565.47,103.88Z"/><path d="M572.81,110.91a3.31,3.31,0,1,1,2.49-1A3.43,3.43,0,0,1,572.81,110.91Zm0-1.08a2,2,0,0,0,1.56-.67,2.52,2.52,0,0,0,.61-1.77,2.5,2.5,0,0,0-.61-1.76,2,2,0,0,0-1.56-.67,2,2,0,0,0-1.54.67,2.54,2.54,0,0,0-.61,1.76,2.57,2.57,0,0,0,.61,1.77A2,2,0,0,0,572.8,109.83Z"/><path d="M580.24,110.91a3.33,3.33,0,0,1-1.85-.48,2,2,0,0,1-.89-1.4l1.12-.32a1.54,1.54,0,0,0,.55.92,2,2,0,0,0,2,.08.8.8,0,0,0,.36-.75.94.94,0,0,0,0-.3.56.56,0,0,0-.17-.24,1.33,1.33,0,0,0-.24-.19,1.38,1.38,0,0,0-.32-.15l-.36-.13-.43-.13a3.93,3.93,0,0,1-.45-.13,6.73,6.73,0,0,1-.69-.24,3.49,3.49,0,0,1-.56-.34,1.38,1.38,0,0,1-.43-.53,1.89,1.89,0,0,1-.14-.75,1.68,1.68,0,0,1,.68-1.45,3.37,3.37,0,0,1,3.43,0,1.86,1.86,0,0,1,.83,1.32l-1.06.26a1.2,1.2,0,0,0-.51-.82,1.59,1.59,0,0,0-.93-.27,1.57,1.57,0,0,0-.86.22.75.75,0,0,0-.36.68.82.82,0,0,0,.11.42.84.84,0,0,0,.35.29,2.32,2.32,0,0,0,.47.19l.59.17.14,0,.66.18a5.32,5.32,0,0,1,.58.26,1.78,1.78,0,0,1,.52.37,1.62,1.62,0,0,1,.34.53,1.86,1.86,0,0,1,.13.73,2.07,2.07,0,0,1-.13.77,1.54,1.54,0,0,1-.38.57,1.91,1.91,0,0,1-.56.38,2.8,2.8,0,0,1-.69.23A5,5,0,0,1,580.24,110.91Z"/><path d="M589.79,110.91a2.84,2.84,0,0,1-1-.18,1.62,1.62,0,0,1-.74-.61,1.81,1.81,0,0,1-.29-1.06,2,2,0,0,1,.18-.89,1.64,1.64,0,0,1,.56-.61,4,4,0,0,1,.8-.39,8.35,8.35,0,0,1,1-.24l1.06-.19c.41-.07.62-.28.62-.62a1.11,1.11,0,0,0-.41-1,1.72,1.72,0,0,0-1-.31,1.67,1.67,0,0,0-1,.31,1.28,1.28,0,0,0-.48.93l-1.19-.24a2.13,2.13,0,0,1,.88-1.47,3.23,3.23,0,0,1,1.89-.5,4.86,4.86,0,0,1,.8.07,3,3,0,0,1,.72.24,2.17,2.17,0,0,1,.59.44,2,2,0,0,1,.39.67,3,3,0,0,1,.14.94V109a1.06,1.06,0,0,0,.16.69.64.64,0,0,0,.52.18h.1v.92h-.63c-.75,0-1.18-.3-1.32-.9H592a2.31,2.31,0,0,1-1,.78A3.05,3.05,0,0,1,589.79,110.91Zm.3-1a1.79,1.79,0,0,0,1.42-.63,2.43,2.43,0,0,0,.55-1.68l-1.77.36a2.32,2.32,0,0,0-1,.35.82.82,0,0,0-.32.69.81.81,0,0,0,.31.68A1.28,1.28,0,0,0,590.09,109.87Z"/><path d="M595.64,110.78v-10.5H597v10.5Z"/><path d="M605.8,110.91a3.31,3.31,0,0,1-2.46-1,3.81,3.81,0,0,1,0-5.08,3.3,3.3,0,0,1,2.46-1,3.36,3.36,0,0,1,2,.6,3,3,0,0,1,1.13,1.68l-1.22.19a1.93,1.93,0,0,0-1.93-1.39,1.89,1.89,0,0,0-1.5.67,2.88,2.88,0,0,0,0,3.52,1.9,1.9,0,0,0,1.5.68,1.93,1.93,0,0,0,1.93-1.39l1.22.18a3,3,0,0,1-1.14,1.68A3.29,3.29,0,0,1,605.8,110.91Z"/><path d="M610.62,110.78v-10.5h1.32v10.5Z"/><path d="M615,102.52a.82.82,0,0,1-.6-.25.83.83,0,0,1-.26-.6.79.79,0,0,1,.26-.6.82.82,0,0,1,.6-.25.8.8,0,0,1,.6.25.79.79,0,0,1,.25.6.85.85,0,0,1-.85.85Zm-.67,8.26V104h1.32v6.76Z"/><path d="M624,107.27l0,.35H618.7a2.36,2.36,0,0,0,.63,1.65,2.06,2.06,0,0,0,1.48.57,1.88,1.88,0,0,0,1.08-.31,2,2,0,0,0,.74-.86l1.19.23a3,3,0,0,1-1.16,1.48,3.17,3.17,0,0,1-1.83.53,3.32,3.32,0,0,1-2.47-.94,4,4,0,0,1,0-5.14,3.29,3.29,0,0,1,2.43-1,3.11,3.11,0,0,1,2.3.87A3.46,3.46,0,0,1,624,107.27Zm-3.17-2.39a2,2,0,0,0-1.35.44,2.06,2.06,0,0,0-.69,1.3h3.89a2,2,0,0,0-.58-1.3A1.89,1.89,0,0,0,620.8,104.88Z"/><path d="M629.09,103.88a2.41,2.41,0,0,1,1.74.61,2.32,2.32,0,0,1,.64,1.73v4.56h-1.32v-4.26a1.58,1.58,0,0,0-.4-1.17,1.45,1.45,0,0,0-1-.38,1.6,1.6,0,0,0-1.18.46,1.81,1.81,0,0,0-.47,1.36v4h-1.31V104h1.31v.83a2.2,2.2,0,0,1,.85-.72A2.64,2.64,0,0,1,629.09,103.88Z"/><path d="M635.91,110.78a1.79,1.79,0,0,1-1.35-.49,1.89,1.89,0,0,1-.5-1.39v-3.85h-1.38v-1h.5a1,1,0,0,0,.76-.25,1.16,1.16,0,0,0,.23-.83v-1.17h1.21V104h1.53v1h-1.53v3.71a1,1,0,0,0,.25.73.86.86,0,0,0,.66.26h.62v1Z"/><path d="M644.52,107.27l0,.35h-5.24a2.28,2.28,0,0,0,.63,1.65,2,2,0,0,0,1.48.57,1.92,1.92,0,0,0,1.08-.31,2,2,0,0,0,.74-.86l1.19.23a3,3,0,0,1-1.16,1.48,3.22,3.22,0,0,1-1.83.53,3.34,3.34,0,0,1-2.48-.94,4,4,0,0,1,0-5.14,3.27,3.27,0,0,1,2.42-1,3.12,3.12,0,0,1,2.31.87A3.41,3.41,0,0,1,644.52,107.27Zm-3.17-2.39a2,2,0,0,0-1.35.44,2.06,2.06,0,0,0-.69,1.3h3.89a1.91,1.91,0,0,0-.58-1.3A1.85,1.85,0,0,0,641.35,104.88Z"/><path d="M648.1,108v-.84a1.8,1.8,0,0,1,.09-.6,1.18,1.18,0,0,1,.28-.45,2.55,2.55,0,0,1,.41-.34c.15-.09.34-.2.58-.32a1.62,1.62,0,0,0,.89-1.62,1.81,1.81,0,0,0-.48-1.31,1.63,1.63,0,0,0-1.23-.48,1.61,1.61,0,0,0-1.22.51,1.86,1.86,0,0,0-.48,1.31,3.45,3.45,0,0,0,.06.57l-1.15-.13a3.45,3.45,0,0,1-.05-.57,2.69,2.69,0,0,1,.79-2,2.79,2.79,0,0,1,2-.78,2.87,2.87,0,0,1,2.07.79,2.78,2.78,0,0,1,.81,2.08,2.75,2.75,0,0,1-.44,1.62,2.44,2.44,0,0,1-1.11.88,1.56,1.56,0,0,0-.56.37.89.89,0,0,0-.18.58V108Zm.6,2.88a.82.82,0,0,1-.6-.25.8.8,0,0,1-.25-.6.85.85,0,0,1,.85-.84.79.79,0,0,1,.59.25.81.81,0,0,1,.24.59.83.83,0,0,1-.24.6A.79.79,0,0,1,648.7,110.92Z"/></g></g><g id="Salidas:" class="cls-3"><g class="cls-3"><path d="M526.29,276.69a10.21,10.21,0,0,1-5.87-1.62,6.53,6.53,0,0,1-2.86-4.53l4.54-1a3.89,3.89,0,0,0,1.4,2.67,4.66,4.66,0,0,0,3,.93,3.83,3.83,0,0,0,2.31-.65,2.2,2.2,0,0,0,.88-1.93,2.09,2.09,0,0,0-.74-1.57,4.93,4.93,0,0,0-1.49-1c-.49-.19-1.29-.45-2.38-.78l-.32-.1-1.35-.44c-.34-.12-.77-.28-1.27-.49a8.72,8.72,0,0,1-1.23-.62,8.37,8.37,0,0,1-1-.76,4.2,4.2,0,0,1-.85-1,5.74,5.74,0,0,1-.51-1.22,5.25,5.25,0,0,1-.2-1.51,5.71,5.71,0,0,1,1-3.33,6,6,0,0,1,2.67-2.12,9.6,9.6,0,0,1,3.82-.71,12.42,12.42,0,0,1,2.76.3,9.87,9.87,0,0,1,2.47.95,6,6,0,0,1,2,1.74,6.65,6.65,0,0,1,1.12,2.57l-4.25,1.06a3.44,3.44,0,0,0-3.81-3,4.18,4.18,0,0,0-2.36.62,2.09,2.09,0,0,0-.92,1.86c0,.77.51,1.4,1.54,1.87a21.9,21.9,0,0,0,2.94,1l1.41.43c.36.12.81.29,1.36.52a8.71,8.71,0,0,1,1.33.65,10.23,10.23,0,0,1,1.12.81,4.37,4.37,0,0,1,.94,1.06,5.87,5.87,0,0,1,.58,1.31,5.35,5.35,0,0,1,.23,1.63,6.48,6.48,0,0,1-.42,2.39,5.1,5.1,0,0,1-1.17,1.8,6.64,6.64,0,0,1-1.75,1.24,8.66,8.66,0,0,1-2.15.73A12.5,12.5,0,0,1,526.29,276.69Z"/><path d="M550.05,272.31a14.14,14.14,0,0,0,.37,3.67v.42h-3.94l-.34-1.65A4.84,4.84,0,0,1,544,276.2a7.58,7.58,0,0,1-2.72.49,7.86,7.86,0,0,1-1.41-.13,4.74,4.74,0,0,1-1.26-.45,3.78,3.78,0,0,1-1-.78,3.44,3.44,0,0,1-.71-1.2,4.89,4.89,0,0,1-.26-1.63,4.39,4.39,0,0,1,.28-1.63,3.72,3.72,0,0,1,.73-1.23,4.35,4.35,0,0,1,1.19-.89,8.86,8.86,0,0,1,1.49-.65,18.39,18.39,0,0,1,1.79-.46l2.47-.56a2.81,2.81,0,0,0,1.13-.48.93.93,0,0,0,.32-.75,1.54,1.54,0,0,0-.73-1.45,3.53,3.53,0,0,0-1.8-.44c-1.73,0-2.71.77-2.94,2.3l-3.74-.68a5.06,5.06,0,0,1,2.18-3.43,8.68,8.68,0,0,1,4.74-1.11c4.21,0,6.32,1.82,6.32,5.44Zm-7.42,1.52a3.37,3.37,0,0,0,2.6-1.09,4.57,4.57,0,0,0,1-3.23l-3.57,1a4.23,4.23,0,0,0-1.5.62,1.24,1.24,0,0,0-.52,1.08,1.36,1.36,0,0,0,.56,1.19A2.28,2.28,0,0,0,542.63,273.83Z"/><path d="M554.15,276.4V253.9h4.27v22.5Z"/><path d="M564.94,259.08a2.38,2.38,0,0,1-1.73-.71,2.33,2.33,0,0,1-.72-1.72,2.29,2.29,0,0,1,.73-1.71,2.42,2.42,0,1,1,1.72,4.14Zm-2.16,17.32V261.34H567V276.4Z"/><path d="M582.07,253.9h4.22v22.5h-4l-.1-2a4.32,4.32,0,0,1-1.91,1.71,6.48,6.48,0,0,1-2.82.61,7.15,7.15,0,0,1-2.81-.55,6.77,6.77,0,0,1-3.87-4,9.16,9.16,0,0,1-.57-3.29,8.47,8.47,0,0,1,1-4.2,6.73,6.73,0,0,1,2.63-2.73,7.15,7.15,0,0,1,3.62-.93,6.65,6.65,0,0,1,2.73.55,4.23,4.23,0,0,1,1.88,1.56Zm-3.64,19.35a3.74,3.74,0,0,0,2.85-1.21,4.94,4.94,0,0,0,0-6.3,3.74,3.74,0,0,0-2.84-1.21,3.81,3.81,0,0,0-2.87,1.19,5,5,0,0,0,0,6.34A3.81,3.81,0,0,0,578.43,273.25Z"/><path d="M603,272.31a14.22,14.22,0,0,0,.36,3.67v.42h-3.94l-.33-1.65A4.84,4.84,0,0,1,597,276.2a7.63,7.63,0,0,1-2.73.49,7.74,7.74,0,0,1-1.4-.13,4.81,4.81,0,0,1-1.27-.45,3.78,3.78,0,0,1-1.05-.78,3.43,3.43,0,0,1-.7-1.2,5,5,0,0,1,0-3.26,3.74,3.74,0,0,1,.74-1.23,4.29,4.29,0,0,1,1.18-.89,9,9,0,0,1,1.5-.65,17.42,17.42,0,0,1,1.78-.46l2.48-.56a2.75,2.75,0,0,0,1.12-.48.94.94,0,0,0,.33-.75,1.55,1.55,0,0,0-.74-1.45,3.48,3.48,0,0,0-1.8-.44c-1.72,0-2.71.77-2.94,2.3l-3.73-.68a5.06,5.06,0,0,1,2.18-3.43,8.64,8.64,0,0,1,4.73-1.11c4.22,0,6.33,1.82,6.33,5.44Zm-7.43,1.52a3.4,3.4,0,0,0,2.61-1.09,4.61,4.61,0,0,0,1-3.23l-3.58,1a4.23,4.23,0,0,0-1.5.62,1.27,1.27,0,0,0-.52,1.08,1.39,1.39,0,0,0,.56,1.19A2.28,2.28,0,0,0,595.58,273.83Z"/><path d="M612.41,276.69a8.32,8.32,0,0,1-4.39-1.06,4.47,4.47,0,0,1-2.16-3.13l3.53-1a2.83,2.83,0,0,0,3,2.24,3.11,3.11,0,0,0,1.54-.34,1.2,1.2,0,0,0,.6-1.17,1.19,1.19,0,0,0-.25-.77,1.9,1.9,0,0,0-.77-.56,9.22,9.22,0,0,0-1-.39c-.34-.11-.79-.24-1.34-.39s-1-.3-1.4-.43a10.43,10.43,0,0,1-1.32-.57,5.93,5.93,0,0,1-1.1-.77,3.1,3.1,0,0,1-.82-1.18,4.28,4.28,0,0,1-.29-1.61,3.84,3.84,0,0,1,1.64-3.37,7.24,7.24,0,0,1,4.27-1.15,7.54,7.54,0,0,1,3.94,1,4.37,4.37,0,0,1,2,3l-3.27.73a2.55,2.55,0,0,0-2.68-1.9,3,3,0,0,0-1.48.33,1.09,1.09,0,0,0-.58,1,1.25,1.25,0,0,0,.08.45,1,1,0,0,0,.31.37,4.46,4.46,0,0,0,.43.28,2.63,2.63,0,0,0,.6.24c.26.08.48.15.66.19l.77.2.78.2c.54.15,1,.3,1.41.44a8,8,0,0,1,1.3.62,4.78,4.78,0,0,1,1.14.88,4.08,4.08,0,0,1,.73,1.25,4.89,4.89,0,0,1-.21,3.86,3.83,3.83,0,0,1-1.38,1.47,6.66,6.66,0,0,1-2,.79A10.13,10.13,0,0,1,612.41,276.69Z"/><path d="M624.1,267.09a2.32,2.32,0,0,1-1.69-.71,2.37,2.37,0,0,1-.71-1.72,2.4,2.4,0,0,1,4.11-1.69,2.29,2.29,0,0,1,.72,1.69,2.44,2.44,0,0,1-2.43,2.43Zm0,9.6a2.42,2.42,0,0,1-2.4-2.4,2.37,2.37,0,0,1,.71-1.72,2.37,2.37,0,0,1,3.4,0,2.34,2.34,0,0,1,.72,1.72,2.31,2.31,0,0,1-.72,1.69A2.33,2.33,0,0,1,624.1,276.69Z"/></g></g><g id="_qué_debemos_enviar_" data-name=" qué debemos enviar " class="cls-3"><g class="cls-3"><path d="M505.08,295.46v.84a1.7,1.7,0,0,1-.09.59,1.3,1.3,0,0,1-.28.46,2.47,2.47,0,0,1-.41.33,5.58,5.58,0,0,1-.58.32,1.64,1.64,0,0,0-.89,1.62,1.78,1.78,0,0,0,.48,1.31,1.63,1.63,0,0,0,1.23.49,1.58,1.58,0,0,0,1.22-.52,1.84,1.84,0,0,0,.48-1.31,3.25,3.25,0,0,0-.06-.56l1.15.12a3.66,3.66,0,0,1,.05.57,2.69,2.69,0,0,1-.79,2,2.79,2.79,0,0,1-2,.78,2.83,2.83,0,0,1-2.07-.79,3.13,3.13,0,0,1-.37-3.7,2.51,2.51,0,0,1,1.11-.88,1.44,1.44,0,0,0,.56-.37.86.86,0,0,0,.18-.58v-.73Zm-.6-2.89a.86.86,0,0,1,.6.25.82.82,0,0,1,.25.6.86.86,0,0,1-.25.6.82.82,0,0,1-.6.25.79.79,0,0,1-.59-.25.87.87,0,0,1,0-1.2A.83.83,0,0,1,504.48,292.57Z"/><path d="M514.32,292.71h1.26v10.16h-1.32v-4.56a2.41,2.41,0,0,1-.94,1,2.76,2.76,0,0,1-1.37.35,3.08,3.08,0,0,1-2.94-2.06,4.27,4.27,0,0,1-.25-1.47,3.58,3.58,0,0,1,.92-2.55,3,3,0,0,1,2.27-1,2.75,2.75,0,0,1,1.39.37,2.3,2.3,0,0,1,.94,1Zm-2.11,5.79a2,2,0,0,0,1.54-.68,2.5,2.5,0,0,0,.62-1.73,2.4,2.4,0,0,0-.63-1.7,2.06,2.06,0,0,0-3.05,0,2.75,2.75,0,0,0,0,3.48A2,2,0,0,0,512.21,298.5Z"/><path d="M522.19,292.71h1.31v6.77h-1.25l0-.88a2.2,2.2,0,0,1-.85.75,2.75,2.75,0,0,1-1.2.26,2.43,2.43,0,0,1-1.73-.61,2.29,2.29,0,0,1-.64-1.74v-4.55h1.32V297a1.49,1.49,0,0,0,.4,1.15,1.44,1.44,0,0,0,1,.38,1.62,1.62,0,0,0,1.18-.45,1.89,1.89,0,0,0,.46-1.36Z"/><path d="M531.85,296l0,.35h-5.24a2.26,2.26,0,0,0,.63,1.65,2,2,0,0,0,1.48.57,2,2,0,0,0,1.08-.3,2.07,2.07,0,0,0,.74-.86l1.19.23a3,3,0,0,1-1.16,1.47,3.2,3.2,0,0,1-1.83.54,3.38,3.38,0,0,1-2.48-.94,3.52,3.52,0,0,1-.94-2.58,3.48,3.48,0,0,1,1-2.57,3.29,3.29,0,0,1,2.42-.95,3.12,3.12,0,0,1,2.31.87A3.41,3.41,0,0,1,531.85,296Zm-3.17-2.39a2.09,2.09,0,0,0-1.35.44,2.14,2.14,0,0,0-.69,1.3h3.89A1.84,1.84,0,0,0,530,294,1.81,1.81,0,0,0,528.68,293.57Zm2-3.79-1.53,1.78h-.88l1.73-2.28Z"/><path d="M542.24,289h1.32v10.5h-1.27l0-1.23a2.35,2.35,0,0,1-1,1,2.66,2.66,0,0,1-1.4.37,3.08,3.08,0,0,1-2.24-.95,3.22,3.22,0,0,1-.69-1.12,4,4,0,0,1-.25-1.46,3.86,3.86,0,0,1,.43-1.85,3.16,3.16,0,0,1,1.16-1.24,3.11,3.11,0,0,1,1.59-.43,2.72,2.72,0,0,1,1.39.36,2.33,2.33,0,0,1,.94,1Zm-2,9.52a2,2,0,0,0,1.53-.69,2.46,2.46,0,0,0,.61-1.72,2.42,2.42,0,0,0-.62-1.71,2,2,0,0,0-1.52-.69,2,2,0,0,0-1.53.67,2.74,2.74,0,0,0,0,3.47A2,2,0,0,0,540.19,298.5Z"/><path d="M551.91,296l0,.35h-5.24a2.3,2.3,0,0,0,.62,1.65,2.09,2.09,0,0,0,1.49.57,2,2,0,0,0,1.08-.3,2.14,2.14,0,0,0,.74-.86l1.19.23a3.08,3.08,0,0,1-1.16,1.47,3.23,3.23,0,0,1-1.84.54,3.37,3.37,0,0,1-2.47-.94,4,4,0,0,1,0-5.15,3.29,3.29,0,0,1,2.43-.95,3.08,3.08,0,0,1,2.3.87A3.46,3.46,0,0,1,551.91,296Zm-3.17-2.39a1.93,1.93,0,0,0-2,1.74h3.89A1.88,1.88,0,0,0,550,294,1.83,1.83,0,0,0,548.74,293.57Z"/><path d="M557.35,292.57a3.11,3.11,0,0,1,1.59.43,3.07,3.07,0,0,1,1.15,1.24,3.86,3.86,0,0,1,.43,1.85,3.58,3.58,0,0,1-.91,2.56,3,3,0,0,1-2.26,1,2.7,2.7,0,0,1-1.41-.37,2.32,2.32,0,0,1-.94-1l0,1.23H553.7V289H555v4.93a2.42,2.42,0,0,1,1-1A2.72,2.72,0,0,1,557.35,292.57Zm-1.81,5.24a2,2,0,0,0,1.52.69,2,2,0,0,0,1.53-.67,2.74,2.74,0,0,0,0-3.47,2,2,0,0,0-1.53-.67,2,2,0,0,0-1.52.69,2.48,2.48,0,0,0-.62,1.71A2.43,2.43,0,0,0,555.54,297.81Z"/><path d="M568.33,296l0,.35h-5.24a2.3,2.3,0,0,0,.62,1.65,2.09,2.09,0,0,0,1.49.57,2,2,0,0,0,1.08-.3,2.14,2.14,0,0,0,.74-.86l1.19.23a3.08,3.08,0,0,1-1.16,1.47,3.23,3.23,0,0,1-1.84.54,3.37,3.37,0,0,1-2.47-.94,4,4,0,0,1,0-5.15,3.29,3.29,0,0,1,2.43-.95,3.08,3.08,0,0,1,2.3.87A3.46,3.46,0,0,1,568.33,296Zm-3.17-2.39a1.93,1.93,0,0,0-2,1.74H567a1.88,1.88,0,0,0-.58-1.29A1.83,1.83,0,0,0,565.16,293.57Z"/><path d="M577.23,292.57a2.24,2.24,0,0,1,1.6.57,2.09,2.09,0,0,1,.61,1.61v4.73h-1.31V295.1a1.46,1.46,0,0,0-.36-1.07,1.23,1.23,0,0,0-.91-.36,1.33,1.33,0,0,0-1,.42,1.8,1.8,0,0,0-.39,1.27v4.12h-1.33v-4.33a1.54,1.54,0,0,0-.36-1.11,1.23,1.23,0,0,0-.93-.37,1.29,1.29,0,0,0-1,.43,1.89,1.89,0,0,0-.39,1.3v4.08h-1.31v-6.77h1.31v.86a2.09,2.09,0,0,1,1.87-1,2.48,2.48,0,0,1,1.18.28,1.81,1.81,0,0,1,.75.82,2.18,2.18,0,0,1,.83-.82A2.47,2.47,0,0,1,577.23,292.57Z"/><path d="M584.58,299.61a3.4,3.4,0,0,1-2.49-1,3.83,3.83,0,0,1,0-5.12,3.71,3.71,0,0,1,5,0,3.86,3.86,0,0,1,0,5.12A3.4,3.4,0,0,1,584.58,299.61Zm0-1.08a2,2,0,0,0,1.56-.67,2.84,2.84,0,0,0,0-3.54,2,2,0,0,0-1.56-.67,2,2,0,0,0-1.53.67,2.87,2.87,0,0,0,0,3.54A2,2,0,0,0,584.56,298.53Z"/><path d="M592,299.61a3.25,3.25,0,0,1-1.85-.49,2,2,0,0,1-.9-1.39l1.13-.32a1.43,1.43,0,0,0,.55.91,1.73,1.73,0,0,0,1.06.32,1.72,1.72,0,0,0,.93-.24.8.8,0,0,0,.36-.75,1.33,1.33,0,0,0-.06-.3.56.56,0,0,0-.17-.24l-.23-.18a1.69,1.69,0,0,0-.33-.16l-.36-.12c-.09,0-.23-.08-.43-.13l-.45-.13a5.6,5.6,0,0,1-.68-.25,3,3,0,0,1-.56-.33,1.26,1.26,0,0,1-.43-.54,1.73,1.73,0,0,1-.14-.75,1.63,1.63,0,0,1,.68-1.44,2.9,2.9,0,0,1,1.75-.49,3,3,0,0,1,1.67.44,1.92,1.92,0,0,1,.84,1.33l-1.06.26a1.3,1.3,0,0,0-.51-.83,1.59,1.59,0,0,0-.93-.27,1.61,1.61,0,0,0-.87.23.73.73,0,0,0-.36.68.69.69,0,0,0,.12.41.87.87,0,0,0,.35.3,3.85,3.85,0,0,0,.47.19l.59.16.14,0a6.26,6.26,0,0,1,.65.18,4.41,4.41,0,0,1,.58.25,2.05,2.05,0,0,1,.53.37,1.6,1.6,0,0,1,.33.53,1.91,1.91,0,0,1,.14.74,2,2,0,0,1-.14.76,1.65,1.65,0,0,1-.37.58,2.51,2.51,0,0,1-.56.38,3.18,3.18,0,0,1-.7.22A3.84,3.84,0,0,1,592,299.61Z"/><path d="M606,296l0,.35h-5.24a2.26,2.26,0,0,0,.63,1.65,2,2,0,0,0,1.48.57,2,2,0,0,0,1.08-.3,2.07,2.07,0,0,0,.74-.86l1.19.23a3,3,0,0,1-1.16,1.47,3.23,3.23,0,0,1-1.84.54,3.37,3.37,0,0,1-2.47-.94,3.52,3.52,0,0,1-.94-2.58,3.48,3.48,0,0,1,1-2.57,3.27,3.27,0,0,1,2.42-.95,3.12,3.12,0,0,1,2.31.87A3.41,3.41,0,0,1,606,296Zm-3.17-2.39a1.93,1.93,0,0,0-2,1.74h3.89a1.88,1.88,0,0,0-.58-1.29A1.83,1.83,0,0,0,602.81,293.57Z"/><path d="M611.11,292.57a2.38,2.38,0,0,1,1.73.62,2.25,2.25,0,0,1,.64,1.73v4.56h-1.32v-4.27a1.51,1.51,0,0,0-.4-1.16,1.41,1.41,0,0,0-1-.38,1.62,1.62,0,0,0-1.18.45,1.84,1.84,0,0,0-.46,1.36v4h-1.32v-6.77h1.32v.83a2.11,2.11,0,0,1,.85-.71A2.64,2.64,0,0,1,611.11,292.57Z"/><path d="M619.74,292.71h1.4l-2.77,6.77h-1.13l-2.76-6.77h1.39l1.94,5.25Z"/><path d="M623.15,291.21a.82.82,0,0,1-.6-.25.82.82,0,0,1,0-1.2.82.82,0,0,1,.6-.25.79.79,0,0,1,.6.25.82.82,0,0,1,.25.6.79.79,0,0,1-.25.6A.82.82,0,0,1,623.15,291.21Zm-.67,8.27v-6.77h1.32v6.77Z"/><path d="M627.73,299.61a2.61,2.61,0,0,1-1-.19,1.56,1.56,0,0,1-.74-.61,1.78,1.78,0,0,1-.29-1.05,2,2,0,0,1,.18-.89,1.67,1.67,0,0,1,.56-.62,3.45,3.45,0,0,1,.8-.38,6.77,6.77,0,0,1,1-.25l1.06-.18c.41-.08.62-.29.62-.62a1.12,1.12,0,0,0-.41-1,1.94,1.94,0,0,0-2.07,0,1.29,1.29,0,0,0-.48.94l-1.18-.24a2.08,2.08,0,0,1,.87-1.48,3.23,3.23,0,0,1,1.89-.49,4,4,0,0,1,.8.07,2.35,2.35,0,0,1,.72.24,1.81,1.81,0,0,1,1,1.11,3,3,0,0,1,.14.94v2.74a1,1,0,0,0,.16.68.64.64,0,0,0,.52.19h.1v.92h-.63a1.17,1.17,0,0,1-1.32-.91h-.06a2.37,2.37,0,0,1-1,.79A3.32,3.32,0,0,1,627.73,299.61Zm.3-1.05a1.81,1.81,0,0,0,1.42-.62,2.46,2.46,0,0,0,.55-1.69l-1.77.36a2.21,2.21,0,0,0-1,.36.8.8,0,0,0-.33.68.81.81,0,0,0,.31.69A1.28,1.28,0,0,0,628,298.56Z"/><path d="M634.85,293.89a1.91,1.91,0,0,1,.84-.9,2.57,2.57,0,0,1,1.31-.35v1.21a2.27,2.27,0,0,0-1.58.49,2.06,2.06,0,0,0-.53,1.58v3.56h-1.31v-6.77h1.27Z"/><path d="M640.15,296.73v-.84a1.8,1.8,0,0,1,.09-.6,1.35,1.35,0,0,1,.28-.45,2.47,2.47,0,0,1,.41-.33,5.58,5.58,0,0,1,.58-.32,1.64,1.64,0,0,0,.89-1.62,1.78,1.78,0,0,0-.48-1.31,1.75,1.75,0,0,0-2.45,0,1.87,1.87,0,0,0-.48,1.31,3.45,3.45,0,0,0,.06.57L637.9,293a3.68,3.68,0,0,1,0-.58,2.69,2.69,0,0,1,.79-2,2.87,2.87,0,0,1,4.92,2.1,2.69,2.69,0,0,1-.44,1.61,2.47,2.47,0,0,1-1.11.89,1.44,1.44,0,0,0-.56.37.86.86,0,0,0-.18.58v.73Zm.6,2.88a.82.82,0,0,1-.6-.25.78.78,0,0,1-.25-.59.84.84,0,0,1,.25-.6.82.82,0,0,1,.6-.25.79.79,0,0,1,.59.25.83.83,0,0,1,.24.6.81.81,0,0,1-.24.59A.79.79,0,0,1,640.75,299.61Z"/></g></g><g id="_Cómo_" data-name=" Cómo " class="cls-3"><g class="cls-3"><path d="M512.89,420.56v1.9a4.3,4.3,0,0,1-.43,2,3.88,3.88,0,0,1-1.12,1.34,12.06,12.06,0,0,1-1.88,1.12,3.8,3.8,0,0,0-2.18,3.69,3.39,3.39,0,0,0,3.64,3.73,3.56,3.56,0,0,0,2.65-1,3.5,3.5,0,0,0,1-2.61,6.38,6.38,0,0,0-.22-1.54l4.54.58a11.22,11.22,0,0,1,.09,1.31,7,7,0,0,1-2.22,5.37,8.11,8.11,0,0,1-5.78,2.07,8.38,8.38,0,0,1-5.89-2.12,7.34,7.34,0,0,1-2.3-5.67,8.63,8.63,0,0,1,.38-2.62,5.88,5.88,0,0,1,1.06-2,6.93,6.93,0,0,1,1.41-1.32,7.21,7.21,0,0,1,1.63-.85,2.85,2.85,0,0,0,1.16-.79,1.87,1.87,0,0,0,.37-1.22v-1.37Zm-4.14-7.35a2.76,2.76,0,0,1,2-.84,2.82,2.82,0,0,1,2.05.84,2.88,2.88,0,0,1-2.05,4.92,2.87,2.87,0,0,1-2.87-2.88A2.78,2.78,0,0,1,508.75,413.21Z"/><path d="M535,431.14a14.19,14.19,0,0,1-5.18-.93,12.21,12.21,0,0,1-4.12-2.6,11.74,11.74,0,0,1-2.71-4.13,14.33,14.33,0,0,1-1-5.4,13.83,13.83,0,0,1,1.68-6.9,11.57,11.57,0,0,1,4.64-4.56A13.89,13.89,0,0,1,535,405a13.4,13.4,0,0,1,7.45,2.06,11.22,11.22,0,0,1,4.55,5.66l-4.92,1.79a6.94,6.94,0,0,0-2.72-3.43,7.81,7.81,0,0,0-4.36-1.23,7.46,7.46,0,0,0-5.56,2.22,9.28,9.28,0,0,0,0,12,7.47,7.47,0,0,0,5.55,2.22,7.72,7.72,0,0,0,4.35-1.24,6.93,6.93,0,0,0,2.73-3.44l4.92,1.8a11.33,11.33,0,0,1-4.55,5.67A13.49,13.49,0,0,1,535,431.14Z"/><path d="M559.05,431.14a11.37,11.37,0,0,1-5.12-1.11,8.2,8.2,0,0,1-3.5-3.25,9.68,9.68,0,0,1-1.28-5,8.87,8.87,0,0,1,2.74-6.86,11.48,11.48,0,0,1,14.33,0,10,10,0,0,1,0,13.74A10.19,10.19,0,0,1,559.05,431.14Zm0-4a4.65,4.65,0,0,0,3.57-1.48,6.27,6.27,0,0,0,0-7.8,4.62,4.62,0,0,0-3.57-1.48,4.48,4.48,0,0,0-3.48,1.48,6.33,6.33,0,0,0,0,7.79A4.49,4.49,0,0,0,559,427.12Zm-1.52-16.86,4.61-6.47,2.5,1.76-4,4.71Z"/><path d="M594.13,412.37a6.89,6.89,0,0,1,4.66,1.47,5.23,5.23,0,0,1,1.71,4.21v12.74h-5.07v-11.3a3,3,0,0,0-.8-2.29,2.86,2.86,0,0,0-2-.77,3.28,3.28,0,0,0-2.46,1,4.46,4.46,0,0,0-1,3.19v10.19h-5.12V419.54a3.1,3.1,0,0,0-.81-2.33,2.88,2.88,0,0,0-2.09-.78,3.13,3.13,0,0,0-2.44,1,5,5,0,0,0-1,3.39v9.93h-5V412.72h5v2.13a6.13,6.13,0,0,1,5.24-2.48,7.78,7.78,0,0,1,3.4.69,4.64,4.64,0,0,1,2.13,2A6.39,6.39,0,0,1,594.13,412.37Z"/><path d="M613.84,431.14a11.37,11.37,0,0,1-5.12-1.11,8.25,8.25,0,0,1-3.5-3.25,9.68,9.68,0,0,1-1.28-5,8.87,8.87,0,0,1,2.74-6.86,11.48,11.48,0,0,1,14.33,0,10,10,0,0,1,0,13.74A10.19,10.19,0,0,1,613.84,431.14Zm-.05-4a4.64,4.64,0,0,0,3.57-1.48,6.24,6.24,0,0,0,0-7.8,4.6,4.6,0,0,0-3.57-1.48,4.48,4.48,0,0,0-3.48,1.48,6.33,6.33,0,0,0,0,7.79A4.49,4.49,0,0,0,613.79,427.12Z"/><path d="M632.17,423v-1.9a4.3,4.3,0,0,1,.43-2,3.88,3.88,0,0,1,1.12-1.34,12.06,12.06,0,0,1,1.88-1.12,3.79,3.79,0,0,0,2.18-3.69,3.74,3.74,0,0,0-6.29-2.73,3.5,3.5,0,0,0-1,2.61,7,7,0,0,0,.21,1.55l-4.54-.59a11.22,11.22,0,0,1-.09-1.31,7,7,0,0,1,2.22-5.36,8.09,8.09,0,0,1,5.78-2.08,8.36,8.36,0,0,1,5.89,2.12,7.31,7.31,0,0,1,2.3,5.67,8.63,8.63,0,0,1-.38,2.62,5.88,5.88,0,0,1-1.06,2,6.93,6.93,0,0,1-1.41,1.32,7.67,7.67,0,0,1-1.63.86,2.74,2.74,0,0,0-1.16.78,1.89,1.89,0,0,0-.37,1.22V423Zm4.14,7.35a2.74,2.74,0,0,1-2,.84,2.83,2.83,0,0,1-2-.84,2.89,2.89,0,0,1,0-4.09,2.82,2.82,0,0,1,2-.83,2.87,2.87,0,0,1,2.87,2.88A2.78,2.78,0,0,1,636.31,430.3Z"/></g></g><g id="Métodos_procedimientos_instrucciones" data-name="Métodos procedimientos instrucciones" class="cls-3"><g class="cls-3"><path d="M497.1,454.87h-1.43l-.68-8.42-3.2,8.42h-.89l-3.18-8.39-.7,8.39h-1.43l.8-10.35h2l3,7.83,3-7.83h2Z"/><path d="M505.88,451.11l0,.37h-5.61a2.46,2.46,0,0,0,.67,1.77,2.21,2.21,0,0,0,1.59.61,2.1,2.1,0,0,0,1.16-.33,2.16,2.16,0,0,0,.79-.92l1.27.25a3.19,3.19,0,0,1-1.24,1.58,3.47,3.47,0,0,1-2,.57,3.57,3.57,0,0,1-2.65-1,4.28,4.28,0,0,1,0-5.52,3.5,3.5,0,0,1,2.6-1,3.33,3.33,0,0,1,2.47.93A3.7,3.7,0,0,1,505.88,451.11Zm-3.4-2.56a2.07,2.07,0,0,0-2.18,1.86h4.16a2,2,0,0,0-.62-1.39A2,2,0,0,0,502.48,448.55Zm2.11-4.07L503,446.39H502l1.86-2.44Z"/><path d="M510.18,454.87a1.92,1.92,0,0,1-1.45-.53,2,2,0,0,1-.53-1.49v-4.12h-1.48v-1.11h.53a1.09,1.09,0,0,0,.82-.26,1.31,1.31,0,0,0,.25-.89v-1.26h1.29v2.41h1.64v1.11h-1.64v4a1.09,1.09,0,0,0,.27.78.92.92,0,0,0,.71.28h.66v1.1Z"/><path d="M516.09,455a3.55,3.55,0,1,1,2.66-1A3.6,3.6,0,0,1,516.09,455Zm0-1.15a2.17,2.17,0,0,0,1.67-.73,3,3,0,0,0,0-3.78,2.27,2.27,0,0,0-3.32,0,3.07,3.07,0,0,0,0,3.78A2.15,2.15,0,0,0,516.07,453.86Z"/><path d="M527,443.62h1.41v11.25h-1.36l0-1.31a2.48,2.48,0,0,1-1,1.07,2.86,2.86,0,0,1-1.5.4,3.32,3.32,0,0,1-1.32-.27,3.38,3.38,0,0,1-1.08-.75,3.44,3.44,0,0,1-.74-1.2,4.37,4.37,0,0,1-.27-1.56,4.14,4.14,0,0,1,.46-2,3.35,3.35,0,0,1,1.25-1.33,3.3,3.3,0,0,1,1.7-.45,2.9,2.9,0,0,1,1.49.38,2.61,2.61,0,0,1,1,1.05Zm-2.2,10.21a2.12,2.12,0,0,0,1.64-.74,2.69,2.69,0,0,0,.65-1.84,2.65,2.65,0,0,0-.66-1.84,2.09,2.09,0,0,0-1.63-.73,2.13,2.13,0,0,0-1.64.71,2.92,2.92,0,0,0,0,3.72A2.14,2.14,0,0,0,524.83,453.83Z"/><path d="M534.07,455a3.55,3.55,0,1,1,2.66-1A3.6,3.6,0,0,1,534.07,455Zm0-1.15a2.17,2.17,0,0,0,1.67-.73,3,3,0,0,0,0-3.78,2.16,2.16,0,0,0-1.67-.72,2.11,2.11,0,0,0-1.64.72,3,3,0,0,0,0,3.78A2.12,2.12,0,0,0,534.05,453.86Z"/><path d="M542,455a3.53,3.53,0,0,1-2-.52,2.13,2.13,0,0,1-.95-1.49l1.2-.35a1.59,1.59,0,0,0,.59,1A1.86,1.86,0,0,0,542,454a1.82,1.82,0,0,0,1-.25.85.85,0,0,0,.39-.8,1.4,1.4,0,0,0-.06-.32.51.51,0,0,0-.18-.26l-.25-.2a1.68,1.68,0,0,0-.35-.16l-.39-.14-.46-.14-.48-.14a4.63,4.63,0,0,1-.73-.26,3.18,3.18,0,0,1-.6-.36,1.34,1.34,0,0,1-.46-.57,1.86,1.86,0,0,1-.16-.81A1.79,1.79,0,0,1,540,448a3.18,3.18,0,0,1,1.87-.52,3.27,3.27,0,0,1,1.79.47,2,2,0,0,1,.9,1.43l-1.14.28a1.36,1.36,0,0,0-.54-.89,1.89,1.89,0,0,0-1.93,0,.79.79,0,0,0-.38.73.84.84,0,0,0,.12.45,1,1,0,0,0,.37.31,3.66,3.66,0,0,0,.51.21l.63.17.15,0,.7.19a6.21,6.21,0,0,1,.63.28,2.5,2.5,0,0,1,.56.39,1.67,1.67,0,0,1,.35.57,2,2,0,0,1,.15.79,2.14,2.14,0,0,1-.15.82,1.73,1.73,0,0,1-.39.61,2.25,2.25,0,0,1-.61.41,3.05,3.05,0,0,1-.74.24A4.46,4.46,0,0,1,542,455Z"/><path d="M547.74,457.52h-1l.9-4.58h1.46Z"/><path d="M559.26,447.48a3.21,3.21,0,0,1,2.42,1,3.84,3.84,0,0,1,1,2.74,4.66,4.66,0,0,1-.26,1.57,3.42,3.42,0,0,1-.73,1.2,3.2,3.2,0,0,1-1.08.74,3.25,3.25,0,0,1-1.32.27,2.88,2.88,0,0,1-1.49-.39,2.47,2.47,0,0,1-1-1v4.91h-1.41V447.62h1.36l0,1.33a2.63,2.63,0,0,1,1-1.08A3,3,0,0,1,559.26,447.48Zm-.3,6.35a2.14,2.14,0,0,0,1.63-.71,3,3,0,0,0,0-3.73,2.22,2.22,0,0,0-3.28,0,2.88,2.88,0,0,0,0,3.67A2.16,2.16,0,0,0,559,453.83Z"/><path d="M566,448.88a2.07,2.07,0,0,1,.9-1,2.81,2.81,0,0,1,1.41-.38v1.31a2.44,2.44,0,0,0-1.7.52,2.18,2.18,0,0,0-.57,1.69v3.81h-1.4v-7.25H566Z"/><path d="M572.75,455a3.55,3.55,0,1,1,2.66-1A3.6,3.6,0,0,1,572.75,455Zm0-1.15a2.17,2.17,0,0,0,1.67-.73,3,3,0,0,0,0-3.78,2.27,2.27,0,0,0-3.32,0,3.07,3.07,0,0,0,0,3.78A2.15,2.15,0,0,0,572.73,453.86Z"/><path d="M581.43,455a3.55,3.55,0,0,1-2.64-1.05,4.11,4.11,0,0,1,0-5.44,3.88,3.88,0,0,1,4.78-.4,3.21,3.21,0,0,1,1.22,1.8l-1.31.2a2.1,2.1,0,0,0-2.07-1.49,2,2,0,0,0-1.61.72,3.11,3.11,0,0,0,0,3.78,2,2,0,0,0,1.61.72,2.1,2.1,0,0,0,2.07-1.49l1.31.2a3.23,3.23,0,0,1-1.23,1.8A3.56,3.56,0,0,1,581.43,455Z"/><path d="M593,451.11l0,.37h-5.62a2.46,2.46,0,0,0,.67,1.77,2.21,2.21,0,0,0,1.59.61,2.1,2.1,0,0,0,1.16-.33,2.16,2.16,0,0,0,.79-.92l1.27.25a3.19,3.19,0,0,1-1.24,1.58,3.47,3.47,0,0,1-2,.57,3.57,3.57,0,0,1-2.65-1,4.28,4.28,0,0,1,0-5.52,3.5,3.5,0,0,1,2.6-1,3.33,3.33,0,0,1,2.47.93A3.7,3.7,0,0,1,593,451.11Zm-3.4-2.56a2.07,2.07,0,0,0-2.18,1.86h4.16A2,2,0,0,0,591,449,1.94,1.94,0,0,0,589.63,448.55Z"/><path d="M600.26,443.62h1.41v11.25h-1.35l0-1.31a2.54,2.54,0,0,1-1,1.07,2.86,2.86,0,0,1-1.5.4,3.25,3.25,0,0,1-1.32-.27,3.32,3.32,0,0,1-1.09-.75,3.59,3.59,0,0,1-.74-1.2,4.37,4.37,0,0,1-.27-1.56,4.15,4.15,0,0,1,.47-2,3.33,3.33,0,0,1,1.24-1.33,3.36,3.36,0,0,1,1.71-.45,2.86,2.86,0,0,1,1.48.38,2.55,2.55,0,0,1,1,1.05Zm-2.19,10.21a2.1,2.1,0,0,0,1.63-.74,2.89,2.89,0,0,0,0-3.68,2.23,2.23,0,0,0-3.28,0,3,3,0,0,0,0,3.72A2.15,2.15,0,0,0,598.07,453.83Z"/><path d="M604.91,446a.89.89,0,0,1-.65-.27.9.9,0,0,1-.28-.65.88.88,0,0,1,.28-.64.89.89,0,0,1,.65-.27.91.91,0,0,1,.64,1.56A.9.9,0,0,1,604.91,446Zm-.72,8.85v-7.25h1.41v7.25Z"/><path d="M615.74,447.48a2.4,2.4,0,0,1,1.72.61,2.26,2.26,0,0,1,.65,1.72v5.06H616.7v-4.68a1.59,1.59,0,0,0-.38-1.15,1.31,1.31,0,0,0-1-.39,1.44,1.44,0,0,0-1.1.45,2,2,0,0,0-.41,1.36v4.41h-1.43v-4.63a1.66,1.66,0,0,0-.39-1.19,1.31,1.31,0,0,0-1-.4,1.41,1.41,0,0,0-1.09.46,2,2,0,0,0-.42,1.4v4.36h-1.4v-7.25h1.4v.93a2.22,2.22,0,0,1,2-1.07,2.55,2.55,0,0,1,1.26.3,1.9,1.9,0,0,1,.81.87,2.32,2.32,0,0,1,.89-.87A2.54,2.54,0,0,1,615.74,447.48Z"/><path d="M621.22,446a.92.92,0,0,1-.92-.92.87.87,0,0,1,.27-.64.89.89,0,0,1,.65-.27.91.91,0,0,1,.64,1.56A.89.89,0,0,1,621.22,446Zm-.72,8.85v-7.25h1.41v7.25Z"/><path d="M630.86,451.11l0,.37h-5.61a2.42,2.42,0,0,0,.67,1.77,2.18,2.18,0,0,0,1.59.61,2.12,2.12,0,0,0,1.16-.33,2.16,2.16,0,0,0,.79-.92l1.27.25a3.25,3.25,0,0,1-1.24,1.58,3.48,3.48,0,0,1-2,.57,3.61,3.61,0,0,1-2.65-1,4.29,4.29,0,0,1,0-5.52,3.49,3.49,0,0,1,2.6-1,3.35,3.35,0,0,1,2.47.93A3.66,3.66,0,0,1,630.86,451.11Zm-3.39-2.56A2.2,2.2,0,0,0,626,449a2.24,2.24,0,0,0-.74,1.39h4.17a2.08,2.08,0,0,0-.62-1.39A2,2,0,0,0,627.47,448.55Z"/><path d="M636.36,447.48a2.53,2.53,0,0,1,1.85.65,2.45,2.45,0,0,1,.69,1.86v4.88h-1.41V450.3a1.69,1.69,0,0,0-.43-1.25,1.55,1.55,0,0,0-1.1-.4,1.71,1.71,0,0,0-1.27.49,1.93,1.93,0,0,0-.5,1.45v4.28h-1.41v-7.25h1.41v.9a2.27,2.27,0,0,1,.91-.77A2.87,2.87,0,0,1,636.36,447.48Z"/><path d="M643.66,454.87a1.93,1.93,0,0,1-1.45-.53,2,2,0,0,1-.53-1.49v-4.12H640.2v-1.11h.54a1.08,1.08,0,0,0,.81-.26,1.26,1.26,0,0,0,.25-.89v-1.26h1.3v2.41h1.64v1.11H643.1v4a1.08,1.08,0,0,0,.26.78.93.93,0,0,0,.71.28h.67v1.1Z"/><path d="M649.57,455a3.64,3.64,0,0,1-2.67-1,3.71,3.71,0,1,1,5.34,0A3.64,3.64,0,0,1,649.57,455Zm0-1.15a2.18,2.18,0,0,0,1.67-.73,3,3,0,0,0,0-3.78,2.17,2.17,0,0,0-1.67-.72,2.12,2.12,0,0,0-1.65.72,3.07,3.07,0,0,0,0,3.78A2.12,2.12,0,0,0,649.56,453.86Z"/><path d="M657.53,455a3.49,3.49,0,0,1-2-.52,2.11,2.11,0,0,1-1-1.49l1.21-.35a1.51,1.51,0,0,0,.59,1,1.81,1.81,0,0,0,1.13.34,1.77,1.77,0,0,0,1-.25.85.85,0,0,0,.39-.8.79.79,0,0,0-.06-.32.51.51,0,0,0-.18-.26l-.25-.2a1.46,1.46,0,0,0-.35-.16l-.38-.14-.47-.14-.48-.14a5,5,0,0,1-.73-.26,4,4,0,0,1-.6-.36,1.42,1.42,0,0,1-.46-.57,2,2,0,0,1-.15-.81,1.78,1.78,0,0,1,.73-1.55,3.2,3.2,0,0,1,1.87-.52,3.24,3.24,0,0,1,1.79.47,2,2,0,0,1,.9,1.43l-1.13.28a1.41,1.41,0,0,0-.55-.89,1.89,1.89,0,0,0-1.93,0,.81.81,0,0,0-.38.73.84.84,0,0,0,.12.45,1,1,0,0,0,.38.31,3.11,3.11,0,0,0,.5.21l.63.17.16,0c.27.07.51.13.69.19a5.37,5.37,0,0,1,.63.28,2.29,2.29,0,0,1,.56.39,1.86,1.86,0,0,1,.36.57,2,2,0,0,1,.14.79,2.14,2.14,0,0,1-.14.82,1.75,1.75,0,0,1-.4.61,2.25,2.25,0,0,1-.61.41,3.05,3.05,0,0,1-.74.24A4.46,4.46,0,0,1,657.53,455Z"/></g><g class="cls-3"><path d="M529,464a.92.92,0,0,1-.92-.92.87.87,0,0,1,.27-.64.89.89,0,0,1,.65-.27.91.91,0,0,1,.64,1.56A.9.9,0,0,1,529,464Zm-.72,8.85v-7.25h1.41v7.25Z"/><path d="M535.82,465.48a2.53,2.53,0,0,1,1.85.65,2.45,2.45,0,0,1,.69,1.86v4.88H537V468.3a1.69,1.69,0,0,0-.43-1.25,1.55,1.55,0,0,0-1.1-.4,1.71,1.71,0,0,0-1.27.49,1.93,1.93,0,0,0-.5,1.45v4.28h-1.41v-7.25h1.41v.9a2.27,2.27,0,0,1,.91-.77A2.84,2.84,0,0,1,535.82,465.48Z"/><path d="M543.08,473a3.53,3.53,0,0,1-2-.52,2.11,2.11,0,0,1-1-1.49l1.21-.35a1.55,1.55,0,0,0,.59,1,2.08,2.08,0,0,0,2.13.09.85.85,0,0,0,.39-.8,1.4,1.4,0,0,0-.06-.32.61.61,0,0,0-.19-.26c-.08-.08-.17-.14-.24-.2a1.57,1.57,0,0,0-.36-.16l-.38-.14-.46-.14-.48-.14a4.29,4.29,0,0,1-.73-.26,3.59,3.59,0,0,1-.61-.36,1.51,1.51,0,0,1-.46-.57,2,2,0,0,1-.15-.81,1.78,1.78,0,0,1,.73-1.55,3.24,3.24,0,0,1,1.88-.52,3.29,3.29,0,0,1,1.79.47,2.09,2.09,0,0,1,.9,1.43l-1.14.28a1.34,1.34,0,0,0-.55-.89,1.73,1.73,0,0,0-1-.29,1.68,1.68,0,0,0-.92.24.8.8,0,0,0-.39.73.85.85,0,0,0,.13.45,1,1,0,0,0,.37.31,3.66,3.66,0,0,0,.51.21l.63.17.15,0,.7.19a6.15,6.15,0,0,1,.62.28,2.29,2.29,0,0,1,.56.39,1.86,1.86,0,0,1,.36.57,2,2,0,0,1,.15.79,2.14,2.14,0,0,1-.15.82,1.75,1.75,0,0,1-.4.61,2.36,2.36,0,0,1-.6.41,3.13,3.13,0,0,1-.75.24A4.43,4.43,0,0,1,543.08,473Z"/><path d="M550.1,472.87a1.92,1.92,0,0,1-1.45-.53,2,2,0,0,1-.53-1.49v-4.12h-1.48v-1.11h.54a1.08,1.08,0,0,0,.81-.26,1.26,1.26,0,0,0,.25-.89v-1.26h1.3v2.41h1.64v1.11h-1.64v4a1.13,1.13,0,0,0,.26.78.93.93,0,0,0,.71.28h.67v1.1Z"/><path d="M554.33,466.88a2.18,2.18,0,0,1,.9-1,2.86,2.86,0,0,1,1.41-.38v1.31a2.41,2.41,0,0,0-1.69.52,2.18,2.18,0,0,0-.57,1.69v3.81H553v-7.25h1.36Z"/><path d="M562.66,465.62h1.41v7.25h-1.34l0-.93a2.36,2.36,0,0,1-.92.79,2.8,2.8,0,0,1-1.28.28,2.58,2.58,0,0,1-1.85-.65,2.45,2.45,0,0,1-.69-1.86v-4.88h1.42v4.57a1.61,1.61,0,0,0,.43,1.24,1.5,1.5,0,0,0,1.1.41,1.74,1.74,0,0,0,1.27-.48,2,2,0,0,0,.49-1.46Z"/><path d="M569.64,473A3.54,3.54,0,0,1,567,472a4.08,4.08,0,0,1,0-5.44,3.87,3.87,0,0,1,4.77-.4,3.16,3.16,0,0,1,1.22,1.8l-1.31.2a2.06,2.06,0,0,0-.79-1.1,2.13,2.13,0,0,0-1.27-.39,2.05,2.05,0,0,0-1.62.72,3.15,3.15,0,0,0,0,3.78,2.05,2.05,0,0,0,1.62.72,2.13,2.13,0,0,0,1.27-.39,2.06,2.06,0,0,0,.79-1.1l1.31.2a3.16,3.16,0,0,1-1.22,1.8A3.62,3.62,0,0,1,569.64,473Z"/><path d="M577.87,473a3.55,3.55,0,0,1-2.64-1.05,4.11,4.11,0,0,1,0-5.44,3.88,3.88,0,0,1,4.78-.4,3.21,3.21,0,0,1,1.22,1.8l-1.31.2a2.1,2.1,0,0,0-2.07-1.49,2,2,0,0,0-1.61.72,3.11,3.11,0,0,0,0,3.78,2,2,0,0,0,1.61.72,2.1,2.1,0,0,0,2.07-1.49l1.31.2a3.23,3.23,0,0,1-1.23,1.8A3.56,3.56,0,0,1,577.87,473Z"/><path d="M583.76,464a.89.89,0,0,1-.65-.27.86.86,0,0,1-.28-.65.84.84,0,0,1,.28-.64.91.91,0,0,1,1.55.64.88.88,0,0,1-.27.65A.86.86,0,0,1,583.76,464Zm-.72,8.85v-7.25h1.41v7.25Z"/><path d="M590.08,473a3.57,3.57,0,0,1-3.71-3.77,3.54,3.54,0,0,1,3.71-3.76,3.64,3.64,0,0,1,2.67,1,4.13,4.13,0,0,1,0,5.48A3.61,3.61,0,0,1,590.08,473Zm0-1.15a2.18,2.18,0,0,0,1.67-.73,3,3,0,0,0,0-3.78,2.17,2.17,0,0,0-1.67-.72,2.12,2.12,0,0,0-1.65.72,3.07,3.07,0,0,0,0,3.78A2.12,2.12,0,0,0,590.07,471.86Z"/><path d="M599.28,465.48a2.57,2.57,0,0,1,1.86.65,2.45,2.45,0,0,1,.68,1.86v4.88h-1.41V468.3a1.65,1.65,0,0,0-.43-1.25,1.52,1.52,0,0,0-1.1-.4,1.71,1.71,0,0,0-1.27.49,2,2,0,0,0-.5,1.45v4.28h-1.4v-7.25h1.4v.9a2.3,2.3,0,0,1,.92-.77A2.83,2.83,0,0,1,599.28,465.48Z"/><path d="M610.64,469.11l0,.37H605a2.42,2.42,0,0,0,.67,1.77,2.18,2.18,0,0,0,1.59.61,2.12,2.12,0,0,0,1.16-.33,2.16,2.16,0,0,0,.79-.92l1.27.25a3.25,3.25,0,0,1-1.24,1.58,3.48,3.48,0,0,1-2,.57,3.57,3.57,0,0,1-2.64-1,3.71,3.71,0,0,1-1-2.76,3.76,3.76,0,0,1,1-2.76,3.49,3.49,0,0,1,2.6-1,3.35,3.35,0,0,1,2.47.93A3.7,3.7,0,0,1,610.64,469.11Zm-3.4-2.56a2.2,2.2,0,0,0-1.45.47,2.24,2.24,0,0,0-.74,1.39h4.17a2,2,0,0,0-.62-1.39A2,2,0,0,0,607.24,466.55Z"/><path d="M614.89,473a3.47,3.47,0,0,1-2-.52,2.11,2.11,0,0,1-1-1.49l1.2-.35a1.59,1.59,0,0,0,.59,1,1.86,1.86,0,0,0,1.14.34,1.82,1.82,0,0,0,1-.25.85.85,0,0,0,.39-.8.79.79,0,0,0-.06-.32.51.51,0,0,0-.18-.26l-.25-.2a1.68,1.68,0,0,0-.35-.16l-.39-.14-.46-.14-.48-.14a5,5,0,0,1-.73-.26,3.18,3.18,0,0,1-.6-.36,1.34,1.34,0,0,1-.46-.57,1.86,1.86,0,0,1-.16-.81,1.79,1.79,0,0,1,.74-1.55,3.18,3.18,0,0,1,1.87-.52,3.24,3.24,0,0,1,1.79.47,2,2,0,0,1,.9,1.43l-1.14.28a1.36,1.36,0,0,0-.54-.89,1.89,1.89,0,0,0-1.93,0,.81.81,0,0,0-.38.73.84.84,0,0,0,.12.45.92.92,0,0,0,.38.31,3.11,3.11,0,0,0,.5.21l.63.17.15,0,.7.19a6.21,6.21,0,0,1,.63.28,2.29,2.29,0,0,1,.56.39,1.86,1.86,0,0,1,.36.57,2.18,2.18,0,0,1,.14.79,2.35,2.35,0,0,1-.14.82,1.75,1.75,0,0,1-.4.61,2.25,2.25,0,0,1-.61.41,3.05,3.05,0,0,1-.74.24A4.46,4.46,0,0,1,614.89,473Z"/></g></g><g id="_Quién_es_el_cliente_" data-name=" Quién es el cliente " class="cls-3"><g class="cls-3"><path d="M36.88,305a1.64,1.64,0,0,1,3.27,0,1.49,1.49,0,0,1-.49,1.13,1.62,1.62,0,0,1-2.3,0A1.52,1.52,0,0,1,36.88,305Zm5.56-1.15h1.62a3.62,3.62,0,0,1,1.15.17,2.35,2.35,0,0,1,.87.54,4.85,4.85,0,0,1,.65.8,11,11,0,0,1,.61,1.1,3.15,3.15,0,0,0,3.13,1.72,3.47,3.47,0,0,0,2.52-.92,3.15,3.15,0,0,0,.95-2.36,3.12,3.12,0,0,0-1-2.37,3.59,3.59,0,0,0-2.52-.92,6.29,6.29,0,0,0-1.1.12l.24-2.23a6.74,6.74,0,0,1,1.11-.09,5.21,5.21,0,0,1,3.87,1.52,5.54,5.54,0,0,1-4,9.49,5.28,5.28,0,0,1-3.12-.84,4.86,4.86,0,0,1-1.71-2.14,2.9,2.9,0,0,0-.71-1.09,1.69,1.69,0,0,0-1.12-.35H42.44Z"/><path d="M51.1,277.1l.82,2.34L49.12,282a9.67,9.67,0,0,1,1.32,5,10.32,10.32,0,0,1-.66,3.72,9,9,0,0,1-1.89,3,8.6,8.6,0,0,1-3,2,11.44,11.44,0,0,1-8,0,8.6,8.6,0,0,1-3-2,9.16,9.16,0,0,1-1.88-3,10.73,10.73,0,0,1,0-7.41,9.11,9.11,0,0,1,1.88-3,8.49,8.49,0,0,1,3-2,10.53,10.53,0,0,1,4-.73,9.51,9.51,0,0,1,6.87,2.55ZM40.86,293.82a8.4,8.4,0,0,0,3.08-.53,6.44,6.44,0,0,0,2.28-1.44,6.3,6.3,0,0,0,1.38-2.15,7.27,7.27,0,0,0,.48-2.66,7.16,7.16,0,0,0-.48-2.64,6.1,6.1,0,0,0-3.66-3.57,8.62,8.62,0,0,0-3.08-.52,8.21,8.21,0,0,0-3,.52,6.16,6.16,0,0,0-2.24,1.43,6.47,6.47,0,0,0-1.36,2.13,7.58,7.58,0,0,0,0,5.31,6.56,6.56,0,0,0,1.36,2.15,6.18,6.18,0,0,0,2.24,1.44A8,8,0,0,0,40.86,293.82Z"/><path d="M37.14,265.45v-2.53h13v2.41l-1.69.07a4.15,4.15,0,0,1,1.43,1.65,5.08,5.08,0,0,1,.51,2.3,4.6,4.6,0,0,1-1.18,3.34,4.37,4.37,0,0,1-3.34,1.24H37.14v-2.55h8.23a3,3,0,0,0,2.23-.77,2.8,2.8,0,0,0,.73-2,3.08,3.08,0,0,0-.87-2.27,3.6,3.6,0,0,0-2.62-.89Z"/><path d="M34.25,257.09a1.59,1.59,0,0,1-.49,1.17,1.61,1.61,0,0,1-2.31,0,1.62,1.62,0,0,1-.48-1.17,1.56,1.56,0,0,1,.48-1.15,1.64,1.64,0,0,1,2.32,0A1.6,1.6,0,0,1,34.25,257.09Zm15.94,1.29h-13v-2.54h13Z"/><path d="M31.48,242.05,34.91,245v1.7l-4.39-3.33Zm11.93-2.32.68,0v10.11a4.39,4.39,0,0,0,3.17-1.21,4,4,0,0,0,1.11-2.86,3.83,3.83,0,0,0-.59-2.09,3.92,3.92,0,0,0-1.66-1.42l.45-2.29a5.78,5.78,0,0,1,2.84,2.23,6.21,6.21,0,0,1,1,3.54,6.45,6.45,0,0,1-1.81,4.77,6.73,6.73,0,0,1-5,1.81,6.74,6.74,0,0,1-5-1.82,6.3,6.3,0,0,1-1.82-4.68,6,6,0,0,1,1.67-4.44A6.63,6.63,0,0,1,43.41,239.73Zm-4.61,6.12a3.72,3.72,0,0,0,3.36,3.92v-7.5a3.69,3.69,0,0,0-2.5,1.12A3.58,3.58,0,0,0,38.8,245.85Z"/><path d="M36.88,229.84a4.6,4.6,0,0,1,1.18-3.34,4.4,4.4,0,0,1,3.34-1.23h8.79v2.54H42a3,3,0,0,0-2.24.77,2.78,2.78,0,0,0-.73,2,3.11,3.11,0,0,0,.87,2.28,3.59,3.59,0,0,0,2.62.89h7.71v2.53h-13v-2.53h1.61a4.26,4.26,0,0,1-1.39-1.64A5.17,5.17,0,0,1,36.88,229.84Z"/><path d="M43.41,202.39l.68,0v10.11a4.35,4.35,0,0,0,3.17-1.21,4,4,0,0,0,1.11-2.86,3.8,3.8,0,0,0-.59-2.08A3.94,3.94,0,0,0,46.12,205l.45-2.29a5.84,5.84,0,0,1,2.84,2.23,6.25,6.25,0,0,1,1,3.54,6.45,6.45,0,0,1-1.81,4.77,6.69,6.69,0,0,1-5,1.81,6.7,6.7,0,0,1-5-1.82,6.3,6.3,0,0,1-1.82-4.68,6,6,0,0,1,1.67-4.44A6.63,6.63,0,0,1,43.41,202.39Zm-4.61,6.12a3.72,3.72,0,0,0,3.36,3.93v-7.5a3.64,3.64,0,0,0-2.5,1.12A3.55,3.55,0,0,0,38.8,208.51Z"/><path d="M50.44,194.73a6.42,6.42,0,0,1-.93,3.58A3.89,3.89,0,0,1,46.82,200l-.62-2.17A2.83,2.83,0,0,0,48,196.8a3.35,3.35,0,0,0,.61-2.05,3.29,3.29,0,0,0-.45-1.78,1.53,1.53,0,0,0-1.45-.7,2.13,2.13,0,0,0-.58.1,1.13,1.13,0,0,0-.47.33c-.13.16-.25.31-.35.45a3.19,3.19,0,0,0-.29.63c-.1.28-.19.52-.25.7s-.14.45-.25.83-.19.66-.25.86a10.76,10.76,0,0,1-.47,1.32,6.31,6.31,0,0,1-.65,1.08,2.45,2.45,0,0,1-1,.83,3.57,3.57,0,0,1-1.45.28,3.21,3.21,0,0,1-2.79-1.32A5.74,5.74,0,0,1,36.9,195a5.85,5.85,0,0,1,.85-3.22,3.66,3.66,0,0,1,2.57-1.61l.5,2a2.47,2.47,0,0,0-1.59,1,3.41,3.41,0,0,0-.09,3.47,1.43,1.43,0,0,0,1.31.69,1.41,1.41,0,0,0,.8-.22,1.69,1.69,0,0,0,.57-.68,6.43,6.43,0,0,0,.37-.91c.1-.3.2-.68.32-1.13a2.13,2.13,0,0,1,.06-.28c.12-.5.24-.92.35-1.25a7.73,7.73,0,0,1,.49-1.13,3.77,3.77,0,0,1,.71-1,3,3,0,0,1,1-.65,3.61,3.61,0,0,1,1.43-.26,3.85,3.85,0,0,1,1.47.26,2.93,2.93,0,0,1,1.1.72,3.74,3.74,0,0,1,.74,1.09,5.45,5.45,0,0,1,.43,1.33A8.09,8.09,0,0,1,50.44,194.73Z"/><path d="M43.41,167.79l.68,0v10.11a4.39,4.39,0,0,0,3.17-1.22,3.93,3.93,0,0,0,1.11-2.86,3.82,3.82,0,0,0-.59-2.08,3.92,3.92,0,0,0-1.66-1.42l.45-2.3a5.8,5.8,0,0,1,2.84,2.24,6.21,6.21,0,0,1,1,3.54,6.42,6.42,0,0,1-1.81,4.76,6.7,6.7,0,0,1-5,1.82,6.74,6.74,0,0,1-5-1.82,6.33,6.33,0,0,1-1.82-4.68,6,6,0,0,1,1.67-4.45A6.62,6.62,0,0,1,43.41,167.79ZM38.8,173.9a3.72,3.72,0,0,0,3.36,3.93v-7.5a3.69,3.69,0,0,0-2.5,1.12A3.55,3.55,0,0,0,38.8,173.9Z"/><path d="M50.19,164.33H29.94v-2.54H50.19Z"/><path d="M50.43,144.74a6.4,6.4,0,0,1-1.88,4.74,6.67,6.67,0,0,1-4.9,1.87,6.69,6.69,0,0,1-4.9-1.87,7,7,0,0,1-.71-8.6,5.77,5.77,0,0,1,3.24-2.19l.35,2.36a3.8,3.8,0,0,0-2,1.42,3.89,3.89,0,0,0-.69,2.3,3.7,3.7,0,0,0,1.29,2.9,5,5,0,0,0,3.4,1.14,5,5,0,0,0,3.4-1.14,3.71,3.71,0,0,0,1.3-2.9,3.77,3.77,0,0,0-2.68-3.72l.36-2.36a5.74,5.74,0,0,1,3.23,2.21A6.38,6.38,0,0,1,50.43,144.74Z"/><path d="M50.19,135.43H29.94v-2.54H50.19Z"/><path d="M34.25,127.06a1.59,1.59,0,0,1-.49,1.17,1.61,1.61,0,0,1-2.31,0,1.62,1.62,0,0,1-.48-1.17,1.56,1.56,0,0,1,.48-1.15,1.64,1.64,0,0,1,2.32,0A1.6,1.6,0,0,1,34.25,127.06Zm15.94,1.29h-13v-2.54h13Z"/><path d="M43.41,109.7l.68,0v10.11a4.39,4.39,0,0,0,3.17-1.21,4,4,0,0,0,1.11-2.86,3.83,3.83,0,0,0-.59-2.09,3.92,3.92,0,0,0-1.66-1.42l.45-2.29a5.78,5.78,0,0,1,2.84,2.23,6.21,6.21,0,0,1,1,3.54,6.45,6.45,0,0,1-1.81,4.77,6.73,6.73,0,0,1-5,1.81,6.74,6.74,0,0,1-5-1.82,6.3,6.3,0,0,1-1.82-4.68,6,6,0,0,1,1.67-4.44A6.63,6.63,0,0,1,43.41,109.7Zm-4.61,6.12a3.72,3.72,0,0,0,3.36,3.92v-7.5a3.69,3.69,0,0,0-2.5,1.12A3.58,3.58,0,0,0,38.8,115.82Z"/><path d="M36.88,99.81a4.6,4.6,0,0,1,1.18-3.34,4.4,4.4,0,0,1,3.34-1.23h8.79v2.54H42a3,3,0,0,0-2.24.77,2.78,2.78,0,0,0-.73,2,3.11,3.11,0,0,0,.87,2.28,3.59,3.59,0,0,0,2.62.89h7.71v2.53h-13v-2.53h1.61a4.26,4.26,0,0,1-1.39-1.64A5.17,5.17,0,0,1,36.88,99.81Z"/><path d="M50.19,86.67a3.56,3.56,0,0,1-.95,2.61,3.68,3.68,0,0,1-2.69,1H39.13v2.66h-2v-1a1.91,1.91,0,0,0-.48-1.47,2.29,2.29,0,0,0-1.6-.44H32.8V87.68h4.34v-3h2v3h7.16a1.94,1.94,0,0,0,1.41-.48,1.69,1.69,0,0,0,.5-1.27v-1.2h2Z"/><path d="M43.41,70.06l.68,0V80.21A4.39,4.39,0,0,0,47.26,79a3.93,3.93,0,0,0,1.11-2.86,3.82,3.82,0,0,0-.59-2.08,3.92,3.92,0,0,0-1.66-1.42l.45-2.3a5.8,5.8,0,0,1,2.84,2.24,6.21,6.21,0,0,1,1,3.54,6.42,6.42,0,0,1-1.81,4.76,6.7,6.7,0,0,1-5,1.82,6.74,6.74,0,0,1-5-1.82,6.33,6.33,0,0,1-1.82-4.68,6,6,0,0,1,1.67-4.45A6.62,6.62,0,0,1,43.41,70.06ZM38.8,76.17a3.72,3.72,0,0,0,3.36,3.93V72.6a3.69,3.69,0,0,0-2.5,1.12A3.55,3.55,0,0,0,38.8,76.17Z"/><path d="M44.89,63.15H43.27A3.62,3.62,0,0,1,42.12,63a2.35,2.35,0,0,1-.87-.54,4.47,4.47,0,0,1-.65-.8c-.18-.28-.38-.65-.61-1.1a3.15,3.15,0,0,0-3.13-1.72,3.47,3.47,0,0,0-2.52.92,3.15,3.15,0,0,0-.94,2.37,3.1,3.1,0,0,0,1,2.36,3.6,3.6,0,0,0,2.53.92A6.29,6.29,0,0,0,38,65.27l-.24,2.23a6.74,6.74,0,0,1-1.11.09,5.21,5.21,0,0,1-3.87-1.52,5.54,5.54,0,0,1,4-9.49,5.19,5.19,0,0,1,3.12.85,4.78,4.78,0,0,1,1.71,2.13,2.82,2.82,0,0,0,.71,1.09,1.69,1.69,0,0,0,1.12.35h1.41ZM50.46,62A1.57,1.57,0,0,1,50,63.15a1.54,1.54,0,0,1-1.15.49,1.57,1.57,0,0,1-1.15-.49A1.6,1.6,0,0,1,47.19,62a1.52,1.52,0,0,1,.48-1.13,1.62,1.62,0,0,1,2.3,0A1.53,1.53,0,0,1,50.46,62Z"/></g></g><g id="_Quién_es_el_cliente_2" data-name=" Quién es el cliente 2" class="cls-3"><g class="cls-3"><path d="M710.54,305a1.56,1.56,0,0,1,.48-1.15,1.6,1.6,0,0,1,1.16-.48,1.56,1.56,0,0,1,1.15.48,1.6,1.6,0,0,1,.48,1.15,1.52,1.52,0,0,1-.48,1.13,1.56,1.56,0,0,1-1.15.48,1.6,1.6,0,0,1-1.16-.48A1.52,1.52,0,0,1,710.54,305Zm5.57-1.15h1.62a3.62,3.62,0,0,1,1.15.17,2.35,2.35,0,0,1,.87.54,4.85,4.85,0,0,1,.65.8c.18.28.38.65.61,1.1a3.14,3.14,0,0,0,3.13,1.72,3.47,3.47,0,0,0,2.52-.92,3.14,3.14,0,0,0,.94-2.36,3.11,3.11,0,0,0-1-2.37,3.61,3.61,0,0,0-2.53-.92,6.29,6.29,0,0,0-1.09.12l.24-2.23a6.71,6.71,0,0,1,1.1-.09,5.22,5.22,0,0,1,3.88,1.52,5.39,5.39,0,0,1,1.5,3.94,5.48,5.48,0,0,1-1.52,4,5.36,5.36,0,0,1-4,1.56,5.24,5.24,0,0,1-3.12-.84,4.86,4.86,0,0,1-1.71-2.14,2.9,2.9,0,0,0-.71-1.09,1.69,1.69,0,0,0-1.12-.35h-1.41Z"/><path d="M724.77,277.1l.82,2.34-2.8,2.56a9.67,9.67,0,0,1,1.32,5,10.12,10.12,0,0,1-.67,3.72,8.84,8.84,0,0,1-1.88,3,8.69,8.69,0,0,1-3,2,10.8,10.8,0,0,1-4,.72,10.68,10.68,0,0,1-4-.72,8.6,8.6,0,0,1-3-2,9,9,0,0,1-1.88-3,10.73,10.73,0,0,1,0-7.41,9,9,0,0,1,1.88-3,8.49,8.49,0,0,1,3-2,10.48,10.48,0,0,1,4-.73,9.47,9.47,0,0,1,6.87,2.55Zm-10.25,16.72a8.37,8.37,0,0,0,3.08-.53,6.27,6.27,0,0,0,2.28-1.44,6.18,6.18,0,0,0,1.39-2.15,7.27,7.27,0,0,0,.48-2.66,7.16,7.16,0,0,0-.48-2.64,6.15,6.15,0,0,0-3.67-3.57,8.58,8.58,0,0,0-3.08-.52,8.2,8.2,0,0,0-3,.52,6.08,6.08,0,0,0-2.24,1.43,6.31,6.31,0,0,0-1.36,2.13,7.44,7.44,0,0,0,0,5.31,6.4,6.4,0,0,0,1.36,2.15,6.1,6.1,0,0,0,2.24,1.44A8,8,0,0,0,714.52,293.82Z"/><path d="M710.81,265.45v-2.53h13.05v2.41l-1.69.07a4.23,4.23,0,0,1,1.43,1.65,5.08,5.08,0,0,1,.51,2.3,4.6,4.6,0,0,1-1.18,3.34,4.38,4.38,0,0,1-3.34,1.24h-8.78v-2.55H719a3,3,0,0,0,2.24-.77,2.8,2.8,0,0,0,.73-2,3.08,3.08,0,0,0-.87-2.27,3.6,3.6,0,0,0-2.62-.89Z"/><path d="M707.92,257.09a1.59,1.59,0,0,1-.49,1.17,1.56,1.56,0,0,1-1.16.49,1.54,1.54,0,0,1-1.15-.49,1.62,1.62,0,0,1-.48-1.17,1.64,1.64,0,0,1,1.63-1.63,1.64,1.64,0,0,1,1.65,1.63Zm15.94,1.29H710.81v-2.54h13.05Z"/><path d="M705.15,242.05l3.43,2.95v1.7l-4.39-3.33Zm11.93-2.32.68,0v10.11a4.41,4.41,0,0,0,3.17-1.21,4,4,0,0,0,1.11-2.86,3.83,3.83,0,0,0-.59-2.09,3.89,3.89,0,0,0-1.67-1.42l.45-2.29a5.74,5.74,0,0,1,2.84,2.23,6.22,6.22,0,0,1,1,3.54,6.45,6.45,0,0,1-1.81,4.77,7.7,7.7,0,0,1-9.93,0,6.31,6.31,0,0,1-1.83-4.68,6,6,0,0,1,1.68-4.44A6.61,6.61,0,0,1,717.08,239.73Zm-4.61,6.12a3.72,3.72,0,0,0,3.36,3.92v-7.5a3.69,3.69,0,0,0-2.5,1.12A3.53,3.53,0,0,0,712.47,245.85Z"/><path d="M710.54,229.84a4.65,4.65,0,0,1,1.18-3.34,4.42,4.42,0,0,1,3.35-1.23h8.79v2.54h-8.23a3,3,0,0,0-2.25.77,2.82,2.82,0,0,0-.73,2,3.08,3.08,0,0,0,.88,2.28,3.58,3.58,0,0,0,2.62.89h7.71v2.53H710.81v-2.53h1.61A4.26,4.26,0,0,1,711,232.1,5.17,5.17,0,0,1,710.54,229.84Z"/><path d="M717.08,202.39l.68,0v10.11a4.37,4.37,0,0,0,3.17-1.21,4,4,0,0,0,1.11-2.86,3.8,3.8,0,0,0-.59-2.08,3.91,3.91,0,0,0-1.67-1.43l.45-2.29a5.79,5.79,0,0,1,2.84,2.23,6.26,6.26,0,0,1,1,3.54,6.45,6.45,0,0,1-1.81,4.77,7.7,7.7,0,0,1-9.93,0,6.31,6.31,0,0,1-1.83-4.68,6,6,0,0,1,1.68-4.44A6.61,6.61,0,0,1,717.08,202.39Zm-4.61,6.12a3.72,3.72,0,0,0,3.36,3.93v-7.5a3.64,3.64,0,0,0-2.5,1.12A3.51,3.51,0,0,0,712.47,208.51Z"/><path d="M724.11,194.73a6.34,6.34,0,0,1-.94,3.58,3.87,3.87,0,0,1-2.69,1.72l-.62-2.17a2.77,2.77,0,0,0,1.76-1.06,3.35,3.35,0,0,0,.62-2.05,3.21,3.21,0,0,0-.46-1.78,1.5,1.5,0,0,0-1.44-.7,2.07,2.07,0,0,0-.58.1,1.07,1.07,0,0,0-.47.33,5.6,5.6,0,0,0-.35.45,3.78,3.78,0,0,0-.3.63c-.1.28-.18.52-.24.7s-.14.45-.25.83l-.25.86a12.74,12.74,0,0,1-.47,1.32,6.31,6.31,0,0,1-.65,1.08,2.52,2.52,0,0,1-1,.83,3.6,3.6,0,0,1-1.45.28,3.21,3.21,0,0,1-2.79-1.32,5.67,5.67,0,0,1-.94-3.38,5.77,5.77,0,0,1,.85-3.22,3.66,3.66,0,0,1,2.56-1.61l.51,2a2.42,2.42,0,0,0-1.59,1,3.1,3.1,0,0,0-.52,1.8,3.16,3.16,0,0,0,.42,1.67,1.45,1.45,0,0,0,1.32.69,1.44,1.44,0,0,0,.8-.22,1.69,1.69,0,0,0,.57-.68,6.43,6.43,0,0,0,.37-.91c.09-.3.2-.68.31-1.13,0-.12.05-.22.07-.28.12-.5.24-.92.35-1.25a7.73,7.73,0,0,1,.49-1.13,3.77,3.77,0,0,1,.71-1,3,3,0,0,1,1-.65,3.59,3.59,0,0,1,1.42-.26,3.87,3.87,0,0,1,1.48.26,2.93,2.93,0,0,1,1.1.72,4,4,0,0,1,.74,1.09,5.45,5.45,0,0,1,.43,1.33A9,9,0,0,1,724.11,194.73Z"/><path d="M717.08,167.79l.68,0v10.11a4.41,4.41,0,0,0,3.17-1.22,3.93,3.93,0,0,0,1.11-2.86,3.82,3.82,0,0,0-.59-2.08,3.89,3.89,0,0,0-1.67-1.42l.45-2.3a5.75,5.75,0,0,1,2.84,2.24,6.22,6.22,0,0,1,1,3.54,6.42,6.42,0,0,1-1.81,4.76,7.68,7.68,0,0,1-9.93,0,6.34,6.34,0,0,1-1.83-4.68,6,6,0,0,1,1.68-4.45A6.61,6.61,0,0,1,717.08,167.79Zm-4.61,6.11a3.72,3.72,0,0,0,3.36,3.93v-7.5a3.69,3.69,0,0,0-2.5,1.12A3.51,3.51,0,0,0,712.47,173.9Z"/><path d="M723.86,164.33H703.61v-2.54h20.25Z"/><path d="M724.1,144.74a6.4,6.4,0,0,1-1.88,4.74,7.35,7.35,0,0,1-9.8,0,6.4,6.4,0,0,1-1.88-4.74,6.48,6.48,0,0,1,1.16-3.86,5.82,5.82,0,0,1,3.25-2.19l.35,2.36a3.8,3.8,0,0,0-2,1.42,3.89,3.89,0,0,0-.69,2.3,3.7,3.7,0,0,0,1.29,2.9,5.63,5.63,0,0,0,6.79,0,3.68,3.68,0,0,0,1.3-2.9,3.89,3.89,0,0,0-.69-2.3,3.8,3.8,0,0,0-2-1.42l.35-2.36a5.76,5.76,0,0,1,3.24,2.21A6.38,6.38,0,0,1,724.1,144.74Z"/><path d="M723.86,135.43H703.61v-2.54h20.25Z"/><path d="M707.92,127.06a1.59,1.59,0,0,1-.49,1.17,1.56,1.56,0,0,1-1.16.49,1.54,1.54,0,0,1-1.15-.49,1.62,1.62,0,0,1-.48-1.17,1.64,1.64,0,0,1,1.63-1.63,1.64,1.64,0,0,1,1.65,1.63Zm15.94,1.29H710.81v-2.54h13.05Z"/><path d="M717.08,109.7l.68,0v10.11a4.41,4.41,0,0,0,3.17-1.21,4,4,0,0,0,1.11-2.86,3.83,3.83,0,0,0-.59-2.09,3.89,3.89,0,0,0-1.67-1.42l.45-2.29a5.74,5.74,0,0,1,2.84,2.23,6.22,6.22,0,0,1,1,3.54,6.45,6.45,0,0,1-1.81,4.77,7.7,7.7,0,0,1-9.93,0,6.31,6.31,0,0,1-1.83-4.68,6,6,0,0,1,1.68-4.44A6.61,6.61,0,0,1,717.08,109.7Zm-4.61,6.12a3.72,3.72,0,0,0,3.36,3.92v-7.5a3.69,3.69,0,0,0-2.5,1.12A3.53,3.53,0,0,0,712.47,115.82Z"/><path d="M710.54,99.81a4.65,4.65,0,0,1,1.18-3.34,4.42,4.42,0,0,1,3.35-1.23h8.79v2.54h-8.23a3,3,0,0,0-2.25.77,2.82,2.82,0,0,0-.73,2,3.08,3.08,0,0,0,.88,2.28,3.58,3.58,0,0,0,2.62.89h7.71v2.53H710.81v-2.53h1.61a4.26,4.26,0,0,1-1.39-1.64A5.17,5.17,0,0,1,710.54,99.81Z"/><path d="M723.86,86.67a3.53,3.53,0,0,1-1,2.61,3.64,3.64,0,0,1-2.68,1H712.8v2.66h-2v-1a1.91,1.91,0,0,0-.48-1.47,2.3,2.3,0,0,0-1.61-.44h-2.25V87.68h4.34v-3h2v3H720a2,2,0,0,0,1.41-.48,1.69,1.69,0,0,0,.5-1.27v-1.2h2Z"/><path d="M717.08,70.06l.68,0V80.21A4.41,4.41,0,0,0,720.93,79,3.93,3.93,0,0,0,722,76.13a3.82,3.82,0,0,0-.59-2.08,3.89,3.89,0,0,0-1.67-1.42l.45-2.3a5.75,5.75,0,0,1,2.84,2.24,6.22,6.22,0,0,1,1,3.54,6.42,6.42,0,0,1-1.81,4.76,7.68,7.68,0,0,1-9.93,0,6.34,6.34,0,0,1-1.83-4.68,6,6,0,0,1,1.68-4.45A6.61,6.61,0,0,1,717.08,70.06Zm-4.61,6.11a3.72,3.72,0,0,0,3.36,3.93V72.6a3.69,3.69,0,0,0-2.5,1.12A3.51,3.51,0,0,0,712.47,76.17Z"/><path d="M718.56,63.15h-1.62a3.62,3.62,0,0,1-1.15-.17,2.35,2.35,0,0,1-.87-.54,4.47,4.47,0,0,1-.65-.8c-.18-.28-.39-.65-.62-1.1a3.13,3.13,0,0,0-3.12-1.72,3.46,3.46,0,0,0-2.52.92,3.16,3.16,0,0,0-1,2.37,3.08,3.08,0,0,0,1,2.36,3.57,3.57,0,0,0,2.52.92,6.39,6.39,0,0,0,1.1-.12l-.24,2.23a6.74,6.74,0,0,1-1.11.09,5.21,5.21,0,0,1-3.87-1.52A5.35,5.35,0,0,1,705,62.13a5.44,5.44,0,0,1,1.53-4,5.34,5.34,0,0,1,4-1.56,5.21,5.21,0,0,1,3.12.85,4.92,4.92,0,0,1,1.71,2.13,2.82,2.82,0,0,0,.71,1.09,1.67,1.67,0,0,0,1.12.35h1.41ZM724.12,62a1.56,1.56,0,0,1-.48,1.15,1.54,1.54,0,0,1-1.15.49A1.66,1.66,0,0,1,720.85,62a1.52,1.52,0,0,1,.48-1.13,1.59,1.59,0,0,1,1.16-.48,1.56,1.56,0,0,1,1.15.48A1.52,1.52,0,0,1,724.12,62Z"/></g></g><g id="Grupo_38423" data-name="Grupo 38423"><rect id="Rectángulo_32554" data-name="Rectángulo 32554" class="cls-4" x="112.01" y="166.55" width="118.02" height="30.02"/><path id="Trazado_82755" data-name="Trazado 82755" class="cls-4" d="M262.42,181.66,209.32,151v61.3Z"/></g><g id="Grupo_38423-2" data-name="Grupo 38423"><rect id="Rectángulo_32554-2" data-name="Rectángulo 32554" class="cls-4" x="484.54" y="166.55" width="118.02" height="30.02"/><path id="Trazado_82755-2" data-name="Trazado 82755" class="cls-4" d="M635,181.66,581.85,151v61.3Z"/></g><g id="Grupo_38426" data-name="Grupo 38426"><rect id="Rectángulo_32556" data-name="Rectángulo 32556" class="cls-4" x="267.22" y="-10.59" width="1.68" height="162.16" transform="translate(47.8 238.75) rotate(-52.11)"/><g id="Grupo_38425" data-name="Grupo 38425"><path id="Trazado_82757" data-name="Trazado 82757" class="cls-4" d="M323.42,122.37l-.15-1.68,8.25-.72-1.32-8.18,1.66-.26,1.61,10Z"/></g></g><g id="Grupo_38428" data-name="Grupo 38428"><rect id="Rectángulo_32557" data-name="Rectángulo 32557" class="cls-4" x="395.33" y="69.73" width="162.16" height="1.68" transform="translate(57.09 307.46) rotate(-37.89)"/><g id="Grupo_38427" data-name="Grupo 38427"><path id="Trazado_82758" data-name="Trazado 82758" class="cls-4" d="M421,122.37l.15-1.68-8.25-.72,1.32-8.18-1.66-.26-1.61,10Z"/></g></g><g id="Grupo_38430" data-name="Grupo 38430"><rect id="Rectángulo_32558" data-name="Rectángulo 32558" class="cls-4" x="186.98" y="295.41" width="162.16" height="1.68" transform="translate(-125.43 227.08) rotate(-37.89)"/><g id="Grupo_38429" data-name="Grupo 38429"><path id="Trazado_82759" data-name="Trazado 82759" class="cls-4" d="M323.42,244.38l-.15,1.67,8.25.72L330.2,255l1.66.27,1.61-10Z"/></g></g><g id="Grupo_38432" data-name="Grupo 38432"><rect id="Rectángulo_32559" data-name="Rectángulo 32559" class="cls-4" x="475.57" y="215.09" width="1.68" height="162.16" transform="translate(-49.91 490.25) rotate(-52.11)"/><g id="Grupo_38431" data-name="Grupo 38431"><path id="Trazado_82760" data-name="Trazado 82760" class="cls-4" d="M421,244.38l.15,1.67-8.25.72,1.32,8.18-1.66.27-1.61-10Z"/></g></g><rect id="Rectángulo_32560" data-name="Rectángulo 32560" class="cls-5" x="0.54" y="0.54" width="755.6" height="575.86"/><g id="Fuente._Jiménez" data-name="Fuente. Jiménez" class="cls-3"><g class="cls-3"><path class="cls-6" d="M289.49,506.37h-5.05v3.86h4.39v1.57h-4.39v5.42h-1.78V504.79h6.83Z"/><path class="cls-6" d="M297.16,508.52h1.69v8.7h-1.61l-.05-1.12a2.74,2.74,0,0,1-1.1.95,3.31,3.31,0,0,1-1.53.34,3.07,3.07,0,0,1-2.23-.79,2.91,2.91,0,0,1-.82-2.23v-5.85h1.69V514a2,2,0,0,0,.52,1.49,1.89,1.89,0,0,0,1.33.48,2.06,2.06,0,0,0,1.52-.58,2.4,2.4,0,0,0,.59-1.75Z"/><path class="cls-6" d="M309.59,512.7l0,.45h-6.74a3,3,0,0,0,.81,2.12,2.64,2.64,0,0,0,1.91.74,2.45,2.45,0,0,0,1.38-.4,2.56,2.56,0,0,0,.95-1.1l1.53.3a3.83,3.83,0,0,1-1.49,1.89,4.14,4.14,0,0,1-2.36.69,4.26,4.26,0,0,1-3.17-1.21,5.13,5.13,0,0,1,0-6.62,4.22,4.22,0,0,1,3.12-1.21,4,4,0,0,1,3,1.11A4.43,4.43,0,0,1,309.59,512.7Zm-4.08-3.07a2.68,2.68,0,0,0-1.73.56,2.65,2.65,0,0,0-.89,1.68h5a2.45,2.45,0,0,0-.75-1.67A2.35,2.35,0,0,0,305.51,509.63Z"/><path class="cls-6" d="M316.18,508.35a3.11,3.11,0,0,1,2.23.78,3,3,0,0,1,.82,2.23v5.86h-1.7v-5.48a2,2,0,0,0-.51-1.5,1.83,1.83,0,0,0-1.32-.49,2.09,2.09,0,0,0-1.53.59,2.36,2.36,0,0,0-.59,1.74v5.14h-1.69v-8.7h1.69v1.07a2.79,2.79,0,0,1,1.09-.92A3.38,3.38,0,0,1,316.18,508.35Z"/><path class="cls-6" d="M324.94,517.22a2.35,2.35,0,0,1-1.74-.63,2.46,2.46,0,0,1-.63-1.79v-4.95h-1.78v-1.33h.64a1.24,1.24,0,0,0,1-.32,1.52,1.52,0,0,0,.3-1.07v-1.5h1.55v2.89h2v1.33h-2v4.77a1.28,1.28,0,0,0,.33.94,1.11,1.11,0,0,0,.84.34h.8v1.32Z"/><path class="cls-6" d="M336,512.7l0,.45h-6.74a3,3,0,0,0,.81,2.12,2.63,2.63,0,0,0,1.9.74,2.46,2.46,0,0,0,1.39-.4,2.56,2.56,0,0,0,.95-1.1l1.53.3a3.83,3.83,0,0,1-1.49,1.89,4.14,4.14,0,0,1-2.36.69,4.3,4.3,0,0,1-3.18-1.21,5.15,5.15,0,0,1,0-6.62,4.22,4.22,0,0,1,3.12-1.21,4,4,0,0,1,3,1.11A4.47,4.47,0,0,1,336,512.7Zm-4.08-3.07a2.68,2.68,0,0,0-1.73.56,2.65,2.65,0,0,0-.89,1.68h5a2.45,2.45,0,0,0-.75-1.67A2.37,2.37,0,0,0,331.94,509.63Z"/><path class="cls-6" d="M340.12,517.08a1.07,1.07,0,0,1-.77.32,1.06,1.06,0,0,1-.77-.32,1,1,0,0,1-.32-.77,1.09,1.09,0,0,1,.32-.77,1.06,1.06,0,0,1,1.54,0,1.06,1.06,0,0,1,.33.77A1,1,0,0,1,340.12,517.08Z"/><path class="cls-6" d="M351.63,521.58a7.42,7.42,0,0,1-2.72-3.62,17.49,17.49,0,0,1,0-11.63,7.53,7.53,0,0,1,2.71-3.64l.92,1.12a6.18,6.18,0,0,0-2.28,3.13,14.41,14.41,0,0,0-.85,5.19,14.58,14.58,0,0,0,.84,5.2,6.26,6.26,0,0,0,2.29,3.12Z"/><path class="cls-6" d="M356.11,517.39a5.84,5.84,0,0,1-2.82-.75l.76-1.47a3.38,3.38,0,0,0,1.91.61,1.86,1.86,0,0,0,1.51-.65,2.81,2.81,0,0,0,.54-1.85v-8.49h1.75v8.81a3.79,3.79,0,0,1-1,2.77A3.57,3.57,0,0,1,356.11,517.39Z"/><path class="cls-6" d="M363.84,506.6a1.07,1.07,0,0,1-.78-.33,1,1,0,0,1-.33-.77,1,1,0,0,1,.33-.77,1.1,1.1,0,0,1,.78-.32,1.1,1.1,0,0,1,0,2.19ZM363,517.22v-8.7h1.7v8.7Z"/><path class="cls-6" d="M376.84,508.35a2.87,2.87,0,0,1,2.06.73,2.71,2.71,0,0,1,.78,2.07v6.07H378V511.6a1.87,1.87,0,0,0-.46-1.38,1.58,1.58,0,0,0-1.16-.47,1.7,1.7,0,0,0-1.31.54,2.31,2.31,0,0,0-.5,1.63v5.3h-1.72v-5.56a2,2,0,0,0-.46-1.43,1.59,1.59,0,0,0-1.19-.48,1.71,1.71,0,0,0-1.31.56,2.42,2.42,0,0,0-.5,1.67v5.24H367.7v-8.7h1.68v1.11a2.66,2.66,0,0,1,2.41-1.28,3.07,3.07,0,0,1,1.51.36,2.23,2.23,0,0,1,1,1,2.74,2.74,0,0,1,1.07-1A3.08,3.08,0,0,1,376.84,508.35Z"/><path class="cls-6" d="M390.27,512.7l0,.45H383.5a3,3,0,0,0,.81,2.12,2.66,2.66,0,0,0,1.91.74,2.48,2.48,0,0,0,1.39-.4,2.62,2.62,0,0,0,.95-1.1l1.53.3a4,4,0,0,1-1.49,1.89,4.16,4.16,0,0,1-2.36.69,4.27,4.27,0,0,1-3.18-1.21,5.13,5.13,0,0,1,0-6.62,4.22,4.22,0,0,1,3.12-1.21,4,4,0,0,1,3,1.11A4.43,4.43,0,0,1,390.27,512.7Zm-4.08-3.07a2.47,2.47,0,0,0-2.62,2.24h5a2.48,2.48,0,0,0-.74-1.67A2.39,2.39,0,0,0,386.19,509.63Zm2.53-4.88-2,2.29h-1.13l2.22-2.93Z"/><path class="cls-6" d="M396.86,508.35a3.11,3.11,0,0,1,2.23.78,2.94,2.94,0,0,1,.82,2.23v5.86h-1.69v-5.48a2,2,0,0,0-.52-1.5,1.81,1.81,0,0,0-1.32-.49,2.07,2.07,0,0,0-1.52.59,2.41,2.41,0,0,0-.6,1.74v5.14h-1.69v-8.7h1.69v1.07a2.86,2.86,0,0,1,1.09-.92A3.41,3.41,0,0,1,396.86,508.35Z"/><path class="cls-6" d="M410.48,512.7l0,.45h-6.74a3,3,0,0,0,.81,2.12,2.63,2.63,0,0,0,1.9.74,2.46,2.46,0,0,0,1.39-.4,2.56,2.56,0,0,0,.95-1.1l1.53.3a3.83,3.83,0,0,1-1.49,1.89,4.14,4.14,0,0,1-2.36.69,4.3,4.3,0,0,1-3.18-1.21,5.12,5.12,0,0,1,0-6.62,4.22,4.22,0,0,1,3.12-1.21,4,4,0,0,1,3,1.11A4.43,4.43,0,0,1,410.48,512.7Zm-4.07-3.07a2.68,2.68,0,0,0-1.73.56,2.65,2.65,0,0,0-.89,1.68h5a2.45,2.45,0,0,0-.75-1.67A2.37,2.37,0,0,0,406.41,509.63Z"/><path class="cls-6" d="M418.46,508.52,414,515.87h4.47v1.35h-7l4.46-7.35h-4.19v-1.35Z"/><path class="cls-6" d="M421.8,520.4h-1.23l1.08-5.5h1.75Z"/><path class="cls-6" d="M432.7,515.68h6v1.54H430.3V516l5-5.14a5.34,5.34,0,0,0,1.07-1.41,2.85,2.85,0,0,0,.3-1.23,2,2,0,0,0-.6-1.57,2.47,2.47,0,0,0-3.19,0,2.66,2.66,0,0,0-.6,1.92v.93l-1.69-.16v-.75a3.61,3.61,0,0,1,3.92-4,4,4,0,0,1,2.75.94,3.31,3.31,0,0,1,1.07,2.59,3.92,3.92,0,0,1-.41,1.78,7.84,7.84,0,0,1-1.34,1.77Z"/><path class="cls-6" d="M444.77,517.39a3.54,3.54,0,0,1-3.11-1.62,11,11,0,0,1,0-9.53,3.82,3.82,0,0,1,6.23,0,11,11,0,0,1,0,9.53A3.52,3.52,0,0,1,444.77,517.39Zm0-1.56a2,2,0,0,0,1.86-1.2,7.92,7.92,0,0,0,.65-3.63,7.72,7.72,0,0,0-.66-3.63,2,2,0,0,0-3.7,0,7.75,7.75,0,0,0-.65,3.64,7.94,7.94,0,0,0,.64,3.63A2,2,0,0,0,444.77,515.83Z"/><path class="cls-6" d="M453.16,515.68h6v1.54h-8.44V516l5-5.14a5.34,5.34,0,0,0,1.07-1.41,2.85,2.85,0,0,0,.3-1.23,2,2,0,0,0-.6-1.57,2.47,2.47,0,0,0-3.19,0,2.66,2.66,0,0,0-.6,1.92v.93l-1.69-.16v-.75a3.61,3.61,0,0,1,3.92-4,4,4,0,0,1,2.75.94,3.28,3.28,0,0,1,1.07,2.59,3.92,3.92,0,0,1-.41,1.78,7.84,7.84,0,0,1-1.34,1.77Z"/><path class="cls-6" d="M465.23,517.39a3.51,3.51,0,0,1-3.1-1.62,11,11,0,0,1,0-9.53,3.82,3.82,0,0,1,6.23,0,11,11,0,0,1,0,9.53A3.52,3.52,0,0,1,465.23,517.39Zm0-1.56a2,2,0,0,0,1.86-1.2,7.92,7.92,0,0,0,.65-3.63,7.72,7.72,0,0,0-.66-3.63,2,2,0,0,0-3.7,0,7.75,7.75,0,0,0-.65,3.64,7.94,7.94,0,0,0,.64,3.63A2,2,0,0,0,465.23,515.83Z"/><path class="cls-6" d="M471.6,521.58l-.91-1.13a6.26,6.26,0,0,0,2.29-3.12,14.58,14.58,0,0,0,.84-5.2,14.41,14.41,0,0,0-.85-5.19,6.23,6.23,0,0,0-2.28-3.13l.91-1.12a7.48,7.48,0,0,1,2.72,3.64,17.57,17.57,0,0,1,0,11.63A7.31,7.31,0,0,1,471.6,521.58Z"/></g></g></g></g></svg>