<svg xmlns="http://www.w3.org/2000/svg" xmlns:xlink="http://www.w3.org/1999/xlink" width="501" height="151.674" viewBox="0 0 501 151.674">
  <defs>
    <clipPath id="clip-path">
      <path id="Trazado_82986" data-name="Trazado 82986" d="M268.757,330.007c.011,2.159-1.738,2.355-3.9,2.366a3.91,3.91,0,0,1-.041-7.819C266.978,324.543,268.745,327.847,268.757,330.007Z" transform="translate(-260.93 -324.554)" fill="#fca89e"/>
    </clipPath>
    <clipPath id="clip-path-2">
      <path id="Trazado_82992" data-name="Trazado 82992" d="M266.025,358.532l11.364-.947-3.295-18.533c-.271-1.278-2.388-3.26-3.638-2.883l-8.37,2.448a2.232,2.232,0,0,0-1.431,2.958Z" transform="translate(-260.498 -336.122)" fill="none"/>
    </clipPath>
    <clipPath id="clip-path-3">
      <path id="Trazado_83007" data-name="Trazado 83007" d="M373.089,329.472c.622,2.1,2.379,1.78,4.481,1.159a3.969,3.969,0,0,0-2.249-7.612C373.219,323.64,372.469,327.37,373.089,329.472Z" transform="translate(-372.878 -322.855)" fill="#fca89e"/>
    </clipPath>
  </defs>
  <g id="Grupo_40300" data-name="Grupo 40300" transform="translate(-422 -1839.692)">
    <path id="Trazado_84136" data-name="Trazado 84136" d="M0,0H349V117H0Z" transform="translate(574 1860)" fill="#c0dff1"/>
    <path id="Trazado_84137" data-name="Trazado 84137" d="M14.719,9.895a3.6,3.6,0,0,1-1.332,3,6.032,6.032,0,0,1-3.81,1.05H8.065V19H6.571V6.15H9.9Q14.719,6.15,14.719,9.895ZM8.065,12.663H9.41a5,5,0,0,0,2.874-.642,2.365,2.365,0,0,0,.888-2.057,2.217,2.217,0,0,0-.835-1.9,4.362,4.362,0,0,0-2.6-.624H8.065ZM25.5,14.175a5.314,5.314,0,0,1-1.187,3.678,4.179,4.179,0,0,1-3.278,1.323,4.342,4.342,0,0,1-2.294-.606,4,4,0,0,1-1.547-1.74,6.065,6.065,0,0,1-.545-2.654,5.306,5.306,0,0,1,1.178-3.669A4.165,4.165,0,0,1,21.1,9.191a4.075,4.075,0,0,1,3.212,1.345A5.291,5.291,0,0,1,25.5,14.175Zm-7.339,0a4.572,4.572,0,0,0,.738,2.813,2.563,2.563,0,0,0,2.171.967,2.58,2.58,0,0,0,2.175-.962,4.549,4.549,0,0,0,.743-2.817,4.476,4.476,0,0,0-.743-2.791,2.609,2.609,0,0,0-2.193-.954,2.568,2.568,0,0,0-2.162.94A4.526,4.526,0,0,0,18.164,14.175ZM29.52,19H28.061V5.324H29.52Zm4.553,0H32.613V9.367h1.459ZM32.552,7.873q.422-.545.91-1.318A15.088,15.088,0,0,0,34.23,5.21h1.775v.185A12.992,12.992,0,0,1,34.854,6.8a13.072,13.072,0,0,1-1.327,1.292h-.976Zm7.726,10.1a4.766,4.766,0,0,0,.747-.057A4.836,4.836,0,0,0,41.6,17.8v1.116a2.667,2.667,0,0,1-.7.189,5.247,5.247,0,0,1-.831.075q-2.795,0-2.795-2.944V10.5h-1.38V9.8l1.38-.606.615-2.057h.844V9.367h2.795V10.5H38.73V16.17a1.95,1.95,0,0,0,.413,1.336A1.438,1.438,0,0,0,40.277,17.972ZM44.979,19H43.521V9.367h1.459ZM43.4,6.757a.969.969,0,0,1,.246-.734.911.911,0,0,1,1.222,0,.951.951,0,0,1,.255.729.966.966,0,0,1-.255.734.893.893,0,0,1-1.222,0A.987.987,0,0,1,43.4,6.757Zm8.525,12.419a4.111,4.111,0,0,1-3.239-1.288,5.3,5.3,0,0,1-1.147-3.643A5.46,5.46,0,0,1,48.7,10.51,4.193,4.193,0,0,1,52.02,9.191a6.584,6.584,0,0,1,1.389.149,4.575,4.575,0,0,1,1.09.352l-.448,1.239A6.86,6.86,0,0,0,53,10.611a4.709,4.709,0,0,0-1.011-.127q-2.936,0-2.936,3.744a4.458,4.458,0,0,0,.716,2.725,2.492,2.492,0,0,0,2.123.949,6.49,6.49,0,0,0,2.47-.519v1.292A5.264,5.264,0,0,1,51.923,19.176ZM62.566,19l-.29-1.371h-.07a4.053,4.053,0,0,1-1.437,1.226,4.38,4.38,0,0,1-1.789.321,3.217,3.217,0,0,1-2.246-.738,2.693,2.693,0,0,1-.813-2.1q0-2.918,4.667-3.059l1.635-.053v-.6a2.442,2.442,0,0,0-.488-1.674,2.006,2.006,0,0,0-1.56-.541,6.357,6.357,0,0,0-2.725.738L57,10.035a6.856,6.856,0,0,1,1.56-.606,6.757,6.757,0,0,1,1.7-.22,3.669,3.669,0,0,1,2.553.765,3.192,3.192,0,0,1,.831,2.452V19Zm-3.3-1.028a2.961,2.961,0,0,0,2.14-.747,2.764,2.764,0,0,0,.778-2.092v-.87l-1.459.062a5.307,5.307,0,0,0-2.509.541,1.63,1.63,0,0,0-.769,1.49,1.5,1.5,0,0,0,.479,1.2A1.988,1.988,0,0,0,59.271,17.972Zm13.6-1.6a2.413,2.413,0,0,1-1,2.074,4.71,4.71,0,0,1-2.812.729,6.116,6.116,0,0,1-2.988-.606V17.216a7.227,7.227,0,0,0,1.49.554,6.221,6.221,0,0,0,1.534.2,3.478,3.478,0,0,0,1.758-.365,1.256,1.256,0,0,0,.127-2.074,7.673,7.673,0,0,0-1.9-.945,10.318,10.318,0,0,1-1.912-.875,2.611,2.611,0,0,1-.844-.848,2.212,2.212,0,0,1-.277-1.134A2.161,2.161,0,0,1,67,9.873a4.464,4.464,0,0,1,2.628-.681,7.689,7.689,0,0,1,3.041.633l-.519,1.187a6.98,6.98,0,0,0-2.628-.6,3.023,3.023,0,0,0-1.564.325,1.006,1.006,0,0,0-.527.9,1.092,1.092,0,0,0,.2.659,1.952,1.952,0,0,0,.637.519,14.24,14.24,0,0,0,1.688.712,6.3,6.3,0,0,1,2.316,1.257A2.216,2.216,0,0,1,72.867,16.372Zm15.363-2.2a5.314,5.314,0,0,1-1.187,3.678,4.179,4.179,0,0,1-3.278,1.323,4.342,4.342,0,0,1-2.294-.606,4,4,0,0,1-1.547-1.74,6.065,6.065,0,0,1-.545-2.654,5.306,5.306,0,0,1,1.178-3.669,4.165,4.165,0,0,1,3.27-1.314,4.075,4.075,0,0,1,3.212,1.345A5.291,5.291,0,0,1,88.23,14.175Zm-7.339,0a4.572,4.572,0,0,0,.738,2.813,2.93,2.93,0,0,0,4.346,0,4.549,4.549,0,0,0,.743-2.817,4.476,4.476,0,0,0-.743-2.791,2.609,2.609,0,0,0-2.193-.954,2.568,2.568,0,0,0-2.162.94A4.526,4.526,0,0,0,80.892,14.175ZM95.183,9.191a5.709,5.709,0,0,1,1.151.105l-.2,1.354a4.97,4.97,0,0,0-1.055-.132,2.567,2.567,0,0,0-2,.949,3.461,3.461,0,0,0-.831,2.364V19H90.788V9.367h1.2l.167,1.784h.07A4.234,4.234,0,0,1,93.521,9.7,2.908,2.908,0,0,1,95.183,9.191Zm10.661.176v.923l-1.784.211a3.133,3.133,0,0,1,.633,1.925,2.848,2.848,0,0,1-.967,2.259,3.9,3.9,0,0,1-2.654.844,4.42,4.42,0,0,1-.809-.07,1.436,1.436,0,0,0-.932,1.239.63.63,0,0,0,.325.584,2.376,2.376,0,0,0,1.116.189h1.705a3.818,3.818,0,0,1,2.4.659,2.29,2.29,0,0,1,.839,1.916,2.735,2.735,0,0,1-1.283,2.439,6.868,6.868,0,0,1-3.744.839,5.115,5.115,0,0,1-2.914-.7,2.27,2.27,0,0,1-1.024-1.986,2.231,2.231,0,0,1,.563-1.521,2.864,2.864,0,0,1,1.582-.87,1.526,1.526,0,0,1-.62-.519,1.372,1.372,0,0,1-.25-.817,1.551,1.551,0,0,1,.281-.923,2.957,2.957,0,0,1,.888-.765,2.6,2.6,0,0,1-1.217-1.046,3.073,3.073,0,0,1-.47-1.687,3.117,3.117,0,0,1,.949-2.439,3.875,3.875,0,0,1,2.689-.857,4.891,4.891,0,0,1,1.362.176Zm-7.682,11.25a1.307,1.307,0,0,0,.659,1.187,3.638,3.638,0,0,0,1.89.4,5.273,5.273,0,0,0,2.72-.549,1.682,1.682,0,0,0,.883-1.49,1.179,1.179,0,0,0-.483-1.085,3.754,3.754,0,0,0-1.819-.3h-1.749a2.3,2.3,0,0,0-1.547.475A1.7,1.7,0,0,0,98.162,20.617Zm.791-8.165a1.961,1.961,0,0,0,.571,1.529,2.281,2.281,0,0,0,1.591.519,1.861,1.861,0,0,0,2.136-2.074,1.915,1.915,0,0,0-2.162-2.171,2.141,2.141,0,0,0-1.582.554A2.23,2.23,0,0,0,98.953,12.452ZM113.745,19l-.29-1.371h-.07a4.053,4.053,0,0,1-1.437,1.226,4.38,4.38,0,0,1-1.789.321,3.217,3.217,0,0,1-2.246-.738,2.693,2.693,0,0,1-.813-2.1q0-2.918,4.667-3.059l1.635-.053v-.6a2.442,2.442,0,0,0-.488-1.674,2.006,2.006,0,0,0-1.56-.541,6.357,6.357,0,0,0-2.725.738l-.448-1.116a6.856,6.856,0,0,1,1.56-.606,6.757,6.757,0,0,1,1.7-.22A3.669,3.669,0,0,1,114,9.974a3.192,3.192,0,0,1,.831,2.452V19Zm-3.3-1.028a2.961,2.961,0,0,0,2.14-.747,2.764,2.764,0,0,0,.778-2.092v-.87l-1.459.062a5.307,5.307,0,0,0-2.509.541,1.63,1.63,0,0,0-.769,1.49,1.5,1.5,0,0,0,.479,1.2A1.988,1.988,0,0,0,110.449,17.972ZM124.424,19V12.769a2.514,2.514,0,0,0-.536-1.758,2.184,2.184,0,0,0-1.679-.58,2.769,2.769,0,0,0-2.215.817,4.127,4.127,0,0,0-.7,2.7V19h-1.459V9.367h1.187l.237,1.318h.07a2.979,2.979,0,0,1,1.257-1.1,4.084,4.084,0,0,1,1.8-.391,3.659,3.659,0,0,1,2.619.839,3.572,3.572,0,0,1,.879,2.685V19Zm5.915,0H128.88V9.367h1.459ZM128.757,6.757A.969.969,0,0,1,129,6.023a.911.911,0,0,1,1.222,0,.951.951,0,0,1,.255.729.966.966,0,0,1-.255.734.893.893,0,0,1-1.222,0A.987.987,0,0,1,128.757,6.757ZM139.594,19h-6.987v-.993l5.256-7.506h-4.931V9.367h6.53V10.5l-5.186,7.365h5.317Zm8.183,0-.29-1.371h-.07a4.053,4.053,0,0,1-1.437,1.226,4.38,4.38,0,0,1-1.789.321,3.217,3.217,0,0,1-2.246-.738,2.693,2.693,0,0,1-.813-2.1q0-2.918,4.667-3.059l1.635-.053v-.6a2.442,2.442,0,0,0-.488-1.674,2.006,2.006,0,0,0-1.56-.541,6.357,6.357,0,0,0-2.725.738l-.448-1.116a6.856,6.856,0,0,1,1.56-.606,6.757,6.757,0,0,1,1.7-.22,3.669,3.669,0,0,1,2.553.765,3.192,3.192,0,0,1,.831,2.452V19Zm-3.3-1.028a2.961,2.961,0,0,0,2.14-.747,2.764,2.764,0,0,0,.778-2.092v-.87l-1.459.062a5.307,5.307,0,0,0-2.509.541,1.63,1.63,0,0,0-.769,1.49,1.5,1.5,0,0,0,.479,1.2A1.988,1.988,0,0,0,144.48,17.972Zm11.232,1.2a4.111,4.111,0,0,1-3.239-1.288,5.3,5.3,0,0,1-1.147-3.643,5.46,5.46,0,0,1,1.165-3.735,4.193,4.193,0,0,1,3.318-1.318,6.584,6.584,0,0,1,1.389.149,4.575,4.575,0,0,1,1.09.352l-.448,1.239a6.86,6.86,0,0,0-1.055-.321,4.709,4.709,0,0,0-1.011-.127q-2.936,0-2.936,3.744a4.458,4.458,0,0,0,.716,2.725,2.492,2.492,0,0,0,2.123.949,6.49,6.49,0,0,0,2.47-.519v1.292A5.264,5.264,0,0,1,155.713,19.176ZM161.892,19h-1.459V9.367h1.459ZM160.31,6.757a.969.969,0,0,1,.246-.734.911.911,0,0,1,1.222,0,.951.951,0,0,1,.255.729.966.966,0,0,1-.255.734.893.893,0,0,1-1.222,0A.987.987,0,0,1,160.31,6.757Zm12.99,7.418a5.314,5.314,0,0,1-1.187,3.678,4.179,4.179,0,0,1-3.278,1.323,4.342,4.342,0,0,1-2.294-.606,4,4,0,0,1-1.547-1.74,6.065,6.065,0,0,1-.545-2.654,5.306,5.306,0,0,1,1.178-3.669,4.165,4.165,0,0,1,3.27-1.314,4.075,4.075,0,0,1,3.212,1.345A5.291,5.291,0,0,1,173.3,14.175Zm-7.339,0a4.572,4.572,0,0,0,.738,2.813,2.93,2.93,0,0,0,4.346,0,4.549,4.549,0,0,0,.743-2.817,4.476,4.476,0,0,0-.743-2.791,2.609,2.609,0,0,0-2.193-.954,2.568,2.568,0,0,0-2.162.94A4.526,4.526,0,0,0,165.961,14.175ZM182.449,19V12.769a2.514,2.514,0,0,0-.536-1.758,2.184,2.184,0,0,0-1.679-.58,2.769,2.769,0,0,0-2.215.817,4.127,4.127,0,0,0-.7,2.7V19h-1.459V9.367h1.187l.237,1.318h.07a2.979,2.979,0,0,1,1.257-1.1,4.084,4.084,0,0,1,1.8-.391,3.659,3.659,0,0,1,2.619.839,3.572,3.572,0,0,1,.879,2.685V19Zm10.38,0-.29-1.371h-.07a4.053,4.053,0,0,1-1.437,1.226,4.38,4.38,0,0,1-1.789.321A3.217,3.217,0,0,1,187,18.438a2.693,2.693,0,0,1-.813-2.1q0-2.918,4.667-3.059l1.635-.053v-.6A2.442,2.442,0,0,0,192,10.954a2.006,2.006,0,0,0-1.56-.541,6.357,6.357,0,0,0-2.725.738l-.448-1.116a6.856,6.856,0,0,1,1.56-.606,6.757,6.757,0,0,1,1.7-.22,3.669,3.669,0,0,1,2.553.765,3.192,3.192,0,0,1,.831,2.452V19Zm-3.3-1.028a2.961,2.961,0,0,0,2.14-.747,2.764,2.764,0,0,0,.778-2.092v-.87l-1.459.062a5.307,5.307,0,0,0-2.509.541,1.63,1.63,0,0,0-.769,1.49,1.5,1.5,0,0,0,.479,1.2A1.988,1.988,0,0,0,189.533,17.972ZM198.375,19h-1.459V5.324h1.459Zm7.163.176a4.426,4.426,0,0,1-3.371-1.3,5.036,5.036,0,0,1-1.235-3.612,5.585,5.585,0,0,1,1.147-3.7,3.81,3.81,0,0,1,3.081-1.371,3.633,3.633,0,0,1,2.865,1.191,4.564,4.564,0,0,1,1.055,3.142v.923h-6.636a3.818,3.818,0,0,0,.857,2.575,2.964,2.964,0,0,0,2.29.879,7.759,7.759,0,0,0,3.076-.65v1.3a7.721,7.721,0,0,1-1.463.479A8.224,8.224,0,0,1,205.538,19.176Zm-.4-8.763a2.383,2.383,0,0,0-1.85.756,3.484,3.484,0,0,0-.813,2.092h5.036a3.208,3.208,0,0,0-.615-2.114A2.165,2.165,0,0,0,205.143,10.413Zm12.639,5.959a2.413,2.413,0,0,1-1,2.074,4.71,4.71,0,0,1-2.812.729,6.116,6.116,0,0,1-2.988-.606V17.216a7.227,7.227,0,0,0,1.49.554,6.221,6.221,0,0,0,1.534.2,3.478,3.478,0,0,0,1.758-.365,1.256,1.256,0,0,0,.127-2.074,7.673,7.673,0,0,0-1.9-.945,10.318,10.318,0,0,1-1.912-.875,2.611,2.611,0,0,1-.844-.848,2.212,2.212,0,0,1-.277-1.134,2.161,2.161,0,0,1,.958-1.859,4.464,4.464,0,0,1,2.628-.681,7.689,7.689,0,0,1,3.041.633l-.519,1.187a6.98,6.98,0,0,0-2.628-.6,3.023,3.023,0,0,0-1.564.325,1.006,1.006,0,0,0-.527.9,1.092,1.092,0,0,0,.2.659,1.952,1.952,0,0,0,.637.519,14.24,14.24,0,0,0,1.688.712,6.3,6.3,0,0,1,2.316,1.257A2.216,2.216,0,0,1,217.781,16.372Zm15.363-2.2a5.314,5.314,0,0,1-1.187,3.678,4.179,4.179,0,0,1-3.278,1.323,4.342,4.342,0,0,1-2.294-.606,4,4,0,0,1-1.547-1.74,6.065,6.065,0,0,1-.545-2.654,5.306,5.306,0,0,1,1.178-3.669,4.165,4.165,0,0,1,3.27-1.314,4.075,4.075,0,0,1,3.212,1.345A5.291,5.291,0,0,1,233.145,14.175Zm-7.339,0a4.572,4.572,0,0,0,.738,2.813,2.93,2.93,0,0,0,4.346,0,4.549,4.549,0,0,0,.743-2.817,4.476,4.476,0,0,0-.743-2.791,2.609,2.609,0,0,0-2.193-.954,2.568,2.568,0,0,0-2.162.94A4.526,4.526,0,0,0,225.806,14.175ZM240.1,9.191a5.709,5.709,0,0,1,1.151.105l-.2,1.354a4.97,4.97,0,0,0-1.055-.132,2.567,2.567,0,0,0-2,.949,3.461,3.461,0,0,0-.831,2.364V19H235.7V9.367h1.2l.167,1.784h.07a4.234,4.234,0,0,1,1.292-1.45A2.908,2.908,0,0,1,240.1,9.191ZM244.509,19H243.05V9.367h1.459ZM242.927,6.757a.969.969,0,0,1,.246-.734.911.911,0,0,1,1.222,0,.951.951,0,0,1,.255.729.966.966,0,0,1-.255.734.893.893,0,0,1-1.222,0A.987.987,0,0,1,242.927,6.757Zm8.745,12.419a4.426,4.426,0,0,1-3.371-1.3,5.036,5.036,0,0,1-1.235-3.612,5.585,5.585,0,0,1,1.147-3.7,3.81,3.81,0,0,1,3.081-1.371,3.633,3.633,0,0,1,2.865,1.191,4.564,4.564,0,0,1,1.055,3.142v.923h-6.636a3.818,3.818,0,0,0,.857,2.575,2.964,2.964,0,0,0,2.29.879,7.759,7.759,0,0,0,3.076-.65v1.3a7.721,7.721,0,0,1-1.463.479A8.224,8.224,0,0,1,251.672,19.176Zm-.4-8.763a2.383,2.383,0,0,0-1.85.756,3.484,3.484,0,0,0-.813,2.092h5.036a3.208,3.208,0,0,0-.615-2.114A2.165,2.165,0,0,0,251.276,10.413ZM264.293,19V12.769a2.514,2.514,0,0,0-.536-1.758,2.184,2.184,0,0,0-1.679-.58,2.769,2.769,0,0,0-2.215.817,4.127,4.127,0,0,0-.7,2.7V19H257.7V9.367h1.187l.237,1.318h.07a2.979,2.979,0,0,1,1.257-1.1,4.084,4.084,0,0,1,1.8-.391,3.659,3.659,0,0,1,2.619.839,3.572,3.572,0,0,1,.879,2.685V19Zm7.567-1.028a4.766,4.766,0,0,0,.747-.057,4.836,4.836,0,0,0,.571-.119v1.116a2.667,2.667,0,0,1-.7.189,5.247,5.247,0,0,1-.831.075q-2.795,0-2.795-2.944V10.5h-1.38V9.8l1.38-.606.615-2.057h.844V9.367h2.795V10.5h-2.795V16.17a1.95,1.95,0,0,0,.413,1.336A1.438,1.438,0,0,0,271.86,17.972ZM281.027,19l-.29-1.371h-.07a4.053,4.053,0,0,1-1.437,1.226,4.38,4.38,0,0,1-1.789.321,3.217,3.217,0,0,1-2.246-.738,2.693,2.693,0,0,1-.813-2.1q0-2.918,4.667-3.059l1.635-.053v-.6a2.442,2.442,0,0,0-.488-1.674,2.006,2.006,0,0,0-1.56-.541,6.357,6.357,0,0,0-2.725.738l-.448-1.116a6.856,6.856,0,0,1,1.56-.606,6.757,6.757,0,0,1,1.7-.22,3.669,3.669,0,0,1,2.553.765,3.192,3.192,0,0,1,.831,2.452V19Zm-3.3-1.028a2.961,2.961,0,0,0,2.14-.747,2.764,2.764,0,0,0,.778-2.092v-.87l-1.459.062a5.307,5.307,0,0,0-2.509.541,1.63,1.63,0,0,0-.769,1.49,1.5,1.5,0,0,0,.479,1.2A1.988,1.988,0,0,0,277.731,17.972Zm13.939-.264h-.079a3.428,3.428,0,0,1-3.023,1.468,3.577,3.577,0,0,1-2.94-1.292,5.687,5.687,0,0,1-1.05-3.674,5.783,5.783,0,0,1,1.055-3.7,3.549,3.549,0,0,1,2.936-1.318,3.5,3.5,0,0,1,3.006,1.424h.114l-.062-.694-.035-.677V5.324h1.459V19h-1.187Zm-2.918.246a2.656,2.656,0,0,0,2.167-.813,4.108,4.108,0,0,0,.672-2.624V14.21a4.834,4.834,0,0,0-.681-2.922,2.587,2.587,0,0,0-2.175-.875,2.233,2.233,0,0,0-1.964,1,4.96,4.96,0,0,0-.681,2.817,4.755,4.755,0,0,0,.677,2.786A2.292,2.292,0,0,0,288.753,17.954ZM302.068,19l-.29-1.371h-.07a4.053,4.053,0,0,1-1.437,1.226,4.38,4.38,0,0,1-1.789.321,3.217,3.217,0,0,1-2.246-.738,2.693,2.693,0,0,1-.813-2.1q0-2.918,4.667-3.059l1.635-.053v-.6a2.442,2.442,0,0,0-.488-1.674,2.006,2.006,0,0,0-1.56-.541,6.357,6.357,0,0,0-2.725.738l-.448-1.116a6.856,6.856,0,0,1,1.56-.606,6.757,6.757,0,0,1,1.7-.22,3.669,3.669,0,0,1,2.553.765,3.192,3.192,0,0,1,.831,2.452V19Zm-3.3-1.028a2.961,2.961,0,0,0,2.14-.747,2.764,2.764,0,0,0,.778-2.092v-.87l-1.459.062a5.307,5.307,0,0,0-2.509.541,1.63,1.63,0,0,0-.769,1.49,1.5,1.5,0,0,0,.479,1.2A1.988,1.988,0,0,0,298.772,17.972Zm13.6-1.6a2.413,2.413,0,0,1-1,2.074,4.71,4.71,0,0,1-2.812.729,6.116,6.116,0,0,1-2.988-.606V17.216a7.227,7.227,0,0,0,1.49.554,6.221,6.221,0,0,0,1.534.2,3.478,3.478,0,0,0,1.758-.365,1.256,1.256,0,0,0,.127-2.074,7.673,7.673,0,0,0-1.9-.945,10.318,10.318,0,0,1-1.912-.875,2.611,2.611,0,0,1-.844-.848,2.212,2.212,0,0,1-.277-1.134,2.161,2.161,0,0,1,.958-1.859,4.464,4.464,0,0,1,2.628-.681,7.689,7.689,0,0,1,3.041.633l-.519,1.187a6.98,6.98,0,0,0-2.628-.6,3.023,3.023,0,0,0-1.564.325,1.006,1.006,0,0,0-.527.9,1.092,1.092,0,0,0,.2.659,1.952,1.952,0,0,0,.637.519,14.24,14.24,0,0,0,1.688.712,6.3,6.3,0,0,1,2.316,1.257A2.216,2.216,0,0,1,312.369,16.372ZM117.234,43l-.29-1.371h-.07a4.053,4.053,0,0,1-1.437,1.226,4.38,4.38,0,0,1-1.789.321,3.217,3.217,0,0,1-2.246-.738,2.693,2.693,0,0,1-.813-2.1q0-2.918,4.667-3.059l1.635-.053v-.6a2.442,2.442,0,0,0-.488-1.674,2.006,2.006,0,0,0-1.56-.541,6.357,6.357,0,0,0-2.725.738l-.448-1.116a6.856,6.856,0,0,1,1.56-.606,6.757,6.757,0,0,1,1.7-.22,3.669,3.669,0,0,1,2.553.765,3.192,3.192,0,0,1,.831,2.452V43Zm-3.3-1.028a2.961,2.961,0,0,0,2.14-.747,2.764,2.764,0,0,0,.778-2.092v-.87l-1.459.062a5.307,5.307,0,0,0-2.509.541,1.63,1.63,0,0,0-.769,1.49,1.5,1.5,0,0,0,.479,1.2A1.988,1.988,0,0,0,113.938,41.972ZM127.456,43H126V29.324h1.459Zm9.018,0-.29-1.371h-.07a4.053,4.053,0,0,1-1.437,1.226,4.38,4.38,0,0,1-1.789.321,3.217,3.217,0,0,1-2.246-.738,2.693,2.693,0,0,1-.813-2.1q0-2.918,4.667-3.059l1.635-.053v-.6a2.442,2.442,0,0,0-.488-1.674,2.006,2.006,0,0,0-1.56-.541,6.357,6.357,0,0,0-2.725.738l-.448-1.116a6.856,6.856,0,0,1,1.56-.606,6.757,6.757,0,0,1,1.7-.22,3.669,3.669,0,0,1,2.553.765,3.192,3.192,0,0,1,.831,2.452V43Zm-3.3-1.028a2.961,2.961,0,0,0,2.14-.747,2.764,2.764,0,0,0,.778-2.092v-.87l-1.459.062a5.307,5.307,0,0,0-2.509.541,1.63,1.63,0,0,0-.769,1.49,1.5,1.5,0,0,0,.479,1.2A1.988,1.988,0,0,0,133.178,41.972Zm15.908,1.2a4.111,4.111,0,0,1-3.239-1.288,5.3,5.3,0,0,1-1.147-3.643,5.46,5.46,0,0,1,1.165-3.735,4.193,4.193,0,0,1,3.318-1.318,6.584,6.584,0,0,1,1.389.149,4.575,4.575,0,0,1,1.09.352l-.448,1.239a6.86,6.86,0,0,0-1.055-.321,4.709,4.709,0,0,0-1.011-.127q-2.936,0-2.936,3.744a4.458,4.458,0,0,0,.716,2.725,2.492,2.492,0,0,0,2.123.949,6.49,6.49,0,0,0,2.47-.519v1.292A5.264,5.264,0,0,1,149.086,43.176ZM159.729,43l-.29-1.371h-.07a4.053,4.053,0,0,1-1.437,1.226,4.38,4.38,0,0,1-1.789.321,3.217,3.217,0,0,1-2.246-.738,2.693,2.693,0,0,1-.813-2.1q0-2.918,4.667-3.059l1.635-.053v-.6a2.442,2.442,0,0,0-.488-1.674,2.006,2.006,0,0,0-1.56-.541,6.357,6.357,0,0,0-2.725.738l-.448-1.116a6.856,6.856,0,0,1,1.56-.606,6.757,6.757,0,0,1,1.7-.22,3.669,3.669,0,0,1,2.553.765,3.192,3.192,0,0,1,.831,2.452V43Zm-3.3-1.028a2.961,2.961,0,0,0,2.14-.747,2.764,2.764,0,0,0,.778-2.092v-.87l-1.459.062a5.307,5.307,0,0,0-2.509.541,1.63,1.63,0,0,0-.769,1.49,1.5,1.5,0,0,0,.479,1.2A1.988,1.988,0,0,0,156.434,41.972ZM165.275,43h-1.459V29.324h1.459Zm4.553,0h-1.459V33.367h1.459Zm-1.582-12.243a.969.969,0,0,1,.246-.734.911.911,0,0,1,1.222,0,.951.951,0,0,1,.255.729.966.966,0,0,1-.255.734.893.893,0,0,1-1.222,0A.987.987,0,0,1,168.246,30.757Zm11.232,10.951H179.4a3.428,3.428,0,0,1-3.023,1.468,3.577,3.577,0,0,1-2.94-1.292,5.687,5.687,0,0,1-1.05-3.674,5.783,5.783,0,0,1,1.055-3.7,3.549,3.549,0,0,1,2.936-1.318,3.5,3.5,0,0,1,3.006,1.424h.114l-.062-.694-.035-.677v-3.92h1.459V43h-1.187Zm-2.918.246a2.656,2.656,0,0,0,2.167-.813,4.108,4.108,0,0,0,.672-2.624V38.21a4.834,4.834,0,0,0-.681-2.922,2.587,2.587,0,0,0-2.175-.875,2.233,2.233,0,0,0-1.964,1,4.96,4.96,0,0,0-.681,2.817,4.755,4.755,0,0,0,.677,2.786A2.292,2.292,0,0,0,176.561,41.954ZM189.876,43l-.29-1.371h-.07a4.053,4.053,0,0,1-1.437,1.226,4.38,4.38,0,0,1-1.789.321,3.217,3.217,0,0,1-2.246-.738,2.693,2.693,0,0,1-.813-2.1q0-2.918,4.667-3.059l1.635-.053v-.6a2.442,2.442,0,0,0-.488-1.674,2.006,2.006,0,0,0-1.56-.541,6.357,6.357,0,0,0-2.725.738l-.448-1.116a6.856,6.856,0,0,1,1.56-.606,6.757,6.757,0,0,1,1.7-.22,3.669,3.669,0,0,1,2.553.765,3.192,3.192,0,0,1,.831,2.452V43Zm-3.3-1.028a2.961,2.961,0,0,0,2.14-.747,2.764,2.764,0,0,0,.778-2.092v-.87l-1.459.062a5.307,5.307,0,0,0-2.509.541,1.63,1.63,0,0,0-.769,1.49,1.5,1.5,0,0,0,.479,1.2A1.988,1.988,0,0,0,186.58,41.972Zm13.939-.264h-.079a3.428,3.428,0,0,1-3.023,1.468,3.577,3.577,0,0,1-2.94-1.292,5.687,5.687,0,0,1-1.05-3.674,5.783,5.783,0,0,1,1.055-3.7,3.549,3.549,0,0,1,2.936-1.318,3.5,3.5,0,0,1,3.006,1.424h.114l-.062-.694-.035-.677v-3.92H201.9V43h-1.187Zm-2.918.246a2.656,2.656,0,0,0,2.167-.813,4.108,4.108,0,0,0,.672-2.624V38.21a4.834,4.834,0,0,0-.681-2.922,2.587,2.587,0,0,0-2.175-.875,2.233,2.233,0,0,0-1.964,1,4.96,4.96,0,0,0-.681,2.817,4.755,4.755,0,0,0,.677,2.786A2.292,2.292,0,0,0,197.6,41.954Zm7.181.114a1.309,1.309,0,0,1,.268-.892.972.972,0,0,1,.769-.3,1.04,1.04,0,0,1,.8.3,1.255,1.255,0,0,1,.286.892,1.233,1.233,0,0,1-.29.879,1.153,1.153,0,0,1-1.534.031A1.2,1.2,0,0,1,204.782,42.068Z" transform="translate(589 1892)" fill="#00223d"/>
    <g id="Grupo_38865" data-name="Grupo 38865" transform="translate(422 1839.692)">
      <g id="Grupo_38851" data-name="Grupo 38851" transform="translate(0 0)">
        <g id="Grupo_38787" data-name="Grupo 38787">
          <circle id="Elipse_525" data-name="Elipse 525" cx="53.625" cy="53.625" r="53.625" transform="translate(0 75.837) rotate(-45)" fill="#cdeefc"/>
        </g>
        <g id="Grupo_38789" data-name="Grupo 38789" transform="translate(40.006 82.823)">
          <g id="Grupo_38788" data-name="Grupo 38788">
            <path id="Trazado_82981" data-name="Trazado 82981" d="M276.631,336.123c2.616,1.1,7.694,6.985,7.694,6.985l9.825,3.669-.309,2.472-12.414-1.893s-5.663-4.839-6.384-7.31S275.113,335.483,276.631,336.123Z" transform="translate(-274.774 -336.007)" fill="#abd2ed"/>
          </g>
        </g>
        <g id="Grupo_38791" data-name="Grupo 38791" transform="translate(30.18 82.902)">
          <g id="Grupo_38790" data-name="Grupo 38790">
            <path id="Trazado_82982" data-name="Trazado 82982" d="M265.314,358.769l12.075-1.184-3.295-18.533c-.271-1.278-2.388-3.26-3.638-2.883l-8.37,2.448a2.232,2.232,0,0,0-1.431,2.958Z" transform="translate(-260.498 -336.122)" fill="#d0e0f0"/>
          </g>
        </g>
        <g id="Grupo_38793" data-name="Grupo 38793" transform="translate(33.488 81.197)">
          <g id="Grupo_38792" data-name="Grupo 38792">
            <path id="Trazado_82983" data-name="Trazado 82983" d="M266.991,337.764l1.458-.44a.916.916,0,0,0,.542-1.171l-.542-1.8a.916.916,0,0,0-1.1-.677l-1.458.44a.916.916,0,0,0-.542,1.171l.542,1.8A.917.917,0,0,0,266.991,337.764Z" transform="translate(-265.304 -333.645)" fill="#fca89e"/>
          </g>
        </g>
        <g id="Grupo_38797" data-name="Grupo 38797" transform="translate(30.477 74.94)">
          <path id="Trazado_82984" data-name="Trazado 82984" d="M268.757,330.007c.011,2.159-1.738,2.355-3.9,2.366a3.91,3.91,0,0,1-.041-7.819C266.978,324.543,268.745,327.847,268.757,330.007Z" transform="translate(-260.93 -324.554)" fill="#fca89e"/>
          <g id="Grupo_38796" data-name="Grupo 38796" clip-path="url(#clip-path)">
            <g id="Grupo_38795" data-name="Grupo 38795" transform="translate(-1.059 -0.7)">
              <g id="Grupo_38794" data-name="Grupo 38794">
                <path id="Trazado_82985" data-name="Trazado 82985" d="M262.878,326.695s.4,1.322.216,1.377a1.338,1.338,0,0,0-1.257.776c-.31.789.429,1.262,1.063,1.221s.69,1.631-.805,1.784-3-3.025-2.654-4.521,2.244-3.609,3.092-3.766,9.541.341,9.541.341Z" transform="translate(-259.391 -323.537)" fill="#7f4d4e"/>
              </g>
            </g>
          </g>
        </g>
        <g id="Grupo_38799" data-name="Grupo 38799" transform="translate(34.704 79.658)">
          <g id="Grupo_38798" data-name="Grupo 38798">
            <path id="Trazado_82987" data-name="Trazado 82987" d="M267.152,333.852a1.9,1.9,0,1,0,1.269-2.363A1.9,1.9,0,0,0,267.152,333.852Zm.648-.2a1.219,1.219,0,1,1,1.519.816A1.22,1.22,0,0,1,267.8,333.657Z" transform="translate(-267.071 -331.408)" fill="#7f4d4e"/>
          </g>
        </g>
        <g id="Grupo_38801" data-name="Grupo 38801" transform="translate(34.707 80.756)">
          <g id="Grupo_38800" data-name="Grupo 38800">
            <path id="Trazado_82988" data-name="Trazado 82988" d="M270.673,333l-3.6,1.084s.6,5.258,3.476,4.223C273.267,337.33,270.673,333,270.673,333Z" transform="translate(-267.075 -333.003)" fill="#7f4d4e"/>
          </g>
        </g>
        <g id="Grupo_38803" data-name="Grupo 38803" transform="translate(30.535 104.366)">
          <g id="Grupo_38802" data-name="Grupo 38802">
            <path id="Trazado_82989" data-name="Trazado 82989" d="M277.55,367.306l.207,23.7h-2.295s-1.737-12.911-2.391-20.048h-1.591l.105,10.156-9.326,8.163-1.246-2.1,6.193-8.024s-1.765-8.882-1.732-10.67C265.414,368.2,277.55,367.306,277.55,367.306Z" transform="translate(-261.014 -367.306)" fill="#2b79e6"/>
          </g>
        </g>
        <g id="Grupo_38805" data-name="Grupo 38805" transform="translate(44.978 128.035)">
          <g id="Grupo_38804" data-name="Grupo 38804">
            <path id="Trazado_82990" data-name="Trazado 82990" d="M284.33,401.694H282v1.789h4.731c.312,0,.419-.7.146-.852Z" transform="translate(-281.997 -401.694)" fill="#29266b"/>
          </g>
        </g>
        <g id="Grupo_38807" data-name="Grupo 38807" transform="translate(29.045 124.244)">
          <g id="Grupo_38806" data-name="Grupo 38806">
            <path id="Trazado_82991" data-name="Trazado 82991" d="M261.63,398.129l-1.291-1.942-1.49.99,2.619,3.94c.173.259.816-.039.791-.35Z" transform="translate(-258.849 -396.187)" fill="#29266b"/>
          </g>
        </g>
        <g id="Grupo_38811" data-name="Grupo 38811" transform="translate(30.18 82.902)">
          <g id="Grupo_38810" data-name="Grupo 38810" clip-path="url(#clip-path-2)">
            <g id="Grupo_38809" data-name="Grupo 38809" transform="translate(13.499 5.779)">
              <g id="Grupo_38808" data-name="Grupo 38808">
                <rect id="Rectángulo_32662" data-name="Rectángulo 32662" width="0.206" height="6.561" transform="translate(0 0.067) rotate(-19.004)" fill="#f79b94"/>
              </g>
            </g>
          </g>
        </g>
        <g id="Grupo_38812" data-name="Grupo 38812" transform="translate(51.57 51.783)">
          <path id="Trazado_82993" data-name="Trazado 82993" d="M298.677,350.357l-7.1-6.866,50.659-52.583,7.177,6.664Z" transform="translate(-291.575 -290.908)" fill="#ff645f"/>
        </g>
        <g id="Grupo_38813" data-name="Grupo 38813" transform="translate(39.902 82.81)">
          <path id="Trazado_82994" data-name="Trazado 82994" d="M274.622,346.129l4.046-10.141,18.666,18.89-6.309,7.164Z" transform="translate(-274.622 -335.988)" fill="#ff645f"/>
        </g>
        <g id="Grupo_38814" data-name="Grupo 38814" transform="translate(89.51 29.363)">
          <path id="Trazado_82995" data-name="Trazado 82995" d="M346.7,269.6l39.691-11.269L378.8,299.409Z" transform="translate(-346.697 -258.334)" fill="#ff645f"/>
        </g>
        <g id="Grupo_38817" data-name="Grupo 38817" transform="translate(95.285 70.843)">
          <g id="Grupo_38816" data-name="Grupo 38816">
            <g id="Grupo_38815" data-name="Grupo 38815">
              <path id="Trazado_82996" data-name="Trazado 82996" d="M355.407,321.224c-.333-.5-.48-1.853-.067-2.1s1.516-.992,1.881-.1l.471,1.794-1.86,1.046Z" transform="translate(-355.088 -318.6)" fill="#fca89e"/>
            </g>
          </g>
        </g>
        <g id="Grupo_38820" data-name="Grupo 38820" transform="translate(105.021 102.035)">
          <g id="Grupo_38819" data-name="Grupo 38819">
            <g id="Grupo_38818" data-name="Grupo 38818">
              <path id="Trazado_82997" data-name="Trazado 82997" d="M381.427,363.919H369.233l.326,26.052h2.328s1.763-13.106,2.428-20.35h1.615l.485,20.35h2.329s2.748-20.433,2.675-24.372A15.149,15.149,0,0,0,381.427,363.919Z" transform="translate(-369.233 -363.919)" fill="#61b3db"/>
            </g>
          </g>
        </g>
        <g id="Grupo_38822" data-name="Grupo 38822" transform="translate(103.488 83.382)">
          <g id="Grupo_38821" data-name="Grupo 38821">
            <path id="Trazado_82998" data-name="Trazado 82998" d="M380.733,355.471H368.539l-1.522-16.2c-.136-1.321,1.141-2.455,2.765-2.455h9.71c1.624,0,2.9,1.134,2.765,2.455Z" transform="translate(-367.007 -336.819)" fill="#29266b"/>
          </g>
        </g>
        <g id="Grupo_38824" data-name="Grupo 38824" transform="translate(96.005 72.957)">
          <g id="Grupo_38823" data-name="Grupo 38823">
            <path id="Trazado_82999" data-name="Trazado 82999" d="M360.648,329.524l-2.538-7.819c0-.209-2.23.627-1.951,1.115.452.791-.021,7.677,2.419,10.255,1.361,1.439,6.885,6.281,7.1,5.919.347-.579.4-2.1.469-4.1a.878.878,0,0,0-.789-.9l1.741-.979C366.7,332.975,360.648,329.524,360.648,329.524Z" transform="translate(-356.134 -321.672)" fill="#29266b"/>
          </g>
        </g>
        <g id="Grupo_38827" data-name="Grupo 38827" transform="translate(120.9 67.949)">
          <g id="Grupo_38826" data-name="Grupo 38826">
            <g id="Grupo_38825" data-name="Grupo 38825">
              <path id="Trazado_83000" data-name="Trazado 83000" d="M394.665,316.614c.178-.573-.062-1.913-.527-2.031s-1.734-.525-1.834.43l.054,1.854,2.079.479Z" transform="translate(-392.304 -314.396)" fill="#fca89e"/>
            </g>
          </g>
        </g>
        <g id="Grupo_38829" data-name="Grupo 38829" transform="translate(115.918 70.299)">
          <g id="Grupo_38828" data-name="Grupo 38828">
            <path id="Trazado_83001" data-name="Trazado 83001" d="M389.379,325.851l.616-7.961c-.059-.2,2.316-.027,2.186.52-.211.887,2.184,7.36.571,10.522-.9,1.764-6.025,8.316-6.335,8.03-.5-.458-.676-2.066-1.3-3.966a8.916,8.916,0,0,1,.074-2.09C385.561,330.755,389.379,325.851,389.379,325.851Z" transform="translate(-385.065 -317.81)" fill="#29266b"/>
          </g>
        </g>
        <g id="Grupo_38832" data-name="Grupo 38832" transform="translate(102.571 128.053)">
          <g id="Grupo_38831" data-name="Grupo 38831">
            <g id="Grupo_38830" data-name="Grupo 38830">
              <path id="Trazado_83002" data-name="Trazado 83002" d="M368.417,401.721h2.368v1.816h-4.8c-.317,0-.426-.712-.148-.866Z" transform="translate(-365.675 -401.721)" fill="#0f2337"/>
            </g>
          </g>
        </g>
        <g id="Grupo_38835" data-name="Grupo 38835" transform="translate(109.53 128.053)">
          <g id="Grupo_38834" data-name="Grupo 38834">
            <g id="Grupo_38833" data-name="Grupo 38833">
              <path id="Trazado_83003" data-name="Trazado 83003" d="M378.527,401.721h2.368v1.816h-4.8c-.317,0-.425-.712-.148-.866Z" transform="translate(-375.785 -401.721)" fill="#0f2337"/>
            </g>
          </g>
        </g>
        <g id="Grupo_38838" data-name="Grupo 38838" transform="translate(109.084 80.389)">
          <g id="Grupo_38837" data-name="Grupo 38837">
            <g id="Grupo_38836" data-name="Grupo 38836">
              <path id="Trazado_83004" data-name="Trazado 83004" d="M377.112,337.179c2.16,0,2.147-1.469,2.147-1.822v-2.39c0-.541-.807-.5-1.288-.5h-1.547c-.48,0-1.288.439-1.288.98v1.906A1.839,1.839,0,0,0,377.112,337.179Z" transform="translate(-375.137 -332.471)" fill="#fca89e"/>
            </g>
          </g>
        </g>
        <g id="Grupo_38843" data-name="Grupo 38843" transform="translate(107.53 73.771)">
          <path id="Trazado_83005" data-name="Trazado 83005" d="M373.089,329.472c.622,2.1,2.379,1.78,4.481,1.159a3.969,3.969,0,0,0-2.249-7.612C373.219,323.64,372.469,327.37,373.089,329.472Z" transform="translate(-372.878 -322.855)" fill="#fca89e"/>
          <g id="Grupo_38842" data-name="Grupo 38842" clip-path="url(#clip-path-3)">
            <g id="Grupo_38841" data-name="Grupo 38841" transform="translate(-2.603 -1.021)">
              <g id="Grupo_38840" data-name="Grupo 38840">
                <g id="Grupo_38839" data-name="Grupo 38839">
                  <path id="Trazado_83006" data-name="Trazado 83006" d="M376.282,324.518s0,1.4.193,1.4a1.361,1.361,0,0,1,1.45.386c.531.677-.048,1.353-.677,1.5s-.193,1.788,1.3,1.5,2.029-3.817,1.256-5.17-3.238-2.851-4.108-2.754-6.6,3.185-6.6,3.185Z" transform="translate(-369.097 -321.373)" fill="#f8d188"/>
                </g>
              </g>
            </g>
          </g>
        </g>
        <g id="Grupo_38844" data-name="Grupo 38844" transform="translate(9.462 82.81)">
          <path id="Trazado_83008" data-name="Trazado 83008" d="M237.966,379.987l-7.569-6.844,34.485-37.155,6.895,7.03Z" transform="translate(-230.397 -335.988)" fill="#ff645f"/>
        </g>
        <g id="Grupo_38846" data-name="Grupo 38846" transform="translate(31.112 85.705)">
          <g id="Grupo_38845" data-name="Grupo 38845">
            <path id="Trazado_83009" data-name="Trazado 83009" d="M262.881,340.218c1.672-.54,7.928,8.134,7.928,8.134l11.129,1.343-.309,2.472-13.6.819s-4.768-5.273-5.488-7.744S261.314,340.725,262.881,340.218Z" transform="translate(-261.852 -340.194)" fill="#abd2ed"/>
          </g>
        </g>
        <g id="Grupo_38848" data-name="Grupo 38848" transform="translate(50.462 95.073)">
          <g id="Grupo_38847" data-name="Grupo 38847">
            <path id="Trazado_83010" data-name="Trazado 83010" d="M290.3,353.8l-.339,2.646s2.9-.465,3.208-1.135a.725.725,0,0,0-.206-.978Z" transform="translate(-289.965 -353.805)" fill="#fca89e"/>
          </g>
        </g>
        <g id="Grupo_38850" data-name="Grupo 38850" transform="translate(59.074 93.534)">
          <g id="Grupo_38849" data-name="Grupo 38849">
            <path id="Trazado_83011" data-name="Trazado 83011" d="M302.727,351.569l-.25,2.531s2.9-.086,3.209-.755a1.162,1.162,0,0,0-.3-1.243Z" transform="translate(-302.477 -351.569)" fill="#fca89e"/>
          </g>
        </g>
      </g>
      <g id="Grupo_38864" data-name="Grupo 38864" transform="translate(34.605 32.264)">
        <g id="Grupo_38853" data-name="Grupo 38853" transform="translate(0 23.646)">
          <g id="Grupo_38852" data-name="Grupo 38852">
            <rect id="Rectángulo_32663" data-name="Rectángulo 32663" width="8.474" height="7.381" fill="#8cb3de"/>
          </g>
        </g>
        <g id="Grupo_38855" data-name="Grupo 38855" transform="translate(8.406 17.905)">
          <g id="Grupo_38854" data-name="Grupo 38854">
            <rect id="Rectángulo_32664" data-name="Rectángulo 32664" width="8.474" height="13.122" fill="#2b79e6"/>
          </g>
        </g>
        <g id="Grupo_38858" data-name="Grupo 38858" transform="translate(16.812 11.846)">
          <g id="Grupo_38857" data-name="Grupo 38857">
            <g id="Grupo_38856" data-name="Grupo 38856">
              <rect id="Rectángulo_32665" data-name="Rectángulo 32665" width="8.474" height="19.181" fill="#61b3db"/>
            </g>
          </g>
        </g>
        <g id="Grupo_38861" data-name="Grupo 38861" transform="translate(25.218 5.946)">
          <g id="Grupo_38860" data-name="Grupo 38860">
            <g id="Grupo_38859" data-name="Grupo 38859">
              <rect id="Rectángulo_32666" data-name="Rectángulo 32666" width="8.474" height="25.081" fill="#29266b"/>
            </g>
          </g>
        </g>
        <g id="Grupo_38863" data-name="Grupo 38863" transform="translate(33.624)">
          <g id="Grupo_38862" data-name="Grupo 38862">
            <rect id="Rectángulo_32667" data-name="Rectángulo 32667" width="8.474" height="31.027" fill="#ff645f"/>
          </g>
        </g>
      </g>
    </g>
  </g>
</svg>
