<svg xmlns="http://www.w3.org/2000/svg" xmlns:xlink="http://www.w3.org/1999/xlink" width="368" height="299.578" viewBox="0 0 368 299.578">
  <defs>
    <linearGradient id="linear-gradient" x1="0.52" y1="1.509" x2="0.468" y2="0.18" gradientUnits="objectBoundingBox">
      <stop offset="0" stop-color="#2b3582"/>
      <stop offset="1" stop-color="#150e42"/>
    </linearGradient>
    <linearGradient id="linear-gradient-2" x1="0" y1="0.5" x2="1" y2="0.5" xlink:href="#linear-gradient"/>
    <linearGradient id="linear-gradient-3" x1="0.563" y1="-0.27" x2="0.408" y2="1.581" gradientUnits="objectBoundingBox">
      <stop offset="0" stop-color="#fdf53f"/>
      <stop offset="1" stop-color="#d93c65"/>
    </linearGradient>
    <linearGradient id="linear-gradient-5" x1="0.525" y1="0.297" x2="0.225" y2="5.135" xlink:href="#linear-gradient"/>
    <linearGradient id="linear-gradient-6" x1="-3.189" y1="-1.398" x2="-4.718" y2="3.868" gradientUnits="objectBoundingBox">
      <stop offset="0" stop-color="#53d8ff"/>
      <stop offset="1" stop-color="#3840f7"/>
    </linearGradient>
    <linearGradient id="linear-gradient-7" x1="0.955" y1="-0.323" x2="-0.391" y2="2.114" xlink:href="#linear-gradient-6"/>
    <linearGradient id="linear-gradient-8" x1="-2.914" y1="-0.874" x2="5.223" y2="2.098" xlink:href="#linear-gradient-6"/>
    <linearGradient id="linear-gradient-9" x1="0.864" y1="0.134" x2="-0.177" y2="1.228" xlink:href="#linear-gradient-6"/>
    <linearGradient id="linear-gradient-10" x1="0.805" y1="0.347" x2="3.412" y2="-2.217" xlink:href="#linear-gradient-6"/>
    <clipPath id="clip-path">
      <path id="Trazado_82693" data-name="Trazado 82693" d="M442.244,2645.849V2794.4a13.743,13.743,0,0,0,13.537,13.741l303.147,3.745A13.374,13.374,0,0,0,772.5,2798.56l.507-147.22a9.781,9.781,0,0,0-9.543-9.815L453.1,2635.254A10.6,10.6,0,0,0,442.244,2645.849Z" transform="translate(-442.244 -2635.251)" fill="none"/>
    </clipPath>
    <linearGradient id="linear-gradient-11" x1="0.955" y1="-0.323" x2="-0.391" y2="2.114" xlink:href="#linear-gradient-6"/>
    <linearGradient id="linear-gradient-12" x1="-2.886" y1="-2.105" x2="-4.415" y2="3.161" xlink:href="#linear-gradient-6"/>
    <linearGradient id="linear-gradient-13" x1="0.787" y1="-0.318" x2="0.022" y2="1.788" xlink:href="#linear-gradient-6"/>
    <linearGradient id="linear-gradient-14" x1="1.014" y1="-0.257" x2="-0.244" y2="1.596" xlink:href="#linear-gradient-3"/>
    <linearGradient id="linear-gradient-15" x1="3.465" y1="-3.037" x2="-2.402" y2="4.244" xlink:href="#linear-gradient-3"/>
    <linearGradient id="linear-gradient-16" x1="2.456" y1="-2.331" x2="-2.452" y2="4.951" xlink:href="#linear-gradient-3"/>
    <linearGradient id="linear-gradient-17" x1="20.54" y1="0.5" x2="21.54" y2="0.5" xlink:href="#linear-gradient-6"/>
    <linearGradient id="linear-gradient-18" x1="21.135" y1="0.5" x2="22.135" y2="0.5" xlink:href="#linear-gradient"/>
    <linearGradient id="linear-gradient-19" x1="72.918" y1="0.5" x2="73.918" y2="0.5" gradientUnits="objectBoundingBox">
      <stop offset="0" stop-color="#f9b776"/>
      <stop offset="1" stop-color="#f47960"/>
    </linearGradient>
    <linearGradient id="linear-gradient-20" x1="53.597" y1="0.5" x2="54.597" y2="0.5" xlink:href="#linear-gradient-6"/>
    <linearGradient id="linear-gradient-21" x1="36.515" y1="0.5" x2="37.515" y2="0.5" xlink:href="#linear-gradient"/>
    <linearGradient id="linear-gradient-22" x1="61.013" y1="0.5" x2="62.013" y2="0.5" xlink:href="#linear-gradient-19"/>
    <linearGradient id="linear-gradient-23" x1="7.438" y1="1.193" x2="9.102" y2="0.002" gradientUnits="objectBoundingBox">
      <stop offset="0" stop-color="#5ab6ff"/>
      <stop offset="1" stop-color="#2f68e3"/>
    </linearGradient>
    <linearGradient id="linear-gradient-24" x1="10.916" y1="-0.062" x2="7.308" y2="2.028" gradientUnits="objectBoundingBox">
      <stop offset="0" stop-color="#cb236d"/>
      <stop offset="1" stop-color="#4c246d"/>
    </linearGradient>
    <linearGradient id="linear-gradient-25" x1="44.076" y1="5.021" x2="44.434" y2="4.213" xlink:href="#linear-gradient-6"/>
    <linearGradient id="linear-gradient-26" x1="42.327" y1="0.1" x2="39.938" y2="1.142" xlink:href="#linear-gradient-19"/>
    <linearGradient id="linear-gradient-27" x1="24.033" y1="-0.503" x2="16.108" y2="3.117" xlink:href="#linear-gradient-24"/>
    <linearGradient id="linear-gradient-28" x1="30.592" y1="-0.121" x2="19.981" y2="4.13" xlink:href="#linear-gradient-24"/>
    <linearGradient id="linear-gradient-29" x1="21.763" y1="0.5" x2="22.764" y2="0.5" xlink:href="#linear-gradient-19"/>
    <linearGradient id="linear-gradient-30" x1="29.861" y1="-0.004" x2="29.847" y2="1.888" xlink:href="#linear-gradient-19"/>
    <linearGradient id="linear-gradient-31" x1="4.156" y1="0.5" x2="5.156" y2="0.5" xlink:href="#linear-gradient"/>
    <linearGradient id="linear-gradient-32" x1="4.528" y1="0.5" x2="5.528" y2="0.5" gradientUnits="objectBoundingBox">
      <stop offset="0" stop-color="#b37cff"/>
      <stop offset="1" stop-color="#f895e7"/>
    </linearGradient>
    <linearGradient id="linear-gradient-33" x1="4.069" y1="0.5" x2="5.069" y2="0.5" xlink:href="#linear-gradient"/>
    <linearGradient id="linear-gradient-34" x1="21.214" y1="36.109" x2="19.694" y2="37.447" xlink:href="#linear-gradient-19"/>
    <linearGradient id="linear-gradient-35" x1="-0.13" y1="0.423" x2="2.84" y2="0.704" xlink:href="#linear-gradient"/>
    <linearGradient id="linear-gradient-36" x1="52.497" y1="104.331" x2="55.788" y2="101.975" xlink:href="#linear-gradient-19"/>
    <linearGradient id="linear-gradient-37" x1="30.133" y1="-1.222" x2="28.439" y2="3.818" xlink:href="#linear-gradient-19"/>
    <linearGradient id="linear-gradient-38" x1="60.773" y1="0.5" x2="61.773" y2="0.5" xlink:href="#linear-gradient-19"/>
  </defs>
  <g id="Grupo_38370" data-name="Grupo 38370" transform="translate(-417.281 -2492.724)">
    <g id="Grupo_38357" data-name="Grupo 38357" transform="translate(417.281 2492.724)">
      <path id="Trazado_82666" data-name="Trazado 82666" d="M789.818,3053.268l-6.986,62.651h81.046l-10.556-62.651Z" transform="translate(-639.169 -2832.971)" fill="url(#linear-gradient)"/>
      <path id="Trazado_82667" data-name="Trazado 82667" d="M417.281,2637.228v156.354a23.719,23.719,0,0,0,23.108,23.712c57.108,1.473,256.845,5.043,311.208,4.242a17.452,17.452,0,0,0,17.182-16.956c1.048-36.323,2.751-123.668-3.55-164.219a17.959,17.959,0,0,0-17.172-15.2c-47.849-1.531-259.584-6.391-313.922-5.171A17.24,17.24,0,0,0,417.281,2637.228Z" transform="translate(-417.281 -2569.855)" fill="url(#linear-gradient-2)"/>
      <path id="Trazado_82668" data-name="Trazado 82668" d="M442.244,2645.849V2794.4a13.743,13.743,0,0,0,13.537,13.741l303.147,3.745A13.374,13.374,0,0,0,772.5,2798.56l.507-147.22a9.781,9.781,0,0,0-9.543-9.815L453.1,2635.254A10.6,10.6,0,0,0,442.244,2645.849Z" transform="translate(-432.433 -2579.237)" fill="url(#linear-gradient-3)"/>
      <path id="Trazado_82669" data-name="Trazado 82669" d="M774.174,3090.145h-.007l-332.541-5.666a.4.4,0,0,1,.013-.791l332.541,5.666a.4.4,0,0,1-.007.791Z" transform="translate(-431.823 -2851.436)" fill="#fff" opacity="0.65"/>
      <path id="Trazado_82670" data-name="Trazado 82670" d="M442.244,2645.849V2794.4a13.743,13.743,0,0,0,13.537,13.741l303.147,3.745A13.374,13.374,0,0,0,772.5,2798.56l.507-147.22a9.781,9.781,0,0,0-9.543-9.815L453.1,2635.254A10.6,10.6,0,0,0,442.244,2645.849Z" transform="translate(-432.433 -2579.237)" fill="url(#linear-gradient-3)"/>
      <path id="Trazado_82671" data-name="Trazado 82671" d="M867.711,3105.815a3.856,3.856,0,1,1,3.855-3.855A3.86,3.86,0,0,1,867.711,3105.815Zm0-6.92a3.065,3.065,0,1,0,3.064,3.065A3.068,3.068,0,0,0,867.711,3098.9Z" transform="translate(-688.349 -2860.187)" fill="#fff" opacity="0.65"/>
      <path id="Trazado_82672" data-name="Trazado 82672" d="M842.368,3218.174H723.751c-3.222,0-5.642-2.294-5.02-4.758l1.522-6.019c.458-1.81,2.449-3.139,4.815-3.213l114.351-3.568c2.471-.077,4.659,1.234,5.2,3.116l2.744,9.588C848.074,3215.81,845.642,3218.174,842.368,3218.174Z" transform="translate(-600.2 -2922.409)" fill="url(#linear-gradient-5)"/>
      <path id="Trazado_82673" data-name="Trazado 82673" d="M893.519,3212.539a.4.4,0,0,1-.005-.791l4.9-.072a.4.4,0,1,1,.011.791l-4.9.072Z" transform="translate(-706.115 -2929.124)" fill="#fff"/>
      <path id="Trazado_82674" data-name="Trazado 82674" d="M729.446,3221.858a.362.362,0,0,1-.062-.005.4.4,0,0,1-.328-.453l.7-4.378a4.894,4.894,0,0,1,4.768-4.128l51.973-.76a.4.4,0,0,1,.4.39.4.4,0,0,1-.39.4l-51.973.76a4.1,4.1,0,0,0-4,3.461l-.7,4.378A.4.4,0,0,1,729.446,3221.858Z" transform="translate(-606.523 -2929.403)" fill="#fff"/>
      <g id="Grupo_38348" data-name="Grupo 38348" transform="translate(153.542)">
        <path id="Trazado_82675" data-name="Trazado 82675" d="M971.5,2493.493l-160.047-.769c-1.929-.018-3.5,2.116-3.481,4.741l.354,63.322c.015,2.64,1.622,4.746,3.561,4.667l159.134-3.408c1.851-.075,3.33-2.123,3.353-4.643l.558-59.145C974.954,2495.649,973.413,2493.511,971.5,2493.493Z" transform="translate(-807.968 -2492.724)" fill="url(#linear-gradient-6)"/>
        <path id="Trazado_82676" data-name="Trazado 82676" d="M816.311,2567.668a.586.586,0,0,1-.528-.637l-.354-63.321a.714.714,0,0,1,.132-.434.478.478,0,0,1,.4-.213l160.048.77a.475.475,0,0,1,.392.215.717.717,0,0,1,.131.433l-.558,59.144a.587.587,0,0,1-.508.634h0Zm-.356-64.2c-.01,0-.03,0-.062.044a.309.309,0,0,0-.054.189l.354,63.322c0,.14.075.229.114.229l159.141-3.408c.042,0,.109-.094.11-.228l.558-59.144a.309.309,0,0,0-.053-.189c-.032-.045-.053-.045-.062-.045Z" transform="translate(-812.496 -2499)" fill="#fff"/>
        <g id="Grupo_38347" data-name="Grupo 38347" transform="translate(9.97 9.378)" opacity="0.6">
          <rect id="Rectángulo_32514" data-name="Rectángulo 32514" width="7.789" height="29.764" transform="translate(0 24.112)" fill="#fff"/>
          <rect id="Rectángulo_32515" data-name="Rectángulo 32515" width="7.789" height="19.534" transform="translate(13.014 34.341)" fill="#fff"/>
          <rect id="Rectángulo_32516" data-name="Rectángulo 32516" width="7.789" height="44.815" transform="translate(26.028 9.06)" fill="#fff"/>
          <rect id="Rectángulo_32517" data-name="Rectángulo 32517" width="7.789" height="10.766" transform="translate(39.042 43.109)" fill="#fff"/>
          <rect id="Rectángulo_32518" data-name="Rectángulo 32518" width="7.789" height="38.824" transform="translate(52.057 15.052)" fill="#fff"/>
          <rect id="Rectángulo_32519" data-name="Rectángulo 32519" width="7.789" height="32.102" transform="translate(65.071 21.774)" fill="#fff"/>
          <rect id="Rectángulo_32520" data-name="Rectángulo 32520" width="7.789" height="24.795" transform="translate(78.085 29.081)" fill="#fff"/>
          <rect id="Rectángulo_32521" data-name="Rectángulo 32521" width="7.789" height="53.876" transform="translate(91.099)" fill="#fff"/>
          <rect id="Rectángulo_32522" data-name="Rectángulo 32522" width="7.789" height="48.176" transform="translate(104.113 5.699)" fill="#fff"/>
          <rect id="Rectángulo_32523" data-name="Rectángulo 32523" width="7.789" height="39.555" transform="translate(117.127 14.321)" fill="#fff"/>
          <rect id="Rectángulo_32524" data-name="Rectángulo 32524" width="7.789" height="9.767" transform="translate(130.142 44.109)" fill="#fff"/>
          <rect id="Rectángulo_32525" data-name="Rectángulo 32525" width="7.789" height="28.741" transform="translate(143.156 25.135)" fill="#fff"/>
        </g>
      </g>
      <g id="Grupo_38350" data-name="Grupo 38350" transform="translate(30.279 2.843)">
        <path id="Trazado_82677" data-name="Trazado 82677" d="M500.011,2639.737h86.5a4.994,4.994,0,0,0,4.994-4.994V2505.187a4.994,4.994,0,0,0-4.981-4.994l-87.191-.234a4.994,4.994,0,0,0-5.007,5.021l.692,129.79A4.994,4.994,0,0,0,500.011,2639.737Z" transform="translate(-494.326 -2499.959)" fill="url(#linear-gradient-7)"/>
        <path id="Trazado_82678" data-name="Trazado 82678" d="M511.7,2516.225l77.344.476a5.068,5.068,0,0,1,5.036,5.091l-.54,116.28a5.068,5.068,0,0,1-4.975,5.043l-75.149,1.371a5.068,5.068,0,0,1-5.16-5l-1.655-118.127A5.067,5.067,0,0,1,511.7,2516.225Z" transform="translate(-501.779 -2509.833)" fill="#fff" opacity="0.6"/>
        <path id="Rectángulo_32526" data-name="Rectángulo 32526" d="M1.783,0h59.06a1.783,1.783,0,0,1,1.783,1.783v0a1.783,1.783,0,0,1-1.783,1.783H1.783A1.783,1.783,0,0,1,0,1.783v0A1.783,1.783,0,0,1,1.783,0Z" transform="translate(13.069 11.391)" fill="#fff" opacity="0.6"/>
        <path id="Trazado_82679" data-name="Trazado 82679" d="M544.5,2547.4h0a1.516,1.516,0,0,0,1.486,1.434l52.117.95a1.516,1.516,0,0,0,1.543-1.516v-.124a1.516,1.516,0,0,0-1.492-1.516l-52.117-.826A1.516,1.516,0,0,0,544.5,2547.4Z" transform="translate(-524.777 -2527.785)" fill="#fff" opacity="0.6"/>
        <path id="Trazado_82680" data-name="Trazado 82680" d="M521.569,2670.095a4.4,4.4,0,0,1-4.391-4.314l-1.691-95.1a4.4,4.4,0,0,1,4.306-4.469l70.368-1.37a4.392,4.392,0,0,1,4.477,4.308l1.814,95.627a4.391,4.391,0,0,1-4.338,4.475l-70.491.846Zm68.679-103.674h-.056l-70.368,1.37a2.814,2.814,0,0,0-2.755,2.859h0l1.691,95.1a2.817,2.817,0,0,0,2.809,2.76h.034l70.491-.846a2.809,2.809,0,0,0,2.775-2.863l-1.814-95.627a2.81,2.81,0,0,0-2.808-2.756Z" transform="translate(-507.17 -2539.341)" fill="#fff" opacity="0.61"/>
        <path id="Trazado_82681" data-name="Trazado 82681" d="M595.371,2590.768H518.6a.791.791,0,1,1,0-1.583h76.77a.791.791,0,0,1,0,1.583Z" transform="translate(-508.581 -2554.119)" fill="#fff" opacity="0.61"/>
        <g id="Grupo_38349" data-name="Grupo 38349" transform="translate(20.396 52.012)">
          <path id="Trazado_82682" data-name="Trazado 82682" d="M576.391,2692.639a30.167,30.167,0,1,1,30.167-30.167A30.2,30.2,0,0,1,576.391,2692.639Zm0-50.874a20.707,20.707,0,1,0,20.707,20.706A20.73,20.73,0,0,0,576.391,2641.765Z" transform="translate(-546.224 -2632.304)" fill="#fff" opacity="0.73"/>
          <path id="Trazado_82683" data-name="Trazado 82683" d="M683.149,2703.322l-9.434.708q.057.767.058,1.549a20.6,20.6,0,0,1-1.23,7.031l8.9,3.212a30.036,30.036,0,0,0,1.791-10.243Q683.234,2704.44,683.149,2703.322Z" transform="translate(-622.899 -2675.412)" fill="url(#linear-gradient-8)"/>
          <path id="Trazado_82684" data-name="Trazado 82684" d="M576.391,2683.178a20.707,20.707,0,1,1,5.044-40.791l2.3-9.176a30.168,30.168,0,1,0,21.027,39.5l-8.9-3.212A20.742,20.742,0,0,1,576.391,2683.178Z" transform="translate(-546.224 -2632.304)" fill="url(#linear-gradient-9)"/>
          <path id="Trazado_82685" data-name="Trazado 82685" d="M672.381,2687.113l9.435-.708a29.945,29.945,0,0,0-2.966-10.953l-8.5,4.143A20.543,20.543,0,0,1,672.381,2687.113Z" transform="translate(-621.565 -2658.495)" fill="url(#linear-gradient-10)"/>
        </g>
      </g>
      <g id="Grupo_38356" data-name="Grupo 38356" transform="translate(9.811 56.014)">
        <g id="Grupo_38355" data-name="Grupo 38355" clip-path="url(#clip-path)">
          <g id="Grupo_38351" data-name="Grupo 38351" transform="translate(19.353 100.984)">
            <path id="Trazado_82686" data-name="Trazado 82686" d="M497.174,3031.983h86.5a5,5,0,0,0,4.994-4.995V2897.433a4.994,4.994,0,0,0-4.981-4.994l-87.191-.234a5,5,0,0,0-5.008,5.021l.692,129.789A4.994,4.994,0,0,0,497.174,3031.983Z" transform="translate(-491.488 -2892.205)" fill="url(#linear-gradient-11)"/>
            <path id="Trazado_82687" data-name="Trazado 82687" d="M508.866,2908.471l77.344.477a5.067,5.067,0,0,1,5.036,5.091l-.54,116.28a5.068,5.068,0,0,1-4.975,5.043l-75.149,1.371a5.068,5.068,0,0,1-5.159-5l-1.655-118.127A5.067,5.067,0,0,1,508.866,2908.471Z" transform="translate(-498.942 -2902.078)" fill="#fff" opacity="0.6"/>
            <rect id="Rectángulo_32527" data-name="Rectángulo 32527" width="62.625" height="3.565" rx="1.783" transform="translate(13.07 11.391)" fill="#fff" opacity="0.6"/>
            <path id="Trazado_82688" data-name="Trazado 82688" d="M541.659,2939.645h0a1.516,1.516,0,0,0,1.486,1.434l52.117.95a1.516,1.516,0,0,0,1.544-1.516v-.124a1.516,1.516,0,0,0-1.492-1.516l-52.117-.826A1.516,1.516,0,0,0,541.659,2939.645Z" transform="translate(-521.94 -2920.031)" fill="#fff" opacity="0.6"/>
            <path id="Trazado_82689" data-name="Trazado 82689" d="M518.73,3062.341a4.4,4.4,0,0,1-4.39-4.313l-1.691-95.1a4.4,4.4,0,0,1,4.306-4.469l70.368-1.37a4.392,4.392,0,0,1,4.477,4.308l1.814,95.626a4.392,4.392,0,0,1-4.338,4.475l-70.491.846Zm68.68-103.674h-.056l-70.368,1.37a2.813,2.813,0,0,0-2.755,2.859h0l1.691,95.1a2.822,2.822,0,0,0,2.843,2.759l70.491-.846a2.809,2.809,0,0,0,2.775-2.863l-1.814-95.626a2.809,2.809,0,0,0-2.808-2.757Z" transform="translate(-504.332 -2931.587)" fill="#fff" opacity="0.61"/>
            <path id="Trazado_82690" data-name="Trazado 82690" d="M592.535,2983.014h-76.77a.791.791,0,0,1,0-1.583h76.77a.791.791,0,0,1,0,1.583Z" transform="translate(-505.743 -2946.365)" fill="#fff" opacity="0.61"/>
          </g>
          <g id="Grupo_38354" data-name="Grupo 38354" transform="translate(142.178 125.969)">
            <path id="Trazado_82691" data-name="Trazado 82691" d="M971.626,2956.569l-164.043-.789c-1.977-.018-3.583,2.169-3.568,4.859l.364,64.9c.015,2.705,1.663,4.865,3.65,4.783l163.108-3.493c1.9-.078,3.413-2.176,3.437-4.759l.572-60.621C975.172,2958.778,973.592,2956.586,971.626,2956.569Z" transform="translate(-804.016 -2955.78)" fill="url(#linear-gradient-12)"/>
            <path id="Trazado_82692" data-name="Trazado 82692" d="M812.567,3032.6a.6.6,0,0,1-.542-.653l-.364-64.9a.731.731,0,0,1,.136-.445.49.49,0,0,1,.405-.217l164.044.789a.487.487,0,0,1,.4.221.727.727,0,0,1,.134.444l-.571,60.621a.6.6,0,0,1-.521.65h0Zm-.365-65.8c-.01,0-.031,0-.064.046a.316.316,0,0,0-.055.194l.364,64.9c0,.143.077.235.116.235l163.115-3.493c.043,0,.112-.1.113-.234l.572-60.621a.318.318,0,0,0-.054-.193c-.034-.047-.056-.047-.064-.047Z" transform="translate(-808.657 -2962.213)" fill="#fff"/>
            <g id="Grupo_38352" data-name="Grupo 38352" transform="translate(13.279 12.309)" opacity="0.6">
              <rect id="Rectángulo_32528" data-name="Rectángulo 32528" width="2.634" height="37.908" transform="translate(30.71 51.054) rotate(-90)" fill="#fff"/>
              <rect id="Rectángulo_32529" data-name="Rectángulo 32529" width="2.634" height="24.88" transform="translate(43.739 46.652) rotate(-90)" fill="#fff"/>
              <rect id="Rectángulo_32530" data-name="Rectángulo 32530" width="2.634" height="57.079" transform="translate(11.54 42.25) rotate(-90)" fill="#fff"/>
              <rect id="Rectángulo_32531" data-name="Rectángulo 32531" width="2.634" height="13.713" transform="translate(54.906 37.849) rotate(-90)" fill="#fff"/>
              <rect id="Rectángulo_32532" data-name="Rectángulo 32532" width="2.634" height="49.448" transform="translate(19.171 33.447) rotate(-90)" fill="#fff"/>
              <rect id="Rectángulo_32533" data-name="Rectángulo 32533" width="2.634" height="40.886" transform="translate(27.732 29.045) rotate(-90)" fill="#fff"/>
              <rect id="Rectángulo_32534" data-name="Rectángulo 32534" width="2.634" height="31.58" transform="translate(37.038 24.643) rotate(-90)" fill="#fff"/>
              <rect id="Rectángulo_32535" data-name="Rectángulo 32535" width="2.634" height="68.619" transform="translate(0 20.241) rotate(-90)" fill="#fff"/>
              <rect id="Rectángulo_32536" data-name="Rectángulo 32536" width="2.634" height="61.36" transform="translate(7.259 15.84) rotate(-90)" fill="#fff"/>
              <rect id="Rectángulo_32537" data-name="Rectángulo 32537" width="2.634" height="50.379" transform="translate(18.24 11.438) rotate(-90)" fill="#fff"/>
              <rect id="Rectángulo_32538" data-name="Rectángulo 32538" width="2.634" height="12.44" transform="translate(56.179 7.036) rotate(-90)" fill="#fff"/>
              <rect id="Rectángulo_32539" data-name="Rectángulo 32539" width="2.634" height="36.606" transform="translate(32.013 2.634) rotate(-90)" fill="#fff"/>
            </g>
            <g id="Grupo_38353" data-name="Grupo 38353" transform="translate(91.056 12.309)" opacity="0.6">
              <rect id="Rectángulo_32540" data-name="Rectángulo 32540" width="2.634" height="37.908" transform="translate(0 51.054) rotate(-90)" fill="#fff"/>
              <rect id="Rectángulo_32541" data-name="Rectángulo 32541" width="2.634" height="24.88" transform="translate(0 46.652) rotate(-90)" fill="#fff"/>
              <rect id="Rectángulo_32542" data-name="Rectángulo 32542" width="2.634" height="57.079" transform="translate(0 42.25) rotate(-90)" fill="#fff"/>
              <rect id="Rectángulo_32543" data-name="Rectángulo 32543" width="2.634" height="13.713" transform="translate(0 37.849) rotate(-90)" fill="#fff"/>
              <rect id="Rectángulo_32544" data-name="Rectángulo 32544" width="2.634" height="49.448" transform="translate(0 33.447) rotate(-90)" fill="#fff"/>
              <rect id="Rectángulo_32545" data-name="Rectángulo 32545" width="2.634" height="40.886" transform="translate(0 29.045) rotate(-90)" fill="#fff"/>
              <rect id="Rectángulo_32546" data-name="Rectángulo 32546" width="2.634" height="31.58" transform="translate(0 24.643) rotate(-90)" fill="#fff"/>
              <rect id="Rectángulo_32547" data-name="Rectángulo 32547" width="2.634" height="68.619" transform="translate(0 20.241) rotate(-90)" fill="#fff"/>
              <rect id="Rectángulo_32548" data-name="Rectángulo 32548" width="2.634" height="61.36" transform="translate(0 15.84) rotate(-90)" fill="#fff"/>
              <rect id="Rectángulo_32549" data-name="Rectángulo 32549" width="2.634" height="50.379" transform="translate(0 11.438) rotate(-90)" fill="#fff"/>
              <rect id="Rectángulo_32550" data-name="Rectángulo 32550" width="2.634" height="12.44" transform="translate(0 7.036) rotate(-90)" fill="#fff"/>
              <rect id="Rectángulo_32551" data-name="Rectángulo 32551" width="2.634" height="36.606" transform="translate(0 2.634) rotate(-90)" fill="#fff"/>
            </g>
          </g>
        </g>
      </g>
    </g>
    <g id="Grupo_38361" data-name="Grupo 38361" transform="translate(571.127 2574.955)">
      <path id="Trazado_82694" data-name="Trazado 82694" d="M1018.491,2702.947l-205.284-.987c-2.474-.023-4.483,2.714-4.465,6.081l.455,81.22c.019,3.386,2.081,6.088,4.568,5.986l204.114-4.372c2.374-.1,4.271-2.723,4.3-5.955l.715-75.862C1022.927,2705.712,1020.95,2702.969,1018.491,2702.947Z" transform="translate(-808.742 -2701.96)" fill="url(#linear-gradient-13)"/>
      <path id="Trazado_82695" data-name="Trazado 82695" d="M819.443,2798.087a.752.752,0,0,1-.678-.818l-.454-81.219a.918.918,0,0,1,.169-.557.614.614,0,0,1,.507-.273l205.285.987a.612.612,0,0,1,.5.277.915.915,0,0,1,.168.556l-.715,75.861a.754.754,0,0,1-.652.813h0Zm-.457-82.34c-.013,0-.039,0-.081.057a.394.394,0,0,0-.068.243l.454,81.219c0,.18.1.294.146.294l204.123-4.372c.053,0,.14-.121.141-.293l.715-75.86a.4.4,0,0,0-.068-.244c-.042-.057-.068-.058-.079-.058Z" transform="translate(-814.55 -2710.01)" fill="#fff"/>
      <g id="Grupo_38360" data-name="Grupo 38360" transform="translate(19.607 14.775)">
        <circle id="Elipse_517" data-name="Elipse 517" cx="21.254" cy="21.254" r="21.254" fill="#fff"/>
        <circle id="Elipse_518" data-name="Elipse 518" cx="21.254" cy="21.254" r="21.254" transform="translate(52.639)" fill="#fff"/>
        <circle id="Elipse_519" data-name="Elipse 519" cx="21.254" cy="21.254" r="21.254" transform="translate(105.46 0.696)" fill="#fff"/>
        <g id="Grupo_38358" data-name="Grupo 38358" transform="translate(4.144 4.839)">
          <path id="Trazado_82696" data-name="Trazado 82696" d="M898.915,2763.791a13.652,13.652,0,1,1-12.629-8.464q.347,0,.689.017v-3.46c-.229-.009-.458-.015-.689-.015a17.1,17.1,0,1,0,15.8,10.543Z" transform="translate(-869.176 -2751.869)" fill="url(#linear-gradient-14)"/>
          <path id="Trazado_82697" data-name="Trazado 82697" d="M1027.374,2780.529a13.651,13.651,0,1,1-7.274-25.2q.346,0,.689.017v-3.46c-.229-.009-.458-.015-.689-.015a17.11,17.11,0,1,0,8.99,31.669Z" transform="translate(-950.4 -2751.869)" fill="url(#linear-gradient-15)"/>
          <path id="Trazado_82698" data-name="Trazado 82698" d="M1166.645,2776.654a13.652,13.652,0,1,1-11.29-21.327q.346,0,.688.017v-3.46c-.229-.009-.458-.015-.688-.015a17.11,17.11,0,1,0,14.092,26.814Z" transform="translate(-1032.5 -2751.869)" fill="url(#linear-gradient-16)"/>
        </g>
        <g id="Grupo_38359" data-name="Grupo 38359" transform="translate(0.152 51.51)">
          <path id="Trazado_82699" data-name="Trazado 82699" d="M897.59,2870.622H862.955a3.936,3.936,0,0,0,0,7.873H897.59a3.936,3.936,0,0,0,0-7.873Z" transform="translate(-859.019 -2870.622)" fill="#fff" opacity="0.5"/>
          <path id="Trazado_82700" data-name="Trazado 82700" d="M1031.994,2870.622H997.359a3.936,3.936,0,0,0,0,7.873h34.635a3.936,3.936,0,0,0,0-7.873Z" transform="translate(-940.602 -2870.622)" fill="#fff" opacity="0.5"/>
          <path id="Trazado_82701" data-name="Trazado 82701" d="M1130.912,2878.495h34.635a3.936,3.936,0,0,0,0-7.873h-34.635a3.936,3.936,0,1,0,0,7.873Z" transform="translate(-1021.668 -2870.622)" fill="#fff" opacity="0.5"/>
        </g>
      </g>
    </g>
    <g id="Grupo_38369" data-name="Grupo 38369" transform="translate(427.83 2584.123)">
      <g id="Grupo_38367" data-name="Grupo 38367" transform="translate(0 31.874)">
        <g id="Grupo_38362" data-name="Grupo 38362" transform="translate(43.513 161.263)">
          <path id="Trazado_82702" data-name="Trazado 82702" d="M576.055,3249.627c-3.739.324-10.229.849-15.345,1.074a14.769,14.769,0,0,1-5.866-.574q0,.173.009.325a1.058,1.058,0,0,0,1.005,1,179.74,179.74,0,0,0,20.092.02.753.753,0,0,0,.614-1.132A6.153,6.153,0,0,0,576.055,3249.627Z" transform="translate(-554.844 -3236.697)" fill="url(#linear-gradient-17)"/>
          <path id="Trazado_82703" data-name="Trazado 82703" d="M560.709,3239.039c5.116-.225,11.606-.75,15.345-1.074-3.676-4.51-15.345-7.55-15.345-7.55h-3.3a13.821,13.821,0,0,0-2.57,8.05A14.769,14.769,0,0,0,560.709,3239.039Z" transform="translate(-554.842 -3225.035)" fill="url(#linear-gradient-18)"/>
          <path id="Trazado_82704" data-name="Trazado 82704" d="M559.972,3216.726l.309,6.1a1.394,1.394,0,0,0,1.19,1.311,5.417,5.417,0,0,0,2.476-.205,1.649,1.649,0,0,0,1.109-1.268l1.065-5.941Z" transform="translate(-557.956 -3216.726)" fill="url(#linear-gradient-19)"/>
        </g>
        <g id="Grupo_38364" data-name="Grupo 38364" transform="translate(0 155.56)">
          <g id="Grupo_38363" data-name="Grupo 38363" transform="translate(0 5.664)">
            <path id="Trazado_82705" data-name="Trazado 82705" d="M446.847,3249.2a2.96,2.96,0,0,1-2.663-1.969l-.006.024a2.107,2.107,0,0,0,1.42,2.4,9.279,9.279,0,0,0,3.932.616,3.91,3.91,0,0,0,2.948-1.36l.009-.012C451.266,3249.507,449.552,3249.578,446.847,3249.2Z" transform="translate(-444.124 -3235.203)" fill="url(#linear-gradient-20)"/>
            <path id="Trazado_82706" data-name="Trazado 82706" d="M454.586,3216.625h-2.718c-4.14-.084-6.739,8.647-7.591,12.028a2.961,2.961,0,0,0,2.663,1.969c2.7.377,4.419.306,5.641-.3,2.237-2.943,3.345-7.254,3.878-9.77A3.43,3.43,0,0,0,454.586,3216.625Z" transform="translate(-444.217 -3216.625)" fill="url(#linear-gradient-21)"/>
          </g>
          <path id="Trazado_82707" data-name="Trazado 82707" d="M462.075,3202.213l-1.509,6a1.629,1.629,0,0,0,.848,1.846,5.788,5.788,0,0,0,3.125.757,1.362,1.362,0,0,0,1.11-.908l2.216-6.315Z" transform="translate(-454.074 -3202.213)" fill="url(#linear-gradient-22)"/>
        </g>
        <path id="Trazado_82708" data-name="Trazado 82708" d="M459.9,3074.814c1.878,1.666,7.985,1.886,7.985,1.886,22-52.8,31-60.3,31-60.3-3.177,19.929-.512,64.051-.512,64.051,3.63,1.6,8.31,0,8.31,0a340.089,340.089,0,0,1,11.234-83.513c-14.869-.334-22.776-5.422-25.358-7.465C480.164,3009.453,459.9,3074.814,459.9,3074.814Z" transform="translate(-453.7 -2917.52)" fill="url(#linear-gradient-23)"/>
        <path id="Trazado_82709" data-name="Trazado 82709" d="M544.638,2834.408c-2.814,14.038-1.805,39.164-1.143,50.624.186,3.221-2.062,7.687-3.88,10.733a.955.955,0,0,0,.386,1.344,66.275,66.275,0,0,0,25.3,7.014,1.7,1.7,0,0,0,1.714-1.273c8.863-33.092,19.157-54.237,19.157-54.237C574.806,2830.465,544.638,2834.408,544.638,2834.408Z" transform="translate(-502.003 -2823.178)" fill="url(#linear-gradient-24)"/>
        <path id="Trazado_82710" data-name="Trazado 82710" d="M561.826,3041.35a.705.705,0,0,1-.6-1.071,22.1,22.1,0,0,1,8.723-7.573.7.7,0,1,1,.612,1.269,21.079,21.079,0,0,0-8.132,7.037A.7.7,0,0,1,561.826,3041.35Z" transform="translate(-515.141 -2943.722)" fill="url(#linear-gradient-25)"/>
        <g id="Grupo_38365" data-name="Grupo 38365" transform="translate(24.62 11.23)">
          <path id="Trazado_82711" data-name="Trazado 82711" d="M507.689,2935.975c.9,6.54,3.575,13.673,8.918,21.25l2.031-1.656a62.719,62.719,0,0,1-1.012-20.309C514.33,2934.617,510.438,2935.28,507.689,2935.975Z" transform="translate(-507.327 -2895.686)" fill="url(#linear-gradient-26)"/>
          <path id="Trazado_82712" data-name="Trazado 82712" d="M527.927,2852.288l-3.144-17.321s-21,16.054-17.653,40.289c2.749-.7,6.641-1.358,9.938-.715C518.028,2866.764,520.9,2858.321,527.927,2852.288Z" transform="translate(-506.768 -2834.967)" fill="url(#linear-gradient-27)"/>
        </g>
        <g id="Grupo_38366" data-name="Grupo 38366" transform="translate(76.06 25.435)">
          <path id="Trazado_82713" data-name="Trazado 82713" d="M645.766,2871.112l-8.107,17.46c1.311,10.541,6.973,15.1,13.079,16.847a37.038,37.038,0,0,1,2.723-11.37C645.659,2885.994,645.766,2871.112,645.766,2871.112Z" transform="translate(-637.659 -2871.112)" fill="url(#linear-gradient-28)"/>
          <path id="Trazado_82714" data-name="Trazado 82714" d="M673.662,2929.474a37.04,37.04,0,0,0-2.723,11.37c16.29,6.32,20.6-5.937,20.6-5.937l-3.01-.531C681.729,2935.092,676.98,2932.9,673.662,2929.474Z" transform="translate(-657.86 -2906.538)" fill="url(#linear-gradient-29)"/>
        </g>
        <path id="Trazado_82715" data-name="Trazado 82715" d="M615.7,2810.272l-3.914,14.388a2.8,2.8,0,0,1-3.743,1.863,56.883,56.883,0,0,1-5.641-2.576,3.772,3.772,0,0,1-1.33-5.421l8.137-12.133Z" transform="translate(-538.998 -2806.392)" fill="url(#linear-gradient-30)"/>
      </g>
      <path id="Trazado_82716" data-name="Trazado 82716" d="M579.647,2918.8l-100.289,36.5a7.679,7.679,0,0,0-4.364,10.395l.3.669a7.138,7.138,0,0,0,9.495,3.523l97.38-45.048Z" transform="translate(-462.442 -2842.749)" fill="url(#linear-gradient-31)"/>
      <ellipse id="Elipse_520" data-name="Elipse 520" cx="49.508" cy="48.614" rx="49.508" ry="48.614" transform="translate(113.794 5.48)" opacity="0.14" fill="url(#linear-gradient-32)"/>
      <path id="Trazado_82717" data-name="Trazado 82717" d="M774.561,2725.288c-30.424,0-55.089,24.219-55.089,54.094s24.664,54.1,55.089,54.1,55.089-24.219,55.089-54.1S804.985,2725.288,774.561,2725.288Zm0,100.243c-25.955,0-47-20.661-47-46.149s21.041-46.148,47-46.148,47,20.661,47,46.148S800.516,2825.531,774.561,2825.531Z" transform="translate(-611.259 -2725.288)" fill="url(#linear-gradient-33)"/>
      <path id="Trazado_82718" data-name="Trazado 82718" d="M729.033,2791.256a.37.37,0,0,1-.367-.323c-.165-1.289-.279-2.594-.343-3.878a.37.37,0,0,1,.351-.388.347.347,0,0,1,.389.352c.062,1.265.175,2.551.337,3.822a.37.37,0,0,1-.32.414A.389.389,0,0,1,729.033,2791.256Zm.378-15.126a.385.385,0,0,1-.066-.006.369.369,0,0,1-.3-.429,49.8,49.8,0,0,1,2.971-10.172h0a51.482,51.482,0,0,1,47.914-31.713,52.2,52.2,0,0,1,27.745,7.929.37.37,0,0,1-.393.627,51.454,51.454,0,0,0-27.352-7.816,50.745,50.745,0,0,0-47.23,31.256h0a49,49,0,0,0-2.927,10.019A.371.371,0,0,1,729.411,2776.13Z" transform="translate(-616.631 -2730.46)" fill="#fff"/>
      <g id="Grupo_38368" data-name="Grupo 38368" transform="translate(67.071 17.095)">
        <path id="Trazado_82719" data-name="Trazado 82719" d="M641.828,2784.883c.035.247-3.265,16.419-3.265,16.419l-9.194-2.081.85-15.792S641.231,2780.746,641.828,2784.883Z" transform="translate(-623.638 -2777.155)" fill="url(#linear-gradient-34)"/>
        <path id="Trazado_82720" data-name="Trazado 82720" d="M623.651,2778.579l-1.1,8.278a1.14,1.14,0,0,0,0,.317c.093.649.575,2.858,2.805,2.226,2.024-.573,3.879-1.066,5.16-.674a1.165,1.165,0,0,1,.8,1.348,50.4,50.4,0,0,1-2.116,7.535,1.163,1.163,0,0,1-1.412.688,37.561,37.561,0,0,1-8.1-3.316,1.167,1.167,0,0,1-.568-1.05c.088-2.09.333-8.443.127-10.223-.193-1.672-2.244-2.673-3.135-3.032a1.148,1.148,0,0,1-.638-.641c-.413-1.034-.982-3.427,2.035-4.408a1.168,1.168,0,0,0,.739-1.51,3.03,3.03,0,0,1,1.7-4.187,4.274,4.274,0,0,1,5.1,1.229,1.166,1.166,0,0,0,1.487.176.923.923,0,0,1,1.05.036,1.149,1.149,0,0,0,1.627-.493,3.484,3.484,0,0,1,4.047-2.016c4.12.705,4.586,5.271,3.5,7.946s-5.51,1.656-7.729.308c-1.687-1.025-3.875.049-4.828.624A1.158,1.158,0,0,0,623.651,2778.579Z" transform="translate(-615 -2768.785)" fill="url(#linear-gradient-35)"/>
        <path id="Trazado_82721" data-name="Trazado 82721" d="M618.661,2804.483s1.693-4.743-.046-5.9-4.317-.559-3.75,2.877C615.57,2805.73,618.661,2804.483,618.661,2804.483Z" transform="translate(-614.785 -2786.542)" fill="url(#linear-gradient-36)"/>
      </g>
      <path id="Trazado_82722" data-name="Trazado 82722" d="M530.542,2985.412l9.481-.772,4.106,3.785s-.971,1.343-4.008.571a43.49,43.49,0,0,0-7.2-.961s-4.193,1.89-4.244-1.646Z" transform="translate(-495.449 -2882.713)" fill="url(#linear-gradient-37)"/>
      <path id="Trazado_82723" data-name="Trazado 82723" d="M718.766,2937.92c.82.641,3.629-.7,5.348-1.621a1.978,1.978,0,0,0,.956-2.337c-.414-1.3-1.1-2.989-1.953-3.2C721.709,2930.409,715.387,2935.28,718.766,2937.92Z" transform="translate(-610.235 -2849.998)" fill="url(#linear-gradient-38)"/>
      <path id="Trazado_82724" data-name="Trazado 82724" d="M484.433,3020.726a.377.377,0,0,1-.121-.02c-3.917-1.355-4.828-3.669-4.9-5.372a5.967,5.967,0,0,1,3.891-5.749l12.042-4.7a.37.37,0,0,1,.268.69l-12.042,4.7a5.226,5.226,0,0,0-3.419,5.026c.093,2.144,1.575,3.727,4.406,4.7a.37.37,0,0,1-.121.72Z" transform="translate(-465.538 -2894.989)" fill="#fff"/>
      <path id="Trazado_82725" data-name="Trazado 82725" d="M529.167,3000.982a.37.37,0,0,1-.134-.715l1.561-.608a.37.37,0,0,1,.268.69l-1.561.608A.362.362,0,0,1,529.167,3000.982Z" transform="translate(-495.52 -2891.814)" fill="#fff"/>
    </g>
  </g>
</svg>
