<svg xmlns="http://www.w3.org/2000/svg" width="212.869" height="346" viewBox="0 0 212.869 346">
  <g id="Grupo_38422" data-name="Grupo 38422" transform="translate(20.713 -0.873)">
    <g id="Grupo_38389" data-name="Grupo 38389" transform="translate(-7.915 159.865)">
      <g id="Grupo_38380" data-name="Grupo 38380" transform="translate(7.335 3.023)" style="mix-blend-mode: multiply;isolation: isolate">
        <path id="Trazado_82727" data-name="Trazado 82727" d="M30.418,252.383H29.3l-.153-1.11c-.5-3.687-.986-6.9-1.412-9.739-1.953-13-2.762-18.381,1.218-24.635,4.1-6.434,9.777-10.483,15.273-14.4,5.8-4.134,11.8-8.408,15.906-15.545,3.941-6.851,3.741-14.419-.526-19.752-5.1-6.375-14.643-8.166-25.543-4.792a81.169,81.169,0,0,0-13.832,5.744c-9.106,4.627-9.77,3.6-20.843-13.56-1.145-1.773-2.408-3.73-3.81-5.885l-.621-.953.873-.732C18.645,127.9,46.594,122,70.6,131.228c17.561,6.75,29.389,20.366,31.641,36.424,2.558,18.254-7.615,37.035-28.649,52.882C59.921,230.841,60.518,237.858,60.913,242.5c.193,2.276.377,4.424-1.182,6.122C57.117,251.471,49.994,252.383,30.418,252.383Zm13.967-94.217c7.226,0,13.321,2.547,17.226,7.431,4.94,6.177,5.224,14.851.745,22.638C57.971,195.86,51.74,200.3,45.714,204.593c-5.54,3.946-10.77,7.673-14.6,13.686-3.464,5.443-2.751,10.189-.847,22.874.386,2.556.816,5.422,1.266,8.66,17-.033,24.408-.864,26.3-2.925.759-.828.7-2,.514-4.167-.443-5.207-1.113-13.076,13.691-24.238C92.3,203.22,102.117,185.3,99.693,168.008c-2.12-15.117-13.341-27.971-30.018-34.382-22.811-8.77-49.394-3.291-71.322,14.643,1.158,1.782,2.217,3.425,3.191,4.933,5.281,8.184,8.191,12.692,10.374,14.185,1.692,1.154,3.061.553,7.146-1.524A83.4,83.4,0,0,1,33.3,159.956,37.623,37.623,0,0,1,44.385,158.166Z" transform="translate(5.046 -126.951)" fill="#00b8ad"/>
      </g>
      <g id="Grupo_38381" data-name="Grupo 38381" transform="translate(34.182 140.955)" style="mix-blend-mode: multiply;isolation: isolate">
        <path id="Trazado_82728" data-name="Trazado 82728" d="M36.679,274.792c-10.034,0-20.833-6.346-20.833-20.28,0-13.894,10.8-20.223,20.834-20.223,10.414,0,20.956,6.947,20.956,20.223,0,6.244-2.281,11.5-6.6,15.211A21.954,21.954,0,0,1,36.679,274.792Zm0-37.933c-8.8,0-18.264,5.524-18.264,17.652,0,12.168,9.468,17.71,18.263,17.71,8.856,0,18.388-5.542,18.388-17.71C55.066,242.383,45.535,236.859,36.68,236.859Z" transform="translate(-15.846 -234.289)" fill="#00b8ad"/>
      </g>
      <g id="Grupo_38386" data-name="Grupo 38386" style="mix-blend-mode: multiply;isolation: isolate">
        <g id="Grupo_38382" data-name="Grupo 38382" transform="translate(32.945 88.255)">
          <path id="Trazado_82729" data-name="Trazado 82729" d="M24.738,239.028H18.774l-.81-5.909c-.478-3.5-.938-6.577-1.347-9.3l-.057-.37c-2.043-13.6-3.069-20.427,2.025-28.434q.571-.894,1.171-1.735l2.093,1.492q-.563.786-1.095,1.623c-4.58,7.2-3.6,13.7-1.651,26.672l.055.371c.41,2.735.871,5.819,1.352,9.335l.5,3.687h3.723c21.076,0,28.142-1.059,31.508-4.722a7.908,7.908,0,0,0,2.071-5.2l2.566.14a10.491,10.491,0,0,1-2.745,6.8C54.084,237.887,47.218,239.028,24.738,239.028Z" transform="translate(-14.884 -193.278)" fill="#00b8ad"/>
        </g>
        <g id="Grupo_38383" data-name="Grupo 38383" transform="translate(54.961 39.78)">
          <path id="Trazado_82730" data-name="Trazado 82730" d="M49.338,170.385l-2.555-.281a11.719,11.719,0,0,0,.071-1.284,10.079,10.079,0,0,0-1.339-5.121c-2.251-3.892-7.221-5.938-13.323-5.521l-.176-2.564c7.142-.49,12.966,2.033,15.724,6.8a12.62,12.62,0,0,1,1.685,6.408A14.3,14.3,0,0,1,49.338,170.385Z" transform="translate(-32.016 -155.555)" fill="#00b8ad"/>
        </g>
        <g id="Grupo_38384" data-name="Grupo 38384">
          <path id="Trazado_82731" data-name="Trazado 82731" d="M15.256,176.765c-6.976,0-10.224-5.032-18.9-18.481l-.071-.111c-1.123-1.741-2.361-3.658-3.732-5.766l-3.3-5.076,4.643-3.891A90.917,90.917,0,0,1,29.527,124.6l.643,2.489A88.36,88.36,0,0,0-4.46,145.41l-2.9,2.427,2.062,3.168c1.372,2.11,2.612,4.031,3.737,5.775l-1.007.807,1.079-.7c8.354,12.945,11.168,17.306,16.744,17.306a13.455,13.455,0,0,0,5.88-1.681l1.114,2.316A15.7,15.7,0,0,1,15.256,176.765Z" transform="translate(10.754 -124.599)" fill="#00b8ad"/>
        </g>
        <g id="Grupo_38385" data-name="Grupo 38385" transform="translate(103.995 39.7)">
          <path id="Trazado_82732" data-name="Trazado 82732" d="M72.144,201.248l-1.97-1.651C79.35,188.635,84.2,176.715,84.2,165.126a42.546,42.546,0,0,0-.986-9.083l2.51-.55a45.1,45.1,0,0,1,1.046,9.633C86.773,177.327,81.714,189.817,72.144,201.248Z" transform="translate(-70.174 -155.493)" fill="#00b8ad"/>
        </g>
      </g>
      <g id="Grupo_38388" data-name="Grupo 38388" transform="translate(28.632 145.954)" style="mix-blend-mode: multiply;isolation: isolate">
        <g id="Grupo_38387" data-name="Grupo 38387" transform="translate(0)">
          <path id="Trazado_82733" data-name="Trazado 82733" d="M38.033,279.233h-.122c-13.111,0-26.384-8.872-26.384-25.829a27.84,27.84,0,0,1,1.367-8.8l2.439.812A25.205,25.205,0,0,0,14.1,253.4c0,15.27,11.98,23.259,23.814,23.259ZM61.67,265.514l-2.292-1.163a23.945,23.945,0,0,0,2.47-10.947,22.847,22.847,0,0,0-4.178-13.718l2.082-1.507A25.36,25.36,0,0,1,64.418,253.4,26.494,26.494,0,0,1,61.67,265.514Z" transform="translate(-11.527 -238.179)" fill="#00b8ad"/>
        </g>
      </g>
    </g>
    <g id="Grupo_38401" data-name="Grupo 38401" transform="translate(114.069 118.435)">
      <g id="Grupo_38391" data-name="Grupo 38391" transform="translate(7.334 5.527)" style="mix-blend-mode: multiply;isolation: isolate">
        <g id="Grupo_38390" data-name="Grupo 38390">
          <path id="Trazado_82734" data-name="Trazado 82734" d="M111.636,172.216h-1.122l-.152-1.11c-.3-2.19-.585-4.1-.838-5.783-1.18-7.857-1.669-11.109.8-14.989,2.487-3.908,5.9-6.343,9.21-8.7,3.557-2.535,6.917-4.928,9.3-9.07,2.232-3.88,2.129-8.151-.266-11.148-2.89-3.614-8.353-4.611-14.613-2.674a47.716,47.716,0,0,0-8.134,3.378c-5.828,2.963-6.513,1.9-13.058-8.24-.678-1.052-1.428-2.214-2.26-3.491l-.621-.955.871-.731c13.7-11.48,30.507-15.021,44.941-9.471,10.612,4.079,17.76,12.323,19.126,22.052,1.547,11.04-4.568,22.37-17.222,31.9-7.889,5.95-7.562,9.787-7.325,12.589.119,1.4.243,2.857-.838,4.034C127.745,171.656,123.585,172.216,111.636,172.216Zm8.3-57.013c4.451,0,8.216,1.581,10.639,4.611,3.07,3.84,3.258,9.219.488,14.034-2.663,4.627-6.412,7.3-10.037,9.882-3.246,2.313-6.315,4.5-8.533,7.984-1.953,3.07-1.538,5.835-.428,13.228.211,1.4.445,2.959.69,4.7,6.8-.021,13.583-.257,14.787-1.569.3-.33.266-.939.17-2.078-.256-3.012-.685-8.055,8.339-14.859,11.875-8.946,17.636-19.421,16.222-29.5-1.232-8.79-7.774-16.271-17.5-20.009-13.249-5.1-28.682-1.979-41.489,8.321q.883,1.361,1.64,2.535c3.1,4.806,4.81,7.453,6.019,8.281.732.5,1.275.3,3.715-.939a50.082,50.082,0,0,1,8.538-3.543A22.912,22.912,0,0,1,119.936,115.2Z" transform="translate(-89.88 -96.66)" fill="#003359"/>
        </g>
      </g>
      <g id="Grupo_38393" data-name="Grupo 38393" transform="translate(23.449 87.466)" style="mix-blend-mode: multiply;isolation: isolate">
        <g id="Grupo_38392" data-name="Grupo 38392">
          <path id="Trazado_82735" data-name="Trazado 82735" d="M115.32,185.528c-6.41,0-12.9-4.318-12.9-12.569,0-8.229,6.489-12.535,12.9-12.535,6.444,0,12.971,4.306,12.971,12.535C128.291,181.211,121.765,185.528,115.32,185.528Zm0-22.534c-4.974,0-10.329,3.119-10.329,9.965,0,6.87,5.355,10,10.329,10,5.009,0,10.4-3.129,10.4-10C125.721,166.113,120.329,162.994,115.32,162.994Z" transform="translate(-102.421 -160.424)" fill="#003359"/>
        </g>
      </g>
      <g id="Grupo_38398" data-name="Grupo 38398" style="mix-blend-mode: multiply;isolation: isolate">
        <g id="Grupo_38394" data-name="Grupo 38394" transform="translate(20.474 45.106)">
          <path id="Trazado_82736" data-name="Trazado 82736" d="M108.721,168.987h-5.963l-.81-5.909c-.29-2.124-.569-3.98-.813-5.621-1.248-8.294-1.992-13.249,1.592-18.881,3.067-4.821,7.106-7.7,10.67-10.238l1.227-.879,1.5,2.084-1.236.885c-3.376,2.406-7.2,5.129-9.995,9.526-3.069,4.821-2.454,8.9-1.232,17.036.26,1.736.54,3.6.831,5.739l.5,3.687h3.721c11.92,0,17.331-.468,19.994-3.366,1.966-2.141,1.753-4.645,1.613-6.3-.227-2.681.05-5.255,5.767-9.666l1.569,2.035c-5.072,3.913-4.922,5.691-4.776,7.411.158,1.849.451,5.289-2.28,8.261C127.335,168.354,122.028,168.987,108.721,168.987Z" transform="translate(-100.105 -127.46)" fill="#003359"/>
        </g>
        <g id="Grupo_38395" data-name="Grupo 38395" transform="translate(41.031 31.044)">
          <path id="Trazado_82737" data-name="Trazado 82737" d="M119.719,123.2l-2.478-.681a4.859,4.859,0,0,0,.181-1.275,3.264,3.264,0,0,0-.419-1.656,3.129,3.129,0,0,0-.9-.978l1.5-2.089a5.7,5.7,0,0,1,1.629,1.778,5.8,5.8,0,0,1,.765,2.945A7.392,7.392,0,0,1,119.719,123.2Z" transform="translate(-116.103 -116.517)" fill="#003359"/>
        </g>
        <g id="Grupo_38396" data-name="Grupo 38396">
          <path id="Trazado_82738" data-name="Trazado 82738" d="M103.29,130.375c-5.657,0-8.134-3.84-13.564-12.254l-5.554-8.554,4.642-3.89c11.347-9.505,24.558-14.135,37.8-13.2l-.181,2.564c-12.588-.884-25.14,3.531-35.971,12.606l-2.9,2.427,4.318,6.653c5.2,8.062,7.149,11.078,11.4,11.078,1.966,0,3.607-.834,5.508-1.8a44.567,44.567,0,0,1,7.664-3.188,19.005,19.005,0,0,1,3.664-.77l.258,2.557a16.373,16.373,0,0,0-3.162.668,42.3,42.3,0,0,0-7.259,3.024A14.4,14.4,0,0,1,103.29,130.375Z" transform="translate(-84.173 -92.359)" fill="#003359"/>
        </g>
        <g id="Grupo_38397" data-name="Grupo 38397" transform="translate(71.402 26.919)">
          <path id="Trazado_82739" data-name="Trazado 82739" d="M141.981,136.137l-2.244-1.253a30.423,30.423,0,0,0,4.116-14.9,26.936,26.936,0,0,0-.7-6.095l2.506-.58a29.666,29.666,0,0,1,.763,6.674A32.949,32.949,0,0,1,141.981,136.137Z" transform="translate(-139.737 -113.307)" fill="#003359"/>
        </g>
      </g>
      <g id="Grupo_38400" data-name="Grupo 38400" transform="translate(17.899 81.916)" style="mix-blend-mode: multiply;isolation: isolate">
        <g id="Grupo_38399" data-name="Grupo 38399">
          <path id="Trazado_82740" data-name="Trazado 82740" d="M116.551,192.31c-9.167,0-18.449-6.225-18.449-18.119,0-11.874,9.282-18.086,18.449-18.086,8.979,0,18.521,6.339,18.521,18.086a17.968,17.968,0,0,1-2.555,9.5l-2.194-1.339a15.431,15.431,0,0,0,2.178-8.165c0-10.079-8.219-15.515-15.951-15.515-7.891,0-15.879,5.329-15.879,15.515,0,10.207,7.988,15.549,15.879,15.549Z" transform="translate(-98.102 -156.105)" fill="#003359"/>
        </g>
      </g>
    </g>
    <g id="Grupo_38411" data-name="Grupo 38411" transform="translate(28.704 0.873)">
      <g id="Grupo_38402" data-name="Grupo 38402" transform="translate(7.855 3.012)" style="mix-blend-mode: multiply;isolation: isolate">
        <path id="Trazado_82741" data-name="Trazado 82741" d="M60.025,131.214H58.9l-.152-1.112c-.515-3.765-1.009-7.048-1.443-9.945-1.992-13.263-2.817-18.752,1.24-25.129,4.178-6.564,9.977-10.7,15.585-14.692,5.925-4.221,12.051-8.587,16.245-15.878,4.03-7,3.823-14.741-.537-20.194-5.212-6.516-14.972-8.349-26.108-4.9A83.052,83.052,0,0,0,49.609,45.23c-9.273,4.715-9.95,3.667-21.245-13.836-1.168-1.809-2.456-3.806-3.886-6l-.622-.955.873-.731C48.015,4.192,76.537-1.837,101.034,7.581c17.917,6.889,29.986,20.782,32.283,37.163,2.612,18.625-7.771,37.788-29.234,53.96-13.966,10.532-13.357,17.7-12.952,22.451.2,2.317.384,4.507-1.2,6.23C87.267,130.284,80,131.214,60.025,131.214ZM74.283,35.084c7.37,0,13.583,2.6,17.564,7.575,5.036,6.3,5.328,15.142.759,23.08C88.133,73.519,81.775,78.05,75.624,82.43c-5.655,4.03-11,7.836-14.906,13.979-3.542,5.565-2.814,10.413-.867,23.367.393,2.616.833,5.55,1.294,8.867,17.383-.035,24.953-.884,26.893-3,.784-.852.721-2.052.532-4.274-.452-5.308-1.135-13.333,13.966-24.72,20.685-15.585,30.714-33.893,28.236-51.55-2.165-15.444-13.626-28.573-30.66-35.121C76.8,1.021,49.649,6.621,27.256,24.948c1.186,1.826,2.269,3.507,3.268,5.053,5.395,8.359,8.366,12.965,10.6,14.491,1.734,1.187,3.142.571,7.321-1.554a85.288,85.288,0,0,1,14.529-6.029A38.425,38.425,0,0,1,74.283,35.084Z" transform="translate(-23.856 -3.217)" fill="#ffb412"/>
      </g>
      <g id="Grupo_38403" data-name="Grupo 38403" transform="translate(35.255 143.823)" style="mix-blend-mode: multiply;isolation: isolate">
        <path id="Trazado_82742" data-name="Trazado 82742" d="M66.42,154.09c-10.23,0-21.242-6.47-21.242-20.676,0-14.166,11.011-20.618,21.243-20.618,10.618,0,21.366,7.083,21.366,20.618C87.787,146.987,77.039,154.09,66.42,154.09Zm0-38.724c-8.994,0-18.673,5.648-18.673,18.048,0,12.44,9.679,18.106,18.672,18.106,9.054,0,18.8-5.666,18.8-18.106C85.217,121.013,75.474,115.365,66.421,115.365Z" transform="translate(-45.178 -112.795)" fill="#ffb412"/>
      </g>
      <g id="Grupo_38408" data-name="Grupo 38408" style="mix-blend-mode: multiply;isolation: isolate">
        <g id="Grupo_38404" data-name="Grupo 38404" transform="translate(33.711 91.039)">
          <path id="Trazado_82743" data-name="Trazado 82743" d="M54.289,117.633H47.981l-.855-6.252c-.51-3.736-1-6.992-1.433-9.865-2.095-13.949-3.147-20.951,2.1-29.2.127-.2.254-.4.384-.594l2.146,1.415-.361.556c-4.737,7.444-3.732,14.128-1.731,27.443.433,2.882.925,6.153,1.437,9.9l.551,4.029h4.065c21.619,0,28.884-1.1,32.391-4.92a8.068,8.068,0,0,0,2.03-4.075l2.525.474a10.551,10.551,0,0,1-2.664,5.339C84.425,116.4,77.056,117.633,54.289,117.633Z" transform="translate(-43.977 -71.719)" fill="#ffb412"/>
        </g>
        <g id="Grupo_38405" data-name="Grupo 38405" transform="translate(55.502 40.818)">
          <path id="Trazado_82744" data-name="Trazado 82744" d="M79.237,47.575l-2.553-.3a12.127,12.127,0,0,0,.085-1.4,10.054,10.054,0,0,0-1.333-5.1C73.081,36.7,67.779,34.662,61.2,35.334l-.262-2.556c7.628-.784,13.853,1.739,16.725,6.7a12.59,12.59,0,0,1,1.68,6.392A14.75,14.75,0,0,1,79.237,47.575Z" transform="translate(-60.934 -32.637)" fill="#ffb412"/>
        </g>
        <g id="Grupo_38406" data-name="Grupo 38406">
          <path id="Trazado_82745" data-name="Trazado 82745" d="M44.627,54.28c-7.26,0-10.6-5.171-19.513-18.99-1.166-1.807-2.451-3.8-3.876-5.991l-3.5-5.37,4.909-4.115A93.6,93.6,0,0,1,57.848.873l.682,2.478A91.037,91.037,0,0,0,24.3,21.784l-3.164,2.652L23.391,27.9c1.429,2.2,2.717,4.189,3.882,6C35.871,47.22,38.767,51.71,44.627,51.71A11.872,11.872,0,0,0,49.37,50.6l1,2.366A14.27,14.27,0,0,1,44.627,54.28Z" transform="translate(-17.743 -0.873)" fill="#ffb412"/>
        </g>
        <g id="Grupo_38407" data-name="Grupo 38407" transform="translate(106.372 40.336)">
          <path id="Trazado_82746" data-name="Trazado 82746" d="M102.482,79.663,100.521,78c9.652-11.369,14.753-23.751,14.753-35.809a43.745,43.745,0,0,0-1.022-9.377l2.51-.553a46.246,46.246,0,0,1,1.082,9.929C117.845,54.866,112.532,67.824,102.482,79.663Z" transform="translate(-100.521 -32.262)" fill="#ffb412"/>
        </g>
      </g>
      <g id="Grupo_38410" data-name="Grupo 38410" transform="translate(29.309 148.75)" style="mix-blend-mode: multiply;isolation: isolate">
        <g id="Grupo_38409" data-name="Grupo 38409">
          <path id="Trazado_82747" data-name="Trazado 82747" d="M67.864,158.941h-.126c-13.511,0-27.187-9.144-27.187-26.621a28.639,28.639,0,0,1,1.408-9.07l2.438.812a26.083,26.083,0,0,0-1.276,8.258c0,15.789,12.384,24.051,24.617,24.051ZM92.221,144.8l-2.293-1.163a24.768,24.768,0,0,0,2.552-11.316,23.624,23.624,0,0,0-4.319-14.184l2.082-1.507a26.137,26.137,0,0,1,4.807,15.692A27.321,27.321,0,0,1,92.221,144.8Z" transform="translate(-40.551 -116.629)" fill="#ffb412"/>
        </g>
      </g>
    </g>
    <g id="Grupo_38421" data-name="Grupo 38421" transform="translate(-20.713 40.198)">
      <g id="Grupo_38412" data-name="Grupo 38412" transform="translate(7.059 5.318)" style="mix-blend-mode: multiply;isolation: isolate">
        <path id="Trazado_82748" data-name="Trazado 82748" d="M5.033,105.7H3.912L3.76,104.59c-.276-2.021-.541-3.786-.775-5.342-1.064-7.083-1.551-10.316.753-13.936s5.481-5.889,8.544-8.073c3.282-2.339,6.383-4.548,8.575-8.36,2.044-3.554,1.953-7.463-.238-10.2-2.647-3.31-7.661-4.224-13.414-2.442A44.1,44.1,0,0,0-.3,59.351c-5.473,2.782-6.11,1.793-12.2-7.652-.628-.975-1.322-2.05-2.092-3.233l-.621-.955.873-.731C-1.645,36.137,13.935,32.854,27.321,38c9.85,3.787,16.486,11.441,17.753,20.477,1.437,10.248-4.233,20.761-15.968,29.6-7.255,5.472-6.957,8.991-6.737,11.56.112,1.321.229,2.686-.8,3.806C19.982,105.176,16.119,105.7,5.033,105.7ZM12.71,52.768c4.147,0,7.656,1.475,9.917,4.3,2.867,3.585,3.042,8.6.46,13.091-2.474,4.3-5.95,6.776-9.313,9.171-3,2.134-5.826,4.152-7.867,7.359C4.12,89.5,4.5,92.05,5.527,98.866c.19,1.273.4,2.686.625,4.264,6.236-.021,12.439-.238,13.524-1.42.253-.275.217-.852.132-1.849-.239-2.807-.639-7.5,7.751-13.831C38.515,77.776,43.83,68.119,42.529,58.836,41.393,50.74,35.363,43.849,26.4,40.4,14.2,35.711-.012,38.568-11.817,48.03q.79,1.218,1.47,2.275c2.862,4.435,4.437,6.877,5.541,7.632.6.412,1.011.306,3.336-.876a46.561,46.561,0,0,1,7.915-3.283A21.288,21.288,0,0,1,12.71,52.768Z" transform="translate(15.22 -35.613)" fill="#0087eb"/>
      </g>
      <g id="Grupo_38417" data-name="Grupo 38417" style="mix-blend-mode: multiply;isolation: isolate">
        <g id="Grupo_38413" data-name="Grupo 38413" transform="translate(19.034 40.033)">
          <path id="Trazado_82749" data-name="Trazado 82749" d="M2.377,103.343H-3.405l-.784-5.73c-.269-1.97-.528-3.693-.754-5.215C-6.107,84.675-6.8,80.049-3.425,74.743c2.871-4.51,6.632-7.191,9.953-9.555,1.223-.873,2.38-1.7,3.423-2.56l1.64,1.98c-1.115.923-2.309,1.772-3.572,2.672-3.128,2.23-6.674,4.756-9.274,8.844-2.862,4.5-2.292,8.285-1.157,15.832.239,1.593.5,3.327.771,5.31l.479,3.508H2.377c11.06,0,16.085-.437,18.576-3.15a7.239,7.239,0,0,0,1.52-5.915c-.22-2.587.055-4.9,5.643-9.112q1.043-.785,2.024-1.587L31.767,83q-1.02.835-2.1,1.649c-4.9,3.693-4.767,5.222-4.63,6.842a9.725,9.725,0,0,1-2.187,7.872C19.743,102.742,14.784,103.343,2.377,103.343Z" transform="translate(5.901 -62.628)" fill="#0087eb"/>
        </g>
        <g id="Grupo_38414" data-name="Grupo 38414" transform="translate(38.927 30.509)">
          <path id="Trazado_82750" data-name="Trazado 82750" d="M12.208,60.02l-2.465-.731A4.169,4.169,0,0,0,9.927,58.1a2.728,2.728,0,0,0-.347-1.383l2.095-1.5c.049.073.094.149.137.226A5.238,5.238,0,0,1,12.5,58.1,6.816,6.816,0,0,1,12.208,60.02Z" transform="translate(-9.58 -55.217)" fill="#0087eb"/>
        </g>
        <g id="Grupo_38415" data-name="Grupo 38415">
          <path id="Trazado_82751" data-name="Trazado 82751" d="M-2.627,67.249c-5.4,0-7.718-3.6-12.8-11.474l-.148-.229c-.586-.909-1.226-1.9-1.934-2.985l-3.2-4.924,4.5-3.772c9.674-8.106,20.767-12.39,32.081-12.39a43.658,43.658,0,0,1,6.207.442l-.366,2.543a41.193,41.193,0,0,0-5.84-.415c-10.7,0-21.225,4.077-30.43,11.79l-2.755,2.309,1.96,3.013c.709,1.087,1.353,2.084,1.94,3l.146.229c5.158,7.992,6.816,10.3,10.643,10.3A11.252,11.252,0,0,0,2.518,63a41.219,41.219,0,0,1,7.073-2.941,13.921,13.921,0,0,1,6.7-.586l-.508,2.52a11.456,11.456,0,0,0-5.431.52,39.021,39.021,0,0,0-6.669,2.778A13.554,13.554,0,0,1-2.627,67.249Z" transform="translate(20.713 -31.475)" fill="#0087eb"/>
        </g>
        <g id="Grupo_38416" data-name="Grupo 38416" transform="translate(67.26 25.113)">
          <path id="Trazado_82752" data-name="Trazado 82752" d="M33.924,70.94l-2.3-1.154a27.739,27.739,0,0,0,3.114-12.5,25.223,25.223,0,0,0-.655-5.688l2.5-.582a27.76,27.76,0,0,1,.723,6.27A30.272,30.272,0,0,1,33.924,70.94Z" transform="translate(-31.628 -51.018)" fill="#0087eb"/>
        </g>
      </g>
      <g id="Grupo_38419" data-name="Grupo 38419" transform="translate(16.657 84.077)" style="mix-blend-mode: multiply;isolation: isolate">
        <g id="Grupo_38418" data-name="Grupo 38418" transform="translate(0)">
          <path id="Trazado_82753" data-name="Trazado 82753" d="M9.617,131c-8.63,0-17.368-5.862-17.368-17.064C-7.751,102.754.987,96.9,9.617,96.9c8.454,0,17.438,5.97,17.438,17.034a16.4,16.4,0,0,1-6.509,13.453L19,125.337a13.666,13.666,0,0,0,5.485-11.4c0-9.395-7.66-14.464-14.868-14.464-7.353,0-14.8,4.968-14.8,14.464,0,9.514,7.445,14.494,14.8,14.494Z" transform="translate(7.751 -96.903)" fill="#0087eb"/>
        </g>
      </g>
      <g id="Grupo_38420" data-name="Grupo 38420" transform="translate(21.997 89.419)" style="mix-blend-mode: multiply;isolation: isolate">
        <path id="Trazado_82754" data-name="Trazado 82754" d="M8.433,124.476c-5.977,0-12.028-4.027-12.028-11.723,0-7.677,6.051-11.693,12.028-11.693,6.011,0,12.1,4.016,12.1,11.693C20.529,120.449,14.443,124.476,8.433,124.476Zm0-20.846c-4.554,0-9.458,2.854-9.458,9.122,0,6.289,4.9,9.153,9.458,9.153,4.588,0,9.526-2.864,9.526-9.153a8.661,8.661,0,0,0-2.932-6.824A10.09,10.09,0,0,0,8.433,103.63Z" transform="translate(3.595 -101.06)" fill="#0087eb"/>
      </g>
    </g>
  </g>
</svg>
