<svg xmlns="http://www.w3.org/2000/svg" width="238.731" height="284.129" viewBox="0 0 238.731 284.129">
  <g id="Grupo_39488" data-name="Grupo 39488" transform="translate(-901.219 -577.869)">
    <g id="Grupo_39476" data-name="Grupo 39476" transform="translate(932.116 577.869)">
      <rect id="Rectángulo_32768" data-name="Rectángulo 32768" width="207.834" height="279.224" transform="translate(0 4.461)" fill="#23569e"/>
      <rect id="Rectángulo_32769" data-name="Rectángulo 32769" width="192.512" height="266.028" transform="translate(7.661 11.059)" fill="#ebf2ff" opacity="0.9"/>
      <path id="Trazado_83268" data-name="Trazado 83268" d="M1289.388,577.869a3.912,3.912,0,0,0-3.912,3.912v7.567c0,6.34,5.513,11.479,12.315,11.479h66.148c6.8,0,12.315-5.139,12.315-11.479v-7.96a3.519,3.519,0,0,0-3.519-3.519Z" transform="translate(-1229.428 -577.869)" fill="#f77d48"/>
    </g>
    <g id="Grupo_39477" data-name="Grupo 39477" transform="translate(955.956 741.146)">
      <path id="Trazado_83269" data-name="Trazado 83269" d="M1182.01,1338.358h-38.875v-38.875h38.875Zm-37.044-1.831h35.213v-35.213h-35.213Z" transform="translate(-1143.135 -1299.483)" fill="#94b5ff"/>
    </g>
    <g id="Grupo_39478" data-name="Grupo 39478" transform="translate(961.617 734.48)">
      <path id="Trazado_83270" data-name="Trazado 83270" d="M1182.9,1307.751a2.747,2.747,0,0,1-2.117-1l-12-14.512a2.747,2.747,0,0,1,4.234-3.5l9.514,11.509,17.211-28.887a2.747,2.747,0,1,1,4.719,2.812l-19.2,32.234a2.746,2.746,0,0,1-2.149,1.333Q1183,1307.751,1182.9,1307.751Z" transform="translate(-1168.152 -1270.024)" fill="#f99746"/>
    </g>
    <g id="Grupo_39479" data-name="Grupo 39479" transform="translate(1010.487 761.862)">
      <rect id="Rectángulo_32770" data-name="Rectángulo 32770" width="94.613" height="3.192" fill="#94b5ff"/>
      <rect id="Rectángulo_32771" data-name="Rectángulo 32771" width="94.613" height="3.192" transform="translate(0 14.257)" fill="#94b5ff"/>
      <rect id="Rectángulo_32772" data-name="Rectángulo 32772" width="26.352" height="3.192" transform="translate(68.261 7.128)" fill="#94b5ff"/>
      <rect id="Rectángulo_32773" data-name="Rectángulo 32773" width="58.552" height="3.192" transform="translate(0 7.128)" fill="#94b5ff"/>
    </g>
    <g id="Grupo_39480" data-name="Grupo 39480" transform="translate(1010.487 813.073)">
      <rect id="Rectángulo_32774" data-name="Rectángulo 32774" width="94.613" height="3.192" transform="translate(0 0)" fill="#94b5ff"/>
      <rect id="Rectángulo_32775" data-name="Rectángulo 32775" width="94.613" height="3.192" transform="translate(0 14.257)" fill="#94b5ff"/>
      <rect id="Rectángulo_32776" data-name="Rectángulo 32776" width="26.352" height="3.192" transform="translate(68.261 7.128)" fill="#94b5ff"/>
      <rect id="Rectángulo_32777" data-name="Rectángulo 32777" width="58.552" height="3.192" transform="translate(0 7.128)" fill="#94b5ff"/>
    </g>
    <g id="Grupo_39481" data-name="Grupo 39481" transform="translate(1044.72 659.264)">
      <rect id="Rectángulo_32778" data-name="Rectángulo 32778" width="73.151" height="3.192" transform="translate(0 0)" fill="#94b5ff"/>
      <rect id="Rectángulo_32779" data-name="Rectángulo 32779" width="73.151" height="3.192" transform="translate(0 14.257)" fill="#94b5ff"/>
      <rect id="Rectángulo_32780" data-name="Rectángulo 32780" width="20.374" height="3.192" transform="translate(54.044 7.128)" fill="#94b5ff"/>
      <rect id="Rectángulo_32781" data-name="Rectángulo 32781" width="45.27" height="3.192" transform="translate(0 7.128)" fill="#94b5ff"/>
    </g>
    <g id="Grupo_39482" data-name="Grupo 39482" transform="translate(1044.72 619.12)">
      <rect id="Rectángulo_32782" data-name="Rectángulo 32782" width="73.151" height="3.192" transform="translate(0 0)" fill="#94b5ff"/>
      <rect id="Rectángulo_32783" data-name="Rectángulo 32783" width="73.151" height="3.192" transform="translate(0 14.257)" fill="#94b5ff"/>
      <rect id="Rectángulo_32784" data-name="Rectángulo 32784" width="20.374" height="3.192" transform="translate(54.044 7.128)" fill="#94b5ff"/>
      <rect id="Rectángulo_32785" data-name="Rectángulo 32785" width="45.27" height="3.192" transform="translate(0 7.128)" fill="#94b5ff"/>
    </g>
    <rect id="Rectángulo_32786" data-name="Rectángulo 32786" width="74.418" height="34.566" rx="17.283" transform="translate(1044.72 692.864)" fill="#f99746" opacity="0.3"/>
    <g id="Grupo_39483" data-name="Grupo 39483" transform="translate(1050.71 701.422)" opacity="0.5">
      <rect id="Rectángulo_32787" data-name="Rectángulo 32787" width="61.375" height="3.192" transform="translate(0 0)" fill="#f99746"/>
      <rect id="Rectángulo_32788" data-name="Rectángulo 32788" width="61.375" height="3.192" transform="translate(0 14.257)" fill="#f99746"/>
      <rect id="Rectángulo_32789" data-name="Rectángulo 32789" width="17.094" height="3.192" transform="translate(45.344 7.128)" fill="#f99746"/>
      <rect id="Rectángulo_32790" data-name="Rectángulo 32790" width="37.983" height="3.192" transform="translate(0 7.128)" fill="#f99746"/>
    </g>
    <g id="Grupo_39484" data-name="Grupo 39484" transform="translate(955.956 804.247)">
      <path id="Trazado_83271" data-name="Trazado 83271" d="M1182.01,1617.24h-38.875v-38.875h38.875Zm-37.044-1.831h35.213V1580.2h-35.213Z" transform="translate(-1143.135 -1578.364)" fill="#94b5ff"/>
    </g>
    <g id="Grupo_39485" data-name="Grupo 39485" transform="translate(961.617 797.582)">
      <path id="Trazado_83272" data-name="Trazado 83272" d="M1182.9,1586.632a2.747,2.747,0,0,1-2.117-1l-12-14.512a2.747,2.747,0,0,1,4.234-3.5l9.514,11.509,17.211-28.887a2.747,2.747,0,1,1,4.719,2.812l-19.2,32.234a2.745,2.745,0,0,1-2.149,1.332C1183.035,1586.63,1182.965,1586.632,1182.9,1586.632Z" transform="translate(-1168.152 -1548.905)" fill="#f99746"/>
    </g>
    <g id="Grupo_39487" data-name="Grupo 39487" transform="translate(901.219 663.646)">
      <path id="Trazado_83273" data-name="Trazado 83273" d="M997.66,988.107c-.5-1.5,6.817,3.109,15.537.187,7.515-2.518.739-7.425,2.654-13.648,1.364-4.431.932-16.336-10.683-16.813a8.6,8.6,0,0,0-6.827-.351C989.166,960.529,970.085,990.28,997.66,988.107Z" transform="translate(-964.751 -956.966)" fill="#163560"/>
      <path id="Trazado_83274" data-name="Trazado 83274" d="M1102.914,1130.758a30.441,30.441,0,0,0,3.105,4.7c2.413,3.022,15.077-4.151,13.986-4.7s-7.258-18.051-9.869-21.155a11.115,11.115,0,0,0-5.781-3.527Z" transform="translate(-1057.277 -1072.338)" fill="#739af0"/>
      <path id="Trazado_83275" data-name="Trazado 83275" d="M904.12,1756.459s-3.5,3.19-2.813,5.456,3.836,3.777,4.262,6.548,2.131,4.281,3.666,4.281h7.316s1.13-1.949-1.6-2.537-3.756-3.843-3.586-6.865a53.248,53.248,0,0,0-.256-7.051l-5.8-1.343Z" transform="translate(-901.219 -1574.392)" fill="#1a3054"/>
      <path id="Trazado_83276" data-name="Trazado 83276" d="M1043.13,1767.611s-1.257,13.513.277,14.269l19.638-.04s0-2.266-3.154-2.77-8.7-2.35-9.633-6.463S1043.13,1767.611,1043.13,1767.611Z" transform="translate(-1010.645 -1584.19)" fill="#1a3054"/>
      <path id="Trazado_83277" data-name="Trazado 83277" d="M977.58,1117.988a78.18,78.18,0,0,0,0,9.077c.195,3.282,3.514,7.678,3.985,8.765,1.182,2.727,2.515,3.171,2.515,3.171l10.311,2.527,3.625.887,11.433-3.415s5.207-14.535,3.117-22.716a62.89,62.89,0,0,0-5.286-13.864s-7.77-1.747-21.477-.775Z" transform="translate(-960.201 -1068.682)" fill="#739af0"/>
      <path id="Trazado_83278" data-name="Trazado 83278" d="M973.683,1185.1c.195,3.282,4.5,7.563,4.967,8.65,1.182,2.727,2.515,3.171,2.515,3.171l10.311,2.527,2.75-3.879s-16.692-4.642-13.531-19.358Z" transform="translate(-957.287 -1126.606)" fill="#5c7de5"/>
      <path id="Trazado_83279" data-name="Trazado 83279" d="M1050.792,1277.5s5.662,17.623,6.025,23.623-10.823,85.236-11.272,88c-.424,2.606-3.661,4.267-3.661,4.267a4.9,4.9,0,0,1-3.612.278c-2.947-.832-3.879-1.828-3.879-1.828s-4.407-56.511-1.68-76.7a319.763,319.763,0,0,0,2.759-37.643Z" transform="translate(-1002.272 -1204.971)" fill="#ed7d2b"/>
      <path id="Trazado_83280" data-name="Trazado 83280" d="M939.755,1275.174s-8.636,11.588-9.441,19.421-1.263,35.349-2.979,42.985-8.018,22.332-8.018,46.151a4.752,4.752,0,0,0,2.678,2.093,22.036,22.036,0,0,0,2.355.651,3.7,3.7,0,0,0,4.141-1.965c4.261-8.579,17.833-36.248,18.529-41.991.492-4.065,4.778-30.965,14.126-46.75,2.244-3.79-1.377-18.86-1.377-18.86Z" transform="translate(-915.222 -1203.174)" fill="#f99746"/>
      <path id="Trazado_83281" data-name="Trazado 83281" d="M1030.349,1265.472s-2.273,1.8-6.788,1.889c-5.394.109-18.758-1.375-18.758-1.375a11.05,11.05,0,0,0-.57,3.411s16.322,4.117,25.78.6A5.978,5.978,0,0,0,1030.349,1265.472Z" transform="translate(-980.924 -1195.668)" fill="#5c7de5"/>
      <g id="Grupo_39486" data-name="Grupo 39486" transform="translate(41.47 70.77)">
        <path id="Trazado_83282" data-name="Trazado 83282" d="M1084.5,1272.526a2.48,2.48,0,1,1,2.461,2.785A2.641,2.641,0,0,1,1084.5,1272.526Zm.816,0a1.672,1.672,0,1,0,1.645-1.97A1.831,1.831,0,0,0,1085.313,1272.526Z" transform="translate(-1084.497 -1269.74)" fill="#fff"/>
      </g>
      <path id="Trazado_83283" data-name="Trazado 83283" d="M1043.259,1219.741l24.532.23,12.072-28.37-24.532-.229Z" transform="translate(-1011.12 -1138.333)" fill="#163560"/>
      <path id="Trazado_83284" data-name="Trazado 83284" d="M1057.438,1244.74l1.8-2.21a6.323,6.323,0,0,1,2.1-1.27c.883-.184,2.748-1.26,2.929-.957s-1.433,2.465-1.433,2.465l-.082.012c1.852,1.393,6.528.163,7.105.731.7.689-.963,2.178-1.855,3.014s-3.443,2.23-5.431,1.611c-1.454-.453-3.742-.913-3.742-.913Z" transform="translate(-1022.091 -1176.152)" fill="#ffb27d"/>
      <path id="Trazado_83285" data-name="Trazado 83285" d="M1187.021,1210.545s-1.542-1.752-2.523-.911.257,4.975,1.191,4.555S1187.559,1211.059,1187.021,1210.545Z" transform="translate(-1120.124 -1152.287)" fill="#ffb27d"/>
      <path id="Trazado_83286" data-name="Trazado 83286" d="M948.888,1102.652s-8.18.574-11.316,8.2-8.9,20.169-7.661,25.426c.494,2.1,6.454,9.354,31.308,4.742,0,0-.2-2.6-1.882-3.818,0,0-17.512-5.623-17.482-6.741.057-2.116,2.366-3.944,12.148-13.729C956.663,1114.068,948.888,1102.652,948.888,1102.652Z" transform="translate(-923.286 -1069.688)" fill="#739af0"/>
      <path id="Trazado_83287" data-name="Trazado 83287" d="M1037.965,1067.575c-.241-.324.069-1.355.455-3.277a35.889,35.889,0,0,0,.93-7.461l.518.087,8.7,1.464s-.2,2.328-.2,4.52c0,.018,0,.036,0,.055-.011,1.9.514,4.781-.128,5.157C1044.941,1070.052,1038.893,1068.821,1037.965,1067.575Z" transform="translate(-1006.958 -1034.24)" fill="#ffb27d"/>
      <path id="Trazado_83288" data-name="Trazado 83288" d="M1055.366,1058.684s-.173,3.281-.179,5.474c-4.871-.116-7.47-4.846-8.525-6.938Z" transform="translate(-1013.753 -1034.536)" fill="#e8945b"/>
      <path id="Trazado_83289" data-name="Trazado 83289" d="M1052,1012.17s-11.41-1.625-10.289-8.715.4-12.075,7.737-11.337,8.317,3.667,8.518,6.125S1055,1012.41,1052,1012.17Z" transform="translate(-1009.865 -984.107)" fill="#ffb27d"/>
      <path id="Trazado_83290" data-name="Trazado 83290" d="M1043.577,988.525s-4.441,7.82-9.419,8.288-6.848-1.144-6.848-1.144a13.713,13.713,0,0,0,5.7-7.295S1041.857,984.192,1043.577,988.525Z" transform="translate(-998.78 -979.864)" fill="#163560"/>
      <path id="Trazado_83291" data-name="Trazado 83291" d="M1095.314,994.067a7.149,7.149,0,0,1,2.855,3.069,11.6,11.6,0,0,1,.5,6.753s3.248-5.279,1.119-8.9C1097.533,991.156,1095.314,994.067,1095.314,994.067Z" transform="translate(-1051.397 -984.854)" fill="#163560"/>
    </g>
  </g>
</svg>
