<svg xmlns="http://www.w3.org/2000/svg" xmlns:xlink="http://www.w3.org/1999/xlink" width="475.326" height="117" viewBox="0 0 475.326 117">
  <defs>
    <clipPath id="clip-path">
      <path id="Trazado_83107" data-name="Trazado 83107" d="M943.513,111.613c.619,2.1,2.374,1.776,4.471,1.156a3.961,3.961,0,0,0-2.245-7.6C943.642,105.793,942.893,109.515,943.513,111.613Z" transform="translate(-943.303 -105.01)" fill="#fca89e"/>
    </clipPath>
    <clipPath id="clip-path-2">
      <path id="Trazado_83110" data-name="Trazado 83110" d="M951.35,136.051h-9.935l-1.24-14.719a2.26,2.26,0,0,1,2.252-2.45h7.911a2.26,2.26,0,0,1,2.252,2.45Z" transform="translate(-940.167 -118.882)" fill="none"/>
    </clipPath>
  </defs>
  <g id="Grupo_40308" data-name="Grupo 40308" transform="translate(-1022.674 -2363)">
    <path id="Trazado_84148" data-name="Trazado 84148" d="M0,0H349V117H0Z" transform="translate(1149 2363)" fill="#c0dff1"/>
    <path id="Trazado_84149" data-name="Trazado 84149" d="M109.627,13.656V19h-1.494V6.15h3.524a5.546,5.546,0,0,1,3.494.905A3.282,3.282,0,0,1,116.28,9.78a3.413,3.413,0,0,1-2.584,3.445L117.186,19h-1.767l-3.111-5.344Zm0-1.283h2.048a3.536,3.536,0,0,0,2.32-.628,2.338,2.338,0,0,0,.738-1.885,2.145,2.145,0,0,0-.751-1.837,4.071,4.071,0,0,0-2.413-.562h-1.942Zm13.482,6.8a4.426,4.426,0,0,1-3.371-1.3,5.036,5.036,0,0,1-1.235-3.612,5.585,5.585,0,0,1,1.147-3.7,3.81,3.81,0,0,1,3.081-1.371,3.633,3.633,0,0,1,2.865,1.191,4.564,4.564,0,0,1,1.055,3.142v.923h-6.636a3.818,3.818,0,0,0,.857,2.575,2.964,2.964,0,0,0,2.29.879,7.759,7.759,0,0,0,3.076-.65v1.3a7.721,7.721,0,0,1-1.463.479A8.224,8.224,0,0,1,123.109,19.176Zm-.4-8.763a2.383,2.383,0,0,0-1.85.756,3.484,3.484,0,0,0-.813,2.092h5.036a3.208,3.208,0,0,0-.615-2.114A2.165,2.165,0,0,0,122.714,10.413Zm12.639,5.959a2.413,2.413,0,0,1-1,2.074,4.71,4.71,0,0,1-2.812.729,6.116,6.116,0,0,1-2.988-.606V17.216a7.227,7.227,0,0,0,1.49.554,6.221,6.221,0,0,0,1.534.2,3.478,3.478,0,0,0,1.758-.365,1.256,1.256,0,0,0,.127-2.074,7.673,7.673,0,0,0-1.9-.945,10.318,10.318,0,0,1-1.912-.875,2.611,2.611,0,0,1-.844-.848,2.212,2.212,0,0,1-.277-1.134,2.161,2.161,0,0,1,.958-1.859,4.464,4.464,0,0,1,2.628-.681,7.689,7.689,0,0,1,3.041.633l-.519,1.187a6.98,6.98,0,0,0-2.628-.6,3.023,3.023,0,0,0-1.564.325,1.006,1.006,0,0,0-.527.9,1.092,1.092,0,0,0,.2.659,1.952,1.952,0,0,0,.637.519,14.24,14.24,0,0,0,1.688.712,6.3,6.3,0,0,1,2.316,1.257A2.216,2.216,0,0,1,135.353,16.372Zm3.744-7v6.249a2.514,2.514,0,0,0,.536,1.758,2.184,2.184,0,0,0,1.679.58,2.739,2.739,0,0,0,2.21-.826,4.168,4.168,0,0,0,.7-2.7V9.367h1.459V19h-1.2l-.211-1.292h-.079a2.908,2.908,0,0,1-1.244,1.09,4.18,4.18,0,0,1-1.815.378,3.682,3.682,0,0,1-2.632-.835,3.554,3.554,0,0,1-.875-2.672v-6.3ZM150.232,19h-1.459V5.324h1.459Zm6.205-1.028a4.766,4.766,0,0,0,.747-.057,4.836,4.836,0,0,0,.571-.119v1.116a2.667,2.667,0,0,1-.7.189,5.247,5.247,0,0,1-.831.075q-2.795,0-2.795-2.944V10.5h-1.38V9.8l1.38-.606.615-2.057h.844V9.367h2.795V10.5h-2.795V16.17a1.95,1.95,0,0,0,.413,1.336A1.438,1.438,0,0,0,156.438,17.972ZM165.6,19l-.29-1.371h-.07a4.053,4.053,0,0,1-1.437,1.226,4.38,4.38,0,0,1-1.789.321,3.217,3.217,0,0,1-2.246-.738,2.693,2.693,0,0,1-.813-2.1q0-2.918,4.667-3.059l1.635-.053v-.6a2.442,2.442,0,0,0-.488-1.674,2.006,2.006,0,0,0-1.56-.541,6.357,6.357,0,0,0-2.725.738l-.448-1.116a6.856,6.856,0,0,1,1.56-.606,6.757,6.757,0,0,1,1.7-.22,3.669,3.669,0,0,1,2.553.765,3.192,3.192,0,0,1,.831,2.452V19Zm-3.3-1.028a2.961,2.961,0,0,0,2.14-.747,2.764,2.764,0,0,0,.778-2.092v-.87l-1.459.062a5.307,5.307,0,0,0-2.509.541,1.63,1.63,0,0,0-.769,1.49,1.5,1.5,0,0,0,.479,1.2A1.988,1.988,0,0,0,162.309,17.972Zm13.939-.264h-.079a3.428,3.428,0,0,1-3.023,1.468,3.577,3.577,0,0,1-2.94-1.292,5.687,5.687,0,0,1-1.05-3.674,5.783,5.783,0,0,1,1.055-3.7,3.549,3.549,0,0,1,2.936-1.318,3.5,3.5,0,0,1,3.006,1.424h.114l-.062-.694-.035-.677V5.324h1.459V19h-1.187Zm-2.918.246a2.656,2.656,0,0,0,2.167-.813,4.108,4.108,0,0,0,.672-2.624V14.21a4.834,4.834,0,0,0-.681-2.922,2.587,2.587,0,0,0-2.175-.875,2.233,2.233,0,0,0-1.964,1,4.96,4.96,0,0,0-.681,2.817,4.755,4.755,0,0,0,.677,2.786A2.292,2.292,0,0,0,173.33,17.954Zm15.706-3.779a5.314,5.314,0,0,1-1.187,3.678,4.179,4.179,0,0,1-3.278,1.323,4.342,4.342,0,0,1-2.294-.606,4,4,0,0,1-1.547-1.74,6.065,6.065,0,0,1-.545-2.654,5.306,5.306,0,0,1,1.178-3.669,4.165,4.165,0,0,1,3.27-1.314,4.075,4.075,0,0,1,3.212,1.345A5.291,5.291,0,0,1,189.036,14.175Zm-7.339,0a4.572,4.572,0,0,0,.738,2.813,2.93,2.93,0,0,0,4.346,0,4.549,4.549,0,0,0,.743-2.817,4.476,4.476,0,0,0-.743-2.791,2.609,2.609,0,0,0-2.193-.954,2.568,2.568,0,0,0-2.162.94A4.526,4.526,0,0,0,181.7,14.175Zm16.11,2.2a2.413,2.413,0,0,1-1,2.074,4.71,4.71,0,0,1-2.812.729A6.116,6.116,0,0,1,191,18.569V17.216a7.227,7.227,0,0,0,1.49.554,6.221,6.221,0,0,0,1.534.2,3.478,3.478,0,0,0,1.758-.365,1.256,1.256,0,0,0,.127-2.074,7.673,7.673,0,0,0-1.9-.945,10.318,10.318,0,0,1-1.912-.875,2.611,2.611,0,0,1-.844-.848,2.212,2.212,0,0,1-.277-1.134,2.161,2.161,0,0,1,.958-1.859,4.464,4.464,0,0,1,2.628-.681,7.689,7.689,0,0,1,3.041.633l-.519,1.187a6.98,6.98,0,0,0-2.628-.6,3.023,3.023,0,0,0-1.564.325,1.006,1.006,0,0,0-.527.9,1.092,1.092,0,0,0,.2.659,1.952,1.952,0,0,0,.637.519,14.24,14.24,0,0,0,1.688.712,6.3,6.3,0,0,1,2.316,1.257A2.216,2.216,0,0,1,197.808,16.372Z" transform="translate(1169 2411)" fill="#00223d"/>
    <g id="Grupo_39123" data-name="Grupo 39123" transform="translate(1022.674 2365.472)">
      <g id="Grupo_39058" data-name="Grupo 39058" transform="translate(0 3.982)">
        <g id="Grupo_39055" data-name="Grupo 39055">
          <path id="Trazado_83093" data-name="Trazado 83093" d="M905.564,117.218a25.962,25.962,0,0,0,0-3.982,3.588,3.588,0,0,1-1.159-2.327,17.744,17.744,0,0,1,14.21-17.387V60.713a50.336,50.336,0,0,0-41.4,72.874Z" transform="translate(-871.822 -60.713)" fill="#f45151"/>
        </g>
        <g id="Grupo_39056" data-name="Grupo 39056" transform="translate(53.851)">
          <path id="Trazado_83094" data-name="Trazado 83094" d="M950.062,93.523a17.728,17.728,0,0,1,10.066,5.995L988.5,83.138a18.855,18.855,0,0,0,0-3.982s-25.372-17.537-38.437-18.443Z" transform="translate(-950.062 -60.713)" fill="#00007f"/>
        </g>
        <g id="Grupo_39057" data-name="Grupo 39057" transform="translate(9.012 28.567)">
          <path id="Trazado_83095" data-name="Trazado 83095" d="M942.878,119.5c.5,1.641,1.086,2.54,1.086,4.344a17.735,17.735,0,0,1-30.537,12.277L884.916,148.6v3.982a50.328,50.328,0,0,0,86.756-50.367l-28.48,12.461Z" transform="translate(-884.916 -102.218)" fill="#b5e6f7"/>
        </g>
      </g>
      <g id="Grupo_39062" data-name="Grupo 39062" transform="translate(0 0)">
        <g id="Grupo_39059" data-name="Grupo 39059">
          <path id="Trazado_83096" data-name="Trazado 83096" d="M905.564,111.433a17.744,17.744,0,0,1,13.051-23.7V54.927a50.336,50.336,0,0,0-41.4,72.874Z" transform="translate(-871.822 -54.927)" fill="#ff9f9f"/>
        </g>
        <g id="Grupo_39060" data-name="Grupo 39060" transform="translate(53.851)">
          <path id="Trazado_83097" data-name="Trazado 83097" d="M950.062,87.737a17.726,17.726,0,0,1,10.066,6L988.5,77.352a50.284,50.284,0,0,0-38.437-22.425Z" transform="translate(-950.062 -54.927)" fill="#ff9f9f"/>
        </g>
        <g id="Grupo_39061" data-name="Grupo 39061" transform="translate(9.012 28.567)">
          <path id="Trazado_83098" data-name="Trazado 83098" d="M943.192,112.875a17.737,17.737,0,0,1-29.765,17.463L884.916,146.8a50.329,50.329,0,0,0,86.756-50.368Z" transform="translate(-884.916 -96.432)" fill="#ff9f9f"/>
        </g>
      </g>
      <g id="Grupo_39066" data-name="Grupo 39066" transform="translate(0 0)">
        <g id="Grupo_39063" data-name="Grupo 39063">
          <path id="Trazado_83099" data-name="Trazado 83099" d="M905.564,111.433a17.744,17.744,0,0,1,13.051-23.7V54.927a50.336,50.336,0,0,0-41.4,72.874Z" transform="translate(-871.822 -54.927)" fill="#ff645f"/>
        </g>
        <g id="Grupo_39064" data-name="Grupo 39064" transform="translate(53.851)">
          <path id="Trazado_83100" data-name="Trazado 83100" d="M950.062,87.737a17.726,17.726,0,0,1,10.066,6L988.5,77.352a50.284,50.284,0,0,0-38.437-22.425Z" transform="translate(-950.062 -54.927)" fill="#29266b"/>
        </g>
        <g id="Grupo_39065" data-name="Grupo 39065" transform="translate(9.012 28.567)">
          <path id="Trazado_83101" data-name="Trazado 83101" d="M943.192,112.875a17.737,17.737,0,0,1-29.765,17.463L884.916,146.8a50.329,50.329,0,0,0,86.756-50.368Z" transform="translate(-884.916 -96.432)" fill="#cdeefc"/>
        </g>
      </g>
      <g id="Grupo_39121" data-name="Grupo 39121" transform="translate(37.705 34.471)">
        <g id="Grupo_39068" data-name="Grupo 39068" transform="translate(4.073 26.756)">
          <g id="Grupo_39067" data-name="Grupo 39067">
            <path id="Trazado_83102" data-name="Trazado 83102" d="M935.653,143.884h13.314v3.2a3.132,3.132,0,0,1-3.132,3.132H935.653a3.132,3.132,0,0,1-3.132-3.132v-.063A3.132,3.132,0,0,1,935.653,143.884Z" transform="translate(-932.521 -143.884)" fill="#6486ce"/>
          </g>
        </g>
        <g id="Grupo_39071" data-name="Grupo 39071" transform="translate(9.336 9.548)">
          <g id="Grupo_39070" data-name="Grupo 39070">
            <g id="Grupo_39069" data-name="Grupo 39069">
              <path id="Trazado_83103" data-name="Trazado 83103" d="M951.35,136.051h-9.935l-1.24-14.719a2.26,2.26,0,0,1,2.252-2.45h7.911a2.26,2.26,0,0,1,2.252,2.45Z" transform="translate(-940.167 -118.882)" fill="#ff645f"/>
            </g>
          </g>
        </g>
        <g id="Grupo_39074" data-name="Grupo 39074" transform="translate(13.767 6.606)">
          <g id="Grupo_39073" data-name="Grupo 39073">
            <g id="Grupo_39072" data-name="Grupo 39072">
              <path id="Trazado_83104" data-name="Trazado 83104" d="M949.017,118.466h-1.543a.928.928,0,0,1-.869-.978v-1.9a.929.929,0,0,1,.869-.979h1.543a.929.929,0,0,1,.868.979v1.9A.928.928,0,0,1,949.017,118.466Z" transform="translate(-946.605 -114.607)" fill="#fca89e"/>
            </g>
          </g>
        </g>
        <g id="Grupo_39079" data-name="Grupo 39079" transform="translate(11.494)">
          <path id="Trazado_83105" data-name="Trazado 83105" d="M943.513,111.613c.619,2.1,2.374,1.776,4.471,1.156a3.961,3.961,0,0,0-2.245-7.6C943.642,105.793,942.893,109.515,943.513,111.613Z" transform="translate(-943.303 -105.01)" fill="#fca89e"/>
          <g id="Grupo_39078" data-name="Grupo 39078" clip-path="url(#clip-path)">
            <g id="Grupo_39077" data-name="Grupo 39077" transform="translate(-4.226 -1.019)">
              <g id="Grupo_39076" data-name="Grupo 39076">
                <g id="Grupo_39075" data-name="Grupo 39075">
                  <path id="Trazado_83106" data-name="Trazado 83106" d="M945.961,106.669s0,1.4.193,1.4a1.358,1.358,0,0,1,1.447.386c.531.675-.048,1.35-.675,1.495s-.193,1.784,1.3,1.495,2.026-3.81,1.254-5.161-3.232-2.845-4.1-2.749-8.22,2.32-8.22,2.32Z" transform="translate(-937.163 -103.53)" fill="#da3f3a"/>
                </g>
              </g>
            </g>
          </g>
        </g>
        <g id="Grupo_39082" data-name="Grupo 39082" transform="translate(4.855 10.898)">
          <g id="Grupo_39081" data-name="Grupo 39081">
            <g id="Grupo_39080" data-name="Grupo 39080">
              <path id="Trazado_83108" data-name="Trazado 83108" d="M938.373,120.844l-4.716,8.108,3.668,1.557,2.921-4.8Z" transform="translate(-933.657 -120.844)" fill="#ff645f"/>
            </g>
          </g>
        </g>
        <g id="Grupo_39085" data-name="Grupo 39085" transform="translate(16.553 10.295)">
          <g id="Grupo_39084" data-name="Grupo 39084">
            <g id="Grupo_39083" data-name="Grupo 39083">
              <path id="Trazado_83109" data-name="Trazado 83109" d="M955.27,119.968l6.221,8.97a1.376,1.376,0,0,1-.579,1.808l-9.005,4.5-1.254-2.122,6.136-4.761-4.847-4.847Z" transform="translate(-950.653 -119.968)" fill="#ff645f"/>
            </g>
          </g>
        </g>
        <g id="Grupo_39093" data-name="Grupo 39093" transform="translate(9.336 9.548)">
          <g id="Grupo_39092" data-name="Grupo 39092" clip-path="url(#clip-path-2)">
            <g id="Grupo_39088" data-name="Grupo 39088" transform="translate(7.04 9.445)">
              <g id="Grupo_39087" data-name="Grupo 39087">
                <g id="Grupo_39086" data-name="Grupo 39086">
                  <rect id="Rectángulo_32683" data-name="Rectángulo 32683" width="7.379" height="0.209" transform="matrix(0.717, -0.697, 0.697, 0.717, 0, 5.144)" fill="#ffba57"/>
                </g>
              </g>
            </g>
            <g id="Grupo_39091" data-name="Grupo 39091" transform="translate(7.9 13.166)">
              <g id="Grupo_39090" data-name="Grupo 39090">
                <g id="Grupo_39089" data-name="Grupo 39089">
                  <rect id="Rectángulo_32684" data-name="Rectángulo 32684" width="6.835" height="0.209" transform="translate(0 3.179) rotate(-27.715)" fill="#ffba57"/>
                </g>
              </g>
            </g>
          </g>
        </g>
        <g id="Grupo_39095" data-name="Grupo 39095" transform="translate(2.608 25.506)">
          <g id="Grupo_39094" data-name="Grupo 39094">
            <rect id="Rectángulo_32685" data-name="Rectángulo 32685" width="15.508" height="1.314" fill="#29266b"/>
          </g>
        </g>
        <g id="Grupo_39100" data-name="Grupo 39100" transform="translate(9.336 9.548)">
          <g id="Grupo_39099" data-name="Grupo 39099" clip-path="url(#clip-path-2)">
            <g id="Grupo_39098" data-name="Grupo 39098" transform="translate(2.918 -2.54)">
              <g id="Grupo_39097" data-name="Grupo 39097">
                <g id="Grupo_39096" data-name="Grupo 39096">
                  <path id="Trazado_83111" data-name="Trazado 83111" d="M944.406,118.46a3.269,3.269,0,1,0,3.269-3.269A3.268,3.268,0,0,0,944.406,118.46Z" transform="translate(-944.406 -115.191)" fill="#fca89e"/>
                </g>
              </g>
            </g>
          </g>
        </g>
        <g id="Grupo_39103" data-name="Grupo 39103" transform="translate(13.728 23.808)">
          <g id="Grupo_39102" data-name="Grupo 39102">
            <g id="Grupo_39101" data-name="Grupo 39101">
              <path id="Trazado_83113" data-name="Trazado 83113" d="M950.792,141.337h-3.954l-.29-1.737h2.986a1.144,1.144,0,0,1,1.128.956Z" transform="translate(-946.548 -139.6)" fill="#fca89e"/>
            </g>
          </g>
        </g>
        <g id="Grupo_39105" data-name="Grupo 39105" transform="translate(0.91 17.851)">
          <g id="Grupo_39104" data-name="Grupo 39104">
            <path id="Trazado_83114" data-name="Trazado 83114" d="M942.086,138.656H929.634l-1.708-7.71h12.452Z" transform="translate(-927.925 -130.945)" fill="#29266b"/>
          </g>
        </g>
        <g id="Grupo_39108" data-name="Grupo 39108" transform="translate(6.927 21.093)">
          <g id="Grupo_39107" data-name="Grupo 39107">
            <g id="Grupo_39106" data-name="Grupo 39106">
              <path id="Trazado_83115" data-name="Trazado 83115" d="M938.307,136.476a.82.82,0,1,1-.82-.82A.82.82,0,0,1,938.307,136.476Z" transform="translate(-936.667 -135.656)" fill="#ff9f9f"/>
            </g>
          </g>
        </g>
        <g id="Grupo_39111" data-name="Grupo 39111" transform="translate(2.627 28.504)">
          <g id="Grupo_39110" data-name="Grupo 39110">
            <g id="Grupo_39109" data-name="Grupo 39109">
              <path id="Trazado_83116" data-name="Trazado 83116" d="M932.059,147.144l-1.64,18.25h2.411s3.859-11.884,4.245-15.742-2.412-3.183-2.412-3.183Z" transform="translate(-930.419 -146.423)" fill="#fca89e"/>
            </g>
          </g>
        </g>
        <g id="Grupo_39114" data-name="Grupo 39114" transform="translate(10.247 28.504)">
          <g id="Grupo_39113" data-name="Grupo 39113">
            <g id="Grupo_39112" data-name="Grupo 39112">
              <path id="Trazado_83117" data-name="Trazado 83117" d="M943.13,147.144l-1.64,18.25H943.9s3.858-11.884,4.244-15.742-2.412-3.183-2.412-3.183Z" transform="translate(-941.49 -146.423)" fill="#fca89e"/>
            </g>
          </g>
        </g>
        <g id="Grupo_39116" data-name="Grupo 39116" transform="translate(7.51 47.475)">
          <g id="Grupo_39115" data-name="Grupo 39115">
            <path id="Trazado_83118" data-name="Trazado 83118" d="M940.251,173.986h2.364V175.8h-4.793c-.317,0-.425-.711-.148-.864Z" transform="translate(-937.514 -173.986)" fill="#ff645f"/>
          </g>
        </g>
        <g id="Grupo_39118" data-name="Grupo 39118" transform="translate(0 47.475)">
          <g id="Grupo_39117" data-name="Grupo 39117">
            <path id="Trazado_83119" data-name="Trazado 83119" d="M929.339,173.986H931.7V175.8h-4.793c-.316,0-.425-.711-.148-.864Z" transform="translate(-926.603 -173.986)" fill="#ff645f"/>
          </g>
        </g>
        <g id="Grupo_39120" data-name="Grupo 39120" transform="translate(2.856 27.273)">
          <g id="Grupo_39119" data-name="Grupo 39119">
            <path id="Trazado_83120" data-name="Trazado 83120" d="M946.4,144.635l-12.378.07a2.977,2.977,0,0,0-1.878,1.669c-.417,1.252-1.391,7.163-1.391,7.163h13.561l.9-4.451Z" transform="translate(-930.752 -144.635)" fill="#6486ce"/>
          </g>
        </g>
      </g>
      <g id="Grupo_39122" data-name="Grupo 39122" transform="translate(54.415 29.477)">
        <path id="Trazado_83121" data-name="Trazado 83121" d="M951.856,104.988c-2.109-.984-.611-6.484,2.715-7.15,2.715-.543,5.159,1.629,4.073,4.344S953.214,105.622,951.856,104.988Z" transform="translate(-950.882 -97.754)" fill="#da3f3a"/>
      </g>
    </g>
  </g>
</svg>
