<svg xmlns="http://www.w3.org/2000/svg" width="242.706" height="284.063" viewBox="0 0 242.706 284.063">
  <g id="Grupo_39507" data-name="Grupo 39507" transform="translate(-1037.77 -577.869)">
    <g id="Grupo_39500" data-name="Grupo 39500" transform="translate(1037.77 577.869)">
      <rect id="Rectángulo_32813" data-name="Rectángulo 32813" width="204.862" height="275.231" transform="translate(0 4.397)" fill="#23569e"/>
      <rect id="Rectángulo_32814" data-name="Rectángulo 32814" width="189.759" height="262.223" transform="translate(7.552 10.901)" fill="#ebf2ff" opacity="0.9"/>
      <path id="Trazado_83292" data-name="Trazado 83292" d="M1289.332,577.869a3.856,3.856,0,0,0-3.856,3.856v7.459c0,6.249,5.435,11.315,12.138,11.315h65.2c6.7,0,12.139-5.066,12.139-11.315v-7.846a3.469,3.469,0,0,0-3.469-3.469Z" transform="translate(-1230.23 -577.869)" fill="#f77d48"/>
    </g>
    <g id="Grupo_39501" data-name="Grupo 39501" transform="translate(1115.02 759.231)">
      <rect id="Rectángulo_32815" data-name="Rectángulo 32815" width="93.26" height="3.146" transform="translate(0 0)" fill="#94b5ff"/>
      <rect id="Rectángulo_32816" data-name="Rectángulo 32816" width="93.26" height="3.146" transform="translate(0 14.053)" fill="#94b5ff"/>
      <rect id="Rectángulo_32817" data-name="Rectángulo 32817" width="25.975" height="3.146" transform="translate(67.285 7.027)" fill="#94b5ff"/>
      <rect id="Rectángulo_32818" data-name="Rectángulo 32818" width="57.715" height="3.146" transform="translate(0 7.027)" fill="#94b5ff"/>
    </g>
    <g id="Grupo_39502" data-name="Grupo 39502" transform="translate(1115.02 809.709)">
      <rect id="Rectángulo_32819" data-name="Rectángulo 32819" width="93.26" height="3.146" transform="translate(0 0)" fill="#94b5ff"/>
      <rect id="Rectángulo_32820" data-name="Rectángulo 32820" width="93.26" height="3.146" transform="translate(0 14.053)" fill="#94b5ff"/>
      <rect id="Rectángulo_32821" data-name="Rectángulo 32821" width="25.975" height="3.146" transform="translate(67.285 7.027)" fill="#94b5ff"/>
      <rect id="Rectángulo_32822" data-name="Rectángulo 32822" width="57.715" height="3.146" transform="translate(0 7.027)" fill="#94b5ff"/>
    </g>
    <g id="Grupo_39503" data-name="Grupo 39503" transform="translate(1148.764 658.1)">
      <rect id="Rectángulo_32823" data-name="Rectángulo 32823" width="72.105" height="3.146" transform="translate(0 0)" fill="#94b5ff"/>
      <rect id="Rectángulo_32824" data-name="Rectángulo 32824" width="72.105" height="3.146" transform="translate(0 14.053)" fill="#94b5ff"/>
      <rect id="Rectángulo_32825" data-name="Rectángulo 32825" width="20.083" height="3.146" transform="translate(53.271 7.027)" fill="#94b5ff"/>
      <rect id="Rectángulo_32826" data-name="Rectángulo 32826" width="44.623" height="3.146" transform="translate(0 7.027)" fill="#94b5ff"/>
    </g>
    <g id="Grupo_39504" data-name="Grupo 39504" transform="translate(1148.764 618.53)">
      <rect id="Rectángulo_32827" data-name="Rectángulo 32827" width="72.105" height="3.146" transform="translate(0 0)" fill="#94b5ff"/>
      <rect id="Rectángulo_32828" data-name="Rectángulo 32828" width="72.105" height="3.146" transform="translate(0 14.053)" fill="#94b5ff"/>
      <rect id="Rectángulo_32829" data-name="Rectángulo 32829" width="20.083" height="3.146" transform="translate(53.271 7.027)" fill="#94b5ff"/>
      <rect id="Rectángulo_32830" data-name="Rectángulo 32830" width="44.623" height="3.146" transform="translate(0 7.027)" fill="#94b5ff"/>
    </g>
    <rect id="Rectángulo_32831" data-name="Rectángulo 32831" width="73.353" height="34.072" rx="17.036" transform="translate(1148.764 691.219)" fill="#f99746" opacity="0.3"/>
    <g id="Grupo_39505" data-name="Grupo 39505" transform="translate(1154.668 699.655)" opacity="0.5">
      <rect id="Rectángulo_32832" data-name="Rectángulo 32832" width="60.497" height="3.146" transform="translate(0 0)" fill="#f99746"/>
      <rect id="Rectángulo_32833" data-name="Rectángulo 32833" width="60.497" height="3.146" transform="translate(0 14.053)" fill="#f99746"/>
      <rect id="Rectángulo_32834" data-name="Rectángulo 32834" width="16.85" height="3.146" transform="translate(44.695 7.026)" fill="#f99746"/>
      <rect id="Rectángulo_32835" data-name="Rectángulo 32835" width="37.439" height="3.146" transform="translate(0 7.026)" fill="#f99746"/>
    </g>
    <g id="Grupo_39506" data-name="Grupo 39506" transform="translate(1188.538 644.779)">
      <path id="Trazado_83293" data-name="Trazado 83293" d="M1816.916,1815.589a18.588,18.588,0,0,1,.487-4.552c.487-1.136,2.272-5.761,2.272-5.761h6.978a42.771,42.771,0,0,1,1.38,5.6c.081,1.379,0,4.715,0,4.715Z" transform="translate(-1793.911 -1598.436)" fill="#233862"/>
      <path id="Trazado_83294" data-name="Trazado 83294" d="M1976.727,1815.589a18.579,18.579,0,0,0-.487-4.552c-.487-1.136-2.272-5.761-2.272-5.761h-6.979a42.82,42.82,0,0,0-1.379,5.6c-.081,1.379,0,4.715,0,4.715Z" transform="translate(-1909.414 -1598.436)" fill="#233862"/>
      <path id="Trazado_83295" data-name="Trazado 83295" d="M1859.132,977.93s-.246,7.607-1.22,11.016l-7.706,5.376,29.009,4.341L1872.3,989.1s-2.089-10.2-.993-13.973S1859.132,977.93,1859.132,977.93Z" transform="translate(-1819.777 -952.531)" fill="#ffb27d"/>
      <path id="Trazado_83296" data-name="Trazado 83296" d="M1890.039,996.463s2.294,5.522,6.615,5.4,5.3-5.008,5.3-5.008Z" transform="translate(-1850.725 -970.014)" fill="#ed985f"/>
      <path id="Trazado_83297" data-name="Trazado 83297" d="M1868.38,899.852s-1.4-6.966-2.369-9.076-1.785-11.523,9.007-12.009c0,0,4.138.487,6.411-.893,0,0,0,1.379-.568,1.866a7.173,7.173,0,0,1,6.654,2.353c2.921,3.246-1.947,14.606-1.7,17.284Z" transform="translate(-1831.646 -877.874)" fill="#2c3a64"/>
      <path id="Trazado_83298" data-name="Trazado 83298" d="M1886.5,938.4c-3.131-.055-8.894-4.224-8.894-9.387v-8.056a3.214,3.214,0,0,1,2.921-3.428h11.945a3.215,3.215,0,0,1,2.921,3.428v7.6C1895.389,933.973,1890.086,938.466,1886.5,938.4Z" transform="translate(-1841.062 -908.687)" fill="#ffb27d"/>
      <path id="Trazado_83299" data-name="Trazado 83299" d="M1876.214,918.9s.016-4.84,3.85-5.585,12.415,2.359,13.632-1.17-16.586-3.469-17.483-1.217S1876.214,918.9,1876.214,918.9Z" transform="translate(-1839.675 -902.33)" fill="#2c3a64"/>
      <path id="Trazado_83300" data-name="Trazado 83300" d="M1815.916,1321.033s1.221,37.284-.6,58.557.014,50.878.014,50.878a13.807,13.807,0,0,0,12.168,0s6.941-41.1,6.9-50.878c-.047-10.416,7.555-56.931,7.555-56.931Z" transform="translate(-1792.037 -1222.195)" fill="#739af0"/>
      <path id="Trazado_83301" data-name="Trazado 83301" d="M1921.715,1430.246a13.8,13.8,0,0,1-12.167,0s-6.94-41.1-6.9-50.878c.02-4.4-1.324-15.239-2.885-26.291-2.135-15.12-4.671-30.639-4.671-30.639l27.038-1.689s-2.23,37.348-.4,58.619S1921.715,1430.246,1921.715,1430.246Z" transform="translate(-1854.655 -1221.974)" fill="#739af0"/>
      <path id="Trazado_83302" data-name="Trazado 83302" d="M1859.833,1109.77A135.311,135.311,0,0,1,1837.79,1112a106.677,106.677,0,0,1-13.537-1.035c-4.387-.582-7.532-1.2-7.532-1.2s-2.337.2-.957-11.317c1.049-8.768.721-16.685.487-24.83-.026-.906-.007-1.977.049-3.169.448-9.5,3.32-26.593,5.509-27.511a40.068,40.068,0,0,1,9-1.8c0,.112,3.338,4.99,7.3,5.538a13.731,13.731,0,0,0,7.086-5.38,77.179,77.179,0,0,1,11.108,2.142s.414,1.811,1.977,33.234C1858.9,1089.124,1863.151,1109.811,1859.833,1109.77Z" transform="translate(-1792.677 -1004.729)" fill="#f99746"/>
      <path id="Trazado_83303" data-name="Trazado 83303" d="M1918.926,1446.857c.019-4.4-1.324-15.239-2.885-26.291a52.049,52.049,0,0,1,5.563-12.955C1926.594,1421.608,1918.926,1446.857,1918.926,1446.857Z" transform="translate(-1870.928 -1289.463)" fill="#5c7de5"/>
      <path id="Trazado_83304" data-name="Trazado 83304" d="M1726.451,1084.687c-.523,1.635.924,3.841,2.335,6.937,2.906,6.361,7.734,15.755,7.734,15.755a27.827,27.827,0,0,1-1.465,4.289,102.263,102.263,0,0,1-16.7-15.972c-4.7-5.854-5.086-11.768-4.215-14.327,10.437-30.691,29.361-33.049,29.361-33.049l-1.5,24.325S1727.53,1081.316,1726.451,1084.687Z" transform="translate(-1713.77 -1010.306)" fill="#f99746"/>
      <path id="Trazado_83305" data-name="Trazado 83305" d="M1809.149,1306.57s4.382-4.057,6.167-1.785,2.11,5.842.73,5.6-4.219-1.542-4.625-.893-2.224,1.89-2.775.9S1809.149,1306.57,1809.149,1306.57Z" transform="translate(-1787.362 -1209.034)" fill="#ffb27d"/>
      <path id="Trazado_83306" data-name="Trazado 83306" d="M1752.495,1258.233a27.823,27.823,0,0,1-1.465,4.289,102.278,102.278,0,0,1-16.7-15.972,20.834,20.834,0,0,0,10.431-4.073C1747.668,1248.839,1752.495,1258.233,1752.495,1258.233Z" transform="translate(-1729.744 -1161.16)" fill="#ffb27d"/>
      <path id="Trazado_83307" data-name="Trazado 83307" d="M2026.166,1086.274c.077,1.911-.3,6.006-5,11.86a102.273,102.273,0,0,1-16.7,15.972,27.84,27.84,0,0,1-1.466-4.289s4.828-9.394,7.734-15.755c1.412-3.1,2.422-4.54,2.1-5.7-1.039-3.7-9.766-8.866-13.433-11.646a15.954,15.954,0,0,1-1.874-1.631l.343-23.625s4.806,1.185,7.77,4.15C2017.687,1067.664,2025.807,1077.348,2026.166,1086.274Z" transform="translate(-1934.236 -1012.743)" fill="#f99746"/>
      <path id="Trazado_83308" data-name="Trazado 83308" d="M1999.389,1306.57s-4.382-4.057-6.167-1.785-2.11,5.842-.73,5.6,4.219-1.542,4.625-.893,2.224,1.89,2.775.9S1999.389,1306.57,1999.389,1306.57Z" transform="translate(-1929.665 -1209.034)" fill="#ffb27d"/>
      <path id="Trazado_83309" data-name="Trazado 83309" d="M2022.075,1258.233a27.865,27.865,0,0,0,1.465,4.289,102.257,102.257,0,0,0,16.7-15.972,20.834,20.834,0,0,1-10.431-4.073C2026.9,1248.839,2022.075,1258.233,2022.075,1258.233Z" transform="translate(-1953.314 -1161.16)" fill="#ffb27d"/>
      <path id="Trazado_83310" data-name="Trazado 83310" d="M1880.81,1032.826a3.08,3.08,0,0,0-1.653,2s5.167,5.314,8.547,5.4Z" transform="translate(-1842.271 -998.267)" fill="#2b478b"/>
      <path id="Trazado_83311" data-name="Trazado 83311" d="M1917.482,1039.283l6.669-7.661a3.129,3.129,0,0,1,1.357,2.4S1920.349,1039.486,1917.482,1039.283Z" transform="translate(-1872.048 -997.331)" fill="#2b478b"/>
      <path id="Trazado_83312" data-name="Trazado 83312" d="M1899.228,1063.313s-5.09,43.941-3.318,49.3a36.636,36.636,0,0,0,3.1,6.807,1.8,1.8,0,0,0,3.123-.007c1.352-2.347,3.118-5.743,3.118-7.466,0-2.792-3.862-48.669-3.862-48.669Z" transform="translate(-1854.996 -1021.925)" fill="#2b478b"/>
      <path id="Trazado_83313" data-name="Trazado 83313" d="M1904.676,1053.243a22.081,22.081,0,0,1,4.949-.172c.371.055.578.647.4,1.122-.525,1.377-1.6,3.763-2.716,3.763C1905.733,1057.956,1903.281,1053.4,1904.676,1053.243Z" transform="translate(-1861.777 -1013.926)" fill="#2b478b"/>
      <path id="Trazado_83314" data-name="Trazado 83314" d="M1906.294,987.114a3.423,3.423,0,0,0,2.678,1.272,3.185,3.185,0,0,0,2.5-1.272A17,17,0,0,0,1906.294,987.114Z" transform="translate(-1863.355 -962.587)" fill="#fff"/>
    </g>
  </g>
</svg>
