<svg xmlns="http://www.w3.org/2000/svg" xmlns:xlink="http://www.w3.org/1999/xlink" width="347.104" height="348.09" viewBox="0 0 347.104 348.09">
  <defs>
    <linearGradient id="linear-gradient" x1="1.091" y1="1.163" x2="0.386" y2="0.408" gradientUnits="objectBoundingBox">
      <stop offset="0" stop-color="#fff"/>
      <stop offset="1" stop-color="#f9f9f9"/>
    </linearGradient>
    <linearGradient id="linear-gradient-2" x1="-0.218" y1="-0.366" x2="1.335" y2="2.373" gradientUnits="objectBoundingBox">
      <stop offset="0" stop-color="#4f52ff"/>
      <stop offset="1" stop-color="#4042e2"/>
    </linearGradient>
    <linearGradient id="linear-gradient-3" x1="-4.413" y1="5.964" x2="-3.014" y2="3.82" xlink:href="#linear-gradient-2"/>
    <linearGradient id="linear-gradient-4" x1="0.936" y1="-0.748" x2="0.061" y2="0.712" xlink:href="#linear-gradient-2"/>
    <linearGradient id="linear-gradient-5" x1="-0.101" y1="0.931" x2="1.037" y2="0.401" xlink:href="#linear-gradient-2"/>
    <linearGradient id="linear-gradient-6" x1="-0.021" y1="-0.346" x2="0.342" y2="0.297" gradientUnits="objectBoundingBox">
      <stop offset="0" stop-color="#09005d"/>
      <stop offset="1" stop-color="#1a0f91"/>
    </linearGradient>
    <linearGradient id="linear-gradient-7" x1="-1.012" y1="-0.183" x2="-0.251" y2="0.746" gradientUnits="objectBoundingBox">
      <stop offset="0" stop-color="#febbba"/>
      <stop offset="1" stop-color="#ff928e"/>
    </linearGradient>
    <linearGradient id="linear-gradient-8" x1="0.475" y1="-0.125" x2="0.306" y2="-4.254" xlink:href="#linear-gradient-6"/>
    <linearGradient id="linear-gradient-9" x1="0.162" y1="1.602" x2="1.197" y2="-1.187" xlink:href="#linear-gradient-7"/>
    <linearGradient id="linear-gradient-10" x1="0.522" y1="0.426" x2="0.8" y2="-2.091" xlink:href="#linear-gradient-6"/>
    <linearGradient id="linear-gradient-11" x1="0.308" y1="1.698" x2="0.771" y2="-1.193" xlink:href="#linear-gradient-7"/>
    <linearGradient id="linear-gradient-12" x1="3.673" y1="-1.188" x2="1.834" y2="-0.207" gradientUnits="objectBoundingBox">
      <stop offset="0" stop-color="#ff928e"/>
      <stop offset="1" stop-color="#fe7062"/>
    </linearGradient>
    <linearGradient id="linear-gradient-13" x1="0.821" y1="-0.128" x2="-0.302" y2="2.111" xlink:href="#linear-gradient-6"/>
    <linearGradient id="linear-gradient-14" x1="0.217" y1="1.459" x2="0.72" y2="-0.123" xlink:href="#linear-gradient-7"/>
    <linearGradient id="linear-gradient-15" x1="0.061" y1="1.328" x2="1.522" y2="-1.033" xlink:href="#linear-gradient-7"/>
    <linearGradient id="linear-gradient-16" x1="0.121" y1="-0.334" x2="0.822" y2="0.994" xlink:href="#linear-gradient-6"/>
    <linearGradient id="linear-gradient-17" x1="-1.457" y1="3.259" x2="3.859" y2="-4.348" xlink:href="#linear-gradient-7"/>
    <linearGradient id="linear-gradient-18" x1="-3.293" y1="-0.31" x2="-1.651" y2="2.237" xlink:href="#linear-gradient-7"/>
    <linearGradient id="linear-gradient-19" x1="7.394" y1="2.258" x2="7.977" y2="2.258" xlink:href="#linear-gradient-7"/>
    <linearGradient id="linear-gradient-20" x1="55.573" y1="-0.781" x2="32.525" y2="-0.245" xlink:href="#linear-gradient-6"/>
    <linearGradient id="linear-gradient-21" x1="49.545" y1="-0.641" x2="26.497" y2="-0.105" xlink:href="#linear-gradient-6"/>
    <linearGradient id="linear-gradient-22" x1="2.005" y1="-0.425" x2="1.138" y2="0.108" xlink:href="#linear-gradient-6"/>
    <linearGradient id="linear-gradient-23" x1="2.27" y1="-0.587" x2="1.402" y2="-0.054" xlink:href="#linear-gradient-6"/>
    <linearGradient id="linear-gradient-24" x1="2.047" y1="-38.031" x2="1.119" y2="-14.913" xlink:href="#linear-gradient-6"/>
    <linearGradient id="linear-gradient-25" x1="2.832" y1="-55.019" x2="1.463" y2="-22.436" xlink:href="#linear-gradient-6"/>
    <linearGradient id="linear-gradient-26" x1="3.125" y1="-58.278" x2="1.67" y2="-25.694" xlink:href="#linear-gradient-6"/>
    <linearGradient id="linear-gradient-27" x1="3.275" y1="-61.631" x2="1.82" y2="-29.048" xlink:href="#linear-gradient-6"/>
    <linearGradient id="linear-gradient-28" x1="3.245" y1="-64.842" x2="1.876" y2="-32.259" xlink:href="#linear-gradient-6"/>
    <linearGradient id="linear-gradient-29" x1="3.384" y1="-68.155" x2="2.015" y2="-35.573" xlink:href="#linear-gradient-6"/>
    <linearGradient id="linear-gradient-30" x1="0.658" y1="-4.292" x2="0.585" y2="-1.938" xlink:href="#linear-gradient-6"/>
    <linearGradient id="linear-gradient-31" x1="0.499" y1="1.346" x2="0.509" y2="-7.5" xlink:href="#linear-gradient-6"/>
    <linearGradient id="linear-gradient-32" x1="0" y1="0.5" x2="1" y2="0.5" xlink:href="#linear-gradient-7"/>
    <linearGradient id="linear-gradient-33" x1="0.248" y1="0.824" x2="1.877" y2="-1.154" xlink:href="#linear-gradient-6"/>
    <linearGradient id="linear-gradient-34" x1="1.613" y1="-0.392" x2="0.802" y2="0.31" xlink:href="#linear-gradient-6"/>
    <linearGradient id="linear-gradient-36" x1="0.892" y1="0.112" x2="0.087" y2="1.194" xlink:href="#linear-gradient-6"/>
    <linearGradient id="linear-gradient-37" x1="1.202" y1="1.329" x2="0.482" y2="0.354" xlink:href="#linear-gradient-6"/>
    <linearGradient id="linear-gradient-38" x1="1.604" y1="-1.489" x2="0.196" y2="0.856" xlink:href="#linear-gradient-7"/>
    <linearGradient id="linear-gradient-39" x1="0.533" y1="1.005" x2="0.434" y2="-0.23" xlink:href="#linear-gradient-7"/>
    <linearGradient id="linear-gradient-40" x1="20.919" y1="17.26" x2="21.568" y2="18.371" xlink:href="#linear-gradient-6"/>
    <linearGradient id="linear-gradient-41" x1="0.746" y1="3.772" x2="0.363" y2="-1.162" xlink:href="#linear-gradient-7"/>
    <linearGradient id="linear-gradient-42" x1="-9.249" y1="5.246" x2="-5.924" y2="5.246" xlink:href="#linear-gradient-7"/>
    <linearGradient id="linear-gradient-43" x1="0.505" y1="1.336" x2="0.497" y2="0.167" xlink:href="#linear-gradient-12"/>
    <linearGradient id="linear-gradient-44" x1="4.296" y1="-21.871" x2="-0.958" y2="9.09" gradientUnits="objectBoundingBox">
      <stop offset="0" stop-color="#e1473d"/>
      <stop offset="1" stop-color="#e9605a"/>
    </linearGradient>
  </defs>
  <g id="Grupo_39863" data-name="Grupo 39863" transform="translate(-598.366 -1106.804)">
    <path id="Trazado_83687" data-name="Trazado 83687" d="M920.237,1398.2a130.386,130.386,0,0,1-22.9,18.587c-59.3,39.6-127.094,28.185-148.053,24.284-33.815-6.294-62.359-10.734-86.884-32.891-55.728-50.348-53.017-155.377-10.434-220.438,5.049-7.714,47.567-70.74,115.5-79.62,1.662-.217,2.9-.341,3.987-.456,10.51-1.113,75.636-6.985,128.74,37.505a158.423,158.423,0,0,1,31.179,35.376C972.857,1244.613,972.988,1343.83,920.237,1398.2Z" transform="translate(-19.172)" fill="url(#linear-gradient)"/>
    <g id="Grupo_39841" data-name="Grupo 39841" transform="translate(687.128 1111.663)">
      <g id="Grupo_39837" data-name="Grupo 39837" transform="translate(0)">
        <path id="Trazado_83688" data-name="Trazado 83688" d="M1313.641,1207.465a2,2,0,0,1-1.212-2.38c.583-2.179,1.27-4.365,2.041-6.5a2,2,0,0,1,2.557-1.2l.036.014a2,2,0,0,1,1.163,2.543c-.732,2.026-1.384,4.1-1.939,6.173a2,2,0,0,1-2.446,1.413A1.946,1.946,0,0,1,1313.641,1207.465Zm6.345-16.2a2.027,2.027,0,0,1-.216-.1,2,2,0,0,1-.84-2.7c1.054-2.005,2.2-3.986,3.418-5.885a2,2,0,1,1,3.366,2.15c-1.154,1.806-2.246,3.687-3.247,5.593A2,2,0,0,1,1319.986,1191.266Zm9.754-14.4a2,2,0,0,1-.8-3.164c1.47-1.718,3.034-3.392,4.647-4.978a2,2,0,1,1,2.8,2.849c-1.532,1.506-3.016,3.1-4.413,4.727A2,2,0,0,1,1329.74,1176.866Zm12.732-11.859a2,2,0,0,1-.472-3.47c1.819-1.346,3.717-2.629,5.643-3.814a2,2,0,1,1,2.093,3.4c-1.829,1.126-3.632,2.344-5.36,3.623A2,2,0,0,1,1342.472,1165.007Zm15.056-8.722a2,2,0,0,1-.088-3.693c2.067-.907,4.2-1.737,6.344-2.469a2,2,0,1,1,1.29,3.78c-2.037.695-4.066,1.484-6.03,2.346A1.99,1.99,0,0,1,1357.528,1156.285Zm16.609-5.174a2,2,0,0,1,.335-3.827c2.219-.428,4.485-.766,6.734-1a2,2,0,0,1,.42,3.972c-2.137.226-4.289.547-6.4.953A1.987,1.987,0,0,1,1374.137,1151.111Zm70.034,21.743a1.988,1.988,0,0,1-.706-.463c-1.506-1.528-3.1-3.01-4.736-4.406a2,2,0,0,1,2.592-3.039c1.723,1.47,3.4,3.031,4.988,4.64a2,2,0,0,1-2.138,3.268Zm-52.7-23.107a2,2,0,0,1,.782-3.861c2.259.076,4.543.252,6.787.522a2,2,0,1,1-.477,3.966c-2.131-.257-4.3-.423-6.445-.5A2,2,0,0,1,1391.469,1149.747Zm39.169,12.176a2,2,0,0,1-.359-.18c-1.811-1.153-3.7-2.242-5.6-3.239a2,2,0,0,1,1.851-3.54c2.006,1.049,3.99,2.2,5.9,3.408a2,2,0,0,1-1.785,3.551Zm-21.967-9.633a2,2,0,0,1,1.23-3.794c2.182.58,4.369,1.262,6.5,2.027l.04.015a2,2,0,0,1-1.391,3.744c-2.023-.727-4.1-1.374-6.174-1.925C1408.806,1152.337,1408.737,1152.315,1408.671,1152.289Z" transform="translate(-1312.361 -1145.885)" fill="#91b3fa"/>
        <path id="Trazado_83689" data-name="Trazado 83689" d="M2422.2,1404.439a1.985,1.985,0,0,1-.935-.741c-.579-.852-1.186-1.7-1.8-2.537a2,2,0,1,1,3.208-2.378c.649.875,1.287,1.773,1.9,2.669a2,2,0,0,1-2.368,2.987Z" transform="translate(-2281.486 -1366.635)" fill="#91b3fa"/>
      </g>
      <g id="Grupo_39838" data-name="Grupo 39838" transform="translate(8.926 90.521)">
        <path id="Trazado_83690" data-name="Trazado 83690" d="M2530.628,1881.032a2,2,0,0,1-1.238-2.275c.211-1.007.406-2.037.577-3.058a2,2,0,1,1,3.939.659c-.18,1.075-.385,2.159-.607,3.22a2,2,0,0,1-2.365,1.544A2.031,2.031,0,0,1,2530.628,1881.032Z" transform="translate(-2386.98 -1874.031)" fill="#91b3fa"/>
        <path id="Trazado_83691" data-name="Trazado 83691" d="M1482.175,2031.8q-1.287-.493-2.567-1.034a2,2,0,0,1,1.554-3.68c1.969.832,3.967,1.581,5.963,2.235a2,2,0,1,1-1.245,3.8C1484.646,2032.712,1483.4,2032.269,1482.175,2031.8Zm-11.977-5.79a2,2,0,0,1-.306-.148c-1.917-1.136-3.807-2.366-5.616-3.656a2,2,0,1,1,2.318-3.252c1.719,1.225,3.515,2.393,5.336,3.474a2,2,0,0,1-1.731,3.583Zm25.871,9.681a2,2,0,0,1,1.074-3.829c2.076.378,4.2.671,6.3.872a2,2,0,0,1-.38,3.976c-2.218-.212-4.452-.521-6.637-.918A2.016,2.016,0,0,1,1496.069,2035.691Zm-39.549-19.983a1.993,1.993,0,0,1-.655-.413c-1.619-1.528-3.191-3.144-4.675-4.8a2,2,0,0,1,2.977-2.662c1.408,1.575,2.9,3.109,4.439,4.56a2,2,0,0,1-2.086,3.317Zm56.618,21.16a2,2,0,0,1,.63-3.861c2.107-.088,4.24-.269,6.339-.535a2,2,0,1,1,.5,3.962c-2.211.281-4.456.47-6.675.564A1.991,1.991,0,0,1,1513.139,2036.868Zm16.915-2.6a2,2,0,0,1,.2-3.794c2.043-.549,4.086-1.19,6.073-1.906a2,2,0,1,1,1.354,3.757c-2.091.753-4.242,1.428-6.391,2.005A1.986,1.986,0,0,1,1530.053,2034.271Zm15.946-6.222a2,2,0,0,1-.21-3.634c1.876-.981,3.731-2.051,5.514-3.183a2,2,0,0,1,2.139,3.373c-1.876,1.19-3.828,2.317-5.8,3.349A1.993,1.993,0,0,1,1546,2028.049Zm14.208-9.552a2,2,0,0,1-.574-3.388c1.616-1.367,3.19-2.818,4.681-4.313a2,2,0,1,1,2.828,2.819c-1.571,1.575-3.229,3.1-4.929,4.542A2,2,0,0,1,1560.208,2018.5Zm11.77-12.442a2,2,0,0,1-.88-3.068c1.271-1.685,2.487-3.446,3.614-5.237a2,2,0,0,1,3.38,2.129c-1.186,1.884-2.466,3.739-3.8,5.512A2,2,0,0,1,1571.977,2006.055Zm8.743-14.714c-.038-.015-.076-.031-.114-.048a2,2,0,0,1-.991-2.644c.644-1.417,1.253-2.871,1.809-4.322q.3-.788.585-1.578a2,2,0,0,1,2.554-1.206,1.975,1.975,0,0,1,1.206,2.553q-.3.832-.615,1.661c-.585,1.526-1.225,3.056-1.9,4.546A2,2,0,0,1,1580.72,1991.34Z" transform="translate(-1442.412 -1968.073)" fill="#91b3fa"/>
        <path id="Trazado_83692" data-name="Trazado 83692" d="M1387.169,2105.695a1.989,1.989,0,0,1-.941-.749c-.6-.9-1.2-1.824-1.771-2.755a2,2,0,1,1,3.4-2.091c.543.884,1.109,1.764,1.682,2.616a2,2,0,0,1-2.373,2.979Z" transform="translate(-1384.161 -2071.163)" fill="#91b3fa"/>
      </g>
      <g id="Grupo_39840" data-name="Grupo 39840" transform="translate(18.424 20.183)">
        <g id="Grupo_39839" data-name="Grupo 39839">
          <path id="Trazado_83693" data-name="Trazado 83693" d="M1464.877,1392.438a.933.933,0,0,0,.874.641l11.359.154a49.49,49.49,0,0,0,10.461,12.149l-1.526,11.25a.934.934,0,0,0,.5.959l12.168,6.133a.934.934,0,0,0,1.071-.164l8.135-7.918a49.492,49.492,0,0,0,15.989,1.182l6.88,9.039a.933.933,0,0,0,1.035.321l12.941-4.267a.933.933,0,0,0,.641-.874l.154-11.359a49.485,49.485,0,0,0,12.149-10.461l11.25,1.526a.933.933,0,0,0,.959-.5l6.133-12.168a.933.933,0,0,0-.165-1.071l-7.918-8.135a49.475,49.475,0,0,0,1.182-15.989l9.04-6.88a.933.933,0,0,0,.321-1.035l-4.268-12.941a.933.933,0,0,0-.874-.641l-11.359-.153a49.475,49.475,0,0,0-10.461-12.149l1.526-11.25a.934.934,0,0,0-.5-.959l-12.168-6.133a.933.933,0,0,0-1.071.165l-8.135,7.918a49.478,49.478,0,0,0-15.989-1.182l-6.88-9.039a.933.933,0,0,0-1.035-.321l-12.941,4.267a.933.933,0,0,0-.641.874l-.154,11.359a49.479,49.479,0,0,0-12.149,10.461l-11.25-1.526a.933.933,0,0,0-.959.505l-6.133,12.168a.933.933,0,0,0,.165,1.071l7.918,8.135a49.484,49.484,0,0,0-1.182,15.989l-9.039,6.88a.933.933,0,0,0-.321,1.035Z" transform="translate(-1460.562 -1308.232)" fill="url(#linear-gradient-2)"/>
        </g>
        <path id="Trazado_83694" data-name="Trazado 83694" d="M1833.747,1699.115a13.7,13.7,0,1,1,1.926.58A13.718,13.718,0,0,1,1833.747,1699.115Zm8.688-22.588a10.665,10.665,0,0,0-1.491-.45,10.47,10.47,0,1,0,1.491.45Z" transform="translate(-1779.657 -1627.328)" fill="#91b3fa"/>
        <path id="Trazado_83695" data-name="Trazado 83695" d="M1688.028,1576.183a34.31,34.31,0,0,1-3.165-1.4h0q-.49-.246-.972-.51a33.934,33.934,0,0,1-4.516-2.949l-.058-.045-.164-.129c-.106-.083-.212-.168-.317-.252a.8.8,0,1,1,1-1.243,32.118,32.118,0,0,0,36.616,2.594,31.885,31.885,0,0,0,12.213-13.1,32.567,32.567,0,0,0,1.336-3.02,32.083,32.083,0,1,0-61.985-9.1.788.788,0,0,1-.051.344.8.8,0,0,1-1.542-.228,33.681,33.681,0,1,1,65.071,9.555,34.49,34.49,0,0,1-1.4,3.169,33.685,33.685,0,0,1-42.067,16.316Z" transform="translate(-1640.755 -1485.824)" fill="#91b3fa"/>
      </g>
    </g>
    <g id="Grupo_39845" data-name="Grupo 39845" transform="translate(850.788 1146.785)">
      <g id="Grupo_39842" data-name="Grupo 39842" transform="translate(0 73.875)">
        <path id="Trazado_83696" data-name="Trazado 83696" d="M3303.01,2023a1.184,1.184,0,0,1,.2,1.405c-.48.884-.994,1.765-1.527,2.619a1.185,1.185,0,1,1-2.01-1.255c.508-.814,1-1.654,1.456-2.5a1.186,1.186,0,0,1,1.607-.475A1.2,1.2,0,0,1,3303.01,2023Z" transform="translate(-3216.119 -2022.65)" fill="#91b3fa"/>
        <path id="Trazado_83697" data-name="Trazado 83697" d="M2710.643,2064.289a1.185,1.185,0,0,1,.083,1.585,51.555,51.555,0,0,1-3.486,3.875q-.386.387-.782.769a1.226,1.226,0,0,1-1.676-.032,1.185,1.185,0,0,1,.032-1.675q.379-.365.748-.734a49.316,49.316,0,0,0,3.325-3.7,1.185,1.185,0,0,1,1.667-.174C2710.584,2064.234,2710.614,2064.261,2710.643,2064.289Zm-8.865,8.529a1.229,1.229,0,0,1,.113.128,1.186,1.186,0,0,1-.236,1.66,51.33,51.33,0,0,1-5.264,3.472,1.185,1.185,0,1,1-1.18-2.055,49.11,49.11,0,0,0,5.022-3.312A1.184,1.184,0,0,1,2701.777,2072.818Zm-10.668,6.125a1.185,1.185,0,0,1-.379,1.932,51.054,51.054,0,0,1-5.96,2.073,1.185,1.185,0,0,1-.638-2.282,48.6,48.6,0,0,0,5.683-1.977A1.187,1.187,0,0,1,2691.109,2078.943Zm-11.848,3.314a1.184,1.184,0,0,1-.661,2.01,51.412,51.412,0,0,1-6.284.551,1.185,1.185,0,0,1-.06-2.369,48.843,48.843,0,0,0,5.992-.525A1.182,1.182,0,0,1,2679.26,2082.257Zm-12.3.32a1.185,1.185,0,0,1-.95,2.019,51.877,51.877,0,0,1-6.226-.992,1.185,1.185,0,0,1,.514-2.313,49.38,49.38,0,0,0,5.941.946A1.179,1.179,0,0,1,2666.962,2082.578Zm-12-2.674a1.185,1.185,0,0,1-1.233,1.956,50.982,50.982,0,0,1-5.8-2.48,1.185,1.185,0,0,1,1.065-2.117,48.609,48.609,0,0,0,5.525,2.364A1.181,1.181,0,0,1,2654.961,2079.9Zm-10.981-5.526a1.185,1.185,0,0,1-1.5,1.823,51.335,51.335,0,0,1-5.013-3.828,1.185,1.185,0,0,1,1.552-1.792,48.672,48.672,0,0,0,4.78,3.651A1.167,1.167,0,0,1,2643.98,2074.378Zm-13.137-12.876a1.162,1.162,0,0,1,.135.16,49.145,49.145,0,0,0,3.23,4.116c.173.2.346.4.521.587a1.185,1.185,0,0,1-1.758,1.59c-.185-.206-.369-.412-.551-.622a51.534,51.534,0,0,1-3.381-4.311,1.185,1.185,0,0,1,1.805-1.52Z" transform="translate(-2628.823 -2056.37)" fill="#91b3fa"/>
      </g>
      <g id="Grupo_39843" data-name="Grupo 39843" transform="translate(25.117 0)">
        <path id="Trazado_83698" data-name="Trazado 83698" d="M2883.5,1442.839a1.185,1.185,0,0,1-1.662,1.689,49.025,49.025,0,0,0-4.486-3.857,1.185,1.185,0,1,1,1.433-1.888,51.627,51.627,0,0,1,4.7,4.044Zm4.087,4.476a1.175,1.175,0,0,1,.086.1,51.794,51.794,0,0,1,3.606,5.048,1.185,1.185,0,0,1-2.008,1.26,49.5,49.5,0,0,0-3.441-4.818,1.185,1.185,0,0,1,1.756-1.586Zm-13.724-11.79a1.184,1.184,0,0,1-1.431,1.863,49.187,49.187,0,0,0-5.288-2.658,1.185,1.185,0,0,1,.935-2.178,51.407,51.407,0,0,1,5.542,2.788A1.174,1.174,0,0,1,2873.86,1435.525Zm20.148,22.049a1.189,1.189,0,0,1,.237.337,50.813,50.813,0,0,1,2.281,5.773,1.185,1.185,0,1,1-2.252.735,48.7,48.7,0,0,0-2.176-5.5,1.185,1.185,0,0,1,1.909-1.341Zm-31.266-26.816a1.185,1.185,0,0,1-1.167,1.978,48.7,48.7,0,0,0-5.769-1.309,1.185,1.185,0,0,1,.384-2.339,51.527,51.527,0,0,1,6.049,1.372A1.182,1.182,0,0,1,2862.742,1430.758Zm-11.937-1.961a1.185,1.185,0,0,1-.885,2.024,49.514,49.514,0,0,0-5.917.108,1.185,1.185,0,0,1-.187-2.362,51.821,51.821,0,0,1,6.2-.114A1.181,1.181,0,0,1,2850.805,1428.8Zm-12.064.955a1.185,1.185,0,0,1-.6,2,48.453,48.453,0,0,0-5.719,1.525,1.185,1.185,0,0,1-.749-2.249,51.265,51.265,0,0,1,6-1.6A1.185,1.185,0,0,1,2838.741,1429.752Z" transform="translate(-2830.861 -1428.408)" fill="#91b3fa"/>
        <path id="Trazado_83699" data-name="Trazado 83699" d="M3354.857,1753.567a1.177,1.177,0,0,1,.326.612c.194,1,.359,2,.492,2.989a1.185,1.185,0,1,1-2.349.315c-.126-.942-.284-1.9-.469-2.852a1.185,1.185,0,0,1,2-1.065Z" transform="translate(-3287.945 -1712.84)" fill="#91b3fa"/>
      </g>
      <g id="Grupo_39844" data-name="Grupo 39844" transform="translate(3.125 12.723)">
        <path id="Trazado_83700" data-name="Trazado 83700" d="M2731.367,1568.9a.6.6,0,0,0-.346-.6l-6.634-3.052a31.806,31.806,0,0,0-2.979-9.865l3.829-6.212a.6.6,0,0,0-.047-.695l-5.55-6.776a.6.6,0,0,0-.672-.182l-6.844,2.531a31.808,31.808,0,0,0-9.085-4.863l-1.686-7.1a.6.6,0,0,0-.525-.458l-8.715-.866a.6.6,0,0,0-.6.346l-3.052,6.634a31.8,31.8,0,0,0-9.865,2.979l-6.212-3.83a.6.6,0,0,0-.7.047l-6.775,5.55a.6.6,0,0,0-.183.672l2.531,6.844a31.792,31.792,0,0,0-4.863,9.085l-7.1,1.686a.6.6,0,0,0-.458.524l-.867,8.716a.6.6,0,0,0,.346.6l6.634,3.052a31.8,31.8,0,0,0,2.979,9.865l-3.829,6.212a.6.6,0,0,0,.046.7l5.55,6.776a.6.6,0,0,0,.672.183l6.844-2.531a31.8,31.8,0,0,0,9.085,4.863l1.686,7.1a.6.6,0,0,0,.524.458l8.715.867a.6.6,0,0,0,.6-.346l3.051-6.633a31.808,31.808,0,0,0,9.865-2.979l6.211,3.829a.6.6,0,0,0,.7-.047l6.775-5.55a.6.6,0,0,0,.183-.672l-2.531-6.844a31.811,31.811,0,0,0,4.863-9.085l7.1-1.686a.6.6,0,0,0,.458-.524Z" transform="translate(-2653.963 -1530.754)" fill="url(#linear-gradient-3)"/>
        <path id="Trazado_83701" data-name="Trazado 83701" d="M2908.527,1772.6a8.984,8.984,0,1,1-1.007-.866A9.149,9.149,0,0,1,2908.527,1772.6Zm-11,11a6.715,6.715,0,0,0,.734.632,6.593,6.593,0,0,0,7.844-10.6h0a6.593,6.593,0,0,0-8.578,9.966Z" transform="translate(-2863.484 -1740.235)" fill="#91b3fa"/>
        <path id="Trazado_83702" data-name="Trazado 83702" d="M2822.307,1669.09q.8.794,1.525,1.681a22.451,22.451,0,0,1,2.512,3.791l.094.182a1.185,1.185,0,1,1-2.108,1.081,20,20,0,0,0-2.33-3.551h0c-.049-.06-.1-.12-.149-.18a19.753,19.753,0,0,0-7.915-5.728,20.057,20.057,0,0,0-5.216-1.285l-.044-.005-.135-.013a19.819,19.819,0,0,0-14.615,4.419,20.208,20.208,0,0,0-1.521,1.379,19.951,19.951,0,1,0,32.936,20.809,1.171,1.171,0,0,1,.276-.436,1.185,1.185,0,0,1,1.954,1.237,22.321,22.321,0,1,1-36.848-23.279,22.842,22.842,0,0,1,1.7-1.543A22.351,22.351,0,0,1,2822.307,1669.09Z" transform="translate(-2768.049 -1646.213)" fill="#91b3fa"/>
      </g>
    </g>
    <g id="Grupo_39849" data-name="Grupo 39849" transform="translate(615.683 1233.103)">
      <g id="Grupo_39846" data-name="Grupo 39846">
        <path id="Trazado_83703" data-name="Trazado 83703" d="M738.594,2542.507a1.3,1.3,0,0,1-.93-1.255c.005-1.107.044-2.229.116-3.334a1.3,1.3,0,1,1,2.6.169c-.068,1.053-.105,2.122-.111,3.178a1.3,1.3,0,0,1-1.677,1.242Z" transform="translate(-737.665 -2485.236)" fill="#91b3fa"/>
        <path id="Trazado_83704" data-name="Trazado 83704" d="M746.391,2170.028a1.3,1.3,0,0,1-.906-1.493,56.67,56.67,0,0,1,1.36-5.571q.172-.576.358-1.152a1.349,1.349,0,0,1,1.641-.842,1.3,1.3,0,0,1,.842,1.64q-.178.551-.343,1.1a54.214,54.214,0,0,0-1.3,5.313,1.3,1.3,0,0,1-1.525,1.037C746.476,2170.051,746.433,2170.041,746.391,2170.028Zm4.149-12.884a1.386,1.386,0,0,1-.176-.066,1.3,1.3,0,0,1-.636-1.731,56.559,56.559,0,0,1,3.294-6.107,1.3,1.3,0,1,1,2.214,1.376,54.031,54.031,0,0,0-3.142,5.825A1.3,1.3,0,0,1,750.539,2157.145Zm7.149-11.493a1.3,1.3,0,0,1-.639-2.07,56.21,56.21,0,0,1,4.7-5.113,1.3,1.3,0,0,1,1.807,1.879,53.509,53.509,0,0,0-4.478,4.876A1.305,1.305,0,0,1,757.688,2145.652Zm9.756-9.384a1.3,1.3,0,0,1-.407-2.292,56.488,56.488,0,0,1,5.8-3.808,1.3,1.3,0,0,1,1.292,2.265,53.83,53.83,0,0,0-5.534,3.63A1.3,1.3,0,0,1,767.444,2136.268Zm11.752-6.716a1.3,1.3,0,0,1-.131-2.452,56.981,56.981,0,0,1,6.55-2.282,1.3,1.3,0,0,1,.706,2.51,54.293,54.293,0,0,0-6.25,2.178A1.3,1.3,0,0,1,779.2,2129.552Zm13.024-3.66a1.3,1.3,0,0,1,.176-2.538,56.044,56.044,0,0,1,6.908-.616,1.3,1.3,0,0,1,.07,2.606,53.524,53.524,0,0,0-6.586.587A1.29,1.29,0,0,1,792.22,2125.892Zm13.52-.364a1.3,1.3,0,0,1,.5-2.546,56.453,56.453,0,0,1,6.852,1.1,1.3,1.3,0,0,1-.571,2.545,53.543,53.543,0,0,0-6.534-1.049A1.324,1.324,0,0,1,805.74,2125.528Zm19.439,5.636a1.284,1.284,0,0,1-.214-.085,54.111,54.111,0,0,0-5.274-2.307c-.272-.1-.541-.2-.81-.3a1.3,1.3,0,0,1,.875-2.457c.287.1.573.207.858.316a56.675,56.675,0,0,1,5.523,2.417,1.3,1.3,0,0,1-.958,2.414Z" transform="translate(-744.492 -2122.738)" fill="#91b3fa"/>
      </g>
      <g id="Grupo_39847" data-name="Grupo 39847" transform="translate(10.48 87.277)">
        <path id="Trazado_83705" data-name="Trazado 83705" d="M898.625,2886.222a1.3,1.3,0,0,1,.731-2.5,53.954,53.954,0,0,0,6.356,1.4,1.3,1.3,0,0,1-.406,2.576,56.72,56.72,0,0,1-6.664-1.469Zm-6.293-2.208a1.368,1.368,0,0,1-.133-.048,57.029,57.029,0,0,1-6.124-3.014,1.3,1.3,0,0,1,1.29-2.267,54.474,54.474,0,0,0,5.844,2.877,1.3,1.3,0,0,1-.876,2.451Zm19.441,4.277a1.3,1.3,0,0,1,.417-2.551,54.03,54.03,0,0,0,6.509-.178,1.3,1.3,0,0,1,.228,2.6,56.476,56.476,0,0,1-6.823.185A1.3,1.3,0,0,1,911.773,2888.291Zm-31.011-10.873a1.312,1.312,0,0,1-.405-.2,55.874,55.874,0,0,1-5.218-4.406,1.3,1.3,0,1,1,1.8-1.885,53.52,53.52,0,0,0,4.975,4.2,1.3,1.3,0,0,1-1.152,2.294Zm44.268,9.7a1.3,1.3,0,0,1,.1-2.525,53.578,53.578,0,0,0,6.273-1.737,1.3,1.3,0,0,1,.847,2.467,56.669,56.669,0,0,1-6.578,1.821A1.3,1.3,0,0,1,925.03,2887.12Zm12.59-4.317a1.3,1.3,0,0,1-.2-2.422,54.468,54.468,0,0,0,5.679-3.187,1.3,1.3,0,1,1,1.411,2.191,57.011,57.011,0,0,1-5.952,3.342A1.3,1.3,0,0,1,937.62,2882.8Zm11.194-7.21a1.3,1.3,0,0,1-.458-2.252,53.335,53.335,0,0,0,4.748-4.457,1.3,1.3,0,0,1,1.9,1.789,56.382,56.382,0,0,1-4.979,4.674A1.3,1.3,0,0,1,948.815,2875.593Z" transform="translate(-868.175 -2863.044)" fill="#91b3fa"/>
        <path id="Trazado_83706" data-name="Trazado 83706" d="M824.88,2829.92a1.3,1.3,0,0,1-.635-.423c-.706-.864-1.39-1.752-2.034-2.641a1.3,1.3,0,0,1,2.112-1.529c.613.848,1.266,1.7,1.939,2.52a1.3,1.3,0,0,1-1.384,2.074Z" transform="translate(-821.964 -2824.789)" fill="#91b3fa"/>
      </g>
      <g id="Grupo_39848" data-name="Grupo 39848" transform="translate(15.473 14.89)">
        <path id="Trazado_83707" data-name="Trazado 83707" d="M865.912,2304.2a.66.66,0,0,0,.65.405l8.018-.5a34.995,34.995,0,0,0,8.026,8.009l-.475,8.014a.66.66,0,0,0,.407.649l8.908,3.675a.66.66,0,0,0,.747-.173l5.314-6.018a34.993,34.993,0,0,0,11.338-.02l5.334,6.008a.661.661,0,0,0,.747.171l8.9-3.7a.66.66,0,0,0,.405-.65l-.5-8.018a34.992,34.992,0,0,0,8.009-8.026l8.014.476a.66.66,0,0,0,.649-.407l3.675-8.908a.66.66,0,0,0-.173-.747l-6.018-5.314a34.989,34.989,0,0,0-.019-11.338l6.007-5.334a.66.66,0,0,0,.171-.747l-3.7-8.9a.66.66,0,0,0-.65-.405l-8.018.5a34.995,34.995,0,0,0-8.026-8.009l.475-8.014a.66.66,0,0,0-.407-.649l-8.908-3.676a.66.66,0,0,0-.746.173l-5.314,6.018a34.988,34.988,0,0,0-11.338.02l-5.334-6.007a.66.66,0,0,0-.747-.171l-8.9,3.7a.66.66,0,0,0-.405.65l.5,8.018a34.99,34.99,0,0,0-8.009,8.026l-8.015-.476a.659.659,0,0,0-.649.407l-3.675,8.908a.66.66,0,0,0,.173.747l6.018,5.314a34.994,34.994,0,0,0,.02,11.338l-6.007,5.335a.66.66,0,0,0-.171.747Z" transform="translate(-862.13 -2242.51)" fill="url(#linear-gradient-4)"/>
        <path id="Trazado_83708" data-name="Trazado 83708" d="M1119.618,2512.29a9.883,9.883,0,1,1,1.427.315A10.116,10.116,0,0,1,1119.618,2512.29Zm4.924-16.392a7.351,7.351,0,0,0-1.04-.229,7.253,7.253,0,0,0-2.082,14.357h0a7.254,7.254,0,0,0,3.122-14.127Z" transform="translate(-1081.462 -2461.847)" fill="#91b3fa"/>
        <path id="Trazado_83709" data-name="Trazado 83709" d="M1013.378,2422.01q-1.186-.354-2.353-.835a24.691,24.691,0,0,1-4.409-2.365l-.185-.127a1.3,1.3,0,1,1,1.479-2.146,22.036,22.036,0,0,0,4.108,2.228h0l.238.1a21.738,21.738,0,0,0,10.654,1.429,22.082,22.082,0,0,0,5.724-1.472l.045-.018.138-.057a21.807,21.807,0,0,0,11.862-11.9,22.231,22.231,0,0,0,.756-2.129,21.951,21.951,0,1,0-42.758-3.01,1.3,1.3,0,1,1-2.578.385,24.558,24.558,0,1,1,47.836,3.366,25.147,25.147,0,0,1-.844,2.381A24.592,24.592,0,0,1,1013.378,2422.01Z" transform="translate(-979.209 -2357.57)" fill="#91b3fa"/>
      </g>
    </g>
    <g id="Grupo_39853" data-name="Grupo 39853" transform="translate(756.621 1273.645)">
      <g id="Grupo_39850" data-name="Grupo 39850" transform="translate(0 0)">
        <path id="Trazado_83710" data-name="Trazado 83710" d="M1874.863,2543.182a1.947,1.947,0,0,1-2.081-1.565c-.423-2.158-.758-4.366-1-6.564a1.947,1.947,0,0,1,1.725-2.146l.038,0a1.946,1.946,0,0,1,2.107,1.729c.226,2.087.545,4.185.946,6.235a1.947,1.947,0,0,1-1.739,2.313Zm-1.383-16.9a1.947,1.947,0,0,1-2.121-1.995c.064-2.208.222-4.434.472-6.617a1.946,1.946,0,1,1,3.868.441c-.237,2.076-.387,4.191-.448,6.289A1.947,1.947,0,0,1,1873.48,2526.279Zm2.374-16.787a1.947,1.947,0,0,1-2.058-2.427c.552-2.134,1.2-4.27,1.937-6.349a1.947,1.947,0,0,1,3.672,1.3c-.7,1.974-1.315,4-1.84,6.029A1.947,1.947,0,0,1,1875.854,2509.492Zm6.069-15.838a1.947,1.947,0,0,1-1.9-2.836c1.016-1.957,2.129-3.894,3.307-5.757a1.947,1.947,0,1,1,3.29,2.082c-1.119,1.769-2.177,3.608-3.142,5.469A1.946,1.946,0,0,1,1881.923,2493.655Zm9.448-14.086a1.947,1.947,0,0,1-1.659-3.2c1.421-1.679,2.935-3.321,4.5-4.879a1.947,1.947,0,1,1,2.749,2.757c-1.486,1.481-2.925,3.042-4.276,4.637A1.94,1.94,0,0,1,1891.371,2479.569Zm12.328-11.645a1.947,1.947,0,0,1-1.346-3.494c1.76-1.325,3.6-2.592,5.467-3.763a1.947,1.947,0,0,1,2.07,3.3c-1.774,1.113-3.522,2.316-5.194,3.575A1.936,1.936,0,0,1,1903.7,2467.924Zm70.639-10.957a1.944,1.944,0,0,1-.816-.1c-1.973-.693-4-1.309-6.034-1.83a1.946,1.946,0,1,1,.968-3.771c2.138.549,4.277,1.2,6.355,1.926a1.947,1.947,0,0,1-.473,3.777Zm-56.046,2.339a1.947,1.947,0,0,1-.969-3.716c2.011-.9,4.086-1.725,6.167-2.45a1.947,1.947,0,1,1,1.281,3.677c-1.976.688-3.946,1.471-5.856,2.326A1.948,1.948,0,0,1,1918.292,2459.306Zm39.514-6.115a1.947,1.947,0,0,1-.392,0c-2.08-.234-4.2-.38-6.293-.436a1.947,1.947,0,0,1,.1-3.892c2.206.06,4.434.214,6.622.459a1.947,1.947,0,0,1-.042,3.874Zm-23.362.973a1.947,1.947,0,0,1-.549-3.849c2.159-.427,4.366-.767,6.559-1.008l.042,0a1.947,1.947,0,0,1,.386,3.874c-2.083.23-4.179.553-6.231.959C1934.582,2454.149,1934.512,2454.159,1934.444,2454.165Z" transform="translate(-1871.358 -2448.858)" fill="#91b3fa"/>
        <path id="Trazado_83711" data-name="Trazado 83711" d="M2765.572,2521.876a1.938,1.938,0,0,1-1.136-.248c-.872-.5-1.768-.985-2.665-1.45a1.946,1.946,0,1,1,1.791-3.456c.943.489,1.886,1,2.8,1.525a1.947,1.947,0,0,1-.794,3.63Z" transform="translate(-2650.156 -2508.093)" fill="#91b3fa"/>
      </g>
      <g id="Grupo_39851" data-name="Grupo 39851" transform="translate(35.239 54.107)">
        <path id="Trazado_83712" data-name="Trazado 83712" d="M3068.3,2890.978a1.947,1.947,0,0,1-2.058-1.461c-.246-.973-.517-1.957-.8-2.925a1.947,1.947,0,0,1,3.732-1.11c.3,1.019.588,2.055.847,3.08a1.947,1.947,0,0,1-1.41,2.365A1.982,1.982,0,0,1,3068.3,2890.978Z" transform="translate(-2952.162 -2884.089)" fill="#91b3fa"/>
        <path id="Trazado_83713" data-name="Trazado 83713" d="M2288.8,3077.97q-1.338.119-2.69.194a1.947,1.947,0,0,1-.216-3.888c2.08-.115,4.151-.315,6.178-.6a1.947,1.947,0,1,1,.536,3.856C2291.351,3077.711,2290.069,3077.857,2288.8,3077.97Zm-12.967.06a2,2,0,0,1-.332,0c-2.165-.174-4.347-.442-6.484-.8a1.946,1.946,0,1,1,.637-3.84c2.03.336,4.1.59,6.16.756a1.947,1.947,0,0,1,.019,3.879Zm26.8-2.6a1.947,1.947,0,0,1-.7-3.813c1.979-.558,3.962-1.209,5.892-1.936a1.947,1.947,0,0,1,1.371,3.645c-2.033.765-4.121,1.45-6.206,2.039A1.959,1.959,0,0,1,2302.629,3075.427Zm-43.19-.559a1.942,1.942,0,0,1-.751-.081c-2.072-.645-4.141-1.386-6.15-2.2a1.947,1.947,0,0,1,1.467-3.606c1.907.776,3.872,1.48,5.84,2.092a1.947,1.947,0,0,1-.406,3.8Zm58.641-5.721a1.947,1.947,0,0,1-1.1-3.651c1.807-.979,3.6-2.051,5.322-3.183a1.946,1.946,0,1,1,2.137,3.254c-1.815,1.193-3.7,2.321-5.6,3.352A1.936,1.936,0,0,1,2318.08,3069.146Zm13.7-9.519a1.947,1.947,0,0,1-1.454-3.406c1.553-1.355,3.068-2.792,4.5-4.27a1.947,1.947,0,1,1,2.795,2.71c-1.509,1.555-3.1,3.067-4.738,4.493A1.938,1.938,0,0,1,2331.78,3059.628Zm11.3-12.279a1.947,1.947,0,0,1-1.741-3.093c1.223-1.663,2.389-3.394,3.465-5.148a1.947,1.947,0,1,1,3.318,2.037c-1.133,1.845-2.36,3.669-3.646,5.418A1.943,1.943,0,0,1,2343.078,3047.349Zm8.351-14.45a1.946,1.946,0,0,1-1.953-2.721c.829-1.889,1.586-3.834,2.251-5.782a1.947,1.947,0,1,1,3.684,1.258c-.7,2.052-1.5,4.1-2.371,6.088A1.947,1.947,0,0,1,2351.428,3032.9Zm4.977-15.936a1.95,1.95,0,0,1-2.085-2.31c.391-2.02.7-4.083.922-6.133a1.947,1.947,0,1,1,3.871.417c-.232,2.158-.559,4.33-.971,6.457A1.948,1.948,0,0,1,2356.405,3016.963Zm1.353-16.629c-.04,0-.08.006-.12.007a1.946,1.946,0,0,1-2-1.891c-.043-1.517-.133-3.051-.267-4.559q-.073-.819-.164-1.633a1.947,1.947,0,0,1,1.72-2.15,1.925,1.925,0,0,1,2.15,1.719q.1.856.173,1.718c.141,1.587.236,3.2.281,4.8A1.947,1.947,0,0,1,2357.759,3000.334Z" transform="translate(-2239.327 -2976.913)" fill="#91b3fa"/>
        <path id="Trazado_83714" data-name="Trazado 83714" d="M2159.6,3579.251a1.944,1.944,0,0,1-1.145-.253c-.913-.527-1.831-1.083-2.731-1.653a1.947,1.947,0,0,1,2.084-3.289c.854.542,1.727,1.07,2.594,1.57a1.947,1.947,0,0,1-.8,3.625Z" transform="translate(-2154.819 -3488.015)" fill="#91b3fa"/>
      </g>
      <g id="Grupo_39852" data-name="Grupo 39852" transform="translate(19.323 18.729)">
        <path id="Trazado_83715" data-name="Trazado 83715" d="M2048.1,2703.4a.91.91,0,0,0,1.04.187l10.012-4.731a48.246,48.246,0,0,0,14.364,6.158l3.482,10.5a.91.91,0,0,0,.853.624l13.281.159a.91.91,0,0,0,.867-.6l3.732-10.418a48.233,48.233,0,0,0,14.507-5.813l9.9,4.969a.91.91,0,0,0,1.044-.162l9.5-9.279a.91.91,0,0,0,.187-1.04l-4.73-10.012a48.228,48.228,0,0,0,6.157-14.364l10.5-3.482a.91.91,0,0,0,.623-.853l.159-13.282a.909.909,0,0,0-.6-.867l-10.418-3.732a48.223,48.223,0,0,0-5.813-14.507l4.969-9.9a.91.91,0,0,0-.162-1.044l-9.28-9.5a.91.91,0,0,0-1.04-.187l-10.012,4.731a48.232,48.232,0,0,0-14.364-6.158l-3.482-10.5a.91.91,0,0,0-.853-.624l-13.282-.158a.91.91,0,0,0-.867.6l-3.732,10.418a48.224,48.224,0,0,0-14.507,5.812l-9.9-4.968a.909.909,0,0,0-1.043.162l-9.5,9.279a.91.91,0,0,0-.187,1.04l4.731,10.012a48.231,48.231,0,0,0-6.158,14.364l-10.5,3.482a.909.909,0,0,0-.623.853l-.159,13.281a.91.91,0,0,0,.6.867l10.418,3.732a48.235,48.235,0,0,0,5.813,14.507l-4.968,9.9a.91.91,0,0,0,.162,1.044Z" transform="translate(-2026.788 -2599.51)" fill="url(#linear-gradient-5)"/>
        <path id="Trazado_83716" data-name="Trazado 83716" d="M2403.636,2988.452a13.358,13.358,0,1,1,1.935-.317A13.371,13.371,0,0,1,2403.636,2988.452Zm-2.067-23.5a10.451,10.451,0,0,0-1.5.245,10.2,10.2,0,1,0,1.5-.245Z" transform="translate(-2344.063 -2916.757)" fill="#91b3fa"/>
        <path id="Trazado_83717" data-name="Trazado 83717" d="M2269.737,2868.969a33.314,33.314,0,0,1-3.371.13h0q-.535-.006-1.069-.03a32.988,32.988,0,0,1-5.218-.648l-.07-.014-.2-.042c-.129-.027-.257-.057-.385-.085a.779.779,0,1,1,.346-1.518,31.31,31.31,0,0,0,33.174-13.411,31.082,31.082,0,0,0,5.082-16.7,31.687,31.687,0,0,0-.124-3.216,31.273,31.273,0,0,0-62.415,2.469,31.277,31.277,0,0,0,4.239,16.11.766.766,0,0,1,.1.323.779.779,0,0,1-1.448.461,32.832,32.832,0,1,1,61.073-19.5,33.554,33.554,0,0,1,.13,3.376,32.836,32.836,0,0,1-29.848,32.305Z" transform="translate(-2208.178 -2778.091)" fill="#91b3fa"/>
      </g>
    </g>
    <g id="Grupo_39858" data-name="Grupo 39858" transform="translate(786.224 1130.895)">
      <g id="Grupo_39856" data-name="Grupo 39856">
        <path id="Trazado_83718" data-name="Trazado 83718" d="M2442.12,1487.185s3.934,1.914,4.657,4.112c.581,1.764,4.931,1.991,5.361,5.46a3.98,3.98,0,0,0,3.331,3.5c4.443.681,11.29,2.988,12.386,10.7.836,5.888-2.166,8.121-5.315,8.894a4.462,4.462,0,0,0-3.384,5.154c.449,2.24-.22,4.831-4.1,6.879-8.7,4.589-17.385-10.873-17.385-10.873l-1.78-27Z" transform="translate(-2395.31 -1463.988)" fill="url(#linear-gradient-6)"/>
        <path id="Trazado_83719" data-name="Trazado 83719" d="M2182.729,1358.24s8.111,31.471,26.142,42.851c0,0-7.343,9.676-10.7,9.973,0,0-17.687-27.966-17.635-49.429Z" transform="translate(-2171.701 -1351.073)" fill="url(#linear-gradient-7)"/>
        <path id="Trazado_83720" data-name="Trazado 83720" d="M2773.517,2836.5l.563,4.627a1.91,1.91,0,0,0,1.676,1.672,29.561,29.561,0,0,0,6.192.1,1.637,1.637,0,0,0,1.375-2.123,16.853,16.853,0,0,0-3.1-6.045h-5.133A1.581,1.581,0,0,0,2773.517,2836.5Z" transform="translate(-2690.955 -2644.003)" fill="url(#linear-gradient-8)"/>
        <path id="Trazado_83721" data-name="Trazado 83721" d="M2423.04,2412.964l-.866,5.1s2.9,29.388,3.417,41.143a9.21,9.21,0,0,1-1.364,5.235l-5.045,8.192,12.821-7.566.255-1.565-2.1-2.886,2.75-32.921a10.1,10.1,0,0,0-1.15-5.587l-2.652-4.982Z" transform="translate(-2380.681 -2274.677)" fill="url(#linear-gradient-9)"/>
        <path id="Trazado_83722" data-name="Trazado 83722" d="M2404.77,2816.775h4.092a2.464,2.464,0,0,0,1.955-.958c1.275-1.657,3.918-4.891,5.182-4.976,1.7-.114,1.483,5.934,1.483,5.934h.954l1.208-7.515a4.448,4.448,0,0,0-2.334-4.65h0a6.289,6.289,0,0,1-2.5,4.148c-2.108,1.272-8.58,5.827-8.58,5.827a5.846,5.846,0,0,0-1.663.044A1.082,1.082,0,0,0,2404.77,2816.775Z" transform="translate(-2367.113 -2617.634)" fill="url(#linear-gradient-10)"/>
        <path id="Trazado_83723" data-name="Trazado 83723" d="M2591.469,2417.515s17,32.241,19.7,39.6a70.747,70.747,0,0,1,3.685,14.083c.057.909,1.187,1.78,4.3,1.78a2.988,2.988,0,0,0,2.781-1.268,1.817,1.817,0,0,0,.069-1.759c-.983-1.99-4.1-8.349-5.259-11.232-1.379-3.443-4.347-19.048-5.975-24.474s-3.467-11.311-10.555-16.732C2600.215,2417.515,2595.349,2412.75,2591.469,2417.515Z" transform="translate(-2531.549 -2276.807)" fill="url(#linear-gradient-11)"/>
        <path id="Trazado_83724" data-name="Trazado 83724" d="M2336.662,1733.661c-4.385-18.578,6.723-29.086,6.723-29.086-7.008-6.727-19.777-9.788-19.777-9.788s-12.184,8.908-10.739,15.88c.847,4.087,8.564,24.478,8.564,24.478A16.956,16.956,0,0,0,2336.662,1733.661Z" transform="translate(-2287.479 -1645.781)" fill="url(#linear-gradient-12)"/>
        <path id="Trazado_83725" data-name="Trazado 83725" d="M2401.318,2016.685c-1.784-5.375-9.721-9.2-9.721-9.2a16.956,16.956,0,0,1-15.229,1.483,30.545,30.545,0,0,0-.5,11.8c1.1,5.685,8.034,42.219,8.034,42.219,10.919,2.212,27.713-2.226,27.713-2.226C2404.665,2048.417,2403.1,2022.06,2401.318,2016.685Z" transform="translate(-2342.415 -1919.607)" fill="url(#linear-gradient-13)"/>
        <path id="Trazado_83726" data-name="Trazado 83726" d="M2415.638,1585.276l3.564,16.011c.342,1.41-.944,1.179-2.37.911-2.335-.44-5.345-1.347-6.351-3.164a1.721,1.721,0,0,1-.183-.6l-1.531-11.1a2,2,0,0,1,1.168-2.1l2.955-1.31A2,2,0,0,1,2415.638,1585.276Z" transform="translate(-2371.544 -1548.548)" fill="url(#linear-gradient-14)"/>
        <g id="Grupo_39854" data-name="Grupo 39854" transform="translate(31.455 15.794)">
          <path id="Trazado_83727" data-name="Trazado 83727" d="M2370.953,1471.624s-4.222,1.782-7.093,7.883-.727,8.917,1.966,9.3a12.6,12.6,0,0,0,10.979-3.613C2381.064,1481.257,2376.441,1469.511,2370.953,1471.624Z" transform="translate(-2362.496 -1465.934)" fill="url(#linear-gradient-15)"/>
          <path id="Trazado_83728" data-name="Trazado 83728" d="M2401.976,1443.638s3.185-8.925-4.728-9.031l-1.862,1.3s-2.9-4.948,1.862-7.311,10.343-.411,12.371,6.009,2.374,10.718-1,13.79-4.764-.411-4.764-.411,1.837-2.873,1.089-4.41-2.473.318-2.473.318Z" transform="translate(-2390.531 -1427.632)" fill="url(#linear-gradient-16)"/>
          <path id="Trazado_83729" data-name="Trazado 83729" d="M2461.7,1541.863s1.611-4.6,3.759-2.767-1.746,4.247-3.271,5.029Z" transform="translate(-2449.37 -1524.862)" fill="url(#linear-gradient-17)"/>
        </g>
        <g id="Grupo_39855" data-name="Grupo 39855" transform="translate(4.224)">
          <path id="Trazado_83730" data-name="Trazado 83730" d="M2148.64,1313.176c-.224.523,1.662,1.542,3.041-.552.146-1.055,1.242-5.527.7-6.452-2.912-4.93-6.441-5.582-6.441-5.582a15.427,15.427,0,0,0-2.215,3.474,4.463,4.463,0,0,0,.117,3.313c.457,1.058,1.085,2.436,1.7,3.527A4.407,4.407,0,0,0,2148.64,1313.176Z" transform="translate(-2143.456 -1300.59)" fill="url(#linear-gradient-18)"/>
        </g>
        <path id="Trazado_83731" data-name="Trazado 83731" d="M2167.353,1709.52s-32.606,39.814-56.966-5.519a5.6,5.6,0,0,1-.176-2.832,27.02,27.02,0,0,0-.718-5.372.844.844,0,0,1,.75-1.005h0a1.155,1.155,0,0,1,1.018.436l4.45,5.666a2.376,2.376,0,0,1-1.26,2.82h0a1.172,1.172,0,0,0-.434,1.77c18.526,24.285,49.513-2.363,50.08-2.051C2166.109,1704.543,2168.434,1705.771,2167.353,1709.52Z" transform="translate(-2109.477 -1645.781)" fill="url(#linear-gradient-19)"/>
      </g>
      <g id="Grupo_39857" data-name="Grupo 39857" transform="translate(34.579 198.737)">
        <path id="Trazado_83732" data-name="Trazado 83732" d="M2409.055,3027.65a1.167,1.167,0,0,0,1.277-1.009V2906.054a1.312,1.312,0,0,0-2.553,0v120.588A1.166,1.166,0,0,0,2409.055,3027.65Z" transform="translate(-2405.273 -2904.32)" fill="url(#linear-gradient-20)"/>
        <path id="Trazado_83733" data-name="Trazado 83733" d="M2687.377,3027.65a1.167,1.167,0,0,0,1.277-1.009V2906.054a1.312,1.312,0,0,0-2.554,0v120.588A1.167,1.167,0,0,0,2687.377,3027.65Z" transform="translate(-2648.995 -2904.32)" fill="url(#linear-gradient-21)"/>
        <path id="Trazado_83734" data-name="Trazado 83734" d="M2911.265,3028.415a1.57,1.57,0,0,0,.5-.081.945.945,0,0,0,.676-1.324l-65.292-121.352a1.421,1.421,0,0,0-1.674-.533.945.945,0,0,0-.676,1.323L2910.09,3027.8A1.322,1.322,0,0,0,2911.265,3028.415Z" transform="translate(-2787.874 -2904.319)" fill="url(#linear-gradient-22)"/>
        <path id="Trazado_83735" data-name="Trazado 83735" d="M2586.855,3028.415a1.569,1.569,0,0,0,.5-.081.945.945,0,0,0,.676-1.324l-65.292-121.352a1.421,1.421,0,0,0-1.675-.533.945.945,0,0,0-.676,1.323l65.292,121.352A1.323,1.323,0,0,0,2586.855,3028.415Z" transform="translate(-2503.794 -2904.319)" fill="url(#linear-gradient-23)"/>
        <path id="Trazado_83736" data-name="Trazado 83736" d="M2389.427,2902.056h59.809a1.645,1.645,0,0,0,1.8-1.422h0a1.645,1.645,0,0,0-1.8-1.422h-59.809a1.645,1.645,0,0,0-1.8,1.422h0A1.644,1.644,0,0,0,2389.427,2902.056Z" transform="translate(-2387.627 -2899.212)" fill="url(#linear-gradient-24)"/>
        <path id="Trazado_83737" data-name="Trazado 83737" d="M2600.909,3056.323h40.449a1.037,1.037,0,1,0,0-2.018h-40.449a1.037,1.037,0,1,0,0,2.018Z" transform="translate(-2573.276 -3035.024)" fill="url(#linear-gradient-25)"/>
        <rect id="Rect치ngulo_32883" data-name="Rect치ngulo 32883" width="40.449" height="2.018" transform="translate(40.044 42.232)" fill="url(#linear-gradient-26)"/>
        <rect id="Rect치ngulo_32884" data-name="Rect치ngulo 32884" width="40.449" height="2.018" transform="translate(52.059 65.182)" fill="url(#linear-gradient-27)"/>
        <path id="Trazado_83738" data-name="Trazado 83738" d="M2898.749,3610.166H2939.2a1.037,1.037,0,1,0,0-2.018h-40.449a1.037,1.037,0,1,0,0,2.018Z" transform="translate(-2834.089 -3520.015)" fill="url(#linear-gradient-28)"/>
        <path id="Trazado_83739" data-name="Trazado 83739" d="M2996.741,3794.782h40.449a1.037,1.037,0,1,0,0-2.018h-40.449a1.037,1.037,0,1,0,0,2.018Z" transform="translate(-2919.899 -3681.68)" fill="url(#linear-gradient-29)"/>
      </g>
    </g>
    <g id="Grupo_39862" data-name="Grupo 39862" transform="translate(598.366 1325.998)">
      <g id="Grupo_39859" data-name="Grupo 39859" transform="translate(86.687 119.505)">
        <path id="Trazado_83740" data-name="Trazado 83740" d="M1316.316,3837.592c-4.036-3.513-12.708-6.327-12.708-6.327l-5.218.114c-1.324,1.49-1.923,4.377-2.178,6.186.982.589,2.823,1.1,6.2,1.265A50.767,50.767,0,0,0,1316.316,3837.592Z" transform="translate(-1296.144 -3831.265)" fill="url(#linear-gradient-30)"/>
        <path id="Trazado_83741" data-name="Trazado 83741" d="M1315.838,3881.97a50.769,50.769,0,0,1-13.9,1.238c-3.375-.161-5.217-.676-6.2-1.265-.021.146-.04.286-.056.416a1.539,1.539,0,0,0,1.081,1.659c4.766,1.461,15.249.991,19.336.738a1.075,1.075,0,0,0,.77-1.753A9.138,9.138,0,0,0,1315.838,3881.97Z" transform="translate(-1295.666 -3875.643)" fill="url(#linear-gradient-31)"/>
      </g>
      <path id="Trazado_83742" data-name="Trazado 83742" d="M1319.18,3795.949l-2.017,4.149a1.693,1.693,0,0,0,1.338,1.656,6.6,6.6,0,0,0,2.922.029,1.619,1.619,0,0,0,1.206-1.387l2.542-4.447Z" transform="translate(-1227.804 -3680.834)" fill="url(#linear-gradient-32)"/>
      <g id="Grupo_39860" data-name="Grupo 39860" transform="translate(0 108.063)">
        <path id="Trazado_83743" data-name="Trazado 83743" d="M603.518,3769.673c-1.518-3.38-1.084-4.9-4.09-4.564a4.08,4.08,0,0,0-.915.2,2.7,2.7,0,0,0,0,1.761c.76,2.187,1.34,6.428,4.255,10.107a3.3,3.3,0,0,0,2.535,1.238l3.315.055C605.476,3775.958,604.778,3772.478,603.518,3769.673Z" transform="translate(-598.366 -3761.852)" fill="url(#linear-gradient-33)"/>
        <path id="Trazado_83744" data-name="Trazado 83744" d="M609.861,3750.833c-2.544-1.791-2.485-9.611-2.485-9.611l-3.921-2-2.956,2.143a2.721,2.721,0,0,0-.954,1.316,4.065,4.065,0,0,1,.915-.2c3.006-.336,2.572,1.184,4.09,4.564,1.26,2.8,1.958,6.284,5.1,8.8l2.278.038a1.224,1.224,0,0,0,.994-1.966A14.777,14.777,0,0,0,609.861,3750.833Z" transform="translate(-599.398 -3739.227)" fill="url(#linear-gradient-34)"/>
      </g>
      <path id="Trazado_83745" data-name="Trazado 83745" d="M630.642,3709.606l-4.385,3.683a1.072,1.072,0,0,0,.237,1.423,3.518,3.518,0,0,0,3.683.573l4.812-2.606Z" transform="translate(-622.64 -3605.225)" fill="url(#linear-gradient-32)"/>
      <path id="Trazado_83746" data-name="Trazado 83746" d="M639.169,3375.29l3.6,2.684a2.307,2.307,0,0,0,2.414.118c5.965-4.3,62.543-30.307,73.755-34.369l-8.558-17.967S637.659,3373.9,639.169,3375.29Z" transform="translate(-634.076 -3269.094)" fill="url(#linear-gradient-36)"/>
      <path id="Trazado_83747" data-name="Trazado 83747" d="M1221.706,3355.221c-6.674-3.581-25.261-6.677-25.261-6.677l-21.619-5.854s-5.936,17.708,4.465,20.9,25.436,1.683,31.74.847c0,0-8.427,6.052-18.515,35.37a35.29,35.29,0,0,1,6.158.718s22.515-28.023,24.875-35.253C1225.105,3360.507,1227.285,3358.215,1221.706,3355.221Z" transform="translate(-1101.685 -3283.923)" fill="url(#linear-gradient-37)"/>
      <path id="Trazado_83748" data-name="Trazado 83748" d="M1534.859,2973.658c-4.676-.33-18.885,2.759-18.885,2.759l7.3,6s5.751-1.4,9.584-2.148C1532.854,2980.269,1542.314,2974.184,1534.859,2973.658Z" transform="translate(-1401.899 -2960.747)" fill="url(#linear-gradient-38)"/>
      <g id="Grupo_39861" data-name="Grupo 39861" transform="translate(129.869 0)">
        <path id="Trazado_83749" data-name="Trazado 83749" d="M1662.817,2929.473s-6.266,5.818-10.073,7.4-6.032,3.3-8.391-.913-1.451-8.782,1.7-12.189c0,0,4.832-5.3,7.525-5.44S1662.817,2929.473,1662.817,2929.473Z" transform="translate(-1643.024 -2912.317)" fill="url(#linear-gradient-39)"/>
        <path id="Trazado_83750" data-name="Trazado 83750" d="M1657.158,2881.986l.2.567s3.975-4.023,5.539-2.264,6.082,9.314,9.587,10.056a5.691,5.691,0,0,0,6.657-4.67.32.32,0,0,0-.277-.334l-.42-.063a.323.323,0,0,1-.14-.583.322.322,0,0,0-.108-.576c-1.052-.234-2.968-1.2-5.059-4.847-2.968-5.18-6.5-8.054-10.355-6.8a.323.323,0,0,1-.416-.385c.105-.5-.007-1.192-1.05-1.808-1.813-1.072-4.912.716-6.47,5.009a.322.322,0,0,1-.494.157c-.606-.466-1.858-1.038-2.286,1.735-.438,2.837.2,4.2.522,4.687a.323.323,0,0,0,.4.12l3.319-1.4a.323.323,0,0,1,.43.19Z" transform="translate(-1650.811 -2869.976)" fill="url(#linear-gradient-40)"/>
        <path id="Trazado_83751" data-name="Trazado 83751" d="M1672.532,2935.243s4.293-2.888,2.225-4.541-4.908,2.958-4.487,4.724Z" transform="translate(-1666.846 -2922.844)" fill="url(#linear-gradient-41)"/>
      </g>
      <path id="Trazado_83752" data-name="Trazado 83752" d="M2001.565,2984.119s3.525,1.252,4.176-.846-1.167-7.689-.014-8.462,3.146-4.632,2.515-6.4l-1.444,1.373s.984-3.237-.1-4.616l-2.734,7.03S2000.344,2980.566,2001.565,2984.119Z" transform="translate(-1826.902 -2953.337)" fill="url(#linear-gradient-42)"/>
      <path id="Trazado_83753" data-name="Trazado 83753" d="M1224.518,2989.842s6.284-6.934,20.022,3.889c9.468,7.458,43.584,5.942,43.584,5.942a16.672,16.672,0,0,0,.651,4.266s-28.63,7.739-50.121,2.485c0,0-23.746,26.918-25.574,32.189,0,0-15.431,2.3-26.374-6.822,0,0,2.935-9.1,12.437-19.655A148.165,148.165,0,0,1,1224.518,2989.842Z" transform="translate(-1113.565 -2973.025)" fill="url(#linear-gradient-43)"/>
      <path id="Trazado_83754" data-name="Trazado 83754" d="M1516.317,3113.585a.237.237,0,0,1,.146-.449c.082.023,8.176,2.3,9.452,2.612a.237.237,0,0,1-.114.46c-1.284-.318-9.385-2.593-9.466-2.616Z" transform="translate(-1402.064 -3082.899)" fill="url(#linear-gradient-44)"/>
    </g>
  </g>
</svg>
