<svg xmlns="http://www.w3.org/2000/svg" width="419.37" height="421.99" viewBox="0 0 419.37 421.99">
  <g id="Grupo_38598" data-name="Grupo 38598" transform="translate(-1100.939 -111.365)">
    <path id="Trazado_82820" data-name="Trazado 82820" d="M1929.145,464.823H1769.539c-40.937,2.724-40.756,47.82-40.756,47.82h0V728.138h159.805V512.643S1889.345,467.4,1929.145,464.823Z" transform="translate(-480.12 -270.294)" fill="#e8913a"/>
    <g id="Grupo_38497" data-name="Grupo 38497" transform="translate(1237.507 245.074)">
      <rect id="Rectángulo_32613" data-name="Rectángulo 32613" width="1.882" height="165.858" fill="#ffc155"/>
    </g>
    <g id="Grupo_38498" data-name="Grupo 38498" transform="translate(1324.27 115.222)">
      <path id="Trazado_82821" data-name="Trazado 82821" d="M2147.645,181.8h-97.524V127.758h97.524ZM2052,179.917h93.759V129.64H2052Z" transform="translate(-2050.121 -127.758)" fill="#ffc155"/>
    </g>
    <g id="Grupo_38499" data-name="Grupo 38499" transform="translate(1141.866 157.622)">
      <path id="Trazado_82822" data-name="Trazado 82822" d="M1372.407,375.925h-97.523V307.961h97.523Zm-95.641-1.882h93.758v-64.2h-93.758Z" transform="translate(-1274.884 -307.961)" fill="#ffc155"/>
    </g>
    <g id="Grupo_38500" data-name="Grupo 38500" transform="translate(1418.095 279.645)">
      <path id="Trazado_82823" data-name="Trazado 82823" d="M2546.412,880.817h-97.522V826.574h97.522Zm-95.641-1.882h93.759V828.456h-93.759Z" transform="translate(-2448.889 -826.574)" fill="#ffc155"/>
    </g>
    <path id="Trazado_82824" data-name="Trazado 82824" d="M1902.024,452.388c-39.8,2.573-40.557,47.821-40.557,47.821V715.7H1701.662V500.209s-.181-45.1,40.756-47.821Z" transform="translate(-459.38 -260.784)" fill="#fff9f5"/>
    <rect id="Rectángulo_32614" data-name="Rectángulo 32614" width="109.765" height="9.685" transform="translate(1263.267 247.899)" fill="#ffdc94"/>
    <rect id="Rectángulo_32615" data-name="Rectángulo 32615" width="93.724" height="6.86" transform="translate(1263.267 270.296)" fill="#ffdc94"/>
    <rect id="Rectángulo_32616" data-name="Rectángulo 32616" width="47.114" height="10.19" transform="translate(1263.267 288.405)" fill="#ffdc94"/>
    <rect id="Rectángulo_32617" data-name="Rectángulo 32617" width="48.728" height="10.19" transform="translate(1324.303 288.405)" fill="#ffdc94"/>
    <rect id="Rectángulo_32618" data-name="Rectángulo 32618" width="75.06" height="7.264" transform="translate(1263.267 308.027)" fill="#ffdc94"/>
    <rect id="Rectángulo_32619" data-name="Rectángulo 32619" width="84.568" height="4.035" transform="translate(1263.267 326.187)" fill="#ffdc94"/>
    <rect id="Rectángulo_32620" data-name="Rectángulo 32620" width="101.694" height="4.036" transform="translate(1263.267 344.347)" fill="#ffdc94"/>
    <g id="Grupo_38501" data-name="Grupo 38501" transform="translate(1262.914 362.153)">
      <path id="Trazado_82825" data-name="Trazado 82825" d="M1837.17,1200.145h-47.82v-22.9h47.82Zm-47.114-.706h46.408V1177.95h-46.408Z" transform="translate(-1789.35 -1177.244)" fill="#ffdc94"/>
    </g>
    <rect id="Rectángulo_32621" data-name="Rectángulo 32621" width="42.776" height="5.246" transform="translate(1322.185 362.506)" fill="#ffdc94"/>
    <rect id="Rectángulo_32622" data-name="Rectángulo 32622" width="30.319" height="5.246" transform="translate(1322.185 373.604)" fill="#ffdc94"/>
    <rect id="Rectángulo_32623" data-name="Rectángulo 32623" width="91.454" height="4.035" transform="translate(1263.267 398.826)" fill="#ffdc94"/>
    <rect id="Rectángulo_32624" data-name="Rectángulo 32624" width="48.174" height="4.036" transform="translate(1263.267 416.985)" fill="#ffdc94"/>
    <g id="Grupo_38508" data-name="Grupo 38508" transform="translate(1429.463 291.078)">
      <g id="Grupo_38506" data-name="Grupo 38506" transform="translate(8.875 12.244)">
        <g id="Grupo_38505" data-name="Grupo 38505">
          <g id="Grupo_38504" data-name="Grupo 38504">
            <g id="Grupo_38503" data-name="Grupo 38503">
              <g id="Grupo_38502" data-name="Grupo 38502">
                <path id="Trazado_82826" data-name="Trazado 82826" d="M2539.83,936.966l-4.713-7.716a1.343,1.343,0,0,1,2.292-1.4l3.332,5.457,8.86-5.244a1.343,1.343,0,1,1,1.368,2.31Z" transform="translate(-2534.92 -927.207)" fill="#ffca55"/>
              </g>
            </g>
          </g>
        </g>
      </g>
      <g id="Grupo_38507" data-name="Grupo 38507" transform="translate(0 0)">
        <path id="Trazado_82827" data-name="Trazado 82827" d="M2514.15,909.065a16.949,16.949,0,1,1,16.949-16.949A16.968,16.968,0,0,1,2514.15,909.065Zm0-31.477a14.528,14.528,0,1,0,14.528,14.528A14.544,14.544,0,0,0,2514.15,877.588Z" transform="translate(-2497.201 -875.167)" fill="#ffca55"/>
      </g>
    </g>
    <path id="Trazado_82828" data-name="Trazado 82828" d="M2124.683,202.47l.331,7.123,2.828-.132-.556-11.95-12.2.568.132,2.828,7.377-.343-13,14.274-13.531-12.327-1.906,2.093,15.623,14.233Z" transform="translate(-759.52 -65.877)" fill="#ffca55"/>
    <g id="Grupo_38509" data-name="Grupo 38509" transform="translate(1155.179 170.014)">
      <path id="Trazado_82829" data-name="Trazado 82829" d="M1353.395,373.208a6.393,6.393,0,0,0-1.219-1,14.037,14.037,0,0,0-1.865-1.021,15.318,15.318,0,0,0-2.326-.838,13.425,13.425,0,0,0-2.6-.447l-.031,9.548.875.187a40.744,40.744,0,0,1,4.493,1.352,12.81,12.81,0,0,1,3.384,1.81,7.335,7.335,0,0,1,2.136,2.613,8.448,8.448,0,0,1,.749,3.762,9.157,9.157,0,0,1-.89,4.171,8.134,8.134,0,0,1-2.431,2.875,10.864,10.864,0,0,1-3.6,1.718,17.536,17.536,0,0,1-4.407.608l-.016,4.843-2.4-.008.016-4.935a23.229,23.229,0,0,1-6.315-1.335,19.888,19.888,0,0,1-5.479-3.039l2.367-4.42a8.16,8.16,0,0,0,1.472,1.2,16.842,16.842,0,0,0,2.256,1.253,20.865,20.865,0,0,0,2.833,1.07,18.123,18.123,0,0,0,3.2.656l.031-9.548q-.276-.093-.576-.163t-.576-.163a38.911,38.911,0,0,1-4.262-1.375,10.653,10.653,0,0,1-3.016-1.739,6.78,6.78,0,0,1-1.814-2.382,7.881,7.881,0,0,1-.612-3.3,9.723,9.723,0,0,1,.8-4.01,8.8,8.8,0,0,1,2.224-3.014,10.547,10.547,0,0,1,3.351-1.972,15.568,15.568,0,0,1,4.223-.885l.015-4.659,2.4.008-.016,4.659a17.759,17.759,0,0,1,5.531,1.217,20.038,20.038,0,0,1,4.466,2.459Zm-15.225,1.149a3.331,3.331,0,0,0,1.351,2.91,13.132,13.132,0,0,0,4.123,1.72l.03-9.087a6.687,6.687,0,0,0-4.156,1.3A4,4,0,0,0,1338.17,374.357Zm13.28,15.357a3.415,3.415,0,0,0-1.6-3.073,17.329,17.329,0,0,0-4.514-1.883l-.03,9.133a8.4,8.4,0,0,0,4.547-1.092A3.481,3.481,0,0,0,1351.449,389.714Z" transform="translate(-1331.463 -360.629)" fill="#ffca55"/>
    </g>
    <rect id="Rectángulo_32625" data-name="Rectángulo 32625" width="38.287" height="5.448" transform="translate(1191.738 176.978)" fill="#ded4ce"/>
    <rect id="Rectángulo_32626" data-name="Rectángulo 32626" width="30.092" height="5.448" transform="translate(1191.738 188.88)" fill="#ded4ce"/>
    <rect id="Rectángulo_32627" data-name="Rectángulo 32627" width="33.766" height="5.448" transform="translate(1191.738 200.782)" fill="#ded4ce"/>
    <rect id="Rectángulo_32628" data-name="Rectángulo 32628" width="27.357" height="5.448" transform="translate(1470.388 298.091)" fill="#ded4ce"/>
    <rect id="Rectángulo_32629" data-name="Rectángulo 32629" width="30.696" height="5.448" transform="translate(1470.388 309.993)" fill="#ded4ce"/>
    <rect id="Rectángulo_32630" data-name="Rectángulo 32630" width="34.806" height="5.448" transform="translate(1376.563 127.617)" fill="#ded4ce"/>
    <rect id="Rectángulo_32631" data-name="Rectángulo 32631" width="27.357" height="5.448" transform="translate(1376.563 139.519)" fill="#ded4ce"/>
    <rect id="Rectángulo_32632" data-name="Rectángulo 32632" width="30.696" height="5.448" transform="translate(1376.563 151.421)" fill="#ded4ce"/>
    <g id="Grupo_38510" data-name="Grupo 38510" transform="translate(1413.992 335.065)">
      <path id="Trazado_82830" data-name="Trazado 82830" d="M2461.042,1096.954h-29.593v-1.882h27.71v-32.957h1.882Z" transform="translate(-2431.449 -1062.115)" fill="#ded4ce"/>
    </g>
    <g id="Grupo_38511" data-name="Grupo 38511" transform="translate(1299.855 172.031)">
      <path id="Trazado_82831" data-name="Trazado 82831" d="M1948.238,385.544h-1.883v-9.612h64.164V369.2h1.882v8.611h-64.164Z" transform="translate(-1946.355 -369.203)" fill="#ded4ce"/>
    </g>
    <g id="Grupo_38512" data-name="Grupo 38512" transform="translate(1196.345 228.932)">
      <path id="Trazado_82832" data-name="Trazado 82832" d="M1540.1,683.661h-33.679V611.037h1.882v70.742h31.8Z" transform="translate(-1506.426 -611.037)" fill="#ded4ce"/>
    </g>
    <g id="Grupo_38513" data-name="Grupo 38513" transform="translate(1412.109 201.522)">
      <path id="Trazado_82833" data-name="Trazado 82833" d="M2425.368,565.081h-1.882V543.138c-.026-.363-2.366-42.47,33.166-48.6l.32,1.855c-33.882,5.842-31.632,46.273-31.605,46.68Z" transform="translate(-2423.446 -494.541)" fill="#ffc155"/>
    </g>
    <g id="Grupo_38514" data-name="Grupo 38514" transform="translate(1478.51 275.154)">
      <path id="Trazado_82834" data-name="Trazado 82834" d="M2747.457,846.563h-1.882V809.369h-39.918v-1.882h41.8Z" transform="translate(-2705.656 -807.486)" fill="#ffc155"/>
    </g>
    <g id="Grupo_38515" data-name="Grupo 38515" transform="translate(1136.67 195.376)">
      <path id="Trazado_82835" data-name="Trazado 82835" d="M1290.741,504.169H1252.8V468.422h1.882v33.865h36.058Z" transform="translate(-1252.801 -468.422)" fill="#ffc155"/>
    </g>
    <g id="Grupo_38516" data-name="Grupo 38516" transform="translate(1319.866 111.365)">
      <path id="Trazado_82836" data-name="Trazado 82836" d="M2033.283,139.519H2031.4V111.365h47.078v1.882h-45.2Z" transform="translate(-2031.401 -111.365)" fill="#ffc155"/>
    </g>
    <g id="Grupo_38517" data-name="Grupo 38517" transform="translate(1380.397 409.998)">
      <path id="Trazado_82837" data-name="Trazado 82837" d="M2323.2,1434.8h-34.537v-1.882h32.654v-52.327h1.882Z" transform="translate(-2288.666 -1380.588)" fill="#ffc155"/>
    </g>
    <g id="Grupo_38518" data-name="Grupo 38518" transform="translate(1358.404 397.536)">
      <path id="Trazado_82838" data-name="Trazado 82838" d="M2225.307,1357.739h-30.114v-30.114h30.114Zm-27.291-2.824h24.467v-24.467h-24.467Z" transform="translate(-2195.193 -1327.625)" fill="#ffdc94"/>
    </g>
    <g id="Grupo_38519" data-name="Grupo 38519" transform="translate(1363.347 399.025)">
      <path id="Trazado_82839" data-name="Trazado 82839" d="M2226.788,1353.826l-10.587-9.98,3.228-3.424,7.573,7.139,16.559-13.606,2.988,3.636Z" transform="translate(-2216.201 -1333.955)" fill="#ffdc94"/>
    </g>
    <path id="Trazado_82840" data-name="Trazado 82840" d="M1823.713,956.192a81.369,81.369,0,0,0-122.051-21.907v18.65a67.985,67.985,0,0,1,119.661,41.513c.03.842.048,1.677.048,2.518a67.975,67.975,0,0,1-119.709,44.14v18.668a80.4,80.4,0,0,0,15.878,10.23h71.725q2.515-1.235,4.97-2.664A81.31,81.31,0,0,0,1823.713,956.192Z" transform="translate(-459.38 -615.086)" fill="#3f444f" opacity="0.24" style="mix-blend-mode: hard-light;isolation: isolate"/>
    <g id="Grupo_38520" data-name="Grupo 38520" transform="translate(1100.939 300.615)">
      <rect id="Rectángulo_32633" data-name="Rectángulo 32633" width="131.41" height="22.341" transform="translate(115.252 148.61) rotate(140.192)" fill="#ff7e55"/>
      <rect id="Rectángulo_32634" data-name="Rectángulo 32634" width="7.019" height="16.957" transform="matrix(-0.768, 0.64, -0.64, -0.768, 118.92, 142.048)" fill="#e66947"/>
      <path id="Trazado_82841" data-name="Trazado 82841" d="M1497.494,1037.859a81.312,81.312,0,1,0,29.482-111.149A81.312,81.312,0,0,0,1497.494,1037.859Zm11.547-6.706a67.96,67.96,0,1,1,126.693-36.708h0a67.969,67.969,0,0,1-126.692,36.707Z" transform="translate(-1395.77 -915.7)" fill="#494f5c"/>
      <path id="Trazado_82842" data-name="Trazado 82842" d="M1556.746,1019.927s70.777-53.743,132.717,17.924h0a67.967,67.967,0,0,0-132.718-17.922Z" transform="translate(-1449.5 -959.104)" fill="#c2c2c2" opacity="0.3"/>
    </g>
    <g id="Grupo_38547" data-name="Grupo 38547" transform="translate(1256.754 359.543)">
      <path id="Trazado_82843" data-name="Trazado 82843" d="M1809.95,1167.249c-2.26.906-.97,5.564-1.194,14.055s-6.478,10.029-6.478,10.029,2.755-3.251,3.315-6.227-5.622-10.5-2.921-16.4c2.087-4.561,7.559-1.627,7.559-1.627Z" transform="translate(-1792.853 -1166.149)" fill="#754836"/>
      <path id="Trazado_82844" data-name="Trazado 82844" d="M1982.548,1352.5a4.612,4.612,0,0,0-1.767-.264c-.655.121,1.239-3.257,1.239-3.257Z" transform="translate(-1929.474 -1305.964)" fill="#eea886"/>
      <g id="Grupo_38521" data-name="Grupo 38521" transform="translate(52.113 40.915)">
        <path id="Trazado_82845" data-name="Trazado 82845" d="M1985.089,1342.145s1.752-1.54,2.027-1.766a5.619,5.619,0,0,1,2.411-.337,6.52,6.52,0,0,1,2.812.647,1,1,0,0,1,.293.784,1.926,1.926,0,0,1-.29.933,1.173,1.173,0,0,1-.1,1.127,1.022,1.022,0,0,1-.292,1.1.855.855,0,0,1-.2.922,7.764,7.764,0,0,0-1.349.242,16.276,16.276,0,0,1-4.436-.037S1983.743,1345.574,1985.089,1342.145Z" transform="translate(-1984.656 -1340.041)" fill="#eea886"/>
      </g>
      <g id="Grupo_38522" data-name="Grupo 38522" transform="translate(55.178 43.489)">
        <path id="Trazado_82846" data-name="Trazado 82846" d="M1998.434,1350.98a5.73,5.73,0,0,1-.726,1.323c-.279.241,1.774,1.6,1.774,1.6S1999.736,1351.558,1998.434,1350.98Z" transform="translate(-1997.682 -1350.98)" fill="#cf8c6c"/>
      </g>
      <g id="Grupo_38523" data-name="Grupo 38523" transform="translate(55.454 41.552)">
        <path id="Trazado_82847" data-name="Trazado 82847" d="M2002.9,1342.751s-2.9.1-2.946.573a.739.739,0,0,0,.229.667l-1.176.585s-.56.827.5,1.2c0,0-.6.718.467.952,0,0-.187.651.29.847a9.7,9.7,0,0,0,2.343.052s.38-.207.2-.922a1,1,0,0,0,.292-1.1,1.1,1.1,0,0,0,.1-1.127s.768-1.006,0-1.717C2003.2,1342.759,2003.021,1342.746,2002.9,1342.751Z" transform="translate(-1998.858 -1342.75)" fill="#db9c7c"/>
      </g>
      <g id="Grupo_38524" data-name="Grupo 38524" transform="translate(54.543 37.776)">
        <path id="Trazado_82848" data-name="Trazado 82848" d="M1996.982,1331.025a19.367,19.367,0,0,0,.329-3.882c-.033-.267-.024-.367-.285-.437s-.694.857-.982,1.673a8.414,8.414,0,0,1-1.058,1.823S1994.96,1331.043,1996.982,1331.025Z" transform="translate(-1994.986 -1326.703)" fill="#eea886"/>
      </g>
      <g id="Grupo_38525" data-name="Grupo 38525" transform="translate(7.524 129.547)">
        <path id="Trazado_82849" data-name="Trazado 82849" d="M1799.253,1716.836a56.35,56.35,0,0,0,4.226,5.552s2.185,1.135,2.253,2.041c.128,1.713.282,3.311-2.594,3.391s-4.736-.6-5.263-2.339a10.584,10.584,0,0,0-1.782-3.24v3.645h-.648s-.162-3.523-.2-4.171-.465-3.139.9-4.242A3.793,3.793,0,0,1,1799.253,1716.836Z" transform="translate(-1795.15 -1716.738)" fill="#162d40"/>
      </g>
      <g id="Grupo_38526" data-name="Grupo 38526" transform="translate(8.224 128.359)">
        <path id="Trazado_82850" data-name="Trazado 82850" d="M1806.169,1718.762a7.257,7.257,0,0,1-3.4-.027c-1.849-.466-3.625-4.892-4.165-5.261l-.479-1.786h3.6a6.4,6.4,0,0,0,.612,2.453A42.9,42.9,0,0,0,1806.169,1718.762Z" transform="translate(-1798.123 -1711.688)" fill="#eea886"/>
      </g>
      <g id="Grupo_38527" data-name="Grupo 38527" transform="translate(27.13 127.016)">
        <path id="Trazado_82851" data-name="Trazado 82851" d="M1883.31,1706.9a11.619,11.619,0,0,0,1.356,2.268c.651.849,2.673,4.333,3.564,4.576s3.645.729,3.888,2.267.365,2.632-2.349,2.754-4.5.284-5.791-1.62a14.108,14.108,0,0,0-3.361-3.28v4.966h-1.053a45.041,45.041,0,0,0-.77-5.533c-.284-.365-1.012-4.333,1.5-6.4S1883.31,1706.9,1883.31,1706.9Z" transform="translate(-1878.474 -1705.98)" fill="#162d40"/>
      </g>
      <g id="Grupo_38528" data-name="Grupo 38528" transform="translate(28.377 127.388)">
        <path id="Trazado_82852" data-name="Trazado 82852" d="M1892.284,1714.951s-2.43.607-3.362,0-4.1-5.96-5.147-6.28c0,0,1.017-2.062,3.588-.564C1887.363,1708.107,1891.6,1714.06,1892.284,1714.951Z" transform="translate(-1883.775 -1707.562)" fill="#eea886"/>
      </g>
      <g id="Grupo_38529" data-name="Grupo 38529" transform="translate(4.402 52.124)">
        <path id="Trazado_82853" data-name="Trazado 82853" d="M1787.727,1389.118a25.422,25.422,0,0,0-4.356,9.739c-.929,5.285.549,23.022.508,25.634s-2.42,10.943-1.934,15.864,3.146,25.254,3.146,25.254l5.936-.106s-1.19-22.161-.886-24.226,1.27-10.852,1.392-11.7,6.763-23.339,6.763-27.149S1795.988,1382.9,1787.727,1389.118Z" transform="translate(-1781.88 -1387.68)" fill="#1d3b54"/>
      </g>
      <g id="Grupo_38530" data-name="Grupo 38530" transform="translate(15.679 54.188)">
        <path id="Trazado_82854" data-name="Trazado 82854" d="M1841.59,1397.569s5.629,21.484,6.3,24.46,2,6.864,1.944,7.411-.708,9.719-.708,9.719l-1.6,31.223h-5.933s-1.9-19.864-2.207-23.873,2.187-10.205,1.579-11.906-9.78-21.321-9.78-21.321S1824.237,1391.332,1841.59,1397.569Z" transform="translate(-1829.81 -1396.453)" fill="#1d3b54"/>
      </g>
      <g id="Grupo_38531" data-name="Grupo 38531" transform="translate(23.564 23.095)">
        <path id="Trazado_82855" data-name="Trazado 82855" d="M1865.63,1264.307s3.48.411,4.949,2.425,1.954,5.091,2.279,6.109,4.833,10.62,5.13,10.86,4.412.078,6.885.148c3.475.1,7.615.013,7.615.013l-.506,4.973s-16.526.388-17.667-.909c-2.521-2.864-8.214-12.845-8.214-12.845S1860.165,1266.99,1865.63,1264.307Z" transform="translate(-1863.318 -1264.307)" fill="#285173"/>
      </g>
      <g id="Grupo_38532" data-name="Grupo 38532" transform="translate(6.646 21.417)">
        <path id="Trazado_82856" data-name="Trazado 82856" d="M1806.559,1257.327a30.462,30.462,0,0,0,3.928,1.579c1.012.2,4.94,5.3,5.629,7.168s0,4.657-1.417,7.937-.081,4.374-.729,7.654a76.327,76.327,0,0,0-1.093,12.048c.121,1.822-16.379,2.166-20.146-1.155,0,0,3.785-5.669,4.271-6.479s.081-5.224-.365-6.358-5.107-10.256-5.107-10.256-.729-7.926,1.462-9.627c1.9-1.478,7.091-2.005,8.022-2.329A15.911,15.911,0,0,1,1806.559,1257.327Z" transform="translate(-1791.415 -1257.175)" fill="#eddad3"/>
      </g>
      <g id="Grupo_38533" data-name="Grupo 38533" transform="translate(22.637 20.533)">
        <path id="Trazado_82857" data-name="Trazado 82857" d="M1859.463,1260.952l1.772-2.074-1.539-5.462A36.057,36.057,0,0,0,1859.463,1260.952Z" transform="translate(-1859.378 -1253.415)" fill="#d6c5be"/>
      </g>
      <g id="Grupo_38534" data-name="Grupo 38534" transform="translate(16.246 14.214)">
        <path id="Trazado_82858" data-name="Trazado 82858" d="M1839.154,1230.552a69.531,69.531,0,0,0-.46,7.09s-3.03,3.036-6.475-3.544a9.034,9.034,0,0,0,.358-6.408C1831.485,1224,1839.154,1230.552,1839.154,1230.552Z" transform="translate(-1832.218 -1226.561)" fill="#eea886"/>
      </g>
      <g id="Grupo_38535" data-name="Grupo 38535" transform="translate(19.235 25.295)">
        <path id="Trazado_82859" data-name="Trazado 82859" d="M1848.407,1273.657v2.774l-3.487-2.605Z" transform="translate(-1844.92 -1273.657)" fill="#eea886"/>
      </g>
      <g id="Grupo_38536" data-name="Grupo 38536" transform="translate(14.82 21.417)">
        <path id="Trazado_82860" data-name="Trazado 82860" d="M1834.057,1263.827l-1.448-1.792-4.876-4.86-1.578,1.519Z" transform="translate(-1826.155 -1257.175)" fill="#d6c5be"/>
      </g>
      <g id="Grupo_38537" data-name="Grupo 38537" transform="translate(4.675 21.883)">
        <path id="Trazado_82861" data-name="Trazado 82861" d="M1795.479,1297.849c-1.374,6.573-11.306-.741-11.306-.741s6.444-10.821,3.883-19.471l-.061-.2q-.246-.821-.49-1.562c-2.352-7.153-4.463-8.824-4.463-8.824s2.986-6.566,5.756-6.992,5.289-.9,5.289-.9,4.093,6.21,4.288,8.944S1796.853,1291.277,1795.479,1297.849Z" transform="translate(-1783.041 -1259.152)" fill="#285173"/>
      </g>
      <g id="Grupo_38538" data-name="Grupo 38538" transform="translate(23.954 22.528)">
        <path id="Trazado_82862" data-name="Trazado 82862" d="M1872.989,1270.45s-.66,6.2-1.915,9.279c0,0-.527,6.56-.446,8.868s.627,11.035.627,11.035l-2.844,1.666a.8.8,0,0,1-1.2-.789c.805-6.643,3.426-31.839-2.234-38.613l2.271.67S1871.922,1266.926,1872.989,1270.45Z" transform="translate(-1864.976 -1261.897)" fill="#285173"/>
      </g>
      <g id="Grupo_38539" data-name="Grupo 38539" transform="translate(22.955 20.533)">
        <path id="Trazado_82863" data-name="Trazado 82863" d="M1862.269,1258.877l2.232.617-3.771-6.079Z" transform="translate(-1860.73 -1253.415)" fill="#fae6de"/>
      </g>
      <g id="Grupo_38540" data-name="Grupo 38540" transform="translate(15.067 21.417)">
        <path id="Trazado_82864" data-name="Trazado 82864" d="M1833.412,1262.035l-2.039,2.673-4.168-6.947,1.331-.586Z" transform="translate(-1827.205 -1257.175)" fill="#fae6de"/>
      </g>
      <path id="Trazado_82865" data-name="Trazado 82865" d="M1892.274,1317.745s1.321-4.176.545-7.126a14.655,14.655,0,0,1-1.454,6.04Z" transform="translate(-1861.203 -1276.627)" fill="#1d3b54"/>
      <path id="Trazado_82866" data-name="Trazado 82866" d="M1830.692,1170.056a7.254,7.254,0,0,1,7.927,6.28,17.7,17.7,0,0,1-.413,2.754c-.314,1.218.929,4.707.656,4.895a7.789,7.789,0,0,1-1.422.466s-1.064,3.926-2.424,3.957a11.267,11.267,0,0,1-9.2-5.483C1823.173,1178.228,1822.076,1170.883,1830.692,1170.056Z" transform="translate(-1809.617 -1169.116)" fill="#eea886"/>
      <path id="Trazado_82867" data-name="Trazado 82867" d="M1836.936,1173.516a19.25,19.25,0,0,1-6.782,3.172c-3.423.641-5.28,6.607-5.28,6.607s-5.745-8.648-1.756-14.164C1827.094,1163.632,1837.373,1166.879,1836.936,1173.516Z" transform="translate(-1807.935 -1166.296)" fill="#754836"/>
      <path id="Trazado_82868" data-name="Trazado 82868" d="M1844.229,1206.437a1.062,1.062,0,0,0-1.89-.669c-1.05.963.57,4.065,1.451,3.712S1844.281,1207.125,1844.229,1206.437Z" transform="translate(-1823.45 -1196.135)" fill="#eea886"/>
      <path id="Trazado_82869" data-name="Trazado 82869" d="M1846.781,1239.308c-.078.415-.157.9-.222,1.416a14.888,14.888,0,0,1-4.377-3.724A16.941,16.941,0,0,0,1846.781,1239.308Z" transform="translate(-1823.591 -1220.329)" fill="#a77860"/>
      <path id="Trazado_82870" data-name="Trazado 82870" d="M1790,1340.946l-12.085,20.933-13.436-7.757,11.561-21.236Z" transform="translate(-1764.174 -1293.654)" fill="#e8734d"/>
      <g id="Grupo_38545" data-name="Grupo 38545" transform="translate(14.296 54.687)">
        <g id="Grupo_38544" data-name="Grupo 38544">
          <g id="Grupo_38543" data-name="Grupo 38543">
            <g id="Grupo_38542" data-name="Grupo 38542">
              <g id="Grupo_38541" data-name="Grupo 38541">
                <path id="Trazado_82871" data-name="Trazado 82871" d="M1829.471,1405.081a2.5,2.5,0,0,1-.791-.114s-.422-.245-.733-.4a2.323,2.323,0,0,0-.245-.11,4.568,4.568,0,0,1-1.347-.57,30.64,30.64,0,0,1-2.427-2.561l.894-1.359.656-1.392a30.9,30.9,0,0,1,4.511.544,1.628,1.628,0,0,1,.148.09,5.859,5.859,0,0,1,.841.86c.076.065.793.767.768,1.065a.979.979,0,0,1-.476.824,2.341,2.341,0,0,1-.5,1.185,1.456,1.456,0,0,1-.7,1.077S1829.912,1404.972,1829.471,1405.081Z" transform="translate(-1823.929 -1398.574)" fill="#eea886"/>
              </g>
            </g>
          </g>
        </g>
      </g>
      <g id="Grupo_38546" data-name="Grupo 38546" transform="translate(0 22.656)">
        <path id="Trazado_82872" data-name="Trazado 82872" d="M1775.156,1262.46a6.281,6.281,0,0,0-6.112,3.535,18.448,18.448,0,0,0-2.374,7.745c-.265,1.865-1.464,6.955-1.585,7.481s-2.835,6.8-1.59,8.987,13.954,8.686,13.873,9.171,2.2-4.9,2.2-4.9-5.14-2.865-5.982-3.747c-1.367-1.433-4.252-2.977-3.659-4.754.7-2.088,2.787-9.133,3.273-10.164S1778.25,1263.774,1775.156,1262.46Z" transform="translate(-1763.17 -1262.439)" fill="#285173"/>
      </g>
      <path id="Trazado_82873" data-name="Trazado 82873" d="M1804.514,1301.318a28.838,28.838,0,0,1-2.014,8.36q-.246-.821-.49-1.562C1803.06,1305.182,1804.514,1301.318,1804.514,1301.318Z" transform="translate(-1792.871 -1269.514)" fill="#1d3b54"/>
    </g>
    <g id="Grupo_38580" data-name="Grupo 38580" transform="translate(1255.416 239.498)">
      <g id="Grupo_38548" data-name="Grupo 38548" transform="translate(54.034 40.927)">
        <path id="Trazado_82874" data-name="Trazado 82874" d="M1988.5,833.2s1.59.615,2.346-.187a17.511,17.511,0,0,0,1.742-2.066c.146-.3,1.01-1.5,1.176-.877a7.834,7.834,0,0,1-1.254,3.717c-.439.336,1.912.891,2.255,1.341s-.869,4.409-2.435,3.836-2.711-2.192-2.979-2.324c-.453-.223-2.215-.96-2.215-.96Z" transform="translate(-1987.133 -829.89)" fill="#eea886"/>
      </g>
      <g id="Grupo_38549" data-name="Grupo 38549" transform="translate(59.304 45.938)">
        <path id="Trazado_82875" data-name="Trazado 82875" d="M2011.559,851.188s4.674,2.083,4.865,2.491.06.664-.385.488-4.575-1.877-4.575-1.877,5.1,3.427,5.334,3.725c.134.174-.092.684-.339.612s-5.5-3.167-5.5-3.167,4.76,3.208,4.878,3.518a.408.408,0,0,1-.587.475c-.37-.213-4.958-2.931-4.958-2.931s3.253,2.552,3.263,2.888c.009.292-.207.648-1.042-.041s-2.976-2.1-2.976-2.1Z" transform="translate(-2009.533 -851.188)" fill="#eea886"/>
      </g>
      <g id="Grupo_38550" data-name="Grupo 38550" transform="translate(21.932 16.144)">
        <path id="Trazado_82876" data-name="Trazado 82876" d="M1852.754,732.423c.4.532,3.884,5.149,6.443,8.31v.01c.361.451.712.863,1.024,1.234a17.586,17.586,0,0,0,1.395,1.546c1.555,1.415,3.231,3.773,5.48,5.48,1.676,1.274,16.53,7.066,16.73,7.066.12-.04,1.6-3.342,1.6-3.342s-12.937-7.246-14.261-7.8a9.544,9.544,0,0,1-3.553-2.88c-.722-.693-9.926-13.669-10.387-14.4,0,0-2.74-4.978-5.429-2.288S1852.182,731.66,1852.754,732.423Z" transform="translate(-1850.699 -724.56)" fill="#eddad3"/>
      </g>
      <path id="Trazado_82877" data-name="Trazado 82877" d="M1886.815,759v8.079c.361.452.712.863,1.024,1.234a6.8,6.8,0,0,0,.481-5.1C1887.447,760.457,1886.815,759,1886.815,759Z" transform="translate(-1856.385 -734.754)" fill="#c2b2ad"/>
      <g id="Grupo_38552" data-name="Grupo 38552" transform="translate(39.877 92.854)">
        <g id="Grupo_38551" data-name="Grupo 38551">
          <path id="Trazado_82878" data-name="Trazado 82878" d="M1931.741,1052.99s2.882,4.885,4.1,5.684c1.652,1.083.617,2.179-.168,2.18s-4.791.288-5.674-.714-1.321-4-2.142-4.789-1.669-3.906.4-4.665C1930.085,1050.013,1931.741,1052.99,1931.741,1052.99Z" transform="translate(-1926.966 -1050.585)" fill="#e55353"/>
        </g>
      </g>
      <g id="Grupo_38554" data-name="Grupo 38554" transform="translate(41.028 92.952)">
        <g id="Grupo_38553" data-name="Grupo 38553">
          <path id="Trazado_82879" data-name="Trazado 82879" d="M1934.233,1051.161s3.3,5.722,3.87,6.567-1.072.844-2.088.443-3.573-4.506-3.94-5.253A2.756,2.756,0,0,1,1932,1051Z" transform="translate(-1931.858 -1051.004)" fill="#eea886"/>
        </g>
      </g>
      <g id="Grupo_38556" data-name="Grupo 38556" transform="translate(40.059 96.188)">
        <g id="Grupo_38555" data-name="Grupo 38555">
          <path id="Trazado_82880" data-name="Trazado 82880" d="M1927.739,1064.754l.762,5.866.4.018-.125-4.22Z" transform="translate(-1927.739 -1064.754)" fill="#e55353"/>
        </g>
      </g>
      <g id="Grupo_38558" data-name="Grupo 38558" transform="translate(11.284 92.872)">
        <g id="Grupo_38557" data-name="Grupo 38557">
          <path id="Trazado_82881" data-name="Trazado 82881" d="M1810.227,1053.048s2.882,4.886,4.1,5.684c1.652,1.083.617,2.179-.168,2.18s-4.791.287-5.674-.714-1.321-4-2.142-4.789-1.7-3.987.4-4.665C1808.582,1050.148,1810.227,1053.048,1810.227,1053.048Z" transform="translate(-1805.442 -1050.662)" fill="#e55353"/>
        </g>
      </g>
      <g id="Grupo_38560" data-name="Grupo 38560" transform="translate(12.446 92.952)">
        <g id="Grupo_38559" data-name="Grupo 38559">
          <path id="Trazado_82882" data-name="Trazado 82882" d="M1812.929,1051.172s3.128,5.71,3.7,6.555-1.071.844-2.087.443-3.573-4.506-3.94-5.253a2.755,2.755,0,0,1-.078-1.914Z" transform="translate(-1810.381 -1051.004)" fill="#eea886"/>
        </g>
      </g>
      <g id="Grupo_38562" data-name="Grupo 38562" transform="translate(11.477 96.188)">
        <g id="Grupo_38561" data-name="Grupo 38561">
          <path id="Trazado_82883" data-name="Trazado 82883" d="M1806.262,1064.754l.762,5.866.4.018-.125-4.22Z" transform="translate(-1806.262 -1064.754)" fill="#e55353"/>
        </g>
      </g>
      <g id="Grupo_38564" data-name="Grupo 38564" transform="translate(3.281 46.722)">
        <g id="Grupo_38563" data-name="Grupo 38563">
          <path id="Trazado_82884" data-name="Trazado 82884" d="M1771.43,858.59l26.082,11.884a5.015,5.015,0,0,1,3.238,4.179c1.018,10.09,8.566,26.1,8.566,26.1,2.422,1.184,2.236.156,2.236.156-1.526-4.9-3.384-25.089-4.047-33.207-.14-1.719-.227-2.9-.246-3.273-.013-.256-.293-.592-.776-.983-3.578-2.9-18.305-8.911-18.305-8.911C1777.12,854.253,1771.43,858.59,1771.43,858.59Z" transform="translate(-1771.43 -854.521)" fill="#eea886"/>
        </g>
      </g>
      <g id="Grupo_38566" data-name="Grupo 38566" transform="translate(0.862 45.824)">
        <g id="Grupo_38565" data-name="Grupo 38565">
          <path id="Trazado_82885" data-name="Trazado 82885" d="M1761.237,859.752c.807,7.05,8.285,7.265,8.285,7.265h12.2a76.1,76.1,0,0,0-4.441,13.142c-1.313,6.382-4.407,17.673-4.407,17.673s.2.384,2.409.169c0,0,9.574-19.083,13.239-23.88a32.379,32.379,0,0,0,3.438-9.978c.131-1.125.05-1.994-.37-2.346a30.487,30.487,0,0,0-2.693-1.84c-3.82-2.409-10.455-6.118-14.152-6.949-4.951-1.113-9.379-2.3-9.379-2.3S1760.43,852.7,1761.237,859.752Z" transform="translate(-1761.148 -850.704)" fill="#eea886"/>
        </g>
      </g>
      <g id="Grupo_38567" data-name="Grupo 38567" transform="translate(0 45.353)">
        <path id="Trazado_82886" data-name="Trazado 82886" d="M1777.644,865.487H1766.72s-8.321.554-9.128-6.5,3.173-10.289,3.173-10.289,3.71.992,8.351,2.114a35.966,35.966,0,0,1,8.4-.732s13.863,2.792,18.992,9.629C1796.5,859.713,1788.365,855.608,1777.644,865.487Z" transform="translate(-1757.484 -848.702)" fill="#e55353"/>
      </g>
      <g id="Grupo_38568" data-name="Grupo 38568" transform="translate(26.979 3.512)">
        <path id="Trazado_82887" data-name="Trazado 82887" d="M1872.273,679.918c.075.789.177,1.577.279,2.337.032.236.075.469.129.7a7.353,7.353,0,0,0,1.955,3.548h0a4.573,4.573,0,0,0,5.043,1.146c3.479-1.391,4.145-13.449,4.145-13.449-1.664-4.433-7.81-3.8-10.016-1.794C1872.07,673.987,1871.99,676.96,1872.273,679.918Z" transform="translate(-1872.149 -670.871)" fill="#eea886"/>
      </g>
      <g id="Grupo_38569" data-name="Grupo 38569" transform="translate(3.278 15.547)">
        <path id="Trazado_82888" data-name="Trazado 82888" d="M1796.857,726.124a23.4,23.4,0,0,1,2.186,7.192c.174,1.975,1.328,4.28-.344,6.247s-3.812,1.722-4.23,2.656a10.949,10.949,0,0,1-2.164,3.025c-.64.516-1.4,5.27-1.623,5.768s1.2,3.1-9.26,3.21-10-2.394-10-2.394a51.3,51.3,0,0,0,6.046-8.8c1-1.772,3.417-13.713,4.634-15.373S1789.977,716.834,1796.857,726.124Z" transform="translate(-1771.417 -722.023)" fill="#eddad3"/>
      </g>
      <g id="Grupo_38570" data-name="Grupo 38570" transform="translate(22.573 15.365)">
        <path id="Trazado_82889" data-name="Trazado 82889" d="M1853.421,721.858s2.253,9.7,4.762,10.465c2.581.783.305-8.75.305-8.75S1855.905,719.812,1853.421,721.858Z" transform="translate(-1853.421 -721.249)" fill="#eea886"/>
      </g>
      <g id="Grupo_38571" data-name="Grupo 38571" transform="translate(34.707 1.289)">
        <path id="Trazado_82890" data-name="Trazado 82890" d="M1906.236,668.111s1.842,3.866,1.856,5.495a11.827,11.827,0,0,0,1.327-4.469c.026-2.034.5-5.389-2.844-7.4S1906.236,668.111,1906.236,668.111Z" transform="translate(-1904.993 -661.423)" fill="#754836"/>
      </g>
      <g id="Grupo_38574" data-name="Grupo 38574" transform="translate(33.537 49.887)">
        <g id="Grupo_38572" data-name="Grupo 38572">
          <path id="Trazado_82891" data-name="Trazado 82891" d="M1902.089,868.225s1.532.857,2.623,1.384a8.506,8.506,0,0,1,2.941,2.787c.283.776.412,4.835.619,5.227s-.438.483-.853-.1a1.321,1.321,0,0,1-2.03-.392c-.935-1.329-1.128-3-1.65-3.629s-3.719-4.107-3.719-4.107S1901.324,867.245,1902.089,868.225Z" transform="translate(-1900.02 -867.969)" fill="#eea886"/>
        </g>
        <g id="Grupo_38573" data-name="Grupo 38573" transform="translate(6.61 3.977)">
          <path id="Trazado_82892" data-name="Trazado 82892" d="M1928.878,884.875s.74,1.053.9,1.4.835,1.681,1,2-.631.3-2.068-1.615S1928.878,884.875,1928.878,884.875Z" transform="translate(-1928.113 -884.873)" fill="#eea886"/>
        </g>
      </g>
      <g id="Grupo_38575" data-name="Grupo 38575" transform="translate(30.071 47.989)">
        <path id="Trazado_82893" data-name="Trazado 82893" d="M1891.761,861.951l-1.644,3-4.83-1.9,2.165-3.138Z" transform="translate(-1885.287 -859.904)" fill="#f5e1da"/>
      </g>
      <g id="Grupo_38576" data-name="Grupo 38576" transform="translate(13.961 20.357)">
        <path id="Trazado_82894" data-name="Trazado 82894" d="M1822.831,747.165s.554-5.276-2.951-4.649-3.058,5.055-3.023,5.94.44,11.326.883,13.245,1.032,5.682,2.693,6.751,17.315,6.469,17.425,6.506a29.951,29.951,0,0,0,1.545-2.814s-10.67-5.093-11.924-5.573-4.169-1.881-4.354-2.8S1822.8,747.977,1822.831,747.165Z" transform="translate(-1816.82 -742.465)" fill="#f5e1da"/>
      </g>
      <g id="Grupo_38577" data-name="Grupo 38577" transform="translate(25.046 11.001)">
        <path id="Trazado_82895" data-name="Trazado 82895" d="M1863.962,710.266c.368,2.422,3.149,3.4,3.174,2.223a2.657,2.657,0,0,1,.447-.756h0c.076-.1.141-.195.177-.248a3.259,3.259,0,0,1,.595-.639,11.773,11.773,0,0,1,2.223-1.392l-3.664-6.751s-.409.632-.923,1.557C1865.038,705.973,1863.722,708.691,1863.962,710.266Z" transform="translate(-1863.933 -702.702)" fill="#eea886"/>
      </g>
      <g id="Grupo_38578" data-name="Grupo 38578" transform="translate(12.426)">
        <path id="Trazado_82896" data-name="Trazado 82896" d="M1834.373,664.275s-1.256,3.247-4.005,2.931-4.591.663-4.746,1.826-1.537,7.475-3.963,7.637-4.713-3.222-5.957-2.31-2.12,5.162-4.038,4.337-2.126-4.591,1.392-6.756,6.19-2.562,6.976-4.818,2.665-8.371,5.1-9.888c1.808-1.125,4.01-2.093,7.979-.281a5.743,5.743,0,0,1,3.413,5.834Z" transform="translate(-1810.296 -655.945)" fill="#754836"/>
      </g>
      <g id="Grupo_38579" data-name="Grupo 38579" transform="translate(27.479 15.596)">
        <path id="Trazado_82897" data-name="Trazado 82897" d="M1875.491,726.664c.076-.1.141-.195.177-.248a3.27,3.27,0,0,1,.6-.639,8.166,8.166,0,0,1-1.955-3.548S1873.966,723.836,1875.491,726.664Z" transform="translate(-1874.275 -722.229)" fill="#a77860"/>
      </g>
    </g>
    <g id="Grupo_38597" data-name="Grupo 38597" transform="translate(1380.296 356.05)">
      <g id="Grupo_38581" data-name="Grupo 38581" transform="translate(55.242 134.95)">
        <path id="Trazado_82898" data-name="Trazado 82898" d="M2523.022,1725.239s.422,2.954.474,3.4,4.69-.261,4.69-.261l.376-3.517S2523.6,1724.822,2523.022,1725.239Z" transform="translate(-2523.022 -1724.858)" fill="#5c544d"/>
      </g>
      <g id="Grupo_38582" data-name="Grupo 38582" transform="translate(47.62 138.154)">
        <path id="Trazado_82899" data-name="Trazado 82899" d="M2498.674,1738.674a12.558,12.558,0,0,1-2.89,2.556c-1.421.776-3.654,1.083-4.494,1.886-.607.58-2.209,3.076,3.693,3.025s8.747.353,9.379-.6-.915-7.063-.915-7.063A12.381,12.381,0,0,1,2498.674,1738.674Z" transform="translate(-2490.627 -1738.474)" fill="#3c4145"/>
      </g>
      <g id="Grupo_38583" data-name="Grupo 38583" transform="translate(22.017 134.95)">
        <path id="Trazado_82900" data-name="Trazado 82900" d="M2381.813,1725.239s.421,2.954.474,3.4,4.69-.261,4.69-.261l.376-3.517S2382.392,1724.822,2381.813,1725.239Z" transform="translate(-2381.813 -1724.858)" fill="#5c544d"/>
      </g>
      <g id="Grupo_38584" data-name="Grupo 38584" transform="translate(11.669 138.154)">
        <path id="Trazado_82901" data-name="Trazado 82901" d="M2348.6,1738.674a12.558,12.558,0,0,1-2.89,2.556c-1.421.776-6.65,1.413-7.49,2.216-.606.58-1.615,2.914,6.689,2.7,5.9-.155,8.747.353,9.38-.6s-.915-7.063-.915-7.063S2352.061,1739.016,2348.6,1738.674Z" transform="translate(-2337.832 -1738.474)" fill="#3c4145"/>
      </g>
      <g id="Grupo_38585" data-name="Grupo 38585" transform="translate(40.763 59.063)">
        <path id="Trazado_82902" data-name="Trazado 82902" d="M2474.318,1402.329s2.468,7.331,2.143,13.648,1.276,13.231,1.93,19.83c.73,7.358,3.716,24.775,3.824,28.71s-.464,16.5-.464,16.5l-5.977.138s-5.02-30.449-6.32-33.557-7.748-25.257-7.965-27.743S2474.318,1402.329,2474.318,1402.329Z" transform="translate(-2461.487 -1402.329)" fill="#33373b"/>
      </g>
      <g id="Grupo_38586" data-name="Grupo 38586" transform="translate(21.209 58.217)">
        <path id="Trazado_82903" data-name="Trazado 82903" d="M2385.635,1400.883s-3.283,17.315-3.717,21.181-.722,18.712-.939,21.128-1.445,31.623-2.6,35.214h7.642s5.866-21.232,5.866-31.278,4.532-21.839,7.457-28.467,9.622-6.785,11.42-19.083C2410.765,1399.578,2388.07,1396.983,2385.635,1400.883Z" transform="translate(-2378.379 -1398.732)" fill="#3c4145"/>
      </g>
      <g id="Grupo_38587" data-name="Grupo 38587" transform="translate(33.267 0.641)">
        <path id="Trazado_82904" data-name="Trazado 82904" d="M2440.358,1154.578s-6.024-2.25-8.8,2.335-2.51,13.766.527,14.894,7.6.539,9.152-2.331,2.958-7.018,2.89-9.789S2441.939,1155.379,2440.358,1154.578Z" transform="translate(-2429.629 -1154.026)" fill="#eea886"/>
      </g>
      <g id="Grupo_38588" data-name="Grupo 38588" transform="translate(36.559 12.59)">
        <path id="Trazado_82905" data-name="Trazado 82905" d="M2443.791,1210.363a5.056,5.056,0,0,1-.159,2.357c-.4.778,7.577.8,7.577.8a52.582,52.582,0,0,1,1.876-7.805C2454.313,1202.137,2443.791,1210.363,2443.791,1210.363Z" transform="translate(-2443.618 -1204.812)" fill="#eea886"/>
      </g>
      <g id="Grupo_38589" data-name="Grupo 38589" transform="translate(33.966)">
        <path id="Trazado_82906" data-name="Trazado 82906" d="M2444.659,1164.793s-.551.909-2.8.556-4.99-3.343-5.929-3.672-.948-.88-.948-.88l-.588.859-1,.063s.909-2.675-.463-3.767,1.424-8.659,8.633-6.139c0,0,5.537,1.526,5.335,4.675S2445.9,1163.225,2444.659,1164.793Z" transform="translate(-2432.6 -1151.303)" fill="#fccca2"/>
      </g>
      <g id="Grupo_38590" data-name="Grupo 38590" transform="translate(36.1 18.218)">
        <path id="Trazado_82907" data-name="Trazado 82907" d="M2441.667,1230.916s.025-1.486.7-1.629,7.435-.793,8.262-.468v1.731S2449.035,1231.532,2441.667,1230.916Z" transform="translate(-2441.667 -1228.73)" fill="#e2d2ca"/>
      </g>
      <g id="Grupo_38591" data-name="Grupo 38591" transform="translate(36.323 7.202)">
        <path id="Trazado_82908" data-name="Trazado 82908" d="M2442.792,1183.059c.126-.528,1.469-2.038,1.984-.421s-.777,3.79-1.5,3.6S2442.473,1184.4,2442.792,1183.059Z" transform="translate(-2442.615 -1181.912)" fill="#eea886"/>
      </g>
      <g id="Grupo_38592" data-name="Grupo 38592" transform="translate(11.019 20.039)">
        <path id="Trazado_82909" data-name="Trazado 82909" d="M2360.151,1236.836s-3.707,1.333-8,3.157a9.014,9.014,0,0,0-5.474,7.3c-.284,2.895-3.367,18.261-3.945,19.561s-7.414,22.187-7.655,22.621,5.579,2.849,5.964,2.657,6.619-19.051,7.245-20.447c0,0,3.588-11.307,3.685-12.993,0,0,.1,4.8.3,6.153s-3.191,27.531-3.094,28.253,15.377,1.64,21.494.966a74.86,74.86,0,0,0,11.051-2.081s-4.812-20.663-4.665-22.954c.322-4.991,1.99-14.393,1.99-14.393l4.987,9.4-6.383,16.422,1.461,4.991s11.862-17.925,12.247-19.562-.581-3.723-1.207-5.072-4.738-11.611-5.7-13.056-2.591-7.23-6.525-8.84a61.477,61.477,0,0,0-8.809-2.449Z" transform="translate(-2335.07 -1236.471)" fill="#495054"/>
      </g>
      <g id="Grupo_38593" data-name="Grupo 38593" transform="translate(0 55.848)">
        <rect id="Rectángulo_32635" data-name="Rectángulo 32635" width="28.848" height="20.125" transform="translate(4.999 0) rotate(14.382)" fill="#d6d6d6"/>
      </g>
      <g id="Grupo_38594" data-name="Grupo 38594" transform="translate(7.451 77.305)">
        <path id="Trazado_82910" data-name="Trazado 82910" d="M2321.047,1479.858s-.8,1.291-1.09,1.659.717.6,1.149.226S2321.047,1479.858,2321.047,1479.858Z" transform="translate(-2319.905 -1479.858)" fill="#c98462"/>
      </g>
      <g id="Grupo_38595" data-name="Grupo 38595" transform="translate(8.529 72.608)">
        <path id="Trazado_82911" data-name="Trazado 82911" d="M2330.371,1469a3.091,3.091,0,0,0,.573-.807s.141-.589.266-1a2.986,2.986,0,0,1,.11-.314,5.678,5.678,0,0,0,.639-1.7c.123-.8.471-4.372.471-4.372l-2.164-.545-1.739-.367s-3.757,3.747-3.957,4.476a1.9,1.9,0,0,0-.046.21,7.223,7.223,0,0,0,.054,1.49c-.006.125.012,1.368.3,1.6a1.214,1.214,0,0,0,1.147.276,2.9,2.9,0,0,0,1.494.562,1.8,1.8,0,0,0,1.566.291S2329.9,1469.305,2330.371,1469Z" transform="translate(-2324.489 -1459.897)" fill="#de9d7d"/>
      </g>
      <g id="Grupo_38596" data-name="Grupo 38596" transform="translate(11.026 56.833)">
        <path id="Trazado_82912" data-name="Trazado 82912" d="M2346.936,1395.118s-4.96,15.02-5.871,16.6a16.358,16.358,0,0,1-5.964-2.657l5.445-16.209Z" transform="translate(-2335.101 -1392.848)" fill="#495054"/>
      </g>
    </g>
  </g>
</svg>
