<svg xmlns="http://www.w3.org/2000/svg" width="419.514" height="439.736" viewBox="0 0 419.514 439.736">
  <g id="Grupo_38211" data-name="Grupo 38211" transform="translate(-296.273 -265.894)">
    <path id="Trazado_82371" data-name="Trazado 82371" d="M1145.724,715.689V1019.92a5.343,5.343,0,0,1-5.343,5.343H905.928a5.346,5.346,0,0,1-5.346-5.343V715.689a5.344,5.344,0,0,1,5.346-5.343h234.453A5.341,5.341,0,0,1,1145.724,715.689Z" transform="translate(-495.945 -319.873)" fill="#f78248"/>
    <path id="Trazado_82372" data-name="Trazado 82372" d="M925.866,710.346v314.917H905.928a5.346,5.346,0,0,1-5.346-5.343V715.689a5.344,5.344,0,0,1,5.346-5.343Z" transform="translate(-495.945 -319.873)" fill="#ea642f"/>
    <path id="Trazado_82376" data-name="Trazado 82376" d="M1007.144,688.95s-6.277-.134-6.49,6h13.192s1.383-4.575,5.426-3v-3Z" transform="translate(-567.967 -304.474)" fill="#7999e2"/>
    <path id="Trazado_82377" data-name="Trazado 82377" d="M1023.806,688.951s11.171,1.064,11.6,10.639,0,28.724,0,28.724l8.511-3.192,6.809,3.192v-29.15s-.638-8.724-9.787-10.213Z" transform="translate(-584.629 -304.475)" fill="#aec3ff"/>
    <g id="Grupo_38190" data-name="Grupo 38190" transform="translate(502.497 265.894)">
      <path id="Trazado_82378" data-name="Trazado 82378" d="M1538.745,679.92h-23.5a31.248,31.248,0,0,1-7.609-7.9q-.842-1.226-1.65-2.649C1502.97,664.035,1530.862,676.358,1538.745,679.92Z" transform="translate(-1433.989 -555.326)" fill="#233862"/>
      <g id="Grupo_38187" data-name="Grupo 38187" transform="translate(0 0)">
        <path id="Trazado_82379" data-name="Trazado 82379" d="M1519.929,844.817a2.251,2.251,0,0,1,.384,2.412.019.019,0,0,1-.006.012c-.593,1.6-2.525,3.381-4.767,5.156-.287.228-.542.435-.764.628-.058.05-.117.1-.172.152s-.089.08-.132.117c-2.093,1.9-1.313,2.347-5.077,6.21-4.291,4.4-7.225,4.461-8.056,4.052-.7-.349.747-2.69,2.355-5.321.078-.127.154-.255.234-.383.214-.35.427-.7.64-1.057,1.885-3.167,1.417-4.662,1.009-9.4-.332-3.848-5.831-21.526-5.831-21.526l8.173-1.349s2.359,14.062,5.053,16.245c1.44,1.163,3.061,1.189,4.447,2.053q.147.09.288.185A10.725,10.725,0,0,1,1519.929,844.817Z" transform="translate(-1429.662 -667.94)" fill="#ffb27d"/>
        <path id="Trazado_82380" data-name="Trazado 82380" d="M1523.553,891.8a2.251,2.251,0,0,1,.385,2.412.02.02,0,0,1-.006.012c-.723,1.6-2.607,3.37-4.775,5.14-.283.232-.534.445-.756.644-.058.05-.117.1-.172.152s-.089.08-.132.117c-2.093,1.9-1.313,2.347-5.077,6.21-4.291,4.4-7.225,4.461-8.056,4.052-.7-.349.747-2.69,2.355-5.321a18.154,18.154,0,0,0,7.633-5.542c2.588-3.255,4.328-7.448,6.092-9.872q.147.09.288.185A10.723,10.723,0,0,1,1523.553,891.8Z" transform="translate(-1433.285 -714.922)" fill="#233862"/>
        <path id="Trazado_82381" data-name="Trazado 82381" d="M1274.189,831.879c-.522,2.516-4.111,2.07-8.116,1.062s-3.061.163-8.767-.509-7.422-2.814-7.59-3.665c-.151-.755,2.673-1,5.7-1.328.381-.04.764-.085,1.146-.129,3.421-.4,5.939-2.592,9.056-4.381,2.952-1.695,7.39-8.653,7.39-8.653l7.828.676s-4.154,6.214-5.763,8.917a9.462,9.462,0,0,0-.806,5.332A10.051,10.051,0,0,1,1274.189,831.879Z" transform="translate(-1249.709 -660.565)" fill="#ffb27d"/>
        <path id="Trazado_82382" data-name="Trazado 82382" d="M1266.072,866.739c-4.006-1.009-3.061.163-8.767-.509s-7.422-2.814-7.59-3.665c-.151-.755,2.673-1,5.7-1.328l.028.058a16.1,16.1,0,0,0,8.161,2.6c3.874.122,7.986-.959,10.661-.9a10.051,10.051,0,0,1-.079,2.679C1273.667,868.194,1270.078,867.748,1266.072,866.739Z" transform="translate(-1249.709 -694.363)" fill="#233862"/>
        <path id="Trazado_82383" data-name="Trazado 82383" d="M1471.961,709.875s-.546.354-1.36.8a18.218,18.218,0,0,1-3.568,1.551,14.511,14.511,0,0,1-3.674.479c-.849.006-1.407-.051-1.407-.051l-9.38-25.795-1.695-4.663-1.8-4.963-.629-1.727-3.054-8.4s7.465-19.14,15.077-10.015a18.494,18.494,0,0,1,2.607,4.714c.556,1.353,1.082,2.879,1.587,4.532.376,1.241.74,2.553,1.091,3.919.948,3.715,1.787,7.819,2.521,11.94C1470.723,695.96,1471.961,709.875,1471.961,709.875Z" transform="translate(-1390.542 -545.667)" fill="#233862"/>
        <path id="Trazado_82384" data-name="Trazado 82384" d="M1429.325,610.9a4.077,4.077,0,0,1-2.17,2.269h-34.62c-8.33-1.724-16.293-5.534-21.071-7.9-.4-.2-.766-.383-1.114-.552a22.8,22.8,0,0,0-3.214-1.458c-2.895-.6-4.382,4.111-6.833,9.91-.5,1.181-1.037,2.4-1.637,3.638a18.645,18.645,0,0,1-2.317,3.338c-.2.242-.409.492-.629.747-8.416,9.83-30.084,28.137-30.084,28.137s-.255,0-.667-.01a21.907,21.907,0,0,1-5.694-.69,8.675,8.675,0,0,1-1.845-.957,4.177,4.177,0,0,1-.878-.788s25.929-50.7,39.353-64.506v0c.195-.2.386-.392.578-.574a10.919,10.919,0,0,1,3.849-2.719c4.574-1.44,34.163.166,34.163.166l.945-1.535,1.58-.112.271-.019,1.318-.1h0l1.819-.128,2.7-.191,7.312-.52,1.174-.083,13.52-.961s.616,1.392,1.449,3.7c.326.9.683,1.937,1.05,3.086C1430.052,589.637,1432.868,601.95,1429.325,610.9Z" transform="translate(-1297.816 -488.578)" fill="#2b478b"/>
        <path id="Trazado_82385" data-name="Trazado 82385" d="M1622.471,302.226c-6.756-5.767-11.576-7.194-12.246-16.325-.364-4.957-7.019-21.352-18.275-19.919a16.867,16.867,0,0,1-2.837.166,10.518,10.518,0,0,0-5.719,1.436c-5.419,3.172-15.4,32.51-8.672,42.819a7.469,7.469,0,0,0,5.365,3.45l.868.488h0c1.209.68,2.541,1.427,3.948,2.224,7.953,4.484,18.368,10.414,23.7,13.411h0l.91.514,1.552.862c.625.341.989.533,1.018.533a23.193,23.193,0,0,0,3.3.929c2.681.558,6.438.871,9.055-.839a14.388,14.388,0,0,0,2.866-2.483C1632.723,323.438,1634.149,312.191,1622.471,302.226Z" transform="translate(-1482.001 -265.894)" fill="#233862"/>
        <path id="Trazado_82386" data-name="Trazado 82386" d="M1628.148,377.043c-.047.03,5.188,1.858,8.708.329,3.311-1.435,5.85-6.849,5.8-6.852-1.5-.08-3.141-1.4-4.349-10.027l-.641.225-10.778,3.793s.754,3.455,1.235,6.743C1628.529,374.014,1628.738,376.658,1628.148,377.043Z" transform="translate(-1521.166 -333.977)" fill="#ffb27d"/>
        <path id="Trazado_82387" data-name="Trazado 82387" d="M1626.889,365.088s.459,2.421,1.1,5.882c6.183-1.068,8.788-6.342,9.681-9.674Z" transform="translate(-1521.166 -334.554)" fill="#ed975d"/>
        <path id="Trazado_82388" data-name="Trazado 82388" d="M1602.018,320.659s14.723-1.87,13.417-11.021-.285-15.555-9.741-14.748-10.78,4.559-11.087,7.72S1598.155,320.909,1602.018,320.659Z" transform="translate(-1497.921 -286.712)" fill="#ffb27d"/>
        <path id="Trazado_82389" data-name="Trazado 82389" d="M1596.691,295.5s9.359,8.181,15.759,8.88,8.84-1.34,8.84-1.34a25.011,25.011,0,0,1-5.99-8.236,4.5,4.5,0,0,0-3.694-2.681C1607.036,291.7,1598.368,291.454,1596.691,295.5Z" transform="translate(-1499.432 -284.609)" fill="#233862"/>
        <path id="Trazado_82390" data-name="Trazado 82390" d="M1598.1,297.719s-3.171,3.023-4.18,5.276c-.973,2.173-1.3,7.385-.549,9.462,0,0-4.841-9.578-2.029-14.195C1594.328,293.365,1598.1,297.719,1598.1,297.719Z" transform="translate(-1494.954 -287.515)" fill="#233862"/>
        <path id="Trazado_82391" data-name="Trazado 82391" d="M1586.645,423.461c.235,29.778-.044,23.554,3.193,26.4.78.686,2.984,1.107,5.886,1.319,9.126.671,25.186-.721,25.808-2.4,2.147-5.823.674-7.648,2.494-16.573.19-.949.424-1.977.7-3.1,1.508-6.129,2.949-8.207-2.179-18.107-4.65-8.967-9.5-16.253-9.938-15.994-12.487,7.294-13.446,1.083-13.446,1.083S1586.529,408.936,1586.645,423.461Z" transform="translate(-1492.202 -358.814)" fill="#aec3ff"/>
        <path id="Trazado_82392" data-name="Trazado 82392" d="M1490.4,739.947s-.546.354-1.36.8a18.218,18.218,0,0,1-3.568,1.551,14.51,14.51,0,0,1-3.674.479c-.849.006-1.407-.051-1.407-.051l-9.38-25.795,2.748-4.663,7.034-11.94,2.308-3.919c.376,1.241.74,2.553,1.092,3.919.948,3.715,1.787,7.819,2.521,11.94C1489.161,726.031,1490.4,739.947,1490.4,739.947Z" transform="translate(-1408.98 -575.739)" fill="#2b478b"/>
        <path id="Trazado_82393" data-name="Trazado 82393" d="M1567.2,398.883s-12.811,2.079-14.352,7.578-10.612,37.822-10.612,37.822,6.5,1.214,9.523-1.769,10.653-27.805,10.653-27.805Z" transform="translate(-1460.24 -361.606)" fill="#aec3ff"/>
        <path id="Trazado_82394" data-name="Trazado 82394" d="M1619.037,514.785c9.126.67,25.186-.721,25.808-2.4,2.147-5.823.674-7.648,2.494-16.573l-4.316-12.432s.631,13.814-3.467,17.417-16.722,6.893-18.723,9.914A11.106,11.106,0,0,0,1619.037,514.785Z" transform="translate(-1515.515 -422.417)" fill="#95b3ef"/>
        <path id="Trazado_82395" data-name="Trazado 82395" d="M1615.488,571.226s-8.993-2.069-10.452-1.28-5.031,3.675-5.484,4.685,3.241-.746,4.441-1.059c.777-.2,2.813.521,3.82.865,4.241,1.447,6.852.736,6.852.736Z" transform="translate(-1501.464 -484.591)" fill="#ffb27d"/>
        <path id="Trazado_82396" data-name="Trazado 82396" d="M1659.112,395s12.089.831,16.235,6.7c5.836,8.262,17.28,43.377,10.547,48-7.584,5.208-34.354,1.134-34.354,1.134s-.862-4.175.393-6.182,21.441-5.122,22.378-6.046-11.5-18.229-11.485-21.021S1659.112,395,1659.112,395Z" transform="translate(-1538.7 -358.814)" fill="#aec3ff"/>
        <path id="Trazado_82397" data-name="Trazado 82397" d="M1608.492,579.34a17.415,17.415,0,0,1-2.526,2.707,1.844,1.844,0,0,1-1.02.211l1.288-2.28Z" transform="translate(-1505.374 -491.481)" fill="#ffb27d"/>
        <path id="Trazado_82398" data-name="Trazado 82398" d="M1605.076,570.407l-5.506,2.626a.979.979,0,0,0,.907.358,13.077,13.077,0,0,0,2.384-.637Z" transform="translate(-1501.504 -485.052)" fill="#ffb27d"/>
      </g>
      <g id="Grupo_38189" data-name="Grupo 38189" transform="translate(45.533 60.27)">
        <g id="Grupo_38188" data-name="Grupo 38188">
          <path id="Trazado_82399" data-name="Trazado 82399" d="M1468.388,513.78l-43.405-.306-12.828-32.562,43.338.306Z" transform="translate(-1412.155 -480.912)" fill="#f99746"/>
          <path id="Trazado_82400" data-name="Trazado 82400" d="M1456.138,592.553l57.317.4-.009,1.265-56.808-.4Z" transform="translate(-1443.809 -561.26)" fill="#ed7d2b"/>
        </g>
        <path id="Trazado_82401" data-name="Trazado 82401" d="M1497.215,534.156a1.5,1.5,0,0,1,1.489-2.056,2.961,2.961,0,0,1,2.645,2.085,1.5,1.5,0,0,1-1.489,2.056A2.962,2.962,0,0,1,1497.215,534.156Z" transform="translate(-1473.315 -517.752)" fill="#fff"/>
      </g>
    </g>
    <g id="Grupo_38196" data-name="Grupo 38196" transform="translate(350.701 660.267)">
      <g id="Grupo_38195" data-name="Grupo 38195">
        <rect id="Rectángulo_32033" data-name="Rectángulo 32033" width="219.535" height="45.093" rx="22.546" transform="translate(219.535 45.123) rotate(180)" fill="#2b478b"/>
        <path id="Trazado_82402" data-name="Trazado 82402" d="M1141.112,1692.118l-.157,9.855a15.788,15.788,0,0,0,15.533,16.037l116.551,1.862.032-1.964a20.089,20.089,0,0,1-10.828-18.156l.055-3.466a20.089,20.089,0,0,1,11.4-17.8v-.04l-116.551-1.861A15.789,15.789,0,0,0,1141.112,1692.118Z" transform="translate(-1019.64 -1675.541)" fill="#ffeddc"/>
        <g id="Grupo_38191" data-name="Grupo 38191" transform="translate(119.539)">
          <path id="Trazado_82403" data-name="Trazado 82403" d="M1271.536,1717.988H1148.748c-7.92,0-14.123-9.911-14.123-22.562s6.2-22.561,14.123-22.561h122.788a1.846,1.846,0,1,1,0,3.692H1148.748c-5.654,0-10.431,8.641-10.431,18.869s4.777,18.869,10.431,18.869h122.788a1.846,1.846,0,1,1,0,3.693Z" transform="translate(-1134.625 -1672.865)" fill="#1b3770"/>
        </g>
        <g id="Grupo_38192" data-name="Grupo 38192" transform="translate(156.076 12.025)">
          <rect id="Rectángulo_32034" data-name="Rectángulo 32034" width="88.66" height="0.267" fill="#e8c2a3"/>
        </g>
        <g id="Grupo_38193" data-name="Grupo 38193" transform="translate(203.15 16.131)">
          <rect id="Rectángulo_32035" data-name="Rectángulo 32035" width="40.086" height="0.267" fill="#e8c2a3"/>
        </g>
        <g id="Grupo_38194" data-name="Grupo 38194" transform="translate(173.307 30.135)">
          <rect id="Rectángulo_32036" data-name="Rectángulo 32036" width="69.929" height="0.267" fill="#e8c2a3"/>
        </g>
      </g>
      <path id="Trazado_82404" data-name="Trazado 82404" d="M1318,1716.242s3.721,1.557,4.163,6.813a37.362,37.362,0,0,1,0,8.055l-4.491-2.137-4.534,2.137v-8.215s-.166-6.652-6.355-6.652Z" transform="translate(-1138.99 -1704.083)" fill="#f78248"/>
    </g>
    <g id="girl_2" data-name="girl 2" transform="translate(330.886 495.08)">
      <path id="Trazado_82405" data-name="Trazado 82405" d="M862.527,1084.063a15.434,15.434,0,0,1,16.157,5.435c7.021,8.448,17.31,19.862,14.639,23.092s-3.2,5.892.627,7.967,5.851,4.823.213,13.447c-3.68,5.629-4.464-1.863-15.639-1.493s-19.722-5.267-23.459-2.169C840.966,1142.033,843.018,1083.744,862.527,1084.063Z" transform="translate(-787.505 -1083.541)" fill="#233862"/>
      <path id="Trazado_82406" data-name="Trazado 82406" d="M719.511,1239.266s-25.679,12.144-30.62,11.928-36.816-10.606-36.816-10.606l.775,5.238s23.5,13.513,31.71,14.28c8.088.755,35.74-7.258,38.41-8.95S727.27,1240.978,719.511,1239.266Z" transform="translate(-647.98 -1195.616)" fill="#ed985f"/>
      <path id="Trazado_82407" data-name="Trazado 82407" d="M881.258,1208.425a26.183,26.183,0,0,0,9.151,3.895c14.106,3.259,19.511-8.663,21.541-16.846a12.124,12.124,0,0,0-4.779-1.468c-1.019-.12-2.092-.2-2.98-.244-1.584-1.213-3.944-6.178-4.466-13.887l-.664.178-11.117,3.043s.509,3.534.759,6.874c.193,2.614.223,5.111-.272,5.723-.867.188-1.388.311-1.388.311a.034.034,0,0,1-.006.011A71.548,71.548,0,0,0,881.258,1208.425Z" transform="translate(-812.923 -1152.872)" fill="#ffb27d"/>
      <path id="Trazado_82408" data-name="Trazado 82408" d="M905.114,1183.56s.511,3.531.759,6.874c6.3-.631,9.221-6.627,10.359-9.916Z" transform="translate(-830.092 -1153.335)" fill="#ed985f"/>
      <path id="Trazado_82409" data-name="Trazado 82409" d="M882.419,1137.3s14.949-.825,14.292-10.127.83-15.673-8.742-15.539-11.175,3.813-11.71,6.972S878.513,1137.275,882.419,1137.3Z" transform="translate(-809.277 -1103.759)" fill="#ffb27d"/>
      <path id="Trazado_82410" data-name="Trazado 82410" d="M870.953,1108.482c2.107-2.963,3.9-2.474,4.933-1.7a10.463,10.463,0,0,1,13.574,1.185,17.814,17.814,0,0,0,6.564,10.08s-2.6,1.876-8.991.713a10.692,10.692,0,0,1-5.334-3.142,34.929,34.929,0,0,0,6.52,6.892c-7.743-2.927-11.5-13.134-11.879-14.215a11.729,11.729,0,0,0-2.945,4.573c-.575,2.422-3.052,6.208-4.486,6.144C868.911,1119.008,867.792,1112.926,870.953,1108.482Z" transform="translate(-803.898 -1098.837)" fill="#233862"/>
      <path id="Trazado_82411" data-name="Trazado 82411" d="M856.657,1239.339c-.807,7.2.393,10.382,7.864,27.02,6.313,14.062-.852,26.724-.852,26.724s15.358,12.348,26.385,17.126c6.128,2.659,10.922,2.978,10.995-2.457.083-6.15-2.805-13.906-5.228-21.135-2.09-6.233-3.836-12.077-3.039-16.162,1.35-6.9,5.752-34.472,1.35-43.345-1.58-3.188-7.784-3.476-14.589-3.195-2.119,1.366-10.187,6.533-13.5,5.889-.035-.006-.1-.022-.185-.042-1.561-.392-1.561-1.324-.849-2.435a31.385,31.385,0,0,0-7.175,1.149,30.38,30.38,0,0,0-9.122,4.749A22.494,22.494,0,0,0,856.657,1239.339Z" transform="translate(-789.498 -1184.508)" fill="#ffeddc"/>
      <path id="Trazado_82412" data-name="Trazado 82412" d="M806.216,1376.9a6.911,6.911,0,0,1-4.972-3.026q-.269-.4-.575-.865c-4.231-6.405-5.878-26.021-15.395-46.919-2.318-5.088-10.64-6-12.908-11.754,0,0-5.585-18.641,10.689-19.191s43.584,51.868,44.015,57.365C827.489,1357.838,837.831,1380.471,806.216,1376.9Z" transform="translate(-733.888 -1235.831)" fill="#1b3770"/>
      <path id="Trazado_82413" data-name="Trazado 82413" d="M664.743,1554.449h23.163s.866-3.694-.655-6.209c-1.346-2.224-.83-3.491.167-5.332a9,9,0,0,1-3.9.735,8.159,8.159,0,0,1-3.445-1.212c-1,1.136-5.266,5.974-6.6,6.933C671.959,1550.453,665.209,1550.065,664.743,1554.449Z" transform="translate(-657.097 -1413.805)" fill="#233862"/>
      <path id="Trazado_82414" data-name="Trazado 82414" d="M729.2,1298.646c-1.395,10.457-6.841,43.46-16.449,59.562-3.1,5.191,7.8,8.1,7.863,8.086,1.462-.383,3.9-2.714,5.021-3.725,7.8-7.03,23.635-26.936,23.635-42.9,0-7.781.137-22.643-5.522-26.42C740.258,1290.926,729.749,1294.492,729.2,1298.646Z" transform="translate(-691.246 -1233.941)" fill="#1b3770"/>
      <path id="Trazado_82415" data-name="Trazado 82415" d="M823.2,1311.4c2.269,5.751,8.646,5.049,10.966,10.136.1.214.195.431.29.645,1.19,2.64,2.314,5.279,3.377,7.89,2.218,5.448,5.518,16.849,8,26.085,1.685,6.268,2.991,11.541,3.32,13.274a25.786,25.786,0,0,0,1.385,4.724c35.481,5.473,31.006-18.974,29.06-24.687-1.775-5.218-32.7-59.106-48.972-58.553S823.2,1311.4,823.2,1311.4Z" transform="translate(-769.407 -1232.781)" fill="#2b478b"/>
      <path id="Trazado_82416" data-name="Trazado 82416" d="M725.4,1554.449h23.163s.866-3.694-.654-6.209c-1.346-2.224-.83-3.491.167-5.332a9,9,0,0,1-3.9.735,8.164,8.164,0,0,1-3.445-1.212c-1,1.136-5.265,5.974-6.6,6.933C732.62,1550.453,725.87,1550.065,725.4,1554.449Z" transform="translate(-700.755 -1413.805)" fill="#1e3d7c"/>
      <path id="Trazado_82417" data-name="Trazado 82417" d="M869.524,1383.1c1.19,2.64,2.314,5.279,3.377,7.89,2.218,5.448,5.518,16.849,8,26.085.019.038.042.076.061.115,9.224-14.385-4.066-41.635-4.066-41.635A16.154,16.154,0,0,0,869.524,1383.1Z" transform="translate(-804.478 -1293.704)" fill="#1e3d7c"/>
      <path id="Trazado_82418" data-name="Trazado 82418" d="M786.374,1298.968c-1.395,10.457-3.359,44.2-12.967,60.3-3.1,5.191,7.8,8.1,7.863,8.086,1.462-.383,3.9-2.714,5.021-3.726,7.8-7.03,23.635-26.936,23.635-42.9,0-7.781-9.132-22.019-14.791-25.8A5.692,5.692,0,0,0,786.374,1298.968Z" transform="translate(-734.904 -1235.005)" fill="#2b478b"/>
      <g id="Grupo_38198" data-name="Grupo 38198" transform="translate(0 23.975)">
        <g id="Grupo_38197" data-name="Grupo 38197">
          <path id="Trazado_82419" data-name="Trazado 82419" d="M637.464,1177.739l4.8-8.664,3.769,10.517,22.554,20.554-22.063,4.5Z" transform="translate(-637.464 -1169.074)" fill="#ea642f"/>
          <path id="Trazado_82420" data-name="Trazado 82420" d="M664.192,1205.763l8.8,26.879-26.47-5.753-9.062-26.9Z" transform="translate(-637.464 -1191.321)" fill="#f78248"/>
          <path id="Trazado_82421" data-name="Trazado 82421" d="M663.176,1204.146l-24.625-5.529-1.087.384L663,1204.52Z" transform="translate(-637.464 -1190.336)" fill="#fcecdb"/>
          <path id="Trazado_82422" data-name="Trazado 82422" d="M728.731,1218.342l.295.476-.474-.1Z" transform="translate(-703.02 -1204.532)" fill="#eac5a4"/>
        </g>
        <path id="Trazado_82423" data-name="Trazado 82423" d="M637.464,1178.82l5.192-8.243,3.4,9.544-7.5-1.684Z" transform="translate(-637.464 -1170.156)" fill="#efdece"/>
      </g>
      <path id="Trazado_82424" data-name="Trazado 82424" d="M693.371,1227.114c.835-.16,2.626-.836,4.439-1.334a3.72,3.72,0,0,1-1.312-1.467c-.324-1.022-.539-1.351.539-1.027s4.851,2.054,4.851,2.054l-.01.005c2.144.626,4.119,3.656,4.119,3.656s26.539,9.329,29.732,9.489c4.939.248,37.815-11.859,37.815-11.859,7.759,1.712,6.018,11.245,3.348,12.938s-26.326,10.3-40.346,10.459c-7.1.082-32.932-16.52-32.932-16.52s-3.019-1.38-5.392-.948-7.872,0-9.058-1.941S691.969,1227.384,693.371,1227.114Z" transform="translate(-674.517 -1184.03)" fill="#ffb27d"/>
      <path id="Trazado_82425" data-name="Trazado 82425" d="M930.328,1239.539s2.94,9.308,13.039,11.426c0,0,16.676-5.137,8.373-16.5C951.74,1234.467,943.53,1228.367,930.328,1239.539Z" transform="translate(-848.239 -1190.966)" fill="#ffeddc"/>
      <path id="Trazado_82426" data-name="Trazado 82426" d="M643.247,1227.636l0,0a2.548,2.548,0,0,1,.088-.757s2.379-3.762,3.158-3.916c2.373-.469,2.373,2.656,1.87,4.671-.35,1.4-.862,3.435-1.584,4.163l1.008,2.994C642.958,1232.821,643.247,1227.636,643.247,1227.636Z" transform="translate(-641.623 -1183.85)" fill="#ffb27d"/>
      <path id="Trazado_82427" data-name="Trazado 82427" d="M978.583,1462.452c6.128,2.659,10.922,2.978,10.995-2.457.083-6.15-2.805-13.906-5.228-21.135,0,0-3.335,2.3-10.516-2.965C968.169,1431.742,975.312,1453.2,978.583,1462.452Z" transform="translate(-878.027 -1336.751)" fill="#2b478b"/>
    </g>
    <g id="Grupo_38200" data-name="Grupo 38200" transform="translate(296.273 676.228)">
      <path id="Trazado_82428" data-name="Trazado 82428" d="M513.979,1762.1a11.2,11.2,0,0,0,.089,1.436,11.775,11.775,0,0,0,11.694,10.347H691.49a11.785,11.785,0,0,0,0-23.57H525.763A11.785,11.785,0,0,0,513.979,1762.1Z" transform="translate(-513.979 -1744.568)" fill="#f78248"/>
      <path id="Trazado_82429" data-name="Trazado 82429" d="M554.433,1733.424h56.822a1.814,1.814,0,0,0,1.809-1.808h0a1.814,1.814,0,0,0-1.809-1.809H554.433a1.814,1.814,0,0,0-1.809,1.809h0A1.814,1.814,0,0,0,554.433,1733.424Z" transform="translate(-541.792 -1729.807)" fill="#f78248"/>
      <rect id="Rectángulo_32037" data-name="Rectángulo 32037" width="6.159" height="2.133" transform="translate(21.938 5.75) rotate(180)" fill="#ea642f"/>
      <path id="Trazado_82430" data-name="Trazado 82430" d="M519.08,1812.477a11.8,11.8,0,0,0,10.354,6.147h35.1v-6.147Z" transform="translate(-517.65 -1789.305)" fill="#ea642f"/>
      <path id="Trazado_82431" data-name="Trazado 82431" d="M781.546,1758.651v6.9a8.328,8.328,0,0,1-8.33,8.333H600.581a8.327,8.327,0,0,1-8.33-8.333v-6.9a8.331,8.331,0,0,1,8.33-8.333H773.216A8.331,8.331,0,0,1,781.546,1758.651Z" transform="translate(-570.311 -1744.569)" fill="#f99746"/>
      <path id="Trazado_82432" data-name="Trazado 82432" d="M782,1812.477a8.328,8.328,0,0,1-8.04,6.147H601.327a8.329,8.329,0,0,1-8.04-6.147Z" transform="translate(-571.057 -1789.305)" fill="#ef873a"/>
      <g id="Grupo_38199" data-name="Grupo 38199" transform="translate(194.089 5.749)">
        <path id="Trazado_82433" data-name="Trazado 82433" d="M1206.413,1762.146a13.1,13.1,0,0,0,3.428,9.1c.048.048.093.1.14.144a8.362,8.362,0,0,0,5.914,2.582c3.495,0,12.157-5.272,17.525-8.774,2.675-1.746,4.532-3.051,4.532-3.051s-1.858-1.305-4.532-3.051c-5.368-3.5-14.031-8.777-17.525-8.777a7.821,7.821,0,0,0-2.9.562,9.5,9.5,0,0,0-4,3.154,13.01,13.01,0,0,0-2.4,5.767.688.688,0,0,0-.01.076A14.628,14.628,0,0,0,1206.413,1762.146Z" transform="translate(-1206.413 -1750.317)" fill="#cde0fb"/>
        <path id="Trazado_82434" data-name="Trazado 82434" d="M1206.413,1786.689a13.1,13.1,0,0,0,3.428,9.1l26.57-9.141-29.823-2.228A14.627,14.627,0,0,0,1206.413,1786.689Z" transform="translate(-1206.413 -1774.861)" fill="#a6c7ed"/>
        <path id="Trazado_82435" data-name="Trazado 82435" d="M1215.636,1755.475l26.507,7.239-22.511-10.392A9.5,9.5,0,0,0,1215.636,1755.475Z" transform="translate(-1213.051 -1751.76)" fill="#e3f0ff"/>
        <path id="Trazado_82436" data-name="Trazado 82436" d="M1296.594,1784.682a3.272,3.272,0,0,0,1.73,3.051c2.675-1.746,4.532-3.051,4.532-3.051s-1.858-1.305-4.532-3.051A3.264,3.264,0,0,0,1296.594,1784.682Z" transform="translate(-1271.316 -1772.854)" fill="#2e3552"/>
      </g>
    </g>
    <g id="Grupo_38204" data-name="Grupo 38204" transform="translate(539.991 472.029)">
      <path id="Trazado_82437" data-name="Trazado 82437" d="M1941.881,1182.333s-.8-1.809-1.325-2.666-2.747-3.366-3.126-2.8-1.895,4.393-1.089,5.464-.052,2.935,3.952,4.063Z" transform="translate(-1847.205 -1127.599)" fill="#ffb27d"/>
      <path id="Trazado_82438" data-name="Trazado 82438" d="M1996.7,1155.82s-20.5,17.11-28.49,15.526a157.643,157.643,0,0,1-15.841-4.527l-1.918,4.906s8.6,11.668,17.57,11.745a51.084,51.084,0,0,0,24.374-6.069Z" transform="translate(-1857.529 -1112.51)" fill="#95b3ef"/>
      <path id="Trazado_82439" data-name="Trazado 82439" d="M2183.155,1791.737s-.6,9.6-2.452,9.736c-.247.018-9.418.018-9.418.018l-11.708-.068a3.8,3.8,0,0,1,3.5-3.418c3.422-.6,9.151-3,11.224-7.525C2176.479,1785.723,2183.155,1791.737,2183.155,1791.737Z" transform="translate(-2008.035 -1567.957)" fill="#1c3d72"/>
      <path id="Trazado_82440" data-name="Trazado 82440" d="M2144.117,1497.78a24.413,24.413,0,0,1-6.338,1.191,23.272,23.272,0,0,1-5.917-.844s-.671-6.48-4.358-20.758c-1.933-7.484-4.694-17.106-8.622-29.063-10.86-33.045-14.162-52.376-14.464-54.207-.016-.1-.022-.144-.022-.144l.035-.016,33.388-14.659s-4.127,45.543,1.138,63.024a73.787,73.787,0,0,1,1.911,8.375C2144.194,1469.667,2144.117,1497.78,2144.117,1497.78Z" transform="translate(-1968.322 -1273.334)" fill="#2b478b"/>
      <path id="Trazado_82441" data-name="Trazado 82441" d="M2127.563,1477.369c-1.934-7.484-4.694-17.106-8.622-29.063-10.86-33.045-14.163-52.376-14.464-54.207,0-.054.007-.106.013-.16l33.388-14.659s-4.126,45.543,1.138,63.024C2139.753,1444.747,2127.563,1477.369,2127.563,1477.369Z" transform="translate(-1968.38 -1273.334)" fill="#233862"/>
      <path id="Trazado_82442" data-name="Trazado 82442" d="M2090.121,1791.737s-.6,9.6-2.452,9.736c-.247.018-9.419.018-9.419.018l-11.708-.068a3.8,3.8,0,0,1,3.5-3.418c3.422-.6,9.151-3,11.224-7.525C2083.446,1785.723,2090.121,1791.737,2090.121,1791.737Z" transform="translate(-1941.078 -1567.957)" fill="#1c3d72"/>
      <path id="Trazado_82443" data-name="Trazado 82443" d="M2083.1,1383.108a475.332,475.332,0,0,0,4.673,65.748c5.106,36.236,3.375,51.617,3.375,51.617a34.74,34.74,0,0,0,4.924,1.252,22.34,22.34,0,0,0,7.306-.845s7.309-36.249,5.213-54.386,10.008-62.236,10.008-62.236Z" transform="translate(-1952.992 -1276.089)" fill="#2b478b"/>
      <path id="Trazado_82444" data-name="Trazado 82444" d="M2132.046,1099.261l-6.517,4.274-5.937-1.679c-1.085-1.548-1.372-4.532-1.388-7.118a44.208,44.208,0,0,1,.233-4.739l8.793-3.881,3.281-1.446c-.009.051-.255,2.693-.29,3.08A22.45,22.45,0,0,0,2132.046,1099.261Z" transform="translate(-1978.259 -1061.305)" fill="#ffb27d"/>
      <path id="Trazado_82445" data-name="Trazado 82445" d="M2082.248,1207.629c8.112,7.832,38.813,6.515,40.705-2.115s-2.064-73.459-15.92-77.532c-2.875-.845-18.249,4.124-18.249,4.124a97.493,97.493,0,0,0-3.994,14.344c-.307,1.564-1.2,18.131-1.874,33.631-.313,7.249-.578,14.266-.713,19.4C2082.08,1204.3,2082.074,1207.458,2082.248,1207.629Z" transform="translate(-1952.285 -1092.406)" fill="#afcdfb"/>
      <path id="Trazado_82446" data-name="Trazado 82446" d="M2129.563,1091.583c-1.784,3.016-8.042,5.656-11.359,6.865a44.211,44.211,0,0,1,.233-4.739l8.793-3.881C2129.174,1089.8,2130.358,1090.236,2129.563,1091.583Z" transform="translate(-1978.259 -1065.014)" fill="#fca56b"/>
      <path id="Trazado_82447" data-name="Trazado 82447" d="M2102.657,1041.893s14.167,4.419,16.784-4.446,6.208-14.265-2.728-17.462-11.7-.335-13.292,2.412S2099.04,1040.515,2102.657,1041.893Z" transform="translate(-1965.796 -1013.734)" fill="#ffb27d"/>
      <path id="Trazado_82448" data-name="Trazado 82448" d="M2108.5,1009.115s.9,10.316,3.037,9.868,4.482-1.406,4.169,1.7,2.075,8.441,5.151,8.428c6.6-.028,13.767-16.958,11.961-20.168C2127.6,999.684,2100.963,997.814,2108.5,1009.115Z" transform="translate(-1970.314 -1001.307)" fill="#163560"/>
      <path id="Trazado_82449" data-name="Trazado 82449" d="M2109.678,1117.86c.183-.077,10.547-4.726,11.759-4.326s2.723,4.1,2.723,4.1l-18.25,4.126S2107.346,1118.842,2109.678,1117.86Z" transform="translate(-1969.411 -1082.059)" fill="#95b3ef"/>
      <g id="Grupo_38202" data-name="Grupo 38202" transform="translate(0 6.533)">
        <path id="Trazado_82450" data-name="Trazado 82450" d="M1885.994,1293.888l58.1,54.7c1.139,1.072,2.575,1.414,3.191.759l1.961-2.083c.616-.655.189-2.068-.95-3.14l-58.1-54.7c-1.139-1.072-2.575-1.414-3.191-.759l-1.961,2.083C1884.427,1291.4,1884.855,1292.816,1885.994,1293.888Z" transform="translate(-1810.251 -1214.413)" fill="#1f4d84"/>
        <path id="Trazado_82451" data-name="Trazado 82451" d="M2005.472,1406.2l25.494,24c1.139,1.072,2.575,1.414,3.191.759l1.961-2.083c.616-.655.189-2.068-.95-3.14l-25.494-24Z" transform="translate(-1897.126 -1296.032)" fill="#f78248"/>
        <path id="Trazado_82452" data-name="Trazado 82452" d="M1697.633,1038.946a45.53,45.53,0,0,0-64.362-1.959c-.243.227-.482.457-.715.689a45.538,45.538,0,1,0,65.077,1.27Zm-4.423,61.752a41.945,41.945,0,1,1,1.806-59.287A41.893,41.893,0,0,1,1693.209,1100.7Z" transform="translate(-1618.935 -1024.614)" fill="#1f4d84"/>
        <g id="Grupo_38201" data-name="Grupo 38201" transform="translate(3.595 3.596)" opacity="0.5">
          <path id="Trazado_82453" data-name="Trazado 82453" d="M1643.156,1108.12a41.944,41.944,0,1,0,1.807-59.285A41.769,41.769,0,0,0,1643.156,1108.12Z" transform="translate(-1631.761 -1037.442)" fill="#b3cff9"/>
        </g>
      </g>
      <path id="Trazado_82454" data-name="Trazado 82454" d="M2082.434,1246.6c32.012-22.811,29.35-53.25,29.35-53.25-11.7,6.6-23.31,21.19-28.637,33.847C2082.834,1234.441,2082.569,1241.458,2082.434,1246.6Z" transform="translate(-1952.516 -1139.517)" fill="#95b3ef"/>
      <g id="Grupo_38203" data-name="Grupo 38203" transform="translate(89.127 39.703)">
        <path id="Trazado_82455" data-name="Trazado 82455" d="M1946.1,1339.776a8.736,8.736,0,0,1-4.088-2.526s-.963.066.158,2.119c.094.172.3.613.459.925a.2.2,0,0,1-.168.287c-1.3.1-2.612-.417-5.122.107-.346.072-.447.9-.434,1.255a3.2,3.2,0,0,0,.674,2.187c.4.533,1.533,1.107,4.045,2.119.957.385,3.694.095,6.259-.786l2.05-.949-.636-3.809-.515.108C1947.968,1340.983,1946.955,1339.985,1946.1,1339.776Z" transform="translate(-1936.907 -1282.788)" fill="#ffb27d"/>
        <path id="Trazado_82456" data-name="Trazado 82456" d="M2026.75,1142.95s28.764,5.477-8.462,47.13c-5.954,6.661-38.12,15.335-38.12,15.335s-3.262-2.776-1.618-5.024c0,0,22.147-16.082,27.02-18.639,2.192-1.151,8.508-25.67,12.081-31.575A16.111,16.111,0,0,1,2026.75,1142.95Z" transform="translate(-1966.544 -1142.95)" fill="#afcdfb"/>
      </g>
      <path id="Trazado_82457" data-name="Trazado 82457" d="M1943.907,1180.38a14.656,14.656,0,0,1-1.125-2.746,15.171,15.171,0,0,0-1.856-4.2c-.2-.2-.84.057-.915.9a4.87,4.87,0,0,0,.462,1.819,20.486,20.486,0,0,1,.609,3.615C1941.527,1181.211,1943.907,1180.38,1943.907,1180.38Z" transform="translate(-1850.01 -1125.14)" fill="#ffb27d"/>
    </g>
    <g id="Grupo_38210" data-name="Grupo 38210" transform="translate(327.167 635.648)">
      <g id="Grupo_38209" data-name="Grupo 38209" transform="translate(0)">
        <path id="Trazado_82458" data-name="Trazado 82458" d="M636.514,1609.726H775.722a12.316,12.316,0,0,0,12.316-12.316h0a12.316,12.316,0,0,0-12.316-12.316H636.514A12.316,12.316,0,0,0,624.2,1597.41h0A12.316,12.316,0,0,0,636.514,1609.726Z" transform="translate(-624.198 -1585.078)" fill="#699dee"/>
        <path id="Trazado_82459" data-name="Trazado 82459" d="M947.314,1595.537l-.118,5.376c-.1,4.755,5.087,8.672,11.593,8.748l86.983,1.016.023-1.071c-4.88-1.855-8.175-5.61-8.081-9.9l.041-1.891c.094-4.293,3.551-7.969,8.51-9.71v-.022l-86.982-1.016C952.777,1586.988,947.418,1590.782,947.314,1595.537Z" transform="translate(-856.659 -1586.494)" fill="#ffeddc"/>
        <g id="Grupo_38205" data-name="Grupo 38205" transform="translate(89.212)">
          <path id="Trazado_82460" data-name="Trazado 82460" d="M1044.649,1609.649H953.012c-5.91,0-10.54-5.406-10.54-12.307s4.63-12.307,10.54-12.307h91.637c.761,0,1.378.451,1.378,1.007s-.617,1.007-1.378,1.007H953.012c-4.22,0-7.785,4.713-7.785,10.292s3.565,10.293,7.785,10.293h91.637c.761,0,1.378.451,1.378,1.007S1045.41,1609.649,1044.649,1609.649Z" transform="translate(-942.472 -1585.035)" fill="#4b87dd"/>
        </g>
        <g id="Grupo_38206" data-name="Grupo 38206" transform="translate(116.48 6.547)">
          <rect id="Rectángulo_32038" data-name="Rectángulo 32038" width="66.167" height="0.17" fill="#e8c2a3"/>
        </g>
        <g id="Grupo_38207" data-name="Grupo 38207" transform="translate(151.611 8.787)">
          <rect id="Rectángulo_32039" data-name="Rectángulo 32039" width="29.916" height="0.17" fill="#e8c2a3"/>
        </g>
        <g id="Grupo_38208" data-name="Grupo 38208" transform="translate(129.339 16.426)">
          <rect id="Rectángulo_32040" data-name="Rectángulo 32040" width="52.188" height="0.17" fill="#e8c2a3"/>
        </g>
      </g>
    </g>
  </g>
</svg>
