<svg xmlns="http://www.w3.org/2000/svg" xmlns:xlink="http://www.w3.org/1999/xlink" width="395.35" height="397.401" viewBox="0 0 395.35 397.401">
  <defs>
    <linearGradient id="linear-gradient" x1="-0.011" y1="1.078" x2="1.49" y2="-0.549" gradientUnits="objectBoundingBox">
      <stop offset="0" stop-color="#09005d"/>
      <stop offset="1" stop-color="#1a0f91"/>
    </linearGradient>
    <linearGradient id="linear-gradient-2" y1="0.5" x2="1" y2="0.5" gradientUnits="objectBoundingBox">
      <stop offset="0" stop-color="#4f52ff"/>
      <stop offset="1" stop-color="#4042e2"/>
    </linearGradient>
    <linearGradient id="linear-gradient-3" x1="-1.162" y1="11.416" x2="-4.184" y2="15.06" xlink:href="#linear-gradient"/>
    <linearGradient id="linear-gradient-4" x1="0.055" y1="17.609" x2="-1.024" y2="23.525" xlink:href="#linear-gradient"/>
    <linearGradient id="linear-gradient-5" x1="1.231" y1="-17.704" x2="0.86" y2="-8.46" xlink:href="#linear-gradient"/>
    <linearGradient id="linear-gradient-6" x1="1.653" y1="-1.03" x2="0.017" y2="1.142" xlink:href="#linear-gradient"/>
    <linearGradient id="linear-gradient-7" x1="-0.565" y1="2.703" x2="1.136" y2="-0.815" xlink:href="#linear-gradient-2"/>
    <linearGradient id="linear-gradient-8" x1="-1.041" y1="2.887" x2="3.053" y2="-3.455" xlink:href="#linear-gradient-2"/>
    <linearGradient id="linear-gradient-9" x1="-1.77" y1="4.016" x2="2.324" y2="-2.325" xlink:href="#linear-gradient-2"/>
    <linearGradient id="linear-gradient-10" x1="-2.472" y1="5.102" x2="1.623" y2="-1.239" xlink:href="#linear-gradient-2"/>
    <linearGradient id="linear-gradient-11" x1="1.756" y1="-2.638" x2="0.299" y2="1.002" gradientUnits="objectBoundingBox">
      <stop offset="0" stop-color="#ff928e"/>
      <stop offset="1" stop-color="#fe7062"/>
    </linearGradient>
    <linearGradient id="linear-gradient-12" x1="-0.555" y1="2.134" x2="3.54" y2="-4.208" xlink:href="#linear-gradient-2"/>
    <linearGradient id="linear-gradient-13" x1="-1.284" y1="3.263" x2="2.81" y2="-3.078" xlink:href="#linear-gradient-2"/>
    <linearGradient id="linear-gradient-14" x1="-1.986" y1="4.349" x2="2.109" y2="-1.992" xlink:href="#linear-gradient-2"/>
    <linearGradient id="linear-gradient-15" x1="-2.715" y1="5.479" x2="1.38" y2="-0.862" xlink:href="#linear-gradient-2"/>
    <linearGradient id="linear-gradient-16" x1="-0.124" y1="1.467" x2="3.97" y2="-4.874" xlink:href="#linear-gradient-2"/>
    <linearGradient id="linear-gradient-17" x1="-0.854" y1="2.596" x2="3.241" y2="-3.745" xlink:href="#linear-gradient-2"/>
    <linearGradient id="linear-gradient-18" x1="-1.555" y1="3.683" x2="2.539" y2="-2.659" xlink:href="#linear-gradient-2"/>
    <linearGradient id="linear-gradient-19" x1="0.348" y1="0.735" x2="4.443" y2="-5.606" xlink:href="#linear-gradient-2"/>
    <linearGradient id="linear-gradient-20" x1="-0.381" y1="1.864" x2="3.713" y2="-4.477" xlink:href="#linear-gradient-2"/>
    <linearGradient id="linear-gradient-21" x1="-1.082" y1="2.951" x2="3.012" y2="-3.391" xlink:href="#linear-gradient-2"/>
    <linearGradient id="linear-gradient-22" x1="-0.184" y1="1.294" x2="0.486" y2="0.516" gradientUnits="objectBoundingBox">
      <stop offset="0" stop-color="#e1473d"/>
      <stop offset="1" stop-color="#e9605a"/>
    </linearGradient>
    <linearGradient id="linear-gradient-23" x1="0.878" y1="-0.071" x2="-1.173" y2="3.028" xlink:href="#linear-gradient-11"/>
    <linearGradient id="linear-gradient-24" x1="1.304" y1="-0.302" x2="-1.589" y2="2.559" xlink:href="#linear-gradient-11"/>
    <linearGradient id="linear-gradient-32" x1="0.851" y1="-0.666" x2="0.476" y2="0.579" xlink:href="#linear-gradient-11"/>
    <linearGradient id="linear-gradient-33" x1="0.84" y1="-0.389" x2="0.208" y2="1.251" xlink:href="#linear-gradient-11"/>
    <linearGradient id="linear-gradient-34" x1="37.708" y1="0.238" x2="36.873" y2="0.678" gradientUnits="objectBoundingBox">
      <stop offset="0" stop-color="#febbba"/>
      <stop offset="1" stop-color="#ff928e"/>
    </linearGradient>
    <linearGradient id="linear-gradient-35" x1="-64.281" y1="-52.808" x2="-64.47" y2="-49.088" xlink:href="#linear-gradient"/>
    <linearGradient id="linear-gradient-36" x1="44.567" y1="0.225" x2="47.97" y2="-1.251" xlink:href="#linear-gradient-34"/>
    <linearGradient id="linear-gradient-37" x1="-63.139" y1="-60.662" x2="-63.36" y2="-57.553" xlink:href="#linear-gradient"/>
    <linearGradient id="linear-gradient-38" x1="0.748" y1="-0.893" x2="0.382" y2="1.03" xlink:href="#linear-gradient-11"/>
    <linearGradient id="linear-gradient-39" x1="-45.941" y1="-6.888" x2="-45.624" y2="-6.142" xlink:href="#linear-gradient"/>
    <linearGradient id="linear-gradient-40" x1="-0.436" y1="-0.952" x2="0.591" y2="0.825" xlink:href="#linear-gradient-11"/>
    <linearGradient id="linear-gradient-41" x1="0.437" y1="2.231" x2="0.632" y2="-2.324" xlink:href="#linear-gradient-34"/>
    <linearGradient id="linear-gradient-42" x1="2.125" y1="1.881" x2="0.272" y2="0.375" xlink:href="#linear-gradient-34"/>
    <linearGradient id="linear-gradient-43" x1="-105.997" y1="-40.597" x2="-104.43" y2="-42.872" xlink:href="#linear-gradient-34"/>
    <linearGradient id="linear-gradient-44" x1="-68.382" y1="-58.89" x2="-67.874" y2="-56.656" xlink:href="#linear-gradient"/>
    <linearGradient id="linear-gradient-45" x1="-434.727" y1="-132.602" x2="-428.321" y2="-140.048" xlink:href="#linear-gradient-34"/>
    <linearGradient id="linear-gradient-46" x1="1.092" y1="-27.309" x2="0.457" y2="2.512" xlink:href="#linear-gradient"/>
    <linearGradient id="linear-gradient-47" x1="0.003" y1="-0.061" x2="0.825" y2="0.949" xlink:href="#linear-gradient"/>
    <linearGradient id="linear-gradient-48" x1="4.556" y1="3.122" x2="-1.033" y2="-0.491" xlink:href="#linear-gradient-2"/>
  </defs>
  <g id="Grupo_38264" data-name="Grupo 38264" transform="translate(-345.882 -470.487)">
    <g id="Grupo_38228" data-name="Grupo 38228" transform="translate(563.751 488.197)">
      <path id="Trazado_82461" data-name="Trazado 82461" d="M2074.474,602.824a2.063,2.063,0,0,0-2.916-2.63c-17.589,10.145-61.732,42.53-69.745,115.37-10.053,91.389-36.179,119.459-63.863,133.82,0,0,33.823-1.865,61.458-30.083C2067.259,750.019,2059.623,635.127,2074.474,602.824Z" transform="translate(-1937.95 -599.909)" fill="#bdd0fb"/>
      <path id="Trazado_82462" data-name="Trazado 82462" d="M2133.983,800.431c-4.126,9.467-8.065,19.01-11.648,28.684q-5.451,14.48-10,29.261c-2.992,9.86-5.8,19.774-8.181,29.793-2.426,10.008-4.42,20.108-6.386,30.257-2.022,10.131-4,20.349-7.033,30.4a104.767,104.767,0,0,1-13.208,28.616c-1.481,2.182-3.007,4.346-4.646,6.4-1.6,2.084-3.3,4.1-5.025,6.079a108.631,108.631,0,0,1-37.881,27.855,2,2,0,0,1-1.7-3.614l.007,0c2.293-1.113,4.57-2.251,6.788-3.487,1.12-.6,2.21-1.249,3.312-1.877,1.077-.669,2.18-1.3,3.236-2a105.246,105.246,0,0,0,12.163-9.079A115.373,115.373,0,0,0,2073.87,975a100.581,100.581,0,0,0,7.4-13.209,114.02,114.02,0,0,0,5.414-14.211c3.018-9.734,5.061-19.831,7.156-29.947s4.3-20.267,6.9-30.312q1.931-7.538,4.132-15c.719-2.491,1.486-4.968,2.248-7.446q1.179-3.706,2.406-7.4,4.946-14.745,10.79-29.153c3.944-9.579,8.14-19.05,12.695-28.344a.535.535,0,0,1,.971.45Z" transform="translate(-2014.946 -772.344)" fill="#fff" style="mix-blend-mode: soft-light;isolation: isolate"/>
    </g>
    <g id="Grupo_38230" data-name="Grupo 38230" transform="translate(636.45 548.106)">
      <g id="Grupo_38229" data-name="Grupo 38229">
        <path id="Trazado_82463" data-name="Trazado 82463" d="M2472.966,1258.311a5.188,5.188,0,0,0,7.89,3.456c17.181-10.868,62.978-45.987,71.27-115.676,7-58.849,16.391-90.094,21.635-103.983a3.253,3.253,0,0,0-4.812-3.879C2539.861,1057.032,2449.809,1126.829,2472.966,1258.311Z" transform="translate(-2469.201 -1037.693)" fill="#91b3fa"/>
        <path id="Trazado_82464" data-name="Trazado 82464" d="M2529.764,1645.439a1.441,1.441,0,0,0,2.205-.272c.483-.76,48.458-76.94,61.889-158.326a1.439,1.439,0,1,0-2.839-.469c-13.333,80.793-61,156.5-61.478,157.252A1.439,1.439,0,0,0,2529.764,1645.439Z" transform="translate(-2521.09 -1423.933)" fill="#bdd0fb"/>
      </g>
    </g>
    <g id="Grupo_38244" data-name="Grupo 38244" transform="translate(395.06 470.486)">
      <g id="Grupo_38234" data-name="Grupo 38234">
        <path id="Trazado_82465" data-name="Trazado 82465" d="M736.891,769.879l198.536,5.26a20.576,20.576,0,0,1,20.025,20.067l7.028,288.229a15.173,15.173,0,0,1-15.295,15.542l-227.657-1.893A14.4,14.4,0,0,1,705.25,1082.3l7.675-289.694A23.355,23.355,0,0,1,736.891,769.879Z" transform="translate(-705.245 -728.901)" fill="url(#linear-gradient)"/>
        <path id="Trazado_82466" data-name="Trazado 82466" d="M798.727,2778.711h-.018l-25.453-1a15.624,15.624,0,0,1-14.946-15.965l1.019-38.442a.461.461,0,0,1,.922.024l-1.019,38.441a14.7,14.7,0,0,0,14.06,15.02l25.453,1a.461.461,0,0,1-.018.921Z" transform="translate(-751.043 -2414.624)" fill="#fff"/>
        <g id="Grupo_38231" data-name="Grupo 38231" transform="translate(18.186 38.571)">
          <path id="Trazado_82467" data-name="Trazado 82467" d="M852.273,752.436c27.015,4.395,119.944,18.237,197.183,14.362a6.273,6.273,0,0,1,6.6,6.093l7.706,289.53a7.219,7.219,0,0,1-6.981,7.409c-32.47,1.059-166.179,4.939-213.669-1.311a5.719,5.719,0,0,1-4.965-5.794L844.4,759A6.784,6.784,0,0,1,852.273,752.436Z" transform="translate(-838.141 -752.347)" fill="url(#linear-gradient-2)"/>
        </g>
        <g id="Grupo_38232" data-name="Grupo 38232" transform="translate(26.653 53.709)">
          <path id="Trazado_82468" data-name="Trazado 82468" d="M913.19,863.05c25.191,4.1,111.848,17.006,183.874,13.392a5.849,5.849,0,0,1,6.151,5.682l7.186,269.989a6.732,6.732,0,0,1-6.51,6.909c-30.278.988-154.963,4.605-199.247-1.223a5.333,5.333,0,0,1-4.63-5.4l5.837-283.229A6.326,6.326,0,0,1,913.19,863.05Z" transform="translate(-900.013 -862.967)" fill="#91b3fa"/>
        </g>
        <path id="Trazado_82469" data-name="Trazado 82469" d="M1606.941,475.175c-7.039-5.179-13.277-5.245-17.7-4.066a8.758,8.758,0,0,0-6.462,9.041l1.345,20.713,22.473,2.6S1620.746,485.332,1606.941,475.175Zm-10.348,16.407a5.619,5.619,0,1,1,5.766-5.468A5.619,5.619,0,0,1,1596.593,491.582Z" transform="translate(-1462.674 -470.486)" fill="url(#linear-gradient-3)"/>
        <g id="Grupo_38233" data-name="Grupo 38233" transform="translate(122.228 2.508)">
          <path id="Trazado_82470" data-name="Trazado 82470" d="M1599.731,508.545a1.116,1.116,0,0,1-.7-.966l-.214-3.3a1.116,1.116,0,0,1,2.227-.144l.214,3.3a1.117,1.117,0,0,1-1.525,1.109Zm-.419-6.464a1.115,1.115,0,0,1-.7-.966l-.163-2.5a8.934,8.934,0,0,1,6.582-9.2,17.42,17.42,0,0,1,8.519-.125,1.116,1.116,0,0,1-.506,2.175,15.2,15.2,0,0,0-7.438.107,6.7,6.7,0,0,0-4.929,6.9l.163,2.5a1.116,1.116,0,0,1-1.525,1.109Z" transform="translate(-1598.427 -488.816)" fill="#bdd0fb"/>
        </g>
        <path id="Trazado_82471" data-name="Trazado 82471" d="M1365.477,679.614l.275-10.389a6.341,6.341,0,0,1,6.724-6.162l71.559,4.352a6.168,6.168,0,0,1,5.79,5.95l.334,10Z" transform="translate(-1275.127 -636.7)" fill="url(#linear-gradient-4)"/>
        <path id="Trazado_82472" data-name="Trazado 82472" d="M1540.712,691.077l3.08.081Z" transform="translate(-1426.382 -660.89)" fill="#bdd0fb"/>
        <path id="Trazado_82473" data-name="Trazado 82473" d="M1387.093,691.674a1.116,1.116,0,0,1-.7-1.067l.111-4.2a6.464,6.464,0,0,1,6.632-6.29l11.324.3a1.117,1.117,0,0,1-.06,2.232l-11.324-.3a4.235,4.235,0,0,0-4.341,4.117l-.112,4.2a1.115,1.115,0,0,1-1.527,1.008Z" transform="translate(-1293.177 -651.425)" fill="#bdd0fb"/>
        <path id="Trazado_82474" data-name="Trazado 82474" d="M1155.824,751.935l125.247,3.315a9.261,9.261,0,0,1,8.919,7.92l.09.615a7.953,7.953,0,0,1-8.08,9.1l-128.5-3.4a5.171,5.171,0,0,1-5.02-5.554l.429-5.744A6.752,6.752,0,0,1,1155.824,751.935Z" transform="translate(-1087.816 -713.418)" fill="url(#linear-gradient-5)"/>
      </g>
      <path id="Trazado_82475" data-name="Trazado 82475" d="M1187.249,2747.386c-.021,2.137-1.479,3.875-3.259,3.882l-175.03.667a3.807,3.807,0,0,1-3.54-4.049v-.34a3.847,3.847,0,0,1,3.553-4.07l175.094-.279c1.78,0,3.206,1.728,3.185,3.866Z" transform="translate(-964.342 -2432.186)" fill="#bdd0fb"/>
      <path id="Trazado_82476" data-name="Trazado 82476" d="M1187.249,2880.272c-.021,2.137-1.479,3.875-3.259,3.881l-175.03.667a3.807,3.807,0,0,1-3.54-4.05v-.339a3.847,3.847,0,0,1,3.553-4.07l175.094-.279c1.78,0,3.206,1.728,3.185,3.866Z" transform="translate(-964.342 -2546.886)" fill="#bdd0fb"/>
      <path id="Trazado_82477" data-name="Trazado 82477" d="M1192.148,1924.593c-.021,2.137-1.479,3.875-3.259,3.882l-175.03.667a3.807,3.807,0,0,1-3.54-4.05v-.339a3.847,3.847,0,0,1,3.552-4.07l175.094-.279c1.781,0,3.206,1.728,3.185,3.866Z" transform="translate(-968.571 -1721.988)" fill="#bdd0fb"/>
      <path id="Trazado_82478" data-name="Trazado 82478" d="M1448,1024.034c-.064,2.136-.793,3.867-1.629,3.866-24.924.649-52.4-.225-81.359-1.978-.919,0-2.481.078-2.422-2.166l.009-.339c.058-2.244,1.547-5.651,2.467-5.646,30.43,2.988,57.832,3.831,81.546,2.061.836,0,1.462,1.741,1.4,3.878Z" transform="translate(-1272.631 -942.878)" fill="#bdd0fb"/>
      <path id="Trazado_82479" data-name="Trazado 82479" d="M1773.1,2255.228c-.021,2.137-.715,3.882-1.551,3.9l-82.206,1.571c-.919.018-1.655-1.787-1.642-4.031l0-.339c.013-2.244.77-4.075,1.69-4.088l82.234-1.183c.836-.012,1.5,1.712,1.476,3.849Z" transform="translate(-1553.254 -2007.391)" fill="#bdd0fb"/>
      <path id="Trazado_82480" data-name="Trazado 82480" d="M1774.127,2386.681c-.021,2.137-.715,3.883-1.55,3.9l-82.206,1.571c-.919.017-1.654-1.787-1.641-4.031l0-.339c.013-2.245.77-4.075,1.69-4.089l82.234-1.183c.836-.012,1.5,1.711,1.476,3.849Z" transform="translate(-1554.143 -2120.856)" fill="#bdd0fb"/>
      <path id="Trazado_82481" data-name="Trazado 82481" d="M1773.441,2509.305c-.021,2.137-.715,3.882-1.551,3.9l-82.206,1.571c-.919.018-1.655-1.787-1.641-4.031l0-.339c.013-2.245.77-4.075,1.689-4.089l82.234-1.183c.836-.012,1.5,1.711,1.476,3.849Z" transform="translate(-1553.551 -2226.7)" fill="#bdd0fb"/>
      <rect id="Rectángulo_32041" data-name="Rectángulo 32041" width="80.177" height="69.058" rx="34.529" transform="translate(43.021 226.339)" fill="#bdd0fb"/>
      <g id="Grupo_38243" data-name="Grupo 38243" transform="translate(53.078 96.635)">
        <g id="Grupo_38235" data-name="Grupo 38235" transform="translate(3.957 2.822)">
          <path id="Trazado_82482" data-name="Trazado 82482" d="M1123.24,1272.56a1.252,1.252,0,0,1-.846-.324,1.1,1.1,0,0,1-.025-1.615l39.707-38.38a1.214,1.214,0,0,1,1.528-.106l20.235,14.15,36.568-32.5a1.139,1.139,0,0,1,1.422-.054l19.685,14.287,29.039-30.438a1.1,1.1,0,0,1,1.586,1.509l-29.663,31.131a1.112,1.112,0,0,1-1.456.119l-19.751-14.315-36.542,32.517a1.189,1.189,0,0,1-1.463.077l-20.2-14.108-38.95,37.7A1.248,1.248,0,0,1,1123.24,1272.56Z" transform="translate(-1122.026 -1197.265)" fill="#fff" opacity="0.57"/>
        </g>
        <g id="Grupo_38242" data-name="Grupo 38242">
          <g id="Grupo_38236" data-name="Grupo 38236" transform="translate(39.964 34.513)">
            <path id="Trazado_82483" data-name="Trazado 82483" d="M1389.611,1428.856a4.391,4.391,0,0,0-4.454,4.454,4.634,4.634,0,0,0,4.974,4.091,4.39,4.39,0,0,0,4.437-4.453A4.633,4.633,0,0,0,1389.611,1428.856Z" transform="translate(-1385.149 -1428.852)" fill="#fff"/>
          </g>
          <g id="Grupo_38237" data-name="Grupo 38237" transform="translate(0 72.976)">
            <path id="Trazado_82484" data-name="Trazado 82484" d="M1097.718,1709.921a4.581,4.581,0,0,0-4.6,4.6,4.676,4.676,0,0,0,5.131,4.083,4.579,4.579,0,0,0,4.581-4.6A4.674,4.674,0,0,0,1097.718,1709.921Z" transform="translate(-1093.111 -1709.913)" fill="#fff"/>
          </g>
          <g id="Grupo_38238" data-name="Grupo 38238" transform="translate(61.058 49.233)">
            <path id="Trazado_82485" data-name="Trazado 82485" d="M1543.679,1536.418a4.368,4.368,0,0,0-4.381,4.445,4.54,4.54,0,0,0,4.9,4.031,4.367,4.367,0,0,0,4.364-4.444A4.539,4.539,0,0,0,1543.679,1536.418Z" transform="translate(-1539.291 -1536.413)" fill="#fff"/>
          </g>
          <g id="Grupo_38239" data-name="Grupo 38239" transform="translate(118.994 30.376)">
            <path id="Trazado_82486" data-name="Trazado 82486" d="M1966.84,1398.618a4.18,4.18,0,0,0-4.179,4.309,4.408,4.408,0,0,0,4.677,3.973,4.18,4.18,0,0,0,4.164-4.309A4.408,4.408,0,0,0,1966.84,1398.618Z" transform="translate(-1962.654 -1398.615)" fill="#fff"/>
          </g>
          <g id="Grupo_38240" data-name="Grupo 38240" transform="translate(148.785)">
            <path id="Trazado_82487" data-name="Trazado 82487" d="M2188.983,1180.627a4.386,4.386,0,0,0-4.55-3.979,4.043,4.043,0,0,0-4.076,4.2,4.386,4.386,0,0,0,4.565,3.978A4.043,4.043,0,0,0,2188.983,1180.627Z" transform="translate(-2180.351 -1176.646)" fill="#fff"/>
          </g>
          <g id="Grupo_38241" data-name="Grupo 38241" transform="translate(98.433 16.186)">
            <path id="Trazado_82488" data-name="Trazado 82488" d="M1816.665,1294.925a4.2,4.2,0,0,0-4.249,4.319,4.5,4.5,0,0,0,4.752,4.031,4.2,4.2,0,0,0,4.233-4.318A4.5,4.5,0,0,0,1816.665,1294.925Z" transform="translate(-1812.408 -1294.923)" fill="#fff"/>
          </g>
        </g>
      </g>
      <path id="Trazado_82489" data-name="Trazado 82489" d="M1192.4,1301.044H1017.661a6.339,6.339,0,0,1-6.336-6.518l2.156-76.059a1.383,1.383,0,0,1,2.766.078l-2.157,76.059a3.571,3.571,0,0,0,3.57,3.673H1192.4a1.383,1.383,0,1,1,0,2.767Z" transform="translate(-969.437 -1114.949)" fill="#fff" opacity="0.74"/>
    </g>
    <g id="Grupo_38249" data-name="Grupo 38249" transform="translate(557.141 656.215)">
      <g id="Grupo_38248" data-name="Grupo 38248">
        <g id="Grupo_38245" data-name="Grupo 38245">
          <path id="Trazado_82490" data-name="Trazado 82490" d="M1892.334,1837.566c-.864,30.859-3.666,137.306-2.329,175.027.142,4,3.76,7.2,8.274,7.334,22.324.647,104.164,2.286,140.68.93,7.605-.283,13.654-5.737,13.812-12.475.759-32.391,2.433-123.495-1.546-165.229-.477-5-4.91-8.982-10.55-9.482-24.312-2.153-106.5-7.417-138.052-5.6C1896.934,1828.394,1892.475,1832.52,1892.334,1837.566Z" transform="translate(-1889.65 -1827.694)" fill="url(#linear-gradient-6)"/>
          <path id="Rectángulo_32042" data-name="Rectángulo 32042" d="M22.157,0h98.8a22.157,22.157,0,0,1,22.157,22.157v0a22.157,22.157,0,0,1-22.157,22.157h-98.8A22.157,22.157,0,0,1,0,22.157v0A22.157,22.157,0,0,1,22.157,0Z" transform="translate(9.097 14.398)" fill="url(#linear-gradient-7)"/>
          <path id="Trazado_82491" data-name="Trazado 82491" d="M2137.778,1974.941a5.984,5.984,0,0,0-4.207-1.823l-116.917-1.858a5.985,5.985,0,0,0-6.054,5.427l-2.429,25.939c-.2,2.124,3.3,3.912,7.75,3.966l114.946,1.393c4.448.054,8.125-1.642,8.162-3.765l.433-25.013A5.984,5.984,0,0,0,2137.778,1974.941Z" transform="translate(-1991.944 -1951.613)" fill="#fff" opacity="0.2"/>
        </g>
        <path id="Trazado_82492" data-name="Trazado 82492" d="M2014.853,2397.792a8.354,8.354,0,0,1-8.354,8.354h-10.17a8.354,8.354,0,0,1-8.354-8.354h0a8.354,8.354,0,0,1,8.354-8.354h10.17a8.354,8.354,0,0,1,8.354,8.354Z" transform="translate(-1974.518 -2312.565)" fill="url(#linear-gradient-8)"/>
        <path id="Trazado_82493" data-name="Trazado 82493" d="M2290.9,2397.792a8.354,8.354,0,0,1-8.354,8.354h-10.17a8.354,8.354,0,0,1-8.354-8.354h0a8.354,8.354,0,0,1,8.354-8.354h10.17a8.354,8.354,0,0,1,8.354,8.354Z" transform="translate(-2212.787 -2312.565)" fill="url(#linear-gradient-9)"/>
        <path id="Trazado_82494" data-name="Trazado 82494" d="M2556.323,2397.792a8.354,8.354,0,0,1-8.354,8.354H2537.8a8.354,8.354,0,0,1-8.354-8.354h0a8.354,8.354,0,0,1,8.354-8.354h10.17a8.354,8.354,0,0,1,8.354,8.354Z" transform="translate(-2441.891 -2312.565)" fill="url(#linear-gradient-10)"/>
        <path id="Trazado_82495" data-name="Trazado 82495" d="M2825.826,2405.9a8.489,8.489,0,0,1-8.49,8.49h-9.83a8.489,8.489,0,0,1-8.49-8.49h0a8.49,8.49,0,0,1,8.49-8.489h9.83a8.489,8.489,0,0,1,8.49,8.489Z" transform="translate(-2674.574 -2319.448)" fill="url(#linear-gradient-11)"/>
        <path id="Trazado_82496" data-name="Trazado 82496" d="M2014.853,2588.9a8.354,8.354,0,0,1-8.354,8.354h-10.17a8.354,8.354,0,0,1-8.354-8.354h0a8.355,8.355,0,0,1,8.354-8.354h10.17a8.354,8.354,0,0,1,8.354,8.354Z" transform="translate(-1974.518 -2477.52)" fill="url(#linear-gradient-12)"/>
        <path id="Trazado_82497" data-name="Trazado 82497" d="M2290.9,2588.9a8.355,8.355,0,0,1-8.354,8.354h-10.17a8.354,8.354,0,0,1-8.354-8.354h0a8.354,8.354,0,0,1,8.354-8.354h10.17a8.355,8.355,0,0,1,8.354,8.354Z" transform="translate(-2212.787 -2477.52)" fill="url(#linear-gradient-13)"/>
        <path id="Trazado_82498" data-name="Trazado 82498" d="M2556.323,2588.9a8.354,8.354,0,0,1-8.354,8.354H2537.8a8.354,8.354,0,0,1-8.354-8.354h0a8.354,8.354,0,0,1,8.354-8.354h10.17a8.354,8.354,0,0,1,8.354,8.354Z" transform="translate(-2441.891 -2477.52)" fill="url(#linear-gradient-14)"/>
        <path id="Trazado_82499" data-name="Trazado 82499" d="M2832.367,2588.9a8.354,8.354,0,0,1-8.354,8.354h-10.17a8.354,8.354,0,0,1-8.354-8.354h0a8.354,8.354,0,0,1,8.354-8.354h10.17a8.354,8.354,0,0,1,8.354,8.354Z" transform="translate(-2680.159 -2477.52)" fill="url(#linear-gradient-15)"/>
        <g id="Grupo_38246" data-name="Grupo 38246" transform="translate(13.455 126.186)">
          <path id="Trazado_82500" data-name="Trazado 82500" d="M2014.853,2758.152a8.354,8.354,0,0,1-8.354,8.354h-10.17a8.354,8.354,0,0,1-8.354-8.354h0a8.354,8.354,0,0,1,8.354-8.354h10.17a8.354,8.354,0,0,1,8.354,8.354Z" transform="translate(-1987.974 -2749.797)" opacity="0.63" fill="url(#linear-gradient-16)"/>
          <path id="Trazado_82501" data-name="Trazado 82501" d="M2290.9,2758.152a8.355,8.355,0,0,1-8.354,8.354h-10.17a8.354,8.354,0,0,1-8.354-8.354h0a8.354,8.354,0,0,1,8.354-8.354h10.17a8.354,8.354,0,0,1,8.354,8.354Z" transform="translate(-2226.242 -2749.797)" opacity="0.63" fill="url(#linear-gradient-17)"/>
          <path id="Trazado_82502" data-name="Trazado 82502" d="M2556.323,2758.152a8.354,8.354,0,0,1-8.354,8.354H2537.8a8.354,8.354,0,0,1-8.354-8.354h0a8.354,8.354,0,0,1,8.354-8.354h10.17a8.354,8.354,0,0,1,8.354,8.354Z" transform="translate(-2455.346 -2749.797)" opacity="0.63" fill="url(#linear-gradient-18)"/>
        </g>
        <g id="Grupo_38247" data-name="Grupo 38247" transform="translate(13.455 151.612)">
          <path id="Trazado_82503" data-name="Trazado 82503" d="M2014.853,2943.949a8.354,8.354,0,0,1-8.354,8.354h-10.17a8.354,8.354,0,0,1-8.354-8.354h0a8.355,8.355,0,0,1,8.354-8.354h10.17a8.354,8.354,0,0,1,8.354,8.354Z" transform="translate(-1987.974 -2935.595)" opacity="0.63" fill="url(#linear-gradient-19)"/>
          <path id="Trazado_82504" data-name="Trazado 82504" d="M2290.9,2943.949a8.355,8.355,0,0,1-8.354,8.354h-10.17a8.354,8.354,0,0,1-8.354-8.354h0a8.354,8.354,0,0,1,8.354-8.354h10.17a8.355,8.355,0,0,1,8.354,8.354Z" transform="translate(-2226.242 -2935.595)" opacity="0.63" fill="url(#linear-gradient-20)"/>
          <path id="Trazado_82505" data-name="Trazado 82505" d="M2556.323,2943.949a8.354,8.354,0,0,1-8.354,8.354H2537.8a8.354,8.354,0,0,1-8.354-8.354h0a8.354,8.354,0,0,1,8.354-8.354h10.17a8.354,8.354,0,0,1,8.354,8.354Z" transform="translate(-2455.346 -2935.595)" opacity="0.63" fill="url(#linear-gradient-21)"/>
        </g>
        <path id="Rectángulo_32043" data-name="Rectángulo 32043" d="M10.9,0h0a10.9,10.9,0,0,1,10.9,10.9V30.511a10.9,10.9,0,0,1-10.9,10.9h0A10.9,10.9,0,0,1,0,30.511V10.9A10.9,10.9,0,0,1,10.9,0Z" transform="translate(126.782 128.451)" fill="#91b3fa"/>
      </g>
    </g>
    <g id="Grupo_38258" data-name="Grupo 38258" transform="translate(345.882 756.23)">
      <g id="Grupo_38251" data-name="Grupo 38251" transform="translate(118.854 22.628)">
        <circle id="Elipse_502" data-name="Elipse 502" cx="30.104" cy="30.104" r="30.104" transform="translate(0 42.574) rotate(-45)" fill="url(#linear-gradient-22)"/>
        <circle id="Elipse_503" data-name="Elipse 503" cx="29.103" cy="29.103" r="29.103" transform="translate(1.416 42.574) rotate(-45)" fill="url(#linear-gradient-23)"/>
        <path id="Trazado_82506" data-name="Trazado 82506" d="M1347.24,2851.02a.461.461,0,0,1-.411-.669,27.213,27.213,0,0,1,24.41-15.029,27.6,27.6,0,0,1,4.93.444.461.461,0,1,1-.166.907,26.655,26.655,0,0,0-4.764-.428,26.3,26.3,0,0,0-23.587,14.522A.46.46,0,0,1,1347.24,2851.02Z" transform="translate(-1328.664 -2820.074)" fill="#fff" opacity="0.66"/>
        <circle id="Elipse_504" data-name="Elipse 504" cx="24.632" cy="24.632" r="24.632" transform="translate(8.373 43.208) rotate(-45)" fill="#fff" opacity="0.59"/>
        <g id="Grupo_38250" data-name="Grupo 38250" transform="translate(32.359 25.775)">
          <path id="Trazado_82507" data-name="Trazado 82507" d="M1459.3,2948v-2.68a21.854,21.854,0,0,1-7.52-1.63,1.55,1.55,0,0,1-.857-1.832l.681-2.5a1.563,1.563,0,0,1,2.121-1.023,18.143,18.143,0,0,0,6.943,1.462c2.691,0,4.7-.913,4.7-2.782,0-1.688-1.551-2.691-5.29-3.694-5.336-1.46-9.167-3.786-9.167-8.483,0-4.242,3.1-7.48,8.483-8.346v-2.68a1.561,1.561,0,0,1,1.561-1.562h1.575a1.562,1.562,0,0,1,1.562,1.562v2.406a19.919,19.919,0,0,1,5.96,1.07,1.554,1.554,0,0,1,.971,1.876l-.626,2.309a1.557,1.557,0,0,1-2.055,1.052,16.264,16.264,0,0,0-5.846-1.061c-3.193,0-4.1,1.322-4.1,2.508,0,1.459,1.915,2.463,6.066,3.74,5.929,1.779,8.392,4.241,8.392,8.665,0,4.059-3.01,7.708-8.848,8.62v3a1.562,1.562,0,0,1-1.561,1.562h-1.575A1.562,1.562,0,0,1,1459.3,2948Z" transform="translate(-1450.869 -2912.253)" fill="url(#linear-gradient-24)"/>
        </g>
      </g>
      <g id="Grupo_38253" data-name="Grupo 38253" transform="translate(86.779 22.628)">
        <circle id="Elipse_505" data-name="Elipse 505" cx="30.104" cy="30.104" r="30.104" transform="translate(0 42.574) rotate(-45)" fill="url(#linear-gradient-22)"/>
        <circle id="Elipse_506" data-name="Elipse 506" cx="29.103" cy="29.103" r="29.103" transform="translate(1.416 42.574) rotate(-45)" fill="url(#linear-gradient-23)"/>
        <path id="Trazado_82508" data-name="Trazado 82508" d="M1112.847,2851.02a.462.462,0,0,1-.411-.669,27.213,27.213,0,0,1,24.41-15.029,27.606,27.606,0,0,1,4.929.444.461.461,0,0,1-.166.907,26.658,26.658,0,0,0-4.764-.428,26.3,26.3,0,0,0-23.587,14.522A.46.46,0,0,1,1112.847,2851.02Z" transform="translate(-1094.272 -2820.074)" fill="#fff" opacity="0.66"/>
        <circle id="Elipse_507" data-name="Elipse 507" cx="24.632" cy="24.632" r="24.632" transform="translate(8.373 43.208) rotate(-45)" fill="#fff" opacity="0.59"/>
        <g id="Grupo_38252" data-name="Grupo 38252" transform="translate(32.359 25.775)">
          <path id="Trazado_82509" data-name="Trazado 82509" d="M1224.91,2948v-2.68a21.853,21.853,0,0,1-7.52-1.63,1.55,1.55,0,0,1-.857-1.832l.681-2.5a1.563,1.563,0,0,1,2.121-1.023,18.144,18.144,0,0,0,6.943,1.462c2.691,0,4.7-.913,4.7-2.782,0-1.688-1.551-2.691-5.291-3.694-5.336-1.46-9.167-3.786-9.167-8.483,0-4.242,3.1-7.48,8.483-8.346v-2.68a1.562,1.562,0,0,1,1.562-1.562h1.574a1.561,1.561,0,0,1,1.561,1.562v2.406a19.924,19.924,0,0,1,5.96,1.07,1.554,1.554,0,0,1,.971,1.876l-.626,2.309a1.557,1.557,0,0,1-2.055,1.052,16.263,16.263,0,0,0-5.846-1.061c-3.193,0-4.1,1.322-4.1,2.508,0,1.459,1.915,2.463,6.065,3.74,5.929,1.779,8.392,4.241,8.392,8.665,0,4.059-3.01,7.708-8.848,8.62v3a1.561,1.561,0,0,1-1.561,1.562h-1.575A1.561,1.561,0,0,1,1224.91,2948Z" transform="translate(-1216.478 -2912.253)" fill="url(#linear-gradient-24)"/>
        </g>
      </g>
      <g id="Grupo_38255" data-name="Grupo 38255" transform="translate(54.703 22.628)">
        <circle id="Elipse_508" data-name="Elipse 508" cx="30.104" cy="30.104" r="30.104" transform="translate(0 42.574) rotate(-45)" fill="url(#linear-gradient-22)"/>
        <circle id="Elipse_509" data-name="Elipse 509" cx="29.103" cy="29.103" r="29.103" transform="translate(1.416 42.574) rotate(-45)" fill="url(#linear-gradient-23)"/>
        <path id="Trazado_82510" data-name="Trazado 82510" d="M878.458,2851.02a.461.461,0,0,1-.411-.669,27.213,27.213,0,0,1,24.41-15.029,27.6,27.6,0,0,1,4.93.444.461.461,0,0,1-.166.907,26.657,26.657,0,0,0-4.764-.428,26.3,26.3,0,0,0-23.587,14.522A.46.46,0,0,1,878.458,2851.02Z" transform="translate(-859.883 -2820.074)" fill="#fff" opacity="0.66"/>
        <circle id="Elipse_510" data-name="Elipse 510" cx="24.632" cy="24.632" r="24.632" transform="translate(8.373 43.208) rotate(-45)" fill="#fff" opacity="0.59"/>
        <g id="Grupo_38254" data-name="Grupo 38254" transform="translate(32.359 25.775)">
          <path id="Trazado_82511" data-name="Trazado 82511" d="M990.519,2948v-2.68a21.852,21.852,0,0,1-7.519-1.63,1.55,1.55,0,0,1-.857-1.832l.681-2.5a1.563,1.563,0,0,1,2.121-1.023,18.144,18.144,0,0,0,6.943,1.462c2.691,0,4.7-.913,4.7-2.782,0-1.688-1.551-2.691-5.29-3.694-5.336-1.46-9.167-3.786-9.167-8.483,0-4.242,3.1-7.48,8.483-8.346v-2.68a1.562,1.562,0,0,1,1.561-1.562h1.575a1.562,1.562,0,0,1,1.562,1.562v2.406a19.922,19.922,0,0,1,5.96,1.07,1.554,1.554,0,0,1,.971,1.876l-.626,2.309a1.557,1.557,0,0,1-2.056,1.052,16.263,16.263,0,0,0-5.846-1.061c-3.193,0-4.1,1.322-4.1,2.508,0,1.459,1.915,2.463,6.066,3.74,5.929,1.779,8.392,4.241,8.392,8.665,0,4.059-3.01,7.708-8.848,8.62v3a1.562,1.562,0,0,1-1.561,1.562H992.08A1.562,1.562,0,0,1,990.519,2948Z" transform="translate(-982.087 -2912.253)" fill="url(#linear-gradient-24)"/>
        </g>
      </g>
      <g id="Grupo_38257" data-name="Grupo 38257" transform="translate(0 0)">
        <circle id="Elipse_511" data-name="Elipse 511" cx="39.477" cy="39.477" r="39.477" transform="translate(0 55.829) rotate(-45)" fill="url(#linear-gradient-22)"/>
        <circle id="Elipse_512" data-name="Elipse 512" cx="38.164" cy="38.164" r="38.164" transform="translate(1.856 55.829) rotate(-45)" fill="url(#linear-gradient-32)"/>
        <path id="Trazado_82512" data-name="Trazado 82512" d="M520.976,2726.007a.461.461,0,0,1-.411-.669,35.543,35.543,0,0,1,31.882-19.63,36.047,36.047,0,0,1,6.439.579.461.461,0,0,1-.166.907,35.078,35.078,0,0,0-6.273-.564,34.625,34.625,0,0,0-31.058,19.123A.46.46,0,0,1,520.976,2726.007Z" transform="translate(-496.618 -2685.571)" fill="#fff" opacity="0.66"/>
        <circle id="Elipse_513" data-name="Elipse 513" cx="32.301" cy="32.301" r="32.301" transform="translate(10.979 56.661) rotate(-45)" fill="#fff" opacity="0.78"/>
        <g id="Grupo_38256" data-name="Grupo 38256" transform="translate(42.434 33.8)">
          <path id="Trazado_82513" data-name="Trazado 82513" d="M667.022,2852.416V2848.9a28.663,28.663,0,0,1-9.861-2.138,2.033,2.033,0,0,1-1.124-2.4l.893-3.274a2.049,2.049,0,0,1,2.781-1.341,23.792,23.792,0,0,0,9.1,1.917c3.529,0,6.16-1.2,6.16-3.648,0-2.213-2.033-3.528-6.937-4.844-7-1.914-12.021-4.964-12.021-11.125,0-5.562,4.067-9.808,11.124-10.945v-3.515a2.048,2.048,0,0,1,2.047-2.048h2.065a2.048,2.048,0,0,1,2.048,2.048v3.156a26.118,26.118,0,0,1,7.816,1.4,2.037,2.037,0,0,1,1.273,2.46l-.821,3.027a2.042,2.042,0,0,1-2.7,1.379,21.324,21.324,0,0,0-7.666-1.392c-4.187,0-5.382,1.734-5.382,3.29,0,1.914,2.512,3.229,7.954,4.9,7.775,2.332,11,5.562,11,11.363,0,5.323-3.947,10.107-11.6,11.3v3.932a2.048,2.048,0,0,1-2.047,2.048h-2.065A2.048,2.048,0,0,1,667.022,2852.416Z" transform="translate(-655.964 -2805.542)" fill="url(#linear-gradient-33)"/>
        </g>
      </g>
    </g>
    <g id="Grupo_38263" data-name="Grupo 38263" transform="translate(518.687 565.478)">
      <path id="Trazado_82514" data-name="Trazado 82514" d="M1624.791,1727.543c.06-.023,32.246-56.388,36.595-61.693a3.372,3.372,0,0,1,3.01-1.21l8.984,1.07,10.554,22.832-17.582-10.24c1.74,12.033-20.847,29.914-28.594,36.439a1.779,1.779,0,0,0-.14,2.592l3.092,3.237a35.518,35.518,0,0,1-17.548,9.979Z" transform="translate(-1621.175 -1596.197)" fill="url(#linear-gradient-34)"/>
      <path id="Trazado_82515" data-name="Trazado 82515" d="M1626.393,2060.735a4.555,4.555,0,0,1,2.642,2.4,2.011,2.011,0,0,1-.756,2.318c-3.25,2.328-13.971,9.846-18.918,11.318a.559.559,0,0,1-.7-.659c.254-1.149,1.075-3.445,3.721-6.8l-.237.48a.688.688,0,0,0,.952.907C1616.4,2068.822,1623.144,2064.734,1626.393,2060.735Z" transform="translate(-1608.647 -1938.108)" fill="url(#linear-gradient-35)"/>
      <path id="Trazado_82516" data-name="Trazado 82516" d="M1720.455,1781.585c.054-.035,4.883-11.669,4.937-11.7a204.861,204.861,0,0,1,18.416-56.118,3.371,3.371,0,0,1,2.7-1.794l9.014-.77,14.956,20.223-19.291-6.469c4.139,11.431-14.362,33.514-20.627,41.472a1.779,1.779,0,0,0,.387,2.566l3.684,2.545a35.515,35.515,0,0,1-15.166,13.324Z" transform="translate(-1704.302 -1636.404)" fill="url(#linear-gradient-36)"/>
      <path id="Trazado_82517" data-name="Trazado 82517" d="M1724.995,2142.248a4.553,4.553,0,0,1,3.072,1.811,2.01,2.01,0,0,1-.272,2.423c-2.712,2.938-11.689,12.47-16.236,14.913a.559.559,0,0,1-.819-.5c.016-1.177.356-3.591,2.267-7.416l-.135.518a.688.688,0,0,0,1.115.7C1716.85,2152.189,1722.623,2146.822,1724.995,2142.248Z" transform="translate(-1696.769 -2008.466)" fill="url(#linear-gradient-37)"/>
      <g id="Grupo_38259" data-name="Grupo 38259" transform="translate(36.046 70.178)">
        <path id="Trazado_82518" data-name="Trazado 82518" d="M1929.427,1677.821s8.155,12.129,8.824,17.662-2.255,7.446-10.79,8.152c-25.4,2.1-37.92-5.513-37.92-5.513-1.738-11.078-2.974-13.9-17.485-19.92,0,0,18.354,1.457,22.048.024S1929.427,1677.821,1929.427,1677.821Z" transform="translate(-1872.055 -1677.463)" fill="url(#linear-gradient-38)"/>
      </g>
      <g id="Grupo_38261" data-name="Grupo 38261" transform="translate(45.754)">
        <path id="Trazado_82519" data-name="Trazado 82519" d="M2053.669,1167.218s5.68-6.72,11.718,1.525c1.094,1.493,5.294.261,6.834,3.387a3.968,3.968,0,0,0,4.281,2.2c4.406-.813,11.608-.881,15.164,6.024,2.714,5.27.619,8.354-2.094,10.113a4.448,4.448,0,0,0-1.5,5.96c1.156,1.963,1.373,4.62-1.611,7.819-6.688,7.168-19.927-4.549-19.927-4.549l-10.511-24.839Z" transform="translate(-2038.523 -1164.637)" fill="url(#linear-gradient-39)"/>
        <path id="Trazado_82520" data-name="Trazado 82520" d="M2023.855,1391.025s-9.5-9.042-14.171-15.031a12.708,12.708,0,0,1-2.152-11.436c2.134-7.19,5.927-14.637,6.272-15.8.53-1.776,11.178-1.7,11.178-1.7s20.953,13.6,29.185,36.633l-9.245,2.878s-5.471-9.178-10.876-15.013c0,0,9.353,12.356,9.683,17.414Z" transform="translate(-1998.244 -1322.094)" fill="url(#linear-gradient-40)"/>
        <path id="Trazado_82521" data-name="Trazado 82521" d="M1997.924,1625.657l7.135-7.763,8.241,2.219s9.607,1.488,15.106,0l5.5-1.488,12.426-3.869,1.951,5.515a3.321,3.321,0,0,1-1.214,3.815,21.937,21.937,0,0,1-3.138,1.955c-1.636.716-37.7.226-37.7.226Z" transform="translate(-1990.407 -1553.159)" fill="url(#linear-gradient-41)"/>
        <path id="Trazado_82522" data-name="Trazado 82522" d="M2045.309,1247.008l7.156,13.307c-.473,2.9-7.789,2.987-8.919,1.252a1.715,1.715,0,0,1-.224-.587l-4.281-8.892c-.184-.867,2.193-3.789,2.975-4.2l2.844-1.514C2045.956,1245.787,2041.385,1245.741,2045.309,1247.008Z" transform="translate(-2025.888 -1234.846)" fill="url(#linear-gradient-42)"/>
        <g id="Grupo_38260" data-name="Grupo 38260" transform="translate(0 0.39)">
          <path id="Trazado_82523" data-name="Trazado 82523" d="M1978.571,1210.248s-.808,4.5,2.726,10.212,7.052,5.458,8.84,3.42a12.564,12.564,0,0,0,2.955-11.135C1992.118,1207.043,1979.792,1204.515,1978.571,1210.248Z" transform="translate(-1973.634 -1201.599)" fill="url(#linear-gradient-43)"/>
          <path id="Trazado_82524" data-name="Trazado 82524" d="M1958.172,1179.25s-5.722-7.516-10.115-.964l.074,2.263s-5.713-.267-5.093-5.532,5.284-8.862,11.749-7.063,10.244,3.848,10.974,8.337-2.935,3.756-2.935,3.756-1.4-3.1-3.091-3.309-1.08,2.239-1.08,2.239Z" transform="translate(-1942.991 -1167.485)" fill="url(#linear-gradient-44)"/>
          <path id="Trazado_82525" data-name="Trazado 82525" d="M2054.691,1222.114s-2.964-3.846-.266-4.644,2.6,3.769,2.422,5.468Z" transform="translate(-2038.197 -1210.55)" fill="url(#linear-gradient-45)"/>
        </g>
      </g>
      <g id="Grupo_38262" data-name="Grupo 38262" transform="translate(12.306 45.773)">
        <path id="Trazado_82526" data-name="Trazado 82526" d="M1953.778,1698.123l-.076,0-32.82-.036a1.469,1.469,0,1,1,0-2.938l32.82.036a1.469,1.469,0,0,1,.072,2.936Z" transform="translate(-1889.194 -1668.324)" fill="url(#linear-gradient-46)"/>
        <path id="Trazado_82527" data-name="Trazado 82527" d="M1700.761,1499.119h27.333a5.209,5.209,0,0,1,4.711,2.987l12.636,26.794h-33.967a3.166,3.166,0,0,1-2.945-2l-9.8-24.793A2.183,2.183,0,0,1,1700.761,1499.119Z" transform="translate(-1698.576 -1499.119)" fill="url(#linear-gradient-47)"/>
        <path id="Trazado_82528" data-name="Trazado 82528" d="M1827.732,1582.241c.592,1.84.155,3.627-.978,3.992s-2.53-.832-3.122-2.672-.155-3.627.977-3.992S1827.139,1580.4,1827.732,1582.241Z" transform="translate(-1806.291 -1568.503)" fill="url(#linear-gradient-48)"/>
      </g>
    </g>
  </g>
</svg>
