<svg xmlns="http://www.w3.org/2000/svg" xmlns:xlink="http://www.w3.org/1999/xlink" width="501" height="117" viewBox="0 0 501 117">
  <defs>
    <clipPath id="clip-path">
      <path id="Trazado_83064" data-name="Trazado 83064" d="M573.05,65.147c-.531,1.8-2.035,1.522-3.834.991a3.4,3.4,0,0,1,1.924-6.512C572.939,60.158,573.581,63.349,573.05,65.147Z" transform="translate(-566.783 -59.486)" fill="#fca89e"/>
    </clipPath>
    <clipPath id="clip-path-2">
      <path id="Trazado_83067" data-name="Trazado 83067" d="M564.425,86.1h8.516L574,73.479a1.938,1.938,0,0,0-1.931-2.1h-6.781a1.938,1.938,0,0,0-1.931,2.1Z" transform="translate(-563.355 -71.378)" fill="none"/>
    </clipPath>
    <clipPath id="clip-path-3">
      <path id="Trazado_83070" data-name="Trazado 83070" d="M564.425,86.1h8.516L574,73.479a1.938,1.938,0,0,0-1.931-2.1h-6.781a1.938,1.938,0,0,0-1.931,2.1Z" transform="translate(-563.355 -71.378)" fill="#61b3db"/>
    </clipPath>
    <clipPath id="clip-path-4">
      <path id="Trazado_83084" data-name="Trazado 83084" d="M526.425,125.644c.573,1.94,2.195,1.642,4.135,1.07a3.662,3.662,0,0,0-2.076-7.024C526.544,120.263,525.851,123.7,526.425,125.644Z" transform="translate(-526.23 -119.539)" fill="#fca89e"/>
    </clipPath>
    <clipPath id="clip-path-5">
      <path id="Trazado_83090" data-name="Trazado 83090" d="M534.332,149.635H521.076l-1.655-14.946c-.149-1.219,1.24-2.266,3.006-2.266h10.555c1.765,0,3.154,1.047,3.006,2.266Z" transform="translate(-519.41 -132.423)" fill="none"/>
    </clipPath>
  </defs>
  <g id="Grupo_40309" data-name="Grupo 40309" transform="translate(-422 -2190)">
    <path id="Trazado_84140" data-name="Trazado 84140" d="M0,0H349V117H0Z" transform="translate(574 2190)" fill="#c0dff1"/>
    <path id="Trazado_84141" data-name="Trazado 84141" d="M13.11,12.452a6.487,6.487,0,0,1-1.727,4.865A6.833,6.833,0,0,1,6.413,19H2.854V6.15H6.791a6.3,6.3,0,0,1,4.658,1.661A6.273,6.273,0,0,1,13.11,12.452Zm-1.582.053a5.173,5.173,0,0,0-1.261-3.788A5.054,5.054,0,0,0,6.519,7.442H4.348V17.708H6.167a5.532,5.532,0,0,0,4.017-1.314A5.2,5.2,0,0,0,11.528,12.5Zm8.3,6.671a4.426,4.426,0,0,1-3.371-1.3,5.036,5.036,0,0,1-1.235-3.612,5.585,5.585,0,0,1,1.147-3.7,3.81,3.81,0,0,1,3.081-1.371,3.633,3.633,0,0,1,2.865,1.191,4.564,4.564,0,0,1,1.055,3.142v.923H16.731a3.818,3.818,0,0,0,.857,2.575,2.964,2.964,0,0,0,2.29.879,7.759,7.759,0,0,0,3.076-.65v1.3a7.721,7.721,0,0,1-1.463.479A8.224,8.224,0,0,1,19.825,19.176Zm-.4-8.763a2.383,2.383,0,0,0-1.85.756,3.484,3.484,0,0,0-.813,2.092H21.8a3.208,3.208,0,0,0-.615-2.114A2.165,2.165,0,0,0,19.43,10.413Zm12.639,5.959a2.413,2.413,0,0,1-1,2.074,4.71,4.71,0,0,1-2.812.729,6.116,6.116,0,0,1-2.988-.606V17.216a7.227,7.227,0,0,0,1.49.554,6.221,6.221,0,0,0,1.534.2,3.478,3.478,0,0,0,1.758-.365,1.256,1.256,0,0,0,.127-2.074,7.673,7.673,0,0,0-1.9-.945,10.318,10.318,0,0,1-1.912-.875,2.611,2.611,0,0,1-.844-.848,2.212,2.212,0,0,1-.277-1.134A2.161,2.161,0,0,1,26.2,9.873a4.464,4.464,0,0,1,2.628-.681,7.689,7.689,0,0,1,3.041.633l-.519,1.187a6.98,6.98,0,0,0-2.628-.6,3.023,3.023,0,0,0-1.564.325,1.006,1.006,0,0,0-.527.9,1.092,1.092,0,0,0,.2.659,1.952,1.952,0,0,0,.637.519,14.24,14.24,0,0,0,1.688.712,6.3,6.3,0,0,1,2.316,1.257A2.216,2.216,0,0,1,32.068,16.372ZM40.365,19l-.29-1.371H40a4.053,4.053,0,0,1-1.437,1.226,4.38,4.38,0,0,1-1.789.321,3.217,3.217,0,0,1-2.246-.738,2.693,2.693,0,0,1-.813-2.1q0-2.918,4.667-3.059l1.635-.053v-.6a2.442,2.442,0,0,0-.488-1.674,2.006,2.006,0,0,0-1.56-.541,6.357,6.357,0,0,0-2.725.738L34.8,10.035a6.856,6.856,0,0,1,1.56-.606,6.757,6.757,0,0,1,1.7-.22,3.669,3.669,0,0,1,2.553.765,3.192,3.192,0,0,1,.831,2.452V19Zm-3.3-1.028a2.961,2.961,0,0,0,2.14-.747,2.764,2.764,0,0,0,.778-2.092v-.87l-1.459.062a5.307,5.307,0,0,0-2.509.541,1.63,1.63,0,0,0-.769,1.49,1.5,1.5,0,0,0,.479,1.2A1.988,1.988,0,0,0,37.069,17.972Zm11.777-8.78A5.709,5.709,0,0,1,50,9.3l-.2,1.354a4.97,4.97,0,0,0-1.055-.132,2.567,2.567,0,0,0-2,.949,3.461,3.461,0,0,0-.831,2.364V19H44.452V9.367h1.2l.167,1.784h.07A4.234,4.234,0,0,1,47.186,9.7,2.908,2.908,0,0,1,48.847,9.191Zm7.348,0a5.709,5.709,0,0,1,1.151.105l-.2,1.354a4.97,4.97,0,0,0-1.055-.132,2.567,2.567,0,0,0-2,.949,3.461,3.461,0,0,0-.831,2.364V19H51.8V9.367H53l.167,1.784h.07A4.234,4.234,0,0,1,54.533,9.7,2.908,2.908,0,0,1,56.194,9.191ZM67.1,14.175a5.314,5.314,0,0,1-1.187,3.678,4.179,4.179,0,0,1-3.278,1.323,4.342,4.342,0,0,1-2.294-.606,4,4,0,0,1-1.547-1.74,6.065,6.065,0,0,1-.545-2.654,5.306,5.306,0,0,1,1.178-3.669A4.165,4.165,0,0,1,62.7,9.191a4.075,4.075,0,0,1,3.212,1.345A5.291,5.291,0,0,1,67.1,14.175Zm-7.339,0a4.572,4.572,0,0,0,.738,2.813,2.93,2.93,0,0,0,4.346,0,4.549,4.549,0,0,0,.743-2.817,4.476,4.476,0,0,0-.743-2.791,2.609,2.609,0,0,0-2.193-.954,2.568,2.568,0,0,0-2.162.94A4.526,4.526,0,0,0,59.763,14.175ZM71.118,19H69.659V5.324h1.459Zm4.553,0H74.212V5.324h1.459Zm11.408-4.825a5.314,5.314,0,0,1-1.187,3.678,4.179,4.179,0,0,1-3.278,1.323,4.342,4.342,0,0,1-2.294-.606,4,4,0,0,1-1.547-1.74,6.065,6.065,0,0,1-.545-2.654,5.306,5.306,0,0,1,1.178-3.669,4.165,4.165,0,0,1,3.27-1.314,4.075,4.075,0,0,1,3.212,1.345A5.291,5.291,0,0,1,87.079,14.175Zm-7.339,0a4.572,4.572,0,0,0,.738,2.813,2.93,2.93,0,0,0,4.346,0,4.549,4.549,0,0,0,.743-2.817,4.476,4.476,0,0,0-.743-2.791,2.609,2.609,0,0,0-2.193-.954,2.568,2.568,0,0,0-2.162.94A4.526,4.526,0,0,0,79.74,14.175Zm21.129,3.533h-.079a3.428,3.428,0,0,1-3.023,1.468,3.577,3.577,0,0,1-2.94-1.292,5.687,5.687,0,0,1-1.05-3.674,5.783,5.783,0,0,1,1.055-3.7,3.549,3.549,0,0,1,2.936-1.318,3.5,3.5,0,0,1,3.006,1.424h.114l-.062-.694-.035-.677V5.324h1.459V19h-1.187Zm-2.918.246a2.656,2.656,0,0,0,2.167-.813,4.108,4.108,0,0,0,.672-2.624V14.21a4.834,4.834,0,0,0-.681-2.922,2.587,2.587,0,0,0-2.175-.875,2.233,2.233,0,0,0-1.964,1,4.96,4.96,0,0,0-.681,2.817,4.755,4.755,0,0,0,.677,2.786A2.292,2.292,0,0,0,97.951,17.954Zm11.461,1.222a4.426,4.426,0,0,1-3.371-1.3,5.036,5.036,0,0,1-1.235-3.612,5.585,5.585,0,0,1,1.147-3.7,3.81,3.81,0,0,1,3.081-1.371,3.633,3.633,0,0,1,2.865,1.191,4.564,4.564,0,0,1,1.055,3.142v.923h-6.636a3.818,3.818,0,0,0,.857,2.575,2.964,2.964,0,0,0,2.29.879,7.759,7.759,0,0,0,3.076-.65v1.3a7.721,7.721,0,0,1-1.463.479A8.224,8.224,0,0,1,109.412,19.176Zm-.4-8.763a2.383,2.383,0,0,0-1.85.756,3.484,3.484,0,0,0-.813,2.092h5.036a3.208,3.208,0,0,0-.615-2.114A2.165,2.165,0,0,0,109.017,10.413Zm15.5-1.222a5.709,5.709,0,0,1,1.151.105l-.2,1.354a4.97,4.97,0,0,0-1.055-.132,2.567,2.567,0,0,0-2,.949,3.461,3.461,0,0,0-.831,2.364V19h-1.459V9.367h1.2l.167,1.784h.07a4.234,4.234,0,0,1,1.292-1.45A2.908,2.908,0,0,1,124.512,9.191Zm6.662,9.984a4.426,4.426,0,0,1-3.371-1.3,5.036,5.036,0,0,1-1.235-3.612,5.585,5.585,0,0,1,1.147-3.7A3.81,3.81,0,0,1,130.8,9.191a3.633,3.633,0,0,1,2.865,1.191,4.564,4.564,0,0,1,1.055,3.142v.923H128.08a3.818,3.818,0,0,0,.857,2.575,2.964,2.964,0,0,0,2.29.879,7.759,7.759,0,0,0,3.076-.65v1.3a7.721,7.721,0,0,1-1.463.479A8.224,8.224,0,0,1,131.174,19.176Zm-.4-8.763a2.383,2.383,0,0,0-1.85.756,3.484,3.484,0,0,0-.813,2.092h5.036a3.208,3.208,0,0,0-.615-2.114A2.165,2.165,0,0,0,130.778,10.413Zm10.274,8.763a4.111,4.111,0,0,1-3.239-1.288,5.3,5.3,0,0,1-1.147-3.643,5.46,5.46,0,0,1,1.165-3.735,4.193,4.193,0,0,1,3.318-1.318,6.584,6.584,0,0,1,1.389.149,4.575,4.575,0,0,1,1.09.352l-.448,1.239a6.86,6.86,0,0,0-1.055-.321,4.709,4.709,0,0,0-1.011-.127q-2.936,0-2.936,3.744a4.458,4.458,0,0,0,.716,2.725,2.492,2.492,0,0,0,2.123.949,6.49,6.49,0,0,0,2.47-.519v1.292A5.264,5.264,0,0,1,141.053,19.176Zm6.091-9.809v6.249a2.514,2.514,0,0,0,.536,1.758,2.184,2.184,0,0,0,1.679.58,2.739,2.739,0,0,0,2.21-.826,4.168,4.168,0,0,0,.7-2.7V9.367h1.459V19h-1.2l-.211-1.292h-.079a2.908,2.908,0,0,1-1.244,1.09,4.18,4.18,0,0,1-1.815.378,3.682,3.682,0,0,1-2.632-.835,3.554,3.554,0,0,1-.875-2.672v-6.3Zm14.071-.176a5.709,5.709,0,0,1,1.151.105l-.2,1.354a4.97,4.97,0,0,0-1.055-.132,2.567,2.567,0,0,0-2,.949,3.461,3.461,0,0,0-.831,2.364V19H156.82V9.367h1.2l.167,1.784h.07a4.234,4.234,0,0,1,1.292-1.45A2.908,2.908,0,0,1,161.215,9.191Zm9.167,7.181a2.413,2.413,0,0,1-1,2.074,4.71,4.71,0,0,1-2.812.729,6.116,6.116,0,0,1-2.988-.606V17.216a7.227,7.227,0,0,0,1.49.554,6.221,6.221,0,0,0,1.534.2,3.478,3.478,0,0,0,1.758-.365,1.256,1.256,0,0,0,.127-2.074,7.673,7.673,0,0,0-1.9-.945,10.318,10.318,0,0,1-1.912-.875,2.611,2.611,0,0,1-.844-.848,2.212,2.212,0,0,1-.277-1.134,2.161,2.161,0,0,1,.958-1.859,4.464,4.464,0,0,1,2.628-.681,7.689,7.689,0,0,1,3.041.633l-.519,1.187a6.98,6.98,0,0,0-2.628-.6,3.023,3.023,0,0,0-1.564.325,1.006,1.006,0,0,0-.527.9,1.092,1.092,0,0,0,.2.659,1.952,1.952,0,0,0,.637.519,14.24,14.24,0,0,0,1.688.712,6.3,6.3,0,0,1,2.316,1.257A2.216,2.216,0,0,1,170.382,16.372Zm10.688-2.2a5.314,5.314,0,0,1-1.187,3.678,4.179,4.179,0,0,1-3.278,1.323,4.342,4.342,0,0,1-2.294-.606,4,4,0,0,1-1.547-1.74,6.065,6.065,0,0,1-.545-2.654,5.306,5.306,0,0,1,1.178-3.669,4.165,4.165,0,0,1,3.27-1.314,4.075,4.075,0,0,1,3.212,1.345A5.291,5.291,0,0,1,181.069,14.175Zm-7.339,0a4.572,4.572,0,0,0,.738,2.813,2.93,2.93,0,0,0,4.346,0,4.549,4.549,0,0,0,.743-2.817,4.476,4.476,0,0,0-.743-2.791,2.609,2.609,0,0,0-2.193-.954,2.568,2.568,0,0,0-2.162.94A4.526,4.526,0,0,0,173.73,14.175ZM194.895,19V12.769a2.514,2.514,0,0,0-.536-1.758,2.184,2.184,0,0,0-1.679-.58,2.751,2.751,0,0,0-2.219.826,4.184,4.184,0,0,0-.7,2.707V19H188.3V5.324h1.459v4.14a9.02,9.02,0,0,1-.07,1.239h.088a2.976,2.976,0,0,1,1.226-1.094,3.986,3.986,0,0,1,1.815-.4,3.717,3.717,0,0,1,2.65.839,3.535,3.535,0,0,1,.883,2.667V19Zm5.827-9.633v6.249a2.514,2.514,0,0,0,.536,1.758,2.184,2.184,0,0,0,1.679.58,2.739,2.739,0,0,0,2.21-.826,4.168,4.168,0,0,0,.7-2.7V9.367H207.3V19h-1.2l-.211-1.292h-.079a2.908,2.908,0,0,1-1.244,1.09,4.18,4.18,0,0,1-1.815.378,3.682,3.682,0,0,1-2.632-.835,3.554,3.554,0,0,1-.875-2.672v-6.3ZM222.677,19V12.733a2.6,2.6,0,0,0-.492-1.727,1.9,1.9,0,0,0-1.529-.576,2.469,2.469,0,0,0-2.013.782,3.718,3.718,0,0,0-.65,2.408V19h-1.459V12.733a2.6,2.6,0,0,0-.492-1.727,1.915,1.915,0,0,0-1.538-.576,2.382,2.382,0,0,0-2.008.822,4.447,4.447,0,0,0-.637,2.694V19H210.4V9.367h1.187l.237,1.318h.07a2.867,2.867,0,0,1,1.165-1.1,3.558,3.558,0,0,1,1.683-.4,2.862,2.862,0,0,1,2.953,1.635h.07a3.072,3.072,0,0,1,1.248-1.2,3.873,3.873,0,0,1,1.863-.439,3.262,3.262,0,0,1,2.448.839,3.755,3.755,0,0,1,.813,2.685V19Zm10.389,0-.29-1.371h-.07a4.053,4.053,0,0,1-1.437,1.226,4.38,4.38,0,0,1-1.789.321,3.217,3.217,0,0,1-2.246-.738,2.693,2.693,0,0,1-.813-2.1q0-2.918,4.667-3.059l1.635-.053v-.6a2.442,2.442,0,0,0-.488-1.674,2.006,2.006,0,0,0-1.56-.541,6.357,6.357,0,0,0-2.725.738l-.448-1.116a6.856,6.856,0,0,1,1.56-.606,6.757,6.757,0,0,1,1.7-.22,3.669,3.669,0,0,1,2.553.765,3.192,3.192,0,0,1,.831,2.452V19Zm-3.3-1.028a2.961,2.961,0,0,0,2.14-.747,2.764,2.764,0,0,0,.778-2.092v-.87l-1.459.062a5.307,5.307,0,0,0-2.509.541,1.63,1.63,0,0,0-.769,1.49,1.5,1.5,0,0,0,.479,1.2A1.988,1.988,0,0,0,229.77,17.972ZM243.744,19V12.769a2.514,2.514,0,0,0-.536-1.758,2.184,2.184,0,0,0-1.679-.58,2.769,2.769,0,0,0-2.215.817,4.127,4.127,0,0,0-.7,2.7V19h-1.459V9.367h1.187l.237,1.318h.07a2.979,2.979,0,0,1,1.257-1.1,4.084,4.084,0,0,1,1.8-.391,3.659,3.659,0,0,1,2.619.839,3.572,3.572,0,0,1,.879,2.685V19Zm12.771-4.825a5.314,5.314,0,0,1-1.187,3.678,4.179,4.179,0,0,1-3.278,1.323,4.342,4.342,0,0,1-2.294-.606,4,4,0,0,1-1.547-1.74,6.065,6.065,0,0,1-.545-2.654,5.306,5.306,0,0,1,1.178-3.669,4.165,4.165,0,0,1,3.27-1.314,4.075,4.075,0,0,1,3.212,1.345A5.291,5.291,0,0,1,256.515,14.175Zm-7.339,0a4.572,4.572,0,0,0,.738,2.813,2.93,2.93,0,0,0,4.346,0A4.549,4.549,0,0,0,255,14.175a4.476,4.476,0,0,0-.743-2.791,2.609,2.609,0,0,0-2.193-.954,2.568,2.568,0,0,0-2.162.94A4.526,4.526,0,0,0,249.176,14.175Zm18.642,5a4.426,4.426,0,0,1-3.371-1.3,5.036,5.036,0,0,1-1.235-3.612,5.585,5.585,0,0,1,1.147-3.7,3.81,3.81,0,0,1,3.081-1.371,3.633,3.633,0,0,1,2.865,1.191,4.564,4.564,0,0,1,1.055,3.142v.923h-6.636a3.818,3.818,0,0,0,.857,2.575,2.964,2.964,0,0,0,2.29.879,7.759,7.759,0,0,0,3.076-.65v1.3a7.721,7.721,0,0,1-1.463.479A8.224,8.224,0,0,1,267.817,19.176Zm-.4-8.763a2.383,2.383,0,0,0-1.85.756,3.484,3.484,0,0,0-.813,2.092h5.036a3.208,3.208,0,0,0-.615-2.114A2.165,2.165,0,0,0,267.422,10.413ZM280.438,19V12.769a2.514,2.514,0,0,0-.536-1.758,2.184,2.184,0,0,0-1.679-.58,2.769,2.769,0,0,0-2.215.817,4.127,4.127,0,0,0-.7,2.7V19h-1.459V9.367h1.187l.237,1.318h.07a2.979,2.979,0,0,1,1.257-1.1,4.084,4.084,0,0,1,1.8-.391,3.659,3.659,0,0,1,2.619.839,3.572,3.572,0,0,1,.879,2.685V19Zm13.614.176a4.169,4.169,0,0,1-1.718-.347,3.231,3.231,0,0,1-1.305-1.068h-.105a12.921,12.921,0,0,1,.105,1.6v3.964H289.57V9.367h1.187l.2,1.318h.07a3.388,3.388,0,0,1,1.31-1.143,3.981,3.981,0,0,1,1.714-.352,3.56,3.56,0,0,1,2.958,1.31,5.766,5.766,0,0,1,1.042,3.674,5.732,5.732,0,0,1-1.059,3.687A3.566,3.566,0,0,1,294.053,19.176Zm-.211-8.745a2.585,2.585,0,0,0-2.136.817,4.206,4.206,0,0,0-.677,2.6v.325a4.821,4.821,0,0,0,.677,2.9,2.574,2.574,0,0,0,2.171.875,2.257,2.257,0,0,0,1.956-1.011,4.793,4.793,0,0,0,.708-2.786,4.613,4.613,0,0,0-.708-2.764A2.327,2.327,0,0,0,293.842,10.431ZM305,9.191a5.709,5.709,0,0,1,1.151.105l-.2,1.354a4.97,4.97,0,0,0-1.055-.132,2.567,2.567,0,0,0-2,.949,3.461,3.461,0,0,0-.831,2.364V19H300.6V9.367h1.2l.167,1.784h.07a4.234,4.234,0,0,1,1.292-1.45A2.908,2.908,0,0,1,305,9.191ZM315.9,14.175a5.314,5.314,0,0,1-1.187,3.678,4.179,4.179,0,0,1-3.278,1.323,4.342,4.342,0,0,1-2.294-.606,4,4,0,0,1-1.547-1.74,6.065,6.065,0,0,1-.545-2.654,5.306,5.306,0,0,1,1.178-3.669,4.165,4.165,0,0,1,3.27-1.314,4.075,4.075,0,0,1,3.212,1.345A5.291,5.291,0,0,1,315.9,14.175Zm-7.339,0a4.572,4.572,0,0,0,.738,2.813,2.93,2.93,0,0,0,4.346,0,4.549,4.549,0,0,0,.743-2.817,4.476,4.476,0,0,0-.743-2.791,2.609,2.609,0,0,0-2.193-.954,2.568,2.568,0,0,0-2.162.94A4.526,4.526,0,0,0,308.563,14.175ZM112.308,41.708h-.079a3.428,3.428,0,0,1-3.023,1.468,3.577,3.577,0,0,1-2.94-1.292,5.687,5.687,0,0,1-1.05-3.674,5.783,5.783,0,0,1,1.055-3.7,3.549,3.549,0,0,1,2.936-1.318,3.5,3.5,0,0,1,3.006,1.424h.114l-.062-.694-.035-.677v-3.92h1.459V43H112.5Zm-2.918.246a2.656,2.656,0,0,0,2.167-.813,4.108,4.108,0,0,0,.672-2.624V38.21a4.834,4.834,0,0,0-.681-2.922,2.587,2.587,0,0,0-2.175-.875,2.233,2.233,0,0,0-1.964,1,4.96,4.96,0,0,0-.681,2.817,4.755,4.755,0,0,0,.677,2.786A2.292,2.292,0,0,0,109.39,41.954Zm11.461,1.222a4.426,4.426,0,0,1-3.371-1.3,5.036,5.036,0,0,1-1.235-3.612,5.585,5.585,0,0,1,1.147-3.7,3.81,3.81,0,0,1,3.081-1.371,3.633,3.633,0,0,1,2.865,1.191,4.564,4.564,0,0,1,1.055,3.142v.923h-6.636a3.818,3.818,0,0,0,.857,2.575,2.964,2.964,0,0,0,2.29.879,7.759,7.759,0,0,0,3.076-.65v1.3a7.721,7.721,0,0,1-1.463.479A8.224,8.224,0,0,1,120.851,43.176Zm-.4-8.763a2.383,2.383,0,0,0-1.85.756,3.484,3.484,0,0,0-.813,2.092h5.036a3.208,3.208,0,0,0-.615-2.114A2.165,2.165,0,0,0,120.456,34.413ZM133.015,43h-1.459V29.324h1.459Zm9.018,0-.29-1.371h-.07a4.053,4.053,0,0,1-1.437,1.226,4.38,4.38,0,0,1-1.789.321,3.217,3.217,0,0,1-2.246-.738,2.693,2.693,0,0,1-.813-2.1q0-2.918,4.667-3.059l1.635-.053v-.6a2.442,2.442,0,0,0-.488-1.674,2.006,2.006,0,0,0-1.56-.541,6.357,6.357,0,0,0-2.725.738l-.448-1.116a6.856,6.856,0,0,1,1.56-.606,6.757,6.757,0,0,1,1.7-.22,3.669,3.669,0,0,1,2.553.765,3.192,3.192,0,0,1,.831,2.452V43Zm-3.3-1.028a2.961,2.961,0,0,0,2.14-.747,2.764,2.764,0,0,0,.778-2.092v-.87l-1.459.062a5.307,5.307,0,0,0-2.509.541,1.63,1.63,0,0,0-.769,1.49,1.5,1.5,0,0,0,.479,1.2A1.988,1.988,0,0,0,138.737,41.972Zm15.908,1.2a4.111,4.111,0,0,1-3.239-1.288,5.3,5.3,0,0,1-1.147-3.643,5.46,5.46,0,0,1,1.165-3.735,4.193,4.193,0,0,1,3.318-1.318,6.584,6.584,0,0,1,1.389.149,4.575,4.575,0,0,1,1.09.352l-.448,1.239a6.86,6.86,0,0,0-1.055-.321,4.709,4.709,0,0,0-1.011-.127q-2.936,0-2.936,3.744a4.458,4.458,0,0,0,.716,2.725,2.492,2.492,0,0,0,2.123.949,6.49,6.49,0,0,0,2.47-.519v1.292A5.264,5.264,0,0,1,154.645,43.176ZM165.289,43,165,41.629h-.07a4.053,4.053,0,0,1-1.437,1.226,4.38,4.38,0,0,1-1.789.321,3.217,3.217,0,0,1-2.246-.738,2.693,2.693,0,0,1-.813-2.1q0-2.918,4.667-3.059l1.635-.053v-.6a2.442,2.442,0,0,0-.488-1.674,2.006,2.006,0,0,0-1.56-.541,6.357,6.357,0,0,0-2.725.738l-.448-1.116a6.856,6.856,0,0,1,1.56-.606,6.757,6.757,0,0,1,1.7-.22,3.669,3.669,0,0,1,2.553.765,3.192,3.192,0,0,1,.831,2.452V43Zm-3.3-1.028a2.961,2.961,0,0,0,2.14-.747,2.764,2.764,0,0,0,.778-2.092v-.87l-1.459.062a5.307,5.307,0,0,0-2.509.541,1.63,1.63,0,0,0-.769,1.49,1.5,1.5,0,0,0,.479,1.2A1.988,1.988,0,0,0,161.993,41.972ZM170.834,43h-1.459V29.324h1.459Zm4.553,0h-1.459V33.367h1.459Zm-1.582-12.243a.969.969,0,0,1,.246-.734.911.911,0,0,1,1.222,0,.951.951,0,0,1,.255.729.966.966,0,0,1-.255.734.893.893,0,0,1-1.222,0A.987.987,0,0,1,173.805,30.757Zm11.232,10.951h-.079a3.428,3.428,0,0,1-3.023,1.468A3.577,3.577,0,0,1,179,41.884a5.687,5.687,0,0,1-1.05-3.674A5.783,5.783,0,0,1,179,34.51a3.549,3.549,0,0,1,2.936-1.318,3.5,3.5,0,0,1,3.006,1.424h.114l-.062-.694-.035-.677v-3.92h1.459V43h-1.187Zm-2.918.246a2.656,2.656,0,0,0,2.167-.813,4.108,4.108,0,0,0,.672-2.624V38.21a4.834,4.834,0,0,0-.681-2.922,2.587,2.587,0,0,0-2.175-.875,2.233,2.233,0,0,0-1.964,1,4.96,4.96,0,0,0-.681,2.817,4.755,4.755,0,0,0,.677,2.786A2.292,2.292,0,0,0,182.12,41.954ZM195.435,43l-.29-1.371h-.07a4.053,4.053,0,0,1-1.437,1.226,4.38,4.38,0,0,1-1.789.321,3.217,3.217,0,0,1-2.246-.738,2.693,2.693,0,0,1-.813-2.1q0-2.918,4.667-3.059l1.635-.053v-.6a2.442,2.442,0,0,0-.488-1.674,2.006,2.006,0,0,0-1.56-.541,6.357,6.357,0,0,0-2.725.738l-.448-1.116a6.856,6.856,0,0,1,1.56-.606,6.757,6.757,0,0,1,1.7-.22,3.669,3.669,0,0,1,2.553.765,3.192,3.192,0,0,1,.831,2.452V43Zm-3.3-1.028a2.961,2.961,0,0,0,2.14-.747,2.764,2.764,0,0,0,.778-2.092v-.87l-1.459.062a5.307,5.307,0,0,0-2.509.541,1.63,1.63,0,0,0-.769,1.49,1.5,1.5,0,0,0,.479,1.2A1.988,1.988,0,0,0,192.139,41.972Zm13.939-.264H206a3.428,3.428,0,0,1-3.023,1.468,3.577,3.577,0,0,1-2.94-1.292,5.687,5.687,0,0,1-1.05-3.674,5.783,5.783,0,0,1,1.055-3.7,3.549,3.549,0,0,1,2.936-1.318,3.5,3.5,0,0,1,3.006,1.424h.114l-.062-.694L206,33.244v-3.92h1.459V43h-1.187Zm-2.918.246a2.656,2.656,0,0,0,2.167-.813A4.108,4.108,0,0,0,206,38.518V38.21a4.834,4.834,0,0,0-.681-2.922,2.587,2.587,0,0,0-2.175-.875,2.233,2.233,0,0,0-1.964,1,4.96,4.96,0,0,0-.681,2.817,4.755,4.755,0,0,0,.677,2.786A2.292,2.292,0,0,0,203.161,41.954Zm7.181.114a1.309,1.309,0,0,1,.268-.892.972.972,0,0,1,.769-.3,1.04,1.04,0,0,1,.8.3,1.255,1.255,0,0,1,.286.892,1.233,1.233,0,0,1-.29.879,1.153,1.153,0,0,1-1.534.031A1.2,1.2,0,0,1,210.341,42.068Z" transform="translate(589 2220)" fill="#00223d"/>
    <g id="Grupo_39054" data-name="Grupo 39054" transform="translate(422 2190)">
      <g id="Grupo_38929" data-name="Grupo 38929" transform="translate(0 70.646)">
        <rect id="Rectángulo_32673" data-name="Rectángulo 32673" width="26.644" height="38.529" fill="#2b79e6"/>
      </g>
      <g id="Grupo_38930" data-name="Grupo 38930" transform="translate(49.258 0)">
        <rect id="Rectángulo_32674" data-name="Rectángulo 32674" width="26.644" height="109.176" fill="#ff645f"/>
      </g>
      <g id="Grupo_38931" data-name="Grupo 38931" transform="translate(98.516 50.391)">
        <rect id="Rectángulo_32675" data-name="Rectángulo 32675" width="26.644" height="58.784" fill="#29266b"/>
      </g>
      <g id="Grupo_38966" data-name="Grupo 38966" transform="translate(0.792 38.623)">
        <g id="Grupo_38933" data-name="Grupo 38933" transform="translate(1.46 7.281)">
          <g id="Grupo_38932" data-name="Grupo 38932">
            <path id="Trazado_83047" data-name="Trazado 83047" d="M465.955,101.246c-1.78.255-6.038,10.253-4.767,12.541s8.262,4.958,8.262,4.958l-.381-3.94s-4.788-2.034-4.406-3.305a60.381,60.381,0,0,1,3.135-6.016Z" transform="translate(-460.954 -101.246)" fill="#ff645f"/>
          </g>
        </g>
        <g id="Grupo_38935" data-name="Grupo 38935" transform="translate(14.882 7.281)">
          <g id="Grupo_38934" data-name="Grupo 38934">
            <path id="Trazado_83048" data-name="Trazado 83048" d="M483.948,101.246c1.779.255,6.041,10.253,4.77,12.541s-8.262,4.958-8.262,4.958l.381-3.94s4.788-2.034,4.406-3.305a60.377,60.377,0,0,0-3.135-6.016Z" transform="translate(-480.456 -101.246)" fill="#ff645f"/>
          </g>
        </g>
        <g id="Grupo_38937" data-name="Grupo 38937" transform="translate(4.951 6.994)">
          <g id="Grupo_38936" data-name="Grupo 38936">
            <path id="Trazado_83049" data-name="Trazado 83049" d="M468.631,100.829h9.774a2.55,2.55,0,0,1,2.6,2.582s-1.864,7.61-1.886,10.162c-.012,1.4.441,5.58.441,5.58H467.477s.557-4.369.546-5.834c-.019-2.492-1.994-9.908-1.994-9.908A2.55,2.55,0,0,1,468.631,100.829Z" transform="translate(-466.027 -100.829)" fill="#ff645f"/>
          </g>
        </g>
        <g id="Grupo_38940" data-name="Grupo 38940" transform="translate(11.194 4.146)">
          <g id="Grupo_38939" data-name="Grupo 38939">
            <g id="Grupo_38938" data-name="Grupo 38938">
              <path id="Trazado_83050" data-name="Trazado 83050" d="M477.6,101.45a1.121,1.121,0,0,1-1.216.973c-1.2-.057-1.285-.973-1.285-.973V96.691h2.5Z" transform="translate(-475.097 -96.691)" fill="#fca89e"/>
            </g>
          </g>
        </g>
        <g id="Grupo_38943" data-name="Grupo 38943" transform="translate(9.357 0.849)">
          <g id="Grupo_38942" data-name="Grupo 38942">
            <g id="Grupo_38941" data-name="Grupo 38941">
              <path id="Trazado_83051" data-name="Trazado 83051" d="M478.6,94.989c0,1.706-1.382,4.246-3.088,4.246s-3.088-2.54-3.088-4.246a3.088,3.088,0,0,1,6.175,0Z" transform="translate(-472.428 -91.901)" fill="#fca89e"/>
            </g>
          </g>
        </g>
        <g id="Grupo_38945" data-name="Grupo 38945" transform="translate(4.257 16.594)">
          <g id="Grupo_38944" data-name="Grupo 38944">
            <rect id="Rectángulo_32676" data-name="Rectángulo 32676" width="16.375" height="9.762" fill="#29266b"/>
          </g>
        </g>
        <g id="Grupo_38948" data-name="Grupo 38948" transform="translate(10.939 19.802)">
          <g id="Grupo_38947" data-name="Grupo 38947">
            <g id="Grupo_38946" data-name="Grupo 38946">
              <path id="Trazado_83052" data-name="Trazado 83052" d="M477.738,120.944a1.505,1.505,0,1,1-1.505-1.506A1.505,1.505,0,0,1,477.738,120.944Z" transform="translate(-474.727 -119.438)" fill="#0c5c9b"/>
            </g>
          </g>
        </g>
        <g id="Grupo_38951" data-name="Grupo 38951" transform="translate(7.829 31.565)">
          <g id="Grupo_38950" data-name="Grupo 38950">
            <g id="Grupo_38949" data-name="Grupo 38949">
              <path id="Trazado_83053" data-name="Trazado 83053" d="M473.728,136.528a4.148,4.148,0,0,1-1.142.634c-.878.368-2.611,1.054-2.352,1.811.35,1.017,1.573.943,2.384.7A15.626,15.626,0,0,0,476.2,137.9Z" transform="translate(-470.208 -136.528)" fill="#2b79e6"/>
            </g>
          </g>
        </g>
        <g id="Grupo_38954" data-name="Grupo 38954" transform="translate(11.404 22.678)">
          <g id="Grupo_38953" data-name="Grupo 38953">
            <g id="Grupo_38952" data-name="Grupo 38952">
              <path id="Trazado_83054" data-name="Trazado 83054" d="M477.449,129.848c2.973-2.169,4.526-3.773,7.863-5.8a2.514,2.514,0,0,1,2.716-.086c1.173.46,1.047,2.478.407,3.319-1.92,2.523-9.318,6.009-10.814,6.536-.644.228-2.924-1.692-2-2.611A17.133,17.133,0,0,1,477.449,129.848Z" transform="translate(-475.403 -123.616)" fill="#e6f9ff"/>
            </g>
          </g>
        </g>
        <g id="Grupo_38957" data-name="Grupo 38957" transform="translate(12.079 30.789)">
          <g id="Grupo_38956" data-name="Grupo 38956">
            <g id="Grupo_38955" data-name="Grupo 38955">
              <path id="Trazado_83055" data-name="Trazado 83055" d="M476.383,137.7a9.916,9.916,0,0,0,1.568,1.61c1.008.779,1.7,1.037,2.521.657,1.186-.551.095-1.716-.827-2.637a12.919,12.919,0,0,0-2.341-1.93Z" transform="translate(-476.383 -135.401)" fill="#2b79e6"/>
            </g>
          </g>
        </g>
        <g id="Grupo_38959" data-name="Grupo 38959" transform="translate(9.116)">
          <g id="Grupo_38958" data-name="Grupo 38958">
            <path id="Trazado_83056" data-name="Trazado 83056" d="M472.377,95.206a11.651,11.651,0,0,0,1.4-2.447c.339-1.017.54.063,2,1.176a14.883,14.883,0,0,0,2.69,1.3s.44-1.932-.244-2.924c-1.621-2.351-4.935-2.2-5.942.551A2.776,2.776,0,0,0,472.377,95.206Z" transform="translate(-472.078 -90.668)" fill="#29266b"/>
          </g>
        </g>
        <g id="Grupo_38962" data-name="Grupo 38962" transform="translate(10.464 30.24)">
          <g id="Grupo_38961" data-name="Grupo 38961">
            <g id="Grupo_38960" data-name="Grupo 38960">
              <path id="Trazado_83057" data-name="Trazado 83057" d="M475.8,134.6l1.269,1.048a3.042,3.042,0,0,1,.663.773c.414.772-1.015,2.339-1.942,1.418s-1.755-1.915-1.755-1.915Z" transform="translate(-474.037 -134.603)" fill="#f59762"/>
            </g>
          </g>
        </g>
        <g id="Grupo_38965" data-name="Grupo 38965" transform="translate(0 22.578)">
          <g id="Grupo_38964" data-name="Grupo 38964">
            <g id="Grupo_38963" data-name="Grupo 38963">
              <path id="Trazado_83058" data-name="Trazado 83058" d="M467.283,132.788c-3.456-1.739-5.574-2.364-7.794-5.494a3.718,3.718,0,0,1-.573-2.766c.271-.8,1.441-1.282,2.818-.953,1.156.275,8.918,6.356,10.129,7.5.522.493-1.07,2.964-2.373,2.538A13,13,0,0,1,467.283,132.788Z" transform="translate(-458.834 -123.471)" fill="#cdeefc"/>
            </g>
          </g>
        </g>
      </g>
      <g id="Grupo_39021" data-name="Grupo 39021" transform="translate(98.916 11.084)">
        <g id="Grupo_38968" data-name="Grupo 38968" transform="translate(5.998 22.936)">
          <g id="Grupo_38967" data-name="Grupo 38967">
            <path id="Trazado_83059" data-name="Trazado 83059" d="M576.322,92.81H564.91v2.739a2.684,2.684,0,0,0,2.684,2.684h8.728a2.684,2.684,0,0,0,2.685-2.684v-.054A2.685,2.685,0,0,0,576.322,92.81Z" transform="translate(-564.91 -92.81)" fill="#6486ce"/>
          </g>
        </g>
        <g id="Grupo_38971" data-name="Grupo 38971" transform="translate(4.927 8.185)">
          <g id="Grupo_38970" data-name="Grupo 38970">
            <g id="Grupo_38969" data-name="Grupo 38969">
              <path id="Trazado_83060" data-name="Trazado 83060" d="M564.425,86.1h8.516L574,73.479a1.938,1.938,0,0,0-1.931-2.1h-6.781a1.938,1.938,0,0,0-1.931,2.1Z" transform="translate(-563.355 -71.378)" fill="#ff645f"/>
            </g>
          </g>
        </g>
        <g id="Grupo_38974" data-name="Grupo 38974" transform="translate(8.974 5.663)">
          <g id="Grupo_38973" data-name="Grupo 38973">
            <g id="Grupo_38972" data-name="Grupo 38972">
              <path id="Trazado_83061" data-name="Trazado 83061" d="M569.979,71.021H571.3a.8.8,0,0,0,.744-.838V68.552a.8.8,0,0,0-.744-.838h-1.323a.8.8,0,0,0-.745.838v1.631A.8.8,0,0,0,569.979,71.021Z" transform="translate(-569.234 -67.714)" fill="#fca89e"/>
            </g>
          </g>
        </g>
        <g id="Grupo_38978" data-name="Grupo 38978" transform="translate(7.287)">
          <path id="Trazado_83062" data-name="Trazado 83062" d="M573.05,65.147c-.531,1.8-2.035,1.522-3.834.991a3.4,3.4,0,0,1,1.924-6.512C572.939,60.158,573.581,63.349,573.05,65.147Z" transform="translate(-566.783 -59.486)" fill="#fca89e"/>
          <g id="Grupo_38977" data-name="Grupo 38977" clip-path="url(#clip-path)">
            <g id="Grupo_38976" data-name="Grupo 38976" transform="translate(-0.792 -0.873)">
              <g id="Grupo_38975" data-name="Grupo 38975">
                <path id="Trazado_83063" data-name="Trazado 83063" d="M568.951,60.909s0,1.2-.166,1.2a1.165,1.165,0,0,0-1.24.33c-.454.579.042,1.158.579,1.282s.166,1.53-1.116,1.282-1.736-3.266-1.074-4.423,2.77-2.439,3.514-2.357,7.047,1.988,7.047,1.988Z" transform="translate(-565.631 -58.218)" fill="#29266b"/>
              </g>
            </g>
          </g>
        </g>
        <g id="Grupo_38981" data-name="Grupo 38981" transform="translate(13.777 9.342)">
          <g id="Grupo_38980" data-name="Grupo 38980">
            <g id="Grupo_38979" data-name="Grupo 38979">
              <path id="Trazado_83065" data-name="Trazado 83065" d="M577.817,73.06l4.043,6.95-3.145,1.334-2.5-4.113Z" transform="translate(-576.212 -73.06)" fill="#61b3db"/>
            </g>
          </g>
        </g>
        <g id="Grupo_38984" data-name="Grupo 38984" transform="translate(0 8.825)">
          <g id="Grupo_38983" data-name="Grupo 38983">
            <g id="Grupo_38982" data-name="Grupo 38982">
              <path id="Trazado_83066" data-name="Trazado 83066" d="M561.635,72.309,556.3,80a1.181,1.181,0,0,0,.5,1.551l7.72,3.854,1.075-1.82-5.26-4.081,4.154-4.154Z" transform="translate(-556.196 -72.309)" fill="#61b3db"/>
            </g>
          </g>
        </g>
        <g id="Grupo_38992" data-name="Grupo 38992" transform="translate(4.927 8.185)">
          <g id="Grupo_38991" data-name="Grupo 38991" clip-path="url(#clip-path-2)">
            <g id="Grupo_38987" data-name="Grupo 38987" transform="translate(-0.039 8.097)">
              <g id="Grupo_38986" data-name="Grupo 38986" transform="translate(0)">
                <g id="Grupo_38985" data-name="Grupo 38985">
                  <rect id="Rectángulo_32677" data-name="Rectángulo 32677" width="0.179" height="6.325" transform="matrix(0.697, -0.717, 0.717, 0.697, 0, 0.128)" fill="#ffba57"/>
                </g>
              </g>
            </g>
            <g id="Grupo_38990" data-name="Grupo 38990" transform="translate(-1.386 11.286)">
              <g id="Grupo_38989" data-name="Grupo 38989" transform="translate(0)">
                <g id="Grupo_38988" data-name="Grupo 38988">
                  <rect id="Rectángulo_32678" data-name="Rectángulo 32678" width="0.179" height="5.859" transform="matrix(0.465, -0.885, 0.885, 0.465, 0, 0.158)" fill="#ffba57"/>
                </g>
              </g>
            </g>
          </g>
        </g>
        <g id="Grupo_38995" data-name="Grupo 38995" transform="translate(8.058 21.865)">
          <g id="Grupo_38994" data-name="Grupo 38994">
            <g id="Grupo_38993" data-name="Grupo 38993">
              <rect id="Rectángulo_32679" data-name="Rectángulo 32679" width="13.294" height="1.127" fill="#cdeefc"/>
            </g>
          </g>
        </g>
        <g id="Grupo_39000" data-name="Grupo 39000" transform="translate(4.927 8.185)">
          <path id="Trazado_83068" data-name="Trazado 83068" d="M564.425,86.1h8.516L574,73.479a1.938,1.938,0,0,0-1.931-2.1h-6.781a1.938,1.938,0,0,0-1.931,2.1Z" transform="translate(-563.355 -71.378)" fill="#61b3db"/>
          <g id="Grupo_38999" data-name="Grupo 38999" clip-path="url(#clip-path-3)">
            <g id="Grupo_38998" data-name="Grupo 38998" transform="translate(2.552 -2.178)">
              <g id="Grupo_38997" data-name="Grupo 38997">
                <g id="Grupo_38996" data-name="Grupo 38996">
                  <path id="Trazado_83069" data-name="Trazado 83069" d="M572.666,71.016a2.8,2.8,0,1,1-2.8-2.8A2.8,2.8,0,0,1,572.666,71.016Z" transform="translate(-567.063 -68.214)" fill="#fca89e"/>
                </g>
              </g>
            </g>
          </g>
        </g>
        <g id="Grupo_39003" data-name="Grupo 39003" transform="translate(8.181 20.409)">
          <g id="Grupo_39002" data-name="Grupo 39002">
            <g id="Grupo_39001" data-name="Grupo 39001">
              <path id="Trazado_83071" data-name="Trazado 83071" d="M568.082,90.626h3.39l.248-1.488h-2.559a.981.981,0,0,0-.968.82Z" transform="translate(-568.082 -89.138)" fill="#fca89e"/>
            </g>
          </g>
        </g>
        <g id="Grupo_39006" data-name="Grupo 39006" transform="translate(10.668 15.302)">
          <g id="Grupo_39005" data-name="Grupo 39005">
            <g id="Grupo_39004" data-name="Grupo 39004">
              <path id="Trazado_83072" data-name="Trazado 83072" d="M571.7,88.328h10.674l1.465-6.609H573.159Z" transform="translate(-571.695 -81.719)" fill="#cdeefc"/>
            </g>
          </g>
        </g>
        <g id="Grupo_39008" data-name="Grupo 39008" transform="translate(16.244 18.082)">
          <g id="Grupo_39007" data-name="Grupo 39007">
            <path id="Trazado_83073" data-name="Trazado 83073" d="M579.8,86.461a.7.7,0,1,0,.7-.7A.7.7,0,0,0,579.8,86.461Z" transform="translate(-579.796 -85.758)" fill="#8cb3de"/>
          </g>
        </g>
        <g id="Grupo_39011" data-name="Grupo 39011" transform="translate(15.599 24.435)">
          <g id="Grupo_39010" data-name="Grupo 39010">
            <g id="Grupo_39009" data-name="Grupo 39009">
              <path id="Trazado_83074" data-name="Trazado 83074" d="M583.19,95.605,584.6,111.25h-2.067s-3.308-10.187-3.638-13.5,2.067-2.728,2.067-2.728Z" transform="translate(-578.859 -94.987)" fill="#fca89e"/>
            </g>
          </g>
        </g>
        <g id="Grupo_39014" data-name="Grupo 39014" transform="translate(9.067 24.435)">
          <g id="Grupo_39013" data-name="Grupo 39013">
            <g id="Grupo_39012" data-name="Grupo 39012">
              <path id="Trazado_83075" data-name="Trazado 83075" d="M573.7,95.605l1.406,15.645h-2.068s-3.307-10.187-3.638-13.5,2.068-2.728,2.068-2.728Z" transform="translate(-569.369 -94.987)" fill="#fca89e"/>
            </g>
          </g>
        </g>
        <g id="Grupo_39016" data-name="Grupo 39016" transform="translate(12.777 40.697)">
          <g id="Grupo_39015" data-name="Grupo 39015">
            <path id="Trazado_83076" data-name="Trazado 83076" d="M576.786,118.615H574.76v1.553h4.109c.271,0,.364-.609.127-.741Z" transform="translate(-574.76 -118.615)" fill="#ff645f"/>
          </g>
        </g>
        <g id="Grupo_39018" data-name="Grupo 39018" transform="translate(19.216 40.697)">
          <g id="Grupo_39017" data-name="Grupo 39017">
            <path id="Trazado_83077" data-name="Trazado 83077" d="M586.14,118.615h-2.026v1.553h4.108c.271,0,.365-.609.127-.741Z" transform="translate(-584.114 -118.615)" fill="#ff645f"/>
          </g>
        </g>
        <g id="Grupo_39020" data-name="Grupo 39020" transform="translate(7.726 23.379)">
          <g id="Grupo_39019" data-name="Grupo 39019">
            <path id="Trazado_83078" data-name="Trazado 83078" d="M567.421,93.454l10.611.06a2.554,2.554,0,0,1,1.61,1.43c.358,1.073,1.192,6.14,1.192,6.14H569.21l-.775-3.815Z" transform="translate(-567.421 -93.454)" fill="#6486ce"/>
          </g>
        </g>
      </g>
      <g id="Grupo_39052" data-name="Grupo 39052" transform="translate(52.483 64.44)">
        <g id="Grupo_39023" data-name="Grupo 39023" transform="translate(8.43 26.876)">
          <g id="Grupo_39022" data-name="Grupo 39022">
            <path id="Trazado_83079" data-name="Trazado 83079" d="M535.086,157.43H521.83l.354,24.039h2.532s1.916-12.093,2.639-18.777h1.754l.528,18.777h2.532s2.988-18.854,2.908-22.488A11.993,11.993,0,0,0,535.086,157.43Z" transform="translate(-521.83 -157.43)" fill="#29266b"/>
          </g>
        </g>
        <g id="Grupo_39025" data-name="Grupo 39025" transform="translate(6.765 9.665)">
          <g id="Grupo_39024" data-name="Grupo 39024">
            <path id="Trazado_83080" data-name="Trazado 83080" d="M534.332,149.635H521.076l-1.655-14.946c-.149-1.219,1.24-2.266,3.006-2.266h10.555c1.765,0,3.154,1.047,3.006,2.266Z" transform="translate(-519.41 -132.423)" fill="#2b79e6"/>
          </g>
        </g>
        <g id="Grupo_39027" data-name="Grupo 39027" transform="translate(12.875 6.904)">
          <g id="Grupo_39026" data-name="Grupo 39026">
            <path id="Trazado_83081" data-name="Trazado 83081" d="M532.109,131.075V128.87c0-.5-.745-.457-1.189-.457h-1.427c-.443,0-1.188.4-1.188.9v1.758a1.77,1.77,0,0,0,1.735,1.717C532.352,132.626,532.109,131.238,532.109,131.075Z" transform="translate(-528.288 -128.412)" fill="#fca89e"/>
          </g>
        </g>
        <g id="Grupo_39031" data-name="Grupo 39031" transform="translate(11.459 0.797)">
          <path id="Trazado_83082" data-name="Trazado 83082" d="M526.425,125.644c.573,1.94,2.195,1.642,4.135,1.07a3.662,3.662,0,0,0-2.076-7.024C526.544,120.263,525.851,123.7,526.425,125.644Z" transform="translate(-526.23 -119.539)" fill="#fca89e"/>
          <g id="Grupo_39030" data-name="Grupo 39030" clip-path="url(#clip-path-4)">
            <g id="Grupo_39029" data-name="Grupo 39029" transform="translate(-2.402 -0.941)">
              <g id="Grupo_39028" data-name="Grupo 39028">
                <path id="Trazado_83083" data-name="Trazado 83083" d="M529.37,121.073s0,1.293.178,1.293a1.255,1.255,0,0,1,1.337.357c.491.624-.045,1.249-.624,1.382s-.178,1.65,1.2,1.382,1.873-3.522,1.16-4.771-2.988-2.631-3.79-2.541-6.095,2.939-6.095,2.939Z" transform="translate(-522.74 -118.171)" fill="#112256"/>
              </g>
            </g>
          </g>
        </g>
        <g id="Grupo_39033" data-name="Grupo 39033" transform="translate(0 2.604)">
          <g id="Grupo_39032" data-name="Grupo 39032">
            <path id="Trazado_83085" data-name="Trazado 83085" d="M519.736,134.5l-9.028-3.176a1.958,1.958,0,0,1-1.061-2.218c.564-1.677,5.208-6.943,5.208-6.943l1.737,1.35-2.99,4.918s5.208.772,6.943.965c.776.086.1,3.28.1,3.28Z" transform="translate(-509.582 -122.165)" fill="#2b79e6"/>
          </g>
        </g>
        <g id="Grupo_39035" data-name="Grupo 39035" transform="translate(16.226 50.884)">
          <g id="Grupo_39034" data-name="Grupo 39034">
            <path id="Trazado_83086" data-name="Trazado 83086" d="M535.71,192.311h-2.554v1.676h4.432c.293,0,.393-.657.137-.8Z" transform="translate(-533.156 -192.311)" fill="#112256"/>
          </g>
        </g>
        <g id="Grupo_39037" data-name="Grupo 39037" transform="translate(6.588 50.884)">
          <g id="Grupo_39036" data-name="Grupo 39036">
            <path id="Trazado_83087" data-name="Trazado 83087" d="M521.316,192.311h2.554v1.676h-4.431c-.293,0-.394-.657-.138-.8Z" transform="translate(-519.154 -192.311)" fill="#112256"/>
          </g>
        </g>
        <g id="Grupo_39039" data-name="Grupo 39039" transform="translate(5.273)">
          <g id="Grupo_39038" data-name="Grupo 39038">
            <path id="Trazado_83088" data-name="Trazado 83088" d="M517.243,120.985l3.472-2.6.546.611-2.282,3.343Z" transform="translate(-517.243 -118.381)" fill="#fca89e"/>
          </g>
        </g>
        <g id="Grupo_39041" data-name="Grupo 39041" transform="translate(16.75 9.665)">
          <g id="Grupo_39040" data-name="Grupo 39040">
            <path id="Trazado_83089" data-name="Trazado 83089" d="M537.5,132.423c2.2.269,2.49.365,3.936,2.777s3.558,6.653,3.472,7.426c-.193,1.736-10.512,7.426-10.512,7.426l-.482-3.279,6.847-5.111-3.472-5.594Z" transform="translate(-533.918 -132.423)" fill="#2b79e6"/>
          </g>
        </g>
        <g id="Grupo_39047" data-name="Grupo 39047" transform="translate(6.765 9.665)">
          <g id="Grupo_39046" data-name="Grupo 39046" clip-path="url(#clip-path-5)">
            <g id="Grupo_39043" data-name="Grupo 39043" transform="translate(10.985 9.695)">
              <g id="Grupo_39042" data-name="Grupo 39042" transform="translate(0)">
                <rect id="Rectángulo_32680" data-name="Rectángulo 32680" width="6.281" height="0.193" transform="translate(0 3.902) rotate(-38.404)" fill="#bbb"/>
              </g>
            </g>
            <g id="Grupo_39045" data-name="Grupo 39045" transform="translate(10.86 14.118)">
              <g id="Grupo_39044" data-name="Grupo 39044" transform="translate(0)">
                <rect id="Rectángulo_32681" data-name="Rectángulo 32681" width="6.342" height="0.193" transform="matrix(0.905, -0.426, 0.426, 0.905, 0, 2.7)" fill="#bbb"/>
              </g>
            </g>
          </g>
        </g>
        <g id="Grupo_39049" data-name="Grupo 39049" transform="translate(11.06 17.938)">
          <g id="Grupo_39048" data-name="Grupo 39048">
            <rect id="Rectángulo_32682" data-name="Rectángulo 32682" width="6.944" height="10.416" fill="#fff"/>
          </g>
        </g>
        <g id="Grupo_39051" data-name="Grupo 39051" transform="translate(15.834 22.76)">
          <g id="Grupo_39050" data-name="Grupo 39050">
            <path id="Trazado_83091" data-name="Trazado 83091" d="M534.756,151.835l.1,3.231-2.266-1.013.241-2.6Z" transform="translate(-532.586 -151.449)" fill="#fca89e"/>
          </g>
        </g>
      </g>
      <g id="Grupo_39053" data-name="Grupo 39053" transform="translate(89.222 11.053)">
        <path id="Trazado_83092" data-name="Trazado 83092" d="M563.008,61.66c-.7-1.055-4.348-3.945-7.954-.779-3.183,2.8-1.319,4.925-1.407,5.717s-1.583,1.759-1.671,3.254,3.368,2.072,3.781-1.231c.176-1.408,2.43-1.118,4.383-2.779A12.764,12.764,0,0,0,563.008,61.66Z" transform="translate(-551.975 -59.441)" fill="#29266b"/>
      </g>
    </g>
  </g>
</svg>
