<svg xmlns="http://www.w3.org/2000/svg" xmlns:xlink="http://www.w3.org/1999/xlink" width="256.975" height="386.261" viewBox="0 0 256.975 386.261">
  <defs>
    <clipPath id="clip-path">
      <rect id="Rect치ngulo_32767" data-name="Rect치ngulo 32767" width="256.975" height="386.261" transform="translate(0 0)" fill="none"/>
    </clipPath>
  </defs>
  <g id="Grupo_39475" data-name="Grupo 39475" transform="translate(-1006.565 -258.087)">
    <g id="Grupo_39474" data-name="Grupo 39474" transform="translate(1006.565 258.087)" clip-path="url(#clip-path)">
      <g id="Grupo_39473" data-name="Grupo 39473" transform="translate(7.127 -6.344)">
        <g id="Grupo_39471" data-name="Grupo 39471" transform="translate(9.453)">
          <rect id="Rect치ngulo_32766" data-name="Rect치ngulo 32766" width="199.247" height="246.973" transform="matrix(0.985, -0.171, 0.171, 0.985, 0, 128.252)" fill="#f8fcff"/>
          <g id="Grupo_39464" data-name="Grupo 39464" transform="translate(176.324 237.459)">
            <g id="Grupo_39463" data-name="Grupo 39463">
              <path id="Trazado_83223" data-name="Trazado 83223" d="M1830.089,1278.945a10.648,10.648,0,0,0-1.521-4.014,9.814,9.814,0,0,0-2.837-2.914,10.539,10.539,0,0,0-3.94-1.565,13.477,13.477,0,0,0-4.81.027,13.137,13.137,0,0,0-4.506,1.587,10.553,10.553,0,0,0-3.147,2.791,9.919,9.919,0,0,0-1.7,3.7,10.821,10.821,0,0,0-.082,4.3,10.45,10.45,0,0,0,1.518,3.981,9.925,9.925,0,0,0,2.832,2.878,10.582,10.582,0,0,0,3.9,1.57,13.22,13.22,0,0,0,4.777-.019,13.494,13.494,0,0,0,4.539-1.595,10.487,10.487,0,0,0,3.182-2.8,9.9,9.9,0,0,0,1.7-3.661A10.492,10.492,0,0,0,1830.089,1278.945Zm-13.82-76.522-21.5,3.718,12.282,56.825,16.75-2.9Z" transform="translate(-1794.772 -1202.423)" fill="#f78248"/>
            </g>
          </g>
          <g id="Grupo_39468" data-name="Grupo 39468" transform="translate(27.713 122.947)">
            <g id="Grupo_39465" data-name="Grupo 39465" transform="translate(99.092)">
              <path id="Trazado_83224" data-name="Trazado 83224" d="M1648.7,736.638l-55.022,9.524a1.063,1.063,0,0,1-1.228-.866h0a1.063,1.063,0,0,1,.866-1.228l55.021-9.524a1.063,1.063,0,0,1,1.229.866h0A1.063,1.063,0,0,1,1648.7,736.638Z" transform="translate(-1592.437 -734.528)" fill="#aec3ff"/>
              <path id="Trazado_83225" data-name="Trazado 83225" d="M1653.776,765.947l-55.022,9.524a1.063,1.063,0,0,1-1.229-.866h0a1.063,1.063,0,0,1,.866-1.228l55.022-9.524a1.063,1.063,0,0,1,1.228.866h0A1.063,1.063,0,0,1,1653.776,765.947Z" transform="translate(-1596.268 -756.664)" fill="#aec3ff"/>
              <path id="Trazado_83226" data-name="Trazado 83226" d="M1658.849,795.256l-55.022,9.524a1.063,1.063,0,0,1-1.228-.866h0a1.063,1.063,0,0,1,.866-1.228l55.022-9.524a1.063,1.063,0,0,1,1.228.866h0A1.063,1.063,0,0,1,1658.849,795.256Z" transform="translate(-1600.099 -778.8)" fill="#aec3ff"/>
            </g>
            <path id="Trazado_83227" data-name="Trazado 83227" d="M1583.176,904.428,1545.186,911a1.529,1.529,0,0,1-1.768-1.246h0a1.529,1.529,0,0,1,1.246-1.768l37.99-6.576a1.529,1.529,0,0,1,1.768,1.246h0A1.529,1.529,0,0,1,1583.176,904.428Z" transform="translate(-1456.305 -860.554)" fill="#aec3ff"/>
            <path id="Trazado_83228" data-name="Trazado 83228" d="M1768.123,880.226l-23.366,4.044a1.529,1.529,0,0,1-1.767-1.246h0a1.529,1.529,0,0,1,1.246-1.768l23.366-4.044a1.53,1.53,0,0,1,1.768,1.246h0A1.529,1.529,0,0,1,1768.123,880.226Z" transform="translate(-1607.035 -842.275)" fill="#aec3ff"/>
            <path id="Trazado_83229" data-name="Trazado 83229" d="M1261.545,941.822l-72.208,12.5a1.529,1.529,0,0,1-1.767-1.246h0a1.529,1.529,0,0,1,1.246-1.768l72.208-12.5a1.529,1.529,0,0,1,1.767,1.246h0A1.529,1.529,0,0,1,1261.545,941.822Z" transform="translate(-1187.546 -888.796)" fill="#aec3ff"/>
            <path id="Trazado_83230" data-name="Trazado 83230" d="M1255.071,994.2l-58.363,10.1a1.529,1.529,0,0,1-1.768-1.246h0a1.529,1.529,0,0,1,1.246-1.768l58.363-10.1a1.529,1.529,0,0,1,1.768,1.246h0A1.529,1.529,0,0,1,1255.071,994.2Z" transform="translate(-1193.113 -928.354)" fill="#aec3ff"/>
            <path id="Trazado_83231" data-name="Trazado 83231" d="M1533.026,946.086l-58.363,10.1a1.529,1.529,0,0,1-1.767-1.246h0a1.529,1.529,0,0,1,1.246-1.768l58.363-10.1a1.529,1.529,0,0,1,1.768,1.246h0A1.529,1.529,0,0,1,1533.026,946.086Z" transform="translate(-1403.042 -892.017)" fill="#aec3ff"/>
            <g id="Grupo_39466" data-name="Grupo 39466" transform="translate(4.647 66.038)">
              <path id="Trazado_83232" data-name="Trazado 83232" d="M1602.163,1031.6l-37.99,6.576a1.529,1.529,0,0,1-1.767-1.246h0a1.529,1.529,0,0,1,1.246-1.767l37.99-6.576a1.529,1.529,0,0,1,1.768,1.246h0A1.53,1.53,0,0,1,1602.163,1031.6Z" transform="translate(-1475.292 -1022.637)" fill="#aec3ff"/>
              <path id="Trazado_83233" data-name="Trazado 83233" d="M1787.109,1007.395l-23.366,4.044a1.529,1.529,0,0,1-1.767-1.246h0a1.529,1.529,0,0,1,1.246-1.768l23.365-4.045a1.529,1.529,0,0,1,1.768,1.246h0A1.529,1.529,0,0,1,1787.109,1007.395Z" transform="translate(-1626.021 -1004.358)" fill="#aec3ff"/>
              <path id="Trazado_83234" data-name="Trazado 83234" d="M1280.531,1068.99l-72.209,12.5a1.529,1.529,0,0,1-1.767-1.246h0a1.529,1.529,0,0,1,1.246-1.768l72.208-12.5a1.529,1.529,0,0,1,1.768,1.246h0A1.529,1.529,0,0,1,1280.531,1068.99Z" transform="translate(-1206.532 -1050.879)" fill="#aec3ff"/>
              <path id="Trazado_83235" data-name="Trazado 83235" d="M1274.057,1121.367l-58.363,10.1a1.529,1.529,0,0,1-1.768-1.246h0a1.529,1.529,0,0,1,1.246-1.768l58.363-10.1a1.529,1.529,0,0,1,1.768,1.246h0A1.529,1.529,0,0,1,1274.057,1121.367Z" transform="translate(-1212.099 -1090.438)" fill="#aec3ff"/>
              <path id="Trazado_83236" data-name="Trazado 83236" d="M1584.89,1050l-91.242,15.793a1.529,1.529,0,0,1-1.767-1.246h0a1.529,1.529,0,0,1,1.246-1.767l91.241-15.793a1.529,1.529,0,0,1,1.768,1.246h0A1.529,1.529,0,0,1,1584.89,1050Z" transform="translate(-1422.028 -1036.538)" fill="#aec3ff"/>
            </g>
            <g id="Grupo_39467" data-name="Grupo 39467" transform="translate(8.482 88.194)">
              <path id="Trazado_83237" data-name="Trazado 83237" d="M1617.833,1122.128l-37.99,6.576a1.529,1.529,0,0,1-1.767-1.246h0a1.529,1.529,0,0,1,1.246-1.767l37.99-6.576a1.529,1.529,0,0,1,1.767,1.246h0A1.529,1.529,0,0,1,1617.833,1122.128Z" transform="translate(-1490.962 -1113.168)" fill="#aec3ff"/>
              <path id="Trazado_83238" data-name="Trazado 83238" d="M1802.779,1097.926l-23.365,4.044a1.529,1.529,0,0,1-1.768-1.246h0a1.529,1.529,0,0,1,1.246-1.767l23.366-4.045a1.53,1.53,0,0,1,1.768,1.246h0A1.53,1.53,0,0,1,1802.779,1097.926Z" transform="translate(-1641.691 -1094.89)" fill="#aec3ff"/>
              <path id="Trazado_83239" data-name="Trazado 83239" d="M1296.2,1159.522l-72.208,12.5a1.529,1.529,0,0,1-1.768-1.246h0a1.529,1.529,0,0,1,1.246-1.767l72.209-12.5a1.529,1.529,0,0,1,1.767,1.246h0A1.529,1.529,0,0,1,1296.2,1159.522Z" transform="translate(-1222.203 -1141.411)" fill="#aec3ff"/>
              <path id="Trazado_83240" data-name="Trazado 83240" d="M1289.727,1211.9l-58.363,10.1a1.529,1.529,0,0,1-1.768-1.246h0a1.529,1.529,0,0,1,1.246-1.768l58.363-10.1a1.529,1.529,0,0,1,1.767,1.246h0A1.529,1.529,0,0,1,1289.727,1211.9Z" transform="translate(-1227.77 -1180.969)" fill="#aec3ff"/>
              <path id="Trazado_83241" data-name="Trazado 83241" d="M1567.682,1163.786l-58.363,10.1a1.53,1.53,0,0,1-1.768-1.246h0a1.529,1.529,0,0,1,1.246-1.767l58.363-10.1a1.529,1.529,0,0,1,1.767,1.246h0A1.529,1.529,0,0,1,1567.682,1163.786Z" transform="translate(-1437.698 -1144.632)" fill="#aec3ff"/>
            </g>
          </g>
          <g id="Grupo_39470" data-name="Grupo 39470" transform="translate(28.669)">
            <path id="Trazado_83242" data-name="Trazado 83242" d="M1325.661,490.339s8.943,9.976,9.432,14.54-4.106,14.617-1.943,19.02c.673,1.371,10.935,15.023,14.1,15.806,2.139.53,5.254-4.81,2.214-10.04-3.079-5.3-3.643-15.786-3.12-20.4.892-7.87,6.555-26.159,7.556-22.715l17.394-2.678-16.427-6.814Z" transform="translate(-1292.815 -417.123)" fill="#e59365"/>
            <path id="Trazado_83243" data-name="Trazado 83243" d="M1300.133,544.512s-1.631,19.943-.141,27.565c.6,3.057,3.5,12.9,6.413,13.969,4.805,1.772,7.477-6.673,5.427-15.866-.561-2.516,3.465-18,6.136-25.075,6.64-17.59,10.647-28.179,10.647-28.179Z" transform="translate(-1272.954 -447.235)" fill="#f2a36d"/>
            <g id="Grupo_39469" data-name="Grupo 39469">
              <path id="Trazado_83244" data-name="Trazado 83244" d="M1362.475,293.852c-4.277,2.482-8.272,4.834-11.748,6.919-1.933,1.167-3.711,2.247-5.276,3.224-2.527,1.577-4.51,2.872-5.764,3.793-3.208,2.35-8.472,5.213-12.36,9.16l0,.005c-.007.007-.015.01-.022.016-7.573,5.3-7.939,11.593-8.24,15.435-.756,9.528-9.678,23.5-21.774,37.478-6.6,7.622-12.446,18.787-14.464,23.209-.661,1.452-1.9,4.821-3.332,8.383-1.988,4.965-4.341,10.305-6,11.354a2.673,2.673,0,0,1-2.215-.154c-2.368-.9-5.592-3.453-6.531-5.422-2.816-5.887-.561-14.853,4.935-29.023,5.24-13.5,4.521-20.328,2.548-26.372-1.284-3.929-3.157-7.708-8.943-10.016a43.8,43.8,0,0,0-5.637-2.091,24.628,24.628,0,0,0-9.966-.871,17.513,17.513,0,0,0-3.8.961,17.909,17.909,0,0,0-8.116,6.335c-.078.1-.156.206-.236.308l0,.006v0a30.137,30.137,0,0,1-3.238,3.517c-2.343,2.2-4.984,4.18-7.408,6.184a29.617,29.617,0,0,0-6.045,6.24v0a11.622,11.622,0,0,0-1.791,4.382c-.906,5.173-3.57,10.274-6.226,15.936v0a73.564,73.564,0,0,0-5.086,13.4c-2.993,11.843-9.715,13.062-13.22,9.47-.044-.044-.089-.092-.132-.138-1.074-1.168-1.054-7.587-.74-13.36.234-4.321.631-8.281.861-9.408.7-3.514,6.621-17.306,9.5-31.58,2.147-10.648,18.881-26.489,30.718-47.449,5.892-10.429,28.384-13.206,51.937-26.729,1.268-.725,2.654-1.221,3.969-1.855h0q5.636-2.726,11.04-5.877a154.871,154.871,0,0,1,15.875.8q5.364.544,10.759,1.439h0q8.562,1.418,17.162,3.678A186.049,186.049,0,0,1,1362.475,293.852Z" transform="translate(-1191.453 -260.162)" fill="#ffb27d"/>
              <path id="Trazado_83245" data-name="Trazado 83245" d="M1651.667,282.509l-4.077,2.6-1.067.681-18.9,12.074-.791-.854L1588.04,255.25l.112-.1h0l14.471-11.73q1.982-.258,3.945-.49c.361-.044.72-.088,1.078-.126,1.921,1.59,4.922,4.213,8.482,7.379,11.4,10.142,28.5,25.845,33.864,30.781Z" transform="translate(-1490.98 -240.204)" fill="#9fc1f4"/>
              <path id="Trazado_83246" data-name="Trazado 83246" d="M1771.469,239.294l-58.387,41.44s-3.795-1.423-8.3-3.661c-.774-.386-1.568-.793-2.369-1.223a48.394,48.394,0,0,1-7.932-5.149c-10.485-8.731-20.1-20.9-25.973-29-2.112-2.911-3.738-5.3-4.745-6.807.361-.044.719-.088,1.078-.126C1706.8,229.888,1742.161,232.139,1771.469,239.294Z" transform="translate(-1548.168 -232.167)" fill="#f99746"/>
              <path id="Trazado_83247" data-name="Trazado 83247" d="M1764.819,417.337a2.2,2.2,0,1,1,.7,3.028A2.2,2.2,0,0,1,1764.819,417.337Z" transform="translate(-1624.243 -371.236)" fill="#2a4e96"/>
            </g>
          </g>
          <path id="Trazado_83248" data-name="Trazado 83248" d="M1074.312,699.946l105.32-18.23-13.234,58.16-74.785,16.265Z" transform="translate(-1074.312 -571.694)" fill="#f8fcff"/>
        </g>
        <path id="Trazado_83249" data-name="Trazado 83249" d="M1961.213,1171.4a6.953,6.953,0,0,1-3.258-.774c-1.392-.825-2.873-1.368-2.371-1.733s.753-.182,1.528.114,3.032.387,3.762-.411S1961.213,1171.4,1961.213,1171.4Z" transform="translate(-1730.374 -939.331)" fill="#ffb27d"/>
        <g id="Grupo_39472" data-name="Grupo 39472" transform="translate(0 155.665)">
          <path id="Trazado_83250" data-name="Trazado 83250" d="M1134.153,872.657c-.237,1.24-2.64,2.447-3.227,2.617a11.8,11.8,0,0,0-1.651-2.867c.058-.12.127-.262.207-.417.549-1.066,1.6-2.766,2.912-3.16,1.945-.592,5.779-.958,6.01-.142S1134.42,871.259,1134.153,872.657Z" transform="translate(-1106.368 -868.215)" fill="#ffb27d"/>
          <path id="Trazado_83251" data-name="Trazado 83251" d="M1105.5,1793.352h-24.817c-1.778-1.206.48-12.995.48-12.995s6.773-2.57,7.943,2.656,8.627,6.883,12.572,7.52C1104.375,1790.973,1105.228,1792.456,1105.5,1793.352Z" transform="translate(-1069.154 -1556.644)" fill="#3e5b87"/>
          <path id="Trazado_83252" data-name="Trazado 83252" d="M1252.528,1793.352h-24.817c-1.778-1.206.48-12.995.48-12.995s6.773-2.57,7.943,2.656,8.627,6.883,12.572,7.52C1251.406,1790.973,1252.258,1792.456,1252.528,1793.352Z" transform="translate(-1180.2 -1556.644)" fill="#3e5b87"/>
          <path id="Trazado_83253" data-name="Trazado 83253" d="M1207.758,1338.044s-1.115,13.917-2.426,30.646c-1.782,22.725-6.588,79.068-6.588,79.068s-3.151,2.688-10.13,1.217a220.581,220.581,0,0,1-7.717-41.622c-.027-.364-.055-.73-.083-1.1-1.652-22.584-4.222-70.141-4.222-70.141Z" transform="translate(-1142.107 -1221.603)" fill="#ff9e55"/>
          <path id="Trazado_83254" data-name="Trazado 83254" d="M1208.139,1324.344s-1.5,18.726-2.807,35.455l-24.435,38.664c-.027-.364-.055-.73-.083-1.1-1.652-22.584-4.222-70.141-4.222-70.141Z" transform="translate(-1142.107 -1212.712)" fill="#ed823a"/>
          <path id="Trazado_83255" data-name="Trazado 83255" d="M1131.341,1299.333l-39.829,117.86s-6.659,3.41-9.387-1.2c0,0,.631-49.689,7.746-62.018,4.02-6.967,6.825-26.509,6.347-33.107a74.776,74.776,0,0,1,2.915-24.97Z" transform="translate(-1070.76 -1191.225)" fill="#ff9e55"/>
          <path id="Trazado_83256" data-name="Trazado 83256" d="M1198.084,1005.141a11.061,11.061,0,0,1-7.635,1.028,15.843,15.843,0,0,1-5.173-2.183,15.261,15.261,0,0,1-2.087-1.572s.092-.132.245-.392c.8-1.367,3.223-6.282,2.145-14.179a5.6,5.6,0,0,1,1.95.323c3.517.833,10.586,2.838,10.9,2.927h.012s.087,1.661.378,4.638c.024.263.05.537.079.821.036.349.072.72.116,1.1A24.627,24.627,0,0,1,1198.084,1005.141Z" transform="translate(-1147.09 -958.54)" fill="#ffb27d"/>
          <path id="Trazado_83257" data-name="Trazado 83257" d="M1206.669,996.828c-5.25,1.2-13.084-6.547-13.084-6.547a8.27,8.27,0,0,1,1.8-1.018c3.517.833,10.586,2.838,10.9,2.927h.012S1206.378,993.851,1206.669,996.828Z" transform="translate(-1154.941 -959.638)" fill="#ed975d"/>
          <path id="Trazado_83258" data-name="Trazado 83258" d="M1245.281,872.532s-2.059-3.108-4.083-3.291-6.222.3-5.914,1.084c.99,2.525,4.521,1.4,5.417,3,.766,1.367,3.482,1.94,3.482,1.94Z" transform="translate(-1186.423 -868.961)" fill="#ffb27d"/>
          <path id="Trazado_83259" data-name="Trazado 83259" d="M1195.323,932.99a26.709,26.709,0,0,1-4.911,1.145c-4.025.544-9.317.223-10.979-4.646-2.8-8.2-6.377-13.11,1.863-16.457,4.411-1.792,7.234-1.887,9.15-1.2a6.628,6.628,0,0,1,3.391,2.935C1195.437,917.273,1198.656,931.556,1195.323,932.99Z" transform="translate(-1141.811 -900.858)" fill="#ffb27d"/>
          <path id="Trazado_83260" data-name="Trazado 83260" d="M1173.791,891.466a4.366,4.366,0,0,1-4.225,6.88,7.309,7.309,0,0,0-3.432-.121c-2.05.91-2.418,4.348-2.455,5.439s-.181,2.015-2.964,1.361a1.354,1.354,0,0,0-1.01.06c-1.029.611.031,3.314.589,4.4a2.764,2.764,0,0,1,.287.956,3.239,3.239,0,0,1-.891,2.9c-.172.138-2.964,1.359-9.691-8.937a9.562,9.562,0,0,1-.434-8.762c1.631-3.505,8.875-7.4,14.882-8.152C1170.872,886.69,1173.5,891.068,1173.791,891.466Z" transform="translate(-1121.046 -882.701)" fill="#2a4e96"/>
          <path id="Trazado_83261" data-name="Trazado 83261" d="M1262.817,934.423c-19.705,18.4-16.243-16.651-16.243-16.651s7.5-3.332,9.869-3.331,4.1-6.586,11.6-17.555l0,0,0,0-15.764-13.5s.73-4.013,1.6-3.814a57.163,57.163,0,0,1,6.326,2.056c7.208,2.712,17.484,7.549,19.562,12.188C1279.761,893.817,1280.154,918.232,1262.817,934.423Z" transform="translate(-1194.785 -876.789)" fill="#aec3ff"/>
          <path id="Trazado_83262" data-name="Trazado 83262" d="M1245.028,891.858l-.029-.038A.1.1,0,0,1,1245.028,891.858Z" transform="translate(-1193.772 -886.043)" fill="#7f2722"/>
          <path id="Trazado_83263" data-name="Trazado 83263" d="M1101.645,993.1a87.6,87.6,0,0,1-24.185,4.085,57.047,57.047,0,0,1-8.733-.931c-2.92-.493-5.228-.994-5.228-.994-2.5-.578-5.264-2.123-4.893-4.975,1.122-8.665.4-31.365.972-45.542a7.63,7.63,0,0,0-1.73-4.7s-.005,0-.005,0a5.265,5.265,0,0,0-1.016-.864c-2.629-1.714-14.919-13.346-20.24-31.9-.628-2.115-.883-3.415-.9-3.487a.015.015,0,0,0,0-.01h0c1.509-6.882,18.365-17.342,22.445-19.212a.411.411,0,0,1,.412.087s0,0,0,0a7.478,7.478,0,0,1,1.923,3.3c0,.007,0,.012.007.019l-12.692,16.425c9.577,9.211,12.612,15.308,14.926,14.827,2.226-.462,9.714,1.119,10.3,1.245.175-.039.351-.08.534-.111,0,0,7.991,4.5,13.924,1.17l.169.026c1.446.229,11.767,1.943,14.259,4.576.859.908,1.187,6.427,1.278,12.543.132,8.52-.2,18.2-.2,18.206C1103.583,966.153,1108.459,991.683,1101.645,993.1Z" transform="translate(-1035.687 -880.54)" fill="#aec3ff"/>
          <path id="Trazado_83264" data-name="Trazado 83264" d="M1188.378,1031.385s8.842,9.12,15.164,7.252c0,0,.842-1.232-2-1.626S1195.617,1036.777,1188.378,1031.385Z" transform="translate(-1151.009 -991.451)" fill="#94b0ed"/>
          <path id="Trazado_83265" data-name="Trazado 83265" d="M1137.116,1167.535c-2.92-.493-5.228-.994-5.228-.994-2.5-.578-5.264-2.123-4.893-4.975,1.122-8.665.4-31.365.972-45.542a7.63,7.63,0,0,0-1.73-4.7c2.758,2.436,10.292,9.661,12.138,17.462C1140.346,1137.111,1138.946,1158.92,1137.116,1167.535Z" transform="translate(-1104.076 -1051.825)" fill="#94b0ed"/>
          <path id="Trazado_83266" data-name="Trazado 83266" d="M1130.692,874.406s.031-2.486.465-2.987.734.9.8,1.335S1130.692,874.406,1130.692,874.406Z" transform="translate(-1107.441 -870.555)" fill="#ffb27d"/>
          <path id="Trazado_83267" data-name="Trazado 83267" d="M1269.607,871.846s-.634-1.675-.785-2.127-.47-.477-.508-.176a2.231,2.231,0,0,0,.094,1.3A6.1,6.1,0,0,0,1269.607,871.846Z" transform="translate(-1211.342 -869.068)" fill="#ffb27d"/>
        </g>
      </g>
    </g>
  </g>
</svg>
