<svg xmlns="http://www.w3.org/2000/svg" xmlns:xlink="http://www.w3.org/1999/xlink" width="475.788" height="120.353" viewBox="0 0 475.788 120.353">
  <defs>
    <clipPath id="clip-path">
      <path id="Trazado_82922" data-name="Trazado 82922" d="M37.236,159.4H48.173l1.366-16.2a2.488,2.488,0,0,0-2.48-2.7H38.35a2.488,2.488,0,0,0-2.479,2.7Z" transform="translate(-35.862 -140.501)" fill="none"/>
    </clipPath>
    <clipPath id="clip-path-2">
      <path id="Trazado_82930" data-name="Trazado 82930" d="M47.06,132.1c-.682,2.309-2.613,1.956-4.923,1.273a4.36,4.36,0,1,1,2.472-8.362C46.918,125.7,47.742,129.794,47.06,132.1Z" transform="translate(-39.012 -124.834)" fill="none"/>
    </clipPath>
  </defs>
  <g id="Grupo_40305" data-name="Grupo 40305" transform="translate(-1022.212 -1856.647)">
    <path id="Trazado_84142" data-name="Trazado 84142" d="M0,0H349V117H0Z" transform="translate(1149 1860)" fill="#c0dff1"/>
    <path id="Trazado_84143" data-name="Trazado 84143" d="M51.131,12.558a7.074,7.074,0,0,1-1.56,4.852,5.485,5.485,0,0,1-4.337,1.767,5.554,5.554,0,0,1-4.381-1.736,7.132,7.132,0,0,1-1.542-4.9,7.042,7.042,0,0,1,1.547-4.865,5.593,5.593,0,0,1,4.395-1.727,5.474,5.474,0,0,1,4.324,1.758A7.067,7.067,0,0,1,51.131,12.558Zm-10.239,0A6.1,6.1,0,0,0,42,16.517a3.945,3.945,0,0,0,3.23,1.349,3.907,3.907,0,0,0,3.226-1.345,6.183,6.183,0,0,0,1.09-3.964,6.134,6.134,0,0,0-1.085-3.933,3.89,3.89,0,0,0-3.212-1.34A3.966,3.966,0,0,0,42,8.633,6.036,6.036,0,0,0,40.892,12.558ZM58.171,9.191a5.709,5.709,0,0,1,1.151.105l-.2,1.354a4.97,4.97,0,0,0-1.055-.132,2.567,2.567,0,0,0-2,.949,3.461,3.461,0,0,0-.831,2.364V19H53.777V9.367h1.2l.167,1.784h.07A4.234,4.234,0,0,1,56.51,9.7,2.908,2.908,0,0,1,58.171,9.191Zm10.661.176v.923l-1.784.211a3.133,3.133,0,0,1,.633,1.925,2.848,2.848,0,0,1-.967,2.259,3.9,3.9,0,0,1-2.654.844,4.42,4.42,0,0,1-.809-.07A1.436,1.436,0,0,0,62.32,16.7a.63.63,0,0,0,.325.584,2.376,2.376,0,0,0,1.116.189h1.705a3.818,3.818,0,0,1,2.4.659,2.29,2.29,0,0,1,.839,1.916,2.735,2.735,0,0,1-1.283,2.439,6.868,6.868,0,0,1-3.744.839,5.115,5.115,0,0,1-2.914-.7,2.27,2.27,0,0,1-1.024-1.986,2.231,2.231,0,0,1,.563-1.521,2.864,2.864,0,0,1,1.582-.87,1.526,1.526,0,0,1-.62-.519,1.372,1.372,0,0,1-.25-.817,1.551,1.551,0,0,1,.281-.923,2.957,2.957,0,0,1,.888-.765,2.6,2.6,0,0,1-1.217-1.046,3.073,3.073,0,0,1-.47-1.687,3.117,3.117,0,0,1,.949-2.439,3.875,3.875,0,0,1,2.689-.857,4.891,4.891,0,0,1,1.362.176Zm-7.682,11.25A1.307,1.307,0,0,0,61.81,21.8a3.638,3.638,0,0,0,1.89.4,5.273,5.273,0,0,0,2.72-.549,1.682,1.682,0,0,0,.883-1.49,1.179,1.179,0,0,0-.483-1.085A3.754,3.754,0,0,0,65,18.78H63.251a2.3,2.3,0,0,0-1.547.475A1.7,1.7,0,0,0,61.151,20.617Zm.791-8.165a1.961,1.961,0,0,0,.571,1.529A2.281,2.281,0,0,0,64.1,14.5a1.861,1.861,0,0,0,2.136-2.074,1.915,1.915,0,0,0-2.162-2.171,2.141,2.141,0,0,0-1.582.554A2.23,2.23,0,0,0,61.942,12.452ZM76.734,19l-.29-1.371h-.07a4.053,4.053,0,0,1-1.437,1.226,4.38,4.38,0,0,1-1.789.321,3.217,3.217,0,0,1-2.246-.738,2.693,2.693,0,0,1-.813-2.1q0-2.918,4.667-3.059l1.635-.053v-.6a2.442,2.442,0,0,0-.488-1.674,2.006,2.006,0,0,0-1.56-.541,6.357,6.357,0,0,0-2.725.738l-.448-1.116a6.856,6.856,0,0,1,1.56-.606,6.757,6.757,0,0,1,1.7-.22,3.669,3.669,0,0,1,2.553.765,3.192,3.192,0,0,1,.831,2.452V19Zm-3.3-1.028a2.961,2.961,0,0,0,2.14-.747,2.764,2.764,0,0,0,.778-2.092v-.87l-1.459.062a5.307,5.307,0,0,0-2.509.541,1.63,1.63,0,0,0-.769,1.49,1.5,1.5,0,0,0,.479,1.2A1.988,1.988,0,0,0,73.438,17.972ZM87.413,19V12.769a2.514,2.514,0,0,0-.536-1.758,2.184,2.184,0,0,0-1.679-.58,2.769,2.769,0,0,0-2.215.817,4.127,4.127,0,0,0-.7,2.7V19H80.821V9.367h1.187l.237,1.318h.07a2.979,2.979,0,0,1,1.257-1.1,4.084,4.084,0,0,1,1.8-.391,3.659,3.659,0,0,1,2.619.839,3.572,3.572,0,0,1,.879,2.685V19Zm5.915,0H91.869V9.367h1.459ZM91.746,6.757a.969.969,0,0,1,.246-.734.911.911,0,0,1,1.222,0,.951.951,0,0,1,.255.729.966.966,0,0,1-.255.734.893.893,0,0,1-1.222,0A.987.987,0,0,1,91.746,6.757ZM102.583,19H95.6v-.993l5.256-7.506H95.92V9.367h6.53V10.5l-5.186,7.365h5.317Zm8.183,0-.29-1.371h-.07a4.053,4.053,0,0,1-1.437,1.226,4.38,4.38,0,0,1-1.789.321,3.217,3.217,0,0,1-2.246-.738,2.693,2.693,0,0,1-.813-2.1q0-2.918,4.667-3.059l1.635-.053v-.6a2.442,2.442,0,0,0-.488-1.674,2.006,2.006,0,0,0-1.56-.541,6.357,6.357,0,0,0-2.725.738l-.448-1.116a6.856,6.856,0,0,1,1.56-.606,6.757,6.757,0,0,1,1.7-.22,3.669,3.669,0,0,1,2.553.765,3.192,3.192,0,0,1,.831,2.452V19Zm-3.3-1.028a2.961,2.961,0,0,0,2.14-.747,2.764,2.764,0,0,0,.778-2.092v-.87l-1.459.062a5.307,5.307,0,0,0-2.509.541,1.63,1.63,0,0,0-.769,1.49,1.5,1.5,0,0,0,.479,1.2A1.988,1.988,0,0,0,107.469,17.972Zm11.232,1.2a4.111,4.111,0,0,1-3.239-1.288,5.3,5.3,0,0,1-1.147-3.643,5.46,5.46,0,0,1,1.165-3.735A4.193,4.193,0,0,1,118.8,9.191a6.584,6.584,0,0,1,1.389.149,4.575,4.575,0,0,1,1.09.352l-.448,1.239a6.86,6.86,0,0,0-1.055-.321,4.709,4.709,0,0,0-1.011-.127q-2.936,0-2.936,3.744a4.458,4.458,0,0,0,.716,2.725,2.492,2.492,0,0,0,2.123.949,6.49,6.49,0,0,0,2.47-.519v1.292A5.264,5.264,0,0,1,118.7,19.176ZM124.88,19h-1.459V9.367h1.459ZM123.3,6.757a.969.969,0,0,1,.246-.734.911.911,0,0,1,1.222,0,.951.951,0,0,1,.255.729.966.966,0,0,1-.255.734.893.893,0,0,1-1.222,0A.987.987,0,0,1,123.3,6.757Zm12.99,7.418a5.314,5.314,0,0,1-1.187,3.678,4.179,4.179,0,0,1-3.278,1.323,4.342,4.342,0,0,1-2.294-.606,4,4,0,0,1-1.547-1.74,6.065,6.065,0,0,1-.545-2.654,5.306,5.306,0,0,1,1.178-3.669,4.165,4.165,0,0,1,3.27-1.314,4.075,4.075,0,0,1,3.212,1.345A5.291,5.291,0,0,1,136.289,14.175Zm-7.339,0a4.572,4.572,0,0,0,.738,2.813,2.93,2.93,0,0,0,4.346,0,4.549,4.549,0,0,0,.743-2.817,4.476,4.476,0,0,0-.743-2.791,2.609,2.609,0,0,0-2.193-.954,2.568,2.568,0,0,0-2.162.94A4.526,4.526,0,0,0,128.95,14.175Zm1.688-6.3q.422-.545.91-1.318a15.088,15.088,0,0,0,.769-1.345h1.775v.185A12.992,12.992,0,0,1,132.94,6.8a13.072,13.072,0,0,1-1.327,1.292h-.976ZM145.438,19V12.769a2.514,2.514,0,0,0-.536-1.758,2.184,2.184,0,0,0-1.679-.58,2.769,2.769,0,0,0-2.215.817,4.127,4.127,0,0,0-.7,2.7V19h-1.459V9.367h1.187l.237,1.318h.07a2.979,2.979,0,0,1,1.257-1.1,4.084,4.084,0,0,1,1.8-.391,3.659,3.659,0,0,1,2.619.839,3.572,3.572,0,0,1,.879,2.685V19Zm13.2.176a4.426,4.426,0,0,1-3.371-1.3,5.036,5.036,0,0,1-1.235-3.612,5.585,5.585,0,0,1,1.147-3.7,3.81,3.81,0,0,1,3.081-1.371,3.633,3.633,0,0,1,2.865,1.191,4.564,4.564,0,0,1,1.055,3.142v.923h-6.636a3.818,3.818,0,0,0,.857,2.575,2.964,2.964,0,0,0,2.29.879,7.759,7.759,0,0,0,3.076-.65v1.3a7.721,7.721,0,0,1-1.463.479A8.224,8.224,0,0,1,158.639,19.176Zm-.4-8.763a2.383,2.383,0,0,0-1.85.756,3.484,3.484,0,0,0-.813,2.092h5.036A3.208,3.208,0,0,0,160,11.147,2.165,2.165,0,0,0,158.244,10.413ZM176.947,19V12.733a2.6,2.6,0,0,0-.492-1.727,1.9,1.9,0,0,0-1.529-.576,2.469,2.469,0,0,0-2.013.782,3.718,3.718,0,0,0-.65,2.408V19H170.8V12.733a2.6,2.6,0,0,0-.492-1.727,1.915,1.915,0,0,0-1.538-.576,2.382,2.382,0,0,0-2.008.822,4.447,4.447,0,0,0-.637,2.694V19h-1.459V9.367h1.187l.237,1.318h.07a2.867,2.867,0,0,1,1.165-1.1,3.558,3.558,0,0,1,1.683-.4,2.862,2.862,0,0,1,2.953,1.635h.07a3.072,3.072,0,0,1,1.248-1.2,3.873,3.873,0,0,1,1.863-.439,3.262,3.262,0,0,1,2.448.839,3.755,3.755,0,0,1,.813,2.685V19Zm8.947.176a4.169,4.169,0,0,1-1.718-.347,3.231,3.231,0,0,1-1.305-1.068h-.105a12.921,12.921,0,0,1,.105,1.6v3.964h-1.459V9.367H182.6l.2,1.318h.07a3.388,3.388,0,0,1,1.31-1.143,3.981,3.981,0,0,1,1.714-.352,3.56,3.56,0,0,1,2.958,1.31,5.766,5.766,0,0,1,1.042,3.674,5.732,5.732,0,0,1-1.059,3.687A3.566,3.566,0,0,1,185.894,19.176Zm-.211-8.745a2.585,2.585,0,0,0-2.136.817,4.206,4.206,0,0,0-.677,2.6v.325a4.821,4.821,0,0,0,.677,2.9,2.574,2.574,0,0,0,2.171.875,2.257,2.257,0,0,0,1.956-1.011,4.793,4.793,0,0,0,.708-2.786,4.613,4.613,0,0,0-.708-2.764A2.327,2.327,0,0,0,185.683,10.431Zm11.153-1.239a5.709,5.709,0,0,1,1.151.105l-.2,1.354a4.97,4.97,0,0,0-1.055-.132,2.567,2.567,0,0,0-2,.949,3.461,3.461,0,0,0-.831,2.364V19h-1.459V9.367h1.2l.167,1.784h.07a4.234,4.234,0,0,1,1.292-1.45A2.908,2.908,0,0,1,196.836,9.191Zm6.662,9.984a4.426,4.426,0,0,1-3.371-1.3,5.036,5.036,0,0,1-1.235-3.612,5.585,5.585,0,0,1,1.147-3.7,3.81,3.81,0,0,1,3.081-1.371,3.633,3.633,0,0,1,2.865,1.191,4.564,4.564,0,0,1,1.055,3.142v.923H200.4a3.818,3.818,0,0,0,.857,2.575,2.964,2.964,0,0,0,2.29.879,7.759,7.759,0,0,0,3.076-.65v1.3a7.721,7.721,0,0,1-1.463.479A8.224,8.224,0,0,1,203.5,19.176Zm-.4-8.763a2.383,2.383,0,0,0-1.85.756,3.484,3.484,0,0,0-.813,2.092h5.036a3.208,3.208,0,0,0-.615-2.114A2.165,2.165,0,0,0,203.1,10.413Zm12.639,5.959a2.413,2.413,0,0,1-1,2.074,4.71,4.71,0,0,1-2.812.729,6.116,6.116,0,0,1-2.988-.606V17.216a7.227,7.227,0,0,0,1.49.554,6.221,6.221,0,0,0,1.534.2,3.478,3.478,0,0,0,1.758-.365,1.256,1.256,0,0,0,.127-2.074,7.673,7.673,0,0,0-1.9-.945,10.318,10.318,0,0,1-1.912-.875,2.611,2.611,0,0,1-.844-.848,2.212,2.212,0,0,1-.277-1.134,2.161,2.161,0,0,1,.958-1.859,4.464,4.464,0,0,1,2.628-.681,7.689,7.689,0,0,1,3.041.633l-.519,1.187a6.98,6.98,0,0,0-2.628-.6,3.023,3.023,0,0,0-1.564.325,1.006,1.006,0,0,0-.527.9,1.092,1.092,0,0,0,.2.659,1.952,1.952,0,0,0,.637.519,14.24,14.24,0,0,0,1.688.712,6.3,6.3,0,0,1,2.316,1.257A2.216,2.216,0,0,1,215.742,16.372Zm8.3,2.628-.29-1.371h-.07a4.053,4.053,0,0,1-1.437,1.226,4.38,4.38,0,0,1-1.789.321,3.217,3.217,0,0,1-2.246-.738,2.693,2.693,0,0,1-.813-2.1q0-2.918,4.667-3.059l1.635-.053v-.6a2.442,2.442,0,0,0-.488-1.674,2.006,2.006,0,0,0-1.56-.541,6.357,6.357,0,0,0-2.725.738l-.448-1.116a6.856,6.856,0,0,1,1.56-.606,6.757,6.757,0,0,1,1.7-.22,3.669,3.669,0,0,1,2.553.765,3.192,3.192,0,0,1,.831,2.452V19Zm-3.3-1.028a2.961,2.961,0,0,0,2.14-.747,2.764,2.764,0,0,0,.778-2.092v-.87l-1.459.062a5.307,5.307,0,0,0-2.509.541,1.63,1.63,0,0,0-.769,1.49,1.5,1.5,0,0,0,.479,1.2A1.988,1.988,0,0,0,220.743,17.972Zm11.777-8.78a5.709,5.709,0,0,1,1.151.105l-.2,1.354a4.97,4.97,0,0,0-1.055-.132,2.567,2.567,0,0,0-2,.949,3.461,3.461,0,0,0-.831,2.364V19h-1.459V9.367h1.2l.167,1.784h.07a4.234,4.234,0,0,1,1.292-1.45A2.908,2.908,0,0,1,232.52,9.191ZM236.932,19h-1.459V9.367h1.459ZM235.35,6.757a.969.969,0,0,1,.246-.734.911.911,0,0,1,1.222,0,.951.951,0,0,1,.255.729.966.966,0,0,1-.255.734.893.893,0,0,1-1.222,0A.987.987,0,0,1,235.35,6.757ZM245.95,19l-.29-1.371h-.07a4.053,4.053,0,0,1-1.437,1.226,4.38,4.38,0,0,1-1.789.321,3.217,3.217,0,0,1-2.246-.738,2.693,2.693,0,0,1-.813-2.1q0-2.918,4.667-3.059l1.635-.053v-.6a2.442,2.442,0,0,0-.488-1.674,2.006,2.006,0,0,0-1.56-.541,6.357,6.357,0,0,0-2.725.738l-.448-1.116a6.856,6.856,0,0,1,1.56-.606,6.757,6.757,0,0,1,1.7-.22,3.669,3.669,0,0,1,2.553.765,3.192,3.192,0,0,1,.831,2.452V19Zm-3.3-1.028a2.961,2.961,0,0,0,2.14-.747,2.764,2.764,0,0,0,.778-2.092v-.87l-1.459.062a5.307,5.307,0,0,0-2.509.541,1.63,1.63,0,0,0-.769,1.49,1.5,1.5,0,0,0,.479,1.2A1.988,1.988,0,0,0,242.654,17.972ZM251.5,19h-1.459V5.324H251.5Zm6.24-9.633H259.3l2.109,5.493a20.894,20.894,0,0,1,.861,2.716h.07q.114-.448.479-1.534t2.386-6.675h1.564l-4.14,10.969a5.472,5.472,0,0,1-1.437,2.307,3.056,3.056,0,0,1-2.017.681,5.87,5.87,0,0,1-1.318-.149V22.006a5.086,5.086,0,0,0,1.081.105,2.228,2.228,0,0,0,2.145-1.687l.536-1.371ZM48.93,33.191a5.709,5.709,0,0,1,1.151.105l-.2,1.354a4.97,4.97,0,0,0-1.055-.132,2.567,2.567,0,0,0-2,.949,3.461,3.461,0,0,0-.831,2.364V43H44.535V33.367h1.2l.167,1.784h.07a4.234,4.234,0,0,1,1.292-1.45A2.908,2.908,0,0,1,48.93,33.191Zm6.662,9.984a4.426,4.426,0,0,1-3.371-1.3,5.036,5.036,0,0,1-1.235-3.612,5.585,5.585,0,0,1,1.147-3.7,3.81,3.81,0,0,1,3.081-1.371,3.633,3.633,0,0,1,2.865,1.191,4.564,4.564,0,0,1,1.055,3.142v.923H52.5a3.818,3.818,0,0,0,.857,2.575,2.964,2.964,0,0,0,2.29.879,7.759,7.759,0,0,0,3.076-.65v1.3a7.721,7.721,0,0,1-1.463.479A8.224,8.224,0,0,1,55.592,43.176Zm-.4-8.763a2.383,2.383,0,0,0-1.85.756,3.484,3.484,0,0,0-.813,2.092h5.036a3.208,3.208,0,0,0-.615-2.114A2.165,2.165,0,0,0,55.2,34.413ZM63.08,43H61.621V29.324H63.08ZM72.1,43l-.29-1.371h-.07A4.053,4.053,0,0,1,70.3,42.855a4.38,4.38,0,0,1-1.789.321,3.217,3.217,0,0,1-2.246-.738,2.693,2.693,0,0,1-.813-2.1q0-2.918,4.667-3.059l1.635-.053v-.6a2.442,2.442,0,0,0-.488-1.674,2.006,2.006,0,0,0-1.56-.541,6.357,6.357,0,0,0-2.725.738l-.448-1.116a6.856,6.856,0,0,1,1.56-.606,6.757,6.757,0,0,1,1.7-.22,3.669,3.669,0,0,1,2.553.765,3.192,3.192,0,0,1,.831,2.452V43Zm-3.3-1.028a2.961,2.961,0,0,0,2.14-.747,2.764,2.764,0,0,0,.778-2.092v-.87l-1.459.062a5.307,5.307,0,0,0-2.509.541,1.63,1.63,0,0,0-.769,1.49,1.5,1.5,0,0,0,.479,1.2A1.988,1.988,0,0,0,68.8,41.972Zm11.232,1.2A4.111,4.111,0,0,1,76.8,41.888a5.3,5.3,0,0,1-1.147-3.643,5.46,5.46,0,0,1,1.165-3.735,4.193,4.193,0,0,1,3.318-1.318,6.584,6.584,0,0,1,1.389.149,4.575,4.575,0,0,1,1.09.352l-.448,1.239a6.86,6.86,0,0,0-1.055-.321,4.709,4.709,0,0,0-1.011-.127q-2.936,0-2.936,3.744a4.458,4.458,0,0,0,.716,2.725A2.492,2.492,0,0,0,80,41.9a6.49,6.49,0,0,0,2.47-.519v1.292A5.264,5.264,0,0,1,80.034,43.176ZM86.213,43H84.754V33.367h1.459ZM84.631,30.757a.969.969,0,0,1,.246-.734.911.911,0,0,1,1.222,0,.951.951,0,0,1,.255.729.966.966,0,0,1-.255.734.893.893,0,0,1-1.222,0A.987.987,0,0,1,84.631,30.757Zm12.99,7.418a5.314,5.314,0,0,1-1.187,3.678,4.179,4.179,0,0,1-3.278,1.323,4.342,4.342,0,0,1-2.294-.606,4,4,0,0,1-1.547-1.74,6.065,6.065,0,0,1-.545-2.654,5.306,5.306,0,0,1,1.178-3.669,4.165,4.165,0,0,1,3.27-1.314,4.075,4.075,0,0,1,3.212,1.345A5.291,5.291,0,0,1,97.621,38.175Zm-7.339,0a4.572,4.572,0,0,0,.738,2.813,2.93,2.93,0,0,0,4.346,0,4.549,4.549,0,0,0,.743-2.817,4.476,4.476,0,0,0-.743-2.791,2.609,2.609,0,0,0-2.193-.954,2.568,2.568,0,0,0-2.162.94A4.526,4.526,0,0,0,90.282,38.175ZM106.771,43V36.769a2.514,2.514,0,0,0-.536-1.758,2.184,2.184,0,0,0-1.679-.58,2.769,2.769,0,0,0-2.215.817,4.127,4.127,0,0,0-.7,2.7V43h-1.459V33.367h1.187l.237,1.318h.07a2.979,2.979,0,0,1,1.257-1.1,4.084,4.084,0,0,1,1.8-.391,3.659,3.659,0,0,1,2.619.839,3.572,3.572,0,0,1,.879,2.685V43Zm10.38,0-.29-1.371h-.07a4.053,4.053,0,0,1-1.437,1.226,4.38,4.38,0,0,1-1.789.321,3.217,3.217,0,0,1-2.246-.738,2.693,2.693,0,0,1-.813-2.1q0-2.918,4.667-3.059l1.635-.053v-.6a2.442,2.442,0,0,0-.488-1.674,2.006,2.006,0,0,0-1.56-.541,6.357,6.357,0,0,0-2.725.738l-.448-1.116a6.856,6.856,0,0,1,1.56-.606,6.757,6.757,0,0,1,1.7-.22,3.669,3.669,0,0,1,2.553.765,3.192,3.192,0,0,1,.831,2.452V43Zm-3.3-1.028a2.961,2.961,0,0,0,2.14-.747,2.764,2.764,0,0,0,.778-2.092v-.87l-1.459.062a5.307,5.307,0,0,0-2.509.541,1.63,1.63,0,0,0-.769,1.49,1.5,1.5,0,0,0,.479,1.2A1.988,1.988,0,0,0,113.854,41.972ZM133.516,43V36.733a2.6,2.6,0,0,0-.492-1.727,1.9,1.9,0,0,0-1.529-.576,2.469,2.469,0,0,0-2.013.782,3.718,3.718,0,0,0-.65,2.408V43h-1.459V36.733a2.6,2.6,0,0,0-.492-1.727,1.915,1.915,0,0,0-1.538-.576,2.382,2.382,0,0,0-2.008.822,4.447,4.447,0,0,0-.637,2.694V43h-1.459V33.367h1.187l.237,1.318h.07a2.867,2.867,0,0,1,1.165-1.1,3.558,3.558,0,0,1,1.683-.4,2.862,2.862,0,0,1,2.953,1.635h.07a3.072,3.072,0,0,1,1.248-1.2,3.873,3.873,0,0,1,1.863-.439,3.262,3.262,0,0,1,2.448.839,3.755,3.755,0,0,1,.813,2.685V43Zm5.924,0H137.98V33.367h1.459Zm-1.582-12.243a.969.969,0,0,1,.246-.734.911.911,0,0,1,1.222,0,.951.951,0,0,1,.255.729.966.966,0,0,1-.255.734.893.893,0,0,1-1.222,0A.987.987,0,0,1,137.857,30.757ZM146.6,43.176a4.426,4.426,0,0,1-3.371-1.3A5.036,5.036,0,0,1,142,38.263a5.585,5.585,0,0,1,1.147-3.7,3.81,3.81,0,0,1,3.081-1.371,3.633,3.633,0,0,1,2.865,1.191,4.564,4.564,0,0,1,1.055,3.142v.923h-6.636a3.818,3.818,0,0,0,.857,2.575,2.964,2.964,0,0,0,2.29.879,7.759,7.759,0,0,0,3.076-.65v1.3a7.721,7.721,0,0,1-1.463.479A8.224,8.224,0,0,1,146.6,43.176Zm-.4-8.763a2.383,2.383,0,0,0-1.85.756,3.484,3.484,0,0,0-.813,2.092h5.036a3.208,3.208,0,0,0-.615-2.114A2.165,2.165,0,0,0,146.207,34.413ZM159.224,43V36.769a2.514,2.514,0,0,0-.536-1.758,2.184,2.184,0,0,0-1.679-.58,2.769,2.769,0,0,0-2.215.817,4.127,4.127,0,0,0-.7,2.7V43h-1.459V33.367h1.187l.237,1.318h.07a2.979,2.979,0,0,1,1.257-1.1,4.084,4.084,0,0,1,1.8-.391,3.659,3.659,0,0,1,2.619.839,3.572,3.572,0,0,1,.879,2.685V43Zm7.567-1.028a4.766,4.766,0,0,0,.747-.057,4.836,4.836,0,0,0,.571-.119v1.116a2.667,2.667,0,0,1-.7.189,5.247,5.247,0,0,1-.831.075q-2.795,0-2.795-2.944V34.5h-1.38v-.7l1.38-.606.615-2.057h.844v2.232h2.795V34.5h-2.795V40.17a1.95,1.95,0,0,0,.413,1.336A1.438,1.438,0,0,0,166.791,41.972Zm11.558-3.8a5.314,5.314,0,0,1-1.187,3.678,4.179,4.179,0,0,1-3.278,1.323,4.342,4.342,0,0,1-2.294-.606,4,4,0,0,1-1.547-1.74,6.065,6.065,0,0,1-.545-2.654,5.306,5.306,0,0,1,1.178-3.669,4.165,4.165,0,0,1,3.27-1.314,4.075,4.075,0,0,1,3.212,1.345A5.291,5.291,0,0,1,178.349,38.175Zm-7.339,0a4.572,4.572,0,0,0,.738,2.813,2.93,2.93,0,0,0,4.346,0,4.549,4.549,0,0,0,.743-2.817,4.476,4.476,0,0,0-.743-2.791,2.609,2.609,0,0,0-2.193-.954,2.568,2.568,0,0,0-2.162.94A4.526,4.526,0,0,0,171.01,38.175Zm18.422,5a4.111,4.111,0,0,1-3.239-1.288,5.3,5.3,0,0,1-1.147-3.643,5.46,5.46,0,0,1,1.165-3.735,4.193,4.193,0,0,1,3.318-1.318,6.584,6.584,0,0,1,1.389.149,4.575,4.575,0,0,1,1.09.352l-.448,1.239a6.86,6.86,0,0,0-1.055-.321,4.709,4.709,0,0,0-1.011-.127q-2.936,0-2.936,3.744a4.458,4.458,0,0,0,.716,2.725,2.492,2.492,0,0,0,2.123.949,6.49,6.49,0,0,0,2.47-.519v1.292A5.264,5.264,0,0,1,189.432,43.176Zm13.034-5a5.314,5.314,0,0,1-1.187,3.678A4.179,4.179,0,0,1,198,43.176a4.342,4.342,0,0,1-2.294-.606,4,4,0,0,1-1.547-1.74,6.065,6.065,0,0,1-.545-2.654,5.306,5.306,0,0,1,1.178-3.669,4.165,4.165,0,0,1,3.27-1.314,4.075,4.075,0,0,1,3.212,1.345A5.291,5.291,0,0,1,202.466,38.175Zm-7.339,0a4.572,4.572,0,0,0,.738,2.813,2.93,2.93,0,0,0,4.346,0,4.549,4.549,0,0,0,.743-2.817,4.476,4.476,0,0,0-.743-2.791,2.609,2.609,0,0,0-2.193-.954,2.568,2.568,0,0,0-2.162.94A4.526,4.526,0,0,0,195.127,38.175ZM211.615,43V36.769a2.514,2.514,0,0,0-.536-1.758,2.184,2.184,0,0,0-1.679-.58,2.769,2.769,0,0,0-2.215.817,4.127,4.127,0,0,0-.7,2.7V43h-1.459V33.367h1.187l.237,1.318h.07a2.979,2.979,0,0,1,1.257-1.1,4.084,4.084,0,0,1,1.8-.391,3.659,3.659,0,0,1,2.619.839,3.572,3.572,0,0,1,.879,2.685V43Zm17.446-4.825a5.314,5.314,0,0,1-1.187,3.678,4.179,4.179,0,0,1-3.278,1.323,4.342,4.342,0,0,1-2.294-.606,4,4,0,0,1-1.547-1.74,6.065,6.065,0,0,1-.545-2.654,5.306,5.306,0,0,1,1.178-3.669,4.165,4.165,0,0,1,3.27-1.314,4.075,4.075,0,0,1,3.212,1.345A5.291,5.291,0,0,1,229.062,38.175Zm-7.339,0a4.572,4.572,0,0,0,.738,2.813,2.93,2.93,0,0,0,4.346,0,4.549,4.549,0,0,0,.743-2.817,4.476,4.476,0,0,0-.743-2.791,2.609,2.609,0,0,0-2.193-.954,2.568,2.568,0,0,0-2.162.94A4.526,4.526,0,0,0,221.723,38.175Zm13.008,3.8a4.766,4.766,0,0,0,.747-.057,4.836,4.836,0,0,0,.571-.119v1.116a2.667,2.667,0,0,1-.7.189,5.247,5.247,0,0,1-.831.075q-2.795,0-2.795-2.944V34.5h-1.38v-.7l1.38-.606.615-2.057h.844v2.232h2.795V34.5h-2.795V40.17a1.95,1.95,0,0,0,.413,1.336A1.438,1.438,0,0,0,234.73,41.972Zm7.638-8.78a5.709,5.709,0,0,1,1.151.105l-.2,1.354a4.97,4.97,0,0,0-1.055-.132,2.567,2.567,0,0,0-2,.949,3.461,3.461,0,0,0-.831,2.364V43h-1.459V33.367h1.2l.167,1.784h.07a4.234,4.234,0,0,1,1.292-1.45A2.908,2.908,0,0,1,242.368,33.191ZM250.885,43l-.29-1.371h-.07a4.053,4.053,0,0,1-1.437,1.226,4.38,4.38,0,0,1-1.789.321,3.217,3.217,0,0,1-2.246-.738,2.693,2.693,0,0,1-.813-2.1q0-2.918,4.667-3.059l1.635-.053v-.6a2.442,2.442,0,0,0-.488-1.674,2.006,2.006,0,0,0-1.56-.541,6.357,6.357,0,0,0-2.725.738l-.448-1.116a6.856,6.856,0,0,1,1.56-.606,6.757,6.757,0,0,1,1.7-.22,3.669,3.669,0,0,1,2.553.765,3.192,3.192,0,0,1,.831,2.452V43Zm-3.3-1.028a2.961,2.961,0,0,0,2.14-.747,2.764,2.764,0,0,0,.778-2.092v-.87l-1.459.062a5.307,5.307,0,0,0-2.509.541,1.63,1.63,0,0,0-.769,1.49,1.5,1.5,0,0,0,.479,1.2A1.988,1.988,0,0,0,247.589,41.972Zm13.6-1.6a2.413,2.413,0,0,1-1,2.074,4.71,4.71,0,0,1-2.812.729,6.116,6.116,0,0,1-2.988-.606V41.216a7.227,7.227,0,0,0,1.49.554,6.221,6.221,0,0,0,1.534.2,3.478,3.478,0,0,0,1.758-.365,1.256,1.256,0,0,0,.127-2.074,7.673,7.673,0,0,0-1.9-.945,10.318,10.318,0,0,1-1.912-.875,2.611,2.611,0,0,1-.844-.848,2.212,2.212,0,0,1-.277-1.134,2.161,2.161,0,0,1,.958-1.859,4.464,4.464,0,0,1,2.628-.681,7.689,7.689,0,0,1,3.041.633l-.519,1.187a6.98,6.98,0,0,0-2.628-.6,3.023,3.023,0,0,0-1.564.325,1.006,1.006,0,0,0-.527.9,1.092,1.092,0,0,0,.2.659,1.952,1.952,0,0,0,.637.519,14.24,14.24,0,0,0,1.688.712,6.3,6.3,0,0,1,2.316,1.257A2.216,2.216,0,0,1,261.186,40.372ZM114.65,67.176a4.426,4.426,0,0,1-3.371-1.3,5.036,5.036,0,0,1-1.235-3.612,5.585,5.585,0,0,1,1.147-3.7,3.81,3.81,0,0,1,3.081-1.371,3.633,3.633,0,0,1,2.865,1.191,4.564,4.564,0,0,1,1.055,3.142v.923h-6.636a3.818,3.818,0,0,0,.857,2.575,2.964,2.964,0,0,0,2.29.879,7.759,7.759,0,0,0,3.076-.65v1.3a7.721,7.721,0,0,1-1.463.479A8.224,8.224,0,0,1,114.65,67.176Zm-.4-8.763a2.383,2.383,0,0,0-1.85.756,3.484,3.484,0,0,0-.813,2.092h5.036a3.208,3.208,0,0,0-.615-2.114A2.165,2.165,0,0,0,114.254,58.413ZM132.958,67V60.733a2.6,2.6,0,0,0-.492-1.727,1.9,1.9,0,0,0-1.529-.576,2.469,2.469,0,0,0-2.013.782,3.718,3.718,0,0,0-.65,2.408V67h-1.459V60.733a2.6,2.6,0,0,0-.492-1.727,1.915,1.915,0,0,0-1.538-.576,2.382,2.382,0,0,0-2.008.822,4.447,4.447,0,0,0-.637,2.694V67h-1.459V57.367h1.187l.237,1.318h.07a2.867,2.867,0,0,1,1.165-1.1,3.558,3.558,0,0,1,1.683-.4,2.862,2.862,0,0,1,2.953,1.635h.07a3.072,3.072,0,0,1,1.248-1.2,3.873,3.873,0,0,1,1.863-.439,3.262,3.262,0,0,1,2.448.839,3.755,3.755,0,0,1,.813,2.685V67Zm8.947.176a4.169,4.169,0,0,1-1.718-.347,3.231,3.231,0,0,1-1.305-1.068h-.105a12.921,12.921,0,0,1,.105,1.6v3.964h-1.459V57.367h1.187l.2,1.318h.07a3.388,3.388,0,0,1,1.31-1.143,3.981,3.981,0,0,1,1.714-.352,3.56,3.56,0,0,1,2.958,1.31,5.766,5.766,0,0,1,1.042,3.674,5.732,5.732,0,0,1-1.059,3.687A3.566,3.566,0,0,1,141.9,67.176Zm-.211-8.745a2.585,2.585,0,0,0-2.136.817,4.206,4.206,0,0,0-.677,2.6v.325a4.821,4.821,0,0,0,.677,2.9,2.574,2.574,0,0,0,2.171.875,2.257,2.257,0,0,0,1.956-1.011,4.793,4.793,0,0,0,.708-2.786,4.613,4.613,0,0,0-.708-2.764A2.327,2.327,0,0,0,141.694,58.431Zm11.153-1.239A5.709,5.709,0,0,1,154,57.3l-.2,1.354a4.97,4.97,0,0,0-1.055-.132,2.567,2.567,0,0,0-2,.949,3.461,3.461,0,0,0-.831,2.364V67h-1.459V57.367h1.2l.167,1.784h.07a4.234,4.234,0,0,1,1.292-1.45A2.908,2.908,0,0,1,152.847,57.191Zm6.662,9.984a4.426,4.426,0,0,1-3.371-1.3,5.036,5.036,0,0,1-1.235-3.612,5.585,5.585,0,0,1,1.147-3.7,3.81,3.81,0,0,1,3.081-1.371A3.633,3.633,0,0,1,162,58.382a4.564,4.564,0,0,1,1.055,3.142v.923h-6.636a3.818,3.818,0,0,0,.857,2.575,2.964,2.964,0,0,0,2.29.879,7.759,7.759,0,0,0,3.076-.65v1.3a7.721,7.721,0,0,1-1.463.479A8.224,8.224,0,0,1,159.509,67.176Zm-.4-8.763a2.383,2.383,0,0,0-1.85.756,3.484,3.484,0,0,0-.813,2.092h5.036a3.208,3.208,0,0,0-.615-2.114A2.165,2.165,0,0,0,159.114,58.413Zm12.639,5.959a2.413,2.413,0,0,1-1,2.074,4.71,4.71,0,0,1-2.812.729,6.116,6.116,0,0,1-2.988-.606V65.216a7.227,7.227,0,0,0,1.49.554,6.221,6.221,0,0,0,1.534.2,3.478,3.478,0,0,0,1.758-.365,1.256,1.256,0,0,0,.127-2.074,7.673,7.673,0,0,0-1.9-.945,10.318,10.318,0,0,1-1.912-.875,2.611,2.611,0,0,1-.844-.848,2.212,2.212,0,0,1-.277-1.134,2.161,2.161,0,0,1,.958-1.859,4.464,4.464,0,0,1,2.628-.681,7.689,7.689,0,0,1,3.041.633l-.519,1.187a6.98,6.98,0,0,0-2.628-.6,3.023,3.023,0,0,0-1.564.325,1.006,1.006,0,0,0-.527.9,1.092,1.092,0,0,0,.2.659,1.952,1.952,0,0,0,.637.519,14.24,14.24,0,0,0,1.688.712,6.3,6.3,0,0,1,2.316,1.257A2.216,2.216,0,0,1,171.752,64.372Zm8.3,2.628-.29-1.371h-.07a4.053,4.053,0,0,1-1.437,1.226,4.38,4.38,0,0,1-1.789.321,3.217,3.217,0,0,1-2.246-.738,2.693,2.693,0,0,1-.813-2.1q0-2.918,4.667-3.059l1.635-.053v-.6a2.442,2.442,0,0,0-.488-1.674,2.006,2.006,0,0,0-1.56-.541,6.357,6.357,0,0,0-2.725.738l-.448-1.116a6.856,6.856,0,0,1,1.56-.606,6.757,6.757,0,0,1,1.7-.22,3.669,3.669,0,0,1,2.553.765,3.192,3.192,0,0,1,.831,2.452V67Zm-3.3-1.028a2.961,2.961,0,0,0,2.14-.747,2.764,2.764,0,0,0,.778-2.092v-.87l-1.459.062a5.307,5.307,0,0,0-2.509.541,1.63,1.63,0,0,0-.769,1.49,1.5,1.5,0,0,0,.479,1.2A1.988,1.988,0,0,0,176.753,65.972Zm13.6-1.6a2.413,2.413,0,0,1-1,2.074,4.71,4.71,0,0,1-2.812.729,6.116,6.116,0,0,1-2.988-.606V65.216a7.227,7.227,0,0,0,1.49.554,6.221,6.221,0,0,0,1.534.2,3.478,3.478,0,0,0,1.758-.365,1.256,1.256,0,0,0,.127-2.074,7.673,7.673,0,0,0-1.9-.945,10.318,10.318,0,0,1-1.912-.875,2.611,2.611,0,0,1-.844-.848,2.212,2.212,0,0,1-.277-1.134,2.161,2.161,0,0,1,.958-1.859,4.464,4.464,0,0,1,2.628-.681,7.689,7.689,0,0,1,3.041.633l-.519,1.187a6.98,6.98,0,0,0-2.628-.6,3.023,3.023,0,0,0-1.564.325,1.006,1.006,0,0,0-.527.9,1.092,1.092,0,0,0,.2.659,1.952,1.952,0,0,0,.637.519,14.24,14.24,0,0,0,1.688.712,6.3,6.3,0,0,1,2.316,1.257A2.216,2.216,0,0,1,190.35,64.372Zm2.162,1.7a1.309,1.309,0,0,1,.268-.892.972.972,0,0,1,.769-.3,1.04,1.04,0,0,1,.8.3,1.255,1.255,0,0,1,.286.892,1.233,1.233,0,0,1-.29.879,1.153,1.153,0,0,1-1.534.031A1.2,1.2,0,0,1,192.512,66.068Z" transform="translate(1169 1883)" fill="#00223d"/>
    <g id="Grupo_38712" data-name="Grupo 38712" transform="translate(1022.212 1856.647)">
      <g id="Grupo_38601" data-name="Grupo 38601" transform="translate(1.572 67.214)">
        <g id="Grupo_38600" data-name="Grupo 38600">
          <ellipse id="Elipse_522" data-name="Elipse 522" cx="12.766" cy="15.591" rx="12.766" ry="15.591" fill="#8cb3de"/>
        </g>
      </g>
      <g id="Grupo_38603" data-name="Grupo 38603" transform="translate(10.061 112.457)">
        <g id="Grupo_38602" data-name="Grupo 38602">
          <path id="Trazado_82913" data-name="Trazado 82913" d="M39.646,201.992c-.008-.105-.013-.211-.013-.319a4.247,4.247,0,1,1,8.494,0c0,.107-.006.213-.013.319Z" transform="translate(-39.633 -197.426)" fill="#8cb3de"/>
        </g>
      </g>
      <g id="Grupo_38605" data-name="Grupo 38605" transform="translate(14.175 89.416)">
        <g id="Grupo_38604" data-name="Grupo 38604">
          <rect id="Rectángulo_32636" data-name="Rectángulo 32636" width="0.743" height="27.607" fill="#8cb3de"/>
        </g>
      </g>
      <g id="Grupo_38607" data-name="Grupo 38607" transform="translate(4.476 91.575)">
        <g id="Grupo_38606" data-name="Grupo 38606">
          <path id="Rectángulo_32637" data-name="Rectángulo 32637" d="M3.337,0H16.387a3.336,3.336,0,0,1,3.336,3.336v2.08a3.336,3.336,0,0,1-3.336,3.336H3.337A3.337,3.337,0,0,1,0,5.416V3.337A3.337,3.337,0,0,1,3.337,0Z" fill="#8cb3de"/>
        </g>
      </g>
      <g id="Grupo_38609" data-name="Grupo 38609" transform="translate(8.84 92.221)">
        <g id="Grupo_38608" data-name="Grupo 38608">
          <path id="Trazado_82914" data-name="Trazado 82914" d="M52.515,168.024H37.859v3.517c0,1.9,1.2,2.761,3.1,2.761H52.167c1.9,0,3.8-.857,3.8-2.761v-.07A3.448,3.448,0,0,0,52.515,168.024Z" transform="translate(-37.859 -168.024)" fill="#29266b"/>
        </g>
      </g>
      <g id="Grupo_38611" data-name="Grupo 38611" transform="translate(7.466 73.277)">
        <g id="Grupo_38610" data-name="Grupo 38610">
          <path id="Trazado_82915" data-name="Trazado 82915" d="M37.236,159.4H48.173l1.366-16.2a2.488,2.488,0,0,0-2.48-2.7H38.35a2.488,2.488,0,0,0-2.479,2.7Z" transform="translate(-35.862 -140.501)" fill="#ff645f"/>
        </g>
      </g>
      <g id="Grupo_38613" data-name="Grupo 38613" transform="translate(21.69 94.195)">
        <g id="Grupo_38612" data-name="Grupo 38612">
          <path id="Trazado_82916" data-name="Trazado 82916" d="M61.629,171.9l1.745,19.822H60.721s-3.719-11.9-4.144-16.147,2.127-4.687,2.127-4.687Z" transform="translate(-56.529 -170.892)" fill="#29266b"/>
        </g>
      </g>
      <g id="Grupo_38615" data-name="Grupo 38615" transform="translate(13.119 94.171)">
        <g id="Grupo_38614" data-name="Grupo 38614">
          <path id="Trazado_82917" data-name="Trazado 82917" d="M49.3,171.624l1.8,20.09H48.45s-3.9-12.895-4.329-17.142,2.312-3.691,2.312-3.691Z" transform="translate(-44.076 -170.857)" fill="#29266b"/>
        </g>
      </g>
      <g id="Grupo_38617" data-name="Grupo 38617" transform="translate(19.511 74.763)">
        <g id="Grupo_38616" data-name="Grupo 38616">
          <path id="Trazado_82918" data-name="Trazado 82918" d="M54.743,142.661l3.929,7.433-5.309-.425Z" transform="translate(-53.362 -142.661)" fill="#ff645f"/>
        </g>
      </g>
      <g id="Grupo_38619" data-name="Grupo 38619" transform="translate(1.138 74.1)">
        <g id="Grupo_38618" data-name="Grupo 38618">
          <path id="Trazado_82919" data-name="Trazado 82919" d="M33.654,141.7l-6.848,9.875a1.516,1.516,0,0,0,.637,1.991l10.592,2.389,1.38-2.336-7.433-2.681,5.336-5.336Z" transform="translate(-26.669 -141.697)" fill="#ff645f"/>
        </g>
      </g>
      <g id="Grupo_38621" data-name="Grupo 38621" transform="translate(25.882 115.028)">
        <g id="Grupo_38620" data-name="Grupo 38620">
          <path id="Trazado_82920" data-name="Trazado 82920" d="M65.22,201.161h-2.6v2h5.276c.349,0,.468-.783.163-.951Z" transform="translate(-62.619 -201.161)" fill="#ff645f"/>
        </g>
      </g>
      <g id="Grupo_38623" data-name="Grupo 38623" transform="translate(17.547 115.028)">
        <g id="Grupo_38622" data-name="Grupo 38622">
          <path id="Trazado_82921" data-name="Trazado 82921" d="M53.11,201.161h-2.6v2h5.276c.348,0,.468-.783.163-.951Z" transform="translate(-50.509 -201.161)" fill="#ff645f"/>
        </g>
      </g>
      <g id="Grupo_38629" data-name="Grupo 38629" transform="translate(7.466 73.277)">
        <g id="Grupo_38628" data-name="Grupo 38628" clip-path="url(#clip-path)">
          <g id="Grupo_38625" data-name="Grupo 38625" transform="translate(-0.004 10.367)">
            <g id="Grupo_38624" data-name="Grupo 38624">
              <rect id="Rectángulo_32638" data-name="Rectángulo 32638" width="0.23" height="6.995" transform="matrix(0.324, -0.946, 0.946, 0.324, 0, 0.217)" fill="#112256"/>
            </g>
          </g>
          <g id="Grupo_38627" data-name="Grupo 38627" transform="translate(-1.653 13.939)">
            <g id="Grupo_38626" data-name="Grupo 38626">
              <rect id="Rectángulo_32639" data-name="Rectángulo 32639" width="0.23" height="7.628" transform="matrix(0.084, -0.996, 0.996, 0.084, 0, 0.229)" fill="#112256"/>
            </g>
          </g>
        </g>
      </g>
      <g id="Grupo_38631" data-name="Grupo 38631" transform="translate(11.6 87.744)">
        <g id="Grupo_38630" data-name="Grupo 38630">
          <rect id="Rectángulo_32640" data-name="Rectángulo 32640" width="17.071" height="1.447" fill="#d0e0f0"/>
        </g>
      </g>
      <g id="Grupo_38638" data-name="Grupo 38638" transform="translate(0 89.135)">
        <g id="Grupo_38633" data-name="Grupo 38633">
          <g id="Grupo_38632" data-name="Grupo 38632">
            <rect id="Rectángulo_32641" data-name="Rectángulo 32641" width="101.077" height="1.163" fill="#2b79e6"/>
          </g>
        </g>
        <g id="Grupo_38635" data-name="Grupo 38635" transform="translate(100.652 0.21)">
          <g id="Grupo_38634" data-name="Grupo 38634">
            <rect id="Rectángulo_32642" data-name="Rectángulo 32642" width="0.425" height="27.607" fill="#2b79e6"/>
          </g>
        </g>
        <g id="Grupo_38637" data-name="Grupo 38637" transform="translate(0 0.21)">
          <g id="Grupo_38636" data-name="Grupo 38636">
            <rect id="Rectángulo_32643" data-name="Rectángulo 32643" width="0.425" height="27.607" fill="#2b79e6"/>
          </g>
        </g>
      </g>
      <g id="Grupo_38640" data-name="Grupo 38640" transform="translate(12.677 85.875)">
        <g id="Grupo_38639" data-name="Grupo 38639">
          <path id="Trazado_82923" data-name="Trazado 82923" d="M43.434,160.715h4.353l.319-1.911H44.82a1.259,1.259,0,0,0-1.242,1.052Z" transform="translate(-43.434 -158.804)" fill="#fca89e"/>
        </g>
      </g>
      <g id="Grupo_38642" data-name="Grupo 38642" transform="translate(14.952 79.317)">
        <g id="Grupo_38641" data-name="Grupo 38641">
          <path id="Trazado_82924" data-name="Trazado 82924" d="M46.739,157.764H60.447l1.881-8.487H48.62Z" transform="translate(-46.739 -149.276)" fill="#d0e0f0"/>
        </g>
      </g>
      <g id="Grupo_38644" data-name="Grupo 38644" transform="translate(22.112 82.886)">
        <g id="Grupo_38643" data-name="Grupo 38643">
          <path id="Trazado_82925" data-name="Trazado 82925" d="M57.142,155.365a.9.9,0,1,0,.9-.9A.9.9,0,0,0,57.142,155.365Z" transform="translate(-57.142 -154.462)" fill="#2b79e6"/>
        </g>
      </g>
      <g id="Grupo_38646" data-name="Grupo 38646" transform="translate(12.136 69.766)">
        <g id="Grupo_38645" data-name="Grupo 38645">
          <path id="Trazado_82926" data-name="Trazado 82926" d="M45.3,139.647H43.6a1.022,1.022,0,0,1-.956-1.076v-2.094A1.022,1.022,0,0,1,43.6,135.4h1.7a1.022,1.022,0,0,1,.956,1.076v2.094A1.022,1.022,0,0,1,45.3,139.647Z" transform="translate(-42.648 -135.4)" fill="#f79b94"/>
        </g>
      </g>
      <g id="Grupo_38648" data-name="Grupo 38648" transform="translate(9.634 62.494)">
        <g id="Grupo_38647" data-name="Grupo 38647">
          <path id="Trazado_82927" data-name="Trazado 82927" d="M47.06,132.1c-.682,2.309-2.613,1.956-4.923,1.273a4.36,4.36,0,1,1,2.472-8.362C46.918,125.7,47.742,129.794,47.06,132.1Z" transform="translate(-39.012 -124.834)" fill="#fca89e"/>
        </g>
      </g>
      <g id="Grupo_38650" data-name="Grupo 38650" transform="translate(11.579 60.688)">
        <g id="Grupo_38649" data-name="Grupo 38649">
          <path id="Trazado_82928" data-name="Trazado 82928" d="M41.838,126.619s6.314.77,8.219,0c1.793-.725,2.437-2.015,1.068-3.425-1.756-1.808-4.593-.886-7.091.847A14.2,14.2,0,0,0,41.838,126.619Z" transform="translate(-41.838 -122.211)" fill="#29266b"/>
        </g>
      </g>
      <g id="Grupo_38654" data-name="Grupo 38654" transform="translate(9.634 62.494)">
        <g id="Grupo_38653" data-name="Grupo 38653" clip-path="url(#clip-path-2)">
          <g id="Grupo_38652" data-name="Grupo 38652" transform="translate(-1.018 -1.122)">
            <g id="Grupo_38651" data-name="Grupo 38651">
              <path id="Trazado_82929" data-name="Trazado 82929" d="M41.8,126.661s0,1.54-.212,1.54a1.494,1.494,0,0,0-1.593.425c-.584.743.053,1.487.743,1.646s.213,1.964-1.433,1.646-2.23-4.194-1.381-5.681,3.557-3.132,4.513-3.026,1.433,2.389,1.433,2.389Z" transform="translate(-37.534 -123.205)" fill="#29266b"/>
            </g>
          </g>
        </g>
      </g>
      <g id="Grupo_38656" data-name="Grupo 38656" transform="translate(13.251 67.483)">
        <g id="Grupo_38655" data-name="Grupo 38655">
          <path id="Trazado_82931" data-name="Trazado 82931" d="M50.374,135.136a3.053,3.053,0,1,1-3.053-3.053A3.053,3.053,0,0,1,50.374,135.136Z" transform="translate(-44.268 -132.083)" fill="#29266b"/>
        </g>
      </g>
      <g id="Grupo_38658" data-name="Grupo 38658" transform="translate(15.163 68.61)">
        <g id="Grupo_38657" data-name="Grupo 38657">
          <rect id="Rectángulo_32644" data-name="Rectángulo 32644" width="2.23" height="1.156" rx="0.578" fill="#fca89e"/>
        </g>
      </g>
      <g id="Grupo_38659" data-name="Grupo 38659" transform="translate(32.219 73.08)">
        <rect id="Rectángulo_32645" data-name="Rectángulo 32645" width="7.131" height="15.975" fill="#cdeefc"/>
      </g>
      <g id="Grupo_38660" data-name="Grupo 38660" transform="translate(41.014 76.79)">
        <rect id="Rectángulo_32646" data-name="Rectángulo 32646" width="7.131" height="12.265" fill="#2b79e6"/>
      </g>
      <g id="Grupo_38661" data-name="Grupo 38661" transform="translate(49.808 54.175)">
        <rect id="Rectángulo_32647" data-name="Rectángulo 32647" width="7.131" height="34.881" fill="#ff645f"/>
      </g>
      <g id="Grupo_38662" data-name="Grupo 38662" transform="translate(58.602 58.211)">
        <rect id="Rectángulo_32648" data-name="Rectángulo 32648" width="7.131" height="30.844" fill="#29266b"/>
      </g>
      <g id="Grupo_38663" data-name="Grupo 38663" transform="translate(67.397 68.118)">
        <rect id="Rectángulo_32649" data-name="Rectángulo 32649" width="7.131" height="20.937" fill="#cdeefc"/>
      </g>
      <g id="Grupo_38664" data-name="Grupo 38664" transform="translate(76.191 52.744)">
        <rect id="Rectángulo_32650" data-name="Rectángulo 32650" width="7.131" height="36.311" fill="#2b79e6"/>
      </g>
      <g id="Grupo_38665" data-name="Grupo 38665" transform="translate(84.986 46.862)">
        <rect id="Rectángulo_32651" data-name="Rectángulo 32651" width="7.131" height="42.194" fill="#ff9f9f"/>
      </g>
      <g id="Grupo_38666" data-name="Grupo 38666" transform="translate(93.78 39.457)">
        <rect id="Rectángulo_32652" data-name="Rectángulo 32652" width="7.131" height="49.599" fill="#29266b"/>
      </g>
      <g id="Grupo_38682" data-name="Grupo 38682" transform="translate(17.965 32.211)">
        <g id="Grupo_38668" data-name="Grupo 38668">
          <g id="Grupo_38667" data-name="Grupo 38667">
            <ellipse id="Elipse_523" data-name="Elipse 523" cx="13.681" cy="13.681" rx="13.681" ry="13.681" transform="matrix(0.122, -0.993, 0.993, 0.122, 0, 27.158)" fill="#29266b"/>
          </g>
        </g>
        <g id="Grupo_38679" data-name="Grupo 38679" transform="translate(1.569 1.569)">
          <g id="Grupo_38670" data-name="Grupo 38670" transform="translate(10.038)">
            <g id="Grupo_38669" data-name="Grupo 38669">
              <path id="Trazado_82932" data-name="Trazado 82932" d="M76.309,83.941a13.715,13.715,0,0,0-8.33-.33L71.623,96.8Z" transform="translate(-67.979 -83.117)" fill="#d0e0f0"/>
            </g>
          </g>
          <g id="Grupo_38672" data-name="Grupo 38672" transform="translate(0.735 0.494)">
            <g id="Grupo_38671" data-name="Grupo 38671">
              <path id="Trazado_82933" data-name="Trazado 82933" d="M63.766,83.835a13.707,13.707,0,0,0-9.3,8.765L67.41,97.022Z" transform="translate(-54.463 -83.835)" fill="#2b79e6"/>
            </g>
          </g>
          <g id="Grupo_38674" data-name="Grupo 38674" transform="translate(0 9.29)">
            <g id="Grupo_38673" data-name="Grupo 38673">
              <path id="Trazado_82934" data-name="Trazado 82934" d="M54.12,96.615a13.672,13.672,0,0,0,4.9,15.442l8.062-11.051Z" transform="translate(-53.395 -96.615)" fill="#ff9f9f"/>
            </g>
          </g>
          <g id="Grupo_38676" data-name="Grupo 38676" transform="translate(12.017 13.681)">
            <g id="Grupo_38675" data-name="Grupo 38675">
              <path id="Trazado_82935" data-name="Trazado 82935" d="M70.854,116.571a13.854,13.854,0,0,0,1.665.1,13.614,13.614,0,0,0,7.95-2.55l-7.95-11.131Z" transform="translate(-70.854 -102.994)" fill="#8cb3de"/>
            </g>
          </g>
          <g id="Grupo_38678" data-name="Grupo 38678" transform="translate(13.682 13.681)">
            <g id="Grupo_38677" data-name="Grupo 38677">
              <path id="Trazado_82936" data-name="Trazado 82936" d="M81.235,114.117a13.76,13.76,0,0,0,2.708-2.563l-10.67-8.559Z" transform="translate(-73.273 -102.994)" fill="#ff645f"/>
            </g>
          </g>
        </g>
        <g id="Grupo_38681" data-name="Grupo 38681" transform="translate(7.17 15.25)">
          <g id="Grupo_38680" data-name="Grupo 38680">
            <path id="Trazado_82937" data-name="Trazado 82937" d="M69.613,102.994l-8.08,11.038a13.6,13.6,0,0,0,6.446,2.543Z" transform="translate(-61.533 -102.994)" fill="#f2f2f2"/>
          </g>
        </g>
      </g>
      <g id="Grupo_38711" data-name="Grupo 38711" transform="translate(45.998 0)">
        <g id="Grupo_38685" data-name="Grupo 38685" transform="translate(0 0.423)">
          <g id="Grupo_38684" data-name="Grupo 38684">
            <g id="Grupo_38683" data-name="Grupo 38683">
              <path id="Trazado_82938" data-name="Trazado 82938" d="M115.509,34.652a23.663,23.663,0,1,0,23.664,23.664A23.663,23.663,0,0,0,115.509,34.652Zm0,41.7A18.041,18.041,0,1,1,133.55,58.316,18.041,18.041,0,0,1,115.509,76.356Z" transform="translate(-91.846 -34.652)" fill="#f2f2f2"/>
            </g>
          </g>
        </g>
        <g id="Grupo_38687" data-name="Grupo 38687" transform="translate(7.809 8.233)">
          <g id="Grupo_38686" data-name="Grupo 38686">
            <circle id="Elipse_524" data-name="Elipse 524" cx="13.258" cy="13.258" r="13.258" transform="matrix(0.22, -0.975, 0.975, 0.22, 0, 25.864)" fill="#2b79e6"/>
          </g>
        </g>
        <g id="Grupo_38689" data-name="Grupo 38689" transform="translate(14.517 14.94)">
          <g id="Grupo_38688" data-name="Grupo 38688">
            <path id="Trazado_82939" data-name="Trazado 82939" d="M131.23,64.891a9.147,9.147,0,1,1-9.147-9.147A9.146,9.146,0,0,1,131.23,64.891Z" transform="translate(-112.937 -55.744)" fill="#fff"/>
          </g>
        </g>
        <g id="Grupo_38691" data-name="Grupo 38691" transform="translate(10.378 13.671)">
          <g id="Grupo_38690" data-name="Grupo 38690">
            <path id="Trazado_82940" data-name="Trazado 82940" d="M119.873,66.418l-12.949-7.473,1.2-2.079,11.753,6.783L136.85,53.9l1.2,2.082Z" transform="translate(-106.924 -53.9)" fill="#29266b"/>
          </g>
        </g>
        <g id="Grupo_38693" data-name="Grupo 38693" transform="translate(19.132 19.555)">
          <g id="Grupo_38692" data-name="Grupo 38692">
            <path id="Trazado_82941" data-name="Trazado 82941" d="M128.706,66.981a4.531,4.531,0,1,1-4.532-4.532A4.532,4.532,0,0,1,128.706,66.981Z" transform="translate(-119.643 -62.449)" fill="#ff645f"/>
          </g>
        </g>
        <g id="Grupo_38704" data-name="Grupo 38704" transform="translate(0 0.423)">
          <g id="Grupo_38695" data-name="Grupo 38695" transform="translate(22.91)">
            <g id="Grupo_38694" data-name="Grupo 38694">
              <path id="Trazado_82942" data-name="Trazado 82942" d="M125.885,40.275A18.04,18.04,0,0,1,142.67,64.928l5.237,2.063a23.677,23.677,0,0,0-22.022-32.34c-.252,0-.5.006-.753.014l.179,5.623C125.5,40.283,125.692,40.275,125.885,40.275Z" transform="translate(-125.132 -34.652)" fill="#cdeefc"/>
            </g>
          </g>
          <g id="Grupo_38697" data-name="Grupo 38697" transform="translate(0.165 25.794)">
            <g id="Grupo_38696" data-name="Grupo 38696">
              <path id="Trazado_82943" data-name="Trazado 82943" d="M108.047,86.389A18.05,18.05,0,0,1,97.673,72.128l-5.587.665A23.682,23.682,0,0,0,105.7,91.5Z" transform="translate(-92.086 -72.128)" fill="#2b79e6"/>
            </g>
          </g>
          <g id="Grupo_38699" data-name="Grupo 38699" transform="translate(13.775 40.055)">
            <g id="Grupo_38698" data-name="Grupo 38698">
              <path id="Trazado_82944" data-name="Trazado 82944" d="M121.748,94.5a17.968,17.968,0,0,1-7.537-1.65l-2.351,5.112a23.727,23.727,0,0,0,17.943.753l-1.914-5.288A18.008,18.008,0,0,1,121.748,94.5Z" transform="translate(-111.86 -92.847)" fill="#29266b"/>
            </g>
          </g>
          <g id="Grupo_38701" data-name="Grupo 38701" transform="translate(0 0.014)">
            <g id="Grupo_38700" data-name="Grupo 38700">
              <path id="Trazado_82945" data-name="Trazado 82945" d="M97.468,58.322A18.038,18.038,0,0,1,114.935,40.3l-.179-5.623A23.666,23.666,0,0,0,92.011,61.117l5.587-.665A18.136,18.136,0,0,1,97.468,58.322Z" transform="translate(-91.846 -34.672)" fill="#ff645f"/>
            </g>
          </g>
          <g id="Grupo_38703" data-name="Grupo 38703" transform="translate(36.036 30.276)">
            <g id="Grupo_38702" data-name="Grupo 38702">
              <path id="Trazado_82946" data-name="Trazado 82946" d="M144.2,85.15l3.859,4.094a23.7,23.7,0,0,0,5.79-8.541l-5.237-2.063A18.062,18.062,0,0,1,144.2,85.15Z" transform="translate(-144.203 -78.64)" fill="#ff9f9f"/>
            </g>
          </g>
        </g>
        <g id="Grupo_38706" data-name="Grupo 38706" transform="translate(41.449)">
          <g id="Grupo_38705" data-name="Grupo 38705">
            <path id="Trazado_82947" data-name="Trazado 82947" d="M152.067,40.072l.415-3,4.789-3.033-.862,3.193Z" transform="translate(-152.067 -34.037)" fill="#ff645f"/>
          </g>
        </g>
        <g id="Grupo_38708" data-name="Grupo 38708" transform="translate(41.678 3.708)">
          <g id="Grupo_38707" data-name="Grupo 38707">
            <path id="Trazado_82948" data-name="Trazado 82948" d="M152.4,42.194l2.9.869,4.749-3.1-3.263-.543Z" transform="translate(-152.4 -39.425)" fill="#ff645f"/>
          </g>
        </g>
        <g id="Grupo_38710" data-name="Grupo 38710" transform="translate(28.245 3.192)">
          <g id="Grupo_38709" data-name="Grupo 38709">
            <rect id="Rectángulo_32653" data-name="Rectángulo 32653" width="0.603" height="20.937" transform="translate(17.546) rotate(56.933)" fill="#353f49"/>
          </g>
        </g>
      </g>
    </g>
  </g>
</svg>
