<svg xmlns="http://www.w3.org/2000/svg" xmlns:xlink="http://www.w3.org/1999/xlink" width="486.733" height="117.05" viewBox="0 0 486.733 117.05">
  <defs>
    <clipPath id="clip-path">
      <path id="Trazado_82965" data-name="Trazado 82965" d="M32.348,366.077l10.558-.017-3.192-14.648c-.247-1.165-2.177-2.973-3.318-2.629l-7.632,2.233a2.035,2.035,0,0,0-1.306,2.7Z" transform="translate(-27.314 -348.74)" fill="none"/>
    </clipPath>
    <clipPath id="clip-path-2">
      <path id="Trazado_82975" data-name="Trazado 82975" d="M179.7,366.077l-10.558-.017,3.193-14.648c.246-1.165,2.177-2.973,3.318-2.629l7.632,2.233a2.034,2.034,0,0,1,1.306,2.7Z" transform="translate(-169.142 -348.74)" fill="none"/>
    </clipPath>
  </defs>
  <g id="Grupo_40304" data-name="Grupo 40304" transform="translate(-748.267 -2528)">
    <g id="Grupo_39408" data-name="Grupo 39408" transform="translate(0 41)">
      <rect id="Rectángulo_32755" data-name="Rectángulo 32755" width="349" height="117" transform="translate(886 2487)" fill="#c0dff1"/>
      <text id="Planes_a_mediano_y_largo_plazo_" data-name="Planes a mediano y largo plazo
" transform="translate(901 2533)" fill="#00223d" font-size="18" font-family="OpenSans, Open Sans"><tspan x="26.848" y="19">Planes a mediano y largo plazo</tspan><tspan x="156.5" y="43"></tspan></text>
    </g>
    <g id="Grupo_38786" data-name="Grupo 38786" transform="translate(748.267 2528.2)">
      <g id="Grupo_38715" data-name="Grupo 38715" transform="translate(85.883 74.115)">
        <g id="Grupo_38714" data-name="Grupo 38714">
          <g id="Grupo_38713" data-name="Grupo 38713">
            <path id="Trazado_82949" data-name="Trazado 82949" d="M168.7,348.931c-2.386,1.006-7.221,7.2-7.221,7.2l-10.892,3.287.282,2.253,13.052-2.629s5.164-4.413,5.822-6.667S170.086,348.348,168.7,348.931Z" transform="translate(-150.589 -348.819)" fill="#608cef"/>
          </g>
        </g>
      </g>
      <g id="Grupo_38718" data-name="Grupo 38718" transform="translate(9.912 74.115)">
        <g id="Grupo_38717" data-name="Grupo 38717">
          <g id="Grupo_38716" data-name="Grupo 38716">
            <path id="Trazado_82950" data-name="Trazado 82950" d="M41.583,348.931c2.386,1.006,7.221,7.2,7.221,7.2L59.7,359.418l-.282,2.253-13.051-2.629s-5.165-4.413-5.822-6.667S40.2,348.348,41.583,348.931Z" transform="translate(-40.211 -348.819)" fill="#cdeefc"/>
          </g>
        </g>
      </g>
      <g id="Grupo_38721" data-name="Grupo 38721" transform="translate(22.786 0)">
        <g id="Grupo_38719" data-name="Grupo 38719">
          <path id="Trazado_82951" data-name="Trazado 82951" d="M128.849,346.651H58.916V241.138h55.21l14.723,15.234Z" transform="translate(-58.916 -241.138)" fill="#d0e0f0"/>
        </g>
        <g id="Grupo_38720" data-name="Grupo 38720" transform="translate(55.21)">
          <path id="Trazado_82952" data-name="Trazado 82952" d="M139.13,241.138l14.723,15.234h-14.62Z" transform="translate(-139.13 -241.138)" fill="#91c1f1"/>
        </g>
      </g>
      <g id="Grupo_38725" data-name="Grupo 38725" transform="translate(29.833 13.495)">
        <g id="Grupo_38722" data-name="Grupo 38722" transform="translate(0.205 29.223)">
          <path id="Trazado_82953" data-name="Trazado 82953" d="M92.868,310.371a9.5,9.5,0,0,1-5.115-7.168l-18.3,2.035a27.9,27.9,0,0,0,16.026,22Z" transform="translate(-69.452 -303.203)" fill="#ff645f"/>
        </g>
        <g id="Grupo_38723" data-name="Grupo 38723" transform="translate(17.213 2.747)">
          <path id="Trazado_82954" data-name="Trazado 82954" d="M109.529,281.626a9.5,9.5,0,0,1-7.974,17.185l-7.39,16.872a27.91,27.91,0,0,0,22.763-50.947Z" transform="translate(-94.164 -264.736)" fill="#29266b"/>
        </g>
        <g id="Grupo_38724" data-name="Grupo 38724">
          <path id="Trazado_82955" data-name="Trazado 82955" d="M87.573,288.9a9.5,9.5,0,0,1,13.194-8.987l7.387-16.865a27.918,27.918,0,0,0-38.905,27.89Z" transform="translate(-69.155 -260.744)" fill="#2b79e6"/>
        </g>
      </g>
      <g id="Grupo_38734" data-name="Grupo 38734" transform="translate(29.841 72.294)">
        <g id="Grupo_38726" data-name="Grupo 38726" transform="translate(0 14.85)">
          <rect id="Rectángulo_32654" data-name="Rectángulo 32654" width="5.795" height="8.441" fill="#8cb3de"/>
        </g>
        <g id="Grupo_38727" data-name="Grupo 38727" transform="translate(7.147 11.279)">
          <rect id="Rectángulo_32655" data-name="Rectángulo 32655" width="5.795" height="12.013" fill="#2b79e6"/>
        </g>
        <g id="Grupo_38728" data-name="Grupo 38728" transform="translate(14.294 7.895)">
          <rect id="Rectángulo_32656" data-name="Rectángulo 32656" width="5.795" height="15.397" fill="#ff645f"/>
        </g>
        <g id="Grupo_38729" data-name="Grupo 38729" transform="translate(21.441 10.715)">
          <rect id="Rectángulo_32657" data-name="Rectángulo 32657" width="5.795" height="12.577" fill="#29266b"/>
        </g>
        <g id="Grupo_38730" data-name="Grupo 38730" transform="translate(28.588 9.211)">
          <rect id="Rectángulo_32658" data-name="Rectángulo 32658" width="5.795" height="14.081" fill="#8cb3de"/>
        </g>
        <g id="Grupo_38731" data-name="Grupo 38731" transform="translate(35.735 6.015)">
          <rect id="Rectángulo_32659" data-name="Rectángulo 32659" width="5.795" height="17.276" fill="#2b79e6"/>
        </g>
        <g id="Grupo_38732" data-name="Grupo 38732" transform="translate(42.882 3.008)">
          <rect id="Rectángulo_32660" data-name="Rectángulo 32660" width="5.795" height="20.284" fill="#ff9f9f"/>
        </g>
        <g id="Grupo_38733" data-name="Grupo 38733" transform="translate(50.029)">
          <rect id="Rectángulo_32661" data-name="Rectángulo 32661" width="5.795" height="23.292" fill="#29266b"/>
        </g>
      </g>
      <g id="Grupo_38758" data-name="Grupo 38758" transform="translate(0 72.506)">
        <g id="Grupo_38736" data-name="Grupo 38736" transform="translate(1.035 1.549)">
          <g id="Grupo_38735" data-name="Grupo 38735">
            <path id="Trazado_82956" data-name="Trazado 82956" d="M32.348,366.075l10.558-.017-2.94-13.677c-.562-2.4-2.429-3.944-3.57-3.6l-7.632,2.233a2.035,2.035,0,0,0-1.306,2.7Z" transform="translate(-27.314 -348.733)" fill="#61b3db"/>
          </g>
        </g>
        <g id="Grupo_38739" data-name="Grupo 38739" transform="translate(4.052)">
          <g id="Grupo_38738" data-name="Grupo 38738">
            <g id="Grupo_38737" data-name="Grupo 38737">
              <path id="Trazado_82957" data-name="Trazado 82957" d="M33.236,350.238l1.33-.4a.835.835,0,0,0,.494-1.068l-.493-1.639a.836.836,0,0,0-1-.617l-1.33.4a.835.835,0,0,0-.494,1.068l.493,1.639A.836.836,0,0,0,33.236,350.238Z" transform="translate(-31.698 -346.482)" fill="#fca89e"/>
            </g>
          </g>
        </g>
        <g id="Grupo_38741" data-name="Grupo 38741" transform="translate(1.359 18.874)">
          <g id="Grupo_38740" data-name="Grupo 38740">
            <path id="Trazado_82958" data-name="Trazado 82958" d="M32.495,373.921l10.558-.017v23.868H40.961S39.377,386,38.78,379.489H37.33l.1,9.262-8.5,7.444-1.137-1.911,5.648-7.317s-1.065-9.46-1.034-11.092A18.23,18.23,0,0,1,32.495,373.921Z" transform="translate(-27.785 -373.904)" fill="#2b79e6"/>
          </g>
        </g>
        <g id="Grupo_38743" data-name="Grupo 38743" transform="translate(14.53 42.712)">
          <g id="Grupo_38742" data-name="Grupo 38742">
            <path id="Trazado_82959" data-name="Trazado 82959" d="M49.047,408.537H46.92v1.632h4.314c.285,0,.383-.64.134-.778Z" transform="translate(-46.92 -408.537)" fill="#29266b"/>
          </g>
        </g>
        <g id="Grupo_38745" data-name="Grupo 38745" transform="translate(0 39.255)">
          <g id="Grupo_38744" data-name="Grupo 38744">
            <path id="Trazado_82960" data-name="Trazado 82960" d="M28.347,405.287l-1.178-1.772-1.359.9,2.388,3.594c.158.237.745-.036.721-.319Z" transform="translate(-25.81 -403.515)" fill="#29266b"/>
          </g>
        </g>
        <g id="Grupo_38748" data-name="Grupo 38748" transform="translate(0.998 3.868)">
          <g id="Grupo_38747" data-name="Grupo 38747">
            <g id="Grupo_38746" data-name="Grupo 38746">
              <path id="Trazado_82961" data-name="Trazado 82961" d="M28.958,352.1l8.768,8.425,9.482,2.544-.282,2.253-11.272-1.311s-6.853-6.244-7.924-8.332C26.709,353.686,27.455,352.1,28.958,352.1Z" transform="translate(-27.26 -352.102)" fill="#cdeefc"/>
            </g>
          </g>
        </g>
        <g id="Grupo_38751" data-name="Grupo 38751" transform="translate(20.664 14.663)">
          <g id="Grupo_38750" data-name="Grupo 38750">
            <g id="Grupo_38749" data-name="Grupo 38749">
              <path id="Trazado_82962" data-name="Trazado 82962" d="M56.115,367.959l-.282,2.253s2.862.27,3.272-.263c.767-1,.8-1.671.39-1.944C58.791,367.538,56.115,367.959,56.115,367.959Z" transform="translate(-55.833 -367.785)" fill="#fca89e"/>
            </g>
          </g>
        </g>
        <g id="Grupo_38757" data-name="Grupo 38757" transform="translate(1.035 1.554)">
          <g id="Grupo_38756" data-name="Grupo 38756" clip-path="url(#clip-path)">
            <g id="Grupo_38753" data-name="Grupo 38753" transform="translate(0.454 6.456)">
              <g id="Grupo_38752" data-name="Grupo 38752">
                <path id="Trazado_82963" data-name="Trazado 82963" d="M43.24,367.011,35.6,366l-7.628-7.746.134-.132,7.583,7.7,7.574,1.005Z" transform="translate(-27.974 -358.12)" fill="#29266b"/>
              </g>
            </g>
            <g id="Grupo_38755" data-name="Grupo 38755" transform="translate(5.224 5.935)">
              <g id="Grupo_38754" data-name="Grupo 38754">
                <path id="Trazado_82964" data-name="Trazado 82964" d="M44.873,363.346l-4.765-1.179L34.9,357.5l.125-.14L40.2,362l4.719,1.168Z" transform="translate(-34.903 -357.364)" fill="#29266b"/>
              </g>
            </g>
          </g>
        </g>
      </g>
      <g id="Grupo_38782" data-name="Grupo 38782" transform="translate(90.693 72.506)">
        <g id="Grupo_38760" data-name="Grupo 38760" transform="translate(7.96 1.549)">
          <g id="Grupo_38759" data-name="Grupo 38759">
            <path id="Trazado_82966" data-name="Trazado 82966" d="M179.7,366.075l-10.558-.017,2.94-13.677c.562-2.4,2.43-3.944,3.57-3.6l7.632,2.233a2.034,2.034,0,0,1,1.306,2.7Z" transform="translate(-169.142 -348.733)" fill="#2b79e6"/>
          </g>
        </g>
        <g id="Grupo_38763" data-name="Grupo 38763" transform="translate(17.13)">
          <g id="Grupo_38762" data-name="Grupo 38762">
            <g id="Grupo_38761" data-name="Grupo 38761">
              <path id="Trazado_82967" data-name="Trazado 82967" d="M184.332,350.238l-1.33-.4a.835.835,0,0,1-.494-1.068l.493-1.639a.836.836,0,0,1,1-.617l1.33.4a.835.835,0,0,1,.494,1.068l-.494,1.639A.836.836,0,0,1,184.332,350.238Z" transform="translate(-182.465 -346.482)" fill="#fca89e"/>
            </g>
          </g>
        </g>
        <g id="Grupo_38765" data-name="Grupo 38765" transform="translate(7.959 18.874)">
          <g id="Grupo_38764" data-name="Grupo 38764">
            <path id="Trazado_82968" data-name="Trazado 82968" d="M179.7,373.921l-10.558-.017v23.868h2.092s1.584-11.774,2.18-18.282h1.451l-.1,9.262,8.5,7.444,1.136-1.911-5.648-7.317s1.065-9.46,1.035-11.092A18.388,18.388,0,0,0,179.7,373.921Z" transform="translate(-169.141 -373.904)" fill="#ff645f"/>
          </g>
        </g>
        <g id="Grupo_38767" data-name="Grupo 38767" transform="translate(5.467 42.712)">
          <g id="Grupo_38766" data-name="Grupo 38766">
            <path id="Trazado_82969" data-name="Trazado 82969" d="M167.983,408.537h2.127v1.632H165.8c-.285,0-.383-.64-.134-.778Z" transform="translate(-165.52 -408.537)" fill="#8cb3de"/>
          </g>
        </g>
        <g id="Grupo_38769" data-name="Grupo 38769" transform="translate(21.476 39.255)">
          <g id="Grupo_38768" data-name="Grupo 38768">
            <path id="Trazado_82970" data-name="Trazado 82970" d="M189.354,405.287l1.177-1.772,1.359.9-2.388,3.594c-.158.237-.745-.036-.721-.319Z" transform="translate(-188.78 -403.515)" fill="#8cb3de"/>
          </g>
        </g>
        <g id="Grupo_38772" data-name="Grupo 38772" transform="translate(3.641 3.868)">
          <g id="Grupo_38771" data-name="Grupo 38771">
            <g id="Grupo_38770" data-name="Grupo 38770">
              <path id="Trazado_82971" data-name="Trazado 82971" d="M181.117,352.1l-8.769,8.425-9.482,2.544.282,2.253,11.272-1.311s6.853-6.244,7.923-8.332C183.367,353.686,182.619,352.1,181.117,352.1Z" transform="translate(-162.867 -352.102)" fill="#608cef"/>
            </g>
          </g>
        </g>
        <g id="Grupo_38775" data-name="Grupo 38775" transform="translate(0 14.663)">
          <g id="Grupo_38774" data-name="Grupo 38774">
            <g id="Grupo_38773" data-name="Grupo 38773">
              <path id="Trazado_82972" data-name="Trazado 82972" d="M161.218,367.959l.282,2.253s-2.862.27-3.272-.263c-.767-1-.8-1.671-.39-1.944C158.541,367.538,161.218,367.959,161.218,367.959Z" transform="translate(-157.577 -367.785)" fill="#fca89e"/>
            </g>
          </g>
        </g>
        <g id="Grupo_38781" data-name="Grupo 38781" transform="translate(7.96 1.554)">
          <g id="Grupo_38780" data-name="Grupo 38780" clip-path="url(#clip-path-2)">
            <g id="Grupo_38777" data-name="Grupo 38777" transform="translate(-0.153 6.456)">
              <g id="Grupo_38776" data-name="Grupo 38776">
                <path id="Trazado_82973" data-name="Trazado 82973" d="M168.944,367.011,176.582,366l7.628-7.746-.134-.132-7.583,7.7-7.574,1.005Z" transform="translate(-168.92 -358.12)" fill="#29266b"/>
              </g>
            </g>
            <g id="Grupo_38779" data-name="Grupo 38779" transform="translate(0.353 5.935)">
              <g id="Grupo_38778" data-name="Grupo 38778">
                <path id="Trazado_82974" data-name="Trazado 82974" d="M169.7,363.346l4.765-1.179,5.205-4.663-.125-.14L174.374,362l-4.719,1.168Z" transform="translate(-169.655 -357.364)" fill="#29266b"/>
              </g>
            </g>
          </g>
        </g>
      </g>
      <path id="Trazado_82976" data-name="Trazado 82976" d="M32.133,340.242c1.549-.172,1.979.946,2.237,3.1.226,1.879-.025,2.816-1.893,2.839s-4.646-.946-4.388-3.269S32.133,340.242,32.133,340.242Z" transform="translate(-26.515 -272.025)" fill="#ffbbb6"/>
      <path id="Trazado_82977" data-name="Trazado 82977" d="M183.5,339.617c-1.549-.172-1.979.946-2.237,3.1-.226,1.879.025,2.816,1.893,2.839s4.646-.946,4.388-3.269S183.5,339.617,183.5,339.617Z" transform="translate(-74.247 -271.83)" fill="#ffbbb6"/>
      <g id="Grupo_38783" data-name="Grupo 38783" transform="translate(0.818 64.951)">
        <path id="Trazado_82978" data-name="Trazado 82978" d="M28.518,343.452c-.23.689-2.556-2.658-.971-4.7s3.393-1.553,3.987-1.738c1.635-.511,1.074-1.227,1.278-1.483s2.354,1.6,1.277,3.271c-1.022,1.585-2.454,1.278-4.089,1.432-.957.089-.358.971.255,1.483s.767.767.46.971-.664.2-1.483-.409S28.569,343.3,28.518,343.452Z" transform="translate(-26.998 -335.504)" fill="#2b79e6"/>
      </g>
      <g id="Grupo_38784" data-name="Grupo 38784" transform="translate(107.363 65.234)">
        <path id="Trazado_82979" data-name="Trazado 82979" d="M182.336,339.005a1.744,1.744,0,0,1,.307-2.761c1.3-.92,2.76.345,3.143.767.314.345,1.121-1.238,2.722-.307,1.649.959.268,2.454.346,2.684s1.7.443,1.227,2.224c-.306,1.15-1.8,1.073-2.032,1.3s.345,1.879-1.189,2.071a1.441,1.441,0,0,1-1.495-2.147c.584-.856,1.419-.613,1.419-.92s-1.227-.422-1.572-1.227c-.405-.946.191-1.611-.192-1.687S183.793,339.81,182.336,339.005Z" transform="translate(-181.796 -335.917)" fill="#705053"/>
      </g>
      <g id="Grupo_38785" data-name="Grupo 38785" transform="translate(106.67 71.58)">
        <path id="Trazado_82980" data-name="Trazado 82980" d="M181.026,345.138c-.261-.065-.5,1.878.421,2.339s3.059.4,3.063.01-.493-.7-1.836-1.2C181.671,345.916,181.485,345.253,181.026,345.138Z" transform="translate(-180.791 -345.137)" fill="#705053"/>
      </g>
    </g>
  </g>
</svg>
