<svg xmlns="http://www.w3.org/2000/svg" xmlns:xlink="http://www.w3.org/1999/xlink" width="461.209" height="459.602" viewBox="0 0 461.209 459.602">
  <defs>
    <linearGradient id="linear-gradient" x1="1.099" y1="1.147" x2="0.389" y2="0.402" gradientUnits="objectBoundingBox">
      <stop offset="0" stop-color="#dae3fe"/>
      <stop offset="1" stop-color="#e9effd"/>
    </linearGradient>
    <linearGradient id="linear-gradient-2" x1="0.637" y1="-0.164" x2="0.351" y2="2.182" gradientUnits="objectBoundingBox">
      <stop offset="0" stop-color="#ff928e"/>
      <stop offset="1" stop-color="#fe7062"/>
    </linearGradient>
    <linearGradient id="linear-gradient-3" x1="2.527" y1="1.388" x2="0.672" y2="0.415" gradientUnits="objectBoundingBox">
      <stop offset="0" stop-color="#4f52ff"/>
      <stop offset="1" stop-color="#4042e2"/>
    </linearGradient>
    <linearGradient id="linear-gradient-4" x1="1.102" y1="0.353" x2="4.412" y2="-0.835" xlink:href="#linear-gradient-3"/>
    <linearGradient id="linear-gradient-5" x1="0.855" y1="-0.352" x2="0.145" y2="1.352" gradientUnits="objectBoundingBox">
      <stop offset="0" stop-color="#2b3582"/>
      <stop offset="1" stop-color="#150e42"/>
    </linearGradient>
    <linearGradient id="linear-gradient-6" x1="1.297" y1="-0.28" x2="0.11" y2="0.881" gradientUnits="objectBoundingBox">
      <stop offset="0" stop-color="#09005d"/>
      <stop offset="1" stop-color="#1a0f91"/>
    </linearGradient>
    <linearGradient id="linear-gradient-7" x1="1.297" y1="-0.28" x2="0.11" y2="0.881" xlink:href="#linear-gradient-6"/>
    <linearGradient id="linear-gradient-11" x1="6.036" y1="0.5" x2="7.036" y2="0.5" xlink:href="#linear-gradient-3"/>
    <linearGradient id="linear-gradient-12" x1="6.211" y1="0.5" x2="7.211" y2="0.5" xlink:href="#linear-gradient-6"/>
    <linearGradient id="linear-gradient-13" x1="21.427" y1="0.5" x2="22.427" y2="0.5" gradientUnits="objectBoundingBox">
      <stop offset="0" stop-color="#febbba"/>
      <stop offset="1" stop-color="#ff928e"/>
    </linearGradient>
    <linearGradient id="linear-gradient-14" x1="15.75" y1="0.5" x2="16.75" y2="0.5" xlink:href="#linear-gradient-3"/>
    <linearGradient id="linear-gradient-15" x1="10.73" y1="0.5" x2="11.73" y2="0.5" xlink:href="#linear-gradient-6"/>
    <linearGradient id="linear-gradient-16" x1="17.929" y1="0.5" x2="18.929" y2="0.5" xlink:href="#linear-gradient-13"/>
    <linearGradient id="linear-gradient-17" x1="-1.301" y1="1.856" x2="1.275" y2="0.091" xlink:href="#linear-gradient-3"/>
    <linearGradient id="linear-gradient-18" x1="-3.729" y1="4.059" x2="-2.153" y2="3.246" xlink:href="#linear-gradient-2"/>
    <linearGradient id="linear-gradient-19" x1="0.109" y1="-6.635" x2="0.344" y2="-2.346" xlink:href="#linear-gradient-3"/>
    <linearGradient id="linear-gradient-20" x1="13.413" y1="0.1" x2="11.025" y2="1.142" xlink:href="#linear-gradient-13"/>
    <linearGradient id="linear-gradient-21" x1="-8.223" y1="6.644" x2="-4.745" y2="5.228" xlink:href="#linear-gradient-2"/>
    <linearGradient id="linear-gradient-22" x1="-12.775" y1="8.274" x2="-8.118" y2="6.612" xlink:href="#linear-gradient-2"/>
    <linearGradient id="linear-gradient-23" x1="6.395" y1="0.5" x2="7.395" y2="0.5" xlink:href="#linear-gradient-13"/>
    <linearGradient id="linear-gradient-24" x1="9.13" y1="-0.004" x2="9.116" y2="1.888" xlink:href="#linear-gradient-13"/>
    <linearGradient id="linear-gradient-25" x1="1.052" y1="0.09" x2="-0.008" y2="0.909" xlink:href="#linear-gradient-6"/>
    <linearGradient id="linear-gradient-26" x1="1.331" y1="0.5" x2="2.331" y2="0.5" gradientUnits="objectBoundingBox">
      <stop offset="0" stop-color="#b37cff"/>
      <stop offset="1" stop-color="#f895e7"/>
    </linearGradient>
    <linearGradient id="linear-gradient-27" x1="1.196" y1="0.5" x2="2.196" y2="0.5" xlink:href="#linear-gradient-6"/>
    <linearGradient id="linear-gradient-28" x1="8.203" y1="11.251" x2="6.683" y2="12.589" xlink:href="#linear-gradient-13"/>
    <linearGradient id="linear-gradient-29" x1="-0.13" y1="0.423" x2="2.84" y2="0.704" xlink:href="#linear-gradient-6"/>
    <linearGradient id="linear-gradient-30" x1="17.375" y1="33.941" x2="20.666" y2="31.585" xlink:href="#linear-gradient-13"/>
    <linearGradient id="linear-gradient-31" x1="9.641" y1="-1.222" x2="7.948" y2="3.818" xlink:href="#linear-gradient-13"/>
    <linearGradient id="linear-gradient-32" x1="17.859" y1="0.5" x2="18.859" y2="0.5" xlink:href="#linear-gradient-13"/>
    <linearGradient id="linear-gradient-33" x1="-31.627" y1="-0.484" x2="-34.462" y2="6.012" xlink:href="#linear-gradient-3"/>
    <linearGradient id="linear-gradient-34" x1="-132.133" y1="0.5" x2="-131.133" y2="0.5" xlink:href="#linear-gradient-13"/>
    <linearGradient id="linear-gradient-35" x1="-40.699" y1="0.5" x2="-39.699" y2="0.5" xlink:href="#linear-gradient-6"/>
    <linearGradient id="linear-gradient-36" x1="-83.658" y1="-2.223" x2="-90.675" y2="5.384" xlink:href="#linear-gradient-3"/>
    <linearGradient id="linear-gradient-37" x1="-161.545" y1="0.5" x2="-160.545" y2="0.5" xlink:href="#linear-gradient-13"/>
    <linearGradient id="linear-gradient-38" x1="-29.294" y1="0.5" x2="-28.294" y2="0.5" xlink:href="#linear-gradient-6"/>
    <linearGradient id="linear-gradient-39" x1="-0.111" y1="1.356" x2="0.831" y2="0.115" xlink:href="#linear-gradient-2"/>
    <linearGradient id="linear-gradient-40" x1="-23.449" y1="0.5" x2="-22.449" y2="0.5" xlink:href="#linear-gradient-13"/>
    <linearGradient id="linear-gradient-41" x1="132.372" y1="1.605" x2="134.372" y2="4.278" xlink:href="#linear-gradient-13"/>
    <linearGradient id="linear-gradient-42" x1="-161.284" y1="0.706" x2="-159.265" y2="-1.072" xlink:href="#linear-gradient-13"/>
    <linearGradient id="linear-gradient-43" x1="-1.741" y1="3.615" x2="0.626" y2="0.441" xlink:href="#linear-gradient-2"/>
    <linearGradient id="linear-gradient-44" x1="-21.777" y1="0.5" x2="-20.777" y2="0.5" xlink:href="#linear-gradient-13"/>
    <linearGradient id="linear-gradient-45" x1="-18.213" y1="-0.062" x2="-17.7" y2="2.428" xlink:href="#linear-gradient-6"/>
    <linearGradient id="linear-gradient-46" x1="-95.305" y1="-3.497" x2="-95.879" y2="1.805" xlink:href="#linear-gradient-3"/>
    <linearGradient id="linear-gradient-47" x1="-49.871" y1="-1.235" x2="-50.015" y2="1.146" xlink:href="#linear-gradient-3"/>
    <linearGradient id="linear-gradient-48" x1="-66.169" y1="0.5" x2="-65.169" y2="0.5" xlink:href="#linear-gradient-13"/>
    <linearGradient id="linear-gradient-49" x1="0.874" y1="1.898" x2="0.236" y2="-0.232" xlink:href="#linear-gradient-13"/>
    <linearGradient id="linear-gradient-50" x1="-73.782" y1="-37.862" x2="-74.104" y2="-38.928" xlink:href="#linear-gradient-13"/>
    <linearGradient id="linear-gradient-51" x1="-56.537" y1="-30.056" x2="-56.332" y2="-28.877" xlink:href="#linear-gradient-6"/>
    <linearGradient id="linear-gradient-52" x1="-243.616" y1="-186.001" x2="-244.559" y2="-190.649" xlink:href="#linear-gradient-13"/>
  </defs>
  <g id="Grupo_38154" data-name="Grupo 38154" transform="translate(-464.006 -455)">
    <path id="Trazado_71640" data-name="Trazado 71640" d="M886.807,844.893c-11.876,12.242-22.5,19.438-30.638,24.87-79.348,52.981-170.33,46.693-198.373,41.473-45.245-8.421-83.159-23.344-115.973-52.99-74.564-67.365-70.937-207.895-13.961-294.946,6.756-10.322,63.645-94.65,154.545-106.532,2.223-.291,3.882-.456,5.335-.61C701.8,454.67,788.943,446.812,860,506.34c10.171,8.521,28.272,22.856,41.717,47.333C949.836,641.276,957.389,772.14,886.807,844.893Z" transform="translate(-17.88 0)" fill="url(#linear-gradient)"/>
    <g id="Grupo_38137" data-name="Grupo 38137" transform="translate(516.657 506.134)">
      <g id="Grupo_38131" data-name="Grupo 38131" transform="translate(0 0)">
        <path id="Trazado_71641" data-name="Trazado 71641" d="M1869.76,938.922c-.135-.586-.272-1.171-.415-1.756-21.484-88.445-111.384-142.538-200.8-120.818l39.326,161.9Z" transform="translate(-1521.504 -803.574)" fill="#91b3fa"/>
        <path id="Trazado_71642" data-name="Trazado 71642" d="M1902.858,1611.08l157.6,54.109a165.826,165.826,0,0,0,4.8-91.327q-.341-1.487-.709-2.959Z" transform="translate(-1716.97 -1437.037)" fill="#91b3fa"/>
        <path id="Trazado_71643" data-name="Trazado 71643" d="M1905.747,1817.045l32.028,163.5c1.025-.2,2.051-.409,3.077-.63a166.512,166.512,0,0,0,122.494-108.758Z" transform="translate(-1719.38 -1642.373)" fill="#7d97f4"/>
        <path id="Trazado_71644" data-name="Trazado 71644" d="M947.482,924.61l-33.26-161.174a166.668,166.668,0,0,0-132.627,152.58l164.969,9.656A.885.885,0,0,0,947.482,924.61Z" transform="translate(-781.595 -763.436)" fill="url(#linear-gradient-2)"/>
        <path id="Trazado_71645" data-name="Trazado 71645" d="M1068.9,1785.035l-166.24-5.525c-.712,14.564.6,26.77,3.915,41.692a166.66,166.66,0,0,0,139.063,128.812Z" transform="translate(-882.435 -1611.061)" fill="url(#linear-gradient-3)"/>
        <path id="Trazado_71646" data-name="Trazado 71646" d="M1757.6,1981.878a166.092,166.092,0,0,0,56.807-1.242h0l-31.857-163.529Z" transform="translate(-1595.798 -1642.425)" fill="url(#linear-gradient-4)"/>
      </g>
      <g id="Grupo_38132" data-name="Grupo 38132" transform="translate(29.76 204.928)" opacity="0.61">
        <path id="Trazado_71647" data-name="Trazado 71647" d="M1058.316,2118.783a1.11,1.11,0,0,1-.422-.084,161.033,161.033,0,0,1-95.267-111.041c-.547-2.251-1.051-4.536-1.5-6.789a1.106,1.106,0,0,1,2.17-.431c.441,2.224.938,4.477,1.477,6.7a158.821,158.821,0,0,0,93.962,109.518,1.106,1.106,0,0,1-.423,2.129Z" transform="translate(-961.108 -1999.547)" fill="#fff"/>
      </g>
      <g id="Grupo_38133" data-name="Grupo 38133" transform="translate(246.135 230.919)" opacity="0.61">
        <path id="Trazado_71648" data-name="Trazado 71648" d="M2267.375,2250.284a1.106,1.106,0,0,1-.408-2.135,159.393,159.393,0,0,0,89.757-91.11,1.106,1.106,0,0,1,2.067.79,161.609,161.609,0,0,1-91.008,92.377A1.1,1.1,0,0,1,2267.375,2250.284Z" transform="translate(-2266.268 -2156.327)" fill="#fff"/>
      </g>
      <g id="Grupo_38134" data-name="Grupo 38134" transform="translate(235.669 21.321)" opacity="0.61">
        <path id="Trazado_71649" data-name="Trazado 71649" d="M2283.329,950.348a1.1,1.1,0,0,1-.884-.44,158.632,158.632,0,0,0-78.54-55.708,1.106,1.106,0,0,1,.676-2.106,160.831,160.831,0,0,1,79.629,56.481,1.106,1.106,0,0,1-.882,1.773Z" transform="translate(-2203.137 -892.04)" fill="#fff"/>
      </g>
      <g id="Grupo_38135" data-name="Grupo 38135" transform="translate(5.843 100.694)" opacity="0.74">
        <path id="Trazado_71650" data-name="Trazado 71650" d="M901.555,1421.934l-.072,0-84.642-5.459.185-1.2a226.745,226.745,0,0,1,11.532-43.73,1.106,1.106,0,1,1,2.078.757,225.551,225.551,0,0,0-11.234,42.117l82.224,5.3a1.106,1.106,0,0,1-.07,2.21Z" transform="translate(-816.841 -1370.819)" fill="#fff"/>
      </g>
      <g id="Grupo_38136" data-name="Grupo 38136" transform="translate(138.42 68.42)" opacity="0.74">
        <path id="Trazado_71651" data-name="Trazado 71651" d="M1635.063,1263.807c-.04,0-.079,0-.119,0l-17.266-1.117a1.106,1.106,0,1,1,.143-2.207l16.7,1.08-17.957-84.08a1.106,1.106,0,0,1,2.164-.462l18.077,84.639a1.781,1.781,0,0,1-1.738,2.152Zm-.426-1.69h0Z" transform="translate(-1616.536 -1176.141)" fill="#fff"/>
      </g>
    </g>
    <g id="Grupo_38139" data-name="Grupo 38139" transform="translate(696.51 557.311)">
      <g id="Grupo_38138" data-name="Grupo 38138" transform="translate(6.815 7.404)">
        <path id="Trazado_71652" data-name="Trazado 71652" d="M1908.362,1197.569l-.8-1.456,53.794-29.393,49.991,21.974,42.917-42.1.087-.052,50.407-29.749.844,1.429-50.32,29.7-43.574,42.742-50.272-22.1Z" transform="translate(-1907.567 -1116.797)" fill="url(#linear-gradient-5)"/>
      </g>
      <circle id="Elipse_496" data-name="Elipse 496" cx="5.784" cy="5.784" r="5.784" transform="translate(0 83.588) rotate(-16.845)" fill="url(#linear-gradient-6)"/>
      <circle id="Elipse_497" data-name="Elipse 497" cx="5.784" cy="5.784" r="5.784" transform="translate(53.437 62.111) rotate(-73.155)" fill="url(#linear-gradient-7)"/>
      <circle id="Elipse_498" data-name="Elipse 498" cx="5.784" cy="5.784" r="5.784" transform="translate(102.819 81.064) rotate(-58.282)" fill="url(#linear-gradient-7)"/>
      <circle id="Elipse_499" data-name="Elipse 499" cx="5.784" cy="5.784" r="5.784" transform="translate(146.865 32.083)" fill="url(#linear-gradient-6)"/>
      <circle id="Elipse_500" data-name="Elipse 500" cx="5.784" cy="5.784" r="5.784" transform="translate(196.314 7.12) rotate(-37.982)" fill="url(#linear-gradient-6)"/>
    </g>
    <g id="Grupo_38147" data-name="Grupo 38147" transform="translate(464.006 615.301)">
      <g id="Grupo_38145" data-name="Grupo 38145" transform="translate(0 45.756)">
        <g id="Grupo_38140" data-name="Grupo 38140" transform="translate(62.463 231.496)">
          <path id="Trazado_71653" data-name="Trazado 71653" d="M871.239,3206.26c-5.368.464-14.684,1.218-22.028,1.541-4.415.194-6.956-.238-8.42-.824,0,.165.007.321.014.466a1.519,1.519,0,0,0,1.443,1.435,258.151,258.151,0,0,0,28.843.029,1.082,1.082,0,0,0,.881-1.625A8.83,8.83,0,0,0,871.239,3206.26Z" transform="translate(-840.789 -3187.698)" fill="url(#linear-gradient-11)"/>
          <path id="Trazado_71654" data-name="Trazado 71654" d="M849.2,3153.261c7.344-.323,16.66-1.077,22.028-1.541-5.277-6.475-22.028-10.839-22.028-10.839h-4.731a19.839,19.839,0,0,0-3.689,11.555C842.246,3153.023,844.787,3153.455,849.2,3153.261Z" transform="translate(-840.78 -3133.158)" fill="url(#linear-gradient-12)"/>
          <path id="Trazado_71655" data-name="Trazado 71655" d="M858.24,3094.294l.443,8.761a2,2,0,0,0,1.708,1.882,7.786,7.786,0,0,0,3.554-.294,2.367,2.367,0,0,0,1.591-1.82l1.53-8.528Z" transform="translate(-855.345 -3094.294)" fill="url(#linear-gradient-13)"/>
        </g>
        <g id="Grupo_38142" data-name="Grupo 38142" transform="translate(0 223.309)">
          <g id="Grupo_38141" data-name="Grupo 38141" transform="translate(0 8.131)">
            <path id="Trazado_71656" data-name="Trazado 71656" d="M467.916,3200.935a4.249,4.249,0,0,1-3.823-2.827l-.009.035a3.025,3.025,0,0,0,2.039,3.449,13.321,13.321,0,0,0,5.645.884,5.611,5.611,0,0,0,4.232-1.952l.013-.018C474.259,3201.374,471.8,3201.476,467.916,3200.935Z" transform="translate(-464.006 -3180.84)" fill="url(#linear-gradient-14)"/>
            <path id="Trazado_71657" data-name="Trazado 71657" d="M479.33,3093.951h-3.9c-5.943-.122-9.675,12.413-10.9,17.267a4.249,4.249,0,0,0,3.823,2.827c3.882.541,6.344.439,8.1-.429,3.211-4.225,4.8-10.412,5.568-14.024A4.923,4.923,0,0,0,479.33,3093.951Z" transform="translate(-464.446 -3093.95)" fill="url(#linear-gradient-15)"/>
          </g>
          <path id="Trazado_71658" data-name="Trazado 71658" d="M522.027,3044.907l-2.166,8.616a2.339,2.339,0,0,0,1.217,2.651,8.3,8.3,0,0,0,4.486,1.086,1.955,1.955,0,0,0,1.594-1.3l3.181-9.066Z" transform="translate(-510.542 -3044.907)" fill="url(#linear-gradient-16)"/>
        </g>
        <path id="Trazado_71659" data-name="Trazado 71659" d="M517.694,2443.455c2.7,2.391,11.462,2.706,11.462,2.706,31.581-75.8,44.5-86.564,44.5-86.564-4.56,28.609-.735,91.945-.735,91.945,5.211,2.3,11.93,0,11.93,0a488.194,488.194,0,0,1,16.127-119.885c-21.345-.48-32.7-7.784-36.4-10.715C546.783,2349.628,517.694,2443.455,517.694,2443.455Z" transform="translate(-508.793 -2217.656)" fill="url(#linear-gradient-17)"/>
        <path id="Trazado_71660" data-name="Trazado 71660" d="M795.906,1792.55c-4.04,20.152-2.592,56.22-1.641,72.672.267,4.624-2.961,11.034-5.57,15.408a1.372,1.372,0,0,0,.554,1.929c4.368,2.245,19.167,9.2,36.318,10.068a2.445,2.445,0,0,0,2.461-1.827c12.722-47.5,27.5-77.858,27.5-77.858C839.212,1786.89,795.906,1792.55,795.906,1792.55Z" transform="translate(-734.703 -1776.429)" fill="url(#linear-gradient-18)"/>
        <path id="Trazado_71661" data-name="Trazado 71661" d="M863.164,2480.344a1.012,1.012,0,0,1-.863-1.537,31.727,31.727,0,0,1,12.522-10.87,1.011,1.011,0,1,1,.879,1.821,30.252,30.252,0,0,0-11.673,10.1A1.012,1.012,0,0,1,863.164,2480.344Z" transform="translate(-796.147 -2340.197)" fill="url(#linear-gradient-19)"/>
        <g id="Grupo_38143" data-name="Grupo 38143" transform="translate(35.342 16.121)">
          <path id="Trazado_71662" data-name="Trazado 71662" d="M680.321,2136.975c1.3,9.388,5.132,19.627,12.8,30.5l2.916-2.377a90.034,90.034,0,0,1-1.452-29.154C689.855,2135.025,684.267,2135.977,680.321,2136.975Z" transform="translate(-679.801 -2079.139)" fill="url(#linear-gradient-20)"/>
          <path id="Trazado_71663" data-name="Trazado 71663" d="M707.56,1820.029l-4.512-24.865S672.9,1818.21,677.706,1853c3.946-1,9.534-1.949,14.265-1.026C693.35,1840.809,697.467,1828.689,707.56,1820.029Z" transform="translate(-677.187 -1795.164)" fill="url(#linear-gradient-21)"/>
        </g>
        <g id="Grupo_38144" data-name="Grupo 38144" transform="translate(109.186 36.513)">
          <path id="Trazado_71664" data-name="Trazado 71664" d="M1134.248,1918.166l-11.638,25.064c1.882,15.132,10.01,21.674,18.775,24.184a53.183,53.183,0,0,1,3.908-16.322C1134.094,1939.53,1134.248,1918.166,1134.248,1918.166Z" transform="translate(-1122.61 -1918.166)" fill="url(#linear-gradient-22)"/>
          <path id="Trazado_71665" data-name="Trazado 71665" d="M1239.769,2116.773a53.181,53.181,0,0,0-3.908,16.322c23.384,9.073,29.571-8.523,29.571-8.523l-4.322-.762C1251.351,2124.838,1244.533,2121.692,1239.769,2116.773Z" transform="translate(-1217.086 -2083.847)" fill="url(#linear-gradient-23)"/>
        </g>
        <path id="Trazado_71666" data-name="Trazado 71666" d="M1017.825,1703.492l-5.618,20.654a4.018,4.018,0,0,1-5.374,2.674,81.544,81.544,0,0,1-8.1-3.7,5.414,5.414,0,0,1-1.91-7.781l11.681-17.417Z" transform="translate(-907.723 -1697.923)" fill="url(#linear-gradient-24)"/>
      </g>
      <path id="Trazado_71667" data-name="Trazado 71667" d="M717.928,2080.45l-143.967,52.4a11.023,11.023,0,0,0-6.264,14.922l.437.96a10.247,10.247,0,0,0,13.63,5.058l139.79-64.668Z" transform="translate(-549.678 -1971.277)" fill="url(#linear-gradient-25)"/>
      <ellipse id="Elipse_501" data-name="Elipse 501" cx="71.069" cy="69.787" rx="71.069" ry="69.787" transform="translate(163.354 7.867)" opacity="0.23" fill="url(#linear-gradient-26)"/>
      <path id="Trazado_71668" data-name="Trazado 71668" d="M1480.1,1421.925c-43.675,0-79.08,34.767-79.08,77.654s35.405,77.654,79.08,77.654,79.081-34.767,79.081-77.654S1523.776,1421.925,1480.1,1421.925Zm0,143.9c-37.259,0-67.464-29.66-67.464-66.247s30.2-66.247,67.464-66.247,67.464,29.66,67.464,66.247S1517.361,1565.826,1480.1,1565.826Z" transform="translate(-1245.679 -1421.925)" fill="url(#linear-gradient-27)"/>
      <path id="Trazado_71669" data-name="Trazado 71669" d="M1432.159,1533.388a.531.531,0,0,1-.527-.464c-.236-1.851-.4-3.724-.492-5.568a.532.532,0,0,1,.5-.556.5.5,0,0,1,.558.5c.089,1.817.251,3.662.484,5.486a.531.531,0,0,1-.46.594A.537.537,0,0,1,1432.159,1533.388Zm.542-21.714a.546.546,0,0,1-.094-.008.531.531,0,0,1-.428-.616,71.478,71.478,0,0,1,4.266-14.6h0c11.4-27.655,38.4-45.525,68.781-45.525a74.925,74.925,0,0,1,39.829,11.382.532.532,0,0,1-.565.9,73.864,73.864,0,0,0-39.264-11.22c-29.951,0-56.564,17.612-67.8,44.869,0,0,0,0,0,0a70.334,70.334,0,0,0-4.2,14.381A.532.532,0,0,1,1432.7,1511.675Z" transform="translate(-1270.804 -1446.115)" fill="#91b3fa"/>
      <g id="Grupo_38146" data-name="Grupo 38146" transform="translate(96.281 24.54)">
        <path id="Trazado_71670" data-name="Trazado 71670" d="M1112.285,1620.185c.051.355-4.686,23.569-4.686,23.569l-13.2-2.987,1.221-22.67S1111.428,1614.247,1112.285,1620.185Z" transform="translate(-1086.173 -1609.091)" fill="url(#linear-gradient-28)"/>
        <path id="Trazado_71671" data-name="Trazado 71671" d="M1058.195,1584l-1.577,11.884a1.657,1.657,0,0,0,0,.455c.133.932.826,4.1,4.027,3.2,2.9-.823,5.568-1.531,7.408-.968a1.673,1.673,0,0,1,1.151,1.936,72.354,72.354,0,0,1-3.038,10.817,1.67,1.67,0,0,1-2.028.987,53.968,53.968,0,0,1-11.634-4.76,1.675,1.675,0,0,1-.816-1.507c.127-3,.477-12.119.182-14.676-.277-2.4-3.222-3.837-4.5-4.352a1.646,1.646,0,0,1-.916-.919c-.592-1.485-1.409-4.92,2.92-6.328a1.677,1.677,0,0,0,1.062-2.168c-.641-1.785-.912-4.51,2.438-6.011,3.4-1.526,5.947.289,7.32,1.764a1.675,1.675,0,0,0,2.134.252,1.324,1.324,0,0,1,1.507.051,1.65,1.65,0,0,0,2.336-.708,5,5,0,0,1,5.81-2.9c5.914,1.013,6.584,7.566,5.024,11.407s-7.91,2.378-11.095.442c-2.422-1.472-5.563.071-6.93.9A1.661,1.661,0,0,0,1058.195,1584Z" transform="translate(-1045.777 -1569.946)" fill="url(#linear-gradient-29)"/>
        <path id="Trazado_71672" data-name="Trazado 71672" d="M1050.333,1678.749s2.431-6.808-.067-8.476-6.2-.8-5.383,4.13C1045.9,1680.538,1050.333,1678.749,1050.333,1678.749Z" transform="translate(-1044.768 -1652.994)" fill="url(#linear-gradient-30)"/>
      </g>
      <path id="Trazado_71673" data-name="Trazado 71673" d="M754.426,2305.61l13.61-1.109,5.894,5.433s-1.395,1.927-5.754.82a62.43,62.43,0,0,0-10.331-1.38s-6.018,2.713-6.092-2.364Z" transform="translate(-704.049 -2158.184)" fill="url(#linear-gradient-31)"/>
      <path id="Trazado_71674" data-name="Trazado 71674" d="M1396.688,2131.393c1.177.919,5.209-1,7.677-2.328a2.839,2.839,0,0,0,1.372-3.355c-.594-1.873-1.583-4.29-2.8-4.595C1400.912,2120.611,1391.838,2127.6,1396.688,2131.393Z" transform="translate(-1240.89 -2005.18)" fill="url(#linear-gradient-32)"/>
      <path id="Trazado_71675" data-name="Trazado 71675" d="M591.283,2396.1a.543.543,0,0,1-.174-.028c-5.623-1.945-6.931-5.268-7.038-7.712a8.565,8.565,0,0,1,5.585-8.252l17.287-6.741a.531.531,0,0,1,.385.991l-17.287,6.74a7.5,7.5,0,0,0-4.908,7.216c.133,3.077,2.261,5.349,6.324,6.753a.531.531,0,0,1-.174,1.033Z" transform="translate(-564.159 -2215.598)" fill="#91b3fa"/>
      <path id="Trazado_71676" data-name="Trazado 71676" d="M752.683,2357.463a.531.531,0,0,1-.192-1.026l2.241-.873a.531.531,0,0,1,.385.99l-2.241.873A.526.526,0,0,1,752.683,2357.463Z" transform="translate(-704.382 -2200.75)" fill="#91b3fa"/>
    </g>
    <g id="Grupo_38152" data-name="Grupo 38152" transform="translate(777.593 628.392)">
      <path id="Trazado_71677" data-name="Trazado 71677" d="M2717.993,3118.429s.988,5.6,1.473,11.134a3.816,3.816,0,0,1-3.651,4.135c-7.376.307-23.154.9-28.815.652a1.241,1.241,0,0,1-1.093-1.7,2.78,2.78,0,0,1,1.422-1.5l26.062-11.978Z" transform="translate(-2631.064 -2850.267)" fill="url(#linear-gradient-33)"/>
      <path id="Trazado_71678" data-name="Trazado 71678" d="M2842.12,3093.4l-.794,6.693s-4.565,2.125-7.683-.268l1.891-7.458Z" transform="translate(-2754.382 -2828.524)" fill="url(#linear-gradient-34)"/>
      <path id="Trazado_71679" data-name="Trazado 71679" d="M2844.285,2339.607c.343,1.748,1.841,87.218-7.295,125.52a1.3,1.3,0,0,0,.762,1.512,22.639,22.639,0,0,0,7.441,1.512,2.239,2.239,0,0,0,2.221-1.607c2.612-8.887,15.126-53.412,16.758-95.945,1.824-47.526,0-1.618,0-1.618l-1.07-29.378Z" transform="translate(-2757.144 -2200.559)" fill="url(#linear-gradient-35)"/>
      <path id="Trazado_71680" data-name="Trazado 71680" d="M3008.114,3136.037s1.573,2.825,3.1,10.331a2.328,2.328,0,0,1-2.049,2.788c-2.436.24-6.185.548-9.188.527a2.321,2.321,0,0,1-2.3-2.589,19.578,19.578,0,0,1,4.571-10.738Z" transform="translate(-2891.206 -2864.956)" fill="url(#linear-gradient-36)"/>
      <path id="Trazado_71681" data-name="Trazado 71681" d="M3032.232,3082.132l-1.855,10.121s-1.834,1.365-5.464.375l.886-10.89Z" transform="translate(-2913.942 -2819.66)" fill="url(#linear-gradient-37)"/>
      <path id="Trazado_71682" data-name="Trazado 71682" d="M2913.535,2331.643c7.472,45.095-1.621,111.455-4.687,124.444a2.026,2.026,0,0,1-1.635,1.538,13.607,13.607,0,0,1-5.844-.233,1.856,1.856,0,0,1-1.335-1.709c-.411-10.5.329-74.965-6.633-100.442a5.788,5.788,0,0,0-2.232-3.193l-13.513-9.607-1.036-15.529Z" transform="translate(-2790.232 -2189.971)" fill="url(#linear-gradient-38)"/>
      <g id="Grupo_38148" data-name="Grupo 38148" transform="translate(9.546 21.546)">
        <path id="Trazado_71683" data-name="Trazado 71683" d="M2649.444,1821.622c22.393-.37,47.1,5.879,47.1,5.879,6.675,38.947,1.167,83.869,1.167,83.869-17.336,4.546-36.892-2.779-36.892-2.779-2.881-16.279-16.324-62.093-16.324-62.093a73.765,73.765,0,0,1-27.376-8.688c5.661-6.562,8.331-14.913,9.49-19.849A75.133,75.133,0,0,0,2649.444,1821.622Z" transform="translate(-2583.301 -1786.941)" fill="url(#linear-gradient-39)"/>
        <path id="Trazado_71684" data-name="Trazado 71684" d="M2413.128,1632.55a4.284,4.284,0,0,1,4.984-1.4c3.3,13.92,20.574,25.206,38.325,30.723-1.159,4.936-3.828,13.287-9.49,19.849C2417.487,1665.158,2413.128,1632.55,2413.128,1632.55Z" transform="translate(-2413.128 -1630.853)" fill="url(#linear-gradient-40)"/>
      </g>
      <g id="Grupo_38149" data-name="Grupo 38149" transform="translate(0)">
        <path id="Trazado_71685" data-name="Trazado 71685" d="M2365.625,1524.81c-.23.732,2.435,1.846,4-1.147.055-1.434.927-7.579.07-8.747-4.565-6.223-13.414-14.024-13.414-14.024a2.106,2.106,0,0,0-.263,2.926l4.293,4.472c-.9,1.623-1.993,2.992-2.506,4.955a6.015,6.015,0,0,0,.6,4.428c.754,1.358,1.782,3.123,2.754,4.5A5.941,5.941,0,0,0,2365.625,1524.81Z" transform="translate(-2355.544 -1500.892)" fill="url(#linear-gradient-41)"/>
        <path id="Trazado_71686" data-name="Trazado 71686" d="M2391.291,1563.019l3.912,3.317,1.229,3.3-3.488,3.87s-1.173-6.552-2.044-7.97S2390.479,1563.434,2391.291,1563.019Z" transform="translate(-2384.643 -1552.719)" fill="url(#linear-gradient-42)"/>
      </g>
      <path id="Trazado_71687" data-name="Trazado 71687" d="M3044.4,1897.189l8.589-21.683s20.916,14.211,24.355,32.23a49.5,49.5,0,0,0-18.182,4.873C3057.614,1904.1,3044.4,1897.189,3044.4,1897.189Z" transform="translate(-2930.198 -1813.402)" fill="url(#linear-gradient-43)"/>
      <path id="Trazado_71688" data-name="Trazado 71688" d="M2918.509,2079.771s23.483,13.271,31.407,1.939a8.908,8.908,0,0,0,1.633-6.921,49.5,49.5,0,0,1,18.182-4.873,24.868,24.868,0,0,1-2.7,17.048c-13.879,25.389-51.627-1.4-51.627-1.4Z" transform="translate(-2822.585 -1975.581)" fill="url(#linear-gradient-44)"/>
      <g id="Grupo_38150" data-name="Grupo 38150" transform="translate(40.079 68.157)">
        <path id="Trazado_71689" data-name="Trazado 71689" d="M2655.965,1986.708l-12.816-44.757a1.305,1.305,0,0,0-1.1-.94c-2.322-.271-9.051-1.032-16.819-1.689-9.357-.792-20.225-1.433-26.719-.887a1.31,1.31,0,0,0-1.071,1.885c3.693,7.471,18.883,37.861,26.489,47.817a1.314,1.314,0,0,0,1.057.519l29.736-.277A1.309,1.309,0,0,0,2655.965,1986.708Z" transform="translate(-2597.299 -1933.885)" fill="url(#linear-gradient-45)"/>
        <path id="Trazado_71690" data-name="Trazado 71690" d="M2707.06,1913.566l-9.292-1.548a.667.667,0,0,0-.743.867l.92,2.787a.668.668,0,0,0,.545.452l8.942,1.194a.667.667,0,0,0,.738-.813l-.569-2.433A.667.667,0,0,0,2707.06,1913.566Z" transform="translate(-2680.463 -1912.008)" fill="url(#linear-gradient-46)"/>
        <path id="Trazado_71691" data-name="Trazado 71691" d="M2692.211,1935.443l-.765-3.987a.922.922,0,0,0-.812-.743l-18.768-1.9a.922.922,0,0,0-.989,1.132l1.193,4.969a.921.921,0,0,0,.85.705l18.34.924A.922.922,0,0,0,2692.211,1935.443Z" transform="translate(-2658.657 -1926.019)" fill="url(#linear-gradient-47)"/>
        <path id="Trazado_71692" data-name="Trazado 71692" d="M2852.791,2088.624s1.785-7.341,1.065-9.946-2.116-5.953-6.766-5.209a68.059,68.059,0,0,0-10.137,2.7s.277,3.392,3.812,2.3l-2.192,1.7s.313,2.717,3.3,1.265l-2.039,2.249a2.376,2.376,0,0,0,3.479.8C2845.509,2083.051,2846.562,2089.508,2852.791,2088.624Z" transform="translate(-2797.222 -2046.614)" fill="url(#linear-gradient-48)"/>
      </g>
      <path id="Trazado_71693" data-name="Trazado 71693" d="M2875.941,1730.386l7.125,20.6a.742.742,0,0,1-.339.894c-1.942,1.074-8.939,4.178-17.372-1.169a3.5,3.5,0,0,1-1.61-2.5l-2.307-17.833Z" transform="translate(-2777.57 -1692.34)" fill="url(#linear-gradient-49)"/>
      <g id="Grupo_38151" data-name="Grupo 38151" transform="translate(75.959 8.257)">
        <path id="Trazado_71694" data-name="Trazado 71694" d="M2820.635,1615.292s-7.824,14.728-6.821,20.677,10.7,5.522,19.167.69l5.917-15.9Z" transform="translate(-2813.725 -1604.583)" fill="url(#linear-gradient-50)"/>
        <path id="Trazado_71695" data-name="Trazado 71695" d="M2847.22,1574.964a.607.607,0,0,1-.265-.888,15.847,15.847,0,0,0,2.177-4.622s1.407-.9-3.58-2.094-12.422-3.046-13.985-7.29c-1.524-4.138,2.48-14.545,8.868-6.253a.607.607,0,0,0,.962.007c1.047-1.363,3.8-4.192,7.623-2.477,3.577,1.6,3.979,4.226,3.931,5.547a.6.6,0,0,0,.715.618c1.809-.345,6.148-.641,8.174,3.811,1.668,3.667.584,5.743-.4,6.758a.6.6,0,0,0,.259,1c1.188.364,2.724,1.372,2.57,4.156-.213,3.849-4.517,3.51-5.742,3.335a.608.608,0,0,0-.539.191c-1.051,1.163-5.785,6.1-10.908,6.7a.612.612,0,0,1-.642-.809l2.217-6.445a.61.61,0,0,0-.33-.756Z" transform="translate(-2828.339 -1550.698)" fill="url(#linear-gradient-51)"/>
        <path id="Trazado_71696" data-name="Trazado 71696" d="M2913.559,1693.065s5.571-3.822,5.978-.6-5.016,4.662-7.7,3.462Z" transform="translate(-2895.569 -1667.884)" fill="url(#linear-gradient-52)"/>
      </g>
    </g>
    <g id="Grupo_38153" data-name="Grupo 38153" transform="translate(475.683 497.373)">
      <path id="Trazado_71697" data-name="Trazado 71697" d="M1301.818,1049.815l21.409,1.458a1.076,1.076,0,0,0,.829-1.857l-20.53-15.2Z" transform="translate(-1174.599 -980.562)" fill="#91b3fa"/>
      <path id="Trazado_71698" data-name="Trazado 71698" d="M539.359,711.327l120.57-.738a4.744,4.744,0,0,1,4.981,4.545l-.507,60.705a4.765,4.765,0,0,1-5.1,4.474l-119.264-3.267a4.736,4.736,0,0,1-4.8-4.451l-.8-56.7A4.734,4.734,0,0,1,539.359,711.327Z" transform="translate(-534.443 -710.589)" fill="#91b3fa"/>
      <path id="Trazado_71699" data-name="Trazado 71699" d="M563.457,734.194l112.9-.645c2.585-.015,4.684,1.772,4.664,3.971l-.475,53.039c-.02,2.211,1.872,5.322-.727,5.255l-115.725-4.2c-2.481-.064-4.462-1.778-4.494-3.889l-.747-49.54C558.822,736,560.887,734.209,563.457,734.194Z" transform="translate(-554.808 -729.743)" fill="#fff" opacity="0.14"/>
      <path id="Trazado_71700" data-name="Trazado 71700" d="M679.633,795.051l-119.3-3.268a.9.9,0,0,1-.91-.844l-.8-56.7a.8.8,0,0,1,.268-.609.961.961,0,0,1,.664-.257l120.57-.738a.976.976,0,0,1,.671.251.8.8,0,0,1,.274.613l-.507,60.7A.9.9,0,0,1,679.633,795.051ZM560.387,790.91l119.261,3.267.468-60.686-120.548.757Z" transform="translate(-554.62 -728.979)" fill="#fff" opacity="0.77"/>
      <path id="Trazado_71701" data-name="Trazado 71701" d="M606.042,800.626c0,2.148,1.251,3.889,2.794,3.889H711.385c1.543,0,2.794-1.741,2.794-3.889s-1.251-3.889-2.794-3.889H608.836C607.293,796.737,606.042,798.478,606.042,800.626Z" transform="translate(-594.172 -782.455)" fill="#fff" opacity="0.77"/>
      <path id="Trazado_71702" data-name="Trazado 71702" d="M620.864,883.654h96.145c2.092,0,3.788,1.044,3.788,2.332s-1.7,2.332-3.788,2.332H620.864c-2.092,0-3.788-1.044-3.788-2.332S618.772,883.654,620.864,883.654Z" transform="translate(-603.377 -854.963)" fill="#fff" opacity="0.77"/>
      <path id="Trazado_71703" data-name="Trazado 71703" d="M617.076,942.845c0,1.286,1.693,2.328,3.781,2.328h96.159c2.088,0,3.781-1.042,3.781-2.328v-1.439c0-1.308-1.749-2.359-3.872-2.327l-96.159,1.439C618.713,940.548,617.076,941.581,617.076,942.845Z" transform="translate(-603.377 -901.198)" fill="#fff" opacity="0.77"/>
      <path id="Trazado_71704" data-name="Trazado 71704" d="M623.151,1006.078H719.3c2.092,0,3.788,1.044,3.788,2.332s-1.7,2.332-3.788,2.332H623.151c-2.092,0-3.788-1.044-3.788-2.332S621.059,1006.078,623.151,1006.078Z" transform="translate(-605.285 -957.091)" fill="#fff" opacity="0.77"/>
    </g>
  </g>
</svg>
