<svg xmlns="http://www.w3.org/2000/svg" xmlns:xlink="http://www.w3.org/1999/xlink" width="477.625" height="117.317" viewBox="0 0 477.625 117.317">
  <defs>
    <clipPath id="clip-path">
      <path id="Trazado_83019" data-name="Trazado 83019" d="M591.562,328.4c-.012,2.187,1.76,2.385,3.947,2.4a3.96,3.96,0,1,0,.041-7.919C593.364,322.866,591.573,326.214,591.562,328.4Z" transform="translate(-591.562 -322.878)" fill="#fca89e"/>
    </clipPath>
    <clipPath id="clip-path-2">
      <path id="Trazado_83030" data-name="Trazado 83030" d="M478.264,328.354c-.624,2.109-2.388,1.786-4.5,1.163a3.982,3.982,0,0,1,2.257-7.639C478.133,322.5,478.886,326.245,478.264,328.354Z" transform="translate(-470.912 -321.714)" fill="#fca89e"/>
    </clipPath>
    <clipPath id="clip-path-3">
      <path id="Trazado_83044" data-name="Trazado 83044" d="M531.444,287.954a6.63,6.63,0,1,1-6.629-6.63A6.629,6.629,0,0,1,531.444,287.954Z" transform="translate(-518.185 -281.324)" fill="#ff645f"/>
    </clipPath>
  </defs>
  <g id="Grupo_40307" data-name="Grupo 40307" transform="translate(-1020.375 -2190)">
    <path id="Trazado_84144" data-name="Trazado 84144" d="M0,0H349V117H0Z" transform="translate(1149 2190)" fill="#c0dff1"/>
    <path id="Trazado_84145" data-name="Trazado 84145" d="M26.711,12.268h4.368v6.249A14.043,14.043,0,0,1,29,19.009a15.791,15.791,0,0,1-2.443.167,5.922,5.922,0,0,1-4.544-1.736,6.841,6.841,0,0,1-1.626-4.865,7.35,7.35,0,0,1,.8-3.511,5.439,5.439,0,0,1,2.316-2.3,7.5,7.5,0,0,1,3.542-.8,9.68,9.68,0,0,1,3.832.756l-.58,1.318A8.561,8.561,0,0,0,26.957,7.3a4.8,4.8,0,0,0-3.665,1.4,5.424,5.424,0,0,0-1.318,3.876,5.543,5.543,0,0,0,1.27,3.946,4.891,4.891,0,0,0,3.731,1.345,11.085,11.085,0,0,0,2.61-.308V13.6H26.711Zm11.3,6.908a4.426,4.426,0,0,1-3.371-1.3,5.036,5.036,0,0,1-1.235-3.612,5.585,5.585,0,0,1,1.147-3.7,3.81,3.81,0,0,1,3.081-1.371A3.633,3.633,0,0,1,40.5,10.382a4.564,4.564,0,0,1,1.055,3.142v.923H34.92a3.818,3.818,0,0,0,.857,2.575,2.964,2.964,0,0,0,2.29.879,7.759,7.759,0,0,0,3.076-.65v1.3a7.721,7.721,0,0,1-1.463.479A8.224,8.224,0,0,1,38.014,19.176Zm-.4-8.763a2.383,2.383,0,0,0-1.85.756,3.484,3.484,0,0,0-.813,2.092h5.036a3.208,3.208,0,0,0-.615-2.114A2.165,2.165,0,0,0,37.618,10.413Zm12.639,5.959a2.413,2.413,0,0,1-1,2.074,4.71,4.71,0,0,1-2.812.729,6.116,6.116,0,0,1-2.988-.606V17.216a7.227,7.227,0,0,0,1.49.554,6.221,6.221,0,0,0,1.534.2,3.478,3.478,0,0,0,1.758-.365,1.256,1.256,0,0,0,.127-2.074,7.673,7.673,0,0,0-1.9-.945,10.318,10.318,0,0,1-1.912-.875,2.611,2.611,0,0,1-.844-.848,2.212,2.212,0,0,1-.277-1.134,2.161,2.161,0,0,1,.958-1.859,4.464,4.464,0,0,1,2.628-.681,7.689,7.689,0,0,1,3.041.633l-.519,1.187a6.98,6.98,0,0,0-2.628-.6,3.023,3.023,0,0,0-1.564.325,1.006,1.006,0,0,0-.527.9,1.092,1.092,0,0,0,.2.659,1.952,1.952,0,0,0,.637.519,14.24,14.24,0,0,0,1.688.712,6.3,6.3,0,0,1,2.316,1.257A2.216,2.216,0,0,1,50.257,16.372Zm5.484,1.6a4.766,4.766,0,0,0,.747-.057,4.836,4.836,0,0,0,.571-.119v1.116a2.667,2.667,0,0,1-.7.189,5.247,5.247,0,0,1-.831.075q-2.795,0-2.795-2.944V10.5h-1.38V9.8l1.38-.606.615-2.057h.844V9.367h2.795V10.5H54.194V16.17a1.95,1.95,0,0,0,.413,1.336A1.438,1.438,0,0,0,55.741,17.972ZM60.443,19H58.984V9.367h1.459ZM58.861,6.757a.969.969,0,0,1,.246-.734.911.911,0,0,1,1.222,0,.951.951,0,0,1,.255.729.966.966,0,0,1-.255.734.893.893,0,0,1-1.222,0A.987.987,0,0,1,58.861,6.757Zm12.99,7.418a5.314,5.314,0,0,1-1.187,3.678,4.179,4.179,0,0,1-3.278,1.323,4.342,4.342,0,0,1-2.294-.606,4,4,0,0,1-1.547-1.74A6.065,6.065,0,0,1,63,14.175a5.306,5.306,0,0,1,1.178-3.669,4.165,4.165,0,0,1,3.27-1.314,4.075,4.075,0,0,1,3.212,1.345A5.291,5.291,0,0,1,71.852,14.175Zm-7.339,0a4.572,4.572,0,0,0,.738,2.813,2.93,2.93,0,0,0,4.346,0,4.549,4.549,0,0,0,.743-2.817,4.476,4.476,0,0,0-.743-2.791,2.609,2.609,0,0,0-2.193-.954,2.568,2.568,0,0,0-2.162.94A4.526,4.526,0,0,0,64.513,14.175Zm1.688-6.3q.422-.545.91-1.318a15.088,15.088,0,0,0,.769-1.345h1.775v.185A12.992,12.992,0,0,1,68.5,6.8a13.072,13.072,0,0,1-1.327,1.292H66.2ZM81,19V12.769a2.514,2.514,0,0,0-.536-1.758,2.184,2.184,0,0,0-1.679-.58,2.769,2.769,0,0,0-2.215.817,4.127,4.127,0,0,0-.7,2.7V19H74.409V9.367H75.6l.237,1.318h.07a2.979,2.979,0,0,1,1.257-1.1,4.084,4.084,0,0,1,1.8-.391,3.659,3.659,0,0,1,2.619.839,3.572,3.572,0,0,1,.879,2.685V19Zm15.688-1.292H96.61a3.428,3.428,0,0,1-3.023,1.468,3.577,3.577,0,0,1-2.94-1.292A5.687,5.687,0,0,1,89.6,14.21a5.783,5.783,0,0,1,1.055-3.7,3.549,3.549,0,0,1,2.936-1.318,3.5,3.5,0,0,1,3.006,1.424h.114l-.062-.694-.035-.677V5.324h1.459V19H96.883Zm-2.918.246a2.656,2.656,0,0,0,2.167-.813,4.108,4.108,0,0,0,.672-2.624V14.21a4.834,4.834,0,0,0-.681-2.922,2.587,2.587,0,0,0-2.175-.875,2.233,2.233,0,0,0-1.964,1,4.96,4.96,0,0,0-.681,2.817,4.755,4.755,0,0,0,.677,2.786A2.292,2.292,0,0,0,93.771,17.954Zm11.461,1.222a4.426,4.426,0,0,1-3.371-1.3,5.036,5.036,0,0,1-1.235-3.612,5.585,5.585,0,0,1,1.147-3.7,3.81,3.81,0,0,1,3.081-1.371,3.633,3.633,0,0,1,2.865,1.191,4.564,4.564,0,0,1,1.055,3.142v.923h-6.636A3.818,3.818,0,0,0,103,17.022a2.964,2.964,0,0,0,2.29.879,7.759,7.759,0,0,0,3.076-.65v1.3a7.721,7.721,0,0,1-1.463.479A8.224,8.224,0,0,1,105.232,19.176Zm-.4-8.763a2.383,2.383,0,0,0-1.85.756,3.484,3.484,0,0,0-.813,2.092h5.036a3.208,3.208,0,0,0-.615-2.114A2.165,2.165,0,0,0,104.837,10.413ZM121.861,19l-.29-1.371h-.07a4.053,4.053,0,0,1-1.437,1.226,4.38,4.38,0,0,1-1.789.321,3.217,3.217,0,0,1-2.246-.738,2.693,2.693,0,0,1-.813-2.1q0-2.918,4.667-3.059l1.635-.053v-.6a2.442,2.442,0,0,0-.488-1.674,2.006,2.006,0,0,0-1.56-.541,6.357,6.357,0,0,0-2.725.738l-.448-1.116a6.856,6.856,0,0,1,1.56-.606,6.757,6.757,0,0,1,1.7-.22,3.669,3.669,0,0,1,2.553.765,3.192,3.192,0,0,1,.831,2.452V19Zm-3.3-1.028a2.961,2.961,0,0,0,2.14-.747,2.764,2.764,0,0,0,.778-2.092v-.87l-1.459.062a5.307,5.307,0,0,0-2.509.541,1.63,1.63,0,0,0-.769,1.49,1.5,1.5,0,0,0,.479,1.2A1.988,1.988,0,0,0,118.565,17.972Zm13.6-1.6a2.413,2.413,0,0,1-1,2.074,4.71,4.71,0,0,1-2.812.729,6.116,6.116,0,0,1-2.988-.606V17.216a7.227,7.227,0,0,0,1.49.554,6.221,6.221,0,0,0,1.534.2,3.478,3.478,0,0,0,1.758-.365,1.256,1.256,0,0,0,.127-2.074,7.673,7.673,0,0,0-1.9-.945,10.318,10.318,0,0,1-1.912-.875,2.611,2.611,0,0,1-.844-.848,2.212,2.212,0,0,1-.277-1.134,2.161,2.161,0,0,1,.958-1.859,4.464,4.464,0,0,1,2.628-.681,7.689,7.689,0,0,1,3.041.633l-.519,1.187a6.98,6.98,0,0,0-2.628-.6,3.023,3.023,0,0,0-1.564.325,1.006,1.006,0,0,0-.527.9,1.092,1.092,0,0,0,.2.659,1.952,1.952,0,0,0,.637.519,14.24,14.24,0,0,0,1.688.712,6.3,6.3,0,0,1,2.316,1.257A2.216,2.216,0,0,1,132.162,16.372Zm6.442,2.8a4.426,4.426,0,0,1-3.371-1.3A5.036,5.036,0,0,1,134,14.263a5.585,5.585,0,0,1,1.147-3.7,3.81,3.81,0,0,1,3.081-1.371,3.633,3.633,0,0,1,2.865,1.191,4.564,4.564,0,0,1,1.055,3.142v.923h-6.636a3.818,3.818,0,0,0,.857,2.575,2.964,2.964,0,0,0,2.29.879,7.759,7.759,0,0,0,3.076-.65v1.3a7.721,7.721,0,0,1-1.463.479A8.224,8.224,0,0,1,138.6,19.176Zm-.4-8.763a2.383,2.383,0,0,0-1.85.756,3.484,3.484,0,0,0-.813,2.092h5.036a3.208,3.208,0,0,0-.615-2.114A2.165,2.165,0,0,0,138.209,10.413Zm14.309-1.046v.923l-1.784.211a3.133,3.133,0,0,1,.633,1.925,2.848,2.848,0,0,1-.967,2.259,3.9,3.9,0,0,1-2.654.844,4.42,4.42,0,0,1-.809-.07A1.436,1.436,0,0,0,146,16.7a.63.63,0,0,0,.325.584,2.376,2.376,0,0,0,1.116.189h1.705a3.818,3.818,0,0,1,2.4.659,2.29,2.29,0,0,1,.839,1.916,2.735,2.735,0,0,1-1.283,2.439,6.868,6.868,0,0,1-3.744.839,5.115,5.115,0,0,1-2.914-.7,2.27,2.27,0,0,1-1.024-1.986,2.231,2.231,0,0,1,.563-1.521,2.864,2.864,0,0,1,1.582-.87,1.526,1.526,0,0,1-.62-.519,1.372,1.372,0,0,1-.25-.817,1.551,1.551,0,0,1,.281-.923,2.957,2.957,0,0,1,.888-.765,2.6,2.6,0,0,1-1.217-1.046,3.073,3.073,0,0,1-.47-1.687,3.117,3.117,0,0,1,.949-2.439,3.875,3.875,0,0,1,2.689-.857,4.891,4.891,0,0,1,1.362.176Zm-7.682,11.25A1.307,1.307,0,0,0,145.5,21.8a3.638,3.638,0,0,0,1.89.4,5.273,5.273,0,0,0,2.72-.549,1.682,1.682,0,0,0,.883-1.49,1.179,1.179,0,0,0-.483-1.085,3.754,3.754,0,0,0-1.819-.3h-1.749a2.3,2.3,0,0,0-1.547.475A1.7,1.7,0,0,0,144.836,20.617Zm.791-8.165a1.961,1.961,0,0,0,.571,1.529,2.281,2.281,0,0,0,1.591.519,1.861,1.861,0,0,0,2.136-2.074,1.915,1.915,0,0,0-2.162-2.171,2.141,2.141,0,0,0-1.582.554A2.23,2.23,0,0,0,145.627,12.452Zm10.239-3.085v6.249a2.514,2.514,0,0,0,.536,1.758,2.184,2.184,0,0,0,1.679.58,2.739,2.739,0,0,0,2.21-.826,4.168,4.168,0,0,0,.7-2.7V9.367h1.459V19h-1.2l-.211-1.292h-.079a2.908,2.908,0,0,1-1.244,1.09,4.18,4.18,0,0,1-1.815.378,3.682,3.682,0,0,1-2.632-.835,3.554,3.554,0,0,1-.875-2.672v-6.3Zm14.071-.176a5.709,5.709,0,0,1,1.151.105l-.2,1.354a4.97,4.97,0,0,0-1.055-.132,2.567,2.567,0,0,0-2,.949A3.461,3.461,0,0,0,167,13.832V19h-1.459V9.367h1.2l.167,1.784h.07a4.234,4.234,0,0,1,1.292-1.45A2.908,2.908,0,0,1,169.938,9.191ZM178.454,19l-.29-1.371h-.07a4.053,4.053,0,0,1-1.437,1.226,4.38,4.38,0,0,1-1.789.321,3.217,3.217,0,0,1-2.246-.738,2.693,2.693,0,0,1-.813-2.1q0-2.918,4.667-3.059l1.635-.053v-.6a2.442,2.442,0,0,0-.488-1.674,2.006,2.006,0,0,0-1.56-.541,6.357,6.357,0,0,0-2.725.738l-.448-1.116a6.856,6.856,0,0,1,1.56-.606,6.757,6.757,0,0,1,1.7-.22,3.669,3.669,0,0,1,2.553.765,3.192,3.192,0,0,1,.831,2.452V19Zm-3.3-1.028a2.961,2.961,0,0,0,2.14-.747,2.764,2.764,0,0,0,.778-2.092v-.87l-1.459.062a5.307,5.307,0,0,0-2.509.541,1.63,1.63,0,0,0-.769,1.49,1.5,1.5,0,0,0,.479,1.2A1.988,1.988,0,0,0,175.158,17.972ZM194.819,19V12.733a2.6,2.6,0,0,0-.492-1.727,1.9,1.9,0,0,0-1.529-.576,2.469,2.469,0,0,0-2.013.782,3.718,3.718,0,0,0-.65,2.408V19h-1.459V12.733a2.6,2.6,0,0,0-.492-1.727,1.915,1.915,0,0,0-1.538-.576,2.382,2.382,0,0,0-2.008.822A4.447,4.447,0,0,0,184,13.946V19h-1.459V9.367h1.187l.237,1.318h.07a2.867,2.867,0,0,1,1.165-1.1,3.558,3.558,0,0,1,1.683-.4,2.862,2.862,0,0,1,2.953,1.635h.07a3.072,3.072,0,0,1,1.248-1.2,3.873,3.873,0,0,1,1.863-.439,3.262,3.262,0,0,1,2.448.839,3.755,3.755,0,0,1,.813,2.685V19Zm5.924,0h-1.459V9.367h1.459ZM199.161,6.757a.969.969,0,0,1,.246-.734.911.911,0,0,1,1.222,0,.951.951,0,0,1,.255.729.966.966,0,0,1-.255.734.893.893,0,0,1-1.222,0A.987.987,0,0,1,199.161,6.757Zm8.745,12.419a4.426,4.426,0,0,1-3.371-1.3,5.036,5.036,0,0,1-1.235-3.612,5.585,5.585,0,0,1,1.147-3.7,3.81,3.81,0,0,1,3.081-1.371,3.633,3.633,0,0,1,2.865,1.191,4.564,4.564,0,0,1,1.055,3.142v.923h-6.636a3.818,3.818,0,0,0,.857,2.575,2.964,2.964,0,0,0,2.29.879,7.759,7.759,0,0,0,3.076-.65v1.3a7.721,7.721,0,0,1-1.463.479A8.224,8.224,0,0,1,207.906,19.176Zm-.4-8.763a2.383,2.383,0,0,0-1.85.756,3.484,3.484,0,0,0-.813,2.092h5.036a3.208,3.208,0,0,0-.615-2.114A2.165,2.165,0,0,0,207.511,10.413ZM220.527,19V12.769a2.514,2.514,0,0,0-.536-1.758,2.184,2.184,0,0,0-1.679-.58,2.769,2.769,0,0,0-2.215.817,4.127,4.127,0,0,0-.7,2.7V19h-1.459V9.367h1.187l.237,1.318h.07a2.979,2.979,0,0,1,1.257-1.1,4.084,4.084,0,0,1,1.8-.391,3.659,3.659,0,0,1,2.619.839,3.572,3.572,0,0,1,.879,2.685V19Zm7.567-1.028a4.766,4.766,0,0,0,.747-.057,4.836,4.836,0,0,0,.571-.119v1.116a2.667,2.667,0,0,1-.7.189,5.247,5.247,0,0,1-.831.075q-2.795,0-2.795-2.944V10.5h-1.38V9.8l1.38-.606.615-2.057h.844V9.367h2.795V10.5h-2.795V16.17a1.95,1.95,0,0,0,.413,1.336A1.438,1.438,0,0,0,228.095,17.972Zm11.558-3.8a5.314,5.314,0,0,1-1.187,3.678,4.179,4.179,0,0,1-3.278,1.323,4.342,4.342,0,0,1-2.294-.606,4,4,0,0,1-1.547-1.74,6.065,6.065,0,0,1-.545-2.654,5.306,5.306,0,0,1,1.178-3.669,4.165,4.165,0,0,1,3.27-1.314,4.075,4.075,0,0,1,3.212,1.345A5.291,5.291,0,0,1,239.652,14.175Zm-7.339,0a4.572,4.572,0,0,0,.738,2.813,2.93,2.93,0,0,0,4.346,0,4.549,4.549,0,0,0,.743-2.817,4.476,4.476,0,0,0-.743-2.791,2.609,2.609,0,0,0-2.193-.954,2.568,2.568,0,0,0-2.162.94A4.526,4.526,0,0,0,232.313,14.175Zm21.129,3.533h-.079a3.428,3.428,0,0,1-3.023,1.468,3.577,3.577,0,0,1-2.94-1.292,5.687,5.687,0,0,1-1.05-3.674,5.783,5.783,0,0,1,1.055-3.7,3.549,3.549,0,0,1,2.936-1.318,3.5,3.5,0,0,1,3.006,1.424h.114l-.062-.694-.035-.677V5.324h1.459V19h-1.187Zm-2.918.246a2.656,2.656,0,0,0,2.167-.813,4.108,4.108,0,0,0,.672-2.624V14.21a4.834,4.834,0,0,0-.681-2.922,2.587,2.587,0,0,0-2.175-.875,2.233,2.233,0,0,0-1.964,1,4.96,4.96,0,0,0-.681,2.817,4.755,4.755,0,0,0,.677,2.786A2.292,2.292,0,0,0,250.524,17.954Zm11.461,1.222a4.426,4.426,0,0,1-3.371-1.3,5.036,5.036,0,0,1-1.235-3.612,5.585,5.585,0,0,1,1.147-3.7,3.81,3.81,0,0,1,3.081-1.371,3.633,3.633,0,0,1,2.865,1.191,4.564,4.564,0,0,1,1.055,3.142v.923h-6.636a3.818,3.818,0,0,0,.857,2.575,2.964,2.964,0,0,0,2.29.879,7.759,7.759,0,0,0,3.076-.65v1.3a7.721,7.721,0,0,1-1.463.479A8.224,8.224,0,0,1,261.985,19.176Zm-.4-8.763a2.383,2.383,0,0,0-1.85.756,3.484,3.484,0,0,0-.813,2.092h5.036a3.208,3.208,0,0,0-.615-2.114A2.165,2.165,0,0,0,261.59,10.413ZM274.149,19H272.69V5.324h1.459Zm9.018,0-.29-1.371h-.07a4.053,4.053,0,0,1-1.437,1.226,4.38,4.38,0,0,1-1.789.321,3.217,3.217,0,0,1-2.246-.738,2.693,2.693,0,0,1-.813-2.1q0-2.918,4.667-3.059l1.635-.053v-.6a2.442,2.442,0,0,0-.488-1.674,2.006,2.006,0,0,0-1.56-.541,6.357,6.357,0,0,0-2.725.738l-.448-1.116a6.856,6.856,0,0,1,1.56-.606,6.757,6.757,0,0,1,1.7-.22,3.669,3.669,0,0,1,2.553.765,3.192,3.192,0,0,1,.831,2.452V19Zm-3.3-1.028a2.961,2.961,0,0,0,2.14-.747,2.764,2.764,0,0,0,.778-2.092v-.87l-1.459.062a5.307,5.307,0,0,0-2.509.541,1.63,1.63,0,0,0-.769,1.49,1.5,1.5,0,0,0,.479,1.2A1.988,1.988,0,0,0,279.871,17.972Zm-154.248,25.2a4.111,4.111,0,0,1-3.239-1.288,5.3,5.3,0,0,1-1.147-3.643A5.46,5.46,0,0,1,122.4,34.51a4.193,4.193,0,0,1,3.318-1.318,6.584,6.584,0,0,1,1.389.149,4.575,4.575,0,0,1,1.09.352l-.448,1.239a6.86,6.86,0,0,0-1.055-.321,4.709,4.709,0,0,0-1.011-.127q-2.936,0-2.936,3.744a4.458,4.458,0,0,0,.716,2.725,2.492,2.492,0,0,0,2.123.949,6.49,6.49,0,0,0,2.47-.519v1.292A5.264,5.264,0,0,1,125.623,43.176ZM136.267,43l-.29-1.371h-.07a4.053,4.053,0,0,1-1.437,1.226,4.38,4.38,0,0,1-1.789.321,3.217,3.217,0,0,1-2.246-.738,2.693,2.693,0,0,1-.813-2.1q0-2.918,4.667-3.059l1.635-.053v-.6a2.442,2.442,0,0,0-.488-1.674,2.006,2.006,0,0,0-1.56-.541,6.357,6.357,0,0,0-2.725.738l-.448-1.116a6.856,6.856,0,0,1,1.56-.606,6.757,6.757,0,0,1,1.7-.22,3.669,3.669,0,0,1,2.553.765,3.192,3.192,0,0,1,.831,2.452V43Zm-3.3-1.028a2.961,2.961,0,0,0,2.14-.747,2.764,2.764,0,0,0,.778-2.092v-.87l-1.459.062a5.307,5.307,0,0,0-2.509.541,1.63,1.63,0,0,0-.769,1.49,1.5,1.5,0,0,0,.479,1.2A1.988,1.988,0,0,0,132.971,41.972ZM141.813,43h-1.459V29.324h1.459Zm4.553,0h-1.459V33.367h1.459Zm-1.582-12.243a.969.969,0,0,1,.246-.734.911.911,0,0,1,1.222,0,.951.951,0,0,1,.255.729.966.966,0,0,1-.255.734.893.893,0,0,1-1.222,0A.987.987,0,0,1,144.783,30.757Zm11.232,10.951h-.079a3.428,3.428,0,0,1-3.023,1.468,3.577,3.577,0,0,1-2.94-1.292,5.687,5.687,0,0,1-1.05-3.674,5.783,5.783,0,0,1,1.055-3.7,3.549,3.549,0,0,1,2.936-1.318,3.5,3.5,0,0,1,3.006,1.424h.114l-.062-.694-.035-.677v-3.92H157.4V43h-1.187Zm-2.918.246a2.656,2.656,0,0,0,2.167-.813,4.108,4.108,0,0,0,.672-2.624V38.21a4.834,4.834,0,0,0-.681-2.922,2.587,2.587,0,0,0-2.175-.875,2.233,2.233,0,0,0-1.964,1,4.96,4.96,0,0,0-.681,2.817,4.755,4.755,0,0,0,.677,2.786A2.292,2.292,0,0,0,153.1,41.954ZM166.413,43l-.29-1.371h-.07a4.053,4.053,0,0,1-1.437,1.226,4.38,4.38,0,0,1-1.789.321,3.217,3.217,0,0,1-2.246-.738,2.693,2.693,0,0,1-.813-2.1q0-2.918,4.667-3.059l1.635-.053v-.6a2.442,2.442,0,0,0-.488-1.674,2.006,2.006,0,0,0-1.56-.541,6.357,6.357,0,0,0-2.725.738l-.448-1.116a6.856,6.856,0,0,1,1.56-.606,6.757,6.757,0,0,1,1.7-.22,3.669,3.669,0,0,1,2.553.765,3.192,3.192,0,0,1,.831,2.452V43Zm-3.3-1.028a2.961,2.961,0,0,0,2.14-.747,2.764,2.764,0,0,0,.778-2.092v-.87l-1.459.062a5.307,5.307,0,0,0-2.509.541,1.63,1.63,0,0,0-.769,1.49,1.5,1.5,0,0,0,.479,1.2A1.988,1.988,0,0,0,163.117,41.972Zm13.939-.264h-.079a3.428,3.428,0,0,1-3.023,1.468,3.577,3.577,0,0,1-2.94-1.292,5.687,5.687,0,0,1-1.05-3.674,5.783,5.783,0,0,1,1.055-3.7,3.549,3.549,0,0,1,2.936-1.318,3.5,3.5,0,0,1,3.006,1.424h.114l-.062-.694-.035-.677v-3.92h1.459V43H177.25Zm-2.918.246a2.656,2.656,0,0,0,2.167-.813,4.108,4.108,0,0,0,.672-2.624V38.21a4.834,4.834,0,0,0-.681-2.922,2.587,2.587,0,0,0-2.175-.875,2.233,2.233,0,0,0-1.964,1,4.96,4.96,0,0,0-.681,2.817,4.755,4.755,0,0,0,.677,2.786A2.292,2.292,0,0,0,174.139,41.954Zm7.181.114a1.309,1.309,0,0,1,.268-.892.972.972,0,0,1,.769-.3,1.04,1.04,0,0,1,.8.3,1.255,1.255,0,0,1,.286.892,1.233,1.233,0,0,1-.29.879,1.153,1.153,0,0,1-1.534.031A1.2,1.2,0,0,1,181.319,42.068Z" transform="translate(1169 2220)" fill="#00223d"/>
    <g id="Grupo_38928" data-name="Grupo 38928" transform="translate(1020.375 2211.483)">
      <g id="Grupo_38866" data-name="Grupo 38866" transform="translate(30.414 49.482)">
        <path id="Trazado_83012" data-name="Trazado 83012" d="M499.41,338.256c.241-1.165,1.227-2.419,2.57-1.792s-.9,3.225-.9,3.225Z" transform="translate(-499.41 -336.296)" fill="#fca89e"/>
      </g>
      <g id="Grupo_38867" data-name="Grupo 38867" transform="translate(0.202 8.545)">
        <path id="Trazado_83013" data-name="Trazado 83013" d="M456.853,304.951l-1.338-1.683,14.507-11.531,14.748,7.194,20.483-13.656,22.81,13.9,23.054-22.355,1.5,1.543-24.249,23.515-23.06-14.052L484.936,301.4l-14.637-7.14Z" transform="translate(-455.515 -276.819)" fill="#ff9f9f"/>
      </g>
      <g id="Grupo_38869" data-name="Grupo 38869" transform="translate(73.544 48.14)">
        <g id="Grupo_38868" data-name="Grupo 38868">
          <path id="Trazado_83014" data-name="Trazado 83014" d="M579.226,334.46c-2.65,1.118-7.522,6.216-7.522,6.216l-9.63-1.786.313,2.5,11.521,4.539s5.735-4.9,6.466-7.4S580.763,333.812,579.226,334.46Z" transform="translate(-562.073 -334.346)" fill="#5b8bf4"/>
        </g>
      </g>
      <g id="Grupo_38871" data-name="Grupo 38871" transform="translate(84.752 48.311)">
        <g id="Grupo_38870" data-name="Grupo 38870">
          <path id="Trazado_83015" data-name="Trazado 83015" d="M590.084,353.85l-11.726-.019,3.545-16.269c.274-1.295,2.418-3.3,3.685-2.92l8.478,2.48a2.261,2.261,0,0,1,1.45,3Z" transform="translate(-578.358 -334.594)" fill="#2b79e6"/>
        </g>
      </g>
      <g id="Grupo_38873" data-name="Grupo 38873" transform="translate(94.937 46.584)">
        <g id="Grupo_38872" data-name="Grupo 38872">
          <path id="Trazado_83016" data-name="Trazado 83016" d="M595.228,336.258l-1.478-.445a.927.927,0,0,1-.549-1.187l.548-1.821a.928.928,0,0,1,1.114-.686l1.477.445a.928.928,0,0,1,.549,1.187l-.549,1.821A.928.928,0,0,1,595.228,336.258Z" transform="translate(-593.155 -332.086)" fill="#f79b94"/>
        </g>
      </g>
      <g id="Grupo_38877" data-name="Grupo 38877" transform="translate(93.84 40.247)">
        <path id="Trazado_83017" data-name="Trazado 83017" d="M591.562,328.4c-.012,2.187,1.76,2.385,3.947,2.4a3.96,3.96,0,1,0,.041-7.919C593.364,322.866,591.573,326.214,591.562,328.4Z" transform="translate(-591.562 -322.878)" fill="#fca89e"/>
        <g id="Grupo_38876" data-name="Grupo 38876" clip-path="url(#clip-path)">
          <g id="Grupo_38875" data-name="Grupo 38875" transform="translate(-3.845 -0.709)">
            <g id="Grupo_38874" data-name="Grupo 38874">
              <path id="Trazado_83018" data-name="Trazado 83018" d="M595.289,325.046s-.4,1.339-.219,1.394a1.358,1.358,0,0,1,1.274.787c.313.8-.436,1.279-1.077,1.236s-.7,1.653.815,1.807,3.038-3.063,2.688-4.578-2.273-3.655-3.131-3.814-9.663.346-9.663.346Z" transform="translate(-585.976 -321.848)" fill="#7f4d4e"/>
            </g>
          </g>
        </g>
      </g>
      <g id="Grupo_38879" data-name="Grupo 38879" transform="translate(93.644 45.025)">
        <g id="Grupo_38878" data-name="Grupo 38878">
          <path id="Trazado_83020" data-name="Trazado 83020" d="M593.752,329.9a1.92,1.92,0,1,0,1.285,2.392A1.921,1.921,0,0,0,593.752,329.9Zm-.91,3.021a1.235,1.235,0,1,1,1.538-.826A1.234,1.234,0,0,1,592.842,332.924Z" transform="translate(-591.277 -329.82)" fill="#7f4d4e"/>
        </g>
      </g>
      <g id="Grupo_38881" data-name="Grupo 38881" transform="translate(92.708 46.137)">
        <g id="Grupo_38880" data-name="Grupo 38880">
          <path id="Trazado_83021" data-name="Trazado 83021" d="M591.048,331.436l3.644,1.1s-.612,5.325-3.521,4.276C588.421,335.818,591.048,331.436,591.048,331.436Z" transform="translate(-589.917 -331.436)" fill="#7f4d4e"/>
        </g>
      </g>
      <g id="Grupo_38883" data-name="Grupo 38883" transform="translate(84.751 67.547)">
        <g id="Grupo_38882" data-name="Grupo 38882">
          <path id="Trazado_83022" data-name="Trazado 83022" d="M590.083,362.562l-11.726-.019v26.508h2.324s1.759-13.077,2.422-20.3h1.611l-.106,10.286,9.445,8.268,1.263-2.122-6.273-8.127s1.182-10.507,1.149-12.319A20.4,20.4,0,0,0,590.083,362.562Z" transform="translate(-578.356 -362.543)" fill="#ff645f"/>
        </g>
      </g>
      <g id="Grupo_38885" data-name="Grupo 38885" transform="translate(81.983 94.022)">
        <g id="Grupo_38884" data-name="Grupo 38884">
          <path id="Trazado_83023" data-name="Trazado 83023" d="M577.07,401.008h2.363v1.812h-4.792c-.317,0-.425-.71-.148-.863Z" transform="translate(-574.334 -401.008)" fill="#29266b"/>
        </g>
      </g>
      <g id="Grupo_38887" data-name="Grupo 38887" transform="translate(99.764 90.183)">
        <g id="Grupo_38886" data-name="Grupo 38886">
          <path id="Trazado_83024" data-name="Trazado 83024" d="M600.805,397.4l1.308-1.968,1.509,1-2.652,3.991c-.176.264-.827-.039-.8-.354Z" transform="translate(-600.168 -395.431)" fill="#29266b"/>
        </g>
      </g>
      <g id="Grupo_38889" data-name="Grupo 38889" transform="translate(8.621 67.809)">
        <g id="Grupo_38888" data-name="Grupo 38888">
          <path id="Trazado_83025" data-name="Trazado 83025" d="M467.769,362.923h12.238l-.326,26.144h-2.337s-1.769-13.152-2.436-20.422h-1.62l-.487,20.422h-2.337s-2.758-20.505-2.684-24.458A15.262,15.262,0,0,1,467.769,362.923Z" transform="translate(-467.748 -362.923)" fill="#2b79e6"/>
        </g>
      </g>
      <g id="Grupo_38891" data-name="Grupo 38891" transform="translate(7.105 49.09)">
        <g id="Grupo_38890" data-name="Grupo 38890">
          <path id="Trazado_83026" data-name="Trazado 83026" d="M467.082,354.445H479.32l1.528-16.254c.137-1.326-1.145-2.464-2.774-2.464H468.33c-1.631,0-2.911,1.138-2.775,2.464Z" transform="translate(-465.545 -335.727)" fill="#ff8d8d"/>
        </g>
      </g>
      <g id="Grupo_38893" data-name="Grupo 38893" transform="translate(12.666 46.087)">
        <g id="Grupo_38892" data-name="Grupo 38892">
          <path id="Trazado_83027" data-name="Trazado 83027" d="M475.779,336.089c-2.168,0-2.155-1.474-2.155-1.828v-2.4c0-.544.81-.5,1.293-.5h1.551c.482,0,1.293.44,1.293.984v1.913A1.846,1.846,0,0,1,475.779,336.089Z" transform="translate(-473.624 -331.364)" fill="#f79b94"/>
        </g>
      </g>
      <g id="Grupo_38897" data-name="Grupo 38897" transform="translate(10.799 39.445)">
        <path id="Trazado_83028" data-name="Trazado 83028" d="M478.264,328.354c-.624,2.109-2.388,1.786-4.5,1.163a3.982,3.982,0,0,1,2.257-7.639C478.133,322.5,478.886,326.245,478.264,328.354Z" transform="translate(-470.912 -321.714)" fill="#fca89e"/>
        <g id="Grupo_38896" data-name="Grupo 38896" clip-path="url(#clip-path-2)">
          <g id="Grupo_38895" data-name="Grupo 38895" transform="translate(-0.93 -1.024)">
            <g id="Grupo_38894" data-name="Grupo 38894">
              <path id="Trazado_83029" data-name="Trazado 83029" d="M473.456,323.383s0,1.407-.194,1.407a1.366,1.366,0,0,0-1.455.388c-.533.679.049,1.358.679,1.5s.193,1.794-1.31,1.5-2.037-3.832-1.261-5.189,3.249-2.861,4.122-2.764,6.629,3.2,6.629,3.2Z" transform="translate(-469.562 -320.227)" fill="#29266b"/>
            </g>
          </g>
        </g>
      </g>
      <g id="Grupo_38899" data-name="Grupo 38899" transform="translate(19.878 49.692)">
        <g id="Grupo_38898" data-name="Grupo 38898">
          <path id="Trazado_83031" data-name="Trazado 83031" d="M486.693,337.94l3.121,6,4.825-5.594c0-.21,2.238.629,1.957,1.119-.454.794-3.566,7.132-6.013,9.719-1.366,1.444-5.375-3.832-5.594-4.2a26.331,26.331,0,0,1-.886-6.184.882.882,0,0,1,.792-.906l.723-1.3C486.018,336.561,486.553,337.563,486.693,337.94Z" transform="translate(-484.102 -336.601)" fill="#ff8d8d"/>
        </g>
      </g>
      <g id="Grupo_38901" data-name="Grupo 38901" transform="translate(0 49.624)">
        <g id="Grupo_38900" data-name="Grupo 38900">
          <path id="Trazado_83032" data-name="Trazado 83032" d="M463.345,336.5s-5.658,6.035-7.654,7.936c-1.1,1.049,0,1.836.629,2.622,1.746,2.181,7.395,6.084,7.395,6.084l-.315-3.3-3.409-3.985s4.795-3.7,4.954-3.969c.437-.728.073-3.929.073-3.929Z" transform="translate(-455.222 -336.502)" fill="#ff8d8d"/>
        </g>
      </g>
      <g id="Grupo_38903" data-name="Grupo 38903" transform="translate(18.21 93.919)">
        <g id="Grupo_38902" data-name="Grupo 38902">
          <path id="Trazado_83033" data-name="Trazado 83033" d="M484.056,400.859h-2.377v1.823H486.5c.319,0,.428-.714.149-.869Z" transform="translate(-481.679 -400.859)" fill="#29266b"/>
        </g>
      </g>
      <g id="Grupo_38905" data-name="Grupo 38905" transform="translate(11.227 93.919)">
        <g id="Grupo_38904" data-name="Grupo 38904">
          <path id="Trazado_83034" data-name="Trazado 83034" d="M473.91,400.859h-2.376v1.823h4.819c.318,0,.427-.714.149-.869Z" transform="translate(-471.534 -400.859)" fill="#29266b"/>
        </g>
      </g>
      <g id="Grupo_38907" data-name="Grupo 38907" transform="translate(8.178 62.667)">
        <g id="Grupo_38906" data-name="Grupo 38906">
          <path id="Trazado_83035" data-name="Trazado 83035" d="M468.362,358.894a1.087,1.087,0,0,0,.907-1.251l-.2-1.922c-.021-.368-.6-.257-.97-.236l-1,.262.315,3.3S468.124,358.914,468.362,358.894Z" transform="translate(-467.104 -355.453)" fill="#fca89e"/>
        </g>
      </g>
      <g id="Grupo_38909" data-name="Grupo 38909" transform="translate(26.137)">
        <g id="Grupo_38908" data-name="Grupo 38908">
          <path id="Trazado_83036" data-name="Trazado 83036" d="M519.176,264.4a25.98,25.98,0,1,0,25.981,25.981A25.98,25.98,0,0,0,519.176,264.4Zm0,45.4a19.416,19.416,0,1,1,19.416-19.416A19.416,19.416,0,0,1,519.176,309.8Z" transform="translate(-493.196 -264.404)" fill="#29266b"/>
        </g>
      </g>
      <g id="Grupo_38910" data-name="Grupo 38910" transform="translate(64.834 38.565)">
        <path id="Trazado_83037" data-name="Trazado 83037" d="M579.4,344.114a3.764,3.764,0,0,1,0,5.322h0a3.763,3.763,0,0,1-5.322,0l-23.554-22.578a3.763,3.763,0,0,1,0-5.322h0a3.763,3.763,0,0,1,5.322,0Z" transform="translate(-549.419 -320.435)" fill="#29266b"/>
      </g>
      <g id="Grupo_38912" data-name="Grupo 38912" transform="translate(77.206 59.24)">
        <g id="Grupo_38911" data-name="Grupo 38911">
          <path id="Trazado_83038" data-name="Trazado 83038" d="M571.457,350.474l.313,3.22s-3.962-1.006-4.276-1.878a1.092,1.092,0,0,1,.209-1.275Z" transform="translate(-567.394 -350.474)" fill="#fca89e"/>
        </g>
      </g>
      <g id="Grupo_38914" data-name="Grupo 38914" transform="translate(71.046 50.771)">
        <g id="Grupo_38913" data-name="Grupo 38913">
          <path id="Trazado_83039" data-name="Trazado 83039" d="M562.321,340.5l-.8,2.251s-3.16-2.595-3.072-3.517a1.09,1.09,0,0,1,.73-1.065l2.656,1.189A.915.915,0,0,1,562.321,340.5Z" transform="translate(-558.444 -338.169)" fill="#fca89e"/>
        </g>
      </g>
      <g id="Grupo_38915" data-name="Grupo 38915" transform="translate(83.204 7.296)">
        <path id="Trazado_83040" data-name="Trazado 83040" d="M590.245,288.875l-2.145-.148.771-11.168-12.42,2-.342-2.123L591.2,275Z" transform="translate(-576.108 -275.005)" fill="#ff9f9f"/>
      </g>
      <g id="Grupo_38919" data-name="Grupo 38919" transform="translate(43.336 11.646)">
        <path id="Trazado_83041" data-name="Trazado 83041" d="M531.444,287.954a6.63,6.63,0,1,1-6.629-6.63A6.629,6.629,0,0,1,531.444,287.954Z" transform="translate(-518.185 -281.324)" fill="#ff645f"/>
        <g id="Grupo_38918" data-name="Grupo 38918" clip-path="url(#clip-path-3)">
          <g id="Grupo_38916" data-name="Grupo 38916" transform="translate(1.971 -0.896)">
            <path id="Trazado_83042" data-name="Trazado 83042" d="M521.049,281.217l4.659,6.331v-7.525Z" transform="translate(-521.049 -280.023)" fill="#29266b"/>
          </g>
          <g id="Grupo_38917" data-name="Grupo 38917" transform="translate(6.63 -0.896)">
            <path id="Trazado_83043" data-name="Trazado 83043" d="M536.418,286.831l-8.6.717v-7.525l4.539.6Z" transform="translate(-527.817 -280.023)" fill="#ff9f9f"/>
          </g>
        </g>
      </g>
      <g id="Grupo_38920" data-name="Grupo 38920" transform="translate(12.518 22.038)">
        <path id="Trazado_83045" data-name="Trazado 83045" d="M478.6,299.021a2.6,2.6,0,1,1-2.6-2.6A2.6,2.6,0,0,1,478.6,299.021Z" transform="translate(-473.409 -296.423)" fill="#29266b"/>
      </g>
      <g id="Grupo_38921" data-name="Grupo 38921" transform="translate(32.578 86.604)">
        <rect id="Rectángulo_32668" data-name="Rectángulo 32668" width="6.285" height="8.754" fill="#2b79e6"/>
      </g>
      <g id="Grupo_38922" data-name="Grupo 38922" transform="translate(40.329 77.522)">
        <rect id="Rectángulo_32669" data-name="Rectángulo 32669" width="6.285" height="17.836" fill="#ff645f"/>
      </g>
      <g id="Grupo_38923" data-name="Grupo 38923" transform="translate(48.08 65.311)">
        <rect id="Rectángulo_32670" data-name="Rectángulo 32670" width="6.285" height="30.048" fill="#29266b"/>
      </g>
      <g id="Grupo_38924" data-name="Grupo 38924" transform="translate(55.831 71.871)">
        <rect id="Rectángulo_32671" data-name="Rectángulo 32671" width="6.285" height="23.487" fill="#ff9f9f"/>
      </g>
      <g id="Grupo_38925" data-name="Grupo 38925" transform="translate(63.582 79.213)">
        <rect id="Rectángulo_32672" data-name="Rectángulo 32672" width="6.285" height="16.145" fill="#2b79e6"/>
      </g>
      <g id="Grupo_38927" data-name="Grupo 38927" transform="translate(80.904 51.174)">
        <g id="Grupo_38926" data-name="Grupo 38926">
          <path id="Trazado_83046" data-name="Trazado 83046" d="M591.945,338.754l-8.03,8.239-11.148-.165.239,3.225,13.725,1.633s5.632-6.362,6.362-8.864S593.614,338.754,591.945,338.754Z" transform="translate(-572.767 -338.754)" fill="#5b8bf4"/>
        </g>
      </g>
    </g>
  </g>
</svg>
