<svg xmlns="http://www.w3.org/2000/svg" xmlns:xlink="http://www.w3.org/1999/xlink" width="475.326" height="117" viewBox="0 0 475.326 117">
  <defs>
    <clipPath id="clip-path">
      <path id="Trazado_83221" data-name="Trazado 83221" d="M779.252,360.149H765.868l-1.67-17.776c-.15-1.45,1.252-2.695,3.034-2.695h10.656c1.783,0,3.184,1.245,3.034,2.695Z" transform="translate(-764.187 -339.678)" fill="none"/>
    </clipPath>
  </defs>
  <g id="Grupo_40306" data-name="Grupo 40306" transform="translate(-1022.674 -2025)">
    <path id="Trazado_84146" data-name="Trazado 84146" d="M0,0H349V117H0Z" transform="translate(1149 2025)" fill="#c0dff1"/>
    <path id="Trazado_84147" data-name="Trazado 84147" d="M92.822,19H85.659V6.15h7.163V7.478H87.153v4.14h5.326v1.318H87.153v4.729h5.669Zm8.842-2.628a2.413,2.413,0,0,1-1,2.074,4.71,4.71,0,0,1-2.812.729,6.116,6.116,0,0,1-2.988-.606V17.216a7.227,7.227,0,0,0,1.49.554,6.221,6.221,0,0,0,1.534.2,3.478,3.478,0,0,0,1.758-.365,1.256,1.256,0,0,0,.127-2.074,7.673,7.673,0,0,0-1.9-.945,10.318,10.318,0,0,1-1.912-.875,2.611,2.611,0,0,1-.844-.848,2.212,2.212,0,0,1-.277-1.134,2.161,2.161,0,0,1,.958-1.859,4.464,4.464,0,0,1,2.628-.681,7.689,7.689,0,0,1,3.041.633l-.519,1.187a6.98,6.98,0,0,0-2.628-.6,3.023,3.023,0,0,0-1.564.325,1.006,1.006,0,0,0-.527.9,1.092,1.092,0,0,0,.2.659,1.952,1.952,0,0,0,.637.519,14.24,14.24,0,0,0,1.688.712,6.3,6.3,0,0,1,2.316,1.257A2.216,2.216,0,0,1,101.664,16.372Zm5.484,1.6a4.766,4.766,0,0,0,.747-.057,4.836,4.836,0,0,0,.571-.119v1.116a2.667,2.667,0,0,1-.7.189,5.247,5.247,0,0,1-.831.075q-2.795,0-2.795-2.944V10.5h-1.38V9.8l1.38-.606.615-2.057h.844V9.367H108.4V10.5H105.6V16.17a1.95,1.95,0,0,0,.413,1.336A1.438,1.438,0,0,0,107.148,17.972ZM116.315,19l-.29-1.371h-.07a4.053,4.053,0,0,1-1.437,1.226,4.38,4.38,0,0,1-1.789.321,3.217,3.217,0,0,1-2.246-.738,2.693,2.693,0,0,1-.813-2.1q0-2.918,4.667-3.059l1.635-.053v-.6a2.442,2.442,0,0,0-.488-1.674,2.006,2.006,0,0,0-1.56-.541,6.357,6.357,0,0,0-2.725.738l-.448-1.116a6.856,6.856,0,0,1,1.56-.606,6.757,6.757,0,0,1,1.7-.22,3.669,3.669,0,0,1,2.553.765,3.192,3.192,0,0,1,.831,2.452V19Zm-3.3-1.028a2.961,2.961,0,0,0,2.14-.747,2.764,2.764,0,0,0,.778-2.092v-.87l-1.459.062a5.307,5.307,0,0,0-2.509.541,1.63,1.63,0,0,0-.769,1.49,1.5,1.5,0,0,0,.479,1.2A1.988,1.988,0,0,0,113.02,17.972ZM126.994,19V12.769a2.514,2.514,0,0,0-.536-1.758,2.184,2.184,0,0,0-1.679-.58,2.769,2.769,0,0,0-2.215.817,4.127,4.127,0,0,0-.7,2.7V19H120.4V9.367h1.187l.237,1.318h.07a2.979,2.979,0,0,1,1.257-1.1,4.084,4.084,0,0,1,1.8-.391,3.659,3.659,0,0,1,2.619.839,3.572,3.572,0,0,1,.879,2.685V19Zm11.013-1.292h-.079a3.428,3.428,0,0,1-3.023,1.468,3.577,3.577,0,0,1-2.94-1.292,5.687,5.687,0,0,1-1.05-3.674,5.783,5.783,0,0,1,1.055-3.7A3.549,3.549,0,0,1,134.9,9.191a3.5,3.5,0,0,1,3.006,1.424h.114l-.062-.694-.035-.677V5.324h1.459V19H138.2Zm-2.918.246a2.656,2.656,0,0,0,2.167-.813,4.108,4.108,0,0,0,.672-2.624V14.21a4.834,4.834,0,0,0-.681-2.922,2.587,2.587,0,0,0-2.175-.875,2.233,2.233,0,0,0-1.964,1,4.96,4.96,0,0,0-.681,2.817,4.755,4.755,0,0,0,.677,2.786A2.292,2.292,0,0,0,135.089,17.954ZM148.4,19l-.29-1.371h-.07a4.053,4.053,0,0,1-1.437,1.226,4.38,4.38,0,0,1-1.789.321,3.217,3.217,0,0,1-2.246-.738,2.693,2.693,0,0,1-.813-2.1q0-2.918,4.667-3.059l1.635-.053v-.6a2.442,2.442,0,0,0-.488-1.674,2.006,2.006,0,0,0-1.56-.541,6.357,6.357,0,0,0-2.725.738l-.448-1.116a6.856,6.856,0,0,1,1.56-.606,6.757,6.757,0,0,1,1.7-.22,3.669,3.669,0,0,1,2.553.765,3.192,3.192,0,0,1,.831,2.452V19Zm-3.3-1.028a2.961,2.961,0,0,0,2.14-.747,2.764,2.764,0,0,0,.778-2.092v-.87l-1.459.062a5.307,5.307,0,0,0-2.509.541,1.63,1.63,0,0,0-.769,1.49,1.5,1.5,0,0,0,.479,1.2A1.988,1.988,0,0,0,145.108,17.972Zm11.777-8.78a5.709,5.709,0,0,1,1.151.105l-.2,1.354a4.97,4.97,0,0,0-1.055-.132,2.567,2.567,0,0,0-2,.949,3.461,3.461,0,0,0-.831,2.364V19h-1.459V9.367h1.2l.167,1.784h.07a4.234,4.234,0,0,1,1.292-1.45A2.908,2.908,0,0,1,156.886,9.191ZM161.3,19h-1.459V9.367H161.3ZM159.716,6.757a.969.969,0,0,1,.246-.734.911.911,0,0,1,1.222,0,.951.951,0,0,1,.255.729.966.966,0,0,1-.255.734.893.893,0,0,1-1.222,0A.987.987,0,0,1,159.716,6.757ZM170.553,19h-6.987v-.993l5.256-7.506h-4.931V9.367h6.53V10.5l-5.186,7.365h5.317Zm8.183,0-.29-1.371h-.07a4.053,4.053,0,0,1-1.437,1.226,4.38,4.38,0,0,1-1.789.321,3.217,3.217,0,0,1-2.246-.738,2.693,2.693,0,0,1-.813-2.1q0-2.918,4.667-3.059l1.635-.053v-.6a2.442,2.442,0,0,0-.488-1.674,2.006,2.006,0,0,0-1.56-.541,6.357,6.357,0,0,0-2.725.738l-.448-1.116a6.856,6.856,0,0,1,1.56-.606,6.757,6.757,0,0,1,1.7-.22,3.669,3.669,0,0,1,2.553.765,3.192,3.192,0,0,1,.831,2.452V19Zm-3.3-1.028a2.961,2.961,0,0,0,2.14-.747,2.764,2.764,0,0,0,.778-2.092v-.87l-1.459.062a5.307,5.307,0,0,0-2.509.541,1.63,1.63,0,0,0-.769,1.49,1.5,1.5,0,0,0,.479,1.2A1.988,1.988,0,0,0,175.439,17.972Zm11.232,1.2a4.111,4.111,0,0,1-3.239-1.288,5.3,5.3,0,0,1-1.147-3.643,5.46,5.46,0,0,1,1.165-3.735,4.193,4.193,0,0,1,3.318-1.318,6.584,6.584,0,0,1,1.389.149,4.575,4.575,0,0,1,1.09.352l-.448,1.239a6.86,6.86,0,0,0-1.055-.321,4.709,4.709,0,0,0-1.011-.127q-2.936,0-2.936,3.744a4.458,4.458,0,0,0,.716,2.725,2.492,2.492,0,0,0,2.123.949,6.49,6.49,0,0,0,2.47-.519v1.292A5.264,5.264,0,0,1,186.672,19.176ZM192.851,19h-1.459V9.367h1.459ZM191.269,6.757a.969.969,0,0,1,.246-.734.911.911,0,0,1,1.222,0,.951.951,0,0,1,.255.729.966.966,0,0,1-.255.734.893.893,0,0,1-1.222,0A.987.987,0,0,1,191.269,6.757Zm12.99,7.418a5.314,5.314,0,0,1-1.187,3.678,4.179,4.179,0,0,1-3.278,1.323,4.342,4.342,0,0,1-2.294-.606,4,4,0,0,1-1.547-1.74,6.065,6.065,0,0,1-.545-2.654,5.306,5.306,0,0,1,1.178-3.669,4.165,4.165,0,0,1,3.27-1.314,4.075,4.075,0,0,1,3.212,1.345A5.291,5.291,0,0,1,204.259,14.175Zm-7.339,0a4.572,4.572,0,0,0,.738,2.813,2.93,2.93,0,0,0,4.346,0,4.549,4.549,0,0,0,.743-2.817A4.476,4.476,0,0,0,202,11.384a2.609,2.609,0,0,0-2.193-.954,2.568,2.568,0,0,0-2.162.94A4.526,4.526,0,0,0,196.92,14.175Zm1.688-6.3q.422-.545.91-1.318a15.088,15.088,0,0,0,.769-1.345h1.775v.185A12.992,12.992,0,0,1,200.91,6.8a13.072,13.072,0,0,1-1.327,1.292h-.976ZM213.408,19V12.769a2.514,2.514,0,0,0-.536-1.758,2.184,2.184,0,0,0-1.679-.58,2.769,2.769,0,0,0-2.215.817,4.127,4.127,0,0,0-.7,2.7V19h-1.459V9.367H208l.237,1.318h.07a2.979,2.979,0,0,1,1.257-1.1,4.084,4.084,0,0,1,1.8-.391,3.659,3.659,0,0,1,2.619.839,3.572,3.572,0,0,1,.879,2.685V19Zm4.245-.932a1.309,1.309,0,0,1,.268-.892.972.972,0,0,1,.769-.3,1.04,1.04,0,0,1,.8.3,1.255,1.255,0,0,1,.286.892,1.233,1.233,0,0,1-.29.879,1.153,1.153,0,0,1-1.534.031A1.2,1.2,0,0,1,217.653,18.068Z" transform="translate(1169 2068)" fill="#00223d"/>
    <g id="Grupo_39451" data-name="Grupo 39451" transform="translate(364.22 1761.447)">
      <g id="Grupo_39409" data-name="Grupo 39409" transform="translate(711.994 343.112)">
        <rect id="Rectángulo_32756" data-name="Rectángulo 32756" width="1.314" height="31.313" fill="#ff9f9f"/>
      </g>
      <g id="Grupo_39410" data-name="Grupo 39410" transform="translate(689.002 343.112)">
        <path id="Trazado_83210" data-name="Trazado 83210" d="M699.524,396H698.21l13.85-31.313h1.314Z" transform="translate(-698.21 -364.683)" fill="#ff9f9f"/>
      </g>
      <g id="Grupo_39411" data-name="Grupo 39411" transform="translate(720.972 343.112)">
        <path id="Trazado_83211" data-name="Trazado 83211" d="M753.667,396h1.314l-13.85-31.313h-1.314Z" transform="translate(-739.817 -364.683)" fill="#ff9f9f"/>
      </g>
      <g id="Grupo_39412" data-name="Grupo 39412" transform="translate(658.455 271.553)">
        <rect id="Rectángulo_32757" data-name="Rectángulo 32757" width="108.392" height="73.092" rx="4.594" fill="#cdeefc"/>
      </g>
      <g id="Grupo_39425" data-name="Grupo 39425" transform="translate(687.631 288.406)">
        <g id="Grupo_39414" data-name="Grupo 39414" transform="translate(0 26.188)">
          <g id="Grupo_39413" data-name="Grupo 39413">
            <rect id="Rectángulo_32758" data-name="Rectángulo 32758" width="9.385" height="8.174" fill="#8cb3de"/>
          </g>
        </g>
        <g id="Grupo_39416" data-name="Grupo 39416" transform="translate(9.31 19.83)">
          <g id="Grupo_39415" data-name="Grupo 39415">
            <rect id="Rectángulo_32759" data-name="Rectángulo 32759" width="9.385" height="14.532" fill="#2b79e6"/>
          </g>
        </g>
        <g id="Grupo_39419" data-name="Grupo 39419" transform="translate(18.619 13.119)">
          <g id="Grupo_39418" data-name="Grupo 39418">
            <g id="Grupo_39417" data-name="Grupo 39417">
              <rect id="Rectángulo_32760" data-name="Rectángulo 32760" width="9.385" height="21.243" fill="#61b3db"/>
            </g>
          </g>
        </g>
        <g id="Grupo_39422" data-name="Grupo 39422" transform="translate(27.929 6.585)">
          <g id="Grupo_39421" data-name="Grupo 39421">
            <g id="Grupo_39420" data-name="Grupo 39420">
              <rect id="Rectángulo_32761" data-name="Rectángulo 32761" width="9.385" height="27.778" fill="#29266b"/>
            </g>
          </g>
        </g>
        <g id="Grupo_39424" data-name="Grupo 39424" transform="translate(37.239)">
          <g id="Grupo_39423" data-name="Grupo 39423">
            <rect id="Rectángulo_32762" data-name="Rectángulo 32762" width="9.385" height="34.363" fill="#ff645f"/>
          </g>
        </g>
      </g>
      <g id="Grupo_39426" data-name="Grupo 39426" transform="translate(721.403 312.913)">
        <rect id="Rectángulo_32763" data-name="Rectángulo 32763" width="0.876" height="13.138" transform="translate(0 0.379) rotate(-25.635)" fill="#61b3db"/>
      </g>
      <g id="Grupo_39450" data-name="Grupo 39450" transform="translate(727.188 311.86)">
        <g id="Grupo_39427" data-name="Grupo 39427" transform="translate(0 11.326)">
          <path id="Trazado_83212" data-name="Trazado 83212" d="M749.531,343.258c-.559-.566-2.749-3.523-.888-4.4s3.176,3.833,3.176,3.833Z" transform="translate(-747.908 -338.751)" fill="#fca89e"/>
        </g>
        <g id="Grupo_39429" data-name="Grupo 39429" transform="translate(14.19 32.51)">
          <g id="Grupo_39428" data-name="Grupo 39428">
            <path id="Trazado_83213" data-name="Trazado 83213" d="M779.759,366.32H766.375l.357,28.591h2.556s1.935-14.383,2.664-22.333h1.772l1.8,10.45,7.432,7.982,1.951-1.716-5.635-8.637s.514-10.648.479-12.494A16.738,16.738,0,0,0,779.759,366.32Z" transform="translate(-766.375 -366.32)" fill="#ff645f"/>
          </g>
        </g>
        <g id="Grupo_39431" data-name="Grupo 39431" transform="translate(12.508 12.038)">
          <g id="Grupo_39430" data-name="Grupo 39430">
            <path id="Trazado_83214" data-name="Trazado 83214" d="M779.252,360.149H765.868l-1.67-17.776c-.15-1.45,1.252-2.695,3.034-2.695h10.656c1.783,0,3.184,1.245,3.034,2.695Z" transform="translate(-764.187 -339.678)" fill="#29266b"/>
          </g>
        </g>
        <g id="Grupo_39433" data-name="Grupo 39433" transform="translate(18.65 8.754)">
          <g id="Grupo_39432" data-name="Grupo 39432">
            <path id="Trazado_83215" data-name="Trazado 83215" d="M774.347,340.571c2.37,0,2.357-1.612,2.357-2v-2.623c0-.594-.886-.544-1.414-.544h-1.7c-.527,0-1.414.482-1.414,1.076v2.092A2.019,2.019,0,0,0,774.347,340.571Z" transform="translate(-772.179 -335.404)" fill="#fca89e"/>
          </g>
        </g>
        <g id="Grupo_39435" data-name="Grupo 39435" transform="translate(1.597 12.697)">
          <g id="Grupo_39434" data-name="Grupo 39434">
            <path id="Trazado_83216" data-name="Trazado 83216" d="M760.842,342l-3.412,6.567-5.276-6.117c0-.23-2.447.688-2.141,1.223.5.868,3.9,7.8,6.576,10.629,1.494,1.579,5.879-4.19,6.118-4.588.38-.635.9-4.568.969-6.762a.966.966,0,0,0-.867-.991l-.791-1.422C761.58,340.491,761,341.586,760.842,342Z" transform="translate(-749.986 -340.535)" fill="#29266b"/>
          </g>
        </g>
        <g id="Grupo_39437" data-name="Grupo 39437" transform="translate(26.156 12.622)">
          <g id="Grupo_39436" data-name="Grupo 39436">
            <path id="Trazado_83217" data-name="Trazado 83217" d="M783.934,340.437s6.188,6.6,8.371,8.68c1.2,1.147,0,2.007-.688,2.868-1.909,2.385-8.087,6.653-8.087,6.653l.344-3.613,3.728-4.359s-5.243-4.049-5.419-4.341c-.477-.8-.079-4.3-.079-4.3Z" transform="translate(-781.948 -340.437)" fill="#29266b"/>
          </g>
        </g>
        <g id="Grupo_39439" data-name="Grupo 39439" transform="translate(11.502 61.064)">
          <g id="Grupo_39438" data-name="Grupo 39438">
            <path id="Trazado_83218" data-name="Trazado 83218" d="M765.887,403.482h2.6v1.993h-5.271c-.348,0-.467-.781-.163-.95Z" transform="translate(-762.877 -403.482)" fill="#29266b"/>
          </g>
        </g>
        <path id="Trazado_83219" data-name="Trazado 83219" d="M772.189,327.624c-2.009-.24-2.567,1.319-2.9,4.318-.292,2.62.033,3.926,2.456,3.959s6.028-1.32,5.693-4.558S772.189,327.624,772.189,327.624Z" transform="translate(-752.839 -324.842)" fill="#ffbbb6"/>
        <g id="Grupo_39441" data-name="Grupo 39441" transform="translate(29.314 55.484)">
          <g id="Grupo_39440" data-name="Grupo 39440">
            <path id="Trazado_83220" data-name="Trazado 83220" d="M787.513,397.936l1.951-1.716,1.317,1.5-3.958,3.481c-.261.23-.867-.278-.749-.605Z" transform="translate(-786.059 -396.22)" fill="#29266b"/>
          </g>
        </g>
        <g id="Grupo_39447" data-name="Grupo 39447" transform="translate(12.508 12.038)">
          <g id="Grupo_39446" data-name="Grupo 39446" clip-path="url(#clip-path)">
            <g id="Grupo_39443" data-name="Grupo 39443" transform="translate(0.881 5.118)">
              <g id="Grupo_39442" data-name="Grupo 39442">
                <rect id="Rectángulo_32764" data-name="Rectángulo 32764" width="0.229" height="9.705" fill="#fc6262"/>
              </g>
            </g>
            <g id="Grupo_39445" data-name="Grupo 39445" transform="translate(15.463 5.59)">
              <g id="Grupo_39444" data-name="Grupo 39444">
                <rect id="Rectángulo_32765" data-name="Rectángulo 32765" width="9.591" height="0.23" transform="translate(0 9.572) rotate(-86.412)" fill="#fc6262"/>
              </g>
            </g>
          </g>
        </g>
        <g id="Grupo_39449" data-name="Grupo 39449" transform="translate(17.699)">
          <g id="Grupo_39448" data-name="Grupo 39448">
            <path id="Trazado_83222" data-name="Trazado 83222" d="M771.81,324.279c1.033-.838,2.007.516,3.154.917s3.126-.66,4.215.487-.23,3.212-.287,4.015.524,2.678-.172,3.785a3.025,3.025,0,0,1-3.957.746c-1.144-.544.287-2.352.516-3.327s.058-2.179-1.319-1.176c-.624.455-1.726.974-1.635-.573C772.441,327.2,769.544,326.114,771.81,324.279Z" transform="translate(-770.942 -324.011)" fill="#7f4d4e"/>
          </g>
        </g>
      </g>
    </g>
  </g>
</svg>
