<svg xmlns="http://www.w3.org/2000/svg" xmlns:xlink="http://www.w3.org/1999/xlink" width="501" height="117" viewBox="0 0 501 117">
  <defs>
    <clipPath id="clip-path">
      <path id="Trazado_83133" data-name="Trazado 83133" d="M867.094,333.859c-.543,1.838-2.08,1.556-3.918,1.013a3.47,3.47,0,0,1,1.967-6.655C866.981,328.76,867.637,332.021,867.094,333.859Z" transform="translate(-860.69 -328.074)" fill="#fca89e"/>
    </clipPath>
    <clipPath id="clip-path-2">
      <path id="Trazado_83150" data-name="Trazado 83150" d="M994.164,331.861c-.253,1.747,1.141,2.1,2.887,2.357a3.2,3.2,0,1,0,.918-6.325C996.223,327.639,994.418,330.115,994.164,331.861Z" transform="translate(-994.135 -327.875)" fill="#fda8a3"/>
    </clipPath>
    <clipPath id="clip-path-3">
      <path id="Trazado_83152" data-name="Trazado 83152" d="M1001.347,351.924H992.32l-.6-11a1.7,1.7,0,0,1,1.878-1.668h7.111a1.7,1.7,0,0,1,1.878,1.668Z" transform="translate(-991.71 -339.253)" fill="none"/>
    </clipPath>
  </defs>
  <g id="Grupo_40310" data-name="Grupo 40310" transform="translate(-422 -2363)">
    <path id="Trazado_84150" data-name="Trazado 84150" d="M0,0H349V117H0Z" transform="translate(574 2363)" fill="#c0dff1"/>
    <path id="Trazado_84151" data-name="Trazado 84151" d="M39.7,19,35.336,7.609h-.07q.123,1.354.123,3.217V19h-1.38V6.15h2.25l4.069,10.6h.07l4.1-10.6h2.232V19H45.242V10.721q0-1.424.123-3.094h-.07L40.9,19Zm16.269,0-.29-1.371H55.6a4.053,4.053,0,0,1-1.437,1.226,4.38,4.38,0,0,1-1.789.321,3.217,3.217,0,0,1-2.246-.738,2.693,2.693,0,0,1-.813-2.1q0-2.918,4.667-3.059l1.635-.053v-.6a2.442,2.442,0,0,0-.488-1.674,2.006,2.006,0,0,0-1.56-.541,6.357,6.357,0,0,0-2.725.738L50.4,10.035a6.856,6.856,0,0,1,1.56-.606,6.757,6.757,0,0,1,1.7-.22,3.669,3.669,0,0,1,2.553.765,3.192,3.192,0,0,1,.831,2.452V19Zm-3.3-1.028a2.961,2.961,0,0,0,2.14-.747,2.764,2.764,0,0,0,.778-2.092v-.87l-1.459.062a5.307,5.307,0,0,0-2.509.541,1.63,1.63,0,0,0-.769,1.49,1.5,1.5,0,0,0,.479,1.2A1.988,1.988,0,0,0,52.668,17.972ZM66.643,19V12.769a2.514,2.514,0,0,0-.536-1.758,2.184,2.184,0,0,0-1.679-.58,2.769,2.769,0,0,0-2.215.817,4.127,4.127,0,0,0-.7,2.7V19H60.051V9.367h1.187l.237,1.318h.07a2.979,2.979,0,0,1,1.257-1.1,4.084,4.084,0,0,1,1.8-.391,3.659,3.659,0,0,1,2.619.839,3.572,3.572,0,0,1,.879,2.685V19Zm7.567-1.028a4.766,4.766,0,0,0,.747-.057,4.836,4.836,0,0,0,.571-.119v1.116a2.667,2.667,0,0,1-.7.189,5.247,5.247,0,0,1-.831.075q-2.795,0-2.795-2.944V10.5h-1.38V9.8l1.38-.606.615-2.057h.844V9.367h2.795V10.5H72.664V16.17a1.95,1.95,0,0,0,.413,1.336A1.438,1.438,0,0,0,74.21,17.972Zm7.313,1.2a4.426,4.426,0,0,1-3.371-1.3,5.036,5.036,0,0,1-1.235-3.612,5.585,5.585,0,0,1,1.147-3.7,3.81,3.81,0,0,1,3.081-1.371,3.633,3.633,0,0,1,2.865,1.191,4.564,4.564,0,0,1,1.055,3.142v.923H78.429a3.818,3.818,0,0,0,.857,2.575,2.964,2.964,0,0,0,2.29.879,7.759,7.759,0,0,0,3.076-.65v1.3a7.721,7.721,0,0,1-1.463.479A8.224,8.224,0,0,1,81.523,19.176Zm-.4-8.763a2.383,2.383,0,0,0-1.85.756,3.484,3.484,0,0,0-.813,2.092H83.5a3.208,3.208,0,0,0-.615-2.114A2.165,2.165,0,0,0,81.127,10.413ZM94.144,19V12.769a2.514,2.514,0,0,0-.536-1.758,2.184,2.184,0,0,0-1.679-.58,2.769,2.769,0,0,0-2.215.817,4.127,4.127,0,0,0-.7,2.7V19H87.552V9.367h1.187l.237,1.318h.07a2.979,2.979,0,0,1,1.257-1.1,4.084,4.084,0,0,1,1.8-.391,3.659,3.659,0,0,1,2.619.839,3.572,3.572,0,0,1,.879,2.685V19Zm5.915,0H98.6V9.367h1.459ZM98.477,6.757a.969.969,0,0,1,.246-.734.911.911,0,0,1,1.222,0,.951.951,0,0,1,.255.729.966.966,0,0,1-.255.734.893.893,0,0,1-1.222,0A.987.987,0,0,1,98.477,6.757ZM115.431,19V12.733a2.6,2.6,0,0,0-.492-1.727,1.9,1.9,0,0,0-1.529-.576,2.469,2.469,0,0,0-2.013.782,3.718,3.718,0,0,0-.65,2.408V19h-1.459V12.733a2.6,2.6,0,0,0-.492-1.727,1.915,1.915,0,0,0-1.538-.576,2.382,2.382,0,0,0-2.008.822,4.447,4.447,0,0,0-.637,2.694V19h-1.459V9.367h1.187l.237,1.318h.07a2.867,2.867,0,0,1,1.165-1.1,3.558,3.558,0,0,1,1.683-.4,2.862,2.862,0,0,1,2.953,1.635h.07a3.072,3.072,0,0,1,1.248-1.2,3.873,3.873,0,0,1,1.863-.439,3.262,3.262,0,0,1,2.448.839,3.755,3.755,0,0,1,.813,2.685V19Zm5.924,0H119.9V9.367h1.459ZM119.773,6.757a.969.969,0,0,1,.246-.734.911.911,0,0,1,1.222,0,.951.951,0,0,1,.255.729.966.966,0,0,1-.255.734.893.893,0,0,1-1.222,0A.987.987,0,0,1,119.773,6.757Zm8.745,12.419a4.426,4.426,0,0,1-3.371-1.3,5.036,5.036,0,0,1-1.235-3.612,5.585,5.585,0,0,1,1.147-3.7,3.81,3.81,0,0,1,3.081-1.371,3.633,3.633,0,0,1,2.865,1.191,4.564,4.564,0,0,1,1.055,3.142v.923h-6.636a3.818,3.818,0,0,0,.857,2.575,2.964,2.964,0,0,0,2.29.879,7.759,7.759,0,0,0,3.076-.65v1.3a7.721,7.721,0,0,1-1.463.479A8.224,8.224,0,0,1,128.518,19.176Zm-.4-8.763a2.383,2.383,0,0,0-1.85.756,3.484,3.484,0,0,0-.813,2.092H130.5a3.208,3.208,0,0,0-.615-2.114A2.165,2.165,0,0,0,128.123,10.413ZM141.139,19V12.769a2.514,2.514,0,0,0-.536-1.758,2.184,2.184,0,0,0-1.679-.58,2.769,2.769,0,0,0-2.215.817,4.127,4.127,0,0,0-.7,2.7V19h-1.459V9.367h1.187l.237,1.318h.07a2.979,2.979,0,0,1,1.257-1.1,4.084,4.084,0,0,1,1.8-.391,3.659,3.659,0,0,1,2.619.839,3.572,3.572,0,0,1,.879,2.685V19Zm7.567-1.028a4.766,4.766,0,0,0,.747-.057,4.836,4.836,0,0,0,.571-.119v1.116a2.667,2.667,0,0,1-.7.189,5.247,5.247,0,0,1-.831.075q-2.795,0-2.795-2.944V10.5h-1.38V9.8l1.38-.606.615-2.057h.844V9.367h2.795V10.5H147.16V16.17a1.95,1.95,0,0,0,.413,1.336A1.438,1.438,0,0,0,148.707,17.972Zm11.558-3.8a5.314,5.314,0,0,1-1.187,3.678,4.179,4.179,0,0,1-3.278,1.323,4.342,4.342,0,0,1-2.294-.606,4,4,0,0,1-1.547-1.74,6.065,6.065,0,0,1-.545-2.654,5.306,5.306,0,0,1,1.178-3.669,4.165,4.165,0,0,1,3.27-1.314,4.075,4.075,0,0,1,3.212,1.345A5.291,5.291,0,0,1,160.264,14.175Zm-7.339,0a4.572,4.572,0,0,0,.738,2.813,2.93,2.93,0,0,0,4.346,0,4.549,4.549,0,0,0,.743-2.817,4.476,4.476,0,0,0-.743-2.791,2.609,2.609,0,0,0-2.193-.954,2.568,2.568,0,0,0-2.162.94A4.526,4.526,0,0,0,152.925,14.175Zm13.043-4.808h1.564l2.109,5.493a20.894,20.894,0,0,1,.861,2.716h.07q.114-.448.479-1.534t2.386-6.675H175l-4.14,10.969a5.472,5.472,0,0,1-1.437,2.307,3.056,3.056,0,0,1-2.017.681,5.87,5.87,0,0,1-1.318-.149V22.006a5.086,5.086,0,0,0,1.081.105,2.228,2.228,0,0,0,2.145-1.687l.536-1.371Zm19.125,9.809a4.111,4.111,0,0,1-3.239-1.288,5.3,5.3,0,0,1-1.147-3.643,5.46,5.46,0,0,1,1.165-3.735,4.193,4.193,0,0,1,3.318-1.318,6.584,6.584,0,0,1,1.389.149,4.575,4.575,0,0,1,1.09.352l-.448,1.239a6.86,6.86,0,0,0-1.055-.321,4.709,4.709,0,0,0-1.011-.127q-2.936,0-2.936,3.744a4.458,4.458,0,0,0,.716,2.725,2.492,2.492,0,0,0,2.123.949,6.49,6.49,0,0,0,2.47-.519v1.292A5.264,5.264,0,0,1,185.093,19.176Zm13.034-5a5.314,5.314,0,0,1-1.187,3.678,4.179,4.179,0,0,1-3.278,1.323,4.342,4.342,0,0,1-2.294-.606,4,4,0,0,1-1.547-1.74,6.065,6.065,0,0,1-.545-2.654,5.306,5.306,0,0,1,1.178-3.669,4.165,4.165,0,0,1,3.27-1.314,4.075,4.075,0,0,1,3.212,1.345A5.291,5.291,0,0,1,198.127,14.175Zm-7.339,0a4.572,4.572,0,0,0,.738,2.813,2.93,2.93,0,0,0,4.346,0,4.549,4.549,0,0,0,.743-2.817,4.476,4.476,0,0,0-.743-2.791,2.609,2.609,0,0,0-2.193-.954,2.568,2.568,0,0,0-2.162.94A4.526,4.526,0,0,0,190.789,14.175ZM207.277,19V12.769a2.514,2.514,0,0,0-.536-1.758,2.184,2.184,0,0,0-1.679-.58,2.769,2.769,0,0,0-2.215.817,4.127,4.127,0,0,0-.7,2.7V19h-1.459V9.367h1.187l.237,1.318h.07a2.979,2.979,0,0,1,1.257-1.1,4.084,4.084,0,0,1,1.8-.391,3.659,3.659,0,0,1,2.619.839,3.572,3.572,0,0,1,.879,2.685V19Zm7.567-1.028a4.766,4.766,0,0,0,.747-.057,4.836,4.836,0,0,0,.571-.119v1.116a2.667,2.667,0,0,1-.7.189,5.247,5.247,0,0,1-.831.075q-2.795,0-2.795-2.944V10.5h-1.38V9.8l1.38-.606.615-2.057h.844V9.367h2.795V10.5H213.3V16.17a1.95,1.95,0,0,0,.413,1.336A1.438,1.438,0,0,0,214.844,17.972Zm7.638-8.78a5.709,5.709,0,0,1,1.151.105l-.2,1.354a4.97,4.97,0,0,0-1.055-.132,2.567,2.567,0,0,0-2,.949,3.461,3.461,0,0,0-.831,2.364V19h-1.459V9.367h1.2l.167,1.784h.07a4.234,4.234,0,0,1,1.292-1.45A2.908,2.908,0,0,1,222.482,9.191Zm10.907,4.983a5.314,5.314,0,0,1-1.187,3.678,4.179,4.179,0,0,1-3.278,1.323,4.342,4.342,0,0,1-2.294-.606,4,4,0,0,1-1.547-1.74,6.065,6.065,0,0,1-.545-2.654,5.306,5.306,0,0,1,1.178-3.669,4.165,4.165,0,0,1,3.27-1.314,4.075,4.075,0,0,1,3.212,1.345A5.291,5.291,0,0,1,233.389,14.175Zm-7.339,0a4.572,4.572,0,0,0,.738,2.813,2.93,2.93,0,0,0,4.346,0,4.549,4.549,0,0,0,.743-2.817,4.476,4.476,0,0,0-.743-2.791,2.609,2.609,0,0,0-2.193-.954,2.568,2.568,0,0,0-2.162.94A4.526,4.526,0,0,0,226.05,14.175ZM237.406,19h-1.459V5.324h1.459Zm14.326-1.292h-.079a3.428,3.428,0,0,1-3.023,1.468,3.577,3.577,0,0,1-2.94-1.292,5.687,5.687,0,0,1-1.05-3.674,5.783,5.783,0,0,1,1.055-3.7,3.549,3.549,0,0,1,2.936-1.318,3.5,3.5,0,0,1,3.006,1.424h.114l-.062-.694-.035-.677V5.324h1.459V19h-1.187Zm-2.918.246a2.656,2.656,0,0,0,2.167-.813,4.108,4.108,0,0,0,.672-2.624V14.21a4.834,4.834,0,0,0-.681-2.922,2.587,2.587,0,0,0-2.175-.875,2.233,2.233,0,0,0-1.964,1,4.96,4.96,0,0,0-.681,2.817,4.755,4.755,0,0,0,.677,2.786A2.292,2.292,0,0,0,248.814,17.954Zm11.461,1.222a4.426,4.426,0,0,1-3.371-1.3,5.036,5.036,0,0,1-1.235-3.612,5.585,5.585,0,0,1,1.147-3.7A3.81,3.81,0,0,1,259.9,9.191a3.633,3.633,0,0,1,2.865,1.191,4.564,4.564,0,0,1,1.055,3.142v.923h-6.636a3.818,3.818,0,0,0,.857,2.575,2.964,2.964,0,0,0,2.29.879,7.759,7.759,0,0,0,3.076-.65v1.3a7.721,7.721,0,0,1-1.463.479A8.224,8.224,0,0,1,260.275,19.176Zm-.4-8.763a2.383,2.383,0,0,0-1.85.756,3.484,3.484,0,0,0-.813,2.092h5.036a3.208,3.208,0,0,0-.615-2.114A2.165,2.165,0,0,0,259.879,10.413ZM116.728,43.176a4.169,4.169,0,0,1-1.718-.347,3.231,3.231,0,0,1-1.305-1.068H113.6a12.921,12.921,0,0,1,.105,1.6v3.964h-1.459V33.367h1.187l.2,1.318h.07a3.388,3.388,0,0,1,1.31-1.143,3.981,3.981,0,0,1,1.714-.352,3.56,3.56,0,0,1,2.958,1.31,5.766,5.766,0,0,1,1.042,3.674,5.732,5.732,0,0,1-1.059,3.687A3.566,3.566,0,0,1,116.728,43.176Zm-.211-8.745a2.585,2.585,0,0,0-2.136.817,4.206,4.206,0,0,0-.677,2.6v.325a4.821,4.821,0,0,0,.677,2.9,2.574,2.574,0,0,0,2.171.875,2.257,2.257,0,0,0,1.956-1.011,4.793,4.793,0,0,0,.708-2.786,4.613,4.613,0,0,0-.708-2.764A2.327,2.327,0,0,0,116.517,34.431Zm11.153-1.239a5.709,5.709,0,0,1,1.151.105l-.2,1.354a4.97,4.97,0,0,0-1.055-.132,2.567,2.567,0,0,0-2,.949,3.461,3.461,0,0,0-.831,2.364V43h-1.459V33.367h1.2l.167,1.784h.07a4.234,4.234,0,0,1,1.292-1.45A2.908,2.908,0,0,1,127.67,33.191Zm10.907,4.983a5.314,5.314,0,0,1-1.187,3.678,4.179,4.179,0,0,1-3.278,1.323,4.342,4.342,0,0,1-2.294-.606,4,4,0,0,1-1.547-1.74,6.065,6.065,0,0,1-.545-2.654,5.306,5.306,0,0,1,1.178-3.669,4.165,4.165,0,0,1,3.27-1.314,4.075,4.075,0,0,1,3.212,1.345A5.291,5.291,0,0,1,138.577,38.175Zm-7.339,0a4.572,4.572,0,0,0,.738,2.813,2.93,2.93,0,0,0,4.346,0,4.549,4.549,0,0,0,.743-2.817,4.476,4.476,0,0,0-.743-2.791,2.609,2.609,0,0,0-2.193-.954,2.568,2.568,0,0,0-2.162.94A4.526,4.526,0,0,0,131.238,38.175Zm13.746,5a4.111,4.111,0,0,1-3.239-1.288,5.3,5.3,0,0,1-1.147-3.643,5.46,5.46,0,0,1,1.165-3.735,4.193,4.193,0,0,1,3.318-1.318,6.584,6.584,0,0,1,1.389.149,4.575,4.575,0,0,1,1.09.352l-.448,1.239a6.86,6.86,0,0,0-1.055-.321,4.709,4.709,0,0,0-1.011-.127q-2.936,0-2.936,3.744a4.458,4.458,0,0,0,.716,2.725,2.492,2.492,0,0,0,2.123.949,6.49,6.49,0,0,0,2.47-.519v1.292A5.264,5.264,0,0,1,144.984,43.176Zm8.789,0a4.426,4.426,0,0,1-3.371-1.3,5.036,5.036,0,0,1-1.235-3.612,5.585,5.585,0,0,1,1.147-3.7,3.81,3.81,0,0,1,3.081-1.371,3.633,3.633,0,0,1,2.865,1.191,4.564,4.564,0,0,1,1.055,3.142v.923H150.68a3.818,3.818,0,0,0,.857,2.575,2.964,2.964,0,0,0,2.29.879,7.759,7.759,0,0,0,3.076-.65v1.3a7.721,7.721,0,0,1-1.463.479A8.224,8.224,0,0,1,153.773,43.176Zm-.4-8.763a2.383,2.383,0,0,0-1.85.756,3.484,3.484,0,0,0-.813,2.092h5.036a3.208,3.208,0,0,0-.615-2.114A2.165,2.165,0,0,0,153.378,34.413Zm12.639,5.959a2.413,2.413,0,0,1-1,2.074,4.71,4.71,0,0,1-2.812.729,6.116,6.116,0,0,1-2.988-.606V41.216a7.227,7.227,0,0,0,1.49.554,6.221,6.221,0,0,0,1.534.2A3.478,3.478,0,0,0,164,41.607a1.256,1.256,0,0,0,.127-2.074,7.673,7.673,0,0,0-1.9-.945,10.318,10.318,0,0,1-1.912-.875,2.611,2.611,0,0,1-.844-.848,2.212,2.212,0,0,1-.277-1.134,2.161,2.161,0,0,1,.958-1.859,4.464,4.464,0,0,1,2.628-.681,7.689,7.689,0,0,1,3.041.633l-.519,1.187a6.98,6.98,0,0,0-2.628-.6,3.023,3.023,0,0,0-1.564.325,1.006,1.006,0,0,0-.527.9,1.092,1.092,0,0,0,.2.659,1.952,1.952,0,0,0,.637.519,14.24,14.24,0,0,0,1.688.712,6.3,6.3,0,0,1,2.316,1.257A2.216,2.216,0,0,1,166.017,40.372Zm10.688-2.2a5.314,5.314,0,0,1-1.187,3.678,4.179,4.179,0,0,1-3.278,1.323,4.342,4.342,0,0,1-2.294-.606,4,4,0,0,1-1.547-1.74,6.065,6.065,0,0,1-.545-2.654,5.306,5.306,0,0,1,1.178-3.669,4.165,4.165,0,0,1,3.27-1.314,4.075,4.075,0,0,1,3.212,1.345A5.291,5.291,0,0,1,176.7,38.175Zm-7.339,0a4.572,4.572,0,0,0,.738,2.813,2.93,2.93,0,0,0,4.346,0,4.549,4.549,0,0,0,.743-2.817,4.476,4.476,0,0,0-.743-2.791,2.609,2.609,0,0,0-2.193-.954,2.568,2.568,0,0,0-2.162.94A4.526,4.526,0,0,0,169.365,38.175Zm16.11,2.2a2.413,2.413,0,0,1-1,2.074,4.71,4.71,0,0,1-2.812.729,6.116,6.116,0,0,1-2.988-.606V41.216a7.227,7.227,0,0,0,1.49.554,6.221,6.221,0,0,0,1.534.2,3.478,3.478,0,0,0,1.758-.365,1.256,1.256,0,0,0,.127-2.074,7.673,7.673,0,0,0-1.9-.945,10.318,10.318,0,0,1-1.912-.875,2.611,2.611,0,0,1-.844-.848,2.212,2.212,0,0,1-.277-1.134,2.161,2.161,0,0,1,.958-1.859,4.464,4.464,0,0,1,2.628-.681,7.689,7.689,0,0,1,3.041.633l-.519,1.187a6.98,6.98,0,0,0-2.628-.6,3.023,3.023,0,0,0-1.564.325,1.006,1.006,0,0,0-.527.9,1.092,1.092,0,0,0,.2.659,1.952,1.952,0,0,0,.637.519,14.24,14.24,0,0,0,1.688.712,6.3,6.3,0,0,1,2.316,1.257A2.216,2.216,0,0,1,185.476,40.372Z" transform="translate(597 2398)" fill="#00223d"/>
    <g id="Grupo_39245" data-name="Grupo 39245" transform="translate(422 2368.483)">
      <g id="Grupo_39168" data-name="Grupo 39168" transform="translate(3.677 0)">
        <g id="Grupo_39125" data-name="Grupo 39125" transform="translate(77.442 62.883)">
          <g id="Grupo_39124" data-name="Grupo 39124">
            <rect id="Rectángulo_32686" data-name="Rectángulo 32686" width="8.182" height="8.182" transform="translate(8.182 8.182) rotate(180)" fill="#2b79e6"/>
          </g>
        </g>
        <g id="Grupo_39127" data-name="Grupo 39127" transform="translate(108.694 45.665)">
          <g id="Grupo_39126" data-name="Grupo 39126">
            <rect id="Rectángulo_32687" data-name="Rectángulo 32687" width="8.182" height="8.182" transform="translate(11.176 4.091) rotate(119.999)" fill="#2b79e6"/>
          </g>
        </g>
        <g id="Grupo_39129" data-name="Grupo 39129" transform="translate(108.694 14.223)">
          <g id="Grupo_39128" data-name="Grupo 39128">
            <rect id="Rectángulo_32688" data-name="Rectángulo 32688" width="8.182" height="8.182" transform="translate(7.086 0) rotate(60.001)" fill="#2b79e6"/>
          </g>
        </g>
        <g id="Grupo_39131" data-name="Grupo 39131" transform="translate(77.442)">
          <g id="Grupo_39130" data-name="Grupo 39130">
            <rect id="Rectángulo_32689" data-name="Rectángulo 32689" width="8.182" height="8.182" fill="#2b79e6"/>
          </g>
        </g>
        <g id="Grupo_39133" data-name="Grupo 39133" transform="translate(43.426 14.223)">
          <g id="Grupo_39132" data-name="Grupo 39132">
            <rect id="Rectángulo_32690" data-name="Rectángulo 32690" width="8.182" height="8.182" transform="translate(0 7.086) rotate(-60)" fill="#2b79e6"/>
          </g>
        </g>
        <g id="Grupo_39135" data-name="Grupo 39135" transform="translate(43.426 45.665)">
          <g id="Grupo_39134" data-name="Grupo 39134">
            <rect id="Rectángulo_32691" data-name="Rectángulo 32691" width="8.182" height="8.182" transform="translate(4.091 11.177) rotate(-120)" fill="#2b79e6"/>
          </g>
        </g>
        <g id="Grupo_39137" data-name="Grupo 39137" transform="translate(55.064 3.544)">
          <g id="Grupo_39136" data-name="Grupo 39136">
            <ellipse id="Elipse_526" data-name="Elipse 526" cx="29.952" cy="29.952" rx="29.952" ry="29.952" transform="matrix(0.998, -0.07, 0.07, 0.998, 0, 4.22)" fill="#2b79e6"/>
          </g>
        </g>
        <g id="Grupo_39139" data-name="Grupo 39139" transform="translate(21.728 70.893)">
          <g id="Grupo_39138" data-name="Grupo 39138">
            <rect id="Rectángulo_32692" data-name="Rectángulo 32692" width="4.635" height="4.634" transform="translate(5.032 4.616) rotate(174.842)" fill="#ff645f"/>
          </g>
        </g>
        <g id="Grupo_39141" data-name="Grupo 39141" transform="translate(38.402 60.077)">
          <g id="Grupo_39140" data-name="Grupo 39140">
            <rect id="Rectángulo_32693" data-name="Rectángulo 32693" width="4.634" height="4.634" transform="matrix(-0.42, 0.907, -0.907, -0.42, 6.153, 1.947)" fill="#ff645f"/>
          </g>
        </g>
        <g id="Grupo_39143" data-name="Grupo 39143" transform="translate(36.337 42.187)">
          <g id="Grupo_39142" data-name="Grupo 39142">
            <rect id="Rectángulo_32694" data-name="Rectángulo 32694" width="4.634" height="4.634" transform="translate(3.789 0) rotate(54.842)" fill="#ff645f"/>
          </g>
        </g>
        <g id="Grupo_39145" data-name="Grupo 39145" transform="translate(15.121 35.417)">
          <g id="Grupo_39144" data-name="Grupo 39144">
            <rect id="Rectángulo_32695" data-name="Rectángulo 32695" width="4.634" height="4.634" transform="matrix(0.996, -0.09, 0.09, 0.996, 0, 0.416)" fill="#ff645f"/>
          </g>
        </g>
        <g id="Grupo_39147" data-name="Grupo 39147" transform="translate(0 45.112)">
          <g id="Grupo_39146" data-name="Grupo 39146">
            <rect id="Rectángulo_32696" data-name="Rectángulo 32696" width="4.634" height="4.634" transform="matrix(0.42, -0.907, 0.907, 0.42, 0, 4.205)" fill="#ff645f"/>
          </g>
        </g>
        <g id="Grupo_39149" data-name="Grupo 39149" transform="translate(1.448 62.698)">
          <g id="Grupo_39148" data-name="Grupo 39148">
            <rect id="Rectángulo_32697" data-name="Rectángulo 32697" width="4.634" height="4.635" transform="translate(2.669 6.458) rotate(-125.158)" fill="#ff645f"/>
          </g>
        </g>
        <g id="Grupo_39151" data-name="Grupo 39151" transform="translate(2.927 39.36)">
          <g id="Grupo_39150" data-name="Grupo 39150">
            <path id="Trazado_83122" data-name="Trazado 83122" d="M859.089,335.482A16.31,16.31,0,1,1,876.8,350.26,16.31,16.31,0,0,1,859.089,335.482Z" transform="translate(-859.021 -317.704)" fill="#ff645f"/>
          </g>
        </g>
        <g id="Grupo_39153" data-name="Grupo 39153" transform="translate(26.409 30.889)">
          <g id="Grupo_39152" data-name="Grupo 39152">
            <rect id="Rectángulo_32698" data-name="Rectángulo 32698" width="3.184" height="3.184" transform="matrix(-0.993, 0.118, -0.118, -0.993, 3.537, 3.162)" fill="#29266b"/>
          </g>
        </g>
        <g id="Grupo_39155" data-name="Grupo 39155" transform="translate(37.663 23.243)">
          <g id="Grupo_39154" data-name="Grupo 39154">
            <rect id="Rectángulo_32699" data-name="Rectángulo 32699" width="3.184" height="3.184" transform="translate(4.182 1.256) rotate(113.233)" fill="#29266b"/>
          </g>
        </g>
        <g id="Grupo_39157" data-name="Grupo 39157" transform="translate(35.809 10.954)">
          <g id="Grupo_39156" data-name="Grupo 39156">
            <rect id="Rectángulo_32700" data-name="Rectángulo 32700" width="3.184" height="3.184" transform="matrix(0.599, 0.801, -0.801, 0.599, 2.551, 0)" fill="#29266b"/>
          </g>
        </g>
        <g id="Grupo_39159" data-name="Grupo 39159" transform="translate(22.998 6.586)">
          <g id="Grupo_39158" data-name="Grupo 39158">
            <rect id="Rectángulo_32701" data-name="Rectángulo 32701" width="3.184" height="3.184" transform="translate(0 0.375) rotate(-6.765)" fill="#29266b"/>
          </g>
        </g>
        <g id="Grupo_39161" data-name="Grupo 39161" transform="translate(9.314 13.588)">
          <g id="Grupo_39160" data-name="Grupo 39160">
            <rect id="Rectángulo_32702" data-name="Rectángulo 32702" width="3.184" height="3.184" transform="translate(0 2.926) rotate(-66.766)" fill="#29266b"/>
          </g>
        </g>
        <g id="Grupo_39163" data-name="Grupo 39163" transform="translate(10.619 25.602)">
          <g id="Grupo_39162" data-name="Grupo 39162">
            <rect id="Rectángulo_32703" data-name="Rectángulo 32703" width="3.184" height="3.184" transform="translate(1.906 4.457) rotate(-126.764)" fill="#29266b"/>
          </g>
        </g>
        <g id="Grupo_39165" data-name="Grupo 39165" transform="translate(10.348 8.205)">
          <g id="Grupo_39164" data-name="Grupo 39164">
            <path id="Trazado_83123" data-name="Trazado 83123" d="M869.891,286.189a12.3,12.3,0,1,1,13.664,10.766A12.3,12.3,0,0,1,869.891,286.189Z" transform="translate(-869.804 -272.439)" fill="#29266b"/>
          </g>
        </g>
        <g id="Grupo_39167" data-name="Grupo 39167" transform="translate(21.044 54.24)">
          <g id="Grupo_39166" data-name="Grupo 39166">
            <path id="Trazado_83124" data-name="Trazado 83124" d="M880.64,340.755a1.432,1.432,0,1,1,1.432,1.432A1.432,1.432,0,0,1,880.64,340.755Z" transform="translate(-880.64 -339.323)" fill="#ff645f"/>
          </g>
        </g>
      </g>
      <g id="Grupo_39169" data-name="Grupo 39169" transform="translate(26.51 89.257)">
        <rect id="Rectángulo_32704" data-name="Rectángulo 32704" width="7.131" height="15.975" fill="#8cb3de"/>
      </g>
      <g id="Grupo_39170" data-name="Grupo 39170" transform="translate(36.758 82.216)">
        <rect id="Rectángulo_32705" data-name="Rectángulo 32705" width="7.131" height="23.016" fill="#2b79e6"/>
      </g>
      <g id="Grupo_39171" data-name="Grupo 39171" transform="translate(47.005 76.981)">
        <rect id="Rectángulo_32706" data-name="Rectángulo 32706" width="7.131" height="28.251" fill="#ff645f"/>
      </g>
      <g id="Grupo_39172" data-name="Grupo 39172" transform="translate(57.253 72.058)">
        <rect id="Rectángulo_32707" data-name="Rectángulo 32707" width="7.131" height="33.173" fill="#29266b"/>
      </g>
      <g id="Grupo_39173" data-name="Grupo 39173" transform="translate(67.501 76.948)">
        <rect id="Rectángulo_32708" data-name="Rectángulo 32708" width="7.131" height="28.283" fill="#8cb3de"/>
      </g>
      <g id="Grupo_39174" data-name="Grupo 39174" transform="translate(77.749 83.971)">
        <rect id="Rectángulo_32709" data-name="Rectángulo 32709" width="7.131" height="21.26" fill="#2b79e6"/>
      </g>
      <g id="Grupo_39175" data-name="Grupo 39175" transform="translate(87.996 83.106)">
        <rect id="Rectángulo_32710" data-name="Rectángulo 32710" width="7.131" height="22.126" fill="#ff9f9f"/>
      </g>
      <g id="Grupo_39176" data-name="Grupo 39176" transform="translate(98.244 73.73)">
        <rect id="Rectángulo_32711" data-name="Rectángulo 32711" width="7.131" height="31.501" fill="#29266b"/>
      </g>
      <g id="Grupo_39178" data-name="Grupo 39178" transform="translate(70.315 24.175)">
        <g id="Grupo_39177" data-name="Grupo 39177">
          <ellipse id="Elipse_527" data-name="Elipse 527" cx="11.079" cy="11.079" rx="11.079" ry="11.079" transform="translate(0 8.397) rotate(-22.269)" fill="#fff"/>
        </g>
      </g>
      <g id="Grupo_39180" data-name="Grupo 39180" transform="translate(20.421 55.998)">
        <g id="Grupo_39179" data-name="Grupo 39179">
          <path id="Trazado_83125" data-name="Trazado 83125" d="M874.781,339.413a5.48,5.48,0,1,1,5.95,4.965A5.48,5.48,0,0,1,874.781,339.413Z" transform="translate(-874.758 -333.441)" fill="#fff"/>
        </g>
      </g>
      <g id="Grupo_39182" data-name="Grupo 39182" transform="translate(27.142 19.419)">
        <g id="Grupo_39181" data-name="Grupo 39181">
          <path id="Trazado_83126" data-name="Trazado 83126" d="M883.339,289.306a3,3,0,1,1,3.333,2.626A3,3,0,0,1,883.339,289.306Z" transform="translate(-883.318 -285.953)" fill="#fff"/>
        </g>
      </g>
      <g id="Grupo_39211" data-name="Grupo 39211" transform="translate(0 52.852)">
        <g id="Grupo_39184" data-name="Grupo 39184" transform="translate(6.077 3.468)">
          <g id="Grupo_39183" data-name="Grupo 39183">
            <path id="Trazado_83127" data-name="Trazado 83127" d="M863.419,328.147a4.443,4.443,0,0,0-4.759,2.693,4.191,4.191,0,0,0-.369,2.35,1.045,1.045,0,0,0,1.041.92h1.78Z" transform="translate(-858.256 -328.1)" fill="#112256"/>
          </g>
        </g>
        <g id="Grupo_39186" data-name="Grupo 39186" transform="translate(5.854 28.161)">
          <g id="Grupo_39185" data-name="Grupo 39185">
            <path id="Trazado_83128" data-name="Trazado 83128" d="M857.952,363.977h10.661l-.284,22.777h-2.036s-1.542-13.782-2.123-20.115h-1.412l-.424,20.115H860.3s-2.4-17.864-2.339-21.309A13.33,13.33,0,0,1,857.952,363.977Z" transform="translate(-857.933 -363.977)" fill="#fca89e"/>
          </g>
        </g>
        <g id="Grupo_39188" data-name="Grupo 39188" transform="translate(4.533 11.852)">
          <g id="Grupo_39187" data-name="Grupo 39187">
            <path id="Trazado_83129" data-name="Trazado 83129" d="M857.353,356.591h10.661l-1.467-5.444,2.8-8.718a2.191,2.191,0,0,0-2.417-2.147h-8.489a2.191,2.191,0,0,0-2.417,2.147l3.026,8.718Z" transform="translate(-856.013 -340.282)" fill="#ffc7c7"/>
          </g>
        </g>
        <g id="Grupo_39190" data-name="Grupo 39190" transform="translate(9.378 9.236)">
          <g id="Grupo_39189" data-name="Grupo 39189">
            <path id="Trazado_83130" data-name="Trazado 83130" d="M864.93,340.6c-1.889,0-1.878-1.284-1.878-1.593v-2.09c0-.474.706-.434,1.126-.434h1.352c.421,0,1.126.383,1.126.857V339A1.608,1.608,0,0,1,864.93,340.6Z" transform="translate(-863.052 -336.481)" fill="#fca89e"/>
          </g>
        </g>
        <g id="Grupo_39194" data-name="Grupo 39194" transform="translate(7.752 3.45)">
          <path id="Trazado_83131" data-name="Trazado 83131" d="M867.094,333.859c-.543,1.838-2.08,1.556-3.918,1.013a3.47,3.47,0,0,1,1.967-6.655C866.981,328.76,867.637,332.021,867.094,333.859Z" transform="translate(-860.69 -328.074)" fill="#fca89e"/>
          <g id="Grupo_39193" data-name="Grupo 39193" clip-path="url(#clip-path)">
            <g id="Grupo_39192" data-name="Grupo 39192" transform="translate(-0.81 -0.893)">
              <g id="Grupo_39191" data-name="Grupo 39191">
                <path id="Trazado_83132" data-name="Trazado 83132" d="M862.905,329.527s0,1.225-.169,1.225a1.191,1.191,0,0,0-1.268.338c-.465.592.043,1.183.592,1.31s.169,1.564-1.141,1.31-1.774-3.337-1.1-4.521,2.831-2.493,3.591-2.408a53.59,53.59,0,0,1,5.775,2.785Z" transform="translate(-859.513 -326.777)" fill="#112256"/>
              </g>
            </g>
          </g>
        </g>
        <g id="Grupo_39196" data-name="Grupo 39196" transform="translate(14.208 50.909)">
          <g id="Grupo_39195" data-name="Grupo 39195">
            <path id="Trazado_83134" data-name="Trazado 83134" d="M872.14,397.028h-2.07v1.588h4.2c.277,0,.372-.623.13-.757Z" transform="translate(-870.07 -397.028)" fill="#ff645f"/>
          </g>
        </g>
        <g id="Grupo_39198" data-name="Grupo 39198" transform="translate(8.124 50.909)">
          <g id="Grupo_39197" data-name="Grupo 39197">
            <path id="Trazado_83135" data-name="Trazado 83135" d="M863.3,397.028h-2.07v1.588h4.2c.277,0,.372-.623.129-.757Z" transform="translate(-861.231 -397.028)" fill="#ff645f"/>
          </g>
        </g>
        <g id="Grupo_39200" data-name="Grupo 39200" transform="translate(1.285 28.711)">
          <g id="Grupo_39199" data-name="Grupo 39199">
            <path id="Trazado_83136" data-name="Trazado 83136" d="M851.391,364.776h2.051s-.117,1.746-1.2,1.922C850.874,366.919,851.391,364.776,851.391,364.776Z" transform="translate(-851.295 -364.776)" fill="#fca89e"/>
          </g>
        </g>
        <g id="Grupo_39202" data-name="Grupo 39202" transform="translate(0 12.044)">
          <g id="Grupo_39201" data-name="Grupo 39201">
            <path id="Trazado_83137" data-name="Trazado 83137" d="M855.488,340.56c-.865.1-2.147,1.666-4.039,5s-2.051,3.974-2.019,4.455,1.378,7.212,1.378,7.212h2.051l-.608-7.308,3.429-6.058Z" transform="translate(-849.427 -340.56)" fill="#ffc7c7"/>
          </g>
        </g>
        <g id="Grupo_39204" data-name="Grupo 39204" transform="translate(19.264 28.711)">
          <g id="Grupo_39203" data-name="Grupo 39203">
            <path id="Trazado_83138" data-name="Trazado 83138" d="M879.466,364.776h-2.051s.117,1.746,1.2,1.922C879.982,366.919,879.466,364.776,879.466,364.776Z" transform="translate(-877.415 -364.776)" fill="#fca89e"/>
          </g>
        </g>
        <g id="Grupo_39206" data-name="Grupo 39206" transform="translate(16.442 12.044)">
          <g id="Grupo_39205" data-name="Grupo 39205">
            <path id="Trazado_83139" data-name="Trazado 83139" d="M873.509,340.56c.865.1,2.147,1.666,4.039,5s2.051,3.974,2.019,4.455-1.378,7.212-1.378,7.212h-2.051l.608-7.308-3.43-6.058Z" transform="translate(-873.316 -340.56)" fill="#ffc7c7"/>
          </g>
        </g>
        <g id="Grupo_39208" data-name="Grupo 39208" transform="translate(3.788 28.161)">
          <g id="Grupo_39207" data-name="Grupo 39207">
            <path id="Trazado_83140" data-name="Trazado 83140" d="M857.016,363.977h10.662l4.081,18.528h-7.693l-1.539-11.635v11.635h-7.6Z" transform="translate(-854.931 -363.977)" fill="#29266b"/>
          </g>
        </g>
        <g id="Grupo_39210" data-name="Grupo 39210" transform="translate(8.686)">
          <g id="Grupo_39209" data-name="Grupo 39209">
            <path id="Trazado_83141" data-name="Trazado 83141" d="M863.467,327.1c-.756,0-2.207-2.271-.883-3.532a2.047,2.047,0,0,1,3.344,1.2C866.054,326.979,865.107,327.1,863.467,327.1Z" transform="translate(-862.047 -323.062)" fill="#112256"/>
          </g>
        </g>
      </g>
      <g id="Grupo_39244" data-name="Grupo 39244" transform="translate(105.751 54.076)">
        <g id="Grupo_39213" data-name="Grupo 39213" transform="translate(10.44 29.211)">
          <g id="Grupo_39212" data-name="Grupo 39212">
            <path id="Trazado_83142" data-name="Trazado 83142" d="M1001.758,367.28h-9.67l.257,20.658h1.847s1.4-10.392,1.924-16.136h1.28l.385,16.136h1.847s2.179-16.2,2.121-19.326A12.068,12.068,0,0,0,1001.758,367.28Z" transform="translate(-992.088 -367.28)" fill="#fca89e"/>
          </g>
        </g>
        <g id="Grupo_39215" data-name="Grupo 39215" transform="translate(10.18 9.92)">
          <g id="Grupo_39214" data-name="Grupo 39214">
            <path id="Trazado_83143" data-name="Trazado 83143" d="M1001.347,351.924H992.32l-.6-11a1.7,1.7,0,0,1,1.878-1.668h7.111a1.7,1.7,0,0,1,1.878,1.668Z" transform="translate(-991.71 -339.253)" fill="#112256"/>
          </g>
        </g>
        <g id="Grupo_39217" data-name="Grupo 39217" transform="translate(14.123 7.557)">
          <g id="Grupo_39216" data-name="Grupo 39216">
            <path id="Trazado_83144" data-name="Trazado 83144" d="M998.139,338.932h1.246a.748.748,0,0,0,.7-.789v-1.535a.748.748,0,0,0-.7-.789h-1.246a.749.749,0,0,0-.7.789v1.535A.749.749,0,0,0,998.139,338.932Z" transform="translate(-997.438 -335.819)" fill="#fca89e"/>
          </g>
        </g>
        <g id="Grupo_39219" data-name="Grupo 39219" transform="translate(7.988 49.839)">
          <g id="Grupo_39218" data-name="Grupo 39218">
            <path id="Trazado_83145" data-name="Trazado 83145" d="M990.944,397.251h2.089v1.6H988.8c-.279,0-.376-.628-.131-.763Z" transform="translate(-988.525 -397.251)" fill="#ff645f"/>
          </g>
        </g>
        <g id="Grupo_39221" data-name="Grupo 39221" transform="translate(13.52 49.839)">
          <g id="Grupo_39220" data-name="Grupo 39220">
            <path id="Trazado_83146" data-name="Trazado 83146" d="M998.982,397.251h2.089v1.6h-4.237c-.279,0-.376-.628-.131-.763Z" transform="translate(-996.563 -397.251)" fill="#ff645f"/>
          </g>
        </g>
        <g id="Grupo_39223" data-name="Grupo 39223" transform="translate(8.204 22.47)">
          <g id="Grupo_39222" data-name="Grupo 39222">
            <path id="Trazado_83147" data-name="Trazado 83147" d="M991.425,357.486h9.027a4.637,4.637,0,0,1,2.229,3.968c.431,5.527-3.03,15.25-3.03,15.25h-8.517s-2.83-11.6-2.2-15.25A5.525,5.525,0,0,1,991.425,357.486Z" transform="translate(-988.839 -357.486)" fill="#f5abbc"/>
          </g>
        </g>
        <g id="Grupo_39227" data-name="Grupo 39227" transform="translate(11.849 2.089)">
          <path id="Trazado_83148" data-name="Trazado 83148" d="M994.164,331.861c-.253,1.747,1.141,2.1,2.887,2.357a3.2,3.2,0,1,0,.918-6.325C996.223,327.639,994.418,330.115,994.164,331.861Z" transform="translate(-994.135 -327.875)" fill="#fda8a3"/>
          <g id="Grupo_39226" data-name="Grupo 39226" clip-path="url(#clip-path-2)">
            <g id="Grupo_39225" data-name="Grupo 39225" transform="translate(0.474 -1.696)">
              <g id="Grupo_39224" data-name="Grupo 39224">
                <path id="Trazado_83149" data-name="Trazado 83149" d="M994.824,328.62l4.267,2.328s.813-.9,1.166-.008c.306.769-.913,1.218-.957,1.448-.366,1.9,1.118,3.006,2.2.838s.688-5.791.4-5.921-2.96-1.793-3.172-1.891-2.842,1.874-3.125,1.743S994.824,328.62,994.824,328.62Z" transform="translate(-994.824 -325.411)" fill="#7f4d4e"/>
              </g>
            </g>
          </g>
        </g>
        <g id="Grupo_39231" data-name="Grupo 39231" transform="translate(10.18 9.92)">
          <g id="Grupo_39230" data-name="Grupo 39230" clip-path="url(#clip-path-3)">
            <g id="Grupo_39229" data-name="Grupo 39229" transform="translate(1.993 -3.611)">
              <g id="Grupo_39228" data-name="Grupo 39228">
                <path id="Trazado_83151" data-name="Trazado 83151" d="M1001.2,337.307a3.3,3.3,0,1,1-3.3-3.3A3.3,3.3,0,0,1,1001.2,337.307Z" transform="translate(-994.606 -334.007)" fill="#fca89e"/>
              </g>
            </g>
          </g>
        </g>
        <g id="Grupo_39233" data-name="Grupo 39233">
          <g id="Grupo_39232" data-name="Grupo 39232">
            <rect id="Rectángulo_32712" data-name="Rectángulo 32712" width="9.04" height="6.004" transform="translate(0 8.94) rotate(-81.491)" fill="#d0e0f0"/>
          </g>
        </g>
        <g id="Grupo_39235" data-name="Grupo 39235" transform="translate(3.203 8.357)">
          <g id="Grupo_39234" data-name="Grupo 39234">
            <path id="Trazado_83153" data-name="Trazado 83153" d="M981.907,337.61l.729-.516a.612.612,0,0,1,.853.147l1.147,1.622-1.708,1.251-1.2-1.391A.791.791,0,0,1,981.907,337.61Z" transform="translate(-981.573 -336.982)" fill="#fca89e"/>
          </g>
        </g>
        <g id="Grupo_39237" data-name="Grupo 39237" transform="translate(4.558 10.077)">
          <g id="Grupo_39236" data-name="Grupo 39236">
            <path id="Trazado_83154" data-name="Trazado 83154" d="M990.308,339.481a3.722,3.722,0,0,0-1.831,2.573,30,30,0,0,1-1.683,3.711l-1.544-6.124-1.708,1.251s.794,6.463,1.818,8.683c.594,1.286,3.167.594,5.246-4.009C991.359,343.9,990.308,339.481,990.308,339.481Z" transform="translate(-983.542 -339.481)" fill="#29266b"/>
          </g>
        </g>
        <g id="Grupo_39239" data-name="Grupo 39239" transform="translate(19.292 10.275)">
          <g id="Grupo_39238" data-name="Grupo 39238">
            <path id="Trazado_83155" data-name="Trazado 83155" d="M1005.988,339.769a10.756,10.756,0,0,1,2.375,2.821,55.5,55.5,0,0,1,2.351,5.122c.248.495,2.4,9.674,2.4,9.674l-1.88.4-2.647-7.745-3.638-5.765Z" transform="translate(-1004.949 -339.769)" fill="#29266b"/>
          </g>
        </g>
        <g id="Grupo_39241" data-name="Grupo 39241" transform="translate(25.483 27.893)">
          <g id="Grupo_39240" data-name="Grupo 39240">
            <path id="Trazado_83156" data-name="Trazado 83156" d="M1015.918,365.365l-1.88.4a9.725,9.725,0,0,0-.05,1.93,4.973,4.973,0,0,0,1.089.891,3.456,3.456,0,0,0,1.658-.593C1016.932,367.79,1015.992,365.39,1015.918,365.365Z" transform="translate(-1013.943 -365.365)" fill="#fca89e"/>
          </g>
        </g>
        <g id="Grupo_39243" data-name="Grupo 39243" transform="translate(17.395 0.197)">
          <g id="Grupo_39242" data-name="Grupo 39242">
            <path id="Trazado_83157" data-name="Trazado 83157" d="M1002.193,328.359a15.168,15.168,0,0,1,2.375-3.233,12.77,12.77,0,0,1,1.913,3.365c-.066.33-4.223.659-4.223.659Z" transform="translate(-1002.193 -325.126)" fill="#7f4d4e"/>
          </g>
        </g>
      </g>
    </g>
  </g>
</svg>
