<svg xmlns="http://www.w3.org/2000/svg" width="297.086" height="302.4" viewBox="0 0 297.086 302.4">
  <g id="Grupo_40295" data-name="Grupo 40295" transform="translate(-192.629 -178.189)">
    <g id="Grupo_40272" data-name="Grupo 40272" transform="translate(340.3 307.364)">
      <path id="Trazado_84051" data-name="Trazado 84051" d="M1019.531,995.592l37.947,15.24,46.973-116.964-32.076-12.882a6.327,6.327,0,0,0-8.229,3.513Z" transform="translate(-1015.066 -880.485)" fill="#f4a640"/>
      <g id="Grupo_40270" data-name="Grupo 40270" transform="translate(0 8.596)">
        <rect id="Rectángulo_32912" data-name="Rectángulo 32912" width="73.791" height="103.751" transform="translate(72.658 115.039) rotate(-169.947)" fill="#adcfd8"/>
        <rect id="Rectángulo_32913" data-name="Rectángulo 32913" width="32.952" height="0.74" transform="translate(68.78 20.191) rotate(-169.947)" fill="#55769f"/>
        <rect id="Rectángulo_32914" data-name="Rectángulo 32914" width="46.797" height="0.74" transform="translate(75.923 19.553) rotate(-169.947)" fill="#55769f"/>
        <rect id="Rectángulo_32915" data-name="Rectángulo 32915" width="56.776" height="0.74" transform="translate(79.153 29.919) rotate(-169.947)" fill="#55769f"/>
        <rect id="Rectángulo_32916" data-name="Rectángulo 32916" width="56.776" height="0.74" transform="translate(78.532 33.423) rotate(-169.947)" fill="#55769f"/>
        <rect id="Rectángulo_32917" data-name="Rectángulo 32917" width="56.776" height="0.74" transform="translate(77.29 40.43) rotate(-169.947)" fill="#55769f"/>
        <rect id="Rectángulo_32918" data-name="Rectángulo 32918" width="56.776" height="0.74" transform="translate(76.668 43.933) rotate(-169.947)" fill="#55769f"/>
        <rect id="Rectángulo_32919" data-name="Rectángulo 32919" width="56.776" height="0.74" transform="translate(76.047 47.437) rotate(-169.947)" fill="#55769f"/>
        <rect id="Rectángulo_32920" data-name="Rectángulo 32920" width="56.776" height="0.74" transform="translate(73.316 62.847) rotate(-169.947)" fill="#55769f"/>
        <rect id="Rectángulo_32921" data-name="Rectángulo 32921" width="56.776" height="0.74" transform="matrix(-0.985, -0.175, 0.175, -0.985, 72.672, 66.479)" fill="#55769f"/>
        <rect id="Rectángulo_32922" data-name="Rectángulo 32922" width="56.776" height="0.74" transform="translate(72.028 70.112) rotate(-169.947)" fill="#55769f"/>
        <rect id="Rectángulo_32923" data-name="Rectángulo 32923" width="56.776" height="0.74" transform="translate(71.383 73.745) rotate(-169.947)" fill="#55769f"/>
        <rect id="Rectángulo_32924" data-name="Rectángulo 32924" width="56.776" height="0.74" transform="translate(70.739 77.378) rotate(-169.947)" fill="#55769f"/>
        <rect id="Rectángulo_32925" data-name="Rectángulo 32925" width="56.776" height="0.74" transform="translate(70.095 81.011) rotate(-169.947)" fill="#55769f"/>
        <rect id="Rectángulo_32926" data-name="Rectángulo 32926" width="56.776" height="0.74" transform="translate(69.451 84.644) rotate(-169.947)" fill="#55769f"/>
      </g>
      <g id="Grupo_40271" data-name="Grupo 40271" transform="translate(2.177 6.045)">
        <rect id="Rectángulo_32927" data-name="Rectángulo 32927" width="73.791" height="103.751" transform="matrix(-0.967, -0.255, 0.255, -0.967, 71.361, 119.115)" fill="#daeef7"/>
        <rect id="Rectángulo_32928" data-name="Rectángulo 32928" width="32.952" height="0.74" transform="matrix(-0.967, -0.255, 0.255, -0.967, 75.254, 24.268)" fill="#55769f"/>
        <rect id="Rectángulo_32929" data-name="Rectángulo 32929" width="46.797" height="0.74" transform="translate(82.425 24.216) rotate(-165.256)" fill="#55769f"/>
        <rect id="Rectángulo_32930" data-name="Rectángulo 32930" width="56.776" height="0.74" transform="matrix(-0.967, -0.255, 0.255, -0.967, 84.796, 34.812)" fill="#55769f"/>
        <rect id="Rectángulo_32931" data-name="Rectángulo 32931" width="56.776" height="0.74" transform="translate(83.89 38.253) rotate(-165.256)" fill="#55769f"/>
        <rect id="Rectángulo_32932" data-name="Rectángulo 32932" width="56.776" height="0.74" transform="translate(82.079 45.135) rotate(-165.256)" fill="#55769f"/>
        <rect id="Rectángulo_32933" data-name="Rectángulo 32933" width="56.776" height="0.74" transform="translate(81.174 48.576) rotate(-165.256)" fill="#55769f"/>
        <rect id="Rectángulo_32934" data-name="Rectángulo 32934" width="56.776" height="0.74" transform="translate(80.268 52.017) rotate(-165.256)" fill="#55769f"/>
        <rect id="Rectángulo_32935" data-name="Rectángulo 32935" width="56.776" height="0.74" transform="translate(76.285 67.151) rotate(-165.256)" fill="#55769f"/>
        <rect id="Rectángulo_32936" data-name="Rectángulo 32936" width="56.776" height="0.74" transform="matrix(-0.967, -0.255, 0.255, -0.967, 75.346, 70.719)" fill="#55769f"/>
        <rect id="Rectángulo_32937" data-name="Rectángulo 32937" width="56.776" height="0.74" transform="matrix(-0.967, -0.255, 0.255, -0.967, 74.407, 74.287)" fill="#55769f"/>
        <rect id="Rectángulo_32938" data-name="Rectángulo 32938" width="56.776" height="0.74" transform="translate(73.468 77.856) rotate(-165.256)" fill="#55769f"/>
        <rect id="Rectángulo_32939" data-name="Rectángulo 32939" width="56.776" height="0.74" transform="translate(72.529 81.424) rotate(-165.256)" fill="#55769f"/>
        <rect id="Rectángulo_32940" data-name="Rectángulo 32940" width="56.776" height="0.74" transform="matrix(-0.967, -0.255, 0.255, -0.967, 71.59, 84.992)" fill="#55769f"/>
        <rect id="Rectángulo_32941" data-name="Rectángulo 32941" width="56.776" height="0.74" transform="matrix(-0.967, -0.255, 0.255, -0.967, 70.651, 88.56)" fill="#55769f"/>
      </g>
      <path id="Trazado_84052" data-name="Trazado 84052" d="M1097.791,1001.181l76.4,30.681,44.558-110.949-64.2-39.6a6.834,6.834,0,0,0-9.93,3.27Z" transform="translate(-1078.927 -880.293)" fill="#feb546"/>
    </g>
    <g id="Grupo_40273" data-name="Grupo 40273" transform="translate(393.165 393.903)">
      <path id="Trazado_84053" data-name="Trazado 84053" d="M1357.043,1373.359l13.842-4.055c2.437-10.073,3.9-18.652,3.9-18.652-16.7.673-29.554,5.785-39.44,13.051l-2.045,16.452-4.416-11.03c-23.339,22.257-26.07,56.616-26.07,56.616s46.975-18.38,55.928-25.954c3.457-2.925,6.636-10.916,9.236-19.626C1363.306,1377.644,1357.043,1373.359,1357.043,1373.359Z" transform="translate(-1299.095 -1350.652)" fill="#ff5b7e"/>
      <path id="Trazado_84054" data-name="Trazado 84054" d="M1374.785,1350.652s-54.973,43.122-71.97,75.088c0,0,46.975-18.38,55.928-25.954,3.457-2.925,6.636-10.916,9.236-19.626-4.673-2.516-10.936-6.8-10.936-6.8l13.842-4.055C1373.322,1359.231,1374.785,1350.652,1374.785,1350.652Z" transform="translate(-1299.095 -1350.652)" fill="#e03268"/>
      <path id="Trazado_84055" data-name="Trazado 84055" d="M1367.726,1568.827a66.111,66.111,0,0,0-27.4-2.081c-1.58,3.63-3.561,7.933-3.561,7.933l-2.217-6.892c-31.722,7.138-51.947,35.229-51.947,35.229,21.274,6.477,37.616,5.4,50.018.911.083-2.646.152-6.578.152-6.578l3.772,4.993a56.7,56.7,0,0,0,14.664-9.558c-1.981-2.583-4.14-5.565-4.14-5.565l7.8,1.99A61.379,61.379,0,0,0,1367.726,1568.827Z" transform="translate(-1282.597 -1526.504)" fill="#ff5b7e"/>
      <path id="Trazado_84056" data-name="Trazado 84056" d="M1332.615,1615.788c.083-2.646.152-6.578.152-6.578l3.772,4.993a56.7,56.7,0,0,0,14.664-9.558c-1.981-2.583-4.14-5.565-4.14-5.565l7.8,1.99a61.38,61.38,0,0,0,12.861-20.382c-37.659,5.762-85.129,34.189-85.129,34.189C1303.871,1621.354,1320.213,1620.276,1332.615,1615.788Z" transform="translate(-1282.597 -1538.364)" fill="#e03268"/>
    </g>
    <g id="Grupo_40274" data-name="Grupo 40274" transform="translate(231.114 351.148)">
      <path id="Trazado_84057" data-name="Trazado 84057" d="M417.619,1119.2h-5.224a5.462,5.462,0,0,1,3.087-.934H546.359c6.847,0,12.4,4.92,12.4,10.99v6.981c0,6.07-5.551,10.99-12.4,10.99l-129.413-.039Z" transform="translate(-410.447 -1118.27)" fill="#e03268"/>
      <path id="Trazado_84058" data-name="Trazado 84058" d="M1093.253,1136.241v-6.981c0-6.07-5.551-10.99-12.4-10.99h2.81c6.847,0,12.4,4.92,12.4,10.99v6.981c0,6.07-5.551,10.99-12.4,10.99h-2.773C1087.722,1147.212,1093.253,1142.3,1093.253,1136.241Z" transform="translate(-955.921 -1118.27)" fill="#feb546"/>
      <path id="Trazado_84059" data-name="Trazado 84059" d="M926.652,1136.241v-6.981c0-6.07-5.551-10.99-12.4-10.99h2.811c6.847,0,12.4,4.92,12.4,10.99v6.981c0,6.07-5.551,10.99-12.4,10.99h-2.773C921.121,1147.212,926.652,1142.3,926.652,1136.241Z" transform="translate(-819.972 -1118.27)" fill="#feb546"/>
      <path id="Trazado_84060" data-name="Trazado 84060" d="M483.279,1118.41c6.548,0,11.857,4.705,11.857,10.51v7.889c0,5.8-5.308,10.51-11.857,10.51H401.8v-1.765h.337l20.712-1.739,4.187-14.558s-8.08-8.045-8.607-8.253-16.292-.837-16.292-.837l-.337,0v-1.755Z" transform="translate(-401.805 -1118.384)" fill="#ff5b7e"/>
      <path id="Trazado_84061" data-name="Trazado 84061" d="M408.517,1140.639c0-8.512-4.962-12.638-4.962-12.638h79.483c6.015,0,10.891,4.322,10.891,9.654v6.073c0,5.332-4.876,9.654-10.891,9.654H403.555S408.517,1151.357,408.517,1140.639Z" transform="translate(-403.233 -1126.211)" fill="#daeef7"/>
      <path id="Trazado_84062" data-name="Trazado 84062" d="M493.929,1137.655v6.073a8.634,8.634,0,0,1-.318,2.315c-2.681-5.814-7.818-11.414-17.6-13.215-22.835-4.2-72.458-4.827-72.458-4.827h79.483C489.053,1128,493.929,1132.323,493.929,1137.655Z" transform="translate(-403.233 -1126.211)" fill="#daeef7" style="mix-blend-mode: multiply;isolation: isolate"/>
    </g>
    <g id="Grupo_40275" data-name="Grupo 40275" transform="translate(232.323 408.8)">
      <path id="Trazado_84063" data-name="Trazado 84063" d="M426.277,1432.793h-5.913a5.773,5.773,0,0,1,3.494-1.169H571.985a13.9,13.9,0,0,1,14.032,13.757v8.738a13.9,13.9,0,0,1-14.032,13.757l-146.471-.049Z" transform="translate(-418.159 -1431.624)" fill="#07085b"/>
      <path id="Trazado_84064" data-name="Trazado 84064" d="M500.591,1431.8a13.289,13.289,0,0,1,13.419,13.156v9.875a13.29,13.29,0,0,1-13.419,13.156H408.378v-2.209h.381L432.2,1463.6l4.738-18.223s-9.145-10.07-9.742-10.33S408.759,1434,408.759,1434l-.381,0v-2.2Z" transform="translate(-408.378 -1431.768)" fill="#55769f"/>
      <path id="Trazado_84065" data-name="Trazado 84065" d="M415.976,1459.625c0-10.654-5.616-15.82-5.616-15.82h89.96a12.207,12.207,0,0,1,12.326,12.084v7.6a12.207,12.207,0,0,1-12.326,12.084H410.36S415.976,1473.041,415.976,1459.625Z" transform="translate(-409.995 -1441.565)" fill="#daeef7"/>
      <path id="Trazado_84066" data-name="Trazado 84066" d="M512.646,1455.89v7.6a11.877,11.877,0,0,1-.359,2.9c-3.034-7.278-8.849-14.287-19.919-16.541-25.845-5.262-82.008-6.042-82.008-6.042h89.96A12.207,12.207,0,0,1,512.646,1455.89Z" transform="translate(-409.995 -1441.565)" fill="#daeef7" style="mix-blend-mode: multiply;isolation: isolate"/>
    </g>
    <g id="Grupo_40276" data-name="Grupo 40276" transform="translate(245.261 380.036)">
      <path id="Trazado_84067" data-name="Trazado 84067" d="M638.5,1276.209h5.915a6.813,6.813,0,0,0-3.5-.928H492.735c-7.753,0-14.038,4.887-14.038,10.916v6.933c0,6.029,6.285,10.916,14.038,10.916l146.528-.038Z" transform="translate(-478.697 -1275.281)" fill="#02ccc0"/>
      <path id="Trazado_84068" data-name="Trazado 84068" d="M830.472,1275.421c-7.414,0-13.425,4.673-13.425,10.439v7.836c0,5.765,6.01,10.439,13.425,10.439h92.249v-1.753h-.381l-23.452-1.727-4.74-14.46s9.149-7.99,9.745-8.2,18.447-.831,18.447-.831l.381,0v-1.743Z" transform="translate(-754.796 -1275.395)" fill="#06bfad"/>
      <path id="Trazado_84069" data-name="Trazado 84069" d="M929.97,1297.5a15.933,15.933,0,0,1,5.618-12.552h-90c-6.81,0-12.331,4.293-12.331,9.589v6.031c0,5.3,5.521,9.588,12.331,9.588h90S929.97,1308.144,929.97,1297.5Z" transform="translate(-768.028 -1283.169)" fill="#daeef7"/>
      <path id="Trazado_84070" data-name="Trazado 84070" d="M833.262,1294.536v6.031a7.586,7.586,0,0,0,.36,2.3c3.035-5.775,8.853-11.337,19.927-13.125,25.855-4.175,82.04-4.794,82.04-4.794h-90C838.783,1284.947,833.262,1289.24,833.262,1294.536Z" transform="translate(-768.028 -1283.169)" fill="#daeef7" style="mix-blend-mode: multiply;isolation: isolate"/>
      <path id="Trazado_84071" data-name="Trazado 84071" d="M563.837,1293.13V1286.2c0-6.028,6.285-10.916,14.038-10.916H563.8c-7.753,0-14.038,4.887-14.038,10.916v6.933c0,6.029,6.285,10.916,14.038,10.916l13.885,0C570.022,1303.964,563.837,1299.11,563.837,1293.13Z" transform="translate(-536.69 -1275.281)" fill="#55769f" opacity="0.5"/>
    </g>
    <path id="Trazado_84072" data-name="Trazado 84072" d="M511.759,1630.1h7.416a9.355,9.355,0,0,0-4.382-1.037H329.016c-9.72,0-17.6,5.46-17.6,12.2V1649c0,6.736,7.879,12.2,17.6,12.2l183.7-.043Z" transform="translate(-96.933 -1183.936)" fill="#feb546"/>
    <path id="Trazado_84073" data-name="Trazado 84073" d="M752.427,1629.218c-9.3,0-16.83,5.222-16.83,11.663v8.755c0,6.441,7.535,11.663,16.83,11.663h115.65v-1.958H867.6l-29.4-1.93-5.942-16.155s11.469-8.928,12.217-9.158,23.126-.929,23.126-.929l.478,0v-1.948Z" transform="translate(-443.071 -1184.064)" fill="#f4a640"/>
    <path id="Trazado_84074" data-name="Trazado 84074" d="M877.165,1653.886a17.3,17.3,0,0,1,7.043-14.025H771.384c-8.538,0-15.459,4.8-15.459,10.713v6.739c0,5.917,6.921,10.713,15.459,10.713H884.208S877.165,1665.779,877.165,1653.886Z" transform="translate(-459.659 -1192.748)" fill="#daeef7"/>
    <path id="Trazado_84075" data-name="Trazado 84075" d="M755.925,1650.574v6.739a7.64,7.64,0,0,0,.451,2.569c3.805-6.452,11.1-12.666,24.981-14.665,32.414-4.665,102.851-5.356,102.851-5.356H771.384C762.846,1639.861,755.925,1644.657,755.925,1650.574Z" transform="translate(-459.659 -1192.748)" fill="#daeef7" style="mix-blend-mode: multiply;isolation: isolate"/>
    <path id="Rectángulo_32942" data-name="Rectángulo 32942" d="M1.773,0H270.529A1.773,1.773,0,0,1,272.3,1.773v0a1.773,1.773,0,0,1-1.773,1.773H1.773A1.773,1.773,0,0,1,0,1.773v0A1.773,1.773,0,0,1,1.773,0Z" transform="translate(464.931 480.589) rotate(180)" fill="#c4dfe8"/>
    <path id="Trazado_84076" data-name="Trazado 84076" d="M1419.768,1035.713l-52.013-29.75-7.03,13.926,53.221,28.156Z" transform="translate(-953.186 -675.478)" fill="#f4a640"/>
    <path id="Trazado_84077" data-name="Trazado 84077" d="M1433.338,583.232s.41,4.045,3.6,4.325c-3.192.28-3.6,4.325-3.6,4.325s-.41-4.045-3.6-4.325C1432.928,587.277,1433.338,583.232,1433.338,583.232Z" transform="translate(-1009.5 -330.522)" fill="#02ccc0"/>
    <path id="Trazado_84078" data-name="Trazado 84078" d="M1731.241,1224.174s.615,6.068,5.4,6.488c-4.788.42-5.4,6.487-5.4,6.487s-.615-6.068-5.4-6.487C1730.625,1230.242,1731.241,1224.174,1731.241,1224.174Z" transform="translate(-1251.123 -853.541)" fill="#ff5b7e"/>
    <path id="Trazado_84079" data-name="Trazado 84079" d="M1652.32,403.436s.546,5.388,4.8,5.761c-4.252.373-4.8,5.761-4.8,5.761s-.547-5.388-4.8-5.761C1651.773,408.824,1652.32,403.436,1652.32,403.436Z" transform="translate(-1187.216 -183.805)" fill="#feb546"/>
    <path id="Trazado_84080" data-name="Trazado 84080" d="M283.661,1354.033s.368,3.626,3.229,3.877c-2.861.251-3.229,3.877-3.229,3.877s-.368-3.626-3.229-3.877C283.293,1357.659,283.661,1354.033,283.661,1354.033Z" transform="translate(-71.649 -959.508)" fill="#feb546"/>
    <path id="Trazado_84081" data-name="Trazado 84081" d="M1555.46,800.107s.367,3.618,3.222,3.868c-2.855.25-3.222,3.868-3.222,3.868s-.367-3.618-3.222-3.868C1555.093,803.725,1555.46,800.107,1555.46,800.107Z" transform="translate(-1109.463 -507.495)" fill="#ff5b7e"/>
    <path id="Trazado_84082" data-name="Trazado 84082" d="M1285.3,283.937s.367,3.618,3.222,3.868c-2.855.25-3.222,3.869-3.222,3.869s-.367-3.618-3.222-3.869C1284.932,287.555,1285.3,283.937,1285.3,283.937Z" transform="translate(-889.008 -86.292)" fill="#ff5b7e"/>
    <path id="Trazado_84083" data-name="Trazado 84083" d="M467.4,534.259s.48,4.734,4.217,5.062c-3.736.327-4.217,5.062-4.217,5.062s-.48-4.734-4.216-5.062C466.922,538.993,467.4,534.259,467.4,534.259Z" transform="translate(-220.779 -290.559)" fill="#ff5b7e"/>
    <path id="Trazado_84084" data-name="Trazado 84084" d="M284.018,980.007s.7,6.937,6.177,7.417c-5.474.48-6.177,7.417-6.177,7.417s-.7-6.937-6.177-7.417C283.315,986.944,284.018,980.007,284.018,980.007Z" transform="translate(-69.534 -654.297)" fill="#ff5b7e"/>
    <path id="Trazado_84085" data-name="Trazado 84085" d="M1199.891,637.466s.546,5.388,4.8,5.761c-4.252.373-4.8,5.761-4.8,5.761s-.547-5.388-4.8-5.761C1199.345,642.854,1199.891,637.466,1199.891,637.466Z" transform="translate(-818.027 -374.778)" fill="#ff5b7e"/>
    <path id="Trazado_84086" data-name="Trazado 84086" d="M1760.006,953.619s.546,5.388,4.8,5.761c-4.252.373-4.8,5.761-4.8,5.761s-.547-5.388-4.8-5.761C1759.46,959.007,1760.006,953.619,1760.006,953.619Z" transform="translate(-1275.09 -632.764)" fill="#02ccc0"/>
    <path id="Trazado_84087" data-name="Trazado 84087" d="M314.835,352.678s.389,3.838,3.418,4.1c-3.029.266-3.418,4.1-3.418,4.1s-.389-3.838-3.418-4.1C314.446,356.516,314.835,352.678,314.835,352.678Z" transform="translate(-96.933 -142.386)" fill="#02ccc0"/>
    <path id="Trazado_84088" data-name="Trazado 84088" d="M525.485,868.389s.624,6.147,5.474,6.572c-4.851.425-5.474,6.573-5.474,6.573s-.623-6.147-5.474-6.573C524.862,874.536,525.485,868.389,525.485,868.389Z" transform="translate(-267.149 -563.215)" fill="#02ccc0"/>
    <path id="Trazado_84089" data-name="Trazado 84089" d="M240.678,650.842s.426,4.877,3.738,5.214c-3.312.337-3.738,5.214-3.738,5.214s-.426-4.877-3.738-5.214C240.252,655.719,240.678,650.842,240.678,650.842Z" transform="translate(-36.159 -385.693)" fill="#feb546"/>
    <path id="Trazado_84090" data-name="Trazado 84090" d="M671.708,227.1s.427,4.891,3.749,5.229c-3.322.338-3.749,5.229-3.749,5.229s-.427-4.891-3.749-5.229C671.281,231.986,671.708,227.1,671.708,227.1Z" transform="translate(-387.877 -39.908)" fill="#feb546"/>
    <g id="Grupo_40291" data-name="Grupo 40291" transform="translate(307.644 218.491)">
      <g id="Grupo_40290" data-name="Grupo 40290">
        <path id="Trazado_84091" data-name="Trazado 84091" d="M964.461,760.6l8.392.674-2.709,6.789-4.236-.34-1.764,5.659c-.43-.2-.747-.345-.81-.387a51.85,51.85,0,0,1-1.008-5.546Z" transform="translate(-935.73 -693.748)" fill="#daeef7" style="mix-blend-mode: multiply;isolation: isolate"/>
        <path id="Trazado_84092" data-name="Trazado 84092" d="M999.96,1099.924v2.958a.442.442,0,0,0,.441.443h6.907a.5.5,0,0,0,.269-.924l-3.875-2.477A3.663,3.663,0,0,1,999.96,1099.924Z" transform="translate(-966.44 -970.642)" fill="#e03268"/>
        <path id="Trazado_84093" data-name="Trazado 84093" d="M908.84,401.125a.136.136,0,0,1-.184-.154c.173-.821.7-3.41.5-3.5-.237-.109-.765,2.193-1,2.221s.332-2.2.06-2.28-.725,1.977-.851,1.985.1-2-.035-2.145-.634,1.979-.783,2.032-.291-1.524-.427-1.528-.227-.029-.927,3.614a5.053,5.053,0,0,1-.278,1.648l.526,1.073,1.63.054s3.54-3.2,3.511-3.4S910.393,400.516,908.84,401.125Z" transform="translate(-888.878 -397.243)" fill="#ffc0bb"/>
        <path id="Trazado_84094" data-name="Trazado 84094" d="M1011.306,407.65a.136.136,0,0,0,.234-.053c.221-.81.931-3.355,1.149-3.346.26.011-.319,2.3-.117,2.434s.709-2.113.985-2.056-.256,2.09-.148,2.155.827-1.829,1.009-1.894-.338,2.051-.229,2.166.954-1.225,1.077-1.165.215.078-.822,3.64a5.054,5.054,0,0,0-.5,1.594l-.957.715-1.475-.695s-1.691-4.465-1.576-4.625S1010.2,406.4,1011.306,407.65Z" transform="translate(-974.573 -402.961)" fill="#ffc0bb"/>
        <path id="Trazado_84095" data-name="Trazado 84095" d="M920.319,573.7l.026,6.228-6.05-.933,1.009-7Z" transform="translate(-896.535 -539.841)" fill="#ffc0bb"/>
        <path id="Trazado_84096" data-name="Trazado 84096" d="M917.255,575.216l.465-3.224,5.021,2.3,0,1.229A9.129,9.129,0,0,1,917.255,575.216Z" transform="translate(-898.951 -539.841)" fill="#fc8d84" opacity="0.6"/>
        <path id="Trazado_84097" data-name="Trazado 84097" d="M849.331,1098.137v3.245a.485.485,0,0,1-.485.485h-7.6a.55.55,0,0,1-.3-1.013l4.262-2.716A4.041,4.041,0,0,0,849.331,1098.137Z" transform="translate(-836.479 -969.184)" fill="#e03268"/>
        <g id="Grupo_40279" data-name="Grupo 40279" transform="translate(4.156 68.97)">
          <g id="Grupo_40278" data-name="Grupo 40278">
            <g id="Grupo_40277" data-name="Grupo 40277">
              <path id="Trazado_84098" data-name="Trazado 84098" d="M842.112,776.967c.015-.694-1.791,1.352-1.757.8.709-11.522,23.221-1.861,23.221-1.861l5.5,4.033,6.2,53.4s-3.368.975-5.584.177l-13.738-45.76-1.69-.65A95.492,95.492,0,0,1,842.112,776.967Z" transform="translate(-840.354 -772.113)" fill="#07085b"/>
            </g>
          </g>
        </g>
        <g id="Grupo_40289" data-name="Grupo 40289" transform="translate(4.083 72.005)">
          <g id="Grupo_40288" data-name="Grupo 40288">
            <g id="Grupo_40280" data-name="Grupo 40280" transform="translate(0.03 3.088)">
              <path id="Trazado_84099" data-name="Trazado 84099" d="M840.138,805.39c-.006.135-.013.272-.018.414C840.125,805.662,840.132,805.525,840.138,805.39Z" transform="translate(-840.12 -805.39)" fill="#06bfad"/>
            </g>
            <g id="Grupo_40281" data-name="Grupo 40281" transform="translate(0.014 3.509)">
              <path id="Trazado_84100" data-name="Trazado 84100" d="M840.05,807.679c-.005.144-.01.293-.015.444C840.04,807.972,840.045,807.823,840.05,807.679Z" transform="translate(-840.035 -807.679)" fill="#06bfad"/>
            </g>
            <g id="Grupo_40282" data-name="Grupo 40282" transform="translate(0 4.012)">
              <path id="Trazado_84101" data-name="Trazado 84101" d="M839.97,810.412c0,.157-.009.317-.012.482Q839.964,810.647,839.97,810.412Z" transform="translate(-839.958 -810.412)" fill="#06bfad"/>
            </g>
            <g id="Grupo_40283" data-name="Grupo 40283" transform="translate(0.052 2.618)">
              <path id="Trazado_84102" data-name="Trazado 84102" d="M840.262,802.835c-.008.124-.015.254-.021.386C840.248,803.089,840.255,802.959,840.262,802.835Z" transform="translate(-840.241 -802.835)" fill="#06bfad"/>
            </g>
            <g id="Grupo_40284" data-name="Grupo 40284" transform="translate(0.056)">
              <path id="Trazado_84103" data-name="Trazado 84103" d="M840.281,788.607c4.638,4.9,13.906,11.957,13.906,11.957l1.69.65-1.69-.65L848.964,846.8s-3.723.709-5.85-.443C843.114,846.353,839.978,802.345,840.281,788.607Z" transform="translate(-840.26 -788.607)" fill="#07085b"/>
            </g>
            <g id="Grupo_40285" data-name="Grupo 40285" transform="translate(31.92 58.19)">
              <path id="Trazado_84104" data-name="Trazado 84104" d="M1016.528,1104.883a14.483,14.483,0,0,1-3.074.483,14.483,14.483,0,0,0,3.074-.483Z" transform="translate(-1013.454 -1104.883)" fill="#06bfad"/>
            </g>
            <g id="Grupo_40286" data-name="Grupo 40286" transform="translate(30.061 58.547)">
              <path id="Trazado_84105" data-name="Trazado 84105" d="M1003.345,1106.824c.149.03.3.055.456.075C1003.647,1106.879,1003.494,1106.854,1003.345,1106.824Z" transform="translate(-1003.345 -1106.824)" fill="#06bfad"/>
            </g>
            <g id="Grupo_40287" data-name="Grupo 40287" transform="translate(30.749 58.647)">
              <path id="Trazado_84106" data-name="Trazado 84106" d="M1008.257,1107.394a9.039,9.039,0,0,1-1.172-.026A9.039,9.039,0,0,0,1008.257,1107.394Z" transform="translate(-1007.085 -1107.368)" fill="#06bfad"/>
            </g>
          </g>
        </g>
        <path id="Trazado_84107" data-name="Trazado 84107" d="M938.772,785.566l.886,7.621c-2.343.907-8.054,1.876-12.357-7.537-1.357-2.969-1.706-5.105-1.456-6.639a61.1,61.1,0,0,1,7.432,2.522Z" transform="translate(-905.899 -708.772)" fill="#050645"/>
        <path id="Trazado_84108" data-name="Trazado 84108" d="M847.277,606.36c.26,0,4.159-8.838,4.159-8.838,3.336,2.339,7.863.715,7.863.715s18.217,33.337,6,38.536-23.741-1.126-23.741-1.126-2.6-6.758-2.6-7.018S847.017,606.36,847.277,606.36Z" transform="translate(-835.06 -560.674)" fill="#daeef7"/>
        <path id="Trazado_84109" data-name="Trazado 84109" d="M956.56,435.962s.789,15.817-.693,18.716c-4.917,9.618-11.026,10.592-11.026,10.592s-2.1,33.64-.368,41.7c0,0,5.762,1.776,14.253-2.209,0,0-6.5-26.08-6.152-29.373,0,0,10.4-9.271,10.744-20.189a73.718,73.718,0,0,0-2.513-20.622Z" transform="translate(-920.602 -427.707)" fill="#55769f"/>
        <path id="Trazado_84110" data-name="Trazado 84110" d="M825.7,494.035a153.543,153.543,0,0,1,3.509-24.391c2.859-11.87,4.939-16.809,4.939-16.809-3.834-4.224-3.2-8.042-2.859-13,.39-5.719,5.979-17.156,5.979-17.156l-3.769-2.469c-18.066,21.7-8.058,38.991-8.058,38.991s-6.758,23.914-7.668,31.192A55.038,55.038,0,0,0,825.7,494.035Z" transform="translate(-817.768 -415.987)" fill="#55769f"/>
        <path id="Trazado_84111" data-name="Trazado 84111" d="M980.129,639.253a4,4,0,0,1-.726-.69,7.334,7.334,0,0,1-1.438-3.129,9.091,9.091,0,0,0,1.547,3.037,3.7,3.7,0,0,0,.844.772l-.051.047c0,.022,0,.045-.006.068a1.977,1.977,0,0,1-1.373-.323,6.247,6.247,0,0,1-1.155-.829,8.331,8.331,0,0,0,1.2.746A2.589,2.589,0,0,0,980.129,639.253Z" transform="translate(-948.332 -591.611)" fill="#fff"/>
        <path id="Trazado_84112" data-name="Trazado 84112" d="M859.614,614.86a4,4,0,0,0,.825-.76,8.845,8.845,0,0,0,1.547-3.037,7.34,7.34,0,0,1-1.438,3.129,4.014,4.014,0,0,1-.726.69,1.642,1.642,0,0,0,.509-.059,3.354,3.354,0,0,0,.653-.242,8.212,8.212,0,0,0,1.2-.746,6.315,6.315,0,0,1-1.156.829,3.4,3.4,0,0,1-.663.278,1.4,1.4,0,0,1-.741.038l-.139-.037Z" transform="translate(-851.808 -571.724)" fill="#fff"/>
        <path id="Trazado_84113" data-name="Trazado 84113" d="M898.246,509.958l-.366,4.274.675.425,1.248-5.2Z" transform="translate(-883.141 -488.807)" fill="#07085b"/>
        <path id="Trazado_84114" data-name="Trazado 84114" d="M892.188,526.358a1.464,1.464,0,1,1-1.739-1.484A1.637,1.637,0,0,1,892.188,526.358Z" transform="translate(-876.175 -501.375)" fill="#f99893"/>
        <path id="Trazado_84115" data-name="Trazado 84115" d="M898.135,502.448a14.11,14.11,0,0,1-.06-3.59c.024-.233.034-.467.039-.7a7.626,7.626,0,1,1,15.1,1.678,1.648,1.648,0,0,1,1.478.178,2.3,2.3,0,0,1-2.6,3.658,1.455,1.455,0,0,1-.292-.279,7.15,7.15,0,0,1-8.257,5.033A7.019,7.019,0,0,1,898.135,502.448Z" transform="translate(-883.23 -473.514)" fill="#ffc0bb"/>
        <path id="Trazado_84116" data-name="Trazado 84116" d="M943.517,534.086a.666.666,0,1,0,.6-.415A.667.667,0,0,0,943.517,534.086Z" transform="translate(-920.341 -508.57)" fill="#333"/>
        <path id="Trazado_84117" data-name="Trazado 84117" d="M912.723,529.477a.666.666,0,1,0,.606-.415A.667.667,0,0,0,912.723,529.477Z" transform="translate(-895.213 -504.809)" fill="#333"/>
        <path id="Trazado_84118" data-name="Trazado 84118" d="M920.749,558.24a4.364,4.364,0,0,1-1.07.367,3.386,3.386,0,0,1-1.114.042,2.877,2.877,0,0,1-1.047-.365,4.024,4.024,0,0,1-.87-.72,3.077,3.077,0,0,0,.816.806,2.627,2.627,0,0,0,1.083.41,3.017,3.017,0,0,0,1.155-.075A3.309,3.309,0,0,0,920.749,558.24Z" transform="translate(-898.456 -528.068)" fill="#f99893"/>
        <path id="Trazado_84119" data-name="Trazado 84119" d="M940.809,526.19a6.23,6.23,0,0,1,.995-.107,3.286,3.286,0,0,1,.925.11,3.043,3.043,0,0,1,.85.369,9.508,9.508,0,0,1,.815.585,2.205,2.205,0,0,0-.584-.886,2.163,2.163,0,0,0-.959-.535,2.263,2.263,0,0,0-1.1-.018A2.1,2.1,0,0,0,940.809,526.19Z" transform="translate(-918.171 -502.025)" fill="#07085b"/>
        <path id="Trazado_84120" data-name="Trazado 84120" d="M910,521.349a2.1,2.1,0,0,0-.743-.76,2.27,2.27,0,0,0-1.044-.334,2.168,2.168,0,0,0-1.079.2,2.216,2.216,0,0,0-.837.652,9.2,9.2,0,0,1,.96-.293,3.047,3.047,0,0,1,.924-.077,3.284,3.284,0,0,1,.911.192A6.25,6.25,0,0,1,910,521.349Z" transform="translate(-890.008 -497.619)" fill="#07085b"/>
        <path id="Trazado_84121" data-name="Trazado 84121" d="M924.053,530.779a9.57,9.57,0,0,0-.868.94,9.039,9.039,0,0,0-.746,1.047,2.506,2.506,0,0,0-.327.771c-.022.14-.011.275.223.505a3.081,3.081,0,0,0,.5.416,4.153,4.153,0,0,0,.557.32,7.01,7.01,0,0,1-.906-.87,1.241,1.241,0,0,1-.146-.228.491.491,0,0,1,.045-.237,3.461,3.461,0,0,1,.276-.543c.211-.359.45-.707.684-1.059S923.824,531.14,924.053,530.779Z" transform="translate(-902.908 -506.211)" fill="#f99893"/>
        <path id="Trazado_84122" data-name="Trazado 84122" d="M895.485,474.137s-2.245-.432.52-1.788,9.545-2.145,13.09.891c0,0,1.192-1.529,2.263-.858s-1.116,1.415-1.116,1.415,1.5.288,1.785,1.12c.213.615-.7.433-1.194.3.813.335,3.205,2.594.1,8.765-.55-.258-4.1-5.329-4.1-5.329s-7.147,2.348-5.844.4c0,0-8.329,2.095-6.31-1.681C894.674,477.369,891.6,476.907,895.485,474.137Z" transform="translate(-879.584 -457.55)" fill="#07085b"/>
        <path id="Trazado_84123" data-name="Trazado 84123" d="M968.4,500.077a1.464,1.464,0,0,0-1.363-.107c-.824.306-1.347,2.154-1.347,2.154s-2.7,2.209-1.382-7.417c1.292-9.457,3.081,1.574,3.081,1.574Z" transform="translate(-937.056 -473.649)" fill="#07085b"/>
      </g>
    </g>
    <g id="Grupo_40294" data-name="Grupo 40294" transform="translate(322.235 178.189)">
      <path id="Trazado_84124" data-name="Trazado 84124" d="M950.183,366.084l-12.331-.879A1.133,1.133,0,0,1,936.8,364h0a1.133,1.133,0,0,1,1.21-1.049l12.331.878a1.133,1.133,0,0,1,1.049,1.21h0A1.133,1.133,0,0,1,950.183,366.084Z" transform="translate(-929.49 -328.952)" fill="#feb546"/>
      <path id="Trazado_84125" data-name="Trazado 84125" d="M914.212,178.189l4.309,10.563,11.145,2.439-8.715,7.363,1.125,11.353-9.7-6.013-10.45,4.578,2.723-11.079-7.583-8.524,11.378-.834Z" transform="translate(-897.07 -178.189)" fill="#feb546"/>
      <g id="Grupo_40293" data-name="Grupo 40293" transform="translate(0 0)">
        <g id="Grupo_40292" data-name="Grupo 40292">
          <path id="Trazado_84126" data-name="Trazado 84126" d="M985.341,178.189l-1.1,15.5,5.414-4.937Z" transform="translate(-968.199 -178.189)" fill="#f4a640"/>
          <path id="Trazado_84127" data-name="Trazado 84127" d="M1000.795,248.858l-16.559,2.5,7.844,4.865Z" transform="translate(-968.199 -235.856)" fill="#f4a640"/>
          <path id="Trazado_84128" data-name="Trazado 84128" d="M913.107,237.358l-4.659-5.654-11.378.834Z" transform="translate(-897.07 -221.858)" fill="#f4a640"/>
          <path id="Trazado_84129" data-name="Trazado 84129" d="M923.487,277.218l11.177-14.782-8.454,3.7Z" transform="translate(-918.627 -246.936)" fill="#f4a640"/>
          <path id="Trazado_84130" data-name="Trazado 84130" d="M989.98,278.654l-8.968-16.218-.727,10.2Z" transform="translate(-964.975 -246.936)" fill="#f4a640"/>
        </g>
      </g>
      <rect id="Rectángulo_32943" data-name="Rectángulo 32943" width="18.782" height="6.601" transform="translate(5.143 36.266) rotate(4.075)" fill="#6f747a"/>
      <rect id="Rectángulo_32944" data-name="Rectángulo 32944" width="0.721" height="18.782" transform="translate(4.674 42.851) rotate(-85.926)" fill="#cdd6e0" style="mix-blend-mode: multiply;isolation: isolate"/>
      <rect id="Rectángulo_32945" data-name="Rectángulo 32945" width="0.721" height="18.782" transform="translate(5.105 36.801) rotate(-85.926)" fill="#cdd6e0" style="mix-blend-mode: multiply;isolation: isolate"/>
      <path id="Trazado_84131" data-name="Trazado 84131" d="M940.622,370.912,922.169,369.6a.848.848,0,0,1-.786-.906h0a.848.848,0,0,1,.906-.786l18.453,1.315a.848.848,0,0,1,.786.906h0A.848.848,0,0,1,940.622,370.912Z" transform="translate(-916.908 -332.999)" fill="#f4a640"/>
      <path id="Trazado_84132" data-name="Trazado 84132" d="M937.347,413.022l-19.69-1.4a.228.228,0,0,1-.211-.244l.088-1.237a.228.228,0,0,1,.244-.211l19.69,1.4a.228.228,0,0,1,.212.244l-.088,1.237A.228.228,0,0,1,937.347,413.022Z" transform="translate(-913.697 -367.291)" fill="#6f747a"/>
      <path id="Trazado_84133" data-name="Trazado 84133" d="M954.786,390.131l-7.124-.508a1.607,1.607,0,0,1-1.489-1.717h0a1.607,1.607,0,0,1,1.717-1.489l7.124.507a1.607,1.607,0,0,1,1.489,1.717h0A1.607,1.607,0,0,1,954.786,390.131Z" transform="translate(-937.135 -348.104)" fill="#feb546"/>
      <path id="Trazado_84134" data-name="Trazado 84134" d="M950.076,391.478a1.073,1.073,0,0,1-.975-1.276,1.1,1.1,0,0,1,1.173-.858l7.033.5a1.1,1.1,0,0,1,1.039,1.015,1.072,1.072,0,0,1-1.146,1.125Z" transform="translate(-939.512 -350.493)" fill="#d9d9d9" style="mix-blend-mode: multiply;isolation: isolate"/>
      <path id="Trazado_84135" data-name="Trazado 84135" d="M969.835,327.456l-3.963-.282.026-.367a19.9,19.9,0,0,1,2.626-8.905h0a19.287,19.287,0,0,1,1.337,9.188Z" transform="translate(-953.214 -292.196)" fill="#feb546"/>
    </g>
  </g>
</svg>
