<svg xmlns="http://www.w3.org/2000/svg" width="198" height="98" viewBox="0 0 198 98">
  <g id="Grupo_40302" data-name="Grupo 40302" transform="translate(-508 -2888)">
    <rect id="Rectángulo_31685" data-name="Rectángulo 31685" width="198" height="98" rx="15" transform="translate(508 2888)" fill="#15579f"/>
    <path id="Trazado_84137" data-name="Trazado 84137" d="M73.908,9.1H77.2l-1.617-5.1Zm.167-8.06h3.059L81.722,14H78.786l-.835-2.663H73.179L72.282,14h-2.83Zm14.4,3.146a3.7,3.7,0,0,1,2.43.778,3.163,3.163,0,0,1,.945,2.58V14H89.28V8.173a2.659,2.659,0,0,0-.2-1.16,1.422,1.422,0,0,0-1.406-.738,1.744,1.744,0,0,0-1.749,1.081,3.713,3.713,0,0,0-.246,1.459V14h-2.5V4.438H85.6v1.4a4.252,4.252,0,0,1,.914-1.063A3.177,3.177,0,0,1,88.472,4.191Zm4.7,2.1V4.508H94.51V1.836h2.479V4.508h1.556V6.292H96.988v5.063a1.14,1.14,0,0,0,.149.734,1.645,1.645,0,0,0,.914.145q.114,0,.242,0t.25-.013v1.872l-1.187.044a3.184,3.184,0,0,1-2.426-.615,1.832,1.832,0,0,1-.422-1.327v-5.9Zm10.758-.062a1.7,1.7,0,0,0-1.349.545,2.72,2.72,0,0,0-.6,1.477h3.894a2.181,2.181,0,0,0-.6-1.507A1.87,1.87,0,0,0,103.932,6.23Zm0-2.065a5.021,5.021,0,0,1,2.153.448,3.772,3.772,0,0,1,1.582,1.415,4.828,4.828,0,0,1,.729,1.978,12.771,12.771,0,0,1,.079,1.9h-6.557a2.381,2.381,0,0,0,.905,2.021,2.132,2.132,0,0,0,1.248.36,1.8,1.8,0,0,0,1.257-.439,2.087,2.087,0,0,0,.466-.659h2.558a3.178,3.178,0,0,1-.888,1.731,4.349,4.349,0,0,1-3.445,1.4,4.858,4.858,0,0,1-3.226-1.178,4.75,4.75,0,0,1-1.4-3.832,5.326,5.326,0,0,1,1.261-3.814A4.312,4.312,0,0,1,103.932,4.165Zm8.183,6.776a1.673,1.673,0,0,0,.343.949,2.317,2.317,0,0,0,1.723.5,2.626,2.626,0,0,0,1.173-.22.737.737,0,0,0,.083-1.3,14.3,14.3,0,0,0-2.61-.756A5.437,5.437,0,0,1,110.532,9.1a2.191,2.191,0,0,1-.668-1.723A2.988,2.988,0,0,1,110.906,5.1a4.183,4.183,0,0,1,2.931-.954,5.378,5.378,0,0,1,2.922.716,3.068,3.068,0,0,1,1.3,2.474h-2.5a1.482,1.482,0,0,0-.272-.765,1.714,1.714,0,0,0-1.406-.51,2.021,2.021,0,0,0-1.165.255.734.734,0,0,0-.347.6.654.654,0,0,0,.369.624,15.98,15.98,0,0,0,2.61.694A4.8,4.8,0,0,1,117.581,9.3a2.415,2.415,0,0,1,.738,1.8,2.911,2.911,0,0,1-1.059,2.325,6.354,6.354,0,0,1-6.609-.053,3.1,3.1,0,0,1-1.077-2.43Z" transform="translate(513 2926)" fill="#fff"/>
  </g>
</svg>
